<?xml version="1.0" encoding="utf-8"?>
<!-- Generator: Adobe Illustrator 19.1.0, SVG Export Plug-In . SVG Version: 6.00 Build 0)  -->
<svg version="1.1" id="Layer_1" xmlns="http://www.w3.org/2000/svg" xmlns:xlink="http://www.w3.org/1999/xlink" x="0px" y="0px"
	 viewBox="0 0 79.3 41.9" style="enable-background:new 0 0 79.3 41.9;" xml:space="preserve">
<style type="text/css">
	.st0{fill-rule:evenodd;clip-rule:evenodd;fill:url(#SVGID_1_);}
	.st1{fill:#010101;}
	.st2{fill-rule:evenodd;clip-rule:evenodd;fill:#FFFFFF;}
	.st3{fill-rule:evenodd;clip-rule:evenodd;fill:url(#SVGID_2_);}
	.st4{fill-rule:evenodd;clip-rule:evenodd;fill:#E6E6E5;}
</style>
<g>
	<g>
		<g>
			
				<linearGradient id="SVGID_1_" gradientUnits="userSpaceOnUse" x1="190.1808" y1="991.9747" x2="248.8468" y2="991.9747" gradientTransform="matrix(0.99 -0.1411 0.1411 0.99 -328.4877 -932.011)">
				<stop  offset="0" style="stop-color:#9E0B0F"/>
				<stop  offset="7.606477e-02" style="stop-color:#AB0F14"/>
				<stop  offset="0.2326" style="stop-color:#C2151C"/>
				<stop  offset="0.3974" style="stop-color:#D41920"/>
				<stop  offset="0.5719" style="stop-color:#E01B22"/>
				<stop  offset="0.7625" style="stop-color:#E91C24"/>
				<stop  offset="1" style="stop-color:#ED1C24"/>
			</linearGradient>
			<path class="st0" d="M2.1,39.1c4.2-0.5,4.8,0.3,5.2-0.1l0.2-0.6c0.5,0.6,6-0.8,9-1.2c11.8-1.6,23.5-3.2,35.3-4.8
				c1-0.4,2.5-0.6,4-0.9c2.5-0.5,4.7-1,3.9-2c-7.2-17.7-11.7-25.9-33.5-27C11.4,6.4,4.9,11.7,2.6,20c-0.1,0.4-0.4,1-0.5,1.4
				c0,0-1,1.6,0.5,3.5c1.5,1.8,0.9,1.8,0.7,2.5c-0.2,0.7-0.9,1,0.1,5.4C2.7,32.8,2.2,33,1.8,33c-0.4,0-0.5,0.3-0.5,0.7
				C1.4,35.7,1.9,36.9,2.1,39.1z"/>
			<path class="st1" d="M7.1,39.3L7.1,39.3c-0.2,0-0.4,0-0.7,0c-0.7-0.1-1.9-0.2-4.3,0c0,0-0.1,0-0.1,0c0,0-0.1-0.1-0.1-0.1
				c-0.1-1-0.3-1.8-0.4-2.6c-0.2-0.9-0.4-1.7-0.4-2.8c0-0.2,0-0.8,0.6-0.8c0,0,0,0,0,0c0.3,0,0.7-0.1,1.4-0.3
				c-0.8-3.6-0.4-4.5-0.1-5c0-0.1,0.1-0.2,0.1-0.3c0-0.2,0.1-0.3,0.2-0.4c0.2-0.3,0.3-0.6-0.8-1.9c-1.5-1.8-0.7-3.4-0.6-3.6
				c0.1-0.2,0.2-0.5,0.3-0.7c0.1-0.2,0.2-0.4,0.2-0.6c2.4-8.7,9.3-13.8,23.9-17.6c0,0,0,0,0,0C48.5,3.5,52.9,12,59.9,29.4
				c0.2,0.2,0.2,0.4,0.2,0.7c-0.3,0.7-2,1.1-4.2,1.5l-0.5,0.1c-1.3,0.2-2.7,0.5-3.5,0.8c0,0,0,0,0,0l-35.4,4.8
				c-1,0.1-2.2,0.4-3.4,0.6c-1.2,0.2-2.4,0.5-3.4,0.6c-1.2,0.2-1.7,0.1-2,0.1L7.5,39c0,0,0,0,0,0.1C7.4,39.2,7.3,39.3,7.1,39.3z
				 M2.3,39c2.3-0.2,3.5-0.1,4.2,0c0.3,0,0.5,0.1,0.6,0l0,0c0.1,0,0.1,0,0.2-0.1l0.2-0.5c0-0.1,0.1-0.1,0.1-0.1c0.1,0,0.1,0,0.1,0.1
				c0,0.1,0.3,0.2,1.9,0c1-0.1,2.2-0.4,3.4-0.6c1.2-0.2,2.4-0.5,3.4-0.6l0.1,0l35.3-4.8c0.9-0.3,2.3-0.6,3.6-0.8l0.5-0.1
				c1.5-0.3,3.7-0.7,4-1.3c0,0,0.1-0.2-0.1-0.4c0,0,0,0,0,0c-7-17.4-11.3-25.8-33.3-27C12,6.4,5.1,11.4,2.7,20
				c-0.1,0.2-0.2,0.4-0.3,0.6c-0.1,0.3-0.2,0.5-0.3,0.7c0,0,0,0,0,0c0,0.1-0.9,1.6,0.5,3.3c1.2,1.4,1.1,1.8,0.8,2.3
				c-0.1,0.1-0.1,0.2-0.1,0.3c0,0.1-0.1,0.2-0.1,0.4c-0.2,0.5-0.6,1.4,0.2,5c0,0.1,0,0.2-0.1,0.2c-0.8,0.2-1.2,0.3-1.6,0.3
				c0,0,0,0,0,0c-0.2,0-0.4,0.1-0.3,0.5c0.1,1.1,0.2,1.9,0.4,2.8C2,37.2,2.2,38,2.3,39z"/>
		</g>
		<g>
			<path class="st1" d="M2.9,32.9c-0.1,0-0.2,0-0.2-0.1c0-0.1,0-0.2,0.1-0.2c0.4-0.1,0.9-0.2,1.4-0.4C4.7,32.2,5,32.1,5.4,32
				c0-0.4,0-1.1-0.1-1.8c-0.2-2-0.4-4.5,0.5-5.2c0.3-0.2,0.4-0.5,0.3-0.8c-0.3-1-2.5-2.3-3.8-2.3c-0.1,0-0.2-0.1-0.2-0.1
				c0-0.1,0.1-0.1,0.1-0.2c1.5,0,3.8,1.3,4.1,2.5c0.2,0.5,0,0.9-0.4,1.2c-0.8,0.6-0.6,3.1-0.4,4.9c0.1,0.9,0.2,1.6,0.1,2
				c0,0.1-0.1,0.1-0.1,0.1c-0.4,0.1-0.8,0.2-1.2,0.3C3.9,32.7,3.4,32.8,2.9,32.9C2.9,32.9,2.9,32.9,2.9,32.9z"/>
		</g>
		<g>
			<path class="st1" d="M7.1,39.1c-0.1,0-0.2,0-0.3-0.1c-0.2-0.1-0.2-0.4-0.2-0.8l0,0c0-0.5-1-4.2-1.4-4.7c-0.4-0.6-0.3-0.8-0.2-1
				c0-0.1,0.2-0.1,0.2,0c0.1,0,0.1,0.1,0,0.2c0,0,0,0,0,0c-0.1,0.1-0.2,0.2,0.2,0.7c0.5,0.6,1.4,4.4,1.4,4.9l0,0
				c0,0.3,0,0.5,0.1,0.6c0,0,0.1,0,0.2,0c0.1,0,0.2,0,0.2,0.1C7.3,39,7.3,39,7.1,39.1C7.2,39.1,7.1,39.1,7.1,39.1z"/>
		</g>
		<g>
			<path class="st1" d="M7.3,38.1c-0.1,0-0.2,0-0.2-0.1c-0.3-1.6-0.8-3.2-1.4-4.8c0-0.1,0-0.2,0.1-0.2C5.9,33,6,33,6,33.1
				c0.6,1.6,1.1,3.2,1.4,4.8C7.4,38,7.3,38.1,7.3,38.1C7.3,38.1,7.3,38.1,7.3,38.1z"/>
		</g>
		<g>
			<path class="st1" d="M28.3,34.9C28.3,34.9,28.3,34.9,28.3,34.9c-0.1,0-0.2-0.1-0.2-0.1c0-0.1-1.3-12.7-2-18.4
				c-0.7-5.7,0.1-13.9,0.1-13.9c0-0.1,0.1-0.1,0.2-0.1c0.1,0,0.1,0.1,0.1,0.2c0,0.1-0.8,8.2-0.1,13.9c0.7,5.7,2,18.3,2,18.4
				C28.4,34.8,28.3,34.9,28.3,34.9z"/>
		</g>
		<g>
			<path class="st1" d="M53.6,27.3c-0.1,0-0.1,0-0.2-0.1c-1.3-4.6-3.6-11.4-5.6-15.3c-1.7-3.5-9-6.3-13.2-7.7
				c-0.1,0-0.1-0.1-0.1-0.2c0-0.1,0.1-0.1,0.2-0.1c5.2,1.7,11.7,4.4,13.4,7.8c2,3.9,4.3,10.7,5.6,15.4
				C53.7,27.1,53.7,27.2,53.6,27.3C53.6,27.3,53.6,27.3,53.6,27.3z"/>
		</g>
		<g>
			<path class="st1" d="M5.3,19C5.3,19,5.2,19,5.3,19c-0.1,0-0.2-0.1-0.2-0.2c0.5-3.8,5.8-8.5,10.1-11.7c0.1-0.1,0.2,0,0.2,0
				c0.1,0.1,0,0.2,0,0.2C11.9,10,5.9,15,5.4,18.9C5.4,19,5.3,19,5.3,19z"/>
		</g>
		<g>
			<g>
				
					<ellipse transform="matrix(-0.6074 -0.7944 0.7944 -0.6074 16.9668 32.3019)" class="st2" cx="16.5" cy="12" rx="0.7" ry="1.3"/>
				<path class="st1" d="M16,13.1c-0.3,0-0.6,0-0.7-0.2c-0.3-0.4,0-1.1,0.6-1.5c0.3-0.2,0.6-0.4,0.9-0.4c0.3,0,0.6,0,0.7,0.2
					c0.3,0.4,0,1.1-0.6,1.5C16.7,12.9,16.3,13,16,13.1z M16.9,11.2c-0.3,0-0.5,0.2-0.8,0.4c-0.5,0.4-0.7,0.9-0.6,1.1
					c0.2,0.2,0.8,0.1,1.2-0.3c0.5-0.4,0.7-0.9,0.6-1.1C17.3,11.2,17.1,11.1,16.9,11.2z"/>
			</g>
			<g>
				<ellipse transform="matrix(-0.608 -0.794 0.794 -0.608 16.9805 32.3016)" class="st2" cx="16.5" cy="12" rx="0.3" ry="0.5"/>
				<path class="st1" d="M16.3,12.5c-0.1,0-0.3,0-0.3-0.1c-0.1-0.2,0-0.5,0.2-0.7c0.3-0.2,0.6-0.2,0.7-0.1c0.1,0.2,0,0.5-0.2,0.7
					C16.6,12.4,16.4,12.4,16.3,12.5z M16.2,12.2C16.2,12.2,16.2,12.2,16.2,12.2c0.1,0,0.2-0.1,0.3-0.1c0.2-0.1,0.2-0.2,0.2-0.3
					c0,0,0,0-0.1,0c-0.1,0-0.2,0.1-0.2,0.1C16.2,12,16.2,12.1,16.2,12.2L16.2,12.2z"/>
			</g>
		</g>
		<g>
			<g>
				<ellipse transform="matrix(0.3175 -0.9483 0.9483 0.3175 16.7184 40.4632)" class="st2" cx="36.5" cy="8.6" rx="0.7" ry="1.3"/>
				<path class="st1" d="M37.2,9.5L37.2,9.5c-0.3,0-0.6,0-1-0.1c-0.8-0.3-1.3-0.8-1.1-1.3c0.1-0.2,0.3-0.4,0.7-0.5
					c0.3,0,0.6,0,1,0.1c0.4,0.1,0.7,0.3,0.9,0.5c0.2,0.2,0.3,0.5,0.2,0.8C37.8,9.3,37.5,9.5,37.2,9.5z M35.8,8
					c-0.2,0-0.4,0.1-0.4,0.3c-0.1,0.3,0.3,0.7,0.9,0.9c0.3,0.1,0.6,0.1,0.8,0.1l0,0c0.2,0,0.4-0.1,0.4-0.3c0-0.1,0-0.3-0.2-0.4
					c-0.2-0.2-0.4-0.3-0.8-0.5C36.3,8,36,8,35.8,8z"/>
			</g>
			<g>
				<ellipse transform="matrix(0.3162 -0.9487 0.9487 0.3162 16.7606 40.4902)" class="st2" cx="36.5" cy="8.6" rx="0.3" ry="0.5"/>
				<path class="st1" d="M36.7,9.1L36.7,9.1c-0.1,0-0.3,0-0.4,0c-0.3-0.1-0.5-0.4-0.5-0.6c0.1-0.2,0.4-0.3,0.7-0.2
					C36.8,8.3,37,8.4,37,8.6c0,0.1,0,0.2,0,0.2C37,8.9,36.9,9,36.7,9.1z M36.2,8.5C36.2,8.5,36.2,8.5,36.2,8.5
					c-0.1,0.1,0,0.2,0.2,0.2c0.1,0,0.2,0,0.3,0l0,0c0.1,0,0.1,0,0.1,0c0,0-0.1-0.1-0.3-0.2C36.4,8.5,36.3,8.5,36.2,8.5z"/>
			</g>
		</g>
		<g>
			
				<linearGradient id="SVGID_2_" gradientUnits="userSpaceOnUse" x1="240.4407" y1="1013.6142" x2="265.9344" y2="1013.6142" gradientTransform="matrix(0.99 -0.1411 0.1411 0.99 -328.4877 -932.011)">
				<stop  offset="0" style="stop-color:#9E0B0F"/>
				<stop  offset="7.606477e-02" style="stop-color:#AB0F14"/>
				<stop  offset="0.2326" style="stop-color:#C2151C"/>
				<stop  offset="0.3974" style="stop-color:#D41920"/>
				<stop  offset="0.5719" style="stop-color:#E01B22"/>
				<stop  offset="0.7625" style="stop-color:#E91C24"/>
				<stop  offset="1" style="stop-color:#ED1C24"/>
			</linearGradient>
			<path class="st3" d="M60,29.9L60,29.9c0,0.8-2,1.2-4.1,1.6c-1.2,0.2-2.4,0.4-3.3,0.7l-0.7,0.2l0,0c0,0,0.2,0.1,0.9,0.9
				c1,1,7.8,4.6,16.7,7.1c4.7,1.3,7.9,0.7,8.6-1c1.1-2.4-0.8-3.8-3.3-4.7c-0.6-0.2-1.2-0.4-1.9-0.6C71.3,33.5,60,29.9,60,29.9z"/>
			<path class="st1" d="M75.3,41.1C75.3,41.1,75.3,41.1,75.3,41.1c-1.6,0.2-3.6,0-5.9-0.6c-8.9-2.5-15.8-6.1-16.7-7.1
				c-0.7-0.7-0.8-0.8-0.9-0.8c0,0-0.1,0-0.1-0.1c0-0.1,0-0.2,0.1-0.2l0,0c0,0,0,0,0,0l0.7-0.2c0.8-0.2,1.8-0.4,2.8-0.6l0.5-0.1
				c1.5-0.3,4-0.8,4-1.4c0-0.1,0.1-0.1,0.1-0.2c0.1,0,12.9,4.1,13,4.2c0.3,0.1,0.6,0.2,0.8,0.3c0.4,0.1,0.7,0.2,1,0.3
				c2,0.7,3.1,1.5,3.5,2.6c0.3,0.7,0.2,1.5-0.1,2.3C77.8,40.3,76.8,40.9,75.3,41.1z M52.1,32.4c0.1,0.1,0.4,0.3,0.7,0.7
				c1,1,7.8,4.5,16.6,7c2.2,0.6,4.2,0.8,5.8,0.6h0c1.4-0.2,2.3-0.7,2.7-1.5c0.4-0.8,0.4-1.5,0.1-2.1c-0.4-0.9-1.5-1.7-3.4-2.4
				c-0.3-0.1-0.7-0.2-1-0.3c-0.3-0.1-0.6-0.2-0.8-0.3c-1.5-0.5-11.3-3.7-12.7-4.1c-0.2,0.7-2,1.1-4.2,1.5l-0.5,0.1
				c-1,0.2-2,0.4-2.8,0.6L52.1,32.4z"/>
		</g>
		<g>
			<path class="st1" d="M72.7,40.3C72.7,40.3,72.7,40.3,72.7,40.3c-5.1-0.9-12.1-3.6-19.2-7.3c-0.1,0-0.1-0.1-0.1-0.2
				c0-0.1,0.1-0.1,0.2-0.1c7.1,3.7,14.1,6.4,19.1,7.3c0.1,0,0.1,0.1,0.1,0.2C72.8,40.2,72.8,40.3,72.7,40.3z"/>
		</g>
		<g>
			<path class="st4" d="M26.1,1.6c1.4-0.2,2.5,0.2,2.6,0.7S27.4,2.5,26,2.7c-1.4,0.2-2.2,0.8-2.3,0.2C23.7,2.3,24.7,1.7,26.1,1.6z"
				/>
			<path class="st1" d="M28.3,2.8c-0.2,0-0.5,0-0.9,0c-0.4,0-0.9,0-1.4,0l-0.1,0c-0.5,0.1-0.9,0.2-1.2,0.3c-0.2,0.1-0.4,0.1-0.6,0.1
				c-0.1,0-0.3,0-0.4-0.1c-0.1-0.1-0.1-0.2-0.1-0.3c-0.1-0.7,1-1.3,2.5-1.5c0.7-0.1,1.3,0,1.8,0.1c0.6,0.2,0.9,0.4,0.9,0.8
				C28.9,2.5,28.8,2.7,28.3,2.8z M25.9,2.5l0.1,0c0.5-0.1,1-0.1,1.4,0c0.3,0,0.6,0,0.8,0c0.3,0,0.3-0.1,0.3-0.2
				c0-0.2-0.3-0.4-0.7-0.5c-0.5-0.1-1.1-0.2-1.7-0.1l-0.1,0c-1.3,0.2-2.1,0.7-2.1,1.1c0,0,0,0.1,0,0.1c0,0,0.1,0,0.2,0
				c0.1,0,0.3-0.1,0.5-0.1C25,2.7,25.4,2.6,25.9,2.5z"/>
		</g>
		<g>
			<path class="st1" d="M4,27.8C4,27.8,4,27.8,4,27.8c-0.1,0-0.2-0.1-0.2-0.2c0.6-1.9-0.9-3.2-1-3.2c-0.1-0.1-0.1-0.1,0-0.2
				c0.1-0.1,0.1-0.1,0.2,0c0,0,1.7,1.4,1.1,3.5C4.1,27.8,4.1,27.8,4,27.8z"/>
		</g>
	</g>
</g>
</svg>
