<?xml version="1.0" encoding="utf-8"?>
<!-- Generator: Adobe Illustrator 19.1.0, SVG Export Plug-In . SVG Version: 6.00 Build 0)  -->
<svg version="1.1" xmlns="http://www.w3.org/2000/svg" xmlns:xlink="http://www.w3.org/1999/xlink" x="0px" y="0px"
	 viewBox="0 0 200 197.3" style="enable-background:new 0 0 200 197.3;" xml:space="preserve">
<style type="text/css">
	.st0{fill:#FF7C67;}
	.st1{fill:#DEDDDD;}
	.st2{fill:#FFFCFC;}
	.st3{fill:#211D1C;}
</style>
<g id="background">
</g>
<g id="objects">
	<g>
		<path class="st0" d="M134.7,113c0,0,2.5,15.5-0.7,19.4c-3.2,4-18.4,9.7-27.4,13.3c-9,3.6-18.7,9.4-23,13c-4.3,3.6-6.1,13.3,1.1,18
			c7.2,4.7,19.8,10.4,32,10.1c12.2-0.4,28.8-1.8,37.8-4.3c9-2.5,22-4.3,25.9-6.5c4-2.2,9-7.2,10.1-14c1.1-6.8-0.4-25.2-0.7-31.3
			c-0.4-6.1-0.4-15.1-0.4-15.1L134.7,113z"/>
		<path class="st1" d="M181.1,130.6c4.3,2.3,7.2,5.5,9.2,9.3c-0.2-3.9-0.5-7.3-0.6-9.3c-0.4-6.1-0.4-15.1-0.4-15.1l-54.7-2.5
			c0,0,1.4,8.5,0.8,14.5C150.8,128,166.9,124.6,181.1,130.6z"/>
		<path class="st0" d="M11.9,55.6c0,0-0.5,22.9-1.1,28.9c-0.5,5.9,0.3,22.4,3.2,25.6c3,3.2,21.3,8.9,31.8,10.5
			c10.5,1.6,29.4,5.7,39.4,4.6c10-1.1,19.4-3.2,25.9-7.3c6.5-4,9.7-8.1,9.7-11.3s-2.2-7.6-5.9-10.3c-3.8-2.7-13-8.6-16.2-10
			c-3.2-1.3-14.3-8.1-18.9-9.2c-4.6-1.1-8.9-2.4-10.8-4.3c-1.9-1.9-2.7-18.6-2.7-18.6L11.9,55.6z"/>
		<path class="st2" d="M12.2,106.9c0,0,2.3,11.2,6.3,13.9c4,2.7,32.7,10.1,48.4,11.2c15.7,1.1,24.5,2.7,33.1-1.1
			c8.6-3.8,12.8-6.8,15.7-11.3s4.3-7.7,4.3-7.7s-11.2,9.9-20.3,11.3c-9.2,1.4-31.8,2.3-50.2-1.8c-18.4-4.1-27.4-5.4-30.4-7.6
			C16,111.6,12.2,106.9,12.2,106.9z"/>
		<path class="st1" d="M37.5,65.9c9.9-1.1,20,0.6,30,1.1c-0.8-5.5-1.1-12.7-1.1-12.7l-54.5,1.3c0,0-0.5,22.9-1.1,28.9
			c-0.2,1.9-0.2,4.9-0.1,8.1C12.5,78.5,22.6,67.7,37.5,65.9z"/>
		<path class="st2" d="M30.3,4.6c0,0,24.8-1.1,31.8,1.3s11.3,4.3,11.9,10s0.5,20.5,0.3,25.6C74,46.7,75.6,54,69.4,57
			c-6.2,3-20,4-25.9,4.6c-5.9,0.5-22.7,0.8-27,0C12.2,60.7,7.6,61,6.2,54c-1.3-7-1.9-31-1.1-35.6C6,13.8,6.8,8.6,10,7.6
			c3.2-1.1,8.4-0.5,11.3-1.3S30.3,4.6,30.3,4.6z"/>
		<path class="st2" d="M156.6,65.9c0,0-15.1,0.3-21.9,3.5c-6.7,3.2-7.6,7-8.1,14.8c-0.5,7.8-0.5,30,4,33.2
			c4.6,3.2,21.3,4.9,28.3,5.7c7,0.8,22.1-0.5,26.7-0.8c4.6-0.3,8.6-3,10-10.8c1.3-7.8,0.3-28.3,0.5-32.1c0.3-3.8-1.1-10-5.9-11.1
			c-4.9-1.1-11.6-1.3-16.5-1.9C169,65.9,156.6,65.9,156.6,65.9z"/>
		<path class="st2" d="M82.9,175.6c0,0,9,16.6,25.9,18c16.9,1.4,50-3.6,55.4-4.7c5.4-1.1,15.8-5,19.1-7.6c3.2-2.5,5.4-7.9,5.8-9.7
			c0.4-1.8,0.4-1.8,0.4-1.8s-9.7,7.2-18.7,8.3c-9,1.1-30.6,8.3-40.7,8.3c-10.1,0-22.7,0.7-31.7-3.2
			C89.4,179.2,82.9,175.6,82.9,175.6z"/>
		<g>
			<g>
				<g>
					<path class="st3" d="M22.9,6C17.7,6.6,9.5,4.2,6.1,9.7c-1.7,2.7-1.4,6.7-1.6,9.6C4.1,24.4,4,29.4,4.1,34.5
						c0.1,4.7,0.3,9.5,0.7,14.2c0.3,3.1,0.2,7.1,2.1,9.7c3.7,5.3,14.6,4.6,20.2,4.7c10.2,0.3,20.4-0.7,30.5-1.8
						c6.3-0.7,13-1.1,16.3-7.4C77.1,47.5,76,39,76,32.1c0-6.4,1.8-16-2.6-21.4c-4.9-6.1-15.6-6.3-22.6-7C40.2,2.6,29.6,3,19.2,5.6
						c-1.2,0.3-0.7,2,0.5,1.8c9-1.6,18.2-2.2,27.4-1.5c6.7,0.5,21.2,0.5,25.1,7.5c2.2,3.8,1.3,9.6,1.2,13.8c0,4.7,0,9.3-0.1,14
						c0,3.4-0.1,6.9-1.3,10.1c-2.2,6.2-7.9,6.7-13.6,7.4c-8.8,1.1-17.7,2.2-26.7,2.3c-4.4,0.1-8.9-0.1-13.3-0.5
						c-2.4-0.3-6.1-0.3-8.3-1.7c-3-1.9-3-6.1-3.3-9.1C6,40.8,5.7,32,6,23.1c0.2-5.3-0.8-13.3,5.4-15.2c3.7-1.2,7.8,0,11.6-1.2
						C23.4,6.6,23.3,5.9,22.9,6L22.9,6z"/>
				</g>
			</g>
			<g>
				<g>
					<path class="st3" d="M65.8,59.1c-0.2,4.5-1.1,12.6,3.1,15.6c2.2,1.6,5.5,2.2,8.1,3.1c4.4,1.7,8.8,3.5,13.1,5.6
						c7.1,3.4,13.9,7.2,20.5,11.4c3.3,2.1,7.6,4.3,8.7,8.3c1.4,5.6-2.9,10.5-7.2,13.3c-13,8.3-30,8.6-44.8,6.8
						c-14.7-1.8-30.3-4.5-44.3-9.2c-5.9-2-9.6-5.5-10.3-12c-0.4-4.1-0.2-8.4-0.1-12.6c0.1-9.6,1.3-19.5,0.5-29
						c-0.1-0.9-1.5-1.3-1.7-0.2c-1.7,9.1-1.2,19-1.2,28.2c0,6.9-1.2,15.9,3.2,21.8c4.1,5.5,11.9,6.4,18,7.9c8.7,2,17.4,4.4,26.1,6.1
						c16.4,3.3,34.1,4.2,49.8-2.4c5.8-2.4,12.1-6.1,14.1-12.5c1.9-5.9-0.5-10.7-5.3-14.1c-8.2-5.8-17.5-10.4-26.6-14.4
						c-4.5-2-9-3.8-13.6-5.5c-4.1-1.5-7.3-4.3-8.1-8.7c-0.5-2.5-0.4-5.2-0.8-7.8C66.8,58.3,65.8,58.5,65.8,59.1L65.8,59.1z"/>
				</g>
			</g>
			<g>
				<g>
					<path class="st3" d="M33.3,61.8c-0.8,18.6,2.1,37.7,4.3,56.1c0.1,1.3,1.9,1.1,1.7-0.2c-2.6-18.6-2.8-37.3-4.8-55.9
						C34.4,61.1,33.4,61.1,33.3,61.8L33.3,61.8z"/>
				</g>
			</g>
			<g>
				<g>
					<path class="st3" d="M10.7,74.7c2,5.7,6.4,10.8,10.5,15.1c4,4.1,9.2,9.4,14.8,11.1c0.7,0.2,1.2-0.7,0.7-1.2
						c-4.2-4.3-9.7-7.1-14-11.4c-4.3-4.3-7.4-9.4-11.3-14.1C11.2,73.9,10.6,74.3,10.7,74.7L10.7,74.7z"/>
				</g>
			</g>
			<g>
				<g>
					<path class="st3" d="M49.4,85.7c7.6-2.4,13.9-7.8,19.6-13.3c0.4-0.3-0.2-0.9-0.5-0.5c-6,5.2-11.8,10.4-19.2,13.5
						C49.1,85.5,49.3,85.8,49.4,85.7L49.4,85.7z"/>
				</g>
			</g>
			<g>
				<g>
					<path class="st3" d="M11.1,105.5c0.4,4.7,1.5,9.8,4.5,13.6c2.2,2.8,5.1,4,8.4,5.2c10.1,3.7,20.6,5.6,31.2,7.3
						c7.4,1.2,14.6,1.7,22.1,2.1c6.2,0.4,12.4,0.8,18.5-0.4c10.4-2,21.5-10.7,24.6-21.1c0.4-1.2-1.5-1.7-1.8-0.5
						c-3.5,12-16,19.8-27.9,20.5c-12.4,0.7-25.6-1-37.8-3c-8.1-1.3-16-2.9-23.9-5.3c-3.2-1-7-1.9-9.7-3.8c-4.8-3.5-5.4-9.6-7.2-14.7
						C11.8,104.9,11,104.9,11.1,105.5L11.1,105.5z"/>
				</g>
			</g>
		</g>
		<g>
			<g>
				<g>
					<path class="st3" d="M178.3,67.7c3.6,1.1,7.4,0.1,11,1c6.7,1.6,5.8,9,6,14.5c0.3,8.8,0.1,17.7-0.8,26.5
						c-0.3,3.2-0.2,8.1-3.4,10.1c-1.9,1.2-5.1,1.3-7.3,1.6c-4.4,0.5-8.8,0.7-13.3,0.6c-9.2-0.1-18.5-1.2-27.6-2.4
						c-5.3-0.7-10.7-1-13.2-6.4c-1.5-3.2-1.6-6.9-1.7-10.4c-0.1-4.5,0-9.1-0.1-13.6c0-4.2-0.9-9.6,0.8-13.6c3.2-7.9,17.6-8,24.6-8.6
						c9.5-0.7,19-0.2,28.3,1.5c1.2,0.2,1.7-1.5,0.5-1.8c-9.2-2.2-18.5-2.9-27.9-2.2c-7.2,0.5-16,0.9-22.5,4.3
						c-6.5,3.5-6.4,9.9-6.4,16.4c0,8.2-1,17.2,0.7,25.3c1.4,6.6,5.5,10.2,12,11.3c9.1,1.5,18.5,2.2,27.7,2.5
						c4.8,0.2,9.5,0.1,14.3-0.3c3.6-0.3,8.2-0.4,11.6-2c6-2.9,5.1-12.4,5.5-17.9c0.3-5.7,0.4-11.4,0.2-17.1
						c-0.1-4.6,0.3-10.3-1.2-14.7c-2.5-7.3-11.8-4.6-17.5-5.3C178,66.9,177.9,67.6,178.3,67.7L178.3,67.7z"/>
				</g>
			</g>
			<g>
				<g>
					<path class="st3" d="M134.4,120c-1,5.9,0.4,12.4-6.4,15.6c-4,1.9-8.6,3.1-12.8,4.9C107,144,98.8,148,91,152.7
						c-5.2,3.1-11.5,6.4-11.8,13.2c-0.2,6.6,4.6,11.6,10,14.7c14.3,8.1,32,8.3,47.7,5.9c8.9-1.4,17.6-3.7,26.4-5.8
						c6.9-1.7,15.5-2.3,21.5-6.4c6.6-4.5,6.3-12.8,6.3-20c0.1-10.8,0.8-22.4-1.2-33.1c-0.2-1-1.6-0.7-1.7,0.2
						c-0.7,8.3,0.3,16.8,0.4,25.1c0.1,7.6,2.2,19.6-4.1,25.2c-5.1,4.6-14.6,5.3-21,6.9c-7.4,1.8-14.7,3.3-22.2,4.5
						c-15.5,2.5-31.8,3.4-46.5-2.9c-7.9-3.4-19.1-12.8-9.4-21c5.8-4.9,13.3-8.6,20-12.1c8.2-4.3,17-6.8,25.2-10.7
						c5.8-2.7,4.9-10.9,4.7-16.4C135.5,119.5,134.5,119.3,134.4,120L134.4,120z"/>
				</g>
			</g>
			<g>
				<g>
					<path class="st3" d="M166.8,122.8c-2.1,18.6-2.2,37.3-4.8,55.9c-0.2,1.3,1.6,1.5,1.7,0.2c2.1-18.4,5.1-37.5,4.3-56.1
						C167.9,122.1,166.9,122.1,166.8,122.8L166.8,122.8z"/>
				</g>
			</g>
			<g>
				<g>
					<path class="st3" d="M189.8,135.3c-3.9,4.6-7,9.7-11.3,14.1c-4.3,4.3-9.8,7.1-14,11.4c-0.5,0.5,0,1.4,0.7,1.2
						c5.6-1.7,10.9-7,14.8-11.1c4.1-4.3,8.5-9.4,10.5-15.1C190.7,135.3,190.1,134.9,189.8,135.3L189.8,135.3z"/>
				</g>
			</g>
			<g>
				<g>
					<path class="st3" d="M152,146.4c-7.4-3.2-13.2-8.3-19.2-13.5c-0.4-0.3-0.9,0.2-0.5,0.5c5.7,5.4,11.9,10.9,19.6,13.3
						C152.1,146.8,152.2,146.5,152,146.4L152,146.4z"/>
				</g>
			</g>
			<g>
				<g>
					<path class="st3" d="M189.3,166.3c-1.8,5.1-2.4,11.3-7.2,14.7c-2.6,1.9-6.2,2.7-9.2,3.7c-8,2.5-16.2,4.1-24.5,5.5
						c-12,2-24.7,3.5-36.9,3c-12.3-0.5-25.3-8.1-28.9-20.5c-0.3-1.2-2.2-0.7-1.8,0.5c3.1,10.4,14.1,19.1,24.6,21.1
						c6.1,1.1,12.4,0.7,18.5,0.4c7.4-0.4,14.7-0.9,22.1-2.1c10.6-1.7,21.1-3.6,31.2-7.3c8.6-3.1,12.1-9.6,12.9-18.8
						C190.3,165.9,189.5,165.9,189.3,166.3L189.3,166.3z"/>
				</g>
			</g>
		</g>
	</g>
</g>
</svg>
