<?xml version="1.0" encoding="utf-8"?>
<!-- Generator: Adobe Illustrator 19.1.0, SVG Export Plug-In . SVG Version: 6.00 Build 0)  -->
<svg version="1.1" xmlns="http://www.w3.org/2000/svg" xmlns:xlink="http://www.w3.org/1999/xlink" x="0px" y="0px"
	 viewBox="0 0 76.2 76.1" style="enable-background:new 0 0 76.2 76.1;" xml:space="preserve">
<style type="text/css">
	.st0{fill:url(#SVGID_1_);}
	.st1{fill:url(#SVGID_2_);}
	.st2{fill:url(#SVGID_3_);}
	.st3{fill:url(#SVGID_4_);}
	.st4{fill:url(#SVGID_5_);}
	.st5{fill:url(#SVGID_6_);}
	.st6{fill:url(#SVGID_7_);}
	.st7{fill:url(#SVGID_8_);}
	.st8{fill:url(#SVGID_9_);}
	.st9{fill:url(#SVGID_10_);}
	.st10{fill:url(#SVGID_11_);}
	.st11{fill:url(#SVGID_12_);}
	.st12{fill:url(#SVGID_13_);}
	.st13{fill:url(#SVGID_14_);}
	.st14{fill:url(#SVGID_15_);}
	.st15{fill:url(#SVGID_16_);}
	.st16{fill:url(#SVGID_17_);}
	.st17{fill:url(#SVGID_18_);}
	.st18{fill:url(#SVGID_19_);}
	.st19{fill:url(#SVGID_20_);}
	.st20{fill:url(#SVGID_21_);}
	.st21{fill:url(#SVGID_22_);}
	.st22{fill:url(#SVGID_23_);}
	.st23{fill:url(#SVGID_24_);}
	.st24{fill:url(#SVGID_25_);}
	.st25{fill:url(#SVGID_26_);}
	.st26{fill:url(#SVGID_27_);}
	.st27{fill:url(#SVGID_28_);}
	.st28{fill:url(#SVGID_29_);}
	.st29{fill:url(#SVGID_30_);}
	.st30{fill:url(#SVGID_31_);}
	.st31{fill:url(#SVGID_32_);}
	.st32{fill:url(#SVGID_33_);}
	.st33{fill:url(#SVGID_34_);}
	.st34{fill:url(#SVGID_35_);}
	.st35{fill:url(#SVGID_36_);}
	.st36{fill:url(#SVGID_37_);}
	.st37{fill:url(#SVGID_38_);}
	.st38{fill:url(#SVGID_39_);}
	.st39{fill:url(#SVGID_40_);}
	.st40{fill:url(#SVGID_41_);}
	.st41{fill:url(#SVGID_42_);}
	.st42{fill:url(#SVGID_43_);}
	.st43{fill:url(#SVGID_44_);}
	.st44{fill:url(#SVGID_45_);}
	.st45{fill:url(#SVGID_46_);}
	.st46{fill:url(#SVGID_47_);}
	.st47{fill:url(#SVGID_48_);}
	.st48{fill:url(#SVGID_49_);}
	.st49{fill:url(#SVGID_50_);}
	.st50{fill:url(#SVGID_51_);}
	.st51{fill:url(#SVGID_52_);}
	.st52{fill:url(#SVGID_53_);}
	.st53{fill:url(#SVGID_54_);}
	.st54{fill:url(#SVGID_55_);}
	.st55{fill:url(#SVGID_56_);}
	.st56{fill:url(#SVGID_57_);}
	.st57{fill:url(#SVGID_58_);}
	.st58{fill:url(#SVGID_59_);}
	.st59{fill:#FAF9DF;}
	.st60{fill:#EAE6BF;}
</style>
<g id="Layer_1">
</g>
<g id="Layer_2">
	<g>
		<g>
			<linearGradient id="SVGID_1_" gradientUnits="userSpaceOnUse" x1="35.2222" y1="80.1543" x2="41.2221" y2="-8.3402">
				<stop  offset="0" style="stop-color:#1F60AA"/>
				<stop  offset="1" style="stop-color:#0F141A"/>
			</linearGradient>
			<path class="st0" d="M76.2,60.1c0,8.8-7.2,16-16,16H16c-8.8,0-16-7.2-16-16V16C0,7.2,7.2,0,16,0h44.2c8.8,0,16,7.2,16,16V60.1z"
				/>
			<g>
				<g>
					<linearGradient id="SVGID_2_" gradientUnits="userSpaceOnUse" x1="39.7441" y1="10.5982" x2="46.0439" y2="10.5982">
						<stop  offset="0" style="stop-color:#D8D7D4"/>
						<stop  offset="0.1831" style="stop-color:#DFDFDD"/>
						<stop  offset="0.657" style="stop-color:#EFEFEF"/>
						<stop  offset="1" style="stop-color:#F4F5F5"/>
					</linearGradient>
					<path class="st1" d="M42.9,7.4c0,0-0.3,1.9-0.7,2.4c-0.5,0.5-2.4,0.8-2.4,0.8s1.9,0.3,2.4,0.8c0.5,0.5,0.8,2.4,0.8,2.4
						s0.3-1.9,0.8-2.4c0.5-0.5,2.4-0.8,2.4-0.8s-1.9-0.3-2.4-0.8C43.2,9.3,42.9,7.4,42.9,7.4z"/>
				</g>
			</g>
			<g>
				<g>
					<linearGradient id="SVGID_3_" gradientUnits="userSpaceOnUse" x1="11.582" y1="23.92" x2="16.2705" y2="23.92">
						<stop  offset="0" style="stop-color:#D8D7D4"/>
						<stop  offset="0.1831" style="stop-color:#DFDFDD"/>
						<stop  offset="0.657" style="stop-color:#EFEFEF"/>
						<stop  offset="1" style="stop-color:#F4F5F5"/>
					</linearGradient>
					<path class="st2" d="M13.9,21.6c0,0-0.2,1.4-0.5,1.8c-0.3,0.4-1.8,0.6-1.8,0.6s1.4,0.2,1.8,0.6c0.3,0.3,0.6,1.8,0.6,1.8
						s0.2-1.4,0.6-1.7c0.3-0.3,1.8-0.6,1.8-0.6s-1.4-0.2-1.8-0.6C14.2,23,13.9,21.6,13.9,21.6z"/>
				</g>
			</g>
			<g>
				<g>
					<linearGradient id="SVGID_4_" gradientUnits="userSpaceOnUse" x1="46.2051" y1="47.3233" x2="51.9687" y2="47.3233">
						<stop  offset="0" style="stop-color:#D8D7D4"/>
						<stop  offset="0.1831" style="stop-color:#DFDFDD"/>
						<stop  offset="0.657" style="stop-color:#EFEFEF"/>
						<stop  offset="1" style="stop-color:#F4F5F5"/>
					</linearGradient>
					<path class="st3" d="M49.1,44.4c0,0-0.3,1.8-0.6,2.2c-0.4,0.5-2.2,0.7-2.2,0.7s1.8,0.3,2.2,0.7c0.4,0.4,0.7,2.2,0.7,2.2
						s0.3-1.7,0.7-2.1c0.4-0.4,2.2-0.7,2.2-0.7s-1.8-0.3-2.2-0.7C49.4,46.2,49.1,44.4,49.1,44.4z"/>
				</g>
			</g>
			<g>
				<g>
					<linearGradient id="SVGID_5_" gradientUnits="userSpaceOnUse" x1="23.1387" y1="68.1616" x2="26.7529" y2="68.1616">
						<stop  offset="0" style="stop-color:#D8D7D4"/>
						<stop  offset="0.1831" style="stop-color:#DFDFDD"/>
						<stop  offset="0.657" style="stop-color:#EFEFEF"/>
						<stop  offset="1" style="stop-color:#F4F5F5"/>
					</linearGradient>
					<path class="st4" d="M24.9,66.4c0,0-0.2,1.1-0.4,1.4c-0.3,0.3-1.4,0.4-1.4,0.4s1.1,0.2,1.4,0.4c0.3,0.3,0.4,1.4,0.4,1.4
						s0.2-1.1,0.4-1.3c0.3-0.3,1.4-0.5,1.4-0.5s-1.1-0.2-1.4-0.5C25.1,67.4,24.9,66.4,24.9,66.4z"/>
				</g>
			</g>
			<g>
				<g>
					<linearGradient id="SVGID_6_" gradientUnits="userSpaceOnUse" x1="61.5556" y1="28.791" x2="65.707" y2="28.791">
						<stop  offset="0" style="stop-color:#D8D7D4"/>
						<stop  offset="0.1831" style="stop-color:#DFDFDD"/>
						<stop  offset="0.657" style="stop-color:#EFEFEF"/>
						<stop  offset="1" style="stop-color:#F4F5F5"/>
					</linearGradient>
					<path class="st5" d="M63.6,26.7c0,0-0.2,1.3-0.5,1.6c-0.3,0.3-1.6,0.5-1.6,0.5s1.3,0.2,1.6,0.5c0.3,0.3,0.5,1.6,0.5,1.6
						s0.2-1.2,0.5-1.5c0.3-0.3,1.6-0.5,1.6-0.5s-1.3-0.2-1.6-0.5C63.8,28,63.6,26.7,63.6,26.7z"/>
				</g>
			</g>
			<linearGradient id="SVGID_7_" gradientUnits="userSpaceOnUse" x1="58.7118" y1="41.453" x2="60.2049" y2="40.3278">
				<stop  offset="0" style="stop-color:#D8D7D4"/>
				<stop  offset="0.1831" style="stop-color:#DFDFDD"/>
				<stop  offset="0.657" style="stop-color:#EFEFEF"/>
				<stop  offset="1" style="stop-color:#F4F5F5"/>
			</linearGradient>
			<polygon class="st6" points="60.2,41.6 59.5,41.4 59,41.8 59,41.2 58.4,40.8 59,40.6 59.2,39.9 59.6,40.4 60.2,40.4 59.9,40.9 
							"/>
			<linearGradient id="SVGID_8_" gradientUnits="userSpaceOnUse" x1="29.5424" y1="11.3001" x2="30.1657" y2="10.8304">
				<stop  offset="0" style="stop-color:#D8D7D4"/>
				<stop  offset="0.1831" style="stop-color:#DFDFDD"/>
				<stop  offset="0.657" style="stop-color:#EFEFEF"/>
				<stop  offset="1" style="stop-color:#F4F5F5"/>
			</linearGradient>
			<polygon class="st7" points="30.1,11.3 29.9,11.3 29.7,11.5 29.6,11.2 29.4,11 29.7,10.9 29.7,10.7 29.9,10.9 30.2,10.9 30,11.1 
							"/>
			<linearGradient id="SVGID_9_" gradientUnits="userSpaceOnUse" x1="4.6486" y1="46.0907" x2="6.1419" y2="44.9655">
				<stop  offset="0" style="stop-color:#D8D7D4"/>
				<stop  offset="0.1831" style="stop-color:#DFDFDD"/>
				<stop  offset="0.657" style="stop-color:#EFEFEF"/>
				<stop  offset="1" style="stop-color:#F4F5F5"/>
			</linearGradient>
			<polygon class="st8" points="6.1,46.2 5.4,46 4.9,46.5 4.9,45.8 4.3,45.5 4.9,45.2 5.1,44.6 5.5,45.1 6.2,45 5.8,45.6 			"/>
			<linearGradient id="SVGID_10_" gradientUnits="userSpaceOnUse" x1="3.9692" y1="21.9726" x2="5.4618" y2="20.8478">
				<stop  offset="0" style="stop-color:#D8D7D4"/>
				<stop  offset="0.1831" style="stop-color:#DFDFDD"/>
				<stop  offset="0.657" style="stop-color:#EFEFEF"/>
				<stop  offset="1" style="stop-color:#F4F5F5"/>
			</linearGradient>
			<polygon class="st9" points="5.4,22.1 4.8,21.9 4.3,22.4 4.2,21.7 3.6,21.3 4.3,21.1 4.4,20.4 4.8,21 5.5,20.9 5.1,21.5 			"/>
			<linearGradient id="SVGID_11_" gradientUnits="userSpaceOnUse" x1="65.7197" y1="20.8126" x2="67.2129" y2="19.6874">
				<stop  offset="0" style="stop-color:#D8D7D4"/>
				<stop  offset="0.1831" style="stop-color:#DFDFDD"/>
				<stop  offset="0.657" style="stop-color:#EFEFEF"/>
				<stop  offset="1" style="stop-color:#F4F5F5"/>
			</linearGradient>
			<polygon class="st10" points="67.2,20.9 66.5,20.8 66,21.2 66,20.5 65.4,20.2 66,19.9 66.2,19.3 66.6,19.8 67.3,19.7 66.9,20.3 
							"/>
			<linearGradient id="SVGID_12_" gradientUnits="userSpaceOnUse" x1="12.3847" y1="47.2324" x2="13.0092" y2="46.7617">
				<stop  offset="0" style="stop-color:#D8D7D4"/>
				<stop  offset="0.1831" style="stop-color:#DFDFDD"/>
				<stop  offset="0.657" style="stop-color:#EFEFEF"/>
				<stop  offset="1" style="stop-color:#F4F5F5"/>
			</linearGradient>
			<polygon class="st11" points="13,47.3 12.7,47.2 12.5,47.4 12.5,47.1 12.2,47 12.5,46.9 12.6,46.6 12.7,46.8 13,46.8 12.9,47 			
				"/>
			<linearGradient id="SVGID_13_" gradientUnits="userSpaceOnUse" x1="9.3228" y1="35.4534" x2="9.946" y2="34.9839">
				<stop  offset="0" style="stop-color:#D8D7D4"/>
				<stop  offset="0.1831" style="stop-color:#DFDFDD"/>
				<stop  offset="0.657" style="stop-color:#EFEFEF"/>
				<stop  offset="1" style="stop-color:#F4F5F5"/>
			</linearGradient>
			<polygon class="st12" points="9.9,35.5 9.7,35.4 9.4,35.6 9.4,35.3 9.2,35.2 9.4,35.1 9.5,34.8 9.7,35 10,35 9.8,35.2 			"/>
			<linearGradient id="SVGID_14_" gradientUnits="userSpaceOnUse" x1="19.2122" y1="25.134" x2="19.8368" y2="24.6634">
				<stop  offset="0" style="stop-color:#D8D7D4"/>
				<stop  offset="0.1831" style="stop-color:#DFDFDD"/>
				<stop  offset="0.657" style="stop-color:#EFEFEF"/>
				<stop  offset="1" style="stop-color:#F4F5F5"/>
			</linearGradient>
			<polygon class="st13" points="19.8,25.2 19.5,25.1 19.3,25.3 19.3,25 19.1,24.9 19.3,24.8 19.4,24.5 19.6,24.7 19.9,24.7 
				19.7,24.9 			"/>
			<linearGradient id="SVGID_15_" gradientUnits="userSpaceOnUse" x1="28.9231" y1="51.7176" x2="30.4163" y2="50.5924">
				<stop  offset="0" style="stop-color:#D8D7D4"/>
				<stop  offset="0.1831" style="stop-color:#DFDFDD"/>
				<stop  offset="0.657" style="stop-color:#EFEFEF"/>
				<stop  offset="1" style="stop-color:#F4F5F5"/>
			</linearGradient>
			<polygon class="st14" points="30.4,51.8 29.7,51.7 29.2,52.1 29.2,51.4 28.6,51.1 29.2,50.8 29.4,50.2 29.8,50.7 30.5,50.6 
				30.1,51.2 			"/>
			<linearGradient id="SVGID_16_" gradientUnits="userSpaceOnUse" x1="46.6647" y1="25.815" x2="48.1594" y2="24.6887">
				<stop  offset="0" style="stop-color:#D8D7D4"/>
				<stop  offset="0.1831" style="stop-color:#DFDFDD"/>
				<stop  offset="0.657" style="stop-color:#EFEFEF"/>
				<stop  offset="1" style="stop-color:#F4F5F5"/>
			</linearGradient>
			<polygon class="st15" points="48.1,25.9 47.5,25.8 47,26.2 46.9,25.5 46.3,25.2 47,24.9 47.1,24.3 47.5,24.8 48.2,24.7 
				47.8,25.3 			"/>
			<linearGradient id="SVGID_17_" gradientUnits="userSpaceOnUse" x1="54.4555" y1="18.0237" x2="55.9508" y2="16.8969">
				<stop  offset="0" style="stop-color:#D8D7D4"/>
				<stop  offset="0.1831" style="stop-color:#DFDFDD"/>
				<stop  offset="0.657" style="stop-color:#EFEFEF"/>
				<stop  offset="1" style="stop-color:#F4F5F5"/>
			</linearGradient>
			<polygon class="st16" points="55.9,18.1 55.2,18 54.7,18.4 54.7,17.7 54.1,17.4 54.7,17.1 54.9,16.5 55.3,17 56,16.9 55.6,17.5 
							"/>
			<linearGradient id="SVGID_18_" gradientUnits="userSpaceOnUse" x1="52.0354" y1="39.3298" x2="52.6592" y2="38.8598">
				<stop  offset="0" style="stop-color:#D8D7D4"/>
				<stop  offset="0.1831" style="stop-color:#DFDFDD"/>
				<stop  offset="0.657" style="stop-color:#EFEFEF"/>
				<stop  offset="1" style="stop-color:#F4F5F5"/>
			</linearGradient>
			<polygon class="st17" points="52.6,39.4 52.4,39.3 52.2,39.5 52.1,39.2 51.9,39.1 52.2,39 52.2,38.7 52.4,38.9 52.7,38.9 
				52.5,39.1 			"/>
			<linearGradient id="SVGID_19_" gradientUnits="userSpaceOnUse" x1="62.3761" y1="33.9898" x2="62.9994" y2="33.5201">
				<stop  offset="0" style="stop-color:#D8D7D4"/>
				<stop  offset="0.1831" style="stop-color:#DFDFDD"/>
				<stop  offset="0.657" style="stop-color:#EFEFEF"/>
				<stop  offset="1" style="stop-color:#F4F5F5"/>
			</linearGradient>
			<polygon class="st18" points="63,34 62.7,34 62.5,34.2 62.5,33.9 62.2,33.7 62.5,33.6 62.6,33.4 62.7,33.6 63,33.5 62.9,33.8 			
				"/>
			<linearGradient id="SVGID_20_" gradientUnits="userSpaceOnUse" x1="34.1559" y1="23.1799" x2="34.7803" y2="22.7094">
				<stop  offset="0" style="stop-color:#D8D7D4"/>
				<stop  offset="0.1831" style="stop-color:#DFDFDD"/>
				<stop  offset="0.657" style="stop-color:#EFEFEF"/>
				<stop  offset="1" style="stop-color:#F4F5F5"/>
			</linearGradient>
			<polygon class="st19" points="34.8,23.2 34.5,23.2 34.3,23.3 34.3,23.1 34,22.9 34.3,22.8 34.3,22.5 34.5,22.8 34.8,22.7 
				34.6,23 			"/>
			<linearGradient id="SVGID_21_" gradientUnits="userSpaceOnUse" x1="29.8656" y1="68.8502" x2="30.4908" y2="68.3792">
				<stop  offset="0" style="stop-color:#D8D7D4"/>
				<stop  offset="0.1831" style="stop-color:#DFDFDD"/>
				<stop  offset="0.657" style="stop-color:#EFEFEF"/>
				<stop  offset="1" style="stop-color:#F4F5F5"/>
			</linearGradient>
			<polygon class="st20" points="30.5,68.9 30.2,68.8 30,69 30,68.7 29.7,68.6 30,68.5 30.1,68.2 30.2,68.4 30.5,68.4 30.4,68.6 			
				"/>
			<linearGradient id="SVGID_22_" gradientUnits="userSpaceOnUse" x1="44.8091" y1="66.8966" x2="45.434" y2="66.4258">
				<stop  offset="0" style="stop-color:#D8D7D4"/>
				<stop  offset="0.1831" style="stop-color:#DFDFDD"/>
				<stop  offset="0.657" style="stop-color:#EFEFEF"/>
				<stop  offset="1" style="stop-color:#F4F5F5"/>
			</linearGradient>
			<polygon class="st21" points="45.4,66.9 45.1,66.9 44.9,67.1 44.9,66.8 44.7,66.6 44.9,66.5 45,66.3 45.2,66.5 45.5,66.4 
				45.3,66.7 			"/>
			<linearGradient id="SVGID_23_" gradientUnits="userSpaceOnUse" x1="70.4396" y1="51.184" x2="71.0654" y2="50.7124">
				<stop  offset="0" style="stop-color:#D8D7D4"/>
				<stop  offset="0.1831" style="stop-color:#DFDFDD"/>
				<stop  offset="0.657" style="stop-color:#EFEFEF"/>
				<stop  offset="1" style="stop-color:#F4F5F5"/>
			</linearGradient>
			<polygon class="st22" points="71,51.2 70.8,51.2 70.6,51.3 70.5,51.1 70.3,50.9 70.6,50.8 70.6,50.5 70.8,50.8 71.1,50.7 
				70.9,51 			"/>
			<linearGradient id="SVGID_24_" gradientUnits="userSpaceOnUse" x1="30.0917" y1="15.8821" x2="30.7194" y2="15.4091">
				<stop  offset="0" style="stop-color:#D8D7D4"/>
				<stop  offset="0.1831" style="stop-color:#DFDFDD"/>
				<stop  offset="0.657" style="stop-color:#EFEFEF"/>
				<stop  offset="1" style="stop-color:#F4F5F5"/>
			</linearGradient>
			<polygon class="st23" points="30.7,15.9 30.4,15.9 30.2,16 30.2,15.8 30,15.6 30.2,15.5 30.3,15.2 30.5,15.5 30.7,15.4 
				30.6,15.7 			"/>
			<linearGradient id="SVGID_25_" gradientUnits="userSpaceOnUse" x1="26.9207" y1="55.6645" x2="27.5455" y2="55.1936">
				<stop  offset="0" style="stop-color:#D8D7D4"/>
				<stop  offset="0.1831" style="stop-color:#DFDFDD"/>
				<stop  offset="0.657" style="stop-color:#EFEFEF"/>
				<stop  offset="1" style="stop-color:#F4F5F5"/>
			</linearGradient>
			<polygon class="st24" points="27.5,55.7 27.3,55.6 27,55.8 27,55.5 26.8,55.4 27,55.3 27.1,55 27.3,55.2 27.6,55.2 27.4,55.5 			
				"/>
			<linearGradient id="SVGID_26_" gradientUnits="userSpaceOnUse" x1="15.2327" y1="60.5624" x2="16.7264" y2="59.4368">
				<stop  offset="0" style="stop-color:#D8D7D4"/>
				<stop  offset="0.1831" style="stop-color:#DFDFDD"/>
				<stop  offset="0.657" style="stop-color:#EFEFEF"/>
				<stop  offset="1" style="stop-color:#F4F5F5"/>
			</linearGradient>
			<polygon class="st25" points="16.7,60.7 16,60.5 15.5,60.9 15.5,60.3 14.9,59.9 15.5,59.7 15.7,59 16.1,59.5 16.8,59.5 
				16.4,60.1 			"/>
			<linearGradient id="SVGID_27_" gradientUnits="userSpaceOnUse" x1="27.4708" y1="60.2442" x2="28.0978" y2="59.7718">
				<stop  offset="0" style="stop-color:#D8D7D4"/>
				<stop  offset="0.1831" style="stop-color:#DFDFDD"/>
				<stop  offset="0.657" style="stop-color:#EFEFEF"/>
				<stop  offset="1" style="stop-color:#F4F5F5"/>
			</linearGradient>
			<polygon class="st26" points="28.1,60.3 27.8,60.2 27.6,60.4 27.6,60.1 27.3,60 27.6,59.9 27.7,59.6 27.8,59.8 28.1,59.8 28,60 
							"/>
			<linearGradient id="SVGID_28_" gradientUnits="userSpaceOnUse" x1="61.0407" y1="54.3211" x2="61.6639" y2="53.8515">
				<stop  offset="0" style="stop-color:#D8D7D4"/>
				<stop  offset="0.1831" style="stop-color:#DFDFDD"/>
				<stop  offset="0.657" style="stop-color:#EFEFEF"/>
				<stop  offset="1" style="stop-color:#F4F5F5"/>
			</linearGradient>
			<polygon class="st27" points="61.6,54.4 61.4,54.3 61.2,54.5 61.1,54.2 60.9,54.1 61.2,54 61.2,53.7 61.4,53.9 61.7,53.9 
				61.5,54.1 			"/>
			<linearGradient id="SVGID_29_" gradientUnits="userSpaceOnUse" x1="49.3525" y1="59.2182" x2="50.8452" y2="58.0934">
				<stop  offset="0" style="stop-color:#D8D7D4"/>
				<stop  offset="0.1831" style="stop-color:#DFDFDD"/>
				<stop  offset="0.657" style="stop-color:#EFEFEF"/>
				<stop  offset="1" style="stop-color:#F4F5F5"/>
			</linearGradient>
			<polygon class="st28" points="50.8,59.3 50.1,59.2 49.6,59.6 49.6,58.9 49,58.6 49.6,58.3 49.8,57.7 50.2,58.2 50.9,58.1 
				50.5,58.7 			"/>
			<linearGradient id="SVGID_30_" gradientUnits="userSpaceOnUse" x1="61.5897" y1="58.9023" x2="62.2168" y2="58.4297">
				<stop  offset="0" style="stop-color:#D8D7D4"/>
				<stop  offset="0.1831" style="stop-color:#DFDFDD"/>
				<stop  offset="0.657" style="stop-color:#EFEFEF"/>
				<stop  offset="1" style="stop-color:#F4F5F5"/>
			</linearGradient>
			<polygon class="st29" points="62.2,58.9 61.9,58.9 61.7,59.1 61.7,58.8 61.5,58.6 61.7,58.5 61.8,58.3 62,58.5 62.2,58.5 
				62.1,58.7 			"/>
			<linearGradient id="SVGID_31_" gradientUnits="userSpaceOnUse" x1="38.4732" y1="34.1721" x2="39.0975" y2="33.7017">
				<stop  offset="0" style="stop-color:#D8D7D4"/>
				<stop  offset="0.1831" style="stop-color:#DFDFDD"/>
				<stop  offset="0.657" style="stop-color:#EFEFEF"/>
				<stop  offset="1" style="stop-color:#F4F5F5"/>
			</linearGradient>
			<polygon class="st30" points="39.1,34.2 38.8,34.1 38.6,34.3 38.6,34.1 38.3,33.9 38.6,33.8 38.7,33.5 38.8,33.8 39.1,33.7 
				39,34 			"/>
			<linearGradient id="SVGID_32_" gradientUnits="userSpaceOnUse" x1="26.7846" y1="39.0708" x2="28.2775" y2="37.9459">
				<stop  offset="0" style="stop-color:#D8D7D4"/>
				<stop  offset="0.1831" style="stop-color:#DFDFDD"/>
				<stop  offset="0.657" style="stop-color:#EFEFEF"/>
				<stop  offset="1" style="stop-color:#F4F5F5"/>
			</linearGradient>
			<polygon class="st31" points="28.2,39.2 27.6,39 27.1,39.5 27,38.8 26.5,38.4 27.1,38.2 27.2,37.5 27.7,38.1 28.3,38 28,38.6 			
				"/>
			<linearGradient id="SVGID_33_" gradientUnits="userSpaceOnUse" x1="39.0233" y1="38.7525" x2="39.6502" y2="38.2801">
				<stop  offset="0" style="stop-color:#D8D7D4"/>
				<stop  offset="0.1831" style="stop-color:#DFDFDD"/>
				<stop  offset="0.657" style="stop-color:#EFEFEF"/>
				<stop  offset="1" style="stop-color:#F4F5F5"/>
			</linearGradient>
			<polygon class="st32" points="39.6,38.8 39.4,38.7 39.1,38.9 39.1,38.6 38.9,38.5 39.1,38.4 39.2,38.1 39.4,38.3 39.7,38.3 
				39.5,38.5 			"/>
			<linearGradient id="SVGID_34_" gradientUnits="userSpaceOnUse" x1="47.008" y1="6.5616" x2="47.6312" y2="6.092">
				<stop  offset="0" style="stop-color:#D8D7D4"/>
				<stop  offset="0.1831" style="stop-color:#DFDFDD"/>
				<stop  offset="0.657" style="stop-color:#EFEFEF"/>
				<stop  offset="1" style="stop-color:#F4F5F5"/>
			</linearGradient>
			<polygon class="st33" points="47.6,6.6 47.3,6.5 47.1,6.7 47.1,6.4 46.9,6.3 47.1,6.2 47.2,5.9 47.4,6.1 47.6,6.1 47.5,6.3 			
				"/>
			<linearGradient id="SVGID_35_" gradientUnits="userSpaceOnUse" x1="35.3196" y1="11.4589" x2="36.8135" y2="10.3332">
				<stop  offset="0" style="stop-color:#D8D7D4"/>
				<stop  offset="0.1831" style="stop-color:#DFDFDD"/>
				<stop  offset="0.657" style="stop-color:#EFEFEF"/>
				<stop  offset="1" style="stop-color:#F4F5F5"/>
			</linearGradient>
			<polygon class="st34" points="36.8,11.6 36.1,11.4 35.6,11.8 35.6,11.2 35,10.8 35.6,10.6 35.8,9.9 36.2,10.4 36.9,10.4 36.5,11 
							"/>
			<linearGradient id="SVGID_36_" gradientUnits="userSpaceOnUse" x1="20.7773" y1="14.2447" x2="22.271" y2="13.1191">
				<stop  offset="0" style="stop-color:#D8D7D4"/>
				<stop  offset="0.1831" style="stop-color:#DFDFDD"/>
				<stop  offset="0.657" style="stop-color:#EFEFEF"/>
				<stop  offset="1" style="stop-color:#F4F5F5"/>
			</linearGradient>
			<polygon class="st35" points="22.2,14.4 21.6,14.2 21.1,14.6 21,14 20.4,13.6 21.1,13.4 21.2,12.7 21.6,13.2 22.3,13.2 22,13.7 
							"/>
			<linearGradient id="SVGID_37_" gradientUnits="userSpaceOnUse" x1="47.5577" y1="11.1416" x2="48.1841" y2="10.6695">
				<stop  offset="0" style="stop-color:#D8D7D4"/>
				<stop  offset="0.1831" style="stop-color:#DFDFDD"/>
				<stop  offset="0.657" style="stop-color:#EFEFEF"/>
				<stop  offset="1" style="stop-color:#F4F5F5"/>
			</linearGradient>
			<polygon class="st36" points="48.2,11.2 47.9,11.1 47.7,11.3 47.7,11 47.4,10.9 47.7,10.8 47.7,10.5 47.9,10.7 48.2,10.7 
				48.1,10.9 			"/>
			<linearGradient id="SVGID_38_" gradientUnits="userSpaceOnUse" x1="52.8349" y1="57.2842" x2="53.4594" y2="56.8135">
				<stop  offset="0" style="stop-color:#D8D7D4"/>
				<stop  offset="0.1831" style="stop-color:#DFDFDD"/>
				<stop  offset="0.657" style="stop-color:#EFEFEF"/>
				<stop  offset="1" style="stop-color:#F4F5F5"/>
			</linearGradient>
			<polygon class="st37" points="53.4,57.3 53.2,57.3 53,57.4 52.9,57.2 52.7,57 53,56.9 53,56.6 53.2,56.9 53.5,56.8 53.3,57.1 			
				"/>
			<linearGradient id="SVGID_39_" gradientUnits="userSpaceOnUse" x1="69.3732" y1="61.7694" x2="70.8665" y2="60.6442">
				<stop  offset="0" style="stop-color:#D8D7D4"/>
				<stop  offset="0.1831" style="stop-color:#DFDFDD"/>
				<stop  offset="0.657" style="stop-color:#EFEFEF"/>
				<stop  offset="1" style="stop-color:#F4F5F5"/>
			</linearGradient>
			<polygon class="st38" points="70.8,61.9 70.2,61.7 69.7,62.2 69.6,61.5 69,61.1 69.7,60.9 69.8,60.2 70.2,60.8 70.9,60.7 
				70.5,61.3 			"/>
			<linearGradient id="SVGID_40_" gradientUnits="userSpaceOnUse" x1="67.3708" y1="65.7163" x2="67.9957" y2="65.2454">
				<stop  offset="0" style="stop-color:#D8D7D4"/>
				<stop  offset="0.1831" style="stop-color:#DFDFDD"/>
				<stop  offset="0.657" style="stop-color:#EFEFEF"/>
				<stop  offset="1" style="stop-color:#F4F5F5"/>
			</linearGradient>
			<polygon class="st39" points="68,65.8 67.7,65.7 67.5,65.9 67.5,65.6 67.2,65.5 67.5,65.4 67.6,65.1 67.7,65.3 68,65.3 
				67.9,65.5 			"/>
			<linearGradient id="SVGID_41_" gradientUnits="userSpaceOnUse" x1="55.6828" y1="70.6141" x2="57.1765" y2="69.4885">
				<stop  offset="0" style="stop-color:#D8D7D4"/>
				<stop  offset="0.1831" style="stop-color:#DFDFDD"/>
				<stop  offset="0.657" style="stop-color:#EFEFEF"/>
				<stop  offset="1" style="stop-color:#F4F5F5"/>
			</linearGradient>
			<polygon class="st40" points="57.1,70.7 56.5,70.6 56,71 55.9,70.3 55.4,70 56,69.7 56.1,69.1 56.5,69.6 57.2,69.5 56.9,70.1 			
				"/>
			<linearGradient id="SVGID_42_" gradientUnits="userSpaceOnUse" x1="67.921" y1="70.2959" x2="68.5479" y2="69.8235">
				<stop  offset="0" style="stop-color:#D8D7D4"/>
				<stop  offset="0.1831" style="stop-color:#DFDFDD"/>
				<stop  offset="0.657" style="stop-color:#EFEFEF"/>
				<stop  offset="1" style="stop-color:#F4F5F5"/>
			</linearGradient>
			<polygon class="st41" points="68.5,70.3 68.3,70.3 68,70.5 68,70.2 67.8,70 68,69.9 68.1,69.7 68.3,69.9 68.6,69.8 68.4,70.1 			
				"/>
			<linearGradient id="SVGID_43_" gradientUnits="userSpaceOnUse" x1="67.2349" y1="49.1226" x2="68.7277" y2="47.9977">
				<stop  offset="0" style="stop-color:#D8D7D4"/>
				<stop  offset="0.1831" style="stop-color:#DFDFDD"/>
				<stop  offset="0.657" style="stop-color:#EFEFEF"/>
				<stop  offset="1" style="stop-color:#F4F5F5"/>
			</linearGradient>
			<polygon class="st42" points="68.7,49.2 68,49.1 67.5,49.5 67.5,48.8 66.9,48.5 67.5,48.2 67.7,47.6 68.1,48.1 68.8,48.1 
				68.4,48.6 			"/>
			<linearGradient id="SVGID_44_" gradientUnits="userSpaceOnUse" x1="51.8348" y1="15.206" x2="52.4594" y2="14.7354">
				<stop  offset="0" style="stop-color:#D8D7D4"/>
				<stop  offset="0.1831" style="stop-color:#DFDFDD"/>
				<stop  offset="0.657" style="stop-color:#EFEFEF"/>
				<stop  offset="1" style="stop-color:#F4F5F5"/>
			</linearGradient>
			<polygon class="st43" points="52.4,15.3 52.2,15.2 52,15.4 51.9,15.1 51.7,14.9 52,14.8 52,14.6 52.2,14.8 52.5,14.8 52.3,15 			
				"/>
			<linearGradient id="SVGID_45_" gradientUnits="userSpaceOnUse" x1="68.3733" y1="19.6913" x2="69.8665" y2="18.5661">
				<stop  offset="0" style="stop-color:#D8D7D4"/>
				<stop  offset="0.1831" style="stop-color:#DFDFDD"/>
				<stop  offset="0.657" style="stop-color:#EFEFEF"/>
				<stop  offset="1" style="stop-color:#F4F5F5"/>
			</linearGradient>
			<polygon class="st44" points="69.8,19.8 69.2,19.6 68.7,20.1 68.6,19.4 68,19.1 68.7,18.8 68.8,18.2 69.2,18.7 69.9,18.6 
				69.5,19.2 			"/>
			<linearGradient id="SVGID_46_" gradientUnits="userSpaceOnUse" x1="66.3708" y1="23.6382" x2="66.9957" y2="23.1673">
				<stop  offset="0" style="stop-color:#D8D7D4"/>
				<stop  offset="0.1831" style="stop-color:#DFDFDD"/>
				<stop  offset="0.657" style="stop-color:#EFEFEF"/>
				<stop  offset="1" style="stop-color:#F4F5F5"/>
			</linearGradient>
			<polygon class="st45" points="67,23.7 66.7,23.6 66.5,23.8 66.5,23.5 66.2,23.4 66.5,23.3 66.6,23 66.7,23.2 67,23.2 66.9,23.4 
							"/>
			<linearGradient id="SVGID_47_" gradientUnits="userSpaceOnUse" x1="54.6828" y1="28.536" x2="56.1765" y2="27.4104">
				<stop  offset="0" style="stop-color:#D8D7D4"/>
				<stop  offset="0.1831" style="stop-color:#DFDFDD"/>
				<stop  offset="0.657" style="stop-color:#EFEFEF"/>
				<stop  offset="1" style="stop-color:#F4F5F5"/>
			</linearGradient>
			<polygon class="st46" points="56.1,28.6 55.5,28.5 55,28.9 54.9,28.3 54.4,27.9 55,27.7 55.1,27 55.5,27.5 56.2,27.5 55.9,28 			
				"/>
			<linearGradient id="SVGID_48_" gradientUnits="userSpaceOnUse" x1="66.921" y1="28.2178" x2="67.5479" y2="27.7454">
				<stop  offset="0" style="stop-color:#D8D7D4"/>
				<stop  offset="0.1831" style="stop-color:#DFDFDD"/>
				<stop  offset="0.657" style="stop-color:#EFEFEF"/>
				<stop  offset="1" style="stop-color:#F4F5F5"/>
			</linearGradient>
			<polygon class="st47" points="67.5,28.3 67.3,28.2 67,28.4 67,28.1 66.8,28 67,27.9 67.1,27.6 67.3,27.8 67.6,27.8 67.4,28 			
				"/>
			<linearGradient id="SVGID_49_" gradientUnits="userSpaceOnUse" x1="66.2349" y1="7.0445" x2="67.7277" y2="5.9195">
				<stop  offset="0" style="stop-color:#D8D7D4"/>
				<stop  offset="0.1831" style="stop-color:#DFDFDD"/>
				<stop  offset="0.657" style="stop-color:#EFEFEF"/>
				<stop  offset="1" style="stop-color:#F4F5F5"/>
			</linearGradient>
			<polygon class="st48" points="67.7,7.2 67,7 66.5,7.4 66.5,6.8 65.9,6.4 66.5,6.2 66.7,5.5 67.1,6 67.8,6 67.4,6.5 			"/>
			<linearGradient id="SVGID_50_" gradientUnits="userSpaceOnUse" x1="18.3517" y1="4.4022" x2="19.8449" y2="3.277">
				<stop  offset="0" style="stop-color:#D8D7D4"/>
				<stop  offset="0.1831" style="stop-color:#DFDFDD"/>
				<stop  offset="0.657" style="stop-color:#EFEFEF"/>
				<stop  offset="1" style="stop-color:#F4F5F5"/>
			</linearGradient>
			<polygon class="st49" points="19.8,4.5 19.1,4.3 18.6,4.8 18.6,4.1 18,3.8 18.6,3.5 18.8,2.9 19.2,3.4 19.9,3.3 19.5,3.9 			"/>
			<linearGradient id="SVGID_51_" gradientUnits="userSpaceOnUse" x1="16.3494" y1="8.3491" x2="16.9742" y2="7.8783">
				<stop  offset="0" style="stop-color:#D8D7D4"/>
				<stop  offset="0.1831" style="stop-color:#DFDFDD"/>
				<stop  offset="0.657" style="stop-color:#EFEFEF"/>
				<stop  offset="1" style="stop-color:#F4F5F5"/>
			</linearGradient>
			<polygon class="st50" points="17,8.4 16.7,8.3 16.5,8.5 16.5,8.2 16.2,8.1 16.5,8 16.5,7.7 16.7,7.9 17,7.9 16.8,8.1 			"/>
			<linearGradient id="SVGID_52_" gradientUnits="userSpaceOnUse" x1="4.6614" y1="13.2469" x2="6.155" y2="12.1214">
				<stop  offset="0" style="stop-color:#D8D7D4"/>
				<stop  offset="0.1831" style="stop-color:#DFDFDD"/>
				<stop  offset="0.657" style="stop-color:#EFEFEF"/>
				<stop  offset="1" style="stop-color:#F4F5F5"/>
			</linearGradient>
			<polygon class="st51" points="6.1,13.4 5.5,13.2 4.9,13.6 4.9,13 4.3,12.6 5,12.4 5.1,11.7 5.5,12.2 6.2,12.2 5.8,12.7 			"/>
			<linearGradient id="SVGID_53_" gradientUnits="userSpaceOnUse" x1="16.8995" y1="12.9288" x2="17.5264" y2="12.4563">
				<stop  offset="0" style="stop-color:#D8D7D4"/>
				<stop  offset="0.1831" style="stop-color:#DFDFDD"/>
				<stop  offset="0.657" style="stop-color:#EFEFEF"/>
				<stop  offset="1" style="stop-color:#F4F5F5"/>
			</linearGradient>
			<polygon class="st52" points="17.5,13 17.2,12.9 17,13.1 17,12.8 16.8,12.7 17,12.6 17.1,12.3 17.3,12.5 17.5,12.5 17.4,12.7 			
				"/>
			<linearGradient id="SVGID_54_" gradientUnits="userSpaceOnUse" x1="5.3847" y1="56.2842" x2="6.0092" y2="55.8135">
				<stop  offset="0" style="stop-color:#D8D7D4"/>
				<stop  offset="0.1831" style="stop-color:#DFDFDD"/>
				<stop  offset="0.657" style="stop-color:#EFEFEF"/>
				<stop  offset="1" style="stop-color:#F4F5F5"/>
			</linearGradient>
			<polygon class="st53" points="6,56.3 5.7,56.3 5.5,56.4 5.5,56.2 5.2,56 5.5,55.9 5.6,55.6 5.7,55.9 6,55.8 5.9,56.1 			"/>
			<linearGradient id="SVGID_55_" gradientUnits="userSpaceOnUse" x1="38.3469" y1="58.1005" x2="39.8401" y2="56.9753">
				<stop  offset="0" style="stop-color:#D8D7D4"/>
				<stop  offset="0.1831" style="stop-color:#DFDFDD"/>
				<stop  offset="0.657" style="stop-color:#EFEFEF"/>
				<stop  offset="1" style="stop-color:#F4F5F5"/>
			</linearGradient>
			<polygon class="st54" points="39.8,58.2 39.1,58 38.6,58.5 38.6,57.8 38,57.5 38.6,57.2 38.8,56.6 39.2,57.1 39.9,57 39.5,57.6 
							"/>
			<linearGradient id="SVGID_56_" gradientUnits="userSpaceOnUse" x1="19.9206" y1="64.7163" x2="20.5455" y2="64.2454">
				<stop  offset="0" style="stop-color:#D8D7D4"/>
				<stop  offset="0.1831" style="stop-color:#DFDFDD"/>
				<stop  offset="0.657" style="stop-color:#EFEFEF"/>
				<stop  offset="1" style="stop-color:#F4F5F5"/>
			</linearGradient>
			<polygon class="st55" points="20.5,64.8 20.3,64.7 20,64.9 20,64.6 19.8,64.5 20,64.4 20.1,64.1 20.3,64.3 20.6,64.3 20.4,64.5 
							"/>
			<linearGradient id="SVGID_57_" gradientUnits="userSpaceOnUse" x1="8.2326" y1="69.6141" x2="9.7263" y2="68.4885">
				<stop  offset="0" style="stop-color:#D8D7D4"/>
				<stop  offset="0.1831" style="stop-color:#DFDFDD"/>
				<stop  offset="0.657" style="stop-color:#EFEFEF"/>
				<stop  offset="1" style="stop-color:#F4F5F5"/>
			</linearGradient>
			<polygon class="st56" points="9.7,69.7 9,69.6 8.5,70 8.5,69.3 7.9,69 8.5,68.7 8.7,68.1 9.1,68.6 9.8,68.5 9.4,69.1 			"/>
			<linearGradient id="SVGID_58_" gradientUnits="userSpaceOnUse" x1="20.4708" y1="69.2959" x2="21.0977" y2="68.8235">
				<stop  offset="0" style="stop-color:#D8D7D4"/>
				<stop  offset="0.1831" style="stop-color:#DFDFDD"/>
				<stop  offset="0.657" style="stop-color:#EFEFEF"/>
				<stop  offset="1" style="stop-color:#F4F5F5"/>
			</linearGradient>
			<polygon class="st57" points="21.1,69.3 20.8,69.3 20.6,69.5 20.6,69.2 20.3,69 20.6,68.9 20.7,68.7 20.8,68.9 21.1,68.8 
				21,69.1 			"/>
			<linearGradient id="SVGID_59_" gradientUnits="userSpaceOnUse" x1="19.7847" y1="48.1226" x2="21.2775" y2="46.9977">
				<stop  offset="0" style="stop-color:#D8D7D4"/>
				<stop  offset="0.1831" style="stop-color:#DFDFDD"/>
				<stop  offset="0.657" style="stop-color:#EFEFEF"/>
				<stop  offset="1" style="stop-color:#F4F5F5"/>
			</linearGradient>
			<polygon class="st58" points="21.2,48.2 20.6,48.1 20.1,48.5 20,47.8 19.5,47.5 20.1,47.2 20.2,46.6 20.7,47.1 21.3,47.1 
				21,47.6 			"/>
		</g>
		<g>
			<g>
				<g>
					<circle class="st59" cx="41.2" cy="31.7" r="24.8"/>
				</g>
			</g>
			<path class="st60" d="M26.8,39.1c-0.9-0.9-0.9-1.6-1.8-1.6c-1,0-0.5,1.2-1,1.2c-0.4,0-0.7-0.9-1-0.9s-0.5,0-0.5,0.5
				c0,0.5,0.7,1.2,0,0.5c-0.7-0.7,0-1.4-0.7-0.7c-0.7,0.7,0.4,2.8-0.7,0.7c-1.1-2.1-0.7-2.1-1.8-3.3c-1.1-1.1-1.2-0.4-1.7-0.9
				c-0.5-0.5-0.7-1.1-0.3-1.6c0.4-0.4,0.4,1.6,0.4-0.4c0-2-0.2-2.2-0.2-2.6c0-0.4-0.6-0.5-0.1-1c0.5-0.5,0.4-0.3,0.4-1.4
				c0-1.1-0.5-2,0.4-3c1-1,1.1-1.4,1.1-2.3c0-0.9,0.9-1.7,0.9-2.6c0-0.9,0.4-1.2,1.2-2c0.8-0.8,0.6-1.2,1.2-1.8
				c0.6-0.6,1.6-1.2,2-1.7c0.4-0.4,1-0.6,1.5-1.1c0.5-0.5,1-0.9,1.6-1.5c0.6-0.6,1.6-0.4,1.6-0.4s1.1-0.5,0.5,0.1
				c-0.6,0.6-0.5,0-1.4,0.9c-0.9,0.9-1.3,0.8-1.3,1.5c0,0.7,0.2,0.2-0.7,1c-0.9,0.9-1.3,0.5-0.9,0.9c0.4,0.4,0.4,0.8,0.9,0.4
				c0.4-0.4,0.4-0.3,1-0.8c0.5-0.5,1.1-1.2,1.1-1.2l1-0.4c0,0,0.5,0.2,0.9-0.2C31,13,30.3,13.7,31,13c0.6-0.6-1-0.6,0.6-0.6
				c1.6,0,2.1-1.3,3-0.4c0.8,0.8,1.6,1.2,2.1,0.7c0.5-0.5,0.9-0.6,0.9-0.1c0,0.5,0.6,0.8,1,0.8s0.4,0,0.9,0c0.5,0,1.1,0,1.1,0
				s0.4,0.3,0.4,0.7c0,0.4,0.8,0.2,0,1c-0.8,0.8-0.5,1-0.5,1.9c0,1,0.4,0.6,0,1c-0.3,0.4-0.6,0.6-0.9,0.9c-0.3,0.3-0.3,0-0.7,0.4
				c-0.4,0.4-1.3,1.8-0.9,2.3c0.4,0.4,0.1,1-0.7,1c-0.8,0-1.7,0-1.5,0.3c0.3,0.3-1.2,0.3,0.3,0.3c1.5,0,2.6-0.2,3.1-0.2
				c0.4,0-0.1,0.6,0.4,0c0.6-0.6,1-0.5,1.4-0.1c0.4,0.4,1.2,0.4,1.5,0.7c0.3,0.3,0.7,0.6,0.7,0.6s1.7,1.2,0,1.2c-1.7,0-1.3,0-2.4,0
				c-1.1,0-1.2-0.4-1.6-0.1c-0.3,0.3-1.2,2-2.2,2c-1,0-1.8-0.8-1,0c0.8,0.8,0.5,0.9,1.4,0.9c0.9,0-0.5,0,0.9,0
				c1.4,0,2.2-0.1,2.2,0.4s0.2,1-0.7,1.9c-0.9,0.9-1.4,0-2.1,0c-0.7,0-0.6-0.5-1.1,0.1c-0.6,0.6-0.3,0.3-0.3,1.2
				c0,0.9,0.9,0.7,0.3,1.3c-0.7,0.7-1,0.9-0.6,1.3c0.4,0.4,2.1,0.3,2.1,0.3s1.7-0.7,1,0.1c-0.7,0.7-0.7,0-0.7,0.7
				c0,0.7,0.2,0.7,0.7,0.7c0.5,0,0.6-0.2,1-0.2c0.4,0,0.9,0,0.5,0.4c-0.4,0.4-1.3-0.4-1.3,0.7c0,1,0,1,0,1s0.3,1.3,0.7,1.7
				c0.4,0.4,1.7,0.5,1.7,1.1c0,0.6,0.7-0.1,0,0.6c-0.7,0.7-0.3,1.7-0.3,1.7s1.5,0.6-1,1.3c-2.5,0.7-1.9,1.2-3.1,0.8
				c-1.2-0.4,0.2-0.7-1.9-0.7c-2.1,0-2.7,1-3.5,0.3c-0.8-0.8,1.9-1.4-0.7-1.4c-2.6,0-0.6-0.6-1.2,0.1c-0.7,0.7-0.8,0.6-1.5,0.6
				c-0.7,0-1.1,1.6-0.7,0c0.4-1.6,0.8-1.7,1.5-2.4c0.7-0.7,0.5-0.2,1.1-0.8c0.6-0.6,1.8-0.6,0.6-0.6c-1.2,0-0.3-0.3-1.7-0.3
				c-1.4,0-0.5,1-1.4,0C26.8,39.1,26.8,39.1,26.8,39.1z"/>
			<path class="st60" d="M46,22.2c-1-1-1.1-1-2.1-1c-1,0-0.7-0.3-1,0c-0.3,0.3,1.2,0.3-0.3,0.3c-1.5,0-1.5,0.8-1.5,0
				c0-0.8-0.3,0.7,0.1-1.4c0.4-2.1,0.1-2.2,0.1-2.7c0-0.5-0.4-0.2,0.3-1c0.7-0.7,0.4-0.7,1-1.3c0.6-0.6,0-1,0.9-1
				c0.9,0,0.9-0.1,1.4,0.3c0.5,0.5,1,0.4,1,0.4s0.1,0,0.1-0.7s-0.8,0.1,0-0.7c0.8-0.8,1-0.7,1.7-0.7c0.6,0,0.2-0.4,0.6,0
				c0.4,0.4,0,0.8,0.8,0.8c0.8,0,1.2-1,1.2-1s0.9-0.5,0.9-0.1c0,0.4-0.7,0.3-0.1,1c0.6,0.6,1.1,0.1,0.6,0.6
				c-0.5,0.5-0.1-0.1-0.9,0.7c-0.8,0.8-0.9,0.4-1.2,0.8c-0.3,0.3-0.9-0.3-0.9-0.3c0,1-0.3,1.6,0.5,1.6c0.8,0,1.1,0.3,1.1,0.7
				c0,0.4-0.1,0.2-0.1,1c0,0.8-0.5,0.3,0,0.8c0.5,0.5-0.1,0.9,0.3,0.9c0.4,0-0.3,0,0.4,0c0.7,0,0.6,1.2,1.4,0.4
				c0.8-0.8,1.4-1.1,1.4-1.1s0.6,0.6,0.6,1.3c0,0.7-0.8-0.1,0,0.7c0.8,0.8,1.1,0.8,1.4,1c0.3,0.3,1.7,0,1.3,0.3
				c-0.4,0.4-0.7-0.3-0.7,0.8c0,1,0.7,1.2,0.4,1.5c-0.3,0.3-0.1,0.1-0.6,1.5c-0.5,1.4,0.2,0.7-0.5,1.4c-0.7,0.7-0.2,1.7-1.2,0.7
				c-1-1-1-1.7-1.5-1.1c-0.5,0.5-0.5,1.2-0.5,1.2s0.3,1.4-0.2,1.4c-0.5,0-0.8,0.1-0.8,0.5c0,0.4,0.6,0.8,0.6,0.8s-0.6-0.5,0.6,0.7
				c1.2,1.2,1.1,1,2,1c0.9,0,0.9-0.5,1.4,0c0.5,0.5,0.3,0.7,0.3,1.1c0,0.4-0.3,0.3-0.3,1c0,0.6,0.1,2.2-0.5,2.2
				c-0.6,0-0.1,0.8-1.6,0.1c-1.5-0.7-1.5,0-1.5-0.7c0-0.7-0.1-1,0.3-1.4c0.3-0.3,0.3-0.2,0.3-0.8c0-0.6,0.1-0.6-0.3-1
				c-0.4-0.4-1.2-0.5-1.2-0.5s0.8,0.4-0.7-0.1c-1.5-0.5-1.6-1.5-1.2-1.9c0.4-0.4,0.6-0.2,0.6-1c0-0.8,1.2-0.8,0-0.8
				c-1.2,0-0.3,1-1.2,0c-1-1-1.7-0.9-1.7-1.3c0-0.4,0,0.3,0-0.4c0-0.7-0.3-0.8-0.6-1.1c-0.4-0.3-0.4,0.2-0.4-0.3c0-0.5,0,0.6,0-0.5
				c0-1.1,0-0.5,0-1.1c0-0.6-0.6,0,0-0.6c0.6-0.6,0.4-0.2,1-0.8c0.6-0.6,1.2-1,0.7-1c-0.5,0,0.2,0-0.5,0c-0.7,0-1.1,0.3-1.1,0.3
				L46,22.2z"/>
			<path class="st60" d="M59,23.2c-0.8-0.8-0.9-0.5-0.9-1.3c0-0.8,0.5-0.3,0-0.8c-0.5-0.5-0.2-0.9-0.2-1.3c0-0.4-0.7-1.3,0.2-1.3
				c0.9,0,1,0.1,1.6,0.1c0.6,0-0.1-0.7,0.6,0c0.7,0.7,1.1,1.1,1.4,1.4c0.3,0.3,0.4,0.4,0.4,0.9c0,0.5,0.1,0.8-0.4,1.3
				c-0.5,0.5-0.4,0.6-0.4,1c0,0.4-0.2,0.5-0.6,0.5c-0.4,0-0.4,0-0.4,0L59,23.2z"/>
			<path class="st60" d="M59.3,25.6c-0.6,0.6-0.8,0.6-1.5,0.6c-0.7,0-0.7,0.7-0.7,0.7s0.3,0.5,0,0.8c-0.3,0.3-0.9,0.2-0.3,0.7
				c0.5,0.5,0.6,0.4,0.6,1c0,0.5,0,1,0.4,1.4c0.4,0.4,1,0.4,0.7,0.8c-0.3,0.4-0.3,0.9-0.3,0.9s-0.1,0.3,0.2,0.5
				c0.3,0.3,0.5,0.2,0.8,0.5c0.3,0.3,1.2,0.3,1.2,0.6c0,0.4-0.9,1.7-0.9,1.7l-0.4,0.1l-1.2-1c0,0-0.3,0-0.3,0.6
				c0,0.6-1.4,1.3,0.2,1.3c1.6,0,1.3,0.9,2,0.9c0.7,0,0.2,0.5,0.7,0c0.5-0.5,1-0.8,1-0.8c0-0.7-0.6-0.7,0-0.7c0.6,0,0.6,1.2,0.6,0
				c0-1.2-0.7-0.6,0-1.2c0.7-0.7,0.7,0.1,0.7-0.7c0-0.7,0.1-0.7,0.1-1.3s0.5,0,0-0.5c-0.5-0.5-1,0-0.5-0.5c0.5-0.5-0.1,0.1,0.5-0.5
				c0.6-0.6,0.8-0.5,0.8-1c0-0.5,0.5-0.5,0-1c-0.5-0.5-0.9,0.3-0.9-0.4c0-0.7,0.3-0.4,0-0.7c-0.3-0.3,1.2-0.4-0.3-1
				c-1.5-0.6-1.5-0.6-1.5-0.6s-0.3,0.6-0.3-0.5c0-1.1,0.6-1.1,0-1.1c-0.6,0-0.6,0-0.6,0L59.3,25.6z"/>
			<path class="st60" d="M42.1,52.8c0,0-0.5,0.4-0.5,0.9c0,0.4-0.2,0.9-0.2,1.3c0,0.4-1,1.6-1,0.5c0-1,0.4-2.2-0.4-3.1
				c-0.9-0.9-0.9-2-1.5-1.4c-0.6,0.6-0.9,1.1-0.9,1.1s-0.4,1-0.4,0.1c0-0.9,0-0.9,0-0.9s0.9,0,0.3-0.6c-0.7-0.7-1.2-0.7-1.2-1.1
				c0-0.4-0.6,0.1,0-0.4c0.6-0.6-0.6,0.6,0.6-0.6c1.1-1.1,1-2.2,1-2.2s0.6,0.2,1,0.7c0.5,0.5,0.9-0.2,1.3-0.2c0.4,0,0.3,0.1,1.1,0.1
				c0.9,0,2.6-1.3,2.6-1.3s0.3-0.4,0.3,0.4c0,0.9-0.5,1,0,1.5c0.5,0.5,1.7,0.6,1.7,0.6s0.2,0.4,0.2,1.7c0,1.2-0.4,1.5-0.7,1.5
				c-0.3,0-0.7,0.5-0.7,0.5c0,0.9-0.3,1-0.9,1c-0.6,0-0.2,0.4-0.6,0C42.7,52.3,42.1,52.8,42.1,52.8z"/>
			<path class="st60" d="M30.1,49.4c0.7,0,0.1-0.6,0.7,0c0.6,0.6,0.5,2.2,0.7,2.4c0.3,0.3,0.2,1.3-1.1,0c-1.3-1.3-1.3-1.3-1.3-1.3
				s-0.8,0-0.3-0.5c0.5-0.5,0.5-0.5,0.5-0.5L30.1,49.4z"/>
			<path class="st60" d="M42.4,11c0,0-0.3,0.3,0.4,0.3c0.7,0,0.7,0.5,0.7,0c0-0.5,0.5,0,0-0.5c-0.5-0.5,0.1-0.5-0.5-0.5
				c-0.6,0-0.6,0-0.6,0L42.4,11z"/>
			<path class="st60" d="M24.6,44.2c0,0-0.3-0.3,0.4-0.3c0.7,0,0.7-0.4,0.7,0c0,0.4,0.5,0,0,0.4c-0.5,0.4,0.1,0.4-0.5,0.4
				c-0.6,0-0.6,0-0.6,0L24.6,44.2z"/>
			<path class="st60" d="M43.7,31.7c0,0-0.5-0.4,0.8-0.4c1.3,0,1.3-0.6,1.3,0c0,0.6,0.9,0.1,0,0.6c-0.9,0.6,0.2,0.6-0.9,0.6
				c-1,0-1,0-1,0L43.7,31.7z"/>
			<path class="st60" d="M18.5,39.4c0.6,0.6,1,0.5,1,0.5s0.3,0.3,0.3-0.5c0-0.9,0.6-0.3,0-0.9c-0.6-0.6-0.1-0.1-0.6-0.6
				c-0.4-0.4-0.8,0-0.8,0l-0.1,0.9"/>
			<path class="st60" d="M36.3,11.8c0.5,0,0.5-0.4,0.5-0.4s-0.1-0.4-0.4-0.4c-0.3,0,0.2-0.6-0.3,0c-0.6,0.6-1,0.3-1,0.3l0.4,0.2
				L36.3,11.8z"/>
			<path class="st60" d="M50.9,51.1c0.5,0,0.5-0.4,0.5-0.4s-0.1-0.4-0.4-0.4c-0.3,0,0.2-0.6-0.3,0c-0.6,0.6-1,0.3-1,0.3l0.4,0.2
				L50.9,51.1z"/>
			<path class="st60" d="M63.6,24.4c-0.3,0.3-0.3-0.3-0.3,0.3c0,0.6,0,0,0,0.6c0,0.6,0,0,0,0.6c0,0.6,0,0.6,0,0.6l0.7-0.5
				c0,0-0.1-0.3-0.1-0.8c0-0.5,0-0.5,0-0.5l0.1-0.5L63.6,24V24.4z"/>
			<path class="st59" d="M24.1,31.5c0-1,0-0.2,0-1c0-0.8,0-0.8,0-0.8s-0.6,0,0,0c0.6,0,1-0.3,1,0.1c0,0.4,0.2,0.4,0.8,1
				c0.6,0.6,1.2,0.3,1.2,0.3c-0.7,0.2-0.2-0.3-0.7,0.2c-0.5,0.5-0.3,0.5-0.3,1.1c0,0.6,0.9,0.6,0,0.6c-0.9,0-0.9,0.4-1.4-0.1
				c-0.5-0.5,0-0.5-0.5-0.5C23.8,32.4,24,32,24,32L24.1,31.5z"/>
			<path class="st59" d="M41.4,49.4c0.4,0,0.8,0.4,0.8,0.9c0,0.4,0.3,0.1,0,0.4c-0.3,0.3,1.2,0.7-0.3,0.3c-1.5-0.4-1.7,0.1-2-0.3
				c-0.3-0.3-0.2-0.7-0.2-0.7l0.4-0.4l0.9-0.3"/>
			<path class="st59" d="M28.9,22.7c0,0.8-0.7,0.1,0,0.8c0.7,0.7,0.7,1,1.2,0.5c0.5-0.5,0.2-0.2,0.5-0.5c0.3-0.3,0,0,0.3-0.3
				c0.3-0.3,0.3-0.7,0.3-0.7L30.8,22l-0.6-0.5l-1-0.2c0,0-0.2,0.1-0.4,0.4C28.5,22,28.9,22.7,28.9,22.7z"/>
		</g>
	</g>
</g>
</svg>
