<?xml version="1.0" encoding="utf-8"?>
<!-- Generator: Adobe Illustrator 19.1.0, SVG Export Plug-In . SVG Version: 6.00 Build 0)  -->
<svg version="1.1" id="Layer_1" xmlns="http://www.w3.org/2000/svg" xmlns:xlink="http://www.w3.org/1999/xlink" x="0px" y="0px"
	 viewBox="-247 339.5 115.5 115.5" style="enable-background:new -247 339.5 115.5 115.5;" xml:space="preserve">
<style type="text/css">
	.st0{fill:url(#SVGID_1_);}
	.st1{fill:url(#SVGID_2_);}
	.st2{fill:#231F20;}
	.st3{fill:url(#SVGID_3_);}
	.st4{fill:url(#SVGID_4_);}
	.st5{fill:url(#SVGID_5_);}
	.st6{fill:url(#SVGID_6_);}
	.st7{fill:url(#SVGID_7_);}
	.st8{fill:url(#SVGID_8_);}
	.st9{fill:url(#SVGID_9_);}
</style>
<g id="Layer_1_1_">
</g>
<g>
	<g id="Layer_2_1_">
		<g>
			
				<linearGradient id="SVGID_1_" gradientUnits="userSpaceOnUse" x1="-188.9671" y1="421" x2="-188.9671" y2="354.5995" gradientTransform="matrix(1 0 0 1 0 10)">
				<stop  offset="0" style="stop-color:#FBB840"/>
				<stop  offset="0.3655" style="stop-color:#FDD223"/>
				<stop  offset="0.7614" style="stop-color:#FEE909"/>
				<stop  offset="1" style="stop-color:#FFF200"/>
			</linearGradient>
			<path class="st0" d="M-155.8,397.8c0,18.3-14.9,33.2-33.2,33.2s-33.2-14.9-33.2-33.2c0-18.3,14.9-33.2,33.2-33.2
				C-170.7,364.5-155.8,379.4-155.8,397.8z"/>
			
				<radialGradient id="SVGID_2_" cx="-190.4525" cy="387.5948" r="30.1196" fx="-190.665" fy="387.3312" gradientTransform="matrix(1 0 0 1 0 10)" gradientUnits="userSpaceOnUse">
				<stop  offset="0" style="stop-color:#76CDD2"/>
				<stop  offset="5.389047e-02" style="stop-color:#40C2CD"/>
				<stop  offset="0.109" style="stop-color:#7CC1D1"/>
				<stop  offset="0.5938" style="stop-color:#5EACC8"/>
				<stop  offset="0.66" style="stop-color:#4C98C0"/>
				<stop  offset="0.7404" style="stop-color:#3D86BA"/>
				<stop  offset="0.8277" style="stop-color:#347CB6"/>
				<stop  offset="0.9335" style="stop-color:#3179B5"/>
				<stop  offset="0.9354" style="stop-color:#3779B6"/>
				<stop  offset="0.9427" style="stop-color:#4878B7"/>
				<stop  offset="0.9518" style="stop-color:#5378B8"/>
				<stop  offset="0.9646" style="stop-color:#5A78B9"/>
				<stop  offset="1" style="stop-color:#5C78B9"/>
			</radialGradient>
			<path class="st1" d="M-155.8,397.8c0,18.3-14.9,33.2-33.2,33.2s-33.2-14.9-33.2-33.2c0-18.3,14.9-33.2,33.2-33.2
				C-170.7,364.5-155.8,379.4-155.8,397.8z"/>
		</g>
	</g>
	<g>
		<path class="st2" d="M-178,411.9c0.7,0,1.1,0.6,1.1,1.2c0,0.8-0.5,1.2-1.1,1.2c-0.6,0-1-0.4-1-1.2
			C-179.1,412.3-178.6,411.9-178,411.9L-178,411.9z M-178,412.3c-0.3,0-0.6,0.3-0.6,0.8c0,0.5,0.2,0.8,0.6,0.8
			c0.4,0,0.6-0.3,0.6-0.8C-177.5,412.6-177.6,412.3-178,412.3L-178,412.3z"/>
		<path class="st2" d="M-173.3,411.9c0.1,0,0.3,0,0.3,0.1c0,0-0.4,1-0.5,1c-0.1,0-0.3-0.3-0.9-0.3c-0.4,0-0.9,0.3-0.9,0.9
			c0,0.4,0,0.5,0.2,0.5c0.4,0,0.5-0.3,1.3-0.3c0.1,0,0.2,0,0.2,0.1c0,0-0.3,1-0.4,1c-0.1,0-0.2-0.1-0.5-0.1c-0.6,0-0.9,0.3-0.9,0.9
			c0,0.6,0.3,1.5,0.3,1.5c0,0.1-0.2,0.1-0.2,0.1h-0.8c-0.2,0-0.4,0.1-0.4-2.3c0-3.2,0.3-3.1,0.4-3.1H-173.3z"/>
	</g>
	<g>
		<g>
			<g>
				<linearGradient id="SVGID_3_" gradientUnits="userSpaceOnUse" x1="-192.6924" y1="397.1191" x2="-185.2415" y2="397.1191">
					<stop  offset="0" style="stop-color:#E3EFF5"/>
					<stop  offset="0.1758" style="stop-color:#F4FAFD"/>
					<stop  offset="0.4088" style="stop-color:#E5F0F6"/>
					<stop  offset="0.6898" style="stop-color:#DAE9F2"/>
					<stop  offset="1" style="stop-color:#D6E7F0"/>
				</linearGradient>
				<path class="st3" d="M-185.3,403.6v-26.5c0-2-1.6-3.6-3.6-3.6c-2,0-3.6,1.6-3.6,3.6l0.1,26.5c0,3.8-4.4,5.4-4.4,9.1
					c0,4.4,3.6,8,8,8c4.4,0,8-3.6,8-8C-181,408.9-185.3,407.7-185.3,403.6z"/>
				<radialGradient id="SVGID_4_" cx="-188.9849" cy="397.7754" r="23.1055" gradientUnits="userSpaceOnUse">
					<stop  offset="0" style="stop-color:#44AADF"/>
					<stop  offset="0.2257" style="stop-color:#43A7DD"/>
					<stop  offset="0.4057" style="stop-color:#419DD6"/>
					<stop  offset="0.57" style="stop-color:#3D8CCB"/>
					<stop  offset="0.725" style="stop-color:#3874BC"/>
					<stop  offset="0.8719" style="stop-color:#3156A8"/>
					<stop  offset="1" style="stop-color:#2A3592"/>
				</radialGradient>
				<path class="st4" d="M-189,400.7c-1.3,0-2.5-0.3-3.6-0.8l0,3.7c0,3.8-4.4,5.4-4.4,9.1c0,4.4,3.6,8,8,8c4.4,0,8-3.6,8-8
					c0-3.9-4.3-5-4.3-9.1v-3.7C-186.4,400.4-187.7,400.7-189,400.7z"/>
				<g>
					<linearGradient id="SVGID_5_" gradientUnits="userSpaceOnUse" x1="-195.9406" y1="412.1534" x2="-194.9102" y2="412.1534">
						<stop  offset="0" style="stop-color:#E3EFF5"/>
						<stop  offset="0.1758" style="stop-color:#F4FAFD"/>
						<stop  offset="0.4088" style="stop-color:#E5F0F6"/>
						<stop  offset="0.6898" style="stop-color:#DAE9F2"/>
						<stop  offset="1" style="stop-color:#D6E7F0"/>
					</linearGradient>
					<path class="st5" d="M-195,414c-0.6-0.5-1-1.5-1-1.7c0-0.1,0.1-1.1,0.8-2.1l0.2,0.5C-195.3,411.6-195.4,412.7-195,414z"/>
					<linearGradient id="SVGID_6_" gradientUnits="userSpaceOnUse" x1="-194.9736" y1="409.5928" x2="-193.1982" y2="409.5928">
						<stop  offset="0" style="stop-color:#E3EFF5"/>
						<stop  offset="0.1758" style="stop-color:#F4FAFD"/>
						<stop  offset="0.4088" style="stop-color:#E5F0F6"/>
						<stop  offset="0.6898" style="stop-color:#DAE9F2"/>
						<stop  offset="1" style="stop-color:#D6E7F0"/>
					</linearGradient>
					<path class="st6" d="M-193.2,408.7c0,0-1,0.6-1.6,1.8l-0.2-0.5C-194.6,409.5-194,409-193.2,408.7z"/>
				</g>
				<g>
					
						<linearGradient id="SVGID_7_" gradientUnits="userSpaceOnUse" x1="-138.2533" y1="617.8214" x2="-136.0889" y2="617.8214" gradientTransform="matrix(0.9879 0.1548 -0.1548 0.9879 48.5665 -174.2355)">
						<stop  offset="0" style="stop-color:#E3EFF5"/>
						<stop  offset="0.1758" style="stop-color:#F4FAFD"/>
						<stop  offset="0.4088" style="stop-color:#E5F0F6"/>
						<stop  offset="0.6898" style="stop-color:#DAE9F2"/>
						<stop  offset="1" style="stop-color:#D6E7F0"/>
					</linearGradient>
					<path class="st7" d="M-183.9,416.2c0.8,0,1.8-0.5,1.9-0.6c0.1-0.1,0.6-0.9,0.8-2.1l-0.5,0.2
						C-182.1,414.6-182.7,415.5-183.9,416.2z"/>
					
						<linearGradient id="SVGID_8_" gradientUnits="userSpaceOnUse" x1="-136.9277" y1="615.0787" x2="-136.1088" y2="615.0787" gradientTransform="matrix(0.9879 0.1548 -0.1548 0.9879 48.5665 -174.2355)">
						<stop  offset="0" style="stop-color:#E3EFF5"/>
						<stop  offset="0.1758" style="stop-color:#F4FAFD"/>
						<stop  offset="0.4088" style="stop-color:#E5F0F6"/>
						<stop  offset="0.6898" style="stop-color:#DAE9F2"/>
						<stop  offset="1" style="stop-color:#D6E7F0"/>
					</linearGradient>
					<path class="st8" d="M-181.7,411.1c0,0,0.3,1.1,0,2.4l0.5-0.2C-181.2,412.5-181.3,411.8-181.7,411.1z"/>
				</g>
			</g>
			<linearGradient id="SVGID_9_" gradientUnits="userSpaceOnUse" x1="-192.5488" y1="392.9482" x2="-185.3374" y2="392.9482">
				<stop  offset="0" style="stop-color:#D1D1D6"/>
				<stop  offset="5.565168e-02" style="stop-color:#D4D4D9"/>
				<stop  offset="0.1038" style="stop-color:#DFDFE2"/>
				<stop  offset="0.149" style="stop-color:#F1F1F2"/>
				<stop  offset="0.1756" style="stop-color:#FFFFFF"/>
				<stop  offset="1" style="stop-color:#231F20"/>
			</linearGradient>
			<path class="st9" d="M-191.6,392.7c-0.3-0.1-0.6-0.2-0.8-0.3c-0.1,0-0.1-0.1-0.2-0.1l0,0.6c0.6,0.2,1.9,0.7,3.6,0.7c0,0,0,0,0,0
				c1.1,0,2.3-0.2,3.6-0.7v-0.6c-1.3,0.6-2.5,0.8-3.6,0.8C-190,393.1-190.9,392.9-191.6,392.7z"/>
		</g>
	</g>
</g>
</svg>
