<?xml version="1.0" encoding="utf-8"?>
<!-- Generator: Adobe Illustrator 19.1.0, SVG Export Plug-In . SVG Version: 6.00 Build 0)  -->
<svg version="1.1" xmlns="http://www.w3.org/2000/svg" xmlns:xlink="http://www.w3.org/1999/xlink" x="0px" y="0px"
	 viewBox="0 0 177.8 163.8" style="enable-background:new 0 0 177.8 163.8;" xml:space="preserve">
<style type="text/css">
	.st0{fill:#268AA8;}
	.st1{fill:#DEDDDD;}
	.st2{fill:#FFFCFC;}
	.st3{fill:#8BFAFF;}
	.st4{fill:#211D1C;}
</style>
<g id="background">
</g>
<g id="objects">
	<g>
		<path class="st0" d="M14.3,21.6c0,0-3.1,0-0.5,6.9c2.6,6.9,9.2,23.1,10,25.9c0.8,2.8,0.8,4.6-1.3,3.8c-2-0.8-7.4-12.6-11-16.9
			S5,38,4.3,42.3s3.3,23.3,7.4,29.5c4.1,6.1,12.6,20.2,14.9,25.1c2.3,4.9,8.2,15.4,10,19.2c1.8,3.8,3.3,12,6.7,14.6
			c3.3,2.6,10.5,4.9,21.5,0.3c11-4.6,14.9-10.2,17.7-13.1c2.8-2.8,3.6-6.9,3.6-6.9s-5.4-5.9-6.7-12.8c-1.3-6.9,1-23.3,2.8-27.7
			c1.8-4.4,5.6-16.6,5.9-21.8s0.3-11.3-2.6-11.5s-5.1,1-7.7,4.1c-2.6,3.1-7.9,13.8-7.9,13.8s-1.3-22-1-27.1
			c0.3-5.1,0.5-16.1-3.3-19.5c-3.8-3.3-5.1-4.9-7.4-1.5c-2.3,3.3-1.8,10.2-1.8,14.1c0,3.8,0.3,20.7-2,20c-2.3-0.8-2.6-3.8-4.1-8.2
			c-1.5-4.4-7.7-20.7-10-23.6C37.8,6.5,35.5,6,34.2,8c-1.3,2-2.8,8.5-1.3,12.6c1.5,4.1,5.9,17.9,5.9,21.5c0,3.6,1.5,11-0.8,7.9
			c-2.3-3.1-13.6-22.3-15.6-25.1C20.4,22.1,17.6,19,14.3,21.6z"/>
		<path class="st0" d="M89.8,68.7c0,0-3.1,3.6-2,7.9c1,4.4,7.7,22.3,10,27.7c2.3,5.4,4.4,12.3,4.9,18.2c0.5,5.9-0.3,10.5-1.8,13.3
			c-1.5,2.8-2.8,6.7-2.8,6.7s9.7,12.8,18.7,15.4c9,2.6,17.2,2.6,21.3,1.3s6.1-4.9,6.1-4.9s2.3-13.1,6.1-20.2
			c3.8-7.2,12.6-28.2,14.9-34.3c2.3-6.1,6.4-23.3,6.1-30c-0.3-6.7,0-10.5-3.3-10.5c-3.3,0-3.6,1.5-5.9,5.9
			c-2.3,4.4-3.8,13.6-6.4,15.4c-2.6,1.8-4.1,2-3.1-2c1-4.1,5.4-16.1,6.7-20c1.3-3.8,2.6-12.6-0.3-14.1c-2.8-1.5-5.1-1.5-7.2,2.3
			c-2,3.8-5.6,14.1-7.2,17.2c-1.5,3.1-5.6,12-6.4,10c-0.8-2-1.3-14.6,0-22c1.3-7.4,2.6-17.9-0.8-19c-3.3-1-6.4,1-7.7,4.6
			c-1.3,3.6-3.3,13.1-3.8,17.2c-0.5,4.1-0.8,11-3.1,12.3c-2.3,1.3-2.8-3.1-4.1-10.8c-1.3-7.7-2.6-20.2-5.9-21.3
			c-3.3-1-5.4-0.8-6.7,3.6c-1.3,4.4-0.8,15.6-0.3,20.2c0.5,4.6,1.8,18.4,1.5,20.7c-0.3,2.3,0,5.6,0,5.6s-7.9-13.1-12-15.9
			C91.4,66.4,89.8,68.7,89.8,68.7z"/>
		<path class="st1" d="M41.7,127.8c-2.2-4.6-4-9.4-5.6-14.3c2.9,0.2,5.8,0.3,8.8,0.5c3.2,0.2,6.5,0.3,9.7-0.2c3.4-0.6,6.7-2,9.8-3.6
			c5.3-2.7,10.4-6.1,14.9-9.9c1.9,2.6,3.5,5.5,4.6,8.5c-1.4-1.3-3.4-1.7-5.3-1.5c-1.9,0.2-3.6,1-5.3,1.8c-5.8,2.8-11.3,6.1-17.4,8.1
			c-3,1-6.1,1.6-8.8,3.2c-2.7,1.6-5,4.3-5,7.5"/>
		<path class="st1" d="M98,140.9c1.6-0.9,2.9-2.3,4.6-3c2-0.8,4.2-0.7,6.3-0.1c2,0.6,3.9,1.6,5.9,2.5c5.9,2.7,12.4,4.1,18.9,4.2
			c1.9,0,3.9-0.1,5.6,0.7c3.6,1.5,5.1,6,4.5,9.8c1.1-5.8,2.7-11.4,4.6-16.9c-2.3,0.4-4.6,0.9-7,1.3c-2.5,0.5-4.9,0.9-7.4,1
			c-5.6,0.3-12.7-0.9-17.9-3.1c-5.2-2.2-9.4-4.6-13.2-8.2c0.3,1.9-0.6,3.7-1.4,5.4c-1.1,2.1-2.2,4.2-3.3,6.4"/>
		<path class="st2" d="M19.1,85.1l2.9-9.9l13.3,6.5l6.4-14l13.3,7.7l9-13.1c0,0,4.6,0.8,7.9,4c3.3,3.2,9.7,7,9.7,7l-1.3,4.1l-15-7.9
			l-7.3,12.7L44,75.6l-4.9,12.6l-14-6.4l-1.9,9.7L19.1,85.1z"/>
		<path class="st3" d="M31.3,68.8c-0.7-1.1-2.1-1.2-3-0.5c-0.1,0-0.2,0.1-0.3,0.1c-1,0.6-0.9,2-0.1,2.7c0.1,0.1,0.2,0.2,0.3,0.2
			c0.3,0.3,0.6,0.4,1,0.5c0.3,0.1,0.5,0.1,0.8,0c0.3-0.1,0.6-0.2,0.8-0.4C31.6,70.8,31.9,69.8,31.3,68.8z"/>
		<path class="st3" d="M55.5,63.3c-0.2-0.7-0.8-1.2-1.4-1.4c-0.5-0.3-1.2-0.4-1.7-0.1c-0.2,0.1-0.3,0.2-0.4,0.3
			c-0.6-0.1-1.2,0.3-1.4,0.9c-0.2,0.6-0.1,1.2,0.2,1.7c0.1,0.3,0.3,0.7,0.6,0.9c0.4,0.3,0.9,0.4,1.3,0.3c0.2,0,0.3,0.1,0.5,0.1
			C54.6,66.2,56,64.9,55.5,63.3z"/>
		<path class="st3" d="M79.9,62.4c-0.3-1.2-2-1.6-2.7-0.5c0,0,0,0,0,0c-0.8,0.8-0.4,2.3,0.8,2.5C79.2,64.7,80.2,63.6,79.9,62.4z"/>
		<path class="st3" d="M70.5,78.4c0-0.1-0.1-0.1-0.1-0.2c-0.2-0.5-0.7-0.9-1.2-1c-0.9-0.2-2,0.3-2.5,1.1c-0.6,0.9-0.3,2.1,0.7,2.7
			c0.8,0.4,1.8,0.4,2.5-0.1C70.5,80.3,70.9,79.2,70.5,78.4z"/>
		<path class="st3" d="M49,83c-1.2-0.2-2.4,0.7-2.6,2c-0.1,1.2,1.1,2.6,2.4,2.1c0.1,0,0.3-0.1,0.4-0.2c0.8,0,1.4-0.7,1.6-1.5
			C51,84.2,50.1,83.2,49,83z"/>
		<path class="st3" d="M31.1,89.2c-0.6-0.9-1.7-0.9-2.5-0.4c-0.1,0.1-0.3,0.2-0.4,0.3c-0.2,0.1-0.4,0.1-0.6,0.3
			c-1.7,1.2-0.4,3.7,1.4,3.6C30.8,93,32.1,90.7,31.1,89.2z"/>
		<path class="st3" d="M101.5,92.6c0-0.4-0.1-0.7-0.2-1c-0.1-0.3-0.4-0.7-0.8-0.8c-1.1-0.2-2.6,0.2-2.6,1.6c0,1.5,2.1,2.2,3,1
			C101.3,93.3,101.5,93,101.5,92.6z"/>
		<path class="st3" d="M124.7,88.2c-1.7,0.1-3.1,1.9-2.2,3.6c0.8,1.4,2.9,2.1,4.3,1.2c0.6-0.4,0.9-1,0.9-1.6
			c0.1-0.1,0.3-0.2,0.3-0.4C128.3,89.4,126.2,88.1,124.7,88.2z"/>
		<path class="st3" d="M150.6,92.6c-0.2-0.1-0.5-0.1-0.7-0.2c-1.3-0.5-3.1,0.3-2.7,1.9c0,0.2,0.1,0.3,0.3,0.4c0,0.1,0,0.1,0,0.2
			c0.2,0.8,1,1.3,1.8,1.3c1,0,1.6-0.6,1.8-1.4C151.9,94.1,151.4,93,150.6,92.6z"/>
		<path class="st3" d="M154.2,114.5c0-0.9-0.5-1.7-1.4-2c-1.3-0.4-2.6,0.5-2.7,1.8c-0.1,1.4,1,2.5,2.4,2.3c0.7-0.1,1.2-0.5,1.5-1.1
			C154.2,115.2,154.2,114.8,154.2,114.5z"/>
		<path class="st3" d="M131.7,108.8c-1.3,0.1-2.3,1.4-2,2.7c0.2,0.9,1.1,1.5,2,1.5c0.1,0,0.1,0.1,0.2,0.1c1.2,0.2,2.2-0.9,2.1-2.2
			C134,109.7,132.9,108.8,131.7,108.8z"/>
		<path class="st3" d="M113.7,106.1c-0.4-0.4-1-0.6-1.6-0.6c-0.2,0-0.3,0.1-0.5,0.1c-0.9,0-1.6,1-1.5,1.9c0.1,1.4,1.7,2.4,3,1.7
			C114.2,108.7,114.6,107.1,113.7,106.1z"/>
		<path class="st2" d="M97.8,103.2l1.9,5c0,0,13.3-10.5,14-10.2c0.6,0.3,8.8,11.7,8.8,11.7s12.2-8.6,13.1-7.9
			c0.9,0.6,6.8,11.5,6.8,11.5l13.1-8.1l2.8,9.2l2.7-7.2c0,0-2.9-8.7-3.5-8.7c-0.5,0-5.9,3.6-7.4,4.9c-1.5,1.3-4.9,3.1-4.9,3.1
			s-7.2-12.9-8.1-12.8c-0.9,0.1-7.8,5.6-9.1,6.4c-1.3,0.8-3.3,2-3.3,2s-8.8-11.3-10-11.4c-1.2-0.1-5.8,2.6-6.9,3.8
			C106.6,95.7,97.8,103.2,97.8,103.2z"/>
		<g>
			<g>
				<g>
					<path class="st4" d="M79.5,37.8c-5.1,5-10.3,12.6-11,19.9c-0.1,0.8,1.2,1.1,1.6,0.4c1.5-3.1,2.4-6.5,4.1-9.5
						c1.9-3.4,4.2-6.5,6.9-9.2C82.2,38.4,80.6,36.8,79.5,37.8L79.5,37.8z"/>
				</g>
			</g>
			<g>
				<g>
					<path class="st4" d="M88.1,38.8c-0.9-1.4-2.2-2.4-3.8-2.7c-1.8-0.3-3.4,0.6-4.8,1.7c-1.1,1,0.5,2.6,1.6,1.6
						c1.7-1.5,3.7-1.5,5,0.5C87,41.1,88.9,40,88.1,38.8L88.1,38.8z"/>
				</g>
			</g>
			<g>
				<g>
					<path class="st4" d="M85.4,109.8c-7.5-11.6-5.9-24.3-2.3-37c1.8-6.3,4-12.5,5.2-18.9c0.9-4.6,2.2-10.8-0.2-15.1
						c-0.7-1.3-2.7-0.1-2,1.2c3.5,6.2-0.7,17.4-2.5,23.7c-1.8,6.2-4,12.4-5,18.9c-1.3,9.3-0.7,20.6,6.4,27.5
						C85.3,110.2,85.6,110,85.4,109.8L85.4,109.8z"/>
				</g>
			</g>
			<g>
				<g>
					<path class="st4" d="M70.2,57.4c1.2-10.2-0.5-21.4-1-31.7c-0.3-6,0.4-16.6-5.7-20.3c-4.4-2.7-7.7,0.8-8.3,5.1
						C53.8,20.4,54,31,53.6,41c-0.1,1.4,2.1,1.4,2.2,0c0.5-6.8,1-13.7,1.4-20.5c0.2-3.1-0.2-6.8,0.6-9.8c0-2.7,2-3.1,6.2-1.2
						c0.4,0.9,0.8,1.8,1.2,2.7c0.7,2,1,4.2,1.2,6.3c0.7,6.4,0.9,12.8,1.4,19.2c0.5,6.5,0.4,13.5,2,19.9
						C69.9,57.7,70.2,57.6,70.2,57.4L70.2,57.4z"/>
				</g>
			</g>
			<g>
				<g>
					<path class="st4" d="M32.8,7.5c-4.4,5.6-0.6,13.3,1,19.3c2.1,7.7,3.8,15.2,3.9,23.3c0,1.4,1.9,1.3,2.1,0
						c0.6-5.4-0.4-10.9-1.6-16.2c-0.7-3.2-1.6-6.3-2.4-9.4c-1.2-4.3-4.3-11.2-1.1-15.2C35.6,8.1,33.8,6.3,32.8,7.5L32.8,7.5z"/>
				</g>
			</g>
			<g>
				<g>
					<path class="st4" d="M54.7,40.4c-3.1,0.5-5.4-13.6-6.1-15.9c-1.3-4.2-2.9-8.4-4.9-12.3c-2.1-4.2-6.4-8.7-11-4.7
						c-1,0.9,0.3,2.7,1.5,1.9C41.5,4.4,48,29.2,49.2,34c0.7,2.8,1.4,9.9,6,7.5C55.8,41.2,55.3,40.4,54.7,40.4L54.7,40.4z"/>
				</g>
			</g>
			<g>
				<g>
					<path class="st4" d="M12.7,21.4c-2.4,4.4,1.4,12.1,3.1,16c2.9,6.9,6.2,13.4,7.6,20.8c0.3-0.4,0.7-0.9,1-1.3
						c-4.6,0.4-8.6-12.9-10.9-16c-1.5-2-4.3-5.6-7.3-4.2c-5.6,2.7-2.1,16.1-1.1,20C7.9,68.5,14.6,79,20.5,89.4
						c7.4,13,15.5,25.8,20.7,40c0.3,0.9,1.9,0.6,1.5-0.4c-7.1-22-21.6-40.2-31.2-61c-2.3-5-4.1-10.2-5-15.6c-0.4-2.5-2-9.2-0.2-11.7
						c3.6-5,9.5,9.1,10.7,11.4c1.5,3,3.5,7.3,7.4,7.1c0.7,0,1.1-0.6,1-1.3c-0.8-5.3-2.7-10.2-4.9-15.1c-1.3-2.9-2.7-5.8-3.8-8.8
						c-1-2.6-3.5-8.7-2-11.2C15.5,21.3,13.4,20.1,12.7,21.4L12.7,21.4z"/>
				</g>
			</g>
			<g>
				<g>
					<path class="st4" d="M38.9,49.1c-5.6-5.2-9.3-13.7-12.9-20.3c-2.3-4.2-7.3-13.8-13.1-7.6c-1,1.1,0.6,2.7,1.6,1.6
						c4.3-4.3,7.9,4.2,9.5,7.1c1.7,3,3.5,6,5.3,8.9c2.4,3.9,4.8,8.5,8.3,11.6C38.4,51.2,39.8,49.9,38.9,49.1L38.9,49.1z"/>
				</g>
			</g>
			<g>
				<g>
					<path class="st4" d="M35.2,114.5c15.2,4.7,34.3-2.8,45.3-13.5c0.9-0.9-0.5-2.3-1.4-1.4c-6.2,5.6-12.9,9.6-20.9,11.8
						c-7.7,2.1-14.9,1.7-22.7,1.4C34.4,112.8,34.3,114.2,35.2,114.5L35.2,114.5z"/>
				</g>
			</g>
			<g>
				<g>
					<path class="st4" d="M41.6,129.1c2.7,7.6,17.2,5.3,22.8,3.2c9.6-3.7,20.1-10.7,22.6-21.2c0.3-1.3-1.5-1.8-2-0.5
						c-5.2,14.6-28.4,29.6-42.7,18.2C42,128.4,41.4,128.7,41.6,129.1L41.6,129.1z"/>
				</g>
			</g>
			<g>
				<g>
					<path class="st4" d="M64.1,63.2c3-0.1,7,3.7,9.4,5.3c2.6,1.8,5.2,3.7,7.8,5.5c0.8,0.5,1.5-0.7,0.7-1.3
						c-3.2-2.5-6.5-4.7-9.9-6.9c-2.4-1.5-5.1-4-8-4C63.2,61.9,63.2,63.2,64.1,63.2L64.1,63.2z"/>
				</g>
			</g>
			<g>
				<g>
					<path class="st4" d="M55.6,75.9c1.3-2.2,2.7-4.3,4.1-6.5c1.2-1.9,2.6-5.3,4.7-6.3c0.8-0.4,0.1-1.5-0.7-1.1
						c-2,0.9-3,3.3-4.1,5.1c-1.7,2.7-3.5,5.4-5.3,8.1C53.9,75.9,55.2,76.7,55.6,75.9L55.6,75.9z"/>
				</g>
			</g>
			<g>
				<g>
					<path class="st4" d="M42,68.7c0,0,6.1,3.3,6.6,3.6c2.1,1.2,4.1,2.5,6,3.9c0.7,0.5,1.5-0.7,0.7-1.2c-4.2-3-8.7-5.4-13.5-7.3
						c-0.2-0.1-0.5,0.1-0.6,0.3c-0.1,0.1-0.1,0.2-0.2,0.2C40.7,68.7,41.6,69.3,42,68.7L42,68.7z"/>
				</g>
			</g>
			<g>
				<g>
					<path class="st4" d="M35.7,82.3c1.6-4.8,3.7-9.3,6.3-13.6c0.4-0.6-0.6-1.2-1-0.6c-2.7,4.4-4.9,9-6.5,13.9
						C34.3,82.7,35.5,83.1,35.7,82.3L35.7,82.3z"/>
				</g>
			</g>
			<g>
				<g>
					<path class="st4" d="M21.8,75.9c4.5,2.1,8.8,4.2,13,6.8c0.7,0.4,1.3-0.6,0.6-1.1c-4.2-2.6-8.6-5-13.3-6.6
						C21.6,74.8,21.3,75.7,21.8,75.9L21.8,75.9z"/>
				</g>
			</g>
			<g>
				<g>
					<path class="st4" d="M19.7,86.4c0.9-3.6,1.6-7.3,2.8-10.8c0.2-0.6-0.7-0.8-0.9-0.3c-1.2,3.5-2.3,7.3-2.2,11
						C19.3,86.6,19.6,86.6,19.7,86.4L19.7,86.4z"/>
				</g>
			</g>
			<g>
				<g>
					<path class="st4" d="M64.9,69.9c4.8,2.8,9.6,5.6,14.4,8.3c0.8,0.5,1.5-0.8,0.7-1.3c-4.8-2.8-9.6-5.5-14.5-8.2
						C64.8,68.3,64.1,69.4,64.9,69.9L64.9,69.9z"/>
				</g>
			</g>
			<g>
				<g>
					<path class="st4" d="M57.4,83.2c0,0,0.1,0,0.1,0.1c0.3,0.2,0.8,0.1,1-0.3c2.3-4.5,4.8-8.9,7.3-13.4c0.4-0.8-0.7-1.4-1.2-0.7
						c-2.4,4.4-4.8,8.9-7.4,13.3c0.3-0.1,0.7-0.2,1-0.3c0,0-0.1,0-0.1-0.1C57.3,81.4,56.6,82.7,57.4,83.2L57.4,83.2z"/>
				</g>
			</g>
			<g>
				<g>
					<path class="st4" d="M43.8,76.1c4.6,2.2,9.1,4.7,13.6,7.1c0.8,0.4,1.6-0.8,0.7-1.3c-4.4-2.6-9.1-4.7-13.7-6.9
						C43.7,74.6,43.1,75.7,43.8,76.1L43.8,76.1z"/>
				</g>
			</g>
			<g>
				<g>
					<path class="st4" d="M38.6,88.6c0.1,0,0.1,0,0.2,0.1c0.3,0.1,0.7-0.1,0.8-0.4c1.4-4.3,3.1-8.4,5.1-12.4
						c0.4-0.7-0.7-1.4-1.1-0.7c-2.1,4.1-3.8,8.3-5.2,12.7c0.3-0.1,0.5-0.3,0.8-0.4c-0.1,0-0.1,0-0.2-0.1
						C38.2,87.1,37.8,88.4,38.6,88.6L38.6,88.6z"/>
				</g>
			</g>
			<g>
				<g>
					<path class="st4" d="M23.2,91.8c0.7-2.2,1.1-4.5,1.6-6.7c0.6-3,0.6-2.6,3.2-1.1c3.4,1.9,6.9,3.4,10.6,4.6
						c0.8,0.3,1.1-1,0.3-1.2c-4.8-1.5-9.4-3.6-13.7-6.2c-0.3-0.2-0.7,0-0.7,0.3c-0.7,3.4-1.6,6.9-1.8,10.3
						C22.7,92.1,23.2,92.1,23.2,91.8L23.2,91.8z"/>
				</g>
			</g>
			<g>
				<g>
					<path class="st4" d="M53.9,61.4c-1.5-0.6-3.2,0.2-3.6,1.7c-0.5,1.6,0.6,3.4,2.2,3.7c1.6,0.3,3.3-0.9,3.5-2.6
						c0.1-1.2-1.2-3.9-2.7-3c-0.1,0.1-0.2,0.2-0.1,0.3c0.5,0.7,1.4,0.9,1.7,1.9c0.3,1.3-0.8,2.5-2.1,2.4c-1.1-0.1-1.9-1.2-1.8-2.3
						c0.2-1.2,1.6-2,2.7-1.7C54,61.9,54.1,61.5,53.9,61.4L53.9,61.4z"/>
				</g>
			</g>
			<g>
				<g>
					<path class="st4" d="M29.4,68c-1.3-0.4-2.6,0.6-2.5,2.1c0.1,1.5,1.7,2.6,3.1,2.3c1.4-0.2,2.7-1.5,2.3-3
						c-0.3-1.1-2.2-2.9-3.2-1.6C29,68,29,68.4,29.3,68.4c0.8,0.2,1.5,0,2,0.9c0.5,0.9-0.2,2-1.1,2.2c-0.9,0.3-1.9-0.1-2.3-0.9
						c-0.5-1,0.4-2.3,1.5-2.2C29.6,68.4,29.6,68.1,29.4,68L29.4,68z"/>
				</g>
			</g>
			<g>
				<g>
					<path class="st4" d="M28.5,88.9c-1.6-0.7-2.3,1.7-1.8,2.8c0.6,1.5,2.5,2.3,3.9,1.4c1.3-0.8,1.8-2.7,0.9-4c-0.6-0.9-3-2-3.6-0.6
						c-0.1,0.1,0,0.3,0.1,0.4c0.7,0.2,1.4-0.1,2.1,0.3c0.9,0.5,1.2,1.6,0.6,2.5c-0.6,0.9-1.7,1.2-2.6,0.5c-1-0.8-1.1-2.4,0.3-2.8
						C28.6,89.4,28.7,89,28.5,88.9L28.5,88.9z"/>
				</g>
			</g>
			<g>
				<g>
					<path class="st4" d="M48.9,82.8c-1.3-0.2-2.5,0.9-2.7,2.2c-0.2,1.4,0.9,2.5,2.2,2.7c1.3,0.2,2.5-0.6,2.8-1.9
						c0.2-1.1-0.4-3-1.8-3c-0.3,0-0.5,0.4-0.3,0.7c0.6,0.6,1.1,0.9,1.1,1.8c0,0.9-0.7,1.5-1.6,1.5C47.8,86.6,47,86,47.1,85
						c0.1-1,0.9-1.7,1.9-1.8C49.1,83.2,49.1,82.8,48.9,82.8L48.9,82.8z"/>
				</g>
			</g>
			<g>
				<g>
					<path class="st4" d="M68.6,76.6c-1.5-0.2-2.7,1.1-2.7,2.6c-0.1,1.5,1.2,2.6,2.6,2.6c1.4,0,2.6-1,2.7-2.5c0-0.7-0.2-1.4-0.7-2
						c-0.4-0.4-1-1-1.6-0.6c-0.1,0.1-0.2,0.2-0.1,0.3c0.1,0.4,0.4,0.5,0.7,0.7c0.3,0.3,0.6,0.7,0.7,1.2c0.2,0.9-0.4,1.7-1.4,1.8
						c-0.9,0.1-1.9-0.4-2-1.4c-0.1-1.1,0.8-1.9,1.8-2.2C68.9,77.1,68.9,76.6,68.6,76.6L68.6,76.6z"/>
				</g>
			</g>
			<g>
				<g>
					<path class="st4" d="M77.8,61c-1.1,0.1-1.8,1.2-1.5,2.3c0.3,1.1,1.5,1.6,2.6,1.4c1.2-0.2,2-1.2,1.8-2.4c-0.2-1.1-1.3-2.4-2.6-2
						c-0.4,0.1-0.5,0.8,0,0.9c0.6,0.1,1.2,0.4,1.5,1.1c0.2,0.6-0.1,1.2-0.8,1.4c-0.5,0.1-1.3,0-1.6-0.5c-0.4-0.6,0-1.6,0.7-1.8
						C78.1,61.4,78.1,61,77.8,61L77.8,61z"/>
				</g>
			</g>
			<g>
				<g>
					<path class="st4" d="M40.1,115.5c1.9,6.2,5.1,13.1,8.8,18.5c0.2,0.3,0.9,0.1,0.7-0.3c-2.5-6.2-5.8-12.6-9-18.4
						C40.5,115,40,115.2,40.1,115.5L40.1,115.5z"/>
				</g>
			</g>
			<g>
				<g>
					<path class="st4" d="M46.3,114.6c2.1,6.5,5.8,12.6,8.9,18.7c0.3,0.6,1.2,0.1,0.9-0.5c-3.1-6.1-5.7-12.6-9.4-18.4
						C46.6,114.2,46.2,114.4,46.3,114.6L46.3,114.6z"/>
				</g>
			</g>
			<g>
				<g>
					<path class="st4" d="M53,113.5c2.2,6.2,6,11.7,8.2,18c0.2,0.6,1.2,0.4,1-0.3c-1.8-6.1-5-12.7-8.8-17.9
						C53.3,113.1,52.9,113.2,53,113.5L53,113.5z"/>
				</g>
			</g>
			<g>
				<g>
					<path class="st4" d="M61.4,112c0.6,2.9,2.1,5.6,3.3,8.3c1.4,3.1,2.8,6.2,4.2,9.2c0.2,0.5,1.1,0.1,0.9-0.4
						c-1.2-2.7-2.3-5.5-3.6-8.2c-1.3-3-2.5-6.4-4.5-9.1C61.6,111.7,61.3,111.8,61.4,112L61.4,112z"/>
				</g>
			</g>
			<g>
				<g>
					<path class="st4" d="M67.8,108.5c1.7,5.9,4,11.6,6.2,17.3c0.3,0.7,1.4,0.4,1.1-0.3c-2.2-5.8-4.2-11.6-6.8-17.2
						C68.2,108,67.7,108.2,67.8,108.5L67.8,108.5z"/>
				</g>
			</g>
			<g>
				<g>
					<path class="st4" d="M72,106.5c2.1,4.9,4.5,10.2,7.2,14.7c0.2,0.4,0.9,0.1,0.8-0.3c-1.6-5-4.5-10.3-7.4-14.7
						C72.3,105.9,71.9,106.2,72,106.5L72,106.5z"/>
				</g>
			</g>
			<g>
				<g>
					<path class="st4" d="M76.4,102.3c2,5.2,4,11,7,15.7c0.3,0.4,0.9,0.2,0.8-0.3c-1.6-5.3-4.6-10.7-7.2-15.6
						C76.9,101.7,76.3,101.9,76.4,102.3L76.4,102.3z"/>
				</g>
			</g>
		</g>
		<g>
			<g>
				<g>
					<path class="st4" d="M94.3,69.6c3,2.4,5.7,5.2,8,8.3c2.1,2.9,3.4,6.1,5.2,9c0.5,0.8,1.7,0.3,1.5-0.6c-1.4-7.1-7.6-14-13.1-18.3
						C94.8,67.1,93.2,68.7,94.3,69.6L94.3,69.6z"/>
				</g>
			</g>
			<g>
				<g>
					<path class="st4" d="M89.5,70.9c1.2-2.3,3.1-2.5,5.1-1.1c1.2,0.8,2.4-1.2,1.2-2c-3-2-6.5-1.4-8.2,2
						C86.9,71.1,88.8,72.2,89.5,70.9L89.5,70.9z"/>
				</g>
			</g>
			<g>
				<g>
					<path class="st4" d="M98.9,140.3c6.5-8.1,5.6-19.9,2.8-29.3c-1.7-5.9-4.5-11.5-6.9-17.1c-2.6-6-7.9-16.8-5.2-23.3
						c0.6-1.4-1.7-2-2.2-0.6c-1.8,4.4,0.2,10.5,1.6,14.8c1.8,5.8,4.4,11.2,6.8,16.8c5.4,12.6,9.1,25.5,2.8,38.5
						C98.5,140.2,98.7,140.5,98.9,140.3L98.9,140.3z"/>
				</g>
			</g>
			<g>
				<g>
					<path class="st4" d="M107.8,86.2c1.6-13.4-1.6-27.3-1.2-40.7c0-1.8-0.1-3.9,0.7-5.5c1.6-3.5,6-5.6,7.1-1.7
						c0.8,2.9,1.1,6,1.6,8.9c1.3,7.1,2.5,14.1,4,21.2c0.3,1.4,2.3,0.8,2.1-0.6c-1.6-9.9-2.5-20.5-5.3-30.1c-1.2-4.2-4.9-7-8.9-3.7
						c-5.9,4.8-3.4,16.3-3,22.5c0.7,9.7,0.3,20.3,2.7,29.8C107.5,86.5,107.8,86.4,107.8,86.2L107.8,86.2z"/>
				</g>
			</g>
			<g>
				<g>
					<path class="st4" d="M137,34.2c3.6,3.6,1.6,9.9,0.9,14.3c-0.4,3.1-0.9,6.2-1.3,9.3c-0.7,5.8-1.2,12,0.2,17.7
						c0.3,1.1,2.2,0.9,2-0.3c-0.9-8.3-0.1-16.2,1.2-24.4c0.9-5.8,3.6-13.7-1.2-18.5C137.6,31.3,135.8,33.1,137,34.2L137,34.2z"/>
				</g>
			</g>
			<g>
				<g>
					<path class="st4" d="M120.5,68.7c4.5,1.7,4.6-4.7,4.9-7.4c0.5-4.5,1.3-9,2.5-13.4c0.9-3.4,3.5-16.8,9.4-13.6
						c1.4,0.8,2.5-1.2,1.2-2.1c-5-3.5-8.7,1.9-10.2,6.2c-1.7,4.6-2.8,9.5-3.6,14.3c-0.4,2.5-0.6,14.9-4,14.8
						C120,67.6,119.9,68.5,120.5,68.7L120.5,68.7z"/>
				</g>
			</g>
			<g>
				<g>
					<path class="st4" d="M158.3,45c3.2,4.3-1.7,15.6-3.1,20.1c-1.7,5.4-3.1,10.6-3.3,16.3c0,0.5,0.5,1.1,1,1c3.4-0.2,4.5-3,5.8-5.9
						c1-2.3,1.7-4.7,2.5-7c0.6-1.7,3.2-9,5.5-9c3.8,0,3.2,9.1,3.2,11.1c0,5.8-1.1,11.4-2.8,16.9c-6.8,22.3-19.5,42.3-24.1,65.4
						c-0.2,1,1.3,1.4,1.5,0.4c3.4-14.3,9.7-27.8,15.4-41.3c4.7-11,10.1-22.2,11.8-34.1c0.6-4,2.7-18.6-3.3-20.7
						c-3.2-1.1-5.6,2.9-6.9,5.1c-2,3.5-4.2,16.9-8.7,17c0.3,0.3,0.7,0.7,1,1c0.6-7.8,3.3-14.9,5.4-22.3c1-3.8,3.6-11.5,1-15.2
						C159.5,42.6,157.4,43.8,158.3,45L158.3,45z"/>
				</g>
			</g>
			<g>
				<g>
					<path class="st4" d="M139,75.5c3.1-3.5,4.9-8.3,6.8-12.5c1.4-2.9,2.7-5.9,3.9-8.9c1-2.4,4-12.7,8.8-9c1.1,0.9,2.8-0.7,1.6-1.6
						c-6.1-5.2-9.9,3.4-11.7,8c-2.9,7.2-5.7,16.6-10.8,22.6C136.9,75.1,138.2,76.5,139,75.5L139,75.5z"/>
				</g>
			</g>
			<g>
				<g>
					<path class="st4" d="M148.4,137.2c-8.3,1.3-15.6,2.5-24,1c-7.7-1.3-14.5-4.6-20.9-9.1c-1.1-0.8-2,1-1,1.7
						c12.2,9.3,31.9,14.3,46.5,7.9C150,138.3,149.3,137.1,148.4,137.2L148.4,137.2z"/>
				</g>
			</g>
			<g>
				<g>
					<path class="st4" d="M143.6,153.7c-12.9,13.1-37.7,0.9-44.6-13.1c-0.5-1-2.3-0.3-1.9,0.8c3.7,10.1,14.4,15.5,24.2,18.3
						c5.8,1.7,21.2,2.5,23.1-5.6C144.5,153.7,143.9,153.4,143.6,153.7L143.6,153.7z"/>
				</g>
			</g>
			<g>
				<g>
					<path class="st4" d="M114.1,90c-2.9,0.3-5.2,2.9-7.4,4.7c-3.2,2.7-6.4,5.4-9.3,8.3c-0.7,0.7,0.3,1.7,1,1
						c2.4-2.1,4.7-4.3,7.1-6.4c2.2-1.9,5.7-6.1,8.6-6.4C115,91.2,115,89.9,114.1,90L114.1,90z"/>
				</g>
			</g>
			<g>
				<g>
					<path class="st4" d="M125.2,102c-2-2.4-4-4.8-6-7.3c-1.4-1.7-2.7-4-4.8-4.7c-0.8-0.3-1.2,1-0.3,1.3c2.2,0.7,4.1,4.1,5.5,5.8
						c1.6,1.9,3.2,3.9,4.8,5.9C124.7,103.7,125.8,102.7,125.2,102L125.2,102z"/>
				</g>
			</g>
			<g>
				<g>
					<path class="st4" d="M137.6,93.4c-0.1-0.1-0.1-0.1-0.2-0.2c-0.2-0.2-0.5-0.2-0.7-0.1c-4.5,2.5-8.7,5.4-12.6,8.9
						c-0.7,0.6,0.3,1.6,1,1c1.9-1.8,4-3.5,6.1-5c0.5-0.3,5.5-3.8,5.5-3.8C137.3,94.7,138.1,93.9,137.6,93.4L137.6,93.4z"/>
				</g>
			</g>
			<g>
				<g>
					<path class="st4" d="M145.7,106.4c-2.2-4.6-4.9-9-8.1-13c-0.5-0.6-1.3,0.2-0.8,0.8c3.1,4,5.7,8.2,7.9,12.8
						C145,107.7,146.1,107.1,145.7,106.4L145.7,106.4z"/>
				</g>
			</g>
			<g>
				<g>
					<path class="st4" d="M157.2,98.1c-4.4,2.1-8.6,5.1-12.4,8.2c-0.6,0.5,0.3,1.4,0.9,0.9c3.8-3.1,7.9-5.6,12-8.2
						C158.2,98.6,157.7,97.8,157.2,98.1L157.2,98.1z"/>
				</g>
			</g>
			<g>
				<g>
					<path class="st4" d="M161.4,109c-0.4-3.8-1.9-7.4-3.6-10.8c-0.3-0.6-1.1-0.1-0.8,0.5c1.7,3.3,2.7,6.8,4.1,10.3
						C161.1,109.2,161.4,109.2,161.4,109L161.4,109z"/>
				</g>
			</g>
			<g>
				<g>
					<path class="st4" d="M113.4,96.9c-4.5,3.3-9,6.5-13.4,9.9c-0.7,0.6,0,1.8,0.7,1.3c4.5-3.3,8.9-6.6,13.3-9.9
						C114.8,97.5,114.1,96.4,113.4,96.9L113.4,96.9z"/>
				</g>
			</g>
			<g>
				<g>
					<path class="st4" d="M122.4,109.1C122.3,109.1,122.3,109.2,122.4,109.1c0.2,0.1,0.5,0.2,0.8,0.2c-3.1-4-5.9-8.1-8.8-12.2
						c-0.5-0.7-1.7,0-1.2,0.7c3,4.1,6,8.2,8.8,12.4c0.2,0.3,0.7,0.5,1,0.3c0,0,0.1,0,0.1-0.1C123.9,109.9,123.1,108.5,122.4,109.1
						L122.4,109.1z"/>
				</g>
			</g>
			<g>
				<g>
					<path class="st4" d="M135.1,100.6c-4.3,2.7-8.7,5.4-12.8,8.5c-0.7,0.6-0.1,1.8,0.7,1.3c4.2-2.9,8.4-5.9,12.7-8.7
						C136.5,101.3,135.9,100.2,135.1,100.6L135.1,100.6z"/>
				</g>
			</g>
			<g>
				<g>
					<path class="st4" d="M141.9,112.4c-0.1,0-0.1,0.1-0.2,0.1c0.3,0.1,0.6,0.2,0.9,0.2c-1.9-4.1-4.1-8.1-6.6-11.9
						c-0.5-0.7-1.6,0-1.1,0.7c2.5,3.8,4.7,7.7,6.6,11.8c0.2,0.3,0.6,0.4,0.9,0.2c0.1,0,0.1-0.1,0.2-0.1
						C143.3,113.1,142.7,112,141.9,112.4L141.9,112.4z"/>
				</g>
			</g>
			<g>
				<g>
					<path class="st4" d="M158.6,114.7c-0.6-3.4-1.9-6.7-3-9.9c-0.1-0.4-0.5-0.5-0.8-0.2c-4,3.1-8.3,5.7-12.9,7.8
						c-0.7,0.3-0.1,1.5,0.7,1.1c4.7-2.2,8.9-5,12.9-8.2c-0.3-0.1-0.6-0.1-0.8-0.2c1.1,3.3,2,6.7,3.5,9.9
						C158.3,115.2,158.7,115,158.6,114.7L158.6,114.7z"/>
				</g>
			</g>
			<g>
				<g>
					<path class="st4" d="M124.2,88.7c1-0.4,2.3,0,2.8,1c0.5,1.1-0.2,2.6-1.4,2.8c-1.2,0.3-2.4-0.7-2.4-1.9c0-1.2,1-1.4,1.5-2.3
						c0.1-0.1,0-0.3-0.1-0.4c-1.6-0.6-2.6,2.2-2.3,3.3c0.4,1.7,2.3,2.7,3.9,2.2c1.6-0.5,2.4-2.5,1.7-4c-0.7-1.5-2.4-1.9-3.8-1.2
						C123.9,88.4,124,88.8,124.2,88.7L124.2,88.7z"/>
				</g>
			</g>
			<g>
				<g>
					<path class="st4" d="M149.3,92.3c1.2-0.3,2.1,1,1.8,2c-0.3,0.9-1.4,1.4-2.3,1.2c-0.8-0.2-1.5-0.9-1.4-1.8
						C147.6,92.7,148.5,92.7,149.3,92.3c0.2,0,0.4-0.3,0.2-0.6c-1.1-1.2-2.9,0.7-3,1.9c-0.2,1.5,1.1,2.6,2.5,2.8
						c1.5,0.1,3-1.1,2.9-2.6c0-1.5-1.5-2.4-2.8-1.8C149,92.1,149.1,92.4,149.3,92.3L149.3,92.3z"/>
				</g>
			</g>
			<g>
				<g>
					<path class="st4" d="M152.7,113.1c2.7,0.4,0.4,4.8-1.8,2.8c-0.7-0.7-0.9-1.8-0.1-2.6c0.7-0.7,1.5-0.4,2.2-0.7
						c0.1-0.1,0.2-0.2,0.1-0.4c-0.8-1.4-3,0-3.6,1c-0.8,1.4,0,3.2,1.4,3.8c1.5,0.7,3.2-0.3,3.7-1.8c0.3-1.2-0.5-3.6-2.1-2.7
						C152.4,112.7,152.4,113.1,152.7,113.1L152.7,113.1z"/>
				</g>
			</g>
			<g>
				<g>
					<path class="st4" d="M131.7,109.4c1,0,2,0.8,2.1,1.8c0.1,0.9-0.8,1.6-1.6,1.6c-0.8,0.1-1.5-0.5-1.6-1.3
						c-0.1-0.9,0.4-1.3,0.9-1.9c0.2-0.2,0.1-0.7-0.3-0.7c-1.3,0.2-1.8,1.8-1.5,3c0.3,1.3,1.5,2,2.8,1.8c1.3-0.2,2.4-1.3,2.2-2.7
						c-0.2-1.4-1.6-2.5-3-2.1C131.4,109,131.4,109.3,131.7,109.4L131.7,109.4z"/>
				</g>
			</g>
			<g>
				<g>
					<path class="st4" d="M111.4,105.7c1,0.1,2.1,0.9,2,2c0,1-1,1.5-1.9,1.5c-0.9-0.1-1.5-0.8-1.4-1.7c0-0.4,0.2-0.8,0.5-1.2
						c0.2-0.3,0.5-0.4,0.6-0.8c0-0.1,0-0.2-0.1-0.3c-1.3-0.7-2.1,1.7-2,2.5c0.1,1.5,1.3,2.5,2.8,2.4c1.4-0.1,2.6-1.3,2.5-2.8
						c-0.1-1.4-1.5-2.8-3-2.4C110.9,105.2,111.1,105.7,111.4,105.7L111.4,105.7z"/>
				</g>
			</g>
			<g>
				<g>
					<path class="st4" d="M100.3,91.2c0.8,0.1,1.2,1.2,0.8,1.8c-0.3,0.5-1,0.7-1.5,0.6c-0.6-0.1-0.9-0.7-0.8-1.3
						c0.1-0.7,0.7-1,1.3-1.2c0.4-0.1,0.5-0.8,0-0.9c-1.2-0.2-2.2,0.9-2.4,2c-0.2,1.2,0.6,2.2,1.8,2.4c1,0.1,2.2-0.4,2.6-1.4
						c0.4-1.2-0.4-2.5-1.7-2.4C100.1,90.8,100,91.2,100.3,91.2L100.3,91.2z"/>
				</g>
			</g>
			<g>
				<g>
					<path class="st4" d="M143.6,140.3c-2.5,6.2-4.9,12.9-6.7,19.3c-0.1,0.4,0.5,0.7,0.7,0.3c3-5.8,5.4-13,6.6-19.4
						C144.3,140,143.8,139.9,143.6,140.3L143.6,140.3z"/>
				</g>
			</g>
			<g>
				<g>
					<path class="st4" d="M137.5,140.1c-2.9,6.2-4.8,13-7.1,19.4c-0.2,0.6,0.7,0.9,1,0.3c2.4-6.3,5.2-12.9,6.6-19.5
						C138,140,137.7,139.8,137.5,140.1L137.5,140.1z"/>
				</g>
			</g>
			<g>
				<g>
					<path class="st4" d="M130.8,139.7c-3.1,5.6-5.5,12.4-6.6,18.7c-0.1,0.6,0.8,0.9,1,0.3c1.5-6.5,4.6-12.4,6-18.8
						C131.2,139.7,130.9,139.5,130.8,139.7L130.8,139.7z"/>
				</g>
			</g>
			<g>
				<g>
					<path class="st4" d="M122.4,139.3c-3,5.2-4.3,12.3-5.9,18c-0.2,0.6,0.7,0.8,0.9,0.3c1.9-5.7,4.9-12.2,5.3-18.2
						C122.7,139.2,122.5,139.2,122.4,139.3L122.4,139.3z"/>
				</g>
			</g>
			<g>
				<g>
					<path class="st4" d="M115.3,136.6c-1.9,5.8-3.2,11.8-4.7,17.8c-0.2,0.7,0.9,1,1.1,0.3c1.5-6,3.1-11.9,4.1-18
						C115.9,136.4,115.4,136.2,115.3,136.6L115.3,136.6z"/>
				</g>
			</g>
			<g>
				<g>
					<path class="st4" d="M110.9,135c-2.4,4.7-4.6,10.3-5.6,15.5c-0.1,0.4,0.6,0.8,0.8,0.3c2.1-4.9,3.9-10.4,5.4-15.6
						C111.6,134.9,111.1,134.7,110.9,135L110.9,135z"/>
				</g>
			</g>
			<g>
				<g>
					<path class="st4" d="M105.9,131.4c-1.9,5.2-4.3,10.8-5.3,16.3c-0.1,0.4,0.6,0.8,0.8,0.3c2.4-5.1,3.7-11,5.1-16.4
						C106.7,131.2,106.1,131,105.9,131.4L105.9,131.4z"/>
				</g>
			</g>
		</g>
	</g>
</g>
</svg>
