<?xml version="1.0" encoding="utf-8"?>
<!-- Generator: Adobe Illustrator 19.1.0, SVG Export Plug-In . SVG Version: 6.00 Build 0)  -->
<svg version="1.1"
	 id="svg2" xmlns:dc="http://purl.org/dc/elements/1.1/" xmlns:cc="http://web.resource.org/cc/" xmlns:rdf="http://www.w3.org/1999/02/22-rdf-syntax-ns#" xmlns:svg="http://www.w3.org/2000/svg" xmlns:sodipodi="http://inkscape.sourceforge.net/DTD/sodipodi-0.dtd" xmlns:inkscape="http://www.inkscape.org/namespaces/inkscape" inkscape:export-ydpi="90.000000" inkscape:export-xdpi="90.000000" sodipodi:version="0.32" inkscape:export-filename="/datas/wiki/green_tick.png" sodipodi:docname="green_tick.svg" sodipodi:docbase="G:\Projs\Cliparts Stocker\released" inkscape:version="0.42"
	 xmlns="http://www.w3.org/2000/svg" xmlns:xlink="http://www.w3.org/1999/xlink" x="0px" y="0px" viewBox="-273 365 64 64"
	 style="enable-background:new -273 365 64 64;" xml:space="preserve">
<style type="text/css">
	.st0{fill:url(#path1373_1_);}
	.st1{fill:url(#path1339_1_);}
	.st2{fill:url(#path1430_1_);}
	.st3{fill:url(#path1348_1_);}
</style>
<sodipodi:namedview  showguides="false" showgrid="false" inkscape:cy="32.000000" inkscape:cx="32.000000" inkscape:zoom="8.2031250" borderopacity="1.0" bordercolor="#666666" pagecolor="#ffffff" id="base" inkscape:window-y="25" inkscape:window-x="0" inkscape:window-height="693" inkscape:window-width="1156" inkscape:grid-points="true" inkscape:grid-bbox="true" inkscape:current-layer="layer1" inkscape:pageshadow="2" inkscape:pageopacity="0.0" inkscape:document-units="px">
	</sodipodi:namedview>
<g id="layer1" inkscape:label="Calque 1" inkscape:groupmode="layer">
	
		<linearGradient id="path1373_1_" gradientUnits="userSpaceOnUse" x1="-263.3546" y1="422.007" x2="-209.8853" y2="366.9774" gradientTransform="matrix(1 0 0 -1 0 796)">
		<stop  offset="0" style="stop-color:#236B0D"/>
		<stop  offset="1" style="stop-color:#0A2205"/>
	</linearGradient>
	<path id="path1373" class="st0" d="M-241,373.6c-12.9,0-23.4,10.5-23.4,23.4s10.5,23.4,23.4,23.4s23.4-10.5,23.4-23.4
		S-228.1,373.6-241,373.6z"/>
	
		<radialGradient id="path1339_1_" cx="-190.6138" cy="1026.7137" r="27.5" gradientTransform="matrix(9.909149e-17 1.0887 1.1024 -1.658760e-05 -1379.8387 591.7155)" gradientUnits="userSpaceOnUse">
		<stop  offset="0" style="stop-color:#2EDC32"/>
		<stop  offset="1" style="stop-color:#11661D"/>
	</radialGradient>
	<path id="path1339" class="st1" d="M-218.5,397c0,12.4-10.1,22.5-22.5,22.5s-22.5-10.1-22.5-22.5s10.1-22.5,22.5-22.5
		S-218.5,384.6-218.5,397z"/>
	
		<linearGradient id="path1430_1_" gradientUnits="userSpaceOnUse" x1="-246.435" y1="409.2174" x2="-231.4121" y2="388.2097" gradientTransform="matrix(1 0 0 -1 0 796)">
		<stop  offset="0" style="stop-color:#D3CECE"/>
		<stop  offset="1" style="stop-color:#474240"/>
	</linearGradient>
	
		<path id="path1430" sodipodi:type="inkscape:offset" inkscape:radius="0.97709924" inkscape:original="M 36.937500 15.406250 L 26.062500 41.968750 L 17.625000 29.906250 L 14.000000 35.937500 L 26.062500 48.000000 L 49.000000 21.437500 L 36.937500 15.406250 z " class="st2" d="
		M-236.2,379.4c-0.3,0-0.6,0.3-0.8,0.6l-10.2,24.9l-7.4-10.6c-0.2-0.3-0.5-0.4-0.8-0.4c-0.3,0-0.6,0.2-0.8,0.5l-3.6,6
		c-0.2,0.4-0.2,0.9,0.2,1.2l12.1,12.1c0.2,0.2,0.5,0.3,0.7,0.3c0.3,0,0.5-0.1,0.7-0.3l22.9-26.6c0.2-0.2,0.3-0.5,0.2-0.8
		c-0.1-0.3-0.3-0.5-0.5-0.7l-12.1-6C-235.8,379.4-236,379.4-236.2,379.4z"/>
	
		<linearGradient id="path1348_1_" gradientUnits="userSpaceOnUse" x1="-243.8168" y1="405.3117" x2="-228.916" y2="385.0369" gradientTransform="matrix(1 0 0 -1 0 796)">
		<stop  offset="0" style="stop-color:#FFFFFF"/>
		<stop  offset="1" style="stop-color:#A3A5EE;stop-opacity:0"/>
	</linearGradient>
	
		<path id="path1348" sodipodi:type="inkscape:offset" inkscape:radius="-0.84188432" inkscape:original="M 36.812500 15.093750 C 36.726380 15.127050 36.658300 15.195130 36.625000 15.281250 L 26.000000 41.281250 L 17.906250 29.718750 C 17.841744 29.622859 17.740390 29.556089 17.625000 29.562500 C 17.509608 29.568912 17.397237 29.647554 17.343750 29.750000 L 13.718750 35.781250 C 13.657557 35.906799 13.682646 36.057334 13.781250 36.156250 L 25.843750 48.218750 C 25.905417 48.281831 25.974284 48.312500 26.062500 48.312500 C 26.150716 48.312501 26.250833 48.281831 26.312500 48.218750 L 49.250000 21.656250 C 49.313802 21.580964 49.330686 21.471995 49.312500 21.375000 C 49.294311 21.278005 49.242992 21.203309 49.156250 21.156250 L 37.093750 15.125000 C 37.009558 15.072565 36.906149 15.061075 36.812500 15.093750 z " class="st3" d="
		M-235.8,381.1l-10.4,25.5c-0.1,0.3-0.4,0.5-0.7,0.5c-0.3,0-0.6-0.1-0.8-0.4l-7.6-10.9l-3,5l11.4,11.4l22.1-25.6L-235.8,381.1z"/>
</g>
</svg>
