<?xml version="1.0" encoding="utf-8"?>
<!-- Generator: Adobe Illustrator 19.1.0, SVG Export Plug-In . SVG Version: 6.00 Build 0)  -->
<svg version="1.1" xmlns="http://www.w3.org/2000/svg" xmlns:xlink="http://www.w3.org/1999/xlink" x="0px" y="0px"
	 viewBox="0 0 23.3 63.1" style="enable-background:new 0 0 23.3 63.1;" xml:space="preserve">
<style type="text/css">
	.st0{fill:#333333;stroke:#000000;}
	.st1{fill:#303030;stroke:#000000;}
	.st2{fill:#3F3F3F;stroke:#000000;}
	.st3{fill:#666666;stroke:#000000;}
</style>
<g id="Layer_1">
</g>
<g id="Layer_13">
</g>
<g id="Layer_14">
</g>
<g id="Layer_15">
</g>
<g id="Layer_12">
</g>
<g id="Layer_2">
</g>
<g id="Layer_5">
</g>
<g id="Layer_6">
</g>
<g id="Layer_3">
</g>
<g id="Layer_10">
</g>
<g id="Layer_11">
</g>
<g id="Layer_4">
</g>
<g id="Layer_7">
</g>
<g id="Layer_8">
</g>
<g id="Layer_9">
</g>
<g id="Layer_20">
</g>
<g id="Layer_18">
</g>
<g id="Layer_16">
</g>
<g id="Layer_17">
</g>
<g id="Layer_23">
</g>
<g id="Layer_24">
</g>
<g id="Layer_25">
</g>
<g id="Layer_26">
</g>
<g id="Layer_21">
</g>
<g id="Layer_28">
</g>
<g id="Layer_22">
	<path class="st0" d="M2,3.2c0,0-0.4,1.6-0.6,3.9C1.2,9.4,1.1,18.8,1.1,21.9c0,3.1,0.4,9.5,0.4,11.5c0,1.9,0.4,17.1,0.4,18.5
		c0,1.4,1,3.7,0.8,4.7c-0.2,1-0.2,2.5,0.1,2.8c0.2,0.2,2.4,1.4,3.6,1.9c1.2,0.5,1.7,0.6,2.8,0.4c1.1-0.2,1.9-1.3,1.9-2.4
		c0-1.2-0.3-5.7-0.6-7.5c-0.2-1.8-0.4-6.9-0.6-9.9c-0.2-2.9-0.3-10.3-0.3-10.3s0.6-5.9,0.9-7.3c0.3-1.4,1.1-4,1.1-4s1.1,3.5,1.1,5.1
		c0,1.6,1.3,4.8,0.9,8.7c-0.4,4,0.5,14.4,0.1,16.3c-0.4,1.9-1.9,8.5-1.2,9.2c0.7,0.7,1,1.5,2.9,1.5s2.7,0,3.6-0.2
		c0.9-0.2,1.9-1.5,1.9-2c0-0.5,0.2-0.7,0.6-1c0.3-0.3,0.6-9.7,0.5-12.5c-0.1-2.8-0.3-16.7-0.3-19c0-2.3,0.1-11.6,0.1-13
		c0-1.4-0.1-8-0.4-8.2c-0.2-0.2,0-1.6,0-1.6L2,3.2z"/>
	<path class="st1" d="M11.5,4.3L11.2,13c0,0,1.7-0.4,1.8-1.2c0.1-0.8,0.1-7.4,0.1-7.4L11.5,4.3z"/>
	<path class="st2" d="M5.9,4c0,0-0.1,2.8-1.8,4.2c-1.7,1.4-2.8,2.2-2.8,2.2l0.5-6.8L5.9,4z"/>
	<path class="st2" d="M21.5,10.2c0,0-3.7-2.1-4-4c-0.3-1.9-0.1-2.1-0.1-2.1l3.8-0.2C21.1,3.9,21.8,9.6,21.5,10.2z"/>
	<path d="M3.3,9.5c0,0,1.7,1.7,2.7,1.9c0.9,0.2-2-0.4-2.4-0.8c-0.4-0.4-2.3,0.6,0,1.6c2.2,1,3.1,1,3.1,1L3,12.8c0,0,0.9,1.2,0.9,1.9
		c0,0.7,0.5,1.7,0.9,2.1c0.4,0.4-0.1,2.7-0.7,1.6c-0.6-1-0.9-0.7-0.9-0.7s0.7,2.2,1,2.5C4.5,20.6,3,19.6,3,19.6s0.6,2.4,0.6,3.2
		c0,0.8,0.2,6.7,0.4,7c0.3,0.3,2.5,1.6,2.5,1.6s-1.7-0.4-2.1-0.7c-0.4-0.4-0.1,0.6,0.3,1c0.3,0.3,1,0.3,1,0.3L4,32.2
		c0,0,0.2,0.7,0.7,1.2c0.5,0.5,1,2,1,2l-1.9-1.9c0,0,1.9,4.1,1.9,4.3s-1-1.1-1.4-1.5c-0.4-0.4,1.6,3.3,1.6,4.1
		c0,0.7,0.5,3.2-0.8,3.9C3.7,45,5.1,43.7,5.1,43c0-0.7-0.8-1.6-1-1.9c-0.2-0.2-0.5,0-0.1,0.9c0.4,0.9,0,1.7,0,1.7l-1.3-1.4
		c0,0,0.1,1,0.6,2.2c0.5,1.1,1,3.8,1.2,4.8c0.2,1,0,4-0.4,4.8c-0.4,0.8-0.7,1.9-0.7,2.5c0,0.6,1.8,0.7,2.2,0.3c0.4-0.4,1-1.8,1-1.8
		s-1.3,2.4-1.8,2.9C4.5,58.5,4.4,60,4.4,60s-1.7,0.2-1.8-0.8c-0.1-0.9,0.1-2.5,0-3.1c-0.1-0.6-0.2-1.5-0.4-1.8
		c-0.2-0.3-0.4-2.6-0.4-2.9c0-0.2-0.1-3.2-0.1-3.6c0-0.4-0.1-5.4-0.1-5.5c0-0.2-0.2-6.6-0.2-6.6L1.1,21.9l0.1-10.1
		C1.2,11.8,0.7,10.2,3.3,9.5z"/>
	<path d="M19.4,9.5c0,0-1.7,1.7-2.6,1.9c-0.9,0.2,2-0.4,2.4-0.8c0.4-0.4,2.3,0.6,0,1.6c-2.2,1-3.1,1-3.1,1l3.5-0.4
		c0,0-0.9,1.2-0.9,1.9c0,0.7-0.5,1.7-0.9,2.1c-0.4,0.4,0.1,2.7,0.7,1.6c0.6-1,0.9-0.7,0.9-0.7s-0.7,2.2-1,2.5
		c-0.3,0.3,1.2-0.7,1.2-0.7s-0.6,2.4-0.6,3.2c0,0.8-0.2,6.7-0.4,7c-0.3,0.3-2.5,1.6-2.5,1.6s1.7-0.4,2.1-0.7c0.4-0.4,0.1,0.6-0.3,1
		c-0.3,0.3-1,0.3-1,0.3l1.6,0.1c0,0-0.2,0.7-0.7,1.2c-0.5,0.5-1,2-1,2l1.9-1.9c0,0-1.9,4.1-1.9,4.3s1-1.1,1.4-1.5
		c0.4-0.4-1.6,3.3-1.6,4.1c0,0.7-0.5,3.2,0.8,3.9c1.3,0.7-0.1-0.6-0.1-1.3c0-0.7,0.8-1.6,1-1.9c0.2-0.2,0.5,0,0.1,0.9
		c-0.4,0.9,0,1.7,0,1.7l1.3-1.4c0,0-0.1,1-0.6,2.2c-0.5,1.1-1,3.8-1.2,4.8c-0.2,1,0,4,0.4,4.8c0.4,0.8,0.7,1.9,0.7,2.5
		c0,0.6-1.8,0.7-2.2,0.3c-0.4-0.4-1-1.8-1-1.8s1.3,2.4,1.8,2.9c0.5,0.5,0.5,1.9,0.5,1.9s1.7,0.2,1.8-0.8c0.1-0.9-0.1-2.5,0-3.1
		c0.1-0.6,1.6-1,1.7-1.4c0.2-0.3-0.5-19.1-0.5-19.1l0.4-13.6l-0.1-10.1C21.5,11.8,22,10.2,19.4,9.5z"/>
	<path d="M16.6,59.7c0,0-0.4,2.2-2,1.4c-1.6-0.8-2.6-1-2.4-2.5c0.2-1.5,0.5-4,0.9-5.9c0.4-1.9,0.5-6.3,0.5-8.9
		c0-2.6-0.1-7.8-0.1-9.4c0-1.5-0.2-5.9-0.7-7.2c-0.4-1.4-0.5-3.7-0.9-5c-0.4-1.3-0.5-2.1-0.5-2.1s-1.3,5.1-1.6,8
		c-0.3,2.8-0.4,6.7-0.3,9.5c0.1,2.9,0.3,7.6,0.5,9.9c0.1,2.3,0.7,7.8,0.7,9c0,1.2,0.4,4.2-0.7,4.7C9.1,61.7,7,62,5.7,61
		c-1.3-1,0.5-0.3,1-0.7c0.5-0.5,2.2-2.1,2.2-3.1c0-0.9-0.2-2.9-0.2-2.9S7,57.3,6.4,57.9c-0.6,0.6,1.1-2.2,1.6-4
		c0.5-1.8,0.7-3.5,0.7-3.5l-1.1,2.1c0,0,1.1-7.9,1.1-9.3c0-1.3-0.1-1.9-0.1-1.9s-2.1,4.3-2.7,4.3c-0.7,0,1.8-2.8,1.8-3.7
		c0-0.9,0.7-4.2,0.7-5.5c0-1.3,0-1.3,0-1.3S7.3,36,7.3,37c0,1,0,1.3,0,1.3s-0.6-1.8,0-2.9c0.6-1.2,1-2.4,1-2.4s-1.6,1.5-1.6,1.8
		c0,0.4,0.2-1.8,0.8-2.4c0.6-0.6,1.2-4.2,1.1-4.8C8.4,27,8.4,25.2,8,25.2c-0.4,0-0.5-0.1,0-0.6c0.4-0.4-0.4-0.4-0.6-0.6
		c-0.2-0.2,0.7-0.1,0.7-0.5c0-0.4-0.2-0.6-0.5-0.9c-0.3-0.3-0.4-0.7,0.1-0.7c0.5,0,0.4-1.2,1.3-1.2c0.8,0,2.3-0.4,1.7-1
		c-0.6-0.6-2.8-2.2-3-2c-0.2,0.2,2.7-1.4,3.2-0.4c0.5,1,1.4-1.2,2.8-0.7c1.4,0.4,2.3,0.7,2.7,1c0.3,0.3-1.6-0.3-1.6,0.5
		c0,0.8-0.6,1.2,0,2.4c0.6,1.2-0.2,3.4,0.1,3.4c0.3,0-0.3,0.5-0.3,0.5s-0.5,1,0,1.2c0.5,0.2-0.3,1.1,0.6,1.5
		c0.9,0.3,2.9-0.8,2.9-0.8s-1.9,1.3-2.2,1.6c-0.3,0.3-0.2,0.6,0.1,1c0.3,0.3-0.9-0.3-0.9-0.3s0.4,1.1,0.8,1.5
		c0.4,0.4-0.8-0.2-0.8-0.2l0.9,2.3l-1,0.3l0.7,2.9l-0.3,0.7c0,0-0.4,0.8,0.1,1.3c0.5,0.5-0.6,0.8-0.6,0.8S16,40,16,40.3
		c0,0.3-1.5-0.7-1.5-0.7s-0.4,2.2-0.4,2.4c0,0.1,0.1,2.6,0.5,3.6c0.4,1,0.4,2.5,0.1,3.2c-0.4,0.7-0.7,1.8-0.7,2.8
		c0,1,0.9,2.2,1.1,2.4c0.2,0.2-0.1,0.8-0.4,1.5c-0.3,0.6,0.2,1.5,0.6,1.9c0.4,0.4-0.2,1.1-0.3,0.9c-0.1-0.1-0.1,0.7,0.2,1
		C15.5,59.5,16.6,59.7,16.6,59.7z"/>
	<path class="st2" d="M21.3,4.3V1.8L10.7,2.5v2.1c0,0,1.3,0.4,2.6,0.2C14.6,4.6,21.2,4.1,21.3,4.3z"/>
	<path class="st2" d="M2.1,1.8L1.6,4c0,0,8.9,0.9,9.4,0.9c0.4,0,0-2.4,0-2.4L2.1,1.8z"/>
	<circle class="st3" cx="12.3" cy="3.7" r="0.8"/>
	<polygon class="st2" points="6.6,2.2 6.1,5.4 6.8,5.4 7.5,2.2 	"/>
	<polygon class="st2" points="16.1,2.2 15.2,2.2 15.7,5.9 16.3,6.1 	"/>
</g>
<g id="Layer_19">
</g>
</svg>
