<?xml version="1.0" encoding="utf-8"?>
<!-- Generator: Adobe Illustrator 19.1.0, SVG Export Plug-In . SVG Version: 6.00 Build 0)  -->
<svg version="1.1" xmlns="http://www.w3.org/2000/svg" xmlns:xlink="http://www.w3.org/1999/xlink" x="0px" y="0px"
	 viewBox="0 0 285.7 300" style="enable-background:new 0 0 285.7 300;" xml:space="preserve">
<style type="text/css">
	.st0{fill-rule:evenodd;clip-rule:evenodd;fill:url(#SVGID_1_);}
	.st1{fill-rule:evenodd;clip-rule:evenodd;fill:url(#SVGID_2_);}
	.st2{opacity:0.2;fill-rule:evenodd;clip-rule:evenodd;fill:#231F20;}
	.st3{fill-rule:evenodd;clip-rule:evenodd;fill:url(#SVGID_3_);}
	.st4{fill-rule:evenodd;clip-rule:evenodd;fill:#278B48;}
	.st5{fill-rule:evenodd;clip-rule:evenodd;fill:url(#SVGID_4_);}
	.st6{fill-rule:evenodd;clip-rule:evenodd;fill:url(#SVGID_5_);}
	.st7{fill-rule:evenodd;clip-rule:evenodd;fill:url(#SVGID_6_);}
	.st8{fill-rule:evenodd;clip-rule:evenodd;fill:url(#SVGID_7_);}
	.st9{opacity:0.4;fill:#FFFFFF;}
	.st10{opacity:0.4;fill-rule:evenodd;clip-rule:evenodd;fill:#FFFFFF;}
</style>
<g id="Layer_2">
</g>
<g id="Layer_1">
	<g>
		<g>
			<linearGradient id="SVGID_1_" gradientUnits="userSpaceOnUse" x1="61.8559" y1="158.1509" x2="19.6342" y2="149.8345">
				<stop  offset="0.11" style="stop-color:#34BD3B"/>
				<stop  offset="1" style="stop-color:#71E35D"/>
			</linearGradient>
			<path class="st0" d="M67.8,98.4c7.7-40.7-4-66.1-7.8-73.3c-6.6,2.2-17.2,11.4-31,61.5c-17.2,62.6-24.5,90-24,113.6
				c0.4,18.2-0.4,41.2-0.6,53.3c-0.1,8.4,1.8,22.6,5.9,27c4-4.4,22.8-6.6,29.4,0.6c0,0,3.9-2.8,2.8-19.8
				c-1.1-17.1,1.1-47.3,2.2-61.6c1.1-14.3,7.7-38,12.1-55.1C61.2,127.6,67.8,98.4,67.8,98.4z"/>
			<linearGradient id="SVGID_2_" gradientUnits="userSpaceOnUse" x1="144.4424" y1="172.8237" x2="143.1629" y2="51.2764">
				<stop  offset="0.11" style="stop-color:#34BD3B"/>
				<stop  offset="1" style="stop-color:#71E35D"/>
			</linearGradient>
			<path class="st1" d="M144,251.2c-26.2,2.2-40.8,0-54,0c-13.2,0-22.4,1.1-22.4,1.1s-4.2-6.6-3.1-22c0.9-12.8,0.6-27.8,1.1-37.2
				c0.6-9.4,2.6-22.1,0.6-41.8c-1.1-10.5,1.7-52.9,1.7-52.9c7.7-40.7-4-66.1-7.8-73.3c14.9-5.5,53-20.9,53-20.9
				c0.5,18.2,12.2,30.7,30,30.7s29.4-12.4,30-30.7c0,0,38.1,15.4,53,20.9c-3.9,7.2-15.6,32.5-7.8,73.3c0,0,2.8,42.4,1.7,52.9
				c-2.1,19.7,0,32.5,0.6,41.8c0.6,9.4,0.2,24.3,1.1,37.2c1.1,15.4-3.1,22-3.1,22s-9.1,0.5-23.6,1.8
				C181.4,255.2,169.2,249.1,144,251.2z"/>
			<path class="st2" d="M214.9,234c-4.5,2.6-11.9,4.4-17.1,4.3c11.5-6.6,16.9-15.4,17.8-28.5c0.6-8.3,2.4-21.6-0.7-29.4
				c-4.4-10.9-6.3,0.7-8.2,6.9c-6.2,19.6-21.9,33.4-42.1,36.9c10.4-0.7,20.7,4.2,30.9,1.9c-11.3,6.3-24.1,9.7-36.7,12.2
				c-18.6,3.7-43.6,4.9-60.6-5.8c-11.6-7.3-17.2-22.9-19.4-35.8c17.4,16.5,38.9,11.3,59.2,5.7c-9.4,0.4-18.8-0.2-27.6-3.9
				c-31.6-13.3-44.1-61-24.8-88c-3,2.7-6.8,5.1-10.6,6.1c7.1-12.1,12.1-30,6.2-43.8c-0.8,4-0.2,8.2-1.1,12.2
				c-1.4,6.1-6.1,10.9-7.8,16.8c0-4.1,0.4-8.5,0-12.5c-0.3-2.9-1.3-5.8-2.1-8.6c-0.4,5.6-1.1,11.5-2.3,17.8c0,0-2.8,42.4-1.7,52.9
				c2.1,19.7,0,32.5-0.6,41.8c-0.6,9.4-0.2,24.3-1.1,37.2c-1.1,15.4,3.1,22,3.1,22s9.2-1.1,22.4-1.1s27.8,2.2,54,0
				c25.2-2.1,37.4,4,50.6,2.8c6.8-0.6,12.4-1,16.4-1.3C214.1,247.9,215.6,241.8,214.9,234z"/>
			<linearGradient id="SVGID_3_" gradientUnits="userSpaceOnUse" x1="223.0647" y1="158.8626" x2="261.4481" y2="150.5462">
				<stop  offset="0.11" style="stop-color:#34BD3B"/>
				<stop  offset="1" style="stop-color:#71E35D"/>
			</linearGradient>
			<path class="st3" d="M218,98.4c-7.7-40.7,4-66.1,7.8-73.3c6.6,2.2,17.2,11.4,31,61.5c17.2,62.6,24.5,90,24,113.6
				c-0.4,18.2,0.4,41.2,0.6,53.3c0.1,8.4-1.8,22.6-5.9,27c-4-4.4-22.8-6.6-29.4,0.6c0,0-3.9-2.8-2.8-19.8
				c1.1-17.1-1.1-47.3-2.2-61.6c-1.1-14.3-7.7-38-12.1-55.1C224.6,127.6,218,98.4,218,98.4z"/>
			<path class="st4" d="M112.9,4.3c0,0,8.1,9.8,30,9.8c21.8,0,30-9.8,30-9.8s7.7,33.1-29.5,33.1C106.3,37.4,112.9,4.3,112.9,4.3z"/>
			<path class="st4" d="M107.2,6.5c0,0,9.7,13.5,35.7,13.5c26,0,35.7-13.5,35.7-13.5l-5.8-2.3c0,0-8.1,9.8-30,9.8
				c-21.8,0-30-9.8-30-9.8L107.2,6.5z"/>
			<linearGradient id="SVGID_4_" gradientUnits="userSpaceOnUse" x1="142.888" y1="53.6769" x2="142.888" y2="12.7034">
				<stop  offset="0.11" style="stop-color:#34BD3B"/>
				<stop  offset="1" style="stop-color:#71E35D"/>
			</linearGradient>
			<path class="st5" d="M112.9,4.3c0.5,18.2,12.2,30.7,30,30.7s29.4-12.4,30-30.7l5.8,2.3C178,26.2,163.6,41,142.9,41
				s-35.1-14.7-35.7-34.5L112.9,4.3z"/>
			<path class="st4" d="M247.5,294.6c2.5,2.9,5.5,1.4,12.8,1.4c7.3,0,12.6,1.4,13.9-1.9c0.8-1.9-4.5-8.6-11.5-8.1
				C255.7,286.5,249.3,286.4,247.5,294.6z"/>
			<linearGradient id="SVGID_5_" gradientUnits="userSpaceOnUse" x1="254.2724" y1="285.5475" x2="265.0109" y2="285.5475">
				<stop  offset="0.11" style="stop-color:#34BD3B"/>
				<stop  offset="1" style="stop-color:#71E35D"/>
			</linearGradient>
			<path class="st6" d="M275.5,280.6c-4-4.4-22.8-6.6-29.4,0.6c1.2,5,1.4,13.4,1.4,13.4s3.8-4.3,11.6-3c5.4,0.9,10.6-2.4,15.2,2.5
				C274.3,294.1,274.1,285.8,275.5,280.6z"/>
			<path class="st4" d="M38.3,294.6c-2.5,2.9-5.5,1.4-12.8,1.4c-7.3,0-12.6,1.4-13.9-1.9c-0.8-1.9,4.5-8.6,11.5-8.1
				C30.1,286.5,36.5,286.4,38.3,294.6z"/>
			<linearGradient id="SVGID_6_" gradientUnits="userSpaceOnUse" x1="36.6253" y1="289.2216" x2="25.9633" y2="286.6627">
				<stop  offset="0.11" style="stop-color:#34BD3B"/>
				<stop  offset="1" style="stop-color:#71E35D"/>
			</linearGradient>
			<path class="st7" d="M10.3,280.6c4-4.4,22.8-6.6,29.4,0.6c-1.2,5-1.4,13.4-1.4,13.4s-3.8-4.3-11.6-3c-5.4,0.9-10.6-2.4-15.2,2.5
				C11.5,294.1,11.7,285.8,10.3,280.6z"/>
			<path class="st4" d="M217.2,268.9c-1,3.5-7.9,1.9-15.2,1.9s-25.5,3.1-57.5,2.7c-33.3-0.4-53.3-2.7-60.6-2.7
				c-7.3,0-14.3,1.6-15.2-1.9c0,0,3.3-11.6,24.6-12.9c21.3-1.3,112.2-1.7,116.9,1.3C214.8,260.2,217.2,268.9,217.2,268.9z"/>
			<linearGradient id="SVGID_7_" gradientUnits="userSpaceOnUse" x1="142.8877" y1="251.4579" x2="142.8877" y2="267.3297">
				<stop  offset="0.11" style="stop-color:#34BD3B"/>
				<stop  offset="1" style="stop-color:#71E35D"/>
			</linearGradient>
			<path class="st8" d="M218.2,252.3c0,0-9.1-5.4-23.6-3.9c-17,1.7-33.9-2.1-59.1,0c-26.2,2.2-31.8-1.2-45-1.2
				c-13.2,0-22.9,5.1-22.9,5.1l-0.2-0.2c1.4,5.2,1.2,16.8,1.2,16.8c4.6-4.9,13.4-5.3,20.9-4.9c6.8,0.4,15,3.2,37.4,1.4
				c11-0.9,18.6-1.6,34.1,0c23.9,2.5,30.2,0.4,36.9,0c7.5-0.4,14.6-1.5,19.2,3.5c0,0-0.2-11.6,1.2-16.8L218.2,252.3z"/>
		</g>
		<path class="st2" d="M274.9,261.3c-8.2,9.8-15.7-7.7-18.5-13.3c-0.7,6.5,2.5,15.4,6.9,20.2c-5.6-3.1-7.9-7.4-10.3-13.2
			c-8.8-21.4,7.6-50.8-8.5-69.9c4.3,2.4,11.7,0.5,16.8,0.6c-8.1-3.1-11.5-7-15.7-14.4c-7.9-13.9-9.4-29.8-12.9-45.2
			c-1.6-6.9-3.9-13.8-5.5-20.6c-2.1-8.6,2.3-12.6,6.7-20.2c-3.8,1.4-7.9,3.8-11.2,6.2c2.2-4.5,5.2-13.2,4.3-18.4
			c-3.9,1.7-5.3,6.4-8.1,9.4c-2.8-7.1-0.8-14.4-2.7-21.7l-0.2,0.2c-0.9,10.4-0.6,22.8,2.1,37.2c0,0,6.6,29.2,11,46.2
			c4.4,17.1,11,40.7,12.1,55.1c1.1,14.3,3.3,44.5,2.2,61.6c-1.1,17.1,2.8,19.8,2.8,19.8c5.3-5.8,18.6-5.5,25.6-2.8
			C276.5,274.4,278.9,268.3,274.9,261.3z"/>
		<path class="st2" d="M56.8,144.7c4.4-17.1,11-46.2,11-46.2c1.7-9,2.5-17.2,2.6-24.7c-1-4.2-2.2-8.4-3.3-12.5
			c0,9.3-1.7,17.6-2.5,26.5c-2.4-7.8-4.9-16.4-10.2-22.7C56,75.4,58,86.1,60.6,96.1c-3.4,0.2-6.9-0.3-10,0.9c3.9,1.3,8,3.1,11.9,3.8
			c-7.4,5.3-13.1,13.9-20.8,19.1c5.9,0,13.6-5.3,18.9-8.2c-8,10.5-11.3,23-14.7,35.4c-2,7.3-3.7,14.1-7.3,20.8
			c-4.6,8.5-11.1,12-17.3,18.6c6.5,0.1,12.4-5.1,17.6-8.3c-2.5,13.2-6.4,26.1-8.9,39.2c-2,11,8.5,31.8,0.2,40.8
			c-5.5,6-15.5,2.8-18.7-3.8c0.1,4.5,2.4,8.7,5.4,12c-2.6,0.1-5.1-0.5-7.3-1.9c0,4.3,1.8,9.1,4.8,13.8c7.1-2.6,20.1-2.8,25.4,2.9
			c0,0,3.9-2.8,2.8-19.8c-1.1-17.1,1.1-47.3,2.2-61.6C45.8,185.4,52.4,161.8,56.8,144.7z"/>
		<path class="st2" d="M89.6,264c-7.5-0.4-16.4,0-20.9,4.9c0,0,0.2-11.6-1.2-16.8l0.2,0.2c0,0,9.6-5.1,22.9-5.1
			c9.5,0,15.1,1.8,27.3,1.9l-0.4,1.1c-5.8,0-11.6,0.9-17.5,0.4c-5-0.4-10.7-2.5-15.6-0.8c5.6,3.9,15.7,3.8,22.3,3.8
			c-7,2.6-15.7,3.3-23.2,3.3c9.4,1.6,18.1,4.9,27.5,7.1c2.8,0.7,5.7,1.2,8.5,1.8C102.6,266.6,95.5,264.4,89.6,264z M218.2,252.3
			c0,0-9.1-5.4-23.6-3.9c-8.1,0.8-16.2,0.4-25.1-0.1c10.2,2.1,20.9,3.2,30.9,6.5c-4.8,1.6-11.8,1.9-16.1,2.7
			c5.2,1.1,10.6,1.5,15.8,2.2c-7,3-15,2.9-22.9,2.9c5.6,1.3,11.5,2.4,17.3,3.2c1.2-0.1,2.4-0.3,3.5-0.3c7.5-0.4,14.6-1.5,19.2,3.5
			c0,0-0.2-11.6,1.2-16.8L218.2,252.3z"/>
		<path class="st9" d="M58.7,34.9c-2-1.5-4.2-1.4-6.3-1.9c-8.2,10.8-18.7,29.5-15.6,43.3c-0.6-0.1-1.1-0.7-1.7-1
			c0.4,1.6-0.4,3.8-0.2,5.4c-0.9,0-2.1,0.3-3,0.2c0.3,2,1.7,5.5,1.1,7.6c-0.7,2.9-3,2.8-3.8,4.7c-2.2,5.1-0.5,7.3-0.7,12.8
			c-0.3,8.2-6.4,15.6-8,23.7c-1.7,8.7,1.9,16.5-1.4,25.1c-6.9,18.2-9.3,32.5-8.3,52.6c0.8-0.6,2.6-0.8,3.6-1.6
			c-3.5,13.8-3.5,34.8-0.6,48.8c10.4-6.2,5.6-21.4,5.1-31.5c-0.2-5.1-0.4-10.7,0.8-15.5c1.3-5.7,6.3-10.9,6.1-16.6
			c-2.6,3.1-8.2,5.9-12.4,6.9c3.8-12.2,3.2-22.3,9.7-33.5c6.6-11.4,8.3-25.1,16.8-35.6c-5.4,2.2-10.5,5.2-15.7,7.7
			c7-12.2,4.8-27.3,18.3-35.1c-4.3,0.6-9.9-0.7-12.7-3.8c1.9-2.5,8.4-2.4,9.3-4.3c1.2-2.5-2.7-6.3-3.9-8.4c2.9,0.3,6.3,0.7,9.3,1.1
			c-2.2-8.7-4-17.4-0.6-26.4c3.2-8.8,8.9-12.9,9.2-22.7c4.3,2.4,6.9,6.9,10.8,10c1.1-3.6,1.1-7.9,0.3-12c-0.6-1.5-1.1-2.9-1.6-4.1
			C60.9,31.6,59.7,33.2,58.7,34.9z"/>
		<path class="st9" d="M226.5,34.9c2-1.5,4.2-1.4,6.3-1.9c8.2,10.8,18.7,29.5,15.6,43.3c0.6-0.1,1.1-0.7,1.7-1
			c-0.4,1.6,0.4,3.8,0.2,5.4c0.9,0,2.1,0.3,3,0.2c-0.3,2-1.7,5.5-1.1,7.6c0.7,2.9,3,2.8,3.8,4.7c2.2,5.1,0.5,7.3,0.7,12.8
			c0.3,8.2,6.4,15.6,8,23.7c1.7,8.7-1.9,16.5,1.4,25.1c6.9,18.2,9.3,32.5,8.3,52.6c-0.8-0.6-2.6-0.8-3.6-1.6
			c3.5,13.8,3.5,34.8,0.6,48.8c-10.4-6.2-5.6-21.4-5.1-31.5c0.2-5.1,0.4-10.7-0.8-15.5c-1.3-5.7-6.3-10.9-6.1-16.6
			c2.6,3.1,8.2,5.9,12.4,6.9c-3.8-12.2-3.2-22.3-9.7-33.5c-6.6-11.4-8.3-25.1-16.8-35.6c5.4,2.2,10.5,5.2,15.7,7.7
			c-7-12.2-4.8-27.3-18.3-35.1c4.3,0.6,9.9-0.7,12.7-3.8c-1.9-2.5-8.4-2.4-9.3-4.3c-1.2-2.5,2.7-6.3,3.9-8.4
			c-2.9,0.3-6.3,0.7-9.3,1.1c2.2-8.7,4-17.4,0.6-26.4c-3.2-8.8-8.9-12.9-9.2-22.7c-4.3,2.4-6.9,6.9-10.8,10c-1.1-3.6-1.1-7.9-0.3-12
			c0.6-1.5,1.1-2.9,1.6-4.1C224.3,31.6,225.6,33.2,226.5,34.9z"/>
		<path class="st10" d="M94.6,209.4c0,0,32,24.9,80.6,20.5C175.2,229.9,124,251,94.6,209.4z"/>
	</g>
</g>
</svg>
