<?xml version="1.0" encoding="utf-8"?>
<!-- Generator: Adobe Illustrator 19.1.0, SVG Export Plug-In . SVG Version: 6.00 Build 0)  -->
<svg version="1.1" xmlns="http://www.w3.org/2000/svg" xmlns:xlink="http://www.w3.org/1999/xlink" x="0px" y="0px"
	 viewBox="0 0 200 223.1" style="enable-background:new 0 0 200 223.1;" xml:space="preserve">
<style type="text/css">
	.st0{fill:#FFE8D1;}
	.st1{fill:#B03120;}
	.st2{fill:#FF3918;}
	.st3{opacity:0.5;fill:#B03120;}
	.st4{fill:#FFFCFC;}
	.st5{fill:#211D1C;}
</style>
<g id="background">
</g>
<g id="objects">
	<g>
		<path class="st0" d="M115.1,67.7c0,0-1.1,6.2-3.1,11.4c-2,5.2-6.6,11.1-6.6,11.1s6.3,2.2,7.5,6.3c1.3,4.1,0.2,8.5,3.7,11
			c3.5,2.4,11.4,0.4,13.1,5.6c1.7,5.2-2,7.8,1.8,11.3c3.9,3.5,6.3,3.7,6.3,3.7s14.3-5.7,18.7-7.4c4.3-1.7,9.7-6.7,9.7-6.7
			s0.4-6.9-2-10.4c-2.4-3.5-6.8-3.7-10.5-6.3c-3.7-2.6-3.9-8.9-7.7-11.3c-3.9-2.4-12.3-4.1-15.4-5.4c-3.1-1.3-2.6-8.5-5-10.8
			C123,67.5,115.1,67.7,115.1,67.7z"/>
		<path class="st0" d="M93.4,55.4c0,0-4.6-1.9-8.6-0.4c-4,1.5-5.5,8.2-9.9,8.2c-4.4,0-8.8-0.2-10.8,1.1c-2,1.3-3.7,8.5-8.6,11.1
			c-5,2.6-12,0.6-15.6,1.9c-3.7,1.3-6.8,5-7.5,6.5c-0.7,1.5-1.8,3.7-1.8,3.7s12,12.1,15.3,16.3c3.3,4.3,5.9,7.4,5.9,7.4
			s0.7-4.3,6.6-6.1c5.9-1.9,10.5-2.4,13.1-5.6c2.6-3.2,4.6-6.3,7.9-6.7c3.3-0.4,7.9,1.3,10.5-1.7c2.6-3,8.5-11.1,8.5-11.1
			s-4.3-4.8-5.1-10.1C92.1,64.7,93.4,55.4,93.4,55.4z"/>
		<g>
			<path class="st1" d="M42.1,96.5c0.2,0.1,0.5,0.1,0.7,0.2c-0.1,0.1-0.1,0.2,0,0.3c-0.1,0.1-0.1,0.1-0.1,0.2
				c-0.1,0.2-0.3,0.4-0.4,0.7c-0.1,0.3,0.2,0.6,0.5,0.3c0.3-0.2,0.6-0.8,0.6-1.2c0.3-0.1,0.6-0.1,0.9-0.2c-0.1,0.2-0.2,0.5-0.2,0.7
				c0,0.3,0.3,0.3,0.4,0.2c0.2-0.3,0.3-0.7,0.2-1c0.9-0.3,1.7-0.7,2.6-1.1c0.3,0.1,0.5,0.1,0.8,0.3c-0.1,0.2-0.2,0.4-0.3,0.6
				c0,0.1-0.1,0.2-0.2,0.3c-0.3,0.1-0.7,0.3-1,0.4c-0.3,0.1-0.5,0.2-0.7,0.5c0,0,0,0.1,0,0.1c0.3,0.1,0.6,0,0.8-0.2
				c0.1-0.1,0.3-0.1,0.4-0.2c-0.2,0.4-0.4,0.8-0.5,1.2c0,0,0.1,0.1,0.1,0c0.3-0.3,0.5-0.7,0.7-1.1c0,0.1,0.1,0.2,0.1,0.3
				c0.1,0.2,0.1,0.5,0.3,0.7c0.1,0,0.1,0,0.2-0.1c0.1-0.2,0-0.6-0.1-0.8c-0.1-0.2-0.1-0.5-0.2-0.7c0,0,0-0.1,0-0.1
				c0.1-0.3,0.3-0.6,0.4-0.8c0.2,0.1,0.3,0.3,0.4,0.4c0,0.1,0.1,0.1,0.1,0.2c-0.1,0.7-0.1,1.5-0.2,2.2c-0.1,0-0.2,0.1-0.3,0.1
				c-0.3,0.1-0.6,0.3-0.7,0.6c-0.1,0.2,0.1,0.4,0.3,0.3c0.2-0.1,0.4-0.3,0.6-0.5c0,0,0,0,0,0c0,0.3-0.1,0.6-0.1,0.9
				c-0.5-0.1-1,0.4-1.2,0.8c-0.1,0.2,0.2,0.5,0.4,0.4c0.2-0.1,0.4-0.3,0.6-0.4c0.1-0.1,0.2-0.1,0.2-0.2c0.1,0.1,0.2,0.3,0.4,0.4
				c0.1,0.2,0.2,0.3,0.4,0.4c0.2,0.1,0.4-0.1,0.3-0.3c-0.1-0.4-0.5-0.8-0.9-1c0-0.2,0.1-0.5,0.1-0.7c0,0,0,0,0,0
				c0.1,0.2,0.3,0.4,0.5,0.5c0.2,0.2,0.5-0.1,0.5-0.3c-0.1-0.4-0.4-0.8-0.8-0.9c0.1-0.8,0.3-1.7,0.4-2.5c0.1-0.1,0.2-0.3,0.3-0.4
				c0.1,0.3,0.2,0.7,0.3,1c0,0,0,0.1,0,0.1c-0.1,0.2-0.2,0.4-0.3,0.6c-0.1,0.2-0.3,0.5-0.2,0.8c0,0.1,0.1,0.1,0.2,0.1
				c0.2-0.1,0.3-0.4,0.4-0.6c0-0.1,0.1-0.2,0.1-0.3c0.1,0.4,0.2,0.9,0.5,1.3c0,0,0.1,0,0.1,0c0-0.4-0.1-0.9-0.2-1.3
				c0.1,0.1,0.3,0.2,0.4,0.3c0.2,0.2,0.5,0.3,0.8,0.3c0,0,0.1,0,0.1-0.1c-0.1-0.3-0.3-0.5-0.6-0.6c-0.3-0.2-0.6-0.4-0.9-0.6
				c0-0.1-0.1-0.2-0.1-0.3c-0.1-0.3-0.2-0.5-0.2-0.8c0,0,0.1,0,0.1,0c0.3,0,0.5,0.1,0.7,0.1c0.6,0.6,1.2,1.2,1.9,1.7
				c-0.1,0.2-0.3,0.5-0.3,0.8c-0.1,0.3,0.3,0.5,0.5,0.2c0.1-0.2,0.2-0.5,0.3-0.7c0.2,0.1,0.4,0.3,0.6,0.4c-0.1,0.2-0.2,0.4-0.2,0.5
				c-0.1,0.3-0.1,0.5-0.1,0.8c0,0.3,0.5,0.3,0.6,0.1c0.1-0.3,0.1-0.5,0.1-0.8c0-0.1,0-0.3,0-0.4c0,0,0,0,0,0c0,0,0.1,0,0.1,0
				c0.3,0,0.7-0.1,1-0.2c0.2,0,0.3-0.3,0.1-0.4c-0.3-0.1-0.5-0.1-0.8-0.1c-0.2,0-0.4,0-0.6,0.1c-0.1-0.2-0.3-0.4-0.4-0.5
				c0.2,0,0.3,0,0.4-0.1c0.1,0,0.4-0.1,0.4-0.3c0-0.2-0.4-0.2-0.5-0.2c-0.2,0-0.5,0-0.6,0.2c-0.5-0.6-1.1-1.1-1.7-1.6
				c-0.1-0.4-0.2-0.8-0.1-1.2c0.2,0,0.4,0.1,0.5,0.1c0.1,0,0.3,0.1,0.4,0.1c0.1,0.2,0.3,0.4,0.4,0.6c0.1,0.2,0.3,0.5,0.5,0.5
				c0.1,0,0.1,0,0.2-0.1c0-0.3-0.2-0.5-0.3-0.7C53.1,95,53,94.9,53,94.8c0.4,0.1,0.9,0.2,1.3,0.1c0.1,0,0-0.1,0-0.1
				c-0.4-0.2-0.8-0.3-1.2-0.4c0.2-0.1,0.3-0.2,0.4-0.2c0.3-0.1,0.6-0.3,0.7-0.6c0,0,0-0.1-0.1-0.1c-0.3-0.1-0.6,0.1-0.9,0.3
				c-0.3,0.2-0.6,0.3-0.9,0.5c0,0,0,0,0,0c-0.1,0-0.1,0-0.2,0c-0.2,0-0.4-0.1-0.7-0.1c0,0,0,0,0-0.1c0.1-0.4,0.4-0.6,0.7-0.9
				c0.7-0.4,1.3-0.7,1.9-1.1c0.1,0,0.1,0.1,0.2,0.1c0.1,0.1,0.2,0.3,0.4,0.4c0.1,0,0.1,0,0.2,0c0,0,0.1,0,0.1-0.1
				c0-0.1,0.1-0.2,0-0.2c-0.1-0.2-0.3-0.4-0.5-0.5c0.1-0.1,0.3-0.2,0.4-0.3c0.1,0.1,0.2,0.2,0.3,0.3c0.2,0.1,0.4,0.3,0.7,0.3
				c0.1,0,0.3-0.1,0.2-0.3c-0.1-0.3-0.3-0.5-0.6-0.5c-0.1,0-0.3-0.1-0.4-0.1c0,0-0.1,0-0.1,0c0.2-0.3,0.8-1.2,0.4-1.4
				c-0.4-0.2-0.7,1.1-0.8,1.3c0,0,0,0.1,0,0.1c-0.2,0.1-0.3,0.1-0.5,0.2c0.1-0.1,0.1-0.3,0.2-0.5c0.1-0.2,0.1-0.3,0-0.5
				c0,0,0,0-0.1,0c-0.2,0.1-0.2,0.2-0.3,0.3c-0.1,0.2-0.2,0.4-0.3,0.7c0,0.1,0,0.1,0,0.2c-0.7,0.3-1.4,0.7-2.1,1
				c-0.4,0-0.7,0-1.1-0.2c0.1-0.2,0.3-0.4,0.5-0.7c0-0.1,0.1-0.1,0.1-0.2c0.3,0,0.5-0.1,0.8-0.2c0.2-0.1,0.5-0.1,0.7-0.3
				c0-0.1,0-0.1-0.1-0.2c-0.2-0.1-0.6,0-0.8,0.1c-0.1,0-0.1,0-0.2,0.1c0.3-0.4,0.5-0.7,0.6-1.2c0-0.1,0-0.1-0.1-0.1
				c-0.3,0.2-0.6,0.6-0.8,1c0-0.2,0-0.3,0-0.5c0-0.3,0-0.6-0.3-0.8c0,0-0.1,0-0.1,0c-0.1,0.2-0.1,0.5-0.1,0.8c0,0.4,0,0.8,0.1,1.1
				c0,0,0,0,0,0c0,0.1-0.1,0.1-0.1,0.2c-0.2,0.2-0.3,0.5-0.5,0.7c-0.3-0.2-0.4-0.5-0.6-0.7c0-0.4,0-0.8,0-1.2c0.3,0,0.4-0.3,0.6-0.5
				c0,0,0-0.1,0-0.1c-0.2,0-0.4,0.1-0.5,0.2c0-0.2,0-0.4,0-0.6c0.3-0.1,0.5-0.3,0.7-0.4c0.1-0.1,0.4-0.3,0.3-0.5
				c-0.1-0.2-0.4,0-0.5,0.1c-0.1,0.1-0.3,0.2-0.5,0.3c0-0.1-0.1-0.1-0.2-0.1c0,0,0,0,0-0.1c-0.2-0.2-0.3-0.5-0.5-0.7
				c-0.2-0.2-0.6,0-0.5,0.3c0.1,0.2,0.3,0.5,0.5,0.7c0.1,0.1,0.2,0.3,0.4,0.4c0,0.2,0,0.4,0,0.6c-0.1-0.1-0.2-0.2-0.3-0.3
				c-0.2-0.2-0.5,0.1-0.3,0.3c0.2,0.2,0.4,0.4,0.6,0.5c0,0.3,0,0.6-0.1,0.8l0,0c-0.1,0.2-0.2,0.4-0.3,0.5c-0.1,0.2-0.3,0.3-0.5,0.4
				c0,0-0.1,0-0.1,0c-0.1-0.3-0.3-0.6-0.4-0.8c0-0.1-0.1-0.1-0.1-0.2c0,0,0,0,0,0c0.2-0.3,0.2-0.7,0.3-1.1c0.1-0.3,0.1-0.5,0-0.8
				c0,0-0.1-0.1-0.1,0c-0.2,0.2-0.3,0.5-0.4,0.8c0,0.2-0.1,0.3-0.1,0.5c-0.2-0.4-0.4-0.8-0.7-1.1c0,0-0.1,0-0.1,0
				c0,0.4,0.2,0.8,0.4,1.3c-0.1,0-0.1-0.1-0.2-0.1c-0.2-0.1-0.5-0.3-0.8-0.2c-0.1,0-0.1,0.1-0.1,0.2c0.1,0.2,0.4,0.3,0.6,0.4
				c0.2,0.1,0.5,0.2,0.7,0.3c0,0.1,0.1,0.1,0.1,0.2c0.1,0.3,0.2,0.5,0.4,0.8c-0.1,0-0.2,0-0.3,0c-0.1,0-0.1,0-0.1,0
				c-0.8-0.6-1.5-1.2-2.3-1.8c0.2-0.3,0.3-0.9-0.1-1c0,0-0.1,0-0.1,0c-0.1,0.1-0.1,0.3-0.1,0.5c0,0.1,0,0.2,0,0.3
				c-0.1-0.1-0.3-0.2-0.4-0.3c0.1-0.3,0.1-0.8-0.1-1.1c-0.1-0.2-0.4-0.1-0.4,0.1c0,0.3,0.1,0.6,0.1,0.9c0,0,0,0,0,0
				c-0.3-0.1-0.6-0.1-0.9,0c-0.3,0.1-0.1,0.6,0.2,0.6c0.3,0,0.7-0.1,1-0.2c0.1,0.1,0.2,0.1,0.2,0.2c-0.2,0-0.4,0.1-0.6,0.2
				c-0.2,0.1-0.5,0.2-0.4,0.5c0.1,0.4,1,0,1.4-0.3c0.7,0.6,1.4,1.1,2.1,1.7c0,0,0,0,0,0.1c0.1,0.4,0.3,0.6,0.4,1c-0.4,0-0.8,0-1.3,0
				c-0.1,0-0.1,0-0.2,0c0,0,0,0,0,0c-0.2-0.3-0.5-0.5-0.8-0.7c-0.2-0.2-0.5-0.4-0.8-0.4c0,0-0.1,0-0.1,0.1c0,0.3,0.3,0.5,0.6,0.7
				c0.1,0.1,0.3,0.2,0.4,0.3c-0.4,0-0.9,0-1.3,0.1c0,0-0.1,0.1,0,0.1c0.4,0.1,0.9,0.1,1.3,0.1c-0.1,0.1-0.2,0.1-0.2,0.2
				c-0.2,0.2-0.4,0.3-0.4,0.6c0,0.1,0.1,0.1,0.1,0.1c0.3,0,0.4-0.3,0.6-0.4c0.2-0.2,0.4-0.3,0.5-0.5c0.1,0,0.3,0,0.4,0
				c0.4,0,0.7,0,1.1,0c0,0,0,0,0,0.1c0,0.3-0.2,0.4-0.3,0.6c-1,0.4-2,0.8-3,1.2c0-0.1-0.1-0.1-0.1-0.2c-0.2-0.2-0.5-0.4-0.8-0.5
				c-0.2,0-0.4,0.3-0.2,0.4c0.1,0.1,0.4,0.3,0.6,0.5c-0.2,0.1-0.4,0.2-0.6,0.3c-0.3-0.2-0.6-0.5-1-0.5C41.9,96,41.8,96.4,42.1,96.5z
				 M48.2,94.1c0.2,0,0.4,0,0.6,0c0,0,0.1,0,0.1,0.1c-0.3,0.1-0.5,0.2-0.8,0.3C48.1,94.4,48.2,94.3,48.2,94.1
				C48.2,94.1,48.2,94.1,48.2,94.1z M48.1,93.5c0.1,0.1,0.2,0.2,0.4,0.3c-0.1,0-0.2,0-0.3,0C48.2,93.7,48.2,93.6,48.1,93.5z
				 M48.4,92.8c0,0.1,0.1,0.2,0.1,0.2c-0.1-0.1-0.2-0.1-0.3-0.2C48.3,92.9,48.4,92.9,48.4,92.8z M49.3,92.4c0,0.4-0.1,0.8-0.1,1.3
				c0,0-0.1-0.1-0.1-0.1c-0.1-0.3-0.2-0.5-0.4-0.8c0.1,0,0.3-0.1,0.3-0.2C49.1,92.6,49.2,92.5,49.3,92.4z M50.2,92.8
				c-0.1,0.2-0.3,0.4-0.4,0.6c0-0.3,0-0.7,0.1-1C49.9,92.5,50,92.6,50.2,92.8z M50.9,93.2c-0.3,0.2-0.7,0.3-1,0.5
				c0.2-0.2,0.3-0.5,0.5-0.7C50.6,93,50.8,93.1,50.9,93.2z M51.1,94.1c-0.2,0-0.3-0.1-0.5-0.1c0.2-0.1,0.4-0.2,0.6-0.3
				C51.2,93.8,51.1,94,51.1,94.1C51.1,94.1,51.1,94.1,51.1,94.1z M51,95.2c-0.4-0.3-0.7-0.6-1-0.9c0.1,0,0.1-0.1,0.2-0.1
				c0.3,0.1,0.6,0.1,0.8,0.2C51,94.7,51,94.9,51,95.2z M50,95.4c0-0.2-0.1-0.3-0.2-0.5c0.2,0.1,0.3,0.3,0.5,0.4
				C50.1,95.4,50,95.4,50,95.4z M49.6,95.7c0-0.1,0-0.2,0-0.4c0,0.1,0.1,0.2,0.1,0.3C49.6,95.6,49.6,95.6,49.6,95.7z M48.7,95.5
				c0.1-0.2,0.2-0.5,0.3-0.7c0,0,0.1,0,0.1-0.1c0,0.4-0.1,0.7-0.1,1.1C48.9,95.7,48.8,95.6,48.7,95.5z M48.2,95.2
				c0.1-0.1,0.3-0.1,0.4-0.2c-0.1,0.1-0.1,0.2-0.2,0.3C48.3,95.3,48.2,95.3,48.2,95.2z"/>
		</g>
		<g>
			<path class="st1" d="M65,88.6c0.2-0.1,0.4-0.2,0.6-0.4c0,0.1,0.1,0.2,0.3,0.2c0,0.1,0,0.2,0,0.3c0.1,0.2,0.1,0.5,0.2,0.7
				c0.2,0.2,0.6,0.2,0.6-0.1c0-0.4-0.2-1-0.5-1.3c0.2-0.3,0.3-0.6,0.5-0.8c0.1,0.2,0.2,0.5,0.4,0.6c0.2,0.2,0.4,0,0.4-0.2
				c0-0.4-0.3-0.7-0.6-0.9c0.4-0.8,0.7-1.7,1-2.6c0.2-0.1,0.5-0.3,0.7-0.4c0.1,0.2,0.2,0.4,0.2,0.6c0,0.1,0.1,0.2,0.1,0.3
				c-0.2,0.3-0.3,0.7-0.4,1c-0.1,0.3-0.2,0.6-0.1,0.9c0,0,0.1,0.1,0.1,0c0.3-0.1,0.4-0.5,0.5-0.7c0-0.1,0.1-0.3,0.2-0.5
				c0.1,0.4,0.3,0.8,0.5,1.2c0,0,0.1,0,0.1,0c0-0.4-0.2-0.9-0.3-1.3c0.1,0.1,0.2,0.1,0.3,0.2c0.2,0.1,0.4,0.3,0.7,0.2
				c0.1,0,0.1-0.1,0.1-0.2c-0.1-0.3-0.4-0.4-0.6-0.5c-0.2-0.1-0.4-0.3-0.6-0.3c0,0,0-0.1,0-0.1c-0.1-0.3-0.2-0.6-0.3-0.9
				c0.2,0,0.4,0,0.6,0c0.1,0,0.1,0,0.2,0c0.5,0.6,1,1.1,1.4,1.7c-0.1,0.1-0.1,0.2-0.2,0.3c-0.1,0.3-0.2,0.7,0,0.9
				c0.1,0.2,0.4,0.2,0.4,0c0.1-0.2,0.1-0.5,0.1-0.8c0,0,0,0,0,0c0.2,0.2,0.4,0.4,0.6,0.7c-0.4,0.3-0.4,1-0.3,1.4
				c0.1,0.2,0.5,0.2,0.5,0c0.1-0.2,0.1-0.5,0.1-0.7c0-0.1,0-0.2,0-0.3c0.2,0,0.4,0,0.6,0c0.2,0,0.4,0,0.6,0c0.2-0.1,0.2-0.4,0-0.4
				c-0.3-0.2-0.9-0.1-1.3,0c-0.1-0.2-0.3-0.4-0.4-0.6c0,0,0,0,0,0c0.2,0,0.4,0,0.7,0c0.2,0,0.3-0.4,0.1-0.5c-0.3-0.2-0.9-0.2-1.2,0
				c-0.5-0.7-1-1.3-1.5-2c0-0.2,0-0.3,0-0.5c0.3,0.2,0.6,0.3,0.9,0.5c0,0,0,0,0.1,0c0,0.2,0.1,0.5,0.2,0.7c0.1,0.2,0.2,0.6,0.4,0.7
				c0.1,0,0.1,0,0.2-0.1c0.1-0.2-0.1-0.5-0.1-0.7c0-0.1-0.1-0.2-0.1-0.3c0.4,0.2,0.8,0.4,1.2,0.5c0,0,0.1-0.1,0-0.1
				c-0.3-0.3-0.7-0.5-1.1-0.7c0.2,0,0.3-0.1,0.5-0.1c0.3-0.1,0.6-0.1,0.8-0.4c0,0,0-0.1,0-0.1c-0.3-0.1-0.6-0.1-0.8,0
				c-0.3,0.1-0.7,0.1-1,0.3c-0.1,0-0.2-0.1-0.3-0.1c-0.2-0.1-0.5-0.2-0.7-0.4c0,0,0-0.1,0-0.1c0.1-0.2,0.4-0.3,0.6-0.4
				c0.8,0,1.7,0,2.5-0.1c0.1,0.3,0.2,0.5,0.3,0.8c0.1,0.2,0.6,0.1,0.5-0.2c-0.1-0.2-0.2-0.5-0.3-0.7c0.2,0,0.5-0.1,0.7-0.2
				c0,0.2,0.1,0.4,0.2,0.5c0.2,0.2,0.3,0.5,0.5,0.7c0.2,0.2,0.6-0.1,0.5-0.4c-0.1-0.2-0.3-0.4-0.5-0.7c-0.1-0.1-0.2-0.2-0.3-0.3
				c0,0,0,0,0,0c0,0,0,0,0.1,0c0.2-0.2,0.4-0.6,0.6-0.9c0.1-0.1,0-0.4-0.2-0.3c-0.3,0.1-0.5,0.3-0.6,0.6c-0.1,0.2-0.3,0.3-0.3,0.5
				c-0.2,0-0.5,0-0.7-0.1c0.1-0.1,0.2-0.3,0.3-0.4c0.1-0.1,0.2-0.4,0-0.5c-0.2-0.1-0.4,0.1-0.5,0.2c-0.1,0.2-0.3,0.4-0.3,0.6
				c-0.8,0-1.5,0.1-2.3,0.1c-0.3-0.2-0.7-0.4-0.9-0.7c0.1-0.1,0.3-0.2,0.4-0.3c0.1-0.1,0.2-0.1,0.3-0.2c0.2,0.1,0.5,0.1,0.7,0.1
				c0.2,0,0.5,0.1,0.8,0c0.1,0,0.1-0.1,0-0.2c-0.2-0.2-0.5-0.2-0.7-0.2c-0.1,0-0.2,0-0.3,0c0.4-0.3,0.7-0.5,1-0.9c0,0,0-0.1-0.1-0.1
				c-0.4,0.1-0.8,0.4-1.1,0.6c0.1-0.2,0.1-0.3,0.1-0.5c0.1-0.3,0.2-0.6,0-0.9c0,0-0.1-0.1-0.1,0c-0.3,0.2-0.3,0.5-0.4,0.8
				c-0.1,0.3-0.2,0.7-0.2,1c0,0,0,0,0,0c0,0-0.1,0.1-0.1,0.1c-0.2,0.1-0.4,0.3-0.6,0.4c0,0,0,0,0-0.1c-0.2-0.4-0.1-0.8-0.2-1.1
				c0.2-0.7,0.4-1.5,0.5-2.2c0.1,0,0.1,0,0.2,0c0.2,0,0.4,0,0.5,0c0.1,0,0.1-0.1,0.2-0.1c0,0,0-0.1,0-0.1c0-0.1-0.1-0.1-0.1-0.2
				c-0.2,0-0.4-0.1-0.7,0c0-0.2,0.1-0.3,0.1-0.5c0.1,0,0.3,0,0.4-0.1c0.2-0.1,0.5-0.1,0.7-0.3c0.1-0.1,0.1-0.3,0-0.4
				c-0.3-0.1-0.6-0.1-0.8,0.1c-0.1,0.1-0.2,0.2-0.3,0.3c0,0,0,0.1-0.1,0.1c-0.1-0.4-0.3-1.4-0.7-1.3c-0.4,0.1,0.3,1.3,0.4,1.5
				c0,0,0,0,0.1,0.1c-0.1,0.2-0.1,0.3-0.2,0.5c-0.1-0.1-0.1-0.3-0.2-0.4c-0.1-0.2-0.2-0.3-0.3-0.4c0,0-0.1,0-0.1,0
				c-0.1,0.2,0,0.3,0,0.5c0.1,0.2,0.2,0.5,0.3,0.7c0,0.1,0.1,0.1,0.1,0.1c-0.3,0.7-0.5,1.5-0.8,2.2c-0.3,0.3-0.5,0.5-0.9,0.7
				C68.1,79.3,68,79,68,78.8c0-0.1,0-0.2,0-0.2c0.2-0.2,0.3-0.4,0.4-0.7c0.1-0.2,0.3-0.4,0.3-0.7c0-0.1-0.1-0.1-0.2-0.1
				c-0.3,0.1-0.4,0.4-0.5,0.6c0,0.1-0.1,0.1-0.1,0.2c-0.1-0.5-0.2-0.9-0.4-1.3c0,0-0.1,0-0.1,0c-0.1,0.4,0,0.9,0.1,1.3
				c-0.1-0.1-0.2-0.2-0.4-0.3c-0.2-0.2-0.5-0.4-0.8-0.4c0,0-0.1,0-0.1,0.1c0.1,0.3,0.3,0.5,0.5,0.6c0.3,0.2,0.6,0.5,0.9,0.7
				c0,0,0,0,0,0c0,0.1,0,0.1,0,0.2c0.1,0.3,0.1,0.5,0.1,0.8c-0.3,0.1-0.6,0-0.9-0.1c-0.3-0.3-0.5-0.6-0.8-0.8c0.2-0.2,0.1-0.5,0-0.8
				c0,0-0.1,0-0.1,0c-0.1,0.2-0.2,0.3-0.3,0.5c-0.2-0.2-0.3-0.3-0.5-0.4c0.1-0.2,0.1-0.5,0.1-0.8c0-0.2,0-0.5-0.2-0.6
				c-0.2,0-0.3,0.3-0.3,0.4c0,0.2-0.1,0.4-0.1,0.6c-0.1,0-0.2,0-0.2,0c0,0,0,0-0.1,0c-0.3-0.1-0.6-0.1-0.9-0.1
				c-0.3,0-0.4,0.5-0.1,0.6c0.3,0.1,0.5,0.1,0.8,0.1c0.2,0,0.4,0,0.5,0c0.1,0.1,0.3,0.3,0.4,0.4c-0.1,0-0.3,0-0.4,0.1
				c-0.3,0-0.3,0.4,0,0.4c0.2,0,0.5,0,0.8-0.1c0.2,0.2,0.4,0.4,0.6,0.6c0,0,0,0,0,0c0,0.2,0.2,0.4,0.2,0.6c0.1,0.2,0,0.4-0.1,0.7
				c0,0,0,0.1,0,0.1c-0.3-0.1-0.6-0.2-0.9-0.3c-0.1,0-0.1,0-0.2-0.1c0,0,0,0,0,0c-0.1-0.3-0.4-0.7-0.5-1c-0.1-0.2-0.3-0.5-0.6-0.6
				c0,0-0.1,0-0.1,0.1c0,0.3,0.1,0.6,0.3,0.8c0.1,0.1,0.2,0.3,0.3,0.4c-0.4-0.2-0.8-0.3-1.3-0.3c-0.1,0-0.1,0.1,0,0.1
				c0.3,0.3,0.8,0.4,1.2,0.6c-0.1,0-0.1,0.1-0.2,0.1c-0.2,0.1-0.6,0.2-0.7,0.4c0,0.1,0,0.1,0.1,0.2c0.2,0.1,0.5-0.1,0.7-0.2
				c0.2-0.1,0.5-0.2,0.7-0.3c0.1,0,0.2,0,0.2,0.1c0.3,0.1,0.5,0.2,0.8,0.3c-0.1,0.1-0.1,0.2-0.2,0.3c0,0-0.1,0.1-0.1,0.1
				c-1,0.1-1.9,0.3-2.9,0.5c0-0.3-0.4-0.8-0.7-0.6c0,0-0.1,0.1-0.1,0.1c0,0.2,0.1,0.3,0.3,0.4c0.1,0.1,0.1,0.1,0.2,0.2
				c-0.2,0-0.3,0.1-0.5,0.1c-0.2-0.3-0.5-0.6-0.8-0.7c-0.2,0-0.3,0.2-0.2,0.4c0.2,0.2,0.5,0.4,0.7,0.5c0,0,0,0,0,0
				c-0.3,0.1-0.5,0.4-0.6,0.7c-0.1,0.3,0.3,0.5,0.5,0.3c0.2-0.3,0.4-0.6,0.5-0.9c0.1,0,0.2,0,0.3,0c-0.1,0.2-0.2,0.3-0.3,0.5
				c-0.1,0.2-0.2,0.5,0,0.6c0.4,0.2,0.7-0.8,0.8-1.2c0.9-0.1,1.8-0.2,2.7-0.3c0,0,0,0,0.1,0c0.3,0.2,0.7,0.2,0.9,0.4
				c-0.3,0.3-0.6,0.6-0.8,0.9c0,0-0.1,0.1-0.1,0.1c0,0,0,0,0,0c-0.3,0-0.7,0.1-1,0.1c-0.3,0-0.6,0.1-0.8,0.3c0,0,0,0.1,0,0.1
				c0.2,0.2,0.6,0.1,0.9,0.1c0.2,0,0.3-0.1,0.5-0.1c-0.3,0.3-0.6,0.7-0.8,1c0,0,0,0.1,0.1,0.1c0.4-0.2,0.7-0.6,1-0.9
				c0,0.1,0,0.2,0,0.3c0,0.2,0,0.5,0.1,0.7c0.1,0.1,0.1,0,0.2,0c0.2-0.2,0.1-0.5,0.1-0.7c0-0.2,0-0.5,0-0.8c0.1-0.1,0.2-0.2,0.3-0.3
				c0.2-0.3,0.5-0.6,0.8-0.8c0,0,0,0,0,0c0.2,0.2,0.2,0.4,0.2,0.7c-0.4,1-0.8,2-1.2,3c-0.1,0-0.1,0-0.2,0c-0.3,0-0.6,0-0.9,0.2
				c-0.2,0.1-0.1,0.5,0.2,0.5c0.2,0,0.5,0,0.7-0.1c-0.1,0.2-0.2,0.5-0.2,0.7c-0.4,0-0.8,0.1-1,0.4C64.5,88.3,64.7,88.7,65,88.6z
				 M67.5,82.4c0.1-0.2,0.3-0.3,0.4-0.5c0,0,0.1,0,0.1,0c-0.1,0.3-0.2,0.5-0.3,0.8C67.6,82.7,67.6,82.6,67.5,82.4
				C67.5,82.5,67.5,82.5,67.5,82.4z M67,82c0.2,0,0.3,0,0.5,0c-0.1,0.1-0.1,0.2-0.2,0.2C67.2,82.2,67.1,82.1,67,82z M66.8,81.4
				c0.1,0,0.2,0.1,0.3,0.1c-0.1,0-0.2,0-0.3,0C66.7,81.5,66.7,81.4,66.8,81.4z M67,80.4c0.3,0.3,0.6,0.6,0.8,1c-0.1,0-0.1,0-0.2,0
				c-0.3-0.1-0.5-0.2-0.8-0.3C67,81,67,80.9,67,80.8C67,80.7,67,80.6,67,80.4z M67.9,80.1c0,0.2,0.1,0.5,0.1,0.7
				c-0.2-0.3-0.5-0.5-0.7-0.7C67.5,80.1,67.7,80.1,67.9,80.1z M68.7,79.8c-0.1,0.4-0.2,0.7-0.4,1.1c0-0.3-0.1-0.6-0.1-0.9
				C68.4,79.9,68.6,79.9,68.7,79.8z M69.5,80.3c-0.1,0.1-0.3,0.2-0.4,0.3c0.1-0.2,0.1-0.4,0.2-0.7C69.4,80.1,69.4,80.2,69.5,80.3
				C69.5,80.3,69.5,80.3,69.5,80.3z M70.3,81.1c-0.5,0-0.9,0.1-1.4,0.1c0-0.1,0-0.1,0.1-0.2c0.2-0.2,0.5-0.3,0.7-0.5
				C69.8,80.8,70,81,70.3,81.1z M69.7,82.1c-0.2-0.1-0.3-0.2-0.5-0.2c0.2,0,0.4,0,0.6,0C69.8,81.9,69.7,82,69.7,82.1z M69.6,82.5
				c-0.1-0.1-0.2-0.2-0.2-0.3c0.1,0,0.2,0.1,0.3,0.1C69.6,82.4,69.6,82.5,69.6,82.5z M68.8,83.1c-0.1-0.2-0.2-0.5-0.3-0.7
				c0,0,0-0.1,0-0.1c0.2,0.3,0.5,0.5,0.7,0.8C69.1,83,68.9,83.1,68.8,83.1z M68.3,83.2c0-0.1,0.1-0.3,0.1-0.4c0,0.1,0.1,0.2,0.1,0.3
				C68.4,83.2,68.3,83.2,68.3,83.2z"/>
		</g>
		<g>
			<path class="st1" d="M123.3,81.8c-0.2-0.4-1.2,0.4-1.4,0.5c0,0,0,0,0,0.1c-0.2,0-0.3-0.1-0.5-0.1c0.1-0.1,0.3-0.2,0.4-0.2
				c0.1-0.1,0.3-0.2,0.3-0.4c0,0,0-0.1,0-0.1c-0.2,0-0.3,0-0.4,0.1c-0.2,0.1-0.4,0.2-0.6,0.3c0,0-0.1,0.1-0.1,0.1
				c-0.8-0.2-1.5-0.4-2.3-0.5c-0.3-0.2-0.6-0.5-0.8-0.8c0.3-0.1,0.5-0.2,0.8-0.2c0.1,0,0.2,0,0.2-0.1c0.2,0.2,0.5,0.2,0.7,0.4
				c0.2,0.1,0.5,0.3,0.7,0.2c0.1,0,0.1-0.1,0.1-0.2c-0.1-0.3-0.4-0.3-0.7-0.4c-0.1,0-0.1-0.1-0.2-0.1c0.4-0.1,0.9-0.3,1.2-0.5
				c0,0,0-0.1,0-0.1c-0.4,0-0.9,0.1-1.3,0.3c0.1-0.1,0.2-0.3,0.3-0.4c0.2-0.2,0.3-0.5,0.3-0.8c0,0,0-0.1-0.1-0.1
				c-0.3,0.1-0.4,0.3-0.6,0.5c-0.2,0.3-0.5,0.6-0.6,0.9c0,0,0,0,0,0c-0.1,0-0.1,0-0.2,0.1c-0.3,0.1-0.5,0.2-0.8,0.2
				c-0.1-0.3,0-0.6,0-0.9c0.3-0.3,0.5-0.6,0.7-0.9c0.2,0.1,0.5,0,0.8,0c0,0,0-0.1,0-0.1c-0.2-0.1-0.3-0.2-0.5-0.2
				c0.1-0.2,0.3-0.3,0.4-0.5c0.2,0.1,0.5,0.1,0.8,0.1c0.2,0,0.5,0,0.5-0.2c0-0.2-0.3-0.2-0.4-0.2c-0.2,0-0.4,0-0.6,0
				c0-0.1,0-0.2-0.1-0.2c0,0,0,0,0-0.1c0-0.3,0.1-0.6,0-0.9c0-0.3-0.5-0.4-0.6-0.1c-0.1,0.3,0,0.6,0,0.8c0,0.2,0,0.4,0.1,0.5
				c-0.1,0.1-0.3,0.3-0.4,0.4c0-0.1-0.1-0.3-0.1-0.4c0-0.3-0.5-0.3-0.4,0c0,0.2,0.1,0.5,0.2,0.8c-0.2,0.2-0.4,0.4-0.6,0.6l0,0
				c-0.2,0.1-0.3,0.2-0.5,0.3c-0.2,0.1-0.4,0.1-0.7,0c0,0-0.1,0-0.1,0c0.1-0.3,0.1-0.6,0.2-0.9c0-0.1,0-0.1,0.1-0.2c0,0,0,0,0,0
				c0.3-0.1,0.6-0.4,0.9-0.6c0.2-0.2,0.4-0.3,0.5-0.6c0,0,0-0.1-0.1-0.1c-0.3,0-0.6,0.2-0.8,0.4c-0.1,0.1-0.3,0.2-0.4,0.3
				c0.1-0.4,0.2-0.9,0.2-1.3c0-0.1-0.1-0.1-0.1,0c-0.2,0.4-0.3,0.8-0.4,1.3c0-0.1-0.1-0.1-0.1-0.2c-0.1-0.2-0.2-0.6-0.5-0.7
				c-0.1,0-0.1,0-0.2,0.1c0,0.3,0.1,0.5,0.2,0.7c0.1,0.2,0.2,0.5,0.4,0.7c0,0.1,0,0.2,0,0.2c-0.1,0.3-0.1,0.6-0.2,0.8
				c-0.1-0.1-0.2-0.1-0.3-0.2c0,0-0.1-0.1-0.1-0.1c-0.2-1-0.5-1.9-0.8-2.8c0.3-0.1,0.7-0.5,0.6-0.8c0,0-0.1-0.1-0.1-0.1
				c-0.2,0-0.3,0.2-0.4,0.3c-0.1,0.1-0.1,0.1-0.2,0.2c-0.1-0.2-0.1-0.3-0.2-0.5c0.3-0.2,0.5-0.6,0.6-0.9c0-0.2-0.3-0.3-0.4-0.1
				c-0.2,0.2-0.3,0.5-0.4,0.8c0,0,0,0,0,0c-0.2-0.3-0.4-0.5-0.7-0.5c0,0-0.1,0-0.1,0c-0.1,0.2-0.1,0.3-0.2,0.5c0,0,0,0.1,0.1,0.1
				c0.3,0.2,0.6,0.3,0.9,0.4c0,0.1,0,0.2,0.1,0.3c-0.2-0.1-0.4-0.2-0.5-0.2c-0.2,0-0.5-0.1-0.6,0.1c-0.1,0.4,0.8,0.6,1.3,0.6
				c0.2,0.9,0.4,1.8,0.6,2.7c0,0,0,0,0,0.1c-0.1,0.4-0.1,0.7-0.3,1c-0.3-0.3-0.7-0.5-1-0.8c0,0-0.1-0.1-0.1-0.1c0,0,0,0,0,0
				c0-0.3-0.1-0.7-0.2-1c-0.1-0.3-0.1-0.6-0.4-0.8c0,0-0.1,0-0.1,0c-0.1,0.3-0.1,0.6,0,0.9c0,0.2,0.1,0.3,0.1,0.5
				c-0.3-0.2-0.5-0.4-0.8-0.5c0,0.1,0,0.2-0.1,0.2c0.2,0.2,0.5,0.4,0.7,0.6c-0.1,0-0.2,0-0.3,0c-0.2,0-0.5,0-0.6,0.1
				c0,0.1-0.1,0.1-0.1,0.2c0,0,0,0,0,0c0.2,0.1,0.5,0.1,0.7,0.1c0.2,0,0.5,0,0.7-0.1c0.1,0.1,0.2,0.1,0.3,0.2
				c0.3,0.2,0.6,0.5,0.9,0.7c0,0,0,0,0,0c-0.2,0.2-0.4,0.2-0.6,0.3c-0.7-0.2-1.5-0.5-2.2-0.7c-0.1,0.3-0.2,0.5-0.3,0.8
				c0.7,0.2,1.4,0.4,2.1,0.6c0.2,0.2,0.3,0.4,0.5,0.7c-0.2,0.1-0.4,0.2-0.6,0.3c-0.1,0-0.2,0.1-0.3,0.1c-0.3-0.2-0.7-0.2-1-0.3
				c-0.3-0.1-0.6-0.2-0.8,0c0,0,0,0.1,0,0.1c0.2,0.3,0.5,0.3,0.8,0.4c0.2,0,0.3,0.1,0.5,0.1c-0.4,0.2-0.8,0.4-1.1,0.7
				c0,0,0,0.1,0,0.1c0.4-0.1,0.9-0.2,1.3-0.5c0,0.1-0.1,0.2-0.1,0.3c-0.1,0.2-0.3,0.5-0.2,0.7c0,0.1,0.1,0.1,0.2,0.1
				c0.2-0.1,0.3-0.5,0.4-0.7c0.1-0.2,0.2-0.4,0.3-0.7c0,0,0.1,0,0.1,0c0.3-0.1,0.6-0.3,0.9-0.4c0.1,0.2,0.1,0.4,0.1,0.6
				c0,0.1,0,0.1,0,0.2c-0.5,0.5-1,1.1-1.6,1.6c-0.1-0.1-0.2-0.1-0.3-0.1c-0.3-0.1-0.7-0.1-0.9,0.1c-0.2,0.1-0.1,0.4,0.1,0.4
				c0.2,0.1,0.5,0,0.8,0c0,0,0,0,0,0c-0.2,0.2-0.4,0.4-0.6,0.6c-0.3-0.3-1.1-0.3-1.4-0.1c-0.2,0.1-0.1,0.5,0.1,0.5
				c0.2,0,0.5,0,0.7,0c0.1,0,0.2,0,0.3,0c0,0.2,0,0.4,0,0.6c0,0.2,0,0.4,0.1,0.6c0.1,0.2,0.4,0.2,0.4,0c0.1-0.4,0-0.9-0.1-1.3
				c0.2-0.2,0.4-0.3,0.5-0.5c0,0,0,0,0,0c0,0.2,0,0.5,0,0.7c0.1,0.2,0.5,0.3,0.5,0.1c0.1-0.3,0.1-0.9-0.1-1.2
				c0.6-0.6,1.2-1.1,1.8-1.7c0.2-0.1,0.3-0.1,0.5-0.1c-0.1,0.3-0.2,0.7-0.4,1c0,0,0,0.1,0,0.1c-0.2,0.1-0.4,0.2-0.6,0.3
				c-0.2,0.1-0.5,0.2-0.7,0.5c0,0.1,0,0.1,0.1,0.2c0.2,0.1,0.5-0.1,0.7-0.2c0.1,0,0.2-0.1,0.3-0.2c-0.2,0.4-0.3,0.8-0.4,1.3
				c0,0,0.1,0.1,0.1,0c0.3-0.3,0.4-0.7,0.6-1.2c0,0.2,0.1,0.3,0.1,0.5c0.1,0.3,0.2,0.6,0.4,0.7c0,0,0.1,0,0.1,0
				c0.1-0.3,0-0.6-0.1-0.9c-0.1-0.3-0.2-0.7-0.4-1c0-0.1,0.1-0.2,0.1-0.3c0.1-0.3,0.2-0.5,0.3-0.8c0,0,0.1,0,0.1,0
				c0.2,0.1,0.3,0.4,0.5,0.6c0.1,0.8,0.2,1.7,0.4,2.5c-0.3,0.1-0.5,0.2-0.7,0.4c-0.2,0.2-0.1,0.6,0.2,0.5c0.2-0.1,0.4-0.2,0.6-0.4
				c0.1,0.2,0.1,0.5,0.2,0.7c-0.2,0-0.3,0.2-0.5,0.3c-0.2,0.2-0.4,0.4-0.6,0.6c-0.2,0.3,0.2,0.6,0.4,0.4c0.2-0.1,0.4-0.3,0.6-0.5
				c0.1-0.1,0.2-0.2,0.3-0.3c0,0,0,0,0,0c0,0,0,0,0.1,0.1c0.3,0.2,0.6,0.3,0.9,0.5c0.2,0.1,0.4-0.1,0.3-0.3
				c-0.1-0.3-0.3-0.4-0.6-0.6c-0.2-0.1-0.4-0.2-0.5-0.3c0-0.2,0-0.5,0-0.7c0.1,0.1,0.3,0.2,0.4,0.2c0.1,0,0.4,0.1,0.5,0
				c0.1-0.2-0.2-0.4-0.3-0.5c-0.2-0.1-0.4-0.2-0.6-0.2c-0.1-0.8-0.2-1.5-0.4-2.3c0.2-0.4,0.4-0.7,0.6-1c0.1,0.1,0.2,0.3,0.3,0.4
				c0.1,0.1,0.2,0.2,0.2,0.3c-0.1,0.2,0,0.5,0,0.8c0,0.2-0.1,0.5,0.1,0.8c0,0.1,0.1,0.1,0.2,0c0.2-0.2,0.1-0.5,0.1-0.7
				c0-0.1,0-0.2,0-0.3c0.3,0.4,0.6,0.7,1,0.9c0,0,0.1,0,0.1-0.1c-0.2-0.4-0.5-0.7-0.8-1.1c0.2,0,0.3,0.1,0.5,0.1
				c0.3,0.1,0.6,0.1,0.9,0c0,0,0-0.1,0-0.1c-0.2-0.2-0.5-0.3-0.8-0.3c-0.3,0-0.7-0.2-1-0.1c0,0,0,0,0,0c0,0-0.1-0.1-0.1-0.1
				c-0.1-0.2-0.3-0.3-0.4-0.5c0,0,0,0,0.1,0c0.3-0.2,0.7-0.2,1.1-0.3c0.7,0.1,1.5,0.2,2.2,0.3c0,0.1,0,0.1,0,0.2
				c0,0.2,0,0.4,0.1,0.5c0,0.1,0.1,0.1,0.2,0.1c0,0,0.1,0,0.1,0c0.1,0,0.1-0.1,0.1-0.2c0-0.2,0-0.5,0-0.7c0.2,0,0.3,0,0.5,0.1
				c0,0.1,0,0.3,0.1,0.4c0.1,0.2,0.1,0.5,0.4,0.7c0.1,0.1,0.3,0.1,0.4-0.1c0.1-0.3,0-0.6-0.2-0.8c-0.1-0.1-0.2-0.2-0.3-0.3
				c0,0-0.1,0-0.1-0.1C122.5,82.5,123.5,82.2,123.3,81.8z M114.3,81.3c0.2,0,0.3,0.1,0.5,0.1c-0.1,0.1-0.2,0.1-0.3,0.2
				C114.4,81.5,114.3,81.4,114.3,81.3z M114.6,82.4c0-0.2-0.1-0.3-0.1-0.5c0.2-0.1,0.5-0.2,0.7-0.3c0,0,0.1,0,0.1,0
				C115.1,81.8,114.8,82.1,114.6,82.4z M114.7,80.7c0.1-0.1,0.2-0.1,0.3-0.2c0,0,0,0,0.1-0.1c0.2,0.1,0.3,0.3,0.5,0.4
				c0,0,0,0.1,0,0.1C115.3,80.9,115,80.8,114.7,80.7z M115.6,82.6c0.1-0.2,0.1-0.3,0.2-0.5c0,0.2,0.1,0.4,0.1,0.6
				C115.7,82.7,115.6,82.7,115.6,82.6z M117.3,80.1c0,0.2,0,0.4,0.1,0.5c-0.2,0.1-0.5,0.1-0.7,0.2C116.9,80.7,117.1,80.4,117.3,80.1
				z M116,80.6c0.1-0.3,0.1-0.6,0.2-0.8c0.1,0,0.3,0.1,0.4,0.1c0.1,0,0.2,0,0.3,0c-0.3,0.3-0.6,0.6-0.9,0.9
				C116.1,80.7,116,80.7,116,80.6z M116.6,83.1c-0.1-0.5-0.2-0.9-0.3-1.3c0.1,0,0.2,0,0.2,0.1c0.2,0.2,0.4,0.4,0.5,0.7
				C116.9,82.7,116.7,82.9,116.6,83.1z M117.3,82.3C117.3,82.3,117.3,82.3,117.3,82.3c-0.1-0.1-0.2-0.2-0.3-0.3
				c0.2,0,0.4,0.1,0.7,0.1C117.5,82.2,117.4,82.2,117.3,82.3z M116.7,81.2c0.3-0.1,0.6-0.1,0.8-0.2c0.1,0.2,0.1,0.3,0.2,0.5
				C117.4,81.4,117,81.3,116.7,81.2z"/>
			<path class="st1" d="M115.3,80c0,0.2,0.1,0.3,0.1,0.5c-0.1-0.1-0.2-0.1-0.2-0.2C115.2,80.2,115.3,80.1,115.3,80z"/>
			<path class="st1" d="M115.9,79.7c0,0.1,0,0.2-0.1,0.3c0-0.1-0.1-0.2-0.1-0.3C115.9,79.6,115.9,79.6,115.9,79.7z"/>
			<path class="st1" d="M115.1,82.6c0.1-0.1,0.2-0.2,0.3-0.3c0,0.1-0.1,0.2-0.1,0.3C115.2,82.6,115.2,82.6,115.1,82.6z"/>
		</g>
		<g>
			<path class="st1" d="M127.4,98.2c0.2,0.2,0.4,0.3,0.6,0.4c-0.1,0.1-0.1,0.2-0.1,0.3c-0.1,0-0.1,0.1-0.2,0.2
				c-0.2,0.2-0.4,0.3-0.6,0.5c-0.2,0.2,0,0.6,0.3,0.5c0.4-0.1,0.8-0.6,0.9-1c0.3,0,0.6,0.1,1,0.1c-0.2,0.2-0.3,0.4-0.4,0.6
				c-0.1,0.2,0.2,0.4,0.4,0.3c0.3-0.2,0.5-0.5,0.6-0.9c0.9,0,1.9-0.1,2.8-0.2c0.2,0.2,0.5,0.3,0.6,0.5c-0.2,0.2-0.3,0.3-0.5,0.5
				c-0.1,0.1-0.2,0.1-0.2,0.2c-0.3-0.1-0.7,0-1.1,0c-0.3,0-0.6,0.1-0.8,0.3c0,0,0,0.1,0,0.1c0.2,0.2,0.6,0.2,0.9,0.1
				c0.2,0,0.3,0,0.5-0.1c-0.3,0.3-0.6,0.6-0.8,1c0,0,0,0.1,0.1,0.1c0.4-0.2,0.7-0.5,1-0.9c0,0.1,0,0.2,0,0.3c0,0.2-0.1,0.5,0.1,0.7
				c0,0.1,0.1,0.1,0.2,0c0.2-0.2,0.2-0.5,0.2-0.8c0-0.2,0.1-0.5,0-0.7c0,0,0,0,0.1-0.1c0.2-0.2,0.5-0.4,0.7-0.7
				c0.1,0.2,0.2,0.3,0.3,0.5c0,0.1,0,0.1,0,0.2c-0.3,0.7-0.6,1.4-0.9,2.1c-0.1,0-0.3,0-0.3,0c-0.3,0-0.7,0.1-0.9,0.4
				c-0.1,0.2,0,0.4,0.2,0.4c0.3,0,0.5-0.2,0.7-0.3c0,0,0,0,0,0c-0.1,0.3-0.2,0.5-0.4,0.8c-0.4-0.2-1.1,0.1-1.4,0.3
				c-0.2,0.2,0,0.5,0.2,0.5c0.2,0,0.5-0.1,0.7-0.2c0.1,0,0.2-0.1,0.3-0.1c0.1,0.2,0.1,0.3,0.2,0.5c0.1,0.2,0.1,0.4,0.3,0.5
				c0.1,0.1,0.4,0,0.4-0.2c0-0.4-0.3-0.9-0.5-1.2c0.1-0.2,0.2-0.4,0.4-0.6c0,0,0,0,0,0c0.1,0.2,0.1,0.4,0.3,0.6
				c0.1,0.2,0.5,0.1,0.5-0.1c0-0.4-0.2-0.9-0.5-1.1c0.4-0.7,0.8-1.5,1.1-2.2c0.1-0.1,0.3-0.2,0.4-0.2c0,0.4,0,0.7,0,1.1
				c0,0,0,0.1,0,0.1c-0.2,0.1-0.3,0.3-0.5,0.5c-0.2,0.2-0.4,0.4-0.5,0.7c0,0.1,0,0.1,0.1,0.1c0.3,0,0.4-0.3,0.6-0.4
				c0.1-0.1,0.1-0.2,0.2-0.2c0,0.5-0.1,0.9,0.1,1.3c0,0,0.1,0,0.1,0c0.1-0.4,0.2-0.8,0.2-1.3c0.1,0.1,0.2,0.3,0.3,0.4
				c0.2,0.2,0.4,0.5,0.7,0.6c0,0,0.1,0,0.1-0.1c0-0.3-0.2-0.5-0.4-0.8c-0.2-0.3-0.4-0.6-0.7-0.8c0-0.1,0-0.2,0-0.3
				c0-0.3,0-0.5,0-0.8c0,0,0.1,0,0.1,0c0.2,0,0.4,0.3,0.6,0.4c0.4,0.8,0.7,1.5,1.2,2.2c-0.2,0.2-0.4,0.4-0.5,0.6
				c-0.1,0.2,0.1,0.6,0.4,0.4c0.2-0.2,0.3-0.4,0.5-0.6c0.1,0.2,0.3,0.4,0.5,0.6c-0.2,0.1-0.3,0.3-0.4,0.4c-0.2,0.2-0.3,0.5-0.4,0.8
				c-0.1,0.3,0.4,0.5,0.5,0.2c0.2-0.2,0.3-0.5,0.4-0.7c0.1-0.1,0.1-0.2,0.2-0.4c0,0,0,0,0,0c0,0,0,0,0.1,0c0.3,0.1,0.7,0.1,1,0.1
				c0.2,0,0.4-0.2,0.2-0.4c-0.2-0.2-0.5-0.3-0.8-0.3c-0.2,0-0.4-0.1-0.6-0.1c-0.1-0.2-0.2-0.4-0.2-0.7c0.1,0.1,0.3,0.1,0.4,0.1
				c0.1,0,0.4,0,0.4-0.2c0-0.2-0.3-0.3-0.4-0.4c-0.2-0.1-0.4-0.1-0.6,0c-0.3-0.7-0.7-1.4-1.1-2c0.1-0.4,0.1-0.8,0.3-1.1
				c0.2,0.1,0.3,0.2,0.5,0.3c0.1,0.1,0.2,0.1,0.3,0.2c0,0.2,0.1,0.5,0.2,0.7c0.1,0.2,0.1,0.5,0.3,0.7c0.1,0,0.1,0,0.2,0
				c0.1-0.2,0-0.5-0.1-0.7c0-0.1-0.1-0.2-0.1-0.3c0.4,0.2,0.8,0.5,1.2,0.6c0.1,0,0.1-0.1,0-0.1c-0.3-0.3-0.7-0.5-1.1-0.8
				c0.2,0,0.3,0,0.5-0.1c0.3,0,0.6-0.1,0.8-0.3c0,0,0-0.1,0-0.1c-0.3-0.2-0.6-0.1-0.9,0c-0.3,0.1-0.7,0.1-1,0.2c0,0,0,0,0,0
				c-0.1,0-0.1-0.1-0.2-0.1c-0.2-0.1-0.4-0.2-0.6-0.3c0,0,0,0,0-0.1c0.3-0.3,0.6-0.4,0.9-0.6c0.7-0.1,1.5-0.3,2.2-0.4
				c0,0.1,0.1,0.1,0.1,0.2c0.1,0.2,0.1,0.3,0.2,0.5c0,0.1,0.1,0.1,0.2,0.1c0,0,0.1,0,0.1,0c0.1,0,0.1-0.1,0.1-0.2
				c0-0.2-0.1-0.4-0.3-0.6c0.2,0,0.3-0.1,0.5-0.1c0,0.1,0.1,0.2,0.2,0.4c0.2,0.2,0.3,0.5,0.6,0.5c0.1,0,0.3,0,0.3-0.2
				c0-0.3-0.2-0.5-0.4-0.7c-0.1-0.1-0.2-0.1-0.4-0.2c0,0-0.1,0-0.1,0c0.3-0.2,1.1-0.9,0.8-1.2c-0.3-0.3-1,0.8-1.1,1c0,0,0,0.1,0,0.1
				c-0.2,0-0.3,0-0.5,0.1c0.1-0.1,0.2-0.2,0.3-0.4c0.1-0.1,0.2-0.3,0.2-0.5c0,0,0-0.1-0.1-0.1c-0.2,0-0.3,0.1-0.4,0.2
				c-0.2,0.2-0.3,0.3-0.5,0.5c0,0.1,0,0.1,0,0.2c-0.8,0.1-1.5,0.2-2.3,0.3c-0.4-0.1-0.7-0.3-1-0.5c0.2-0.2,0.4-0.3,0.6-0.5
				c0.1,0,0.1-0.1,0.2-0.1c0.2,0.1,0.5,0.1,0.8,0.1c0.2,0,0.5,0.1,0.7-0.1c0.1,0,0.1-0.1,0-0.2c-0.2-0.2-0.5-0.2-0.8-0.2
				c-0.1,0-0.1,0-0.2,0c0.4-0.3,0.7-0.5,1-0.9c0,0,0-0.1-0.1-0.1c-0.4,0.1-0.8,0.4-1.1,0.7c0.1-0.2,0.1-0.3,0.1-0.5
				c0.1-0.3,0.2-0.6,0-0.9c0,0-0.1-0.1-0.1,0c-0.2,0.2-0.3,0.4-0.4,0.7c-0.1,0.3-0.2,0.7-0.2,1.1c0,0,0,0,0,0
				c-0.1,0-0.1,0.1-0.2,0.1c-0.2,0.2-0.5,0.3-0.7,0.5c-0.2-0.3-0.2-0.6-0.3-0.9c0.1-0.4,0.3-0.7,0.4-1.1c0.3,0.1,0.5-0.1,0.7-0.3
				c0,0,0-0.1,0-0.1c-0.2,0-0.4-0.1-0.6,0c0.1-0.2,0.1-0.4,0.2-0.6c0.3,0,0.5-0.1,0.8-0.2c0.1-0.1,0.5-0.2,0.4-0.4
				c-0.1-0.2-0.4-0.1-0.5-0.1c-0.2,0-0.4,0.1-0.5,0.2c0-0.1-0.1-0.2-0.1-0.2c0,0,0,0,0-0.1c-0.1-0.3-0.1-0.6-0.2-0.8
				c-0.1-0.3-0.6-0.2-0.6,0.1c0,0.3,0.1,0.5,0.2,0.8c0.1,0.2,0.1,0.4,0.3,0.5c-0.1,0.2-0.2,0.4-0.2,0.5c-0.1-0.1-0.2-0.2-0.2-0.4
				c-0.1-0.2-0.5-0.1-0.4,0.2c0.1,0.2,0.2,0.5,0.4,0.7c-0.1,0.3-0.2,0.5-0.3,0.8h0c-0.2,0.1-0.3,0.3-0.4,0.4
				c-0.2,0.1-0.4,0.2-0.6,0.2c0,0-0.1,0-0.1,0c0-0.3-0.1-0.6-0.1-0.9c0-0.1,0-0.1,0-0.2c0,0,0,0,0,0c0.3-0.2,0.5-0.6,0.6-0.9
				c0.1-0.2,0.3-0.5,0.3-0.7c0,0-0.1-0.1-0.1-0.1c-0.3,0.1-0.5,0.4-0.6,0.6c-0.1,0.1-0.2,0.3-0.3,0.4c0-0.5-0.1-0.9-0.3-1.3
				c0,0-0.1,0-0.1,0c-0.1,0.4-0.1,0.9,0,1.3c-0.1-0.1-0.1-0.1-0.2-0.2c-0.2-0.2-0.4-0.4-0.7-0.5c-0.1,0-0.1,0-0.1,0.1
				c0,0.3,0.3,0.4,0.5,0.6c0.2,0.2,0.4,0.4,0.6,0.5c0,0.1,0,0.2,0,0.2c0,0.3,0.1,0.6,0.1,0.8c-0.1,0-0.2-0.1-0.3-0.1
				c-0.1,0-0.1,0-0.1,0c-0.5-0.8-1.1-1.6-1.6-2.4c0.3-0.2,0.5-0.7,0.3-0.9c0,0-0.1,0-0.1,0c-0.2,0.1-0.2,0.2-0.3,0.4
				c0,0.1-0.1,0.2-0.1,0.3c-0.1-0.1-0.2-0.3-0.3-0.4c0.2-0.3,0.3-0.7,0.2-1.1c0-0.2-0.3-0.2-0.4,0c-0.1,0.3-0.1,0.6-0.2,0.9
				c0,0,0,0,0,0c-0.2-0.2-0.6-0.3-0.9-0.3c-0.4,0-0.3,0.5,0,0.6c0.3,0.1,0.7,0.1,1,0.1c0.1,0.1,0.1,0.2,0.2,0.3c-0.2,0-0.4,0-0.6,0
				c-0.2,0-0.5,0-0.5,0.3c0,0.4,1,0.3,1.4,0.2c0.5,0.8,0.9,1.5,1.4,2.3c0,0,0,0,0,0.1c0,0.4,0.1,0.7,0,1c-0.4-0.1-0.8-0.2-1.2-0.4
				c-0.1,0-0.1,0-0.2-0.1c0,0,0,0,0,0c-0.1-0.3-0.3-0.6-0.5-0.9c-0.2-0.2-0.3-0.6-0.6-0.6c0,0-0.1,0-0.1,0.1
				c-0.1,0.3,0.1,0.6,0.3,0.8c0.1,0.1,0.2,0.3,0.3,0.4c-0.4-0.1-0.8-0.3-1.3-0.3c0,0-0.1,0.1,0,0.1c0.4,0.2,0.8,0.4,1.2,0.5
				c-0.1,0-0.2,0.1-0.3,0.1c-0.2,0.1-0.5,0.2-0.6,0.4c0,0.1,0,0.1,0.1,0.2c0.2,0.1,0.5-0.1,0.7-0.2c0.2-0.1,0.5-0.2,0.7-0.3
				c0.1,0,0.3,0.1,0.4,0.1c0.4,0.1,0.7,0.2,1.1,0.3c0,0,0,0,0,0.1c-0.1,0.2-0.3,0.4-0.5,0.5c-1.1,0-2.1,0.1-3.2,0.1
				c0-0.1,0-0.2,0-0.2c-0.1-0.3-0.3-0.6-0.6-0.7c-0.2-0.1-0.4,0.1-0.4,0.3c0.1,0.2,0.2,0.4,0.4,0.6c-0.2,0-0.5,0.1-0.7,0.1
				c-0.2-0.3-0.4-0.7-0.8-0.8C127.4,97.6,127.2,97.9,127.4,98.2z M133.9,97.8c0.2,0.1,0.4,0.1,0.6,0.2c0,0,0,0.1,0.1,0.1
				c-0.3,0-0.6,0-0.9,0.1C133.8,98.1,133.8,98,133.9,97.8C133.9,97.9,133.9,97.9,133.9,97.8z M134.1,97.3c0.1,0.1,0.2,0.3,0.2,0.4
				c-0.1,0-0.2-0.1-0.3-0.1C134,97.5,134.1,97.4,134.1,97.3z M134.5,96.8c0,0.1,0,0.2,0,0.3c-0.1-0.1-0.1-0.2-0.2-0.3
				C134.4,96.7,134.5,96.7,134.5,96.8z M135.5,96.6c-0.2,0.4-0.3,0.8-0.5,1.2c0-0.1-0.1-0.1-0.1-0.2c0-0.3-0.1-0.6-0.1-0.9
				c0.1,0,0.3,0,0.4,0C135.3,96.7,135.4,96.7,135.5,96.6z M136.2,97.2c-0.2,0.1-0.4,0.3-0.6,0.4c0.1-0.3,0.3-0.6,0.4-0.9
				C136.1,96.9,136.1,97.1,136.2,97.2z M136.8,97.9c-0.4,0-0.7,0.1-1.1,0.1c0.2-0.2,0.5-0.3,0.7-0.5
				C136.5,97.6,136.7,97.8,136.8,97.9z M136.7,98.8c-0.1-0.1-0.3-0.2-0.4-0.2c0.2,0,0.5-0.1,0.7-0.1
				C136.8,98.6,136.8,98.7,136.7,98.8C136.7,98.8,136.7,98.8,136.7,98.8z M136.2,99.9c-0.2-0.4-0.5-0.8-0.7-1.2c0.1,0,0.2,0,0.2,0
				c0.2,0.1,0.5,0.3,0.7,0.4C136.4,99.3,136.3,99.6,136.2,99.9z M135.1,99.7c0-0.2,0-0.4,0-0.5c0.1,0.2,0.2,0.4,0.3,0.6
				C135.3,99.7,135.2,99.7,135.1,99.7z M134.7,99.8c0.1-0.1,0.1-0.2,0.2-0.3c0,0.1,0,0.2,0,0.3C134.8,99.8,134.7,99.8,134.7,99.8z
				 M133.9,99.4c0.2-0.2,0.4-0.4,0.5-0.5c0,0,0.1,0,0.1,0c-0.1,0.3-0.3,0.7-0.4,1C134.1,99.6,134,99.5,133.9,99.4z M133.5,98.9
				c0.2,0,0.3,0,0.5-0.1c-0.1,0.1-0.2,0.2-0.3,0.3C133.6,99,133.6,99,133.5,98.9z"/>
		</g>
		<g>
			<path class="st1" d="M149.3,119.6c0.3,0,0.5-0.1,0.8-0.1c0,0.2,0,0.4,0,0.7c0,0.1,0,0.2,0,0.3c-0.3,0.2-0.5,0.5-0.7,0.8
				c-0.2,0.2-0.4,0.4-0.4,0.7c0,0,0,0.1,0.1,0.1c0.3,0,0.5-0.3,0.7-0.5c0.1-0.1,0.2-0.2,0.3-0.4c0,0.4,0,0.9,0.1,1.3
				c0,0,0.1,0,0.1,0c0.2-0.4,0.2-0.9,0.2-1.3c0.1,0.1,0.1,0.2,0.2,0.3c0.1,0.2,0.3,0.4,0.6,0.5c0.1,0,0.1,0,0.1-0.1
				c0-0.3-0.2-0.5-0.4-0.7c-0.1-0.2-0.3-0.4-0.5-0.5c0,0,0-0.1,0-0.1c0-0.3,0-0.6,0.1-1c0.2,0,0.4,0.1,0.6,0.2
				c0.1,0,0.1,0.1,0.2,0.1c0.2,0.7,0.5,1.4,0.7,2.1c-0.1,0.1-0.2,0.1-0.2,0.2c-0.2,0.2-0.4,0.5-0.4,0.9c0,0.2,0.3,0.3,0.4,0.1
				c0.2-0.2,0.2-0.5,0.4-0.7c0,0,0,0,0,0c0.1,0.2,0.1,0.4,0.2,0.6c0.1-0.1,0.2-0.1,0.3-0.1c0-0.1-0.1-0.2-0.1-0.4c0,0,0,0,0,0
				c0.1,0.1,0.3,0.1,0.4,0.2c0.2-0.1,0.4-0.2,0.6-0.3c0,0,0-0.1,0-0.1c-0.2-0.3-0.7-0.5-1.1-0.5c-0.2-0.8-0.4-1.6-0.7-2.4
				c0-0.2,0.1-0.3,0.2-0.5c0.2,0.3,0.5,0.5,0.7,0.8c0,0,0,0,0.1,0.1c-0.1,0.2,0,0.5,0,0.7c0,0.3-0.1,0.6,0.1,0.8
				c0,0.1,0.1,0.1,0.2,0c0.2-0.2,0.1-0.5,0.1-0.7c0-0.1,0-0.2,0-0.3c0.3,0.4,0.6,0.7,1,0.9c0,0,0.1,0,0.1-0.1
				c-0.2-0.4-0.4-0.7-0.7-1.1c0.2,0,0.3,0.1,0.5,0.1c0.3,0.1,0.6,0.1,0.9-0.1c0,0,0-0.1,0-0.1c-0.2-0.2-0.5-0.3-0.8-0.3
				c-0.3-0.1-0.7-0.2-1.1-0.1c-0.1-0.1-0.1-0.2-0.2-0.2c-0.2-0.2-0.3-0.4-0.5-0.6c0,0,0,0,0.1-0.1c0.2-0.1,0.5-0.1,0.7-0.2
				c0.8,0.3,1.6,0.6,2.4,0.8c0,0.3,0,0.6,0,0.8c0,0.3,0.5,0.4,0.5,0c0-0.2,0-0.5,0-0.7c0.2,0,0.5,0.1,0.7,0.1c0,0.2,0,0.4,0,0.6
				c0,0.2,0.1,0.3,0.1,0.4c0.2-0.1,0.4-0.3,0.6-0.4c0-0.1,0-0.2-0.1-0.2c0-0.1-0.1-0.3-0.1-0.4c0,0,0,0,0,0c0,0,0,0,0.1,0
				c0.3-0.1,0.6-0.4,0.8-0.6c0.1-0.1,0.1-0.4-0.1-0.4c-0.3,0-0.5,0.1-0.8,0.3c-0.1,0.1-0.4,0.2-0.5,0.4c-0.2-0.1-0.4-0.2-0.6-0.3
				c0.1-0.1,0.3-0.2,0.4-0.2c0.1-0.1,0.3-0.3,0.2-0.4c-0.1-0.2-0.4,0-0.6,0c-0.2,0.1-0.4,0.2-0.5,0.4c-0.7-0.3-1.4-0.5-2.2-0.8
				c-0.2-0.3-0.5-0.6-0.6-1c0.2,0,0.3-0.1,0.5-0.1c0.1,0,0.3,0,0.4-0.1c0.2,0.2,0.4,0.3,0.6,0.4c0.2,0.1,0.5,0.3,0.7,0.3
				c0.1,0,0.1-0.1,0.1-0.2c-0.1-0.2-0.4-0.4-0.6-0.5c-0.1,0-0.2-0.1-0.3-0.1c0.4-0.1,0.9-0.2,1.3-0.4c0,0,0-0.1,0-0.1
				c-0.4,0-0.9,0.1-1.3,0.2c0.1-0.1,0.2-0.3,0.3-0.4c0.2-0.2,0.4-0.5,0.4-0.8c0-0.1,0-0.1-0.1-0.1c-0.3,0.1-0.5,0.4-0.7,0.6
				c-0.2,0.3-0.5,0.5-0.6,0.8l0,0c-0.1,0-0.1,0-0.2,0c-0.2,0.1-0.4,0.1-0.7,0.1c0,0,0,0,0-0.1c0-0.4,0.2-0.8,0.2-1.1
				c0.5-0.6,0.9-1.2,1.3-1.8c0.1,0,0.1,0,0.2,0.1c0.2,0.1,0.3,0.1,0.5,0.2c0.1,0,0.2,0,0.2-0.1c0,0,0-0.1,0-0.1c0-0.1,0-0.2-0.1-0.2
				c-0.2-0.1-0.4-0.2-0.6-0.3c0.1-0.1,0.2-0.3,0.3-0.4c0.1,0.1,0.2,0.1,0.4,0.1c0.3,0,0.5,0.1,0.8,0c0.1-0.1,0.2-0.2,0.1-0.4
				c-0.2-0.2-0.5-0.3-0.8-0.2c-0.1,0-0.3,0.1-0.4,0.1c0,0-0.1,0-0.1,0.1c0.1-0.4,0.2-1.4-0.2-1.4c-0.4,0-0.2,1.3-0.2,1.5
				c0,0,0,0.1,0,0.1c-0.1,0.1-0.2,0.3-0.3,0.4c0-0.2,0-0.3,0-0.5c0-0.2,0-0.3-0.2-0.5c0,0-0.1,0-0.1,0c-0.1,0.1-0.1,0.3-0.1,0.4
				c0,0.2,0,0.5,0,0.7c0,0.1,0,0.1,0.1,0.1c-0.5,0.6-1,1.2-1.5,1.8c-0.3,0.2-0.7,0.3-1.1,0.3c0-0.3,0.1-0.5,0.1-0.8
				c0-0.1,0-0.2,0.1-0.2c0.2-0.1,0.4-0.3,0.6-0.5c0.2-0.1,0.4-0.3,0.5-0.5c0-0.1,0-0.1-0.1-0.1c-0.3,0-0.5,0.2-0.7,0.4
				c-0.1,0-0.1,0.1-0.2,0.1c0.1-0.4,0.2-0.9,0.1-1.3c0-0.1-0.1-0.1-0.1,0c-0.2,0.4-0.3,0.8-0.4,1.3c-0.1-0.2-0.1-0.3-0.2-0.4
				c-0.1-0.3-0.3-0.5-0.6-0.7c0,0-0.1,0-0.1,0.1c0,0.3,0.1,0.5,0.2,0.8c0.2,0.3,0.3,0.7,0.6,1c0,0,0,0,0,0c0,0.1,0,0.1,0,0.2
				c-0.1,0.3-0.1,0.5-0.2,0.8c-0.3-0.1-0.6-0.2-0.8-0.4c-0.1-0.4-0.3-0.7-0.5-1.1c0.2-0.1,0.3-0.4,0.3-0.7c0,0,0-0.1-0.1,0
				c-0.1,0.1-0.3,0.2-0.4,0.4c-0.1-0.2-0.2-0.4-0.3-0.6c0.2-0.2,0.3-0.4,0.4-0.7c0.1-0.1,0.2-0.5,0-0.6c-0.2-0.1-0.3,0.2-0.4,0.3
				c-0.1,0.1-0.2,0.3-0.3,0.5c-0.1-0.1-0.1-0.1-0.2,0c0,0,0,0-0.1,0c-0.2-0.2-0.5-0.3-0.7-0.4c-0.3-0.1-0.6,0.3-0.3,0.5
				c0.2,0.2,0.5,0.3,0.7,0.4c0.2,0.1,0.3,0.2,0.5,0.2c0.1,0.2,0.1,0.4,0.2,0.6c-0.1,0-0.3-0.1-0.4-0.1c-0.2-0.1-0.4,0.3-0.2,0.4
				c0.2,0.1,0.5,0.2,0.8,0.2c0.1,0.3,0.2,0.5,0.3,0.8l0,0c0,0.2,0,0.4,0,0.6c0,0.2-0.1,0.4-0.3,0.6c0,0-0.1,0.1-0.1,0.1
				c-0.2-0.2-0.5-0.4-0.7-0.6c0,0-0.1-0.1-0.1-0.1c0,0,0,0,0,0c0-0.4-0.1-0.8-0.1-1.1c0-0.3-0.1-0.5-0.3-0.7c0,0-0.1,0-0.1,0
				c-0.2,0.3-0.1,0.6,0,0.9c0,0.2,0.1,0.3,0.1,0.5c-0.3-0.3-0.7-0.6-1.1-0.8c0,0-0.1,0-0.1,0.1c0.2,0.4,0.6,0.7,0.9,1
				c-0.1,0-0.1,0-0.2,0c-0.3,0-0.6-0.1-0.8,0.1c-0.1,0-0.1,0.1,0,0.2c0.2,0.2,0.5,0.1,0.7,0.1c0.3,0,0.5,0,0.8,0
				c0.1,0.1,0.1,0.1,0.2,0.2c0.2,0.2,0.4,0.4,0.6,0.6c-0.1,0.1-0.2,0.1-0.3,0.2c0,0-0.1,0-0.1,0.1c-0.9-0.2-1.9-0.5-2.8-0.6
				c0.1-0.3-0.1-0.9-0.4-0.9c0,0-0.1,0-0.1,0.1c-0.1,0.2,0,0.3,0.1,0.5c0,0.1,0.1,0.2,0.1,0.3c-0.2,0-0.3-0.1-0.5-0.1
				c0-0.4-0.2-0.7-0.5-0.9c-0.2-0.1-0.4,0.1-0.3,0.3c0.1,0.3,0.3,0.5,0.5,0.8c0,0,0,0,0,0c-0.3,0-0.6,0.2-0.8,0.4
				c-0.2,0.3,0.1,0.6,0.4,0.4c0.3-0.2,0.6-0.4,0.8-0.6c0.1,0,0.2,0.1,0.3,0.1c-0.2,0.1-0.3,0.2-0.4,0.4c-0.1,0.1-0.4,0.4-0.2,0.6
				c0.3,0.3,0.9-0.5,1.1-0.8c0.9,0.2,1.7,0.5,2.6,0.7c0,0,0,0,0,0.1c0.3,0.3,0.5,0.4,0.7,0.7c-0.4,0.2-0.8,0.4-1.1,0.6
				c-0.1,0-0.1,0-0.2,0.1l0,0c-0.3-0.2-0.7-0.2-1-0.3c-0.3-0.1-0.6-0.2-0.9,0c0,0-0.1,0.1,0,0.1c0.2,0.3,0.5,0.3,0.8,0.4
				c0.2,0,0.3,0.1,0.5,0.1c-0.4,0.2-0.8,0.4-1.1,0.7c0,0,0,0.1,0,0.1c0.4-0.1,0.8-0.2,1.2-0.5c0,0.1-0.1,0.2-0.1,0.3
				c-0.1,0.2-0.2,0.5-0.2,0.7c0,0.1,0.1,0.1,0.2,0.1c0.2-0.1,0.3-0.4,0.4-0.6c0.1-0.2,0.2-0.5,0.3-0.7c0.1-0.1,0.2-0.1,0.3-0.2
				c0.3-0.2,0.7-0.3,1-0.5c0,0,0,0,0,0.1c0.1,0.3,0,0.5-0.1,0.7c-0.7,0.8-1.5,1.5-2.2,2.3c-0.1-0.1-0.1-0.1-0.2-0.1
				c-0.3-0.1-0.6-0.2-0.9-0.1c-0.2,0.1-0.2,0.4,0,0.5c0.2,0.1,0.5,0.2,0.7,0.2c-0.2,0.2-0.3,0.4-0.5,0.6c-0.4-0.1-0.8-0.2-1.1,0
				c-0.3,0.1-0.2,0.5,0.1,0.5c0.2,0,0.5-0.1,0.7-0.1c0,0.1,0,0.3,0.2,0.3c0,0.1,0,0.2-0.1,0.3c0,0.2-0.1,0.5-0.1,0.8
				c0,0.3,0.4,0.4,0.6,0.1c0.2-0.3,0.2-1,0-1.4c0.3-0.2,0.5-0.4,0.8-0.6c0,0.2,0,0.5,0.1,0.7c0.1,0.2,0.4,0.2,0.5,0
				c0.1-0.3,0-0.7-0.2-1C148,121,148.7,120.3,149.3,119.6z M149.4,118C149.4,118,149.4,117.9,149.4,118c0.2-0.2,0.4-0.3,0.5-0.4
				c0,0,0.1,0,0.1,0c-0.2,0.2-0.4,0.4-0.6,0.6C149.5,118.2,149.4,118.1,149.4,118z M150.1,119c-0.1,0-0.2,0-0.3,0
				c0.1-0.1,0.2-0.2,0.3-0.4C150.1,118.7,150.1,118.9,150.1,119z M151.6,118.4c-0.1-0.1-0.2-0.3-0.3-0.4c0.2,0.1,0.4,0.1,0.6,0.2
				C151.7,118.3,151.6,118.4,151.6,118.4z M152.5,117.8c-0.4-0.1-0.9-0.3-1.3-0.4c0.1-0.1,0.1-0.1,0.2-0.2c0.3-0.1,0.6-0.1,0.8-0.2
				C152.2,117.3,152.3,117.5,152.5,117.8z M152.1,116.3c0,0.1,0,0.3,0,0.4c0,0,0,0,0,0c-0.2,0-0.3,0.1-0.5,0.1
				C151.8,116.7,151.9,116.5,152.1,116.3z M151,115.9c0.2,0,0.4,0,0.5,0c-0.2,0.3-0.5,0.6-0.7,0.8
				C150.9,116.5,150.9,116.2,151,115.9z M150.9,119.2c-0.2-0.1-0.3-0.1-0.5-0.1c0-0.3,0-0.5,0-0.8c0,0,0.1-0.1,0.1-0.1
				C150.6,118.5,150.8,118.8,150.9,119.2z M150.7,115.9c-0.1,0.2-0.1,0.5-0.1,0.7c-0.1-0.3-0.2-0.6-0.4-1
				C150.4,115.8,150.5,115.8,150.7,115.9z M149.6,116.2c0.1-0.1,0.1-0.2,0.1-0.3c0.1,0.4,0.3,0.8,0.4,1.2c-0.1,0-0.1,0-0.2,0
				c-0.2-0.2-0.4-0.4-0.6-0.6C149.5,116.4,149.5,116.3,149.6,116.2z"/>
			<path class="st1" d="M149.1,117.4c0.1,0,0.3,0.1,0.4,0.1c-0.1,0-0.2,0.1-0.3,0.1C149.2,117.5,149.2,117.5,149.1,117.4z"/>
			<path class="st1" d="M149.1,116.7c0.1,0.1,0.1,0.1,0.2,0.2c-0.1,0-0.2-0.1-0.3-0.1C149,116.7,149.1,116.7,149.1,116.7z"/>
			<path class="st1" d="M151.3,118.8c0-0.1-0.1-0.2-0.1-0.4c0.1,0.1,0.1,0.2,0.2,0.2C151.3,118.7,151.3,118.7,151.3,118.8z"/>
		</g>
		<g>
			<path class="st1" d="M92.2,73.7c-0.3,0-0.7-0.1-1,0c0,0,0,0,0,0c0,0-0.1-0.1-0.1-0.1c-0.2-0.2-0.3-0.3-0.5-0.5c0,0,0,0,0.1,0
				c0.3-0.2,0.7-0.3,1.1-0.4c0.6,0.1,1.3,0.1,1.9,0.1c-0.1-0.2-0.1-0.3-0.2-0.5c-0.6-0.1-1.2-0.2-1.9-0.3c-0.3-0.2-0.6-0.4-0.8-0.8
				c0.2-0.1,0.5-0.2,0.7-0.3c0.1,0,0.2-0.1,0.2-0.1c0.2,0.1,0.5,0.2,0.7,0.3c0.2,0.1,0.5,0.2,0.7,0.1c0-0.1,0-0.2-0.1-0.3
				c-0.2-0.1-0.4-0.2-0.6-0.2c-0.1,0-0.1,0-0.2-0.1c0.2-0.1,0.5-0.2,0.7-0.3c0-0.1,0-0.2-0.1-0.3c-0.2,0.1-0.5,0.2-0.7,0.3
				c0.1-0.1,0.2-0.3,0.2-0.4c0.2-0.3,0.3-0.5,0.2-0.8c0,0-0.1-0.1-0.1-0.1c-0.3,0.1-0.4,0.4-0.5,0.6c-0.2,0.3-0.4,0.7-0.5,1
				c0,0,0,0,0,0c-0.1,0-0.1,0.1-0.2,0.1c-0.3,0.1-0.5,0.2-0.8,0.3c-0.1-0.3-0.1-0.6-0.1-0.9c0.2-0.3,0.4-0.7,0.7-1
				c0.2,0.1,0.5,0,0.7-0.1c0,0,0-0.1,0-0.1c-0.2-0.1-0.4-0.2-0.5-0.2c0.1-0.2,0.2-0.4,0.3-0.5c0.2,0.1,0.5,0,0.8,0c0,0,0,0,0.1,0
				c0-0.2,0-0.3-0.1-0.5c-0.2,0-0.3,0-0.5,0c0-0.1,0-0.2-0.1-0.2c0,0,0,0,0-0.1c0-0.3,0-0.6,0-0.9c-0.1-0.3-0.5-0.3-0.6,0
				c0,0.3,0,0.6,0,0.8c0,0.2,0,0.4,0.1,0.5c-0.1,0.2-0.2,0.3-0.4,0.5c0-0.1-0.1-0.3-0.1-0.4c-0.1-0.3-0.5-0.2-0.4,0.1
				c0.1,0.2,0.1,0.5,0.2,0.8c-0.2,0.2-0.3,0.4-0.5,0.7l0,0c-0.2,0.1-0.3,0.2-0.5,0.3c-0.2,0.1-0.4,0.1-0.6,0.1c0,0-0.1,0-0.1,0
				c0-0.3,0.1-0.6,0.1-0.9c0-0.1,0-0.1,0-0.2c0,0,0,0,0,0c0.3-0.2,0.6-0.5,0.8-0.7c0.2-0.2,0.4-0.4,0.4-0.7c0,0,0-0.1-0.1-0.1
				c-0.3,0-0.5,0.2-0.8,0.4c-0.1,0.1-0.2,0.2-0.3,0.3c0.1-0.4,0.1-0.9,0.1-1.3c0-0.1-0.1-0.1-0.1,0C89.1,67.1,89,67.5,89,68
				c0-0.1-0.1-0.1-0.1-0.2c-0.1-0.2-0.3-0.5-0.5-0.6c-0.1,0-0.1,0-0.2,0.1c0,0.3,0.2,0.5,0.3,0.7c0.1,0.2,0.3,0.5,0.5,0.6
				c0,0.1,0,0.2,0,0.2c0,0.3-0.1,0.6-0.1,0.8c-0.1-0.1-0.2-0.1-0.3-0.2c0,0-0.1-0.1-0.1-0.1c-0.3-0.9-0.6-1.8-1-2.8
				c0.3-0.1,0.7-0.6,0.5-0.8c0,0-0.1,0-0.1,0c-0.2,0-0.2,0.2-0.3,0.3c-0.1,0.1-0.1,0.1-0.2,0.2c-0.1-0.2-0.1-0.3-0.2-0.5
				c0.3-0.2,0.5-0.6,0.5-1c0-0.2-0.3-0.3-0.4-0.1c-0.1,0.2-0.3,0.5-0.4,0.8c0,0,0,0,0,0c-0.2-0.2-0.5-0.4-0.8-0.5
				c-0.4-0.1-0.4,0.4-0.2,0.6c0.3,0.2,0.6,0.3,0.9,0.3c0,0.1,0.1,0.2,0.1,0.3c-0.2-0.1-0.4-0.1-0.6-0.2c-0.2,0-0.5-0.1-0.6,0.2
				c-0.1,0.4,0.9,0.5,1.3,0.5c0.3,0.9,0.5,1.7,0.8,2.6c0,0,0,0,0,0.1c-0.1,0.4-0.1,0.7-0.2,1c-0.4-0.2-0.7-0.4-1.1-0.7
				c0,0-0.1-0.1-0.1-0.1l0,0c0-0.3-0.2-0.7-0.3-1c-0.1-0.3-0.2-0.6-0.4-0.8c0,0-0.1,0-0.1,0c-0.1,0.3,0,0.6,0.1,0.9
				c0.1,0.1,0.1,0.3,0.2,0.5c-0.4-0.2-0.8-0.5-1.2-0.6c0,0-0.1,0-0.1,0.1c0.3,0.3,0.7,0.6,1.1,0.8c-0.1,0-0.2,0-0.3,0
				c-0.2,0-0.5,0.1-0.7,0.3c-0.1,0.1,0,0.1,0,0.2c0.2,0.1,0.5,0,0.8,0c0.2,0,0.5-0.1,0.7-0.2c0.1,0.1,0.2,0.1,0.3,0.2
				c0.3,0.2,0.6,0.4,0.9,0.6c0,0,0,0,0,0c-0.2,0.2-0.4,0.3-0.6,0.3c-1-0.2-2.1-0.5-3.1-0.6c0-0.1,0-0.2,0-0.2c0-0.3-0.2-0.6-0.4-0.8
				c-0.2-0.2-0.5,0-0.4,0.2c0,0.2,0.1,0.5,0.3,0.7c-0.2,0-0.5-0.1-0.7-0.1c-0.1-0.4-0.3-0.8-0.6-1c-0.3-0.2-0.5,0.1-0.4,0.4
				c0.1,0.2,0.3,0.4,0.5,0.6c-0.1,0-0.2,0.2-0.2,0.3c-0.1,0-0.2,0.1-0.2,0.1c-0.2,0.1-0.5,0.2-0.7,0.4c-0.2,0.2-0.1,0.6,0.2,0.6
				c0.4,0,0.9-0.4,1.1-0.7c0.3,0.1,0.6,0.2,0.9,0.3c-0.2,0.1-0.4,0.3-0.5,0.5c-0.2,0.2,0.1,0.4,0.3,0.4c0.3-0.1,0.6-0.4,0.8-0.7
				c0.9,0.2,1.8,0.4,2.8,0.5c0.2,0.2,0.4,0.4,0.5,0.6c-0.2,0.1-0.4,0.2-0.6,0.3C86.2,73,86.1,73,86,73.1c-0.3-0.1-0.7-0.2-1-0.2
				c-0.3,0-0.6-0.1-0.8,0.1c0,0,0,0.1,0,0.1c0.2,0.2,0.5,0.3,0.8,0.3c0.2,0,0.3,0,0.5,0.1c-0.4,0.2-0.8,0.5-1,0.8c0,0,0,0.1,0,0.1
				c0.4-0.1,0.8-0.3,1.2-0.6c0,0.1-0.1,0.2-0.1,0.3c-0.1,0.2-0.2,0.5-0.1,0.7c0,0.1,0.1,0.1,0.2,0c0.2-0.1,0.3-0.5,0.4-0.7
				c0.1-0.2,0.2-0.5,0.2-0.7c0,0,0,0,0.1,0c0.3-0.2,0.5-0.3,0.8-0.5c0.1,0.2,0.1,0.4,0.1,0.6c0,0.1,0,0.1,0,0.2
				c-0.5,0.6-0.9,1.2-1.4,1.8c-0.1-0.1-0.2-0.1-0.3-0.1c-0.3-0.1-0.7,0-0.9,0.2c-0.2,0.1-0.1,0.4,0.1,0.4c0.2,0,0.5,0,0.8-0.1
				c0,0,0,0,0,0c-0.2,0.2-0.4,0.5-0.5,0.7c-0.3-0.3-1.1-0.2-1.4,0c-0.2,0.1-0.1,0.5,0.1,0.5c0.2,0,0.5,0,0.7,0c0.1,0,0.2,0,0.3,0
				c0,0.2,0,0.4,0.1,0.6c0,0.2,0,0.4,0.2,0.6c0.1,0.2,0.4,0.1,0.4-0.1c0.1-0.4,0-0.9-0.2-1.3c0.2-0.2,0.3-0.3,0.5-0.5c0,0,0,0,0,0
				c0,0.2,0,0.5,0.1,0.7c0.1,0.2,0.5,0.3,0.5,0c0.1-0.4,0.1-0.9-0.2-1.2c0.6-0.6,1.1-1.2,1.6-1.9c0.1-0.1,0.3-0.1,0.5-0.1
				c-0.1,0.3-0.2,0.7-0.3,1c0,0,0,0.1,0,0.1c-0.2,0.1-0.4,0.2-0.6,0.4c-0.2,0.1-0.5,0.3-0.6,0.5c0,0.1,0,0.1,0.1,0.2
				c0.3,0,0.5-0.1,0.7-0.3c0.1-0.1,0.2-0.1,0.3-0.2c-0.1,0.4-0.3,0.9-0.3,1.3c0,0,0.1,0.1,0.1,0c0.2-0.4,0.4-0.8,0.5-1.2
				c0.1,0.2,0.1,0.3,0.2,0.5c0.1,0.3,0.2,0.6,0.5,0.7c0,0,0.1,0,0.1,0c0.1-0.3,0-0.6-0.2-0.8c-0.1-0.3-0.3-0.7-0.5-1
				c0-0.1,0.1-0.2,0.1-0.3c0.1-0.3,0.2-0.5,0.2-0.8c0,0,0.1,0,0.1,0c0.2,0.1,0.3,0.4,0.5,0.5c0.2,0.8,0.4,1.7,0.6,2.5
				c-0.2,0.1-0.5,0.3-0.7,0.5c-0.2,0.2,0,0.6,0.3,0.5c0.2-0.1,0.4-0.3,0.6-0.4c0.1,0.2,0.2,0.5,0.3,0.7c-0.2,0.1-0.3,0.2-0.5,0.3
				c-0.2,0.2-0.4,0.4-0.5,0.6c-0.2,0.3,0.2,0.6,0.5,0.4c0.2-0.2,0.4-0.4,0.6-0.6c0.1-0.1,0.2-0.2,0.2-0.3c0,0,0,0,0,0c0,0,0,0,0.1,0
				c0.3,0.2,0.6,0.3,1,0.4c0.2,0,0.4-0.1,0.3-0.3c-0.1-0.3-0.4-0.4-0.7-0.5c-0.2-0.1-0.4-0.2-0.6-0.2c0-0.2,0-0.5-0.1-0.7
				c0.1,0.1,0.3,0.1,0.4,0.2c0.1,0,0.4,0.1,0.5,0c0.1-0.2-0.2-0.4-0.3-0.5c-0.2-0.1-0.4-0.2-0.6-0.2c-0.1-0.8-0.3-1.5-0.6-2.3
				c0.2-0.4,0.3-0.7,0.6-1c0.1,0.1,0.3,0.2,0.4,0.4c0.1,0.1,0.2,0.2,0.3,0.3c0,0.2,0,0.5,0,0.8c0,0.2,0,0.6,0.2,0.7
				c0,0.1,0.1,0.1,0.2,0c0.2-0.2,0.1-0.5,0.1-0.7c0-0.1,0-0.2,0-0.3c0.3,0.3,0.6,0.6,1,0.8c0.1,0,0.1,0,0.1-0.1
				c-0.2-0.4-0.5-0.7-0.8-1c0.2,0,0.3,0,0.5,0.1c0.3,0,0.6,0.1,0.9-0.1c0,0,0-0.1,0-0.1C92.9,73.7,92.5,73.7,92.2,73.7z M87.2,72
				c0.2,0,0.3,0,0.5,0.1c-0.1,0.1-0.2,0.1-0.3,0.2C87.3,72.2,87.3,72.1,87.2,72z M87.6,73c0-0.2-0.1-0.3-0.1-0.5
				c0.2-0.1,0.4-0.3,0.7-0.4c0,0,0.1,0,0.1,0C88.1,72.5,87.8,72.7,87.6,73z M87.6,71.4c0.1-0.1,0.2-0.1,0.2-0.2c0,0,0,0,0-0.1
				c0.2,0.1,0.4,0.2,0.5,0.3c0,0,0,0.1,0,0.1C88.2,71.5,87.9,71.4,87.6,71.4z M90.4,71.4c0.1,0.2,0.2,0.3,0.3,0.5
				c-0.4,0-0.7-0.1-1.1-0.2C89.8,71.6,90.1,71.5,90.4,71.4z M90.2,70.6c0,0.2,0,0.4,0.1,0.5c-0.2,0.1-0.5,0.2-0.7,0.3
				C89.8,71.1,90,70.8,90.2,70.6z M88.6,73.2c0.1-0.2,0.1-0.3,0.1-0.5c0.1,0.2,0.1,0.4,0.2,0.6C88.8,73.3,88.7,73.2,88.6,73.2z
				 M89,71.3c0-0.1,0-0.1-0.1-0.2c0-0.3,0.1-0.6,0.1-0.8c0.1,0,0.3,0.1,0.4,0.1c0.1,0,0.2,0,0.3,0C89.5,70.6,89.2,71,89,71.3z
				 M89.7,73.6c-0.1-0.4-0.3-0.9-0.4-1.3c0.1,0,0.2,0,0.2,0c0.2,0.2,0.4,0.4,0.6,0.6C89.9,73.1,89.8,73.4,89.7,73.6z M90.3,72.7
				C90.3,72.7,90.3,72.7,90.3,72.7c-0.1-0.1-0.3-0.2-0.4-0.3c0.2,0,0.5,0,0.7,0.1C90.5,72.6,90.4,72.6,90.3,72.7z"/>
			<path class="st1" d="M88.2,70.6c0,0.2,0.1,0.3,0.1,0.5c-0.1-0.1-0.2-0.1-0.3-0.2C88.1,70.8,88.1,70.7,88.2,70.6z"/>
			<path class="st1" d="M88.7,70.2c0,0.1,0,0.2,0,0.3c0-0.1-0.1-0.2-0.1-0.3C88.6,70.2,88.7,70.2,88.7,70.2z"/>
			<path class="st1" d="M88.2,73.2c0.1-0.1,0.2-0.2,0.2-0.3c0,0.1-0.1,0.2-0.1,0.3C88.3,73.2,88.2,73.2,88.2,73.2z"/>
		</g>
		<path class="st2" d="M93.4,54c0,0,2.4-9.8,1.7-15c-0.7-5.2-5.3-10.6-11.4-10.4c-6.1,0.2-6.3,5.6-7.9,10c-1.7,4.5-3.5,10.4-8.6,8.2
			C62,44.5,55.9,38.5,52,30.2c-3.9-8.4-7-19.7-15.1-23.4c-8.1-3.7-17.1-3.9-24.6,3S2.9,28.9,5,40S16.4,67.1,20,73.5
			c3.7,6.3,10.3,14.1,10.3,14.1s2.8-8.7,7.9-9.5c5.1-0.7,12.3,0.9,15.6-1.7c3.3-2.6,7.5-14.9,12.7-14.1c5.1,0.7,7.9,2.4,11.4,0.2
			c3.5-2.2,6.1-8.5,8.6-9.1C89.2,52.8,93.4,54,93.4,54z"/>
		<path class="st2" d="M51.5,111.3c0,0,1.8-5,5.7-5.6s11.4-3.2,12.9-4.5c1.5-1.3,3.5-7.2,7.9-7.4c4.4-0.2,9.7,0.4,12.1-1.9
			c2.4-2.2,7.9-11.9,7.9-11.9s2,1.7,3.3,4.8s2.2,7.2,2.2,7.2l1.7-1.3c0,0,5,1.3,6.6,4.1s1.7,10.2,3.9,11.7c2.2,1.5,9.4,1.7,12.3,5.4
			c2.9,3.7,0.4,6.9,2.2,10c1.8,3.2,6.3,4.1,6.8,5.2c0.6,1.1,0,0.9-2.9,2.8c-2.9,1.9-7.4,8.5-13.4,8.5s-13.4-3.5-17.5-9.3
			c-4-5.8-10.5-20.8-10.5-20.8s-10.1,8.9-17.8,11.5c-7.7,2.6-13.6,5.4-16.9,2.4C54.6,119.5,51.5,111.3,51.5,111.3z"/>
		<path class="st2" d="M115.7,65.8c0,0,0.9-16.3,6.1-20.4c5.1-4.1,9.2-3.2,10.8-0.9c1.7,2.2,5.7,17.5,8.6,17.6
			c2.9,0.2,6.3-6.5,8.5-13c2.2-6.5,9.2-19.9,18.6-22.7c9.4-2.8,17.5,0.6,20.4,4.3c2.9,3.7,5.7,18.4,5.9,25.4
			c0.2,7.1-4.2,26.4-7.2,31.6c-2.9,5.2-8.5,13.6-11.8,17.1c-3.3,3.5-7.9,8.4-9.2,8.2c-1.3-0.2-3.5-8.7-3.5-8.7s0-2-4.4-4.5
			c-4.4-2.4-7.2-3.3-9.2-7.1c-2-3.7-1.5-6.9-5.3-8.7c-3.9-1.9-8.3-0.9-12.3-3c-4-2-2.9-9.8-6.8-11.5c-3.9-1.7-9.7-1.9-9.7-1.9
			L115.7,65.8z"/>
		<path class="st3" d="M103.5,91.2c0,0,0.1,1.8-1,5.3c-1.1,3.5-4.7,7.4-5.7,8.4c-1,1-3.6,3.5-3.6,3.5l2.5,7l1.5,4
			c0,0,5.9-8.9,8.6-18.1c1.3-4.7-0.6-10.3-0.6-10.3L103.5,91.2z"/>
		<path class="st4" d="M94.5,51.4c0,0-5.5-2.6-9.7-0.2c-4.2,2.4-5.5,7.4-9.2,8.7c-3.7,1.3-11.2,0-13.6,2.4
			c-2.4,2.4-7.5,8.9-11.4,11.5c-3.9,2.6-9.7-0.4-15.4,3.9c-5.7,4.3-5.9,7.6-5.9,7.6l3.7,3.9c0,0,0.6-6.9,6.1-9.5
			c5.5-2.6,11.2,1.3,14.5-0.4c3.3-1.7,5.1-5.4,6.6-7.8c1.5-2.4,3.3-5.8,6.6-5.8c3.3,0,8.5,2.6,10.7,0.9c2.2-1.7,4.2-7.1,7-8.5
			c2.8-1.5,5.5-1.5,6.6-1.3c1.1,0.2,2,0.6,2,0.6L94.5,51.4z"/>
		<path class="st4" d="M96.7,77.5l3.4,4.7c0,0-1.4,1.1-2.9,3.1c-1.5,1.9-4.3,5.8-5.6,7.1s-4,3-6.6,3.2c-2.7,0.2-6.3-0.4-8.6,1.4
			c-2.2,1.8-3.7,3.7-4.7,4.9c-1,1.2-3,3-5.1,3.6c-2.1,0.6-7.5,1.3-9.7,2.3c-2.1,1-2.9,1.5-3.6,2.5c-0.6,1-1.3,2.5-1.3,2.5l-1.9-3.2
			c0,0,1.4-4.3,4.7-5.7c3.3-1.4,8.7-1.5,10.8-2.4c2.1-0.9,5.3-5.2,6.6-7.2c1.3-2,3.5-3.1,6.7-2.9c3.2,0.2,7.5,0.8,9.6-1.6
			c2-2.4,3.2-5.3,4.3-7.7C94.7,78.5,96.7,77.5,96.7,77.5z"/>
		<path class="st4" d="M115.5,66.2c0,0,3.6-1.2,6.4-0.3c2.9,0.9,5.2,3.2,5.7,4c0.5,0.8,2.1,7.9,4.3,9.2c2.2,1.3,6.5,2.8,9.6,3
			c3,0.2,5.6,2.7,6.8,4.7c1.2,2,3,7.1,5.2,8.4c2.2,1.3,7.4,2.5,9.7,4.7c2.4,2.2,3.5,5,3.9,7.2c0.4,2.2,0,5.3,0,5.3l-3.7,2.9
			c0,0-0.1-8-1-10.3c-0.9-2.3-2.6-3.7-5.1-4.6c-2.6-0.9-7.9-2-9-4.1c-1.1-2-2.6-8.5-4.9-10.3c-2.3-1.8-11.8-2.4-13.4-3.8
			c-1.7-1.4-3.2-3.8-3.8-6.1c-0.6-2.3-1.7-5.4-3.7-5.9c-2-0.6-3.6-1.4-5-1c-1.4,0.4-3,0.6-3,0.6L115.5,66.2z"/>
		<path class="st4" d="M104.2,91.6c0,0,3.3,1.2,5.1,2.8c1.7,1.6,2.8,3.4,2.9,5.4c0.1,1.9-0.8,5.4,0.6,7.3c1.4,1.9,3.4,2.9,6.6,3.3
			c3.2,0.5,7.4,1.7,8.3,3.5c0.9,1.9,0.8,4.8,0.7,6.4c-0.1,1.6,0.2,4.5,1.9,5.1c1.7,0.6,3.5,0.8,4.1,1.8c0.6,0.9,1,1.8,1,1.8l3.9-2.3
			c0,0-3.9-1-5.1-2.4c-1.3-1.4-1.9-3.7-2.1-6.3c-0.2-2.6-0.4-5.6-2-7.1c-1.7-1.5-4.9-2.5-7.4-3.1c-2.6-0.6-5.2-1.5-6.1-3.6
			c-0.8-2.1-1.1-5.6-1.8-7.6c-0.7-2-2.5-3.7-4.4-4.9c-1.9-1.2-4.8-2.1-4.8-2.1L104.2,91.6z"/>
		<g>
			<g>
				<g>
					<path class="st5" d="M96.4,104.5c-5.3,4.4-10.8,8.6-16.8,12c-4.7,2.6-16.1,9.6-21.4,5.4c-1.7-1.3-2.5-3.8-3.4-5.7
						c-1.4-2.8-3.1-5.5-4.9-8.1c-3.5-5-7.7-9.5-11.8-14c-9-9.7-16.6-19.6-22.7-31.4C12.4,57,9,51,7.2,44.8c-2.1-6.9-1.9-15-0.4-22
						C9.7,8.5,25.1-0.3,38.2,8.2c9.3,6,10.1,17.6,15.3,26.5c2.8,4.9,7.5,11.8,13.4,13.1c8.1,1.7,9-8.1,11-13.4
						c1.1-3,2.4-4.5,5.6-4.6c2.9-0.1,5.3,0.7,7.5,2.7c2.9,2.8,3.7,6.9,3.6,10.8c-0.1,6.7-2.9,13-3.2,19.7c-0.2,6.4,2,10.9,5.4,16.2
						c2.1,3.2,4.4,6.6,5.2,10.4c1.2,6-2.3,10.3-6.2,14.3c-0.9,0.9,0.4,2.1,1.3,1.3c4.1-3.8,7.6-8.3,7-14.2c-0.7-6.9-6-11.9-8.9-17.8
						C91,64.7,94.7,56.4,96,47.6c0.8-5.2,0.7-11-2.8-15.3c-2.3-2.8-6.5-5.1-10.2-4.8c-5.1,0.4-6.8,5.6-7.8,9.8
						c-0.8,3.3-2,7.9-5.9,8.7c-2.9,0.5-5.5-1.6-7.4-3.4c-3.3-3.1-6.1-7-8-11.1c-5-10.3-7-22.5-19.1-27C24.3,0.6,12.5,5.3,7.4,15.3
						C1.4,27,3.2,42.1,8.5,53.6C14.8,67.3,22,80.1,32.4,91.2c6.1,6.4,12.5,12.6,17.5,19.9c2.5,3.7,4.5,11.2,9.1,13
						c5.1,2,12.7-2.2,17.2-4.4c7.6-3.8,14.4-8.8,20.4-14.8C96.9,104.6,96.6,104.4,96.4,104.5z"/>
				</g>
			</g>
			<g>
				<g>
					<path class="st5" d="M147,59c5.2-13.6,12.7-35.6,31.6-32.3c17.5,3,14.8,29.3,13,42.1c-2.4,16.9-11.8,29.9-23.7,41.7
						c-5.8,5.8-12.4,10.4-20.2,13.1c-5.9,2.1-12.2,3.5-17.3,7.3c-4.1,3.1-7.3,7.8-13.2,6.6c-4.3-0.8-8.5-4-11.5-7.1
						c-6.1-6.2-9.3-14.3-12-22.5c-0.5-1.5-2.8-0.9-2.3,0.6c2.2,7.9,5.6,15.8,11,22c4.4,5,11.5,10.6,18.5,9.3c3.5-0.7,6-3.1,8.6-5.4
						c4.4-3.9,9.2-5.9,14.8-7.8c8.3-2.7,15.4-6.4,21.9-12.3c13.8-12.5,25.5-28.5,28.1-47.3c1.8-13.1,3.7-37-12.4-42.3
						c-8.4-2.7-17,0.7-23,6.7c-7.5,7.4-10.1,17.3-14,26.7C144.5,59.6,146.6,60.2,147,59L147,59z"/>
				</g>
			</g>
			<g>
				<g>
					<path class="st5" d="M139.1,61.7c1.1,1.4,2.8,2,4.5,1.3c1.6-0.7,2.6-2.3,3.3-3.9c0.5-1.2-1.2-2.2-1.7-1c-0.9,1.7-2.7,4.3-4.5,2
						C139.8,59,138.2,60.6,139.1,61.7L139.1,61.7z"/>
				</g>
			</g>
			<g>
				<g>
					<path class="st5" d="M136.6,55c0.7,2.2,1,4.6,2.3,6.5c0.8,1.2,2.6,0.1,1.9-1.1c-1.1-1.8-1.4-4-2-6
						C138.4,53.1,136.2,53.6,136.6,55L136.6,55z"/>
				</g>
			</g>
			<g>
				<g>
					<path class="st5" d="M103.7,92c7.6-5.6,10.5-16,12.2-24.9c1-5.3,1.1-11,2.9-16.1c1.6-4.8,5.9-9.1,11.4-6.9
						c3.2,1.3,5.5,8.1,6.4,10.8c0.5,1.4,2.7,0.8,2.2-0.6c-1.8-4.8-4.4-12.2-10.3-12.9c-5-0.6-9.1,3.3-10.9,7.5
						c-2.8,6.5-2.6,14.5-4.2,21.4c-1.9,8-5.4,14.6-10,21.3C103.2,91.9,103.5,92.2,103.7,92L103.7,92z"/>
				</g>
			</g>
			<g>
				<g>
					<path class="st5" d="M58.3,123.1c6.3,3.8,14.7-0.9,20.4-4c6.6-3.6,16.4-9.2,19.8-16.1c0.2-0.4-0.2-0.9-0.6-0.6
						c-2.6,1.6-4.5,4.2-6.7,6.2c-3,2.7-6.2,5.2-9.7,7.2c-6.5,3.9-15.1,8.8-22.9,6.5C58.1,122.1,57.9,122.8,58.3,123.1L58.3,123.1z"
						/>
				</g>
			</g>
			<g>
				<g>
					<path class="st5" d="M77.2,67.2c2.2-1.1,3.2-3,4.4-5c2.3-4,5.8-5.7,10.4-4.8c0.4,0.1,0.6-0.5,0.2-0.6c-2.8-1.2-6.1-0.6-8.5,1.3
						c-2.9,2.3-3.5,6.7-6.9,8.4C76.2,66.7,76.7,67.5,77.2,67.2L77.2,67.2z"/>
				</g>
			</g>
			<g>
				<g>
					<path class="st5" d="M33.5,89.9c-0.2-3.5,0.9-6.5,3.7-8.7c3.3-2.7,6.8-1.7,10.7-1.2c3,0.4,5.8,0.5,8.2-1.5
						c3.1-2.6,3.6-6.9,6.4-9.7c4.8-4.7,9.4-0.3,14.7-1.5c0.6-0.1,0.3-1.1-0.3-0.9c-4.6,1.1-8.8-2.9-13.2,0
						c-6.2,4.1-4.4,13.1-14.1,13c-4.7-0.1-8.7-2-12.8,1.2c-2.9,2.3-4.3,5.8-3.9,9.4C32.9,90.3,33.5,90.4,33.5,89.9L33.5,89.9z"/>
				</g>
			</g>
			<g>
				<g>
					<path class="st5" d="M29.6,86.1c0.9-5.2,4.4-8.5,9.5-9.9c3.4-0.9,7-0.1,10.4-0.9c4.9-1.2,6.9-7,10.3-10.3
						c3.3-3.1,6.7-3.8,11.1-3.8c2,0,4.2,0,5.9-1.1c1.5-1,2.4-2.5,3.4-3.9c3.4-4.7,7.3-6.3,13-5.1c0.4,0.1,0.6-0.5,0.2-0.6
						c-5-2-10.1,0.2-13.2,4.3c-2.3,3.1-3.5,5.1-7.9,5.5c-2,0.2-4-0.3-6.1,0c-2.2,0.4-4,1.3-5.8,2.7c-2.5,1.9-4.3,4.5-6.1,6.9
						c-4.2,5.6-9.1,3.9-14.9,5.3c-5.5,1.3-10.2,5-10.6,10.9C29,86.4,29.6,86.5,29.6,86.1L29.6,86.1z"/>
				</g>
			</g>
			<g>
				<g>
					<path class="st5" d="M50.7,110.3c1.9-5.7,6.1-7,11.5-7.6c1.4-0.2,2.9-0.3,4.2-0.9c5.8-2.7,4.7-10.5,13-10.1
						c3.8,0.2,7.3,1,10.2-2.1c3.3-3.6,3.3-8.6,7.3-11.7c0.4-0.3,0.1-0.8-0.4-0.6c-4.1,1.9-4.5,6.9-6.7,10.4
						c-4.1,6.4-11.5,0.4-16.5,4.5c-1.7,1.4-2.6,3.6-3.8,5.4c-2.5,3.8-6.1,3.9-10.2,4.5c-4.6,0.7-8.2,3.3-9.1,8.1
						C50.1,110.5,50.6,110.6,50.7,110.3L50.7,110.3z"/>
				</g>
			</g>
			<g>
				<g>
					<path class="st5" d="M52.6,113.2c1.7-7.5,10.6-5,15.8-7.7c1.7-0.9,2.8-2.2,4-3.7c2.8-3.5,4.8-5.2,9.4-5.7c4-0.4,7.3,0,10.4-3.1
						c3.2-3.3,4.8-7.6,8.3-10.6c0.3-0.3-0.1-0.8-0.5-0.6c-4.5,2.5-5.5,8.2-9.4,11.3c-4.6,3.7-11.1,0.4-15.7,4.2
						c-2,1.6-3,4.2-4.9,5.9c-3.1,2.9-6.8,2.5-10.5,3.4c-3.6,0.8-6.9,2.7-7.4,6.6C52,113.4,52.5,113.5,52.6,113.2L52.6,113.2z"/>
				</g>
			</g>
			<g>
				<g>
					<path class="st5" d="M114.8,70.3c6.9-3.3,9.7,2.4,11.6,7.7c0.6,1.6,1.3,3,2.6,4c5,3.9,12.6,0.5,15.8,7.2
						c1.9,3.9,1.6,7.8,6.2,9.7c3.8,1.5,7.9,1.6,10.1,5.8c1.9,3.5,0.5,7.5,1.9,11.2c0.3,0.7,1.4,0.4,1.1-0.3
						c-1.3-3.3-0.1-6.9-1.5-10.2c-1-2.6-3.1-4.7-5.7-5.8c-1.4-0.6-2.9-0.8-4.4-1.2c-3.5-1.1-5-3.7-6.1-7c-0.8-2.4-1.5-4.5-3.7-6
						c-2.5-1.7-5.7-1.6-8.5-2.2c-3.1-0.7-5.4-1.8-6.9-4.8c-0.8-1.6-1-3.5-1.8-5.1c-2.1-4.4-7.1-5.7-11.2-3.1
						C114.5,70.2,114.7,70.4,114.8,70.3L114.8,70.3z"/>
				</g>
			</g>
			<g>
				<g>
					<path class="st5" d="M115.7,66.3c4.6-0.7,9.3,0.6,12,4.8c1.6,2.5,1.7,5.8,3.7,8.1c3.4,3.7,9.4,2.3,13.5,5
						c4.9,3.3,4.3,9.8,9.9,12.6c2.6,1.3,5.5,1.9,7.8,3.7c4.1,3.3,4.4,7.7,3.6,12.6c-0.1,0.5,0.6,0.9,0.9,0.4
						c2.4-4.7,0.4-10.9-3.6-14.1c-2.9-2.3-6.7-2.6-9.6-4.7c-3.6-2.6-3.7-7.7-7-10.6c-2.3-2-4.9-2.5-7.8-3c-2.9-0.5-5.6-1.1-7.6-3.6
						c-1.2-1.5-1.4-4-2.3-5.7c-2.5-5-8.3-7.6-13.6-5.9C115.2,65.9,115.4,66.4,115.7,66.3L115.7,66.3z"/>
				</g>
			</g>
			<g>
				<g>
					<path class="st5" d="M129.4,125.8c0.9,0.6,1.8,0.8,2.8,1c1.1,0.3,2.7,1,2.2,2.4c-0.2,0.6,0.7,0.9,1,0.4c0.7-1.2,0.1-2.4-1-3.2
						c-1.3-1-3.1-0.8-4.4-1.7C129.4,124.3,128.8,125.4,129.4,125.8L129.4,125.8z"/>
				</g>
			</g>
			<g>
				<g>
					<path class="st5" d="M112.9,108.7c3.9,3.4,10.3,1.3,13.6,5.2c2.9,3.5-0.5,8.5,2.8,11.7c0.6,0.6,1.4-0.3,0.9-0.9
						c-2.1-2.1-0.8-5.2-1.1-7.8c-0.2-1.6-0.8-3.1-2-4.2c-3.6-3.7-9.5-1.6-13.3-4.9C113.2,107.5,112.4,108.2,112.9,108.7L112.9,108.7
						z"/>
				</g>
			</g>
			<g>
				<g>
					<path class="st5" d="M103.3,91.4c4.4,1.9,8.3,4.2,8.3,9.6c0,2.9-0.7,5.3,1.3,7.7c0.5,0.6,1.3-0.2,0.8-0.8
						c-2.9-3.4,0.2-8.4-2.4-12.2c-1.8-2.6-4.8-4.1-7.8-4.9C103.2,90.8,103,91.3,103.3,91.4L103.3,91.4z"/>
				</g>
			</g>
			<g>
				<g>
					<path class="st5" d="M133.8,124.9c1.8,1.4,4.1,1.7,6.2,2.5c0.4,0.2,0.7-0.4,0.4-0.7c-1.5-1.7-4-1.4-5.6-2.7
						C134.1,123.5,133.1,124.4,133.8,124.9L133.8,124.9z"/>
				</g>
			</g>
			<g>
				<g>
					<path class="st5" d="M115.5,103.9c2.6,5.2,8.4,4,12.7,6.6c5.4,3.1,1.7,10.4,5.6,14.5c0.6,0.6,1.5-0.3,0.9-0.9
						c-3.4-3.6-0.5-9.6-4-13.3c-3.9-4.1-11.4-1.9-14.2-7.5C116.2,102.6,115.2,103.2,115.5,103.9L115.5,103.9z"/>
				</g>
			</g>
			<g>
				<g>
					<path class="st5" d="M105.2,90.3c3.2,0.9,5.9,2.3,7.8,5.1c1.8,2.7,1.6,5.5,2.4,8.4c0.2,0.8,1.4,0.4,1.2-0.3
						c-1-3.6-0.8-6.6-3.4-9.7c-2-2.3-4.9-4-7.9-4.1C104.9,89.7,104.9,90.2,105.2,90.3L105.2,90.3z"/>
				</g>
			</g>
			<g>
				<g>
					<path class="st5" d="M55.2,117.2c-6.7,0.4-7.7,8.8-4.1,13.3c2.5,3.1,6.4,4.6,10.1,5.5c6.6,1.6,20.1,3.4,16.4,13.6
						c-1.9,5.3-11.4,8.9-16,11.2c-4.6,2.4-9.1,4.8-13.1,8.1c-6.4,5.4-10.9,13.5-8.6,22.1c2.3,8.4,10,11.5,18.1,10.3
						c5-0.8,9.9-2.7,14.2-5.4c4.5-2.8,8.9-9.5,14-10.6c10.1-2.1,7.1,12.5,8,18c0.8,4.7,2.9,10.2,6.9,13.1c7.2,5.2,17.1-0.6,22.4-5.9
						c19.5-19.9,7.4-49.4-2.6-70.6c-0.8-1.7-3.3-0.2-2.5,1.4c8.9,18.8,19.7,43.2,6.6,62.8c-2.7,4.1-6.4,7.6-10.9,9.7
						c-2.7,1.3-6.1,2.3-9.1,1.4c-4.2-1.3-6.5-6.2-7.6-10c-1.9-6.6,1.8-17.2-5.3-21.7c-6.7-4.3-12.7,3.2-17.2,7
						c-7.1,6-23.5,13.6-30.5,3.9c-6.8-9.6,1.2-20.4,9.2-25.9c7.3-5,16.6-7.6,23.2-13.7c5.5-5.1,5.4-12.4-0.8-16.9
						c-4.4-3.2-9.9-3.4-15-4.7c-2.9-0.7-6.1-1.9-8.1-4.2c-3-3.4-2.5-9.2,2.4-10.7C55.9,118.1,55.8,117.2,55.2,117.2L55.2,117.2z"/>
				</g>
			</g>
		</g>
	</g>
</g>
</svg>
