<?xml version="1.0" encoding="utf-8"?>
<!-- Generator: Adobe Illustrator 19.1.0, SVG Export Plug-In . SVG Version: 6.00 Build 0)  -->
<svg version="1.1" xmlns="http://www.w3.org/2000/svg" xmlns:xlink="http://www.w3.org/1999/xlink" x="0px" y="0px"
	 viewBox="0 0 127.1 79.7" style="enable-background:new 0 0 127.1 79.7;" xml:space="preserve">
<style type="text/css">
	.st0{fill:#C5E0F1;}
	.st1{fill:url(#SVGID_1_);}
	.st2{fill:url(#SVGID_2_);}
	.st3{fill:url(#SVGID_3_);}
	.st4{fill:url(#SVGID_4_);}
	.st5{fill:url(#SVGID_5_);}
	.st6{fill:url(#SVGID_6_);}
	.st7{fill:url(#SVGID_7_);}
	.st8{fill:url(#SVGID_8_);}
	.st9{fill:url(#SVGID_9_);}
	.st10{fill:url(#SVGID_10_);}
	.st11{fill:url(#SVGID_11_);}
</style>
<g id="Layer_1">
</g>
<g id="Layer_2">
	<g>
		<g>
			<g>
				<path class="st0" d="M24.4,32.9c-2.6,0-4.9-1-6.3-2.8c-0.8,0.9-1.9,1.3-3.1,1.3c-0.2,0-0.5,0-0.8-0.1c-1.3-0.2-2.4-1-3-2.1
					c-1.1,0.6-2.2,0.9-3.4,0.9c-3.8,0-6.9-2.9-6.9-6.5c0-3.3,2.5-6,6-6.5c0.1-2.2,2-4,4.3-4c0.4,0,0.7,0,1.1,0.1
					c-0.3-3.6,3.1-7,7.8-7.7c0.6-0.1,1.2-0.1,1.8-0.1c2.2,0,4.2,0.6,5.7,1.8c0.4-0.1,0.9-0.1,1.3-0.1c1.5,0,3.2,0.5,4.8,1.5
					c2.4,1.5,4,3.8,4.1,5.8c0.1,0,0.1,0,0.2,0c1.9,0.3,3.5,1,4.8,2c1.2,1.1,1.8,2.4,1.6,3.7c0,0.2-0.1,0.4-0.2,0.6
					c3.3,0.9,5.4,3.1,5.1,5.4C48.8,28.4,46.3,30,43,30c-0.5,0-1,0-1.5-0.1c-1.1-0.2-2.2-0.5-3.1-1c-0.8,0.8-1.9,1.2-2.9,1.2
					c-0.2,0-0.5,0-0.8-0.1c-0.9-0.2-1.8-0.6-2.4-1.3c-1.2,2.1-3.5,3.7-6.3,4.1C25.4,32.9,24.9,32.9,24.4,32.9L24.4,32.9z"/>
				<radialGradient id="SVGID_1_" cx="25.861" cy="-2.7295" r="52.1729" gradientUnits="userSpaceOnUse">
					<stop  offset="0" style="stop-color:#F4F5F9"/>
					<stop  offset="0.1526" style="stop-color:#EFF3F8"/>
					<stop  offset="0.3235" style="stop-color:#E2EDF6"/>
					<stop  offset="0.5026" style="stop-color:#CCE3F2"/>
					<stop  offset="0.5463" style="stop-color:#C5E0F1"/>
					<stop  offset="0.6293" style="stop-color:#B5D3E6"/>
					<stop  offset="0.7917" style="stop-color:#8BB2C8"/>
					<stop  offset="1" style="stop-color:#4C809C"/>
				</radialGradient>
				<path class="st1" d="M43.7,21c0.1-0.3,0.2-0.6,0.3-0.9c0.4-2.4-2.4-4.8-6.1-5.4c-0.2,0-0.3,0-0.5-0.1c0.1-2-1.4-4.3-3.9-5.9
					c-2.1-1.3-4.3-1.7-6-1.2c-1.8-1.4-4.5-2.1-7.4-1.7c-4.7,0.7-8,4.2-7.4,7.8c0,0,0,0.1,0,0.1c-0.5-0.2-1-0.3-1.5-0.3
					c-2.2,0-4,1.8-4,3.9c0,0,0,0,0,0c-3.3,0.3-5.9,3-5.9,6.2c0,3.4,3,6.2,6.6,6.2c1.3,0,2.5-0.4,3.6-1c0.5,1.1,1.6,2,2.9,2.3
					c1.5,0.3,2.9-0.4,3.8-1.5c1.5,2.1,4.6,3.3,7.8,2.8c2.9-0.5,5.2-2.2,6.3-4.4c0.6,0.8,1.5,1.4,2.5,1.6c1.4,0.2,2.7-0.2,3.6-1.2
					c0.9,0.5,2,0.9,3.2,1.1c3.7,0.5,7-1,7.4-3.4C49.2,23.9,46.9,21.7,43.7,21z"/>
				<path class="st0" d="M14.2,14.3c0,0.2,0.1,0.5,0.2,0.7c-0.4-0.5-0.6-1.1-0.7-1.8c-0.5-3.1,2.4-6.2,6.5-6.8
					c3.8-0.6,5.3,0.4,6.9,2.5c-2-1.2-3.1-1.9-6.4-1.4C16.6,8.2,13.7,11.2,14.2,14.3z M33.2,9.4c-2.8-1.7-6-1.7-7.1,0.2
					c-0.3,0.4-0.4,0.9-0.4,1.4c0.1-0.3,0.1-0.6,0.3-0.9C27,8.4,30,8.3,32.7,9.9c2.7,1.6,4,4.4,2.9,6.1c-0.4,0.6-0.9,1-1.7,1.2
					c1-0.1,1.9-0.6,2.3-1.4C37.4,14,36,11.1,33.2,9.4z M38.2,15.5c-0.7-0.1-1.3-0.1-2-0.1c0.2,0,0.4,0,0.7,0.1
					c3.6,0.5,6.2,2.8,5.9,5.2c0,0.2-0.1,0.4-0.1,0.6c0.3-0.4,0.5-0.8,0.6-1.3C43.5,17.9,41.3,16,38.2,15.5z M8.3,28.4
					c0.4,0,0.8-0.1,1.2-0.1c-0.7,0.3-1.4,0.4-2.1,0.4c-3,0-5.4-2.3-5.4-5.1c0-2.8,2.4-5.1,5.4-5.1c0.3,0,0.6,0,0.9,0.1
					c-2.8,0-5.1,2.2-5.1,4.9C3.1,26.2,5.4,28.4,8.3,28.4z M14.6,29.9c-1.7-0.3-2.8-2.2-2.8-3.9c-0.1,0.2-0.2,0.4-0.2,0.7
					c-0.3,1.8,0.9,3.6,2.8,3.9c1.9,0.3,3.6-0.9,3.9-2.7c0-0.2,0-0.3,0-0.5C17.8,28.9,16.2,30.2,14.6,29.9z M31.7,25.1
					c-0.1-0.4-0.2-0.8-0.3-1.2c0,0.1,0,0.2,0.1,0.2c0.5,3.1-2.1,6.1-5.7,6.6c-3.6,0.6-7-1.5-7.5-4.6c0-0.1,0-0.2,0-0.3
					c0,0.4,0,0.8,0,1.2c0.5,3.1,3.9,5.1,7.6,4.5C29.6,31.2,32.2,28.2,31.7,25.1z M34.8,28.9c-1-0.2-1.9-0.8-2.5-1.6
					c0.5,1,1.4,1.7,2.6,1.9c1.6,0.3,3.2-0.5,3.9-1.9C37.8,28.5,36.4,29.2,34.8,28.9z M11.8,14.3c0.4,0,0.8,0.1,1.2,0.2
					c-0.6-0.4-1.3-0.6-2-0.6c-1.9,0-3.4,1.5-3.4,3.3c0,0.2,0,0.3,0.1,0.5C8,15.8,9.7,14.3,11.8,14.3z M43.3,21.5
					c2.6,0.9,4.3,2.6,4.1,4.2c-0.3,2.1-4,3.4-8.1,2.8c0,0,0,0,0,0c0.6,0.2,1.3,0.4,2,0.5c3.5,0.5,6.7-0.9,7-3
					C48.6,24.1,46.4,22.2,43.3,21.5z M18.9,26.1c-0.2-1.3,0.2-2.6,1-3.7c-1.4,1.2-2.2,2.9-1.9,4.6c0.5,2.9,3.6,4.8,7.1,4.3
					c1.2-0.2,2.2-0.6,3-1.2c-0.5,0.2-1,0.3-1.5,0.4C22.8,31,19.3,29.1,18.9,26.1z"/>
			</g>
			<g>
				<path class="st0" d="M88,43.4c-4,0-7.6-1.6-9.8-4.3c-1.3,1.3-3,2.1-4.8,2.1c-0.4,0-0.8,0-1.2-0.1c-2-0.4-3.7-1.6-4.6-3.3
					c-1.6,0.9-3.5,1.4-5.3,1.4c-5.9,0-10.7-4.5-10.7-10.1c0-5.1,3.9-9.3,9.2-10c0.2-3.4,3.1-6.2,6.7-6.2c0.6,0,1.1,0.1,1.7,0.2
					c-0.4-5.6,4.8-10.8,12-12C82.1,1,83,0.9,83.9,0.9c3.4,0,6.5,1,8.9,2.8c0.6-0.1,1.3-0.2,2.1-0.2c2.4,0,5,0.8,7.4,2.3
					c3.7,2.3,6.2,5.9,6.3,9c0.1,0,0.2,0,0.3,0c2.9,0.4,5.5,1.5,7.4,3.2c1.9,1.7,2.8,3.7,2.5,5.7c-0.1,0.3-0.1,0.6-0.2,1
					c5.1,1.4,8.3,4.9,7.8,8.4c-0.5,3.4-4.4,5.8-9.6,5.8c-0.8,0-1.6-0.1-2.4-0.2c-1.7-0.3-3.4-0.8-4.9-1.5c-1.2,1.2-2.9,1.8-4.6,1.8
					c-0.4,0-0.8,0-1.2-0.1c-1.4-0.3-2.7-1-3.7-2c-1.8,3.3-5.5,5.7-9.7,6.3C89.6,43.3,88.8,43.4,88,43.4L88,43.4z"/>
				<radialGradient id="SVGID_2_" cx="90.2527" cy="-11.7295" r="80.7129" gradientUnits="userSpaceOnUse">
					<stop  offset="0" style="stop-color:#F4F5F9"/>
					<stop  offset="0.1526" style="stop-color:#EFF3F8"/>
					<stop  offset="0.3235" style="stop-color:#E2EDF6"/>
					<stop  offset="0.5026" style="stop-color:#CCE3F2"/>
					<stop  offset="0.5463" style="stop-color:#C5E0F1"/>
					<stop  offset="0.6293" style="stop-color:#B5D3E6"/>
					<stop  offset="0.7917" style="stop-color:#8BB2C8"/>
					<stop  offset="1" style="stop-color:#4C809C"/>
				</radialGradient>
				<path class="st2" d="M117.8,24.9c0.2-0.4,0.4-0.9,0.4-1.4c0.5-3.7-3.7-7.5-9.5-8.3c-0.2,0-0.5-0.1-0.7-0.1
					c0.1-3-2.2-6.7-6.1-9.1c-3.2-2-6.7-2.6-9.3-1.9c-2.8-2.2-7-3.3-11.4-2.6c-7.2,1.1-12.4,6.5-11.5,12c0,0.1,0,0.1,0,0.2
					c-0.7-0.3-1.5-0.4-2.3-0.4c-3.4,0-6.2,2.7-6.2,6.1c0,0,0,0,0,0C56.1,20,52,24.1,52,29c0,5.3,4.6,9.6,10.2,9.6
					c2,0,3.9-0.6,5.5-1.5c0.8,1.8,2.4,3.1,4.5,3.5c2.3,0.4,4.5-0.5,5.9-2.3c2.4,3.3,7.1,5.2,12.1,4.4c4.5-0.7,8.1-3.4,9.7-6.7
					c0.9,1.2,2.3,2.1,3.9,2.4c2.1,0.4,4.2-0.4,5.6-1.8c1.4,0.8,3.2,1.4,5,1.6c5.8,0.8,10.9-1.5,11.4-5.3
					C126.3,29.5,122.8,26.1,117.8,24.9z"/>
				<path class="st0" d="M72.2,14.7c0.1,0.4,0.2,0.8,0.3,1.1C72,14.9,71.6,14,71.4,13c-0.8-4.8,3.7-9.5,10-10.5
					c5.8-0.9,8.2,0.6,10.7,3.8c-3.1-1.9-4.8-3-9.8-2.2C76,5.1,71.5,9.9,72.2,14.7z M101.6,7c-4.4-2.7-9.3-2.6-11.1,0.3
					c-0.4,0.7-0.6,1.4-0.6,2.2C90,9,90.1,8.5,90.4,8.1c1.6-2.7,6.3-2.8,10.4-0.3c4.1,2.5,6.1,6.7,4.5,9.4c-0.6,0.9-1.5,1.5-2.6,1.8
					c1.6-0.2,2.9-0.9,3.6-2.1C108.1,14.1,105.9,9.6,101.6,7z M109.4,16.5c-1.1-0.2-2.1-0.2-3-0.1c0.3,0,0.7,0.1,1,0.1
					c5.5,0.8,9.6,4.4,9.1,8c0,0.3-0.1,0.6-0.2,0.9c0.5-0.6,0.8-1.3,1-2C117.6,20.2,114.1,17.2,109.4,16.5z M63.1,36.4
					c0.6,0,1.3-0.1,1.9-0.2c-1,0.4-2.1,0.6-3.3,0.6c-4.6,0-8.4-3.5-8.4-7.9c0-4.3,3.8-7.9,8.4-7.9c0.5,0,1,0,1.4,0.1
					c-4.4,0-7.9,3.4-7.9,7.6C55.1,33,58.7,36.4,63.1,36.4z M72.8,38.8c-2.6-0.5-4.4-3.4-4.3-6c-0.1,0.3-0.2,0.7-0.3,1.1
					c-0.5,2.8,1.4,5.6,4.3,6.1c2.9,0.5,5.6-1.4,6.1-4.2c0-0.3,0.1-0.5,0.1-0.8C77.7,37.2,75.3,39.3,72.8,38.8z M99.3,31.4
					c-0.1-0.6-0.3-1.2-0.5-1.8c0,0.1,0.1,0.2,0.1,0.4c0.7,4.8-3.2,9.4-8.8,10.3c-5.6,0.9-10.8-2.3-11.6-7.1c0-0.1,0-0.3,0-0.4
					c-0.1,0.6-0.1,1.3,0,1.9c0.8,4.8,6,7.9,11.8,7C96,40.8,100,36.2,99.3,31.4z M104.1,37.2c-1.6-0.3-3-1.2-3.9-2.4
					c0.8,1.5,2.2,2.7,4,3c2.5,0.4,4.9-0.8,6-3C108.8,36.6,106.5,37.6,104.1,37.2z M68.5,14.6c0.6,0,1.2,0.1,1.8,0.3
					c-0.9-0.6-1.9-1-3.1-1c-2.9,0-5.3,2.3-5.3,5.1c0,0.3,0,0.5,0.1,0.8C62.6,16.9,65.3,14.6,68.5,14.6z M117.2,25.8
					c4.1,1.5,6.7,4,6.3,6.4c-0.5,3.3-6.1,5.2-12.6,4.4c0,0,0,0,0,0c1,0.3,2,0.6,3.1,0.7c5.5,0.7,10.3-1.3,10.9-4.6
					C125.4,29.8,122,26.8,117.2,25.8z M79.4,32.8c-0.3-2,0.3-4,1.5-5.7c-2.2,1.9-3.4,4.5-3,7.2c0.7,4.5,5.6,7.4,11,6.6
					c1.8-0.3,3.4-0.9,4.7-1.9c-0.7,0.3-1.5,0.5-2.3,0.6C85.5,40.5,80.1,37.5,79.4,32.8z"/>
			</g>
			<g>
				<path class="st0" d="M53.6,52.9c-4,0-7.5-1.6-9.7-4.2c-1.2,1.3-2.9,2-4.7,2c-0.4,0-0.8,0-1.1-0.1c-1.9-0.3-3.6-1.6-4.6-3.3
					c-1.6,0.9-3.4,1.3-5.3,1.3c-5.9,0-10.6-4.5-10.6-10c0-5,3.9-9.2,9.1-9.9c0.2-3.4,3.1-6.1,6.6-6.1c0.6,0,1.1,0.1,1.7,0.2
					c-0.4-5.5,4.7-10.7,11.9-11.9c0.9-0.1,1.8-0.2,2.7-0.2c3.4,0,6.5,1,8.8,2.8c0.6-0.1,1.3-0.2,2.1-0.2c2.4,0,5,0.8,7.3,2.2
					c3.7,2.3,6.2,5.8,6.3,8.9c0.1,0,0.2,0,0.3,0c2.9,0.4,5.4,1.5,7.3,3.1c1.9,1.7,2.8,3.7,2.5,5.6c0,0.3-0.1,0.6-0.2,0.9
					c5,1.4,8.3,4.8,7.8,8.3c-0.5,3.4-4.4,5.8-9.5,5.8c-0.8,0-1.6-0.1-2.4-0.2c-1.7-0.2-3.4-0.8-4.8-1.5c-1.2,1.2-2.8,1.8-4.5,1.8
					c-0.4,0-0.8,0-1.2-0.1c-1.4-0.3-2.7-1-3.7-2c-1.8,3.2-5.4,5.6-9.6,6.3C55.2,52.8,54.4,52.9,53.6,52.9L53.6,52.9z"/>
				<radialGradient id="SVGID_3_" cx="55.8708" cy="-1.7195" r="79.9205" gradientUnits="userSpaceOnUse">
					<stop  offset="0" style="stop-color:#F4F5F9"/>
					<stop  offset="0.1526" style="stop-color:#EFF3F8"/>
					<stop  offset="0.3235" style="stop-color:#E2EDF6"/>
					<stop  offset="0.5026" style="stop-color:#CCE3F2"/>
					<stop  offset="0.5463" style="stop-color:#C5E0F1"/>
					<stop  offset="0.6293" style="stop-color:#B5D3E6"/>
					<stop  offset="0.7917" style="stop-color:#8BB2C8"/>
					<stop  offset="1" style="stop-color:#4C809C"/>
				</radialGradient>
				<path class="st3" d="M83.1,34.6c0.2-0.4,0.4-0.9,0.4-1.3c0.5-3.7-3.7-7.4-9.4-8.2c-0.2,0-0.5-0.1-0.7-0.1c0.1-3-2.2-6.6-6-9
					c-3.2-2-6.6-2.6-9.2-1.9c-2.7-2.2-6.9-3.3-11.3-2.6c-7.2,1.1-12.3,6.5-11.4,11.9c0,0.1,0,0.1,0,0.2c-0.7-0.3-1.5-0.4-2.3-0.4
					c-3.4,0-6.2,2.7-6.2,6c0,0,0,0,0,0C22,29.7,18,33.7,18,38.6c0,5.3,4.5,9.5,10.1,9.5c2,0,3.9-0.6,5.5-1.5
					c0.8,1.7,2.4,3.1,4.5,3.5c2.3,0.4,4.5-0.5,5.8-2.2c2.4,3.3,7,5.1,11.9,4.3c4.5-0.7,8-3.3,9.6-6.7c0.9,1.2,2.2,2.1,3.8,2.4
					c2.1,0.4,4.1-0.4,5.5-1.8c1.4,0.8,3.1,1.3,5,1.6c5.7,0.8,10.8-1.5,11.3-5.2C91.6,39.1,88.1,35.8,83.1,34.6z"/>
				<path class="st0" d="M38,24.4c0.1,0.4,0.2,0.7,0.3,1.1c-0.6-0.8-0.9-1.7-1.1-2.7c-0.8-4.8,3.7-9.4,9.9-10.4
					c5.8-0.9,8.1,0.6,10.5,3.8c-3.1-1.9-4.8-2.9-9.7-2.2C41.7,15,37.3,19.7,38,24.4z M67.1,16.8c-4.3-2.7-9.2-2.5-10.9,0.3
					c-0.4,0.7-0.6,1.4-0.6,2.2c0.1-0.5,0.2-0.9,0.5-1.3c1.6-2.6,6.2-2.8,10.3-0.3c4.1,2.5,6.1,6.7,4.4,9.3c-0.5,0.9-1.5,1.5-2.5,1.8
					c1.6-0.2,2.8-0.9,3.6-2.1C73.5,23.9,71.4,19.4,67.1,16.8z M74.8,26.2c-1-0.2-2.1-0.2-3-0.1c0.3,0,0.7,0.1,1,0.1
					c5.5,0.8,9.5,4.3,9,7.9c0,0.3-0.1,0.6-0.2,0.9c0.5-0.6,0.8-1.3,1-2C83,29.9,79.5,26.9,74.8,26.2z M28.9,46
					c0.6,0,1.3-0.1,1.9-0.2c-1,0.4-2.1,0.6-3.3,0.6c-4.6,0-8.3-3.5-8.3-7.8c0-4.3,3.7-7.8,8.3-7.8c0.5,0,0.9,0,1.4,0.1
					c-4.3,0-7.9,3.4-7.9,7.5C21.1,42.6,24.6,46,28.9,46z M38.6,48.3c-2.6-0.5-4.3-3.4-4.3-5.9c-0.1,0.3-0.2,0.7-0.3,1
					c-0.5,2.8,1.4,5.5,4.2,6c2.8,0.5,5.5-1.4,6-4.2c0-0.3,0.1-0.5,0.1-0.8C43.4,46.7,41.1,48.8,38.6,48.3z M64.8,41
					c-0.1-0.6-0.3-1.2-0.5-1.8c0,0.1,0.1,0.2,0.1,0.4c0.7,4.7-3.2,9.3-8.8,10.2c-5.6,0.9-10.7-2.3-11.5-7c0-0.1,0-0.3,0-0.4
					c-0.1,0.6-0.1,1.3,0,1.9c0.7,4.7,6,7.9,11.7,7C61.5,50.3,65.6,45.7,64.8,41z M69.5,46.7c-1.6-0.3-3-1.2-3.9-2.4
					c0.8,1.5,2.2,2.6,4,2.9c2.5,0.4,4.8-0.8,5.9-2.9C74.2,46.1,71.9,47.1,69.5,46.7z M34.4,24.4c0.6,0,1.2,0.1,1.8,0.3
					c-0.9-0.6-1.9-1-3.1-1c-2.9,0-5.2,2.3-5.2,5.1c0,0.3,0,0.5,0.1,0.8C28.5,26.6,31.2,24.4,34.4,24.4z M82.5,35.4
					c4,1.4,6.6,3.9,6.2,6.4c-0.5,3.2-6.1,5.2-12.4,4.4c0,0,0,0,0,0c1,0.3,2,0.6,3.1,0.7c5.4,0.7,10.2-1.3,10.8-4.5
					C90.6,39.4,87.3,36.4,82.5,35.4z M45.1,42.4c-0.3-2,0.3-4,1.5-5.6c-2.2,1.8-3.4,4.4-3,7.1c0.7,4.4,5.6,7.4,10.9,6.5
					c1.8-0.3,3.4-0.9,4.7-1.8c-0.7,0.3-1.5,0.5-2.3,0.6C51.2,50,45.9,47,45.1,42.4z"/>
			</g>
		</g>
		<radialGradient id="SVGID_4_" cx="32.1609" cy="63.7905" r="10.1501" fx="32.0831" fy="64.4899" gradientUnits="userSpaceOnUse">
			<stop  offset="0" style="stop-color:#ECF6F9"/>
			<stop  offset="0.1488" style="stop-color:#AEE4F5"/>
			<stop  offset="0.2976" style="stop-color:#77D4F1"/>
			<stop  offset="0.4085" style="stop-color:#54CAEF"/>
			<stop  offset="0.4683" style="stop-color:#47C6EE"/>
			<stop  offset="0.5126" style="stop-color:#47BFEA"/>
			<stop  offset="1" style="stop-color:#4379BC"/>
		</radialGradient>
		<path class="st4" d="M38.4,66.8c0-2.2-0.4-4.2-0.4-5.6c0-1.4,0.1-4.7,0.1-4.7s-2.2,2.3-3.2,3.3c-1,1-3,2.2-4.6,3.9
			c-1.2,1.2-1.8,3.4-1.2,5.1c0.5,1.5,1.3,2.6,2.9,3.3c0.7,0.3,1.4,0.4,2,0.4c0.9,0,1.8-0.2,2.5-0.7C37.6,70.9,38.4,69.8,38.4,66.8z"
			/>
		<radialGradient id="SVGID_5_" cx="15.4349" cy="59.7264" r="8.127" fx="15.3727" fy="60.2865" gradientUnits="userSpaceOnUse">
			<stop  offset="0" style="stop-color:#ECF6F9"/>
			<stop  offset="0.1488" style="stop-color:#AEE4F5"/>
			<stop  offset="0.2976" style="stop-color:#77D4F1"/>
			<stop  offset="0.4085" style="stop-color:#54CAEF"/>
			<stop  offset="0.4683" style="stop-color:#47C6EE"/>
			<stop  offset="0.5126" style="stop-color:#47BFEA"/>
			<stop  offset="1" style="stop-color:#4379BC"/>
		</radialGradient>
		<path class="st5" d="M20.4,62.2c0-1.8-0.3-3.4-0.3-4.5c0-1.1,0.1-3.8,0.1-3.8s-1.7,1.9-2.6,2.6c-0.8,0.8-2.4,1.8-3.7,3.1
			c-1,1-1.4,2.7-1,4c0.4,1.2,1,2.1,2.3,2.6c0.5,0.2,1.1,0.3,1.6,0.3c0.7,0,1.4-0.2,2-0.6C19.8,65.4,20.4,64.5,20.4,62.2z"/>
		
			<radialGradient id="SVGID_6_" cx="66.7652" cy="72.8503" r="10.1496" fx="66.6875" fy="73.5498" gradientTransform="matrix(0.8821 -1.220000e-02 1.380000e-02 0.9999 -11.0496 -1.5333)" gradientUnits="userSpaceOnUse">
			<stop  offset="0" style="stop-color:#ECF6F9"/>
			<stop  offset="0.1488" style="stop-color:#AEE4F5"/>
			<stop  offset="0.2976" style="stop-color:#77D4F1"/>
			<stop  offset="0.4085" style="stop-color:#54CAEF"/>
			<stop  offset="0.4683" style="stop-color:#47C6EE"/>
			<stop  offset="0.5126" style="stop-color:#47BFEA"/>
			<stop  offset="1" style="stop-color:#4379BC"/>
		</radialGradient>
		<path class="st6" d="M54.4,73.4c0-2.2-0.4-4.2-0.4-5.6c0-1.4,0-4.7,0-4.7s-1.9,2.3-2.8,3.3c-0.9,1-2.6,2.3-4,4
			c-1.1,1.2-1.5,3.4-1,5.1c0.4,1.4,1.2,2.6,2.6,3.2c0.6,0.3,1.2,0.4,1.8,0.4c0.8,0,1.6-0.3,2.2-0.8C53.8,77.5,54.5,76.4,54.4,73.4z"
			/>
		
			<radialGradient id="SVGID_7_" cx="98.7292" cy="58.6871" r="8.1254" fx="98.667" fy="59.2471" gradientTransform="matrix(0.8822 0 0 1 -11.0029 0)" gradientUnits="userSpaceOnUse">
			<stop  offset="0" style="stop-color:#ECF6F9"/>
			<stop  offset="0.1488" style="stop-color:#AEE4F5"/>
			<stop  offset="0.2976" style="stop-color:#77D4F1"/>
			<stop  offset="0.4085" style="stop-color:#54CAEF"/>
			<stop  offset="0.4683" style="stop-color:#47C6EE"/>
			<stop  offset="0.5126" style="stop-color:#47BFEA"/>
			<stop  offset="1" style="stop-color:#4379BC"/>
		</radialGradient>
		<path class="st7" d="M80.5,61.1c0-1.8-0.3-3.4-0.3-4.5c0-1.1,0.1-3.8,0.1-3.8s-1.5,1.9-2.3,2.6c-0.7,0.8-2.1,1.8-3.3,3.1
			c-0.9,1-1.2,2.7-0.9,4.1c0.3,1.2,0.9,2.1,2,2.6c0.5,0.2,1,0.3,1.4,0.3c0.6,0,1.3-0.2,1.7-0.6C80,64.3,80.5,63.5,80.5,61.1z"/>
		
			<radialGradient id="SVGID_8_" cx="127.8628" cy="50.482" r="8.1252" fx="127.8006" fy="51.042" gradientTransform="matrix(0.8822 0 0 1 -11.0029 0)" gradientUnits="userSpaceOnUse">
			<stop  offset="0" style="stop-color:#ECF6F9"/>
			<stop  offset="0.1488" style="stop-color:#AEE4F5"/>
			<stop  offset="0.2976" style="stop-color:#77D4F1"/>
			<stop  offset="0.4085" style="stop-color:#54CAEF"/>
			<stop  offset="0.4683" style="stop-color:#47C6EE"/>
			<stop  offset="0.5126" style="stop-color:#47BFEA"/>
			<stop  offset="1" style="stop-color:#4379BC"/>
		</radialGradient>
		<path class="st8" d="M106.2,52.9c0-1.8-0.3-3.4-0.3-4.5c0-1.1,0.1-3.8,0.1-3.8s-1.5,1.9-2.3,2.6c-0.7,0.8-2.1,1.8-3.3,3.1
			c-0.9,1-1.2,2.7-0.9,4.1c0.3,1.2,0.9,2.1,2,2.6c0.5,0.2,1,0.3,1.4,0.3c0.6,0,1.3-0.2,1.7-0.6C105.7,56.1,106.2,55.3,106.2,52.9z"
			/>
		
			<radialGradient id="SVGID_9_" cx="109.5271" cy="70.1236" r="8.1252" fx="109.4648" fy="70.6836" gradientTransform="matrix(0.8822 0 0 1 -11.0029 0)" gradientUnits="userSpaceOnUse">
			<stop  offset="0" style="stop-color:#ECF6F9"/>
			<stop  offset="0.1488" style="stop-color:#AEE4F5"/>
			<stop  offset="0.2976" style="stop-color:#77D4F1"/>
			<stop  offset="0.4085" style="stop-color:#54CAEF"/>
			<stop  offset="0.4683" style="stop-color:#47C6EE"/>
			<stop  offset="0.5126" style="stop-color:#47BFEA"/>
			<stop  offset="1" style="stop-color:#4379BC"/>
		</radialGradient>
		<path class="st9" d="M90,72.5c0-1.8-0.3-3.4-0.3-4.5c0-1.1,0.1-3.8,0.1-3.8s-1.5,1.9-2.3,2.6c-0.7,0.8-2.1,1.8-3.3,3.1
			c-0.9,1-1.2,2.7-0.9,4.1c0.3,1.2,0.9,2.1,2,2.6c0.5,0.2,1,0.3,1.4,0.3c0.6,0,1.3-0.2,1.7-0.6C89.5,75.8,90,74.9,90,72.5z"/>
		
			<radialGradient id="SVGID_10_" cx="81.3462" cy="58.5772" r="5.5858" fx="81.3034" fy="58.9622" gradientTransform="matrix(0.8822 0 0 1 -11.0029 0)" gradientUnits="userSpaceOnUse">
			<stop  offset="0" style="stop-color:#ECF6F9"/>
			<stop  offset="0.1488" style="stop-color:#AEE4F5"/>
			<stop  offset="0.2976" style="stop-color:#77D4F1"/>
			<stop  offset="0.4085" style="stop-color:#54CAEF"/>
			<stop  offset="0.4683" style="stop-color:#47C6EE"/>
			<stop  offset="0.5126" style="stop-color:#47BFEA"/>
			<stop  offset="1" style="stop-color:#4379BC"/>
		</radialGradient>
		<path class="st10" d="M63.8,60.2c0-1.2-0.2-2.3-0.2-3.1c0-0.8,0-2.6,0-2.6s-1.1,1.3-1.5,1.8c-0.5,0.5-1.4,1.2-2.3,2.1
			c-0.6,0.7-0.8,1.9-0.6,2.8c0.2,0.8,0.6,1.4,1.4,1.8c0.3,0.2,0.7,0.2,1,0.2c0.4,0,0.9-0.1,1.2-0.4C63.4,62.5,63.8,61.9,63.8,60.2z"
			/>
	</g>
	
		<radialGradient id="SVGID_11_" cx="136.5322" cy="39.5811" r="6.4917" fx="136.4824" fy="40.0285" gradientTransform="matrix(0.8822 0 0 1 -11.0029 0)" gradientUnits="userSpaceOnUse">
		<stop  offset="0" style="stop-color:#ECF6F9"/>
		<stop  offset="0.1488" style="stop-color:#AEE4F5"/>
		<stop  offset="0.2976" style="stop-color:#77D4F1"/>
		<stop  offset="0.4085" style="stop-color:#54CAEF"/>
		<stop  offset="0.4683" style="stop-color:#47C6EE"/>
		<stop  offset="0.5126" style="stop-color:#47BFEA"/>
		<stop  offset="1" style="stop-color:#4379BC"/>
	</radialGradient>
	<path class="st11" d="M113,41.5c0-1.4-0.2-2.7-0.2-3.6c0-0.9,0.1-3,0.1-3s-1.2,1.5-1.8,2.1c-0.6,0.6-1.7,1.4-2.6,2.5
		c-0.7,0.8-1,2.2-0.7,3.2c0.3,0.9,0.7,1.6,1.6,2.1c0.4,0.2,0.8,0.3,1.2,0.3c0.5,0,1-0.2,1.4-0.5C112.5,44.1,113,43.4,113,41.5z"/>
</g>
</svg>
