<?xml version="1.0" encoding="utf-8"?>
<!-- Generator: Adobe Illustrator 19.1.0, SVG Export Plug-In . SVG Version: 6.00 Build 0)  -->
<svg version="1.1" xmlns="http://www.w3.org/2000/svg" xmlns:xlink="http://www.w3.org/1999/xlink" x="0px" y="0px"
	 viewBox="0 0 122.3 104.5" style="enable-background:new 0 0 122.3 104.5;" xml:space="preserve">
<style type="text/css">
	.st0{fill:url(#SVGID_1_);}
	.st1{fill:url(#SVGID_2_);}
	.st2{fill:url(#SVGID_3_);}
	.st3{fill:url(#SVGID_4_);}
	.st4{fill:url(#SVGID_5_);}
	.st5{fill:url(#SVGID_6_);}
	.st6{fill:url(#SVGID_7_);}
	.st7{fill:url(#SVGID_8_);}
	.st8{fill:url(#SVGID_9_);}
	.st9{fill:url(#SVGID_10_);}
	.st10{fill:url(#SVGID_11_);}
	.st11{fill:url(#SVGID_12_);}
	.st12{fill:url(#SVGID_13_);}
	.st13{fill:url(#SVGID_14_);}
	.st14{fill:url(#SVGID_15_);}
	.st15{fill:url(#SVGID_16_);}
	.st16{fill:url(#SVGID_17_);}
	.st17{fill:url(#SVGID_18_);}
	.st18{fill:url(#SVGID_19_);}
	.st19{fill:url(#SVGID_20_);}
	.st20{fill:url(#SVGID_21_);}
	.st21{fill:url(#SVGID_22_);}
	.st22{fill:url(#SVGID_23_);}
	.st23{fill:url(#SVGID_24_);}
	.st24{fill:url(#SVGID_25_);}
	.st25{fill:url(#SVGID_26_);}
	.st26{fill:url(#SVGID_27_);}
	.st27{fill:url(#SVGID_28_);}
	.st28{fill:url(#SVGID_29_);}
	.st29{fill:url(#SVGID_30_);}
	.st30{fill:url(#SVGID_31_);}
	.st31{fill:url(#SVGID_32_);}
	.st32{fill:url(#SVGID_33_);}
	.st33{fill:#94A7AF;}
	.st34{fill:url(#SVGID_34_);}
	.st35{fill:url(#SVGID_35_);}
	.st36{fill:url(#SVGID_36_);}
	.st37{fill:url(#SVGID_37_);}
	.st38{fill:#263032;}
	.st39{fill:url(#SVGID_38_);}
	.st40{fill:url(#SVGID_39_);}
</style>
<g id="Layer_1">
</g>
<g id="Layer_2">
	<g>
		<radialGradient id="SVGID_1_" cx="33.779" cy="75.1445" r="10.1503" fx="33.7012" fy="75.844" gradientUnits="userSpaceOnUse">
			<stop  offset="0" style="stop-color:#ECF6F9"/>
			<stop  offset="0.1488" style="stop-color:#AEE4F5"/>
			<stop  offset="0.2976" style="stop-color:#77D4F1"/>
			<stop  offset="0.4085" style="stop-color:#54CAEF"/>
			<stop  offset="0.4683" style="stop-color:#47C6EE"/>
			<stop  offset="0.5126" style="stop-color:#47BFEA"/>
			<stop  offset="1" style="stop-color:#4379BC"/>
		</radialGradient>
		<path class="st0" d="M40,78.2c0-2.2-0.4-4.2-0.4-5.6c0-1.4,0.1-4.7,0.1-4.7s-2.2,2.3-3.2,3.3c-1,1-3,2.2-4.6,3.9
			c-1.2,1.2-1.8,3.4-1.2,5.1c0.5,1.5,1.3,2.6,2.9,3.3c0.7,0.3,1.4,0.4,2,0.4c0.9,0,1.8-0.2,2.5-0.7C39.3,82.2,40,81.1,40,78.2z"/>
		<radialGradient id="SVGID_2_" cx="17.0535" cy="71.0804" r="8.1269" fx="16.9913" fy="71.6405" gradientUnits="userSpaceOnUse">
			<stop  offset="0" style="stop-color:#ECF6F9"/>
			<stop  offset="0.1488" style="stop-color:#AEE4F5"/>
			<stop  offset="0.2976" style="stop-color:#77D4F1"/>
			<stop  offset="0.4085" style="stop-color:#54CAEF"/>
			<stop  offset="0.4683" style="stop-color:#47C6EE"/>
			<stop  offset="0.5126" style="stop-color:#47BFEA"/>
			<stop  offset="1" style="stop-color:#4379BC"/>
		</radialGradient>
		<path class="st1" d="M22.1,73.5c0-1.8-0.3-3.4-0.3-4.5c0-1.1,0.1-3.8,0.1-3.8s-1.7,1.9-2.6,2.6c-0.8,0.8-2.4,1.8-3.7,3.1
			c-1,1-1.4,2.7-1,4c0.4,1.2,1,2.1,2.3,2.6c0.5,0.2,1.1,0.3,1.6,0.3c0.7,0,1.4-0.2,2-0.6C21.4,76.7,22.1,75.9,22.1,73.5z"/>
		
			<radialGradient id="SVGID_3_" cx="46.1091" cy="81.8778" r="10.1498" fx="46.0314" fy="82.5773" gradientTransform="matrix(0.8821 -1.220000e-02 1.380000e-02 0.9999 8.6649 0.5415)" gradientUnits="userSpaceOnUse">
			<stop  offset="0" style="stop-color:#ECF6F9"/>
			<stop  offset="0.1488" style="stop-color:#AEE4F5"/>
			<stop  offset="0.2976" style="stop-color:#77D4F1"/>
			<stop  offset="0.4085" style="stop-color:#54CAEF"/>
			<stop  offset="0.4683" style="stop-color:#47C6EE"/>
			<stop  offset="0.5126" style="stop-color:#47BFEA"/>
			<stop  offset="1" style="stop-color:#4379BC"/>
		</radialGradient>
		<path class="st2" d="M56,84.8c0-2.2-0.4-4.2-0.4-5.6c0-1.4,0-4.7,0-4.7s-1.9,2.3-2.8,3.3c-0.9,1-2.6,2.3-4,4
			c-1.1,1.2-1.5,3.4-1,5.1c0.4,1.4,1.2,2.6,2.6,3.2c0.6,0.3,1.2,0.4,1.8,0.4c0.8,0,1.6-0.3,2.2-0.8C55.4,88.9,56.1,87.7,56,84.8z"/>
		
			<radialGradient id="SVGID_4_" cx="77.8797" cy="70.0411" r="8.1254" fx="77.8175" fy="70.601" gradientTransform="matrix(0.8822 0 0 1 9.0083 0)" gradientUnits="userSpaceOnUse">
			<stop  offset="0" style="stop-color:#ECF6F9"/>
			<stop  offset="0.1488" style="stop-color:#AEE4F5"/>
			<stop  offset="0.2976" style="stop-color:#77D4F1"/>
			<stop  offset="0.4085" style="stop-color:#54CAEF"/>
			<stop  offset="0.4683" style="stop-color:#47C6EE"/>
			<stop  offset="0.5126" style="stop-color:#47BFEA"/>
			<stop  offset="1" style="stop-color:#4379BC"/>
		</radialGradient>
		<path class="st3" d="M82.1,72.5c0-1.8-0.3-3.4-0.3-4.5c0-1.1,0.1-3.8,0.1-3.8s-1.5,1.9-2.3,2.6c-0.7,0.8-2.1,1.8-3.3,3.1
			c-0.9,1-1.2,2.7-0.9,4.1c0.3,1.2,0.9,2.1,2,2.6c0.5,0.2,1,0.3,1.4,0.3c0.6,0,1.3-0.2,1.7-0.6C81.6,75.7,82.1,74.8,82.1,72.5z"/>
		
			<radialGradient id="SVGID_5_" cx="107.0127" cy="61.8358" r="8.1261" fx="106.9505" fy="62.3958" gradientTransform="matrix(0.8822 0 0 1 9.0083 0)" gradientUnits="userSpaceOnUse">
			<stop  offset="0" style="stop-color:#ECF6F9"/>
			<stop  offset="0.1488" style="stop-color:#AEE4F5"/>
			<stop  offset="0.2976" style="stop-color:#77D4F1"/>
			<stop  offset="0.4085" style="stop-color:#54CAEF"/>
			<stop  offset="0.4683" style="stop-color:#47C6EE"/>
			<stop  offset="0.5126" style="stop-color:#47BFEA"/>
			<stop  offset="1" style="stop-color:#4379BC"/>
		</radialGradient>
		<path class="st4" d="M107.8,64.3c0-1.8-0.3-3.4-0.3-4.5c0-1.1,0.1-3.8,0.1-3.8s-1.5,1.9-2.3,2.6c-0.7,0.8-2.1,1.8-3.3,3.1
			c-0.9,1-1.2,2.7-0.9,4.1c0.3,1.2,0.9,2.1,2,2.6c0.5,0.2,1,0.3,1.4,0.3c0.6,0,1.3-0.2,1.7-0.6C107.3,67.5,107.8,66.6,107.8,64.3z"
			/>
		
			<radialGradient id="SVGID_6_" cx="10.9623" cy="91.0751" r="8.1261" fx="10.9001" fy="91.6351" gradientTransform="matrix(0.8822 0 0 1 9.0083 0)" gradientUnits="userSpaceOnUse">
			<stop  offset="0" style="stop-color:#ECF6F9"/>
			<stop  offset="0.1488" style="stop-color:#AEE4F5"/>
			<stop  offset="0.2976" style="stop-color:#77D4F1"/>
			<stop  offset="0.4085" style="stop-color:#54CAEF"/>
			<stop  offset="0.4683" style="stop-color:#47C6EE"/>
			<stop  offset="0.5126" style="stop-color:#47BFEA"/>
			<stop  offset="1" style="stop-color:#4379BC"/>
		</radialGradient>
		<path class="st5" d="M23.1,93.5c0-1.8-0.3-3.4-0.3-4.5c0-1.1,0.1-3.8,0.1-3.8s-1.5,1.9-2.3,2.6c-0.7,0.8-2.1,1.8-3.3,3.1
			c-0.9,1-1.2,2.7-0.9,4.1c0.3,1.2,0.9,2.1,2,2.6c0.5,0.2,1,0.3,1.4,0.3c0.6,0,1.3-0.2,1.7-0.6C22.5,96.7,23.1,95.9,23.1,93.5z"/>
		
			<radialGradient id="SVGID_7_" cx="88.6778" cy="81.4777" r="8.1257" fx="88.6155" fy="82.0377" gradientTransform="matrix(0.8822 0 0 1 9.0083 0)" gradientUnits="userSpaceOnUse">
			<stop  offset="0" style="stop-color:#ECF6F9"/>
			<stop  offset="0.1488" style="stop-color:#AEE4F5"/>
			<stop  offset="0.2976" style="stop-color:#77D4F1"/>
			<stop  offset="0.4085" style="stop-color:#54CAEF"/>
			<stop  offset="0.4683" style="stop-color:#47C6EE"/>
			<stop  offset="0.5126" style="stop-color:#47BFEA"/>
			<stop  offset="1" style="stop-color:#4379BC"/>
		</radialGradient>
		<path class="st6" d="M91.7,83.9c0-1.8-0.3-3.4-0.3-4.5c0-1.1,0.1-3.8,0.1-3.8s-1.5,1.9-2.3,2.6c-0.7,0.8-2.1,1.8-3.3,3.1
			c-0.9,1-1.2,2.7-0.9,4.1c0.3,1.2,0.9,2.1,2,2.6c0.5,0.2,1,0.3,1.4,0.3c0.6,0,1.3-0.2,1.7-0.6C91.1,87.1,91.7,86.3,91.7,83.9z"/>
		
			<radialGradient id="SVGID_8_" cx="60.4971" cy="69.9303" r="5.5857" fx="60.4543" fy="70.3153" gradientTransform="matrix(0.8822 0 0 1 9.0083 0)" gradientUnits="userSpaceOnUse">
			<stop  offset="0" style="stop-color:#ECF6F9"/>
			<stop  offset="0.1488" style="stop-color:#AEE4F5"/>
			<stop  offset="0.2976" style="stop-color:#77D4F1"/>
			<stop  offset="0.4085" style="stop-color:#54CAEF"/>
			<stop  offset="0.4683" style="stop-color:#47C6EE"/>
			<stop  offset="0.5126" style="stop-color:#47BFEA"/>
			<stop  offset="1" style="stop-color:#4379BC"/>
		</radialGradient>
		<path class="st7" d="M65.4,71.6c0-1.2-0.2-2.3-0.2-3.1c0-0.8,0-2.6,0-2.6s-1.1,1.3-1.6,1.8c-0.5,0.5-1.4,1.2-2.2,2.1
			c-0.6,0.7-0.8,1.9-0.6,2.8c0.2,0.8,0.6,1.4,1.4,1.8c0.3,0.2,0.7,0.2,1,0.2c0.4,0,0.9-0.1,1.2-0.4C65,73.8,65.4,73.2,65.4,71.6z"/>
		
			<radialGradient id="SVGID_9_" cx="68.6569" cy="87.8095" r="5.5857" fx="68.6141" fy="88.1944" gradientTransform="matrix(0.8822 0 0 1 9.0083 0)" gradientUnits="userSpaceOnUse">
			<stop  offset="0" style="stop-color:#ECF6F9"/>
			<stop  offset="0.1488" style="stop-color:#AEE4F5"/>
			<stop  offset="0.2976" style="stop-color:#77D4F1"/>
			<stop  offset="0.4085" style="stop-color:#54CAEF"/>
			<stop  offset="0.4683" style="stop-color:#47C6EE"/>
			<stop  offset="0.5126" style="stop-color:#47BFEA"/>
			<stop  offset="1" style="stop-color:#4379BC"/>
		</radialGradient>
		<path class="st8" d="M72.6,89.5c0-1.2-0.2-2.3-0.2-3.1c0-0.8,0-2.6,0-2.6s-1.1,1.3-1.6,1.8c-0.5,0.5-1.4,1.2-2.2,2.1
			c-0.6,0.7-0.8,1.9-0.6,2.8c0.2,0.8,0.6,1.4,1.4,1.8c0.3,0.2,0.7,0.2,1,0.2c0.4,0,0.9-0.1,1.2-0.4C72.2,91.7,72.6,91.1,72.6,89.5z"
			/>
		
			<radialGradient id="SVGID_10_" cx="29.4158" cy="94.3356" r="5.5857" fx="29.373" fy="94.7206" gradientTransform="matrix(0.8822 0 0 1 9.0083 0)" gradientUnits="userSpaceOnUse">
			<stop  offset="0" style="stop-color:#ECF6F9"/>
			<stop  offset="0.1488" style="stop-color:#AEE4F5"/>
			<stop  offset="0.2976" style="stop-color:#77D4F1"/>
			<stop  offset="0.4085" style="stop-color:#54CAEF"/>
			<stop  offset="0.4683" style="stop-color:#47C6EE"/>
			<stop  offset="0.5126" style="stop-color:#47BFEA"/>
			<stop  offset="1" style="stop-color:#4379BC"/>
		</radialGradient>
		<path class="st9" d="M38,96c0-1.2-0.2-2.3-0.2-3.1c0-0.8,0-2.6,0-2.6s-1.1,1.3-1.6,1.8c-0.5,0.5-1.4,1.2-2.2,2.1
			c-0.6,0.7-0.8,1.9-0.6,2.8c0.2,0.8,0.6,1.4,1.4,1.8c0.3,0.2,0.7,0.2,1,0.2c0.4,0,0.9-0.1,1.2-0.4C37.6,98.2,38,97.6,38,96z"/>
		
			<radialGradient id="SVGID_11_" cx="100.1288" cy="92.1955" r="5.5856" fx="100.0861" fy="92.5804" gradientTransform="matrix(0.8822 0 0 1 9.0083 0)" gradientUnits="userSpaceOnUse">
			<stop  offset="0" style="stop-color:#ECF6F9"/>
			<stop  offset="0.1488" style="stop-color:#AEE4F5"/>
			<stop  offset="0.2976" style="stop-color:#77D4F1"/>
			<stop  offset="0.4085" style="stop-color:#54CAEF"/>
			<stop  offset="0.4683" style="stop-color:#47C6EE"/>
			<stop  offset="0.5126" style="stop-color:#47BFEA"/>
			<stop  offset="1" style="stop-color:#4379BC"/>
		</radialGradient>
		<path class="st10" d="M100.4,93.9c0-1.2-0.2-2.3-0.2-3.1c0-0.8,0.1-2.6,0.1-2.6s-1.1,1.3-1.6,1.8c-0.5,0.5-1.4,1.2-2.2,2.1
			c-0.6,0.7-0.8,1.9-0.6,2.8c0.2,0.8,0.6,1.4,1.4,1.8c0.3,0.2,0.7,0.2,1,0.2c0.4,0,0.9-0.1,1.2-0.4C100,96.1,100.4,95.5,100.4,93.9z
			"/>
		
			<radialGradient id="SVGID_12_" cx="115.6832" cy="77.6573" r="6.4918" fx="115.6335" fy="78.1047" gradientTransform="matrix(0.8822 0 0 1 9.0083 0)" gradientUnits="userSpaceOnUse">
			<stop  offset="0" style="stop-color:#ECF6F9"/>
			<stop  offset="0.1488" style="stop-color:#AEE4F5"/>
			<stop  offset="0.2976" style="stop-color:#77D4F1"/>
			<stop  offset="0.4085" style="stop-color:#54CAEF"/>
			<stop  offset="0.4683" style="stop-color:#47C6EE"/>
			<stop  offset="0.5126" style="stop-color:#47BFEA"/>
			<stop  offset="1" style="stop-color:#4379BC"/>
		</radialGradient>
		<path class="st11" d="M114.6,79.6c0-1.4-0.2-2.7-0.2-3.6c0-0.9,0.1-3,0.1-3s-1.2,1.5-1.8,2.1c-0.6,0.6-1.7,1.4-2.6,2.5
			c-0.7,0.8-1,2.2-0.7,3.2c0.3,0.9,0.7,1.6,1.6,2.1c0.4,0.2,0.8,0.3,1.1,0.3c0.5,0,1-0.2,1.4-0.5C114.1,82.2,114.6,81.5,114.6,79.6z
			"/>
		<linearGradient id="SVGID_13_" gradientUnits="userSpaceOnUse" x1="95.4326" y1="61.1798" x2="104.2798" y2="61.1798">
			<stop  offset="3.095980e-03" style="stop-color:#859CA8"/>
			<stop  offset="1.450024e-02" style="stop-color:#879EAA"/>
			<stop  offset="0.2354" style="stop-color:#B2C1C8"/>
			<stop  offset="0.4498" style="stop-color:#D4DCE0"/>
			<stop  offset="0.6534" style="stop-color:#ECEFF1"/>
			<stop  offset="0.8418" style="stop-color:#FAFBFB"/>
			<stop  offset="1" style="stop-color:#FFFFFF"/>
		</linearGradient>
		<path class="st12" d="M102.1,65c-2.1,1.2-4.8,0.5-6.1-1.5c-1.2-2.1-0.6-4.8,1.5-6.1c2.1-1.3,4.8-0.6,6.1,1.5
			C104.9,61,104.2,63.8,102.1,65z"/>
		<linearGradient id="SVGID_14_" gradientUnits="userSpaceOnUse" x1="43.8494" y1="73.1956" x2="49.7408" y2="73.1956">
			<stop  offset="3.095980e-03" style="stop-color:#859CA8"/>
			<stop  offset="1.450024e-02" style="stop-color:#879EAA"/>
			<stop  offset="0.2354" style="stop-color:#B2C1C8"/>
			<stop  offset="0.4498" style="stop-color:#D4DCE0"/>
			<stop  offset="0.6534" style="stop-color:#ECEFF1"/>
			<stop  offset="0.8418" style="stop-color:#FAFBFB"/>
			<stop  offset="1" style="stop-color:#FFFFFF"/>
		</linearGradient>
		<path class="st13" d="M48.3,75.7c-1.4,0.8-3.2,0.4-4-1c-0.8-1.4-0.4-3.2,1-4c1.4-0.8,3.2-0.4,4,1C50.2,73.1,49.7,74.9,48.3,75.7z"
			/>
		<linearGradient id="SVGID_15_" gradientUnits="userSpaceOnUse" x1="69.4148" y1="85.1064" x2="71.3761" y2="85.1064">
			<stop  offset="3.095980e-03" style="stop-color:#859CA8"/>
			<stop  offset="1.450024e-02" style="stop-color:#879EAA"/>
			<stop  offset="0.2354" style="stop-color:#B2C1C8"/>
			<stop  offset="0.4498" style="stop-color:#D4DCE0"/>
			<stop  offset="0.6534" style="stop-color:#ECEFF1"/>
			<stop  offset="0.8418" style="stop-color:#FAFBFB"/>
			<stop  offset="1" style="stop-color:#FFFFFF"/>
		</linearGradient>
		<path class="st14" d="M70.9,86c-0.4,0.3-1,0.1-1.3-0.4c-0.3-0.5-0.1-1.1,0.3-1.4c0.5-0.3,1.1-0.1,1.4,0.3
			C71.5,85.1,71.4,85.7,70.9,86z"/>
		<linearGradient id="SVGID_16_" gradientUnits="userSpaceOnUse" x1="89.22" y1="86.4697" x2="98.0592" y2="86.4697">
			<stop  offset="3.095980e-03" style="stop-color:#859CA8"/>
			<stop  offset="1.450024e-02" style="stop-color:#879EAA"/>
			<stop  offset="0.2354" style="stop-color:#B2C1C8"/>
			<stop  offset="0.4498" style="stop-color:#D4DCE0"/>
			<stop  offset="0.6534" style="stop-color:#ECEFF1"/>
			<stop  offset="0.8418" style="stop-color:#FAFBFB"/>
			<stop  offset="1" style="stop-color:#FFFFFF"/>
		</linearGradient>
		<path class="st15" d="M95.9,90.3c-2.1,1.2-4.8,0.6-6.1-1.6c-1.2-2.1-0.5-4.8,1.5-6.1c2.1-1.3,4.8-0.5,6.1,1.6
			C98.7,86.3,98,89,95.9,90.3z"/>
		<linearGradient id="SVGID_17_" gradientUnits="userSpaceOnUse" x1="77.2362" y1="97.1489" x2="82.1379" y2="97.1489">
			<stop  offset="3.095980e-03" style="stop-color:#859CA8"/>
			<stop  offset="1.450024e-02" style="stop-color:#879EAA"/>
			<stop  offset="0.2354" style="stop-color:#B2C1C8"/>
			<stop  offset="0.4498" style="stop-color:#D4DCE0"/>
			<stop  offset="0.6534" style="stop-color:#ECEFF1"/>
			<stop  offset="0.8418" style="stop-color:#FAFBFB"/>
			<stop  offset="1" style="stop-color:#FFFFFF"/>
		</linearGradient>
		<path class="st16" d="M80.9,99.3c-1.2,0.7-2.7,0.3-3.4-0.9c-0.7-1.2-0.3-2.7,0.8-3.4c1.2-0.7,2.7-0.3,3.4,0.8
			C82.5,97.1,82.1,98.6,80.9,99.3z"/>
		<linearGradient id="SVGID_18_" gradientUnits="userSpaceOnUse" x1="39.3794" y1="81.3201" x2="44.281" y2="81.3201">
			<stop  offset="3.095980e-03" style="stop-color:#859CA8"/>
			<stop  offset="1.450024e-02" style="stop-color:#879EAA"/>
			<stop  offset="0.2354" style="stop-color:#B2C1C8"/>
			<stop  offset="0.4498" style="stop-color:#D4DCE0"/>
			<stop  offset="0.6534" style="stop-color:#ECEFF1"/>
			<stop  offset="0.8418" style="stop-color:#FAFBFB"/>
			<stop  offset="1" style="stop-color:#FFFFFF"/>
		</linearGradient>
		<path class="st17" d="M43.1,83.4c-1.2,0.7-2.7,0.3-3.4-0.9c-0.7-1.2-0.3-2.7,0.8-3.4c1.2-0.7,2.7-0.3,3.4,0.8
			C44.6,81.2,44.2,82.7,43.1,83.4z"/>
		<linearGradient id="SVGID_19_" gradientUnits="userSpaceOnUse" x1="69.3206" y1="70.1146" x2="74.2408" y2="70.1146">
			<stop  offset="3.095980e-03" style="stop-color:#859CA8"/>
			<stop  offset="1.450024e-02" style="stop-color:#879EAA"/>
			<stop  offset="0.2354" style="stop-color:#B2C1C8"/>
			<stop  offset="0.4498" style="stop-color:#D4DCE0"/>
			<stop  offset="0.6534" style="stop-color:#ECEFF1"/>
			<stop  offset="0.8418" style="stop-color:#FAFBFB"/>
			<stop  offset="1" style="stop-color:#FFFFFF"/>
		</linearGradient>
		<path class="st18" d="M73,72.2c-1.1,0.7-2.7,0.3-3.4-0.8c-0.7-1.2-0.3-2.7,0.9-3.4c1.2-0.7,2.7-0.3,3.4,0.9
			C74.6,70,74.2,71.5,73,72.2z"/>
		<linearGradient id="SVGID_20_" gradientUnits="userSpaceOnUse" x1="55.2703" y1="86.4697" x2="65.0964" y2="86.4697">
			<stop  offset="3.095980e-03" style="stop-color:#859CA8"/>
			<stop  offset="1.450024e-02" style="stop-color:#879EAA"/>
			<stop  offset="0.2354" style="stop-color:#B2C1C8"/>
			<stop  offset="0.4498" style="stop-color:#D4DCE0"/>
			<stop  offset="0.6534" style="stop-color:#ECEFF1"/>
			<stop  offset="0.8418" style="stop-color:#FAFBFB"/>
			<stop  offset="1" style="stop-color:#FFFFFF"/>
		</linearGradient>
		<path class="st19" d="M62.7,90.7c-2.3,1.4-5.4,0.6-6.7-1.7c-1.4-2.4-0.6-5.4,1.7-6.7c2.3-1.4,5.3-0.6,6.7,1.7
			C65.8,86.3,65,89.3,62.7,90.7z"/>
		<linearGradient id="SVGID_21_" gradientUnits="userSpaceOnUse" x1="52.5392" y1="96.6309" x2="57.4657" y2="96.6309">
			<stop  offset="3.095980e-03" style="stop-color:#859CA8"/>
			<stop  offset="1.450024e-02" style="stop-color:#879EAA"/>
			<stop  offset="0.2354" style="stop-color:#B2C1C8"/>
			<stop  offset="0.4498" style="stop-color:#D4DCE0"/>
			<stop  offset="0.6534" style="stop-color:#ECEFF1"/>
			<stop  offset="0.8418" style="stop-color:#FAFBFB"/>
			<stop  offset="1" style="stop-color:#FFFFFF"/>
		</linearGradient>
		<path class="st20" d="M56.2,98.7c-1.2,0.7-2.7,0.3-3.4-0.9c-0.7-1.2-0.3-2.7,0.9-3.4c1.2-0.7,2.7-0.3,3.4,0.9
			C57.8,96.5,57.4,98,56.2,98.7z"/>
		<linearGradient id="SVGID_22_" gradientUnits="userSpaceOnUse" x1="18.4284" y1="73.8622" x2="21.3733" y2="73.8622">
			<stop  offset="3.095980e-03" style="stop-color:#859CA8"/>
			<stop  offset="1.450024e-02" style="stop-color:#879EAA"/>
			<stop  offset="0.2354" style="stop-color:#B2C1C8"/>
			<stop  offset="0.4498" style="stop-color:#D4DCE0"/>
			<stop  offset="0.6534" style="stop-color:#ECEFF1"/>
			<stop  offset="0.8418" style="stop-color:#FAFBFB"/>
			<stop  offset="1" style="stop-color:#FFFFFF"/>
		</linearGradient>
		<path class="st21" d="M20.7,75.1c-0.7,0.4-1.6,0.2-2-0.5c-0.4-0.7-0.2-1.6,0.5-2c0.7-0.4,1.6-0.2,2,0.5
			C21.6,73.8,21.3,74.7,20.7,75.1z"/>
		<linearGradient id="SVGID_23_" gradientUnits="userSpaceOnUse" x1="91.6266" y1="71.6243" x2="96.3931" y2="71.6243">
			<stop  offset="3.095980e-03" style="stop-color:#859CA8"/>
			<stop  offset="1.450024e-02" style="stop-color:#879EAA"/>
			<stop  offset="0.2354" style="stop-color:#B2C1C8"/>
			<stop  offset="0.4498" style="stop-color:#D4DCE0"/>
			<stop  offset="0.6534" style="stop-color:#ECEFF1"/>
			<stop  offset="0.8418" style="stop-color:#FAFBFB"/>
			<stop  offset="1" style="stop-color:#FFFFFF"/>
		</linearGradient>
		<path class="st22" d="M95.2,73.7c-1.1,0.7-2.6,0.3-3.3-0.8c-0.7-1.1-0.3-2.6,0.8-3.3c1.1-0.7,2.6-0.3,3.2,0.8
			C96.7,71.5,96.4,73,95.2,73.7z"/>
		<linearGradient id="SVGID_24_" gradientUnits="userSpaceOnUse" x1="9.9956" y1="90.4741" x2="18.8332" y2="90.4741">
			<stop  offset="3.095980e-03" style="stop-color:#859CA8"/>
			<stop  offset="1.450024e-02" style="stop-color:#879EAA"/>
			<stop  offset="0.2354" style="stop-color:#B2C1C8"/>
			<stop  offset="0.4498" style="stop-color:#D4DCE0"/>
			<stop  offset="0.6534" style="stop-color:#ECEFF1"/>
			<stop  offset="0.8418" style="stop-color:#FAFBFB"/>
			<stop  offset="1" style="stop-color:#FFFFFF"/>
		</linearGradient>
		<path class="st23" d="M16.7,94.3c-2.1,1.2-4.8,0.6-6.1-1.6c-1.2-2.1-0.5-4.8,1.5-6.1c2.1-1.3,4.8-0.5,6.1,1.6
			C19.5,90.3,18.8,93,16.7,94.3z"/>
		<linearGradient id="SVGID_25_" gradientUnits="userSpaceOnUse" x1="24.0165" y1="79.7197" x2="28.9185" y2="79.7197">
			<stop  offset="3.095980e-03" style="stop-color:#859CA8"/>
			<stop  offset="1.450024e-02" style="stop-color:#879EAA"/>
			<stop  offset="0.2354" style="stop-color:#B2C1C8"/>
			<stop  offset="0.4498" style="stop-color:#D4DCE0"/>
			<stop  offset="0.6534" style="stop-color:#ECEFF1"/>
			<stop  offset="0.8418" style="stop-color:#FAFBFB"/>
			<stop  offset="1" style="stop-color:#FFFFFF"/>
		</linearGradient>
		<path class="st24" d="M27.7,81.8c-1.2,0.7-2.7,0.3-3.4-0.9c-0.7-1.2-0.3-2.7,0.8-3.4c1.2-0.7,2.7-0.3,3.4,0.8
			C29.3,79.6,28.9,81.1,27.7,81.8z"/>
		<linearGradient id="SVGID_26_" gradientUnits="userSpaceOnUse" x1="66.2952" y1="94.2828" x2="68.2552" y2="94.2828">
			<stop  offset="3.095980e-03" style="stop-color:#859CA8"/>
			<stop  offset="1.450024e-02" style="stop-color:#879EAA"/>
			<stop  offset="0.2354" style="stop-color:#B2C1C8"/>
			<stop  offset="0.4498" style="stop-color:#D4DCE0"/>
			<stop  offset="0.6534" style="stop-color:#ECEFF1"/>
			<stop  offset="0.8418" style="stop-color:#FAFBFB"/>
			<stop  offset="1" style="stop-color:#FFFFFF"/>
		</linearGradient>
		<path class="st25" d="M67.8,95.1c-0.4,0.3-1,0.1-1.3-0.4c-0.3-0.5-0.1-1.1,0.3-1.4c0.5-0.3,1.1-0.1,1.4,0.3
			C68.4,94.3,68.2,94.8,67.8,95.1z"/>
		<linearGradient id="SVGID_27_" gradientUnits="userSpaceOnUse" x1="58.1334" y1="102.4439" x2="60.0943" y2="102.4439">
			<stop  offset="3.095980e-03" style="stop-color:#859CA8"/>
			<stop  offset="1.450024e-02" style="stop-color:#879EAA"/>
			<stop  offset="0.2354" style="stop-color:#B2C1C8"/>
			<stop  offset="0.4498" style="stop-color:#D4DCE0"/>
			<stop  offset="0.6534" style="stop-color:#ECEFF1"/>
			<stop  offset="0.8418" style="stop-color:#FAFBFB"/>
			<stop  offset="1" style="stop-color:#FFFFFF"/>
		</linearGradient>
		<path class="st26" d="M59.6,103.3c-0.4,0.3-1,0.1-1.3-0.4c-0.3-0.5-0.1-1.1,0.3-1.4c0.5-0.3,1.1-0.1,1.4,0.3
			C60.2,102.4,60.1,103,59.6,103.3z"/>
		<linearGradient id="SVGID_28_" gradientUnits="userSpaceOnUse" x1="35.395" y1="95.8352" x2="37.3562" y2="95.8352">
			<stop  offset="3.095980e-03" style="stop-color:#859CA8"/>
			<stop  offset="1.450024e-02" style="stop-color:#879EAA"/>
			<stop  offset="0.2354" style="stop-color:#B2C1C8"/>
			<stop  offset="0.4498" style="stop-color:#D4DCE0"/>
			<stop  offset="0.6534" style="stop-color:#ECEFF1"/>
			<stop  offset="0.8418" style="stop-color:#FAFBFB"/>
			<stop  offset="1" style="stop-color:#FFFFFF"/>
		</linearGradient>
		<path class="st27" d="M36.9,96.7c-0.4,0.3-1,0.1-1.3-0.4c-0.3-0.5-0.1-1.1,0.3-1.4c0.5-0.3,1.1-0.1,1.4,0.3
			C37.5,95.8,37.3,96.4,36.9,96.7z"/>
		<linearGradient id="SVGID_29_" gradientUnits="userSpaceOnUse" x1="50.5977" y1="80.6312" x2="52.5582" y2="80.6312">
			<stop  offset="3.095980e-03" style="stop-color:#859CA8"/>
			<stop  offset="1.450024e-02" style="stop-color:#879EAA"/>
			<stop  offset="0.2354" style="stop-color:#B2C1C8"/>
			<stop  offset="0.4498" style="stop-color:#D4DCE0"/>
			<stop  offset="0.6534" style="stop-color:#ECEFF1"/>
			<stop  offset="0.8418" style="stop-color:#FAFBFB"/>
			<stop  offset="1" style="stop-color:#FFFFFF"/>
		</linearGradient>
		<path class="st28" d="M52.1,81.5c-0.4,0.3-1,0.1-1.3-0.4c-0.3-0.5-0.1-1.1,0.3-1.4c0.5-0.3,1.1-0.1,1.4,0.3
			C52.7,80.6,52.5,81.2,52.1,81.5z"/>
		<linearGradient id="SVGID_30_" gradientUnits="userSpaceOnUse" x1="79.4036" y1="80.6312" x2="81.3649" y2="80.6312">
			<stop  offset="3.095980e-03" style="stop-color:#859CA8"/>
			<stop  offset="1.450024e-02" style="stop-color:#879EAA"/>
			<stop  offset="0.2354" style="stop-color:#B2C1C8"/>
			<stop  offset="0.4498" style="stop-color:#D4DCE0"/>
			<stop  offset="0.6534" style="stop-color:#ECEFF1"/>
			<stop  offset="0.8418" style="stop-color:#FAFBFB"/>
			<stop  offset="1" style="stop-color:#FFFFFF"/>
		</linearGradient>
		<path class="st29" d="M80.9,81.5c-0.4,0.3-1,0.1-1.3-0.4c-0.3-0.5-0.1-1.1,0.3-1.4c0.5-0.3,1.1-0.1,1.4,0.3
			C81.5,80.6,81.3,81.2,80.9,81.5z"/>
		<linearGradient id="SVGID_31_" gradientUnits="userSpaceOnUse" x1="94.4611" y1="79.2387" x2="96.421" y2="79.2387">
			<stop  offset="3.095980e-03" style="stop-color:#859CA8"/>
			<stop  offset="1.450024e-02" style="stop-color:#879EAA"/>
			<stop  offset="0.2354" style="stop-color:#B2C1C8"/>
			<stop  offset="0.4498" style="stop-color:#D4DCE0"/>
			<stop  offset="0.6534" style="stop-color:#ECEFF1"/>
			<stop  offset="0.8418" style="stop-color:#FAFBFB"/>
			<stop  offset="1" style="stop-color:#FFFFFF"/>
		</linearGradient>
		<path class="st30" d="M95.9,80.1c-0.4,0.3-1,0.1-1.3-0.4c-0.3-0.5-0.1-1.1,0.3-1.4c0.5-0.3,1.1-0.1,1.4,0.3
			C96.6,79.2,96.4,79.8,95.9,80.1z"/>
		<linearGradient id="SVGID_32_" gradientUnits="userSpaceOnUse" x1="30.6074" y1="80.8398" x2="32.5683" y2="80.8398">
			<stop  offset="3.095980e-03" style="stop-color:#859CA8"/>
			<stop  offset="1.450024e-02" style="stop-color:#879EAA"/>
			<stop  offset="0.2354" style="stop-color:#B2C1C8"/>
			<stop  offset="0.4498" style="stop-color:#D4DCE0"/>
			<stop  offset="0.6534" style="stop-color:#ECEFF1"/>
			<stop  offset="0.8418" style="stop-color:#FAFBFB"/>
			<stop  offset="1" style="stop-color:#FFFFFF"/>
		</linearGradient>
		<path class="st31" d="M32.1,81.7c-0.4,0.3-1,0.1-1.3-0.4c-0.3-0.5-0.1-1.1,0.3-1.4c0.5-0.3,1.1-0.1,1.4,0.3
			C32.7,80.8,32.5,81.4,32.1,81.7z"/>
		<linearGradient id="SVGID_33_" gradientUnits="userSpaceOnUse" x1="107.8313" y1="83.1885" x2="113.7227" y2="83.1885">
			<stop  offset="3.095980e-03" style="stop-color:#859CA8"/>
			<stop  offset="1.450024e-02" style="stop-color:#879EAA"/>
			<stop  offset="0.2354" style="stop-color:#B2C1C8"/>
			<stop  offset="0.4498" style="stop-color:#D4DCE0"/>
			<stop  offset="0.6534" style="stop-color:#ECEFF1"/>
			<stop  offset="0.8418" style="stop-color:#FAFBFB"/>
			<stop  offset="1" style="stop-color:#FFFFFF"/>
		</linearGradient>
		<path class="st32" d="M112.3,85.7c-1.4,0.8-3.2,0.4-4-1c-0.8-1.4-0.4-3.2,1-4c1.4-0.8,3.2-0.4,4,1
			C114.1,83.1,113.7,84.9,112.3,85.7z"/>
		<g>
			<g>
				<path class="st33" d="M50.6,58.2c-5.3,0-10.1-2.1-13.1-5.7c-1.7,1.8-4,2.8-6.4,2.8c-0.5,0-1,0-1.5-0.1c-2.6-0.5-4.9-2.1-6.2-4.4
					c-2.2,1.2-4.6,1.8-7.1,1.8c-7.9,0-14.3-6-14.3-13.5c0-6.8,5.2-12.4,12.3-13.3c0.3-4.6,4.2-8.2,8.9-8.2c0.8,0,1.5,0.1,2.3,0.3
					c-0.6-7.4,6.4-14.4,16-16c1.2-0.2,2.5-0.3,3.7-0.3c4.5,0,8.7,1.3,11.8,3.7C57.9,5.1,58.8,5,59.8,5c3.2,0,6.7,1.1,9.8,3
					c5,3.1,8.3,7.8,8.4,12c0.1,0,0.3,0,0.4,0.1c3.8,0.6,7.3,2.1,9.8,4.2c2.6,2.2,3.8,4.9,3.4,7.6c-0.1,0.4-0.2,0.9-0.3,1.3
					c6.8,1.9,11.1,6.5,10.4,11.2c-0.7,4.6-5.9,7.8-12.8,7.8c-1,0-2.1-0.1-3.2-0.2c-2.3-0.3-4.5-1-6.5-2c-1.6,1.6-3.8,2.4-6.1,2.4
					c-0.5,0-1,0-1.6-0.1c-1.9-0.3-3.6-1.3-4.9-2.7c-2.5,4.4-7.3,7.6-12.9,8.4C52.7,58.1,51.7,58.2,50.6,58.2L50.6,58.2z"/>
				<radialGradient id="SVGID_34_" cx="53.6558" cy="-15.2633" r="107.5691" gradientUnits="userSpaceOnUse">
					<stop  offset="0" style="stop-color:#F4F5F9"/>
					<stop  offset="9.296446e-02" style="stop-color:#EFF1F6"/>
					<stop  offset="0.1971" style="stop-color:#E2E7EE"/>
					<stop  offset="0.3066" style="stop-color:#CCD5E0"/>
					<stop  offset="0.4191" style="stop-color:#ACBDCD"/>
					<stop  offset="0.4634" style="stop-color:#9EB2C4"/>
					<stop  offset="0.5471" style="stop-color:#91A4B4"/>
					<stop  offset="0.7112" style="stop-color:#6E7E8A"/>
					<stop  offset="0.9378" style="stop-color:#364246"/>
					<stop  offset="1" style="stop-color:#263032"/>
				</radialGradient>
				<path class="st34" d="M90.4,33.6c0.3-0.6,0.5-1.2,0.6-1.8c0.7-5-4.9-9.9-12.6-11c-0.3,0-0.6-0.1-1-0.1c0.2-4-2.9-8.9-8.1-12.1
					C65,5.9,60.3,5.1,56.9,6c-3.7-3-9.3-4.4-15.2-3.5C32,4,25.1,11.2,26.3,18.6c0,0.1,0,0.1,0,0.2c-1-0.4-2-0.6-3.1-0.6
					c-4.6,0-8.3,3.6-8.3,8.1c0,0,0,0,0,0C8.1,27,2.7,32.4,2.7,39.1c0,7.1,6.1,12.8,13.6,12.8c2.7,0,5.3-0.8,7.4-2
					c1.1,2.4,3.3,4.2,6,4.7c3.1,0.5,6-0.7,7.8-3c3.2,4.4,9.4,6.9,16.1,5.9c6-0.9,10.8-4.5,12.9-9c1.2,1.6,3,2.8,5.2,3.2
					c2.8,0.5,5.6-0.5,7.4-2.5c1.9,1,4.2,1.8,6.7,2.2c7.7,1.1,14.5-2,15.2-7C101.7,39.7,97,35.2,90.4,33.6z"/>
				<radialGradient id="SVGID_35_" cx="67.9747" cy="-34.8034" r="120.1089" gradientUnits="userSpaceOnUse">
					<stop  offset="0" style="stop-color:#F4F5F9"/>
					<stop  offset="9.296446e-02" style="stop-color:#EFF1F6"/>
					<stop  offset="0.1971" style="stop-color:#E2E7EE"/>
					<stop  offset="0.3066" style="stop-color:#CCD5E0"/>
					<stop  offset="0.4191" style="stop-color:#ACBDCD"/>
					<stop  offset="0.4634" style="stop-color:#9EB2C4"/>
					<stop  offset="0.5471" style="stop-color:#91A4B4"/>
					<stop  offset="0.7112" style="stop-color:#6E7E8A"/>
					<stop  offset="0.9378" style="stop-color:#364246"/>
					<stop  offset="1" style="stop-color:#263032"/>
				</radialGradient>
				<path class="st35" d="M29.6,19.9c0.1,0.5,0.2,1,0.4,1.5c-0.7-1.1-1.3-2.4-1.5-3.7c-1-6.4,5-12.7,13.4-14
					c7.7-1.2,11,0.8,14.2,5.1C52,6.2,49.7,4.9,43,5.9C34.6,7.2,28.6,13.5,29.6,19.9z M68.7,9.6C62.9,6.1,56.3,6.2,54,10
					c-0.5,0.9-0.8,1.9-0.8,2.9c0.1-0.6,0.3-1.3,0.6-1.8c2.2-3.6,8.4-3.7,13.9-0.3c5.5,3.4,8.2,9,6,12.5c-0.7,1.2-2,2-3.4,2.4
					c2.1-0.3,3.8-1.2,4.8-2.8C77.4,19.2,74.5,13.2,68.7,9.6z M79.1,22.3c-1.4-0.2-2.8-0.2-4.1-0.1c0.4,0,0.9,0.1,1.3,0.2
					c7.4,1.1,12.8,5.8,12.1,10.6c-0.1,0.4-0.2,0.8-0.3,1.2c0.7-0.8,1.1-1.7,1.3-2.7C90.1,27.3,85.5,23.3,79.1,22.3z M17.4,48.9
					c0.9,0,1.7-0.1,2.5-0.3c-1.3,0.5-2.8,0.8-4.4,0.8C9.3,49.5,4.3,44.8,4.3,39c0-5.8,5-10.5,11.2-10.5c0.6,0,1.3,0.1,1.9,0.2
					c-5.8,0-10.6,4.5-10.6,10.1C6.8,44.4,11.6,48.9,17.4,48.9z M30.4,52.1c-3.4-0.6-5.8-4.6-5.8-7.9c-0.2,0.4-0.3,0.9-0.4,1.4
					c-0.7,3.8,1.9,7.4,5.7,8.1c3.8,0.7,7.5-1.8,8.1-5.6c0.1-0.4,0.1-0.7,0.1-1.1C36.9,49.9,33.7,52.7,30.4,52.1z M65.7,42.2
					c-0.1-0.8-0.4-1.6-0.7-2.4c0,0.2,0.1,0.3,0.1,0.5c1,6.4-4.3,12.5-11.8,13.7c-7.5,1.2-14.4-3-15.4-9.4c0-0.2,0-0.4-0.1-0.5
					c-0.1,0.8-0.1,1.7,0.1,2.6c1,6.4,8,10.6,15.7,9.4C61.3,54.7,66.7,48.6,65.7,42.2z M72.1,49.9c-2.2-0.4-4-1.6-5.2-3.2
					c1,2,3,3.5,5.4,4c3.3,0.6,6.5-1.1,8-4C78.4,49.2,75.3,50.5,72.1,49.9z M24.7,19.9c0.8,0,1.6,0.2,2.4,0.4
					c-1.2-0.8-2.6-1.3-4.1-1.3c-3.9,0-7,3.1-7,6.9c0,0.4,0.1,0.7,0.1,1.1C16.9,22.8,20.4,19.9,24.7,19.9z M89.6,34.7
					c5.4,1.9,8.9,5.3,8.4,8.6c-0.7,4.4-8.2,7-16.7,5.9c0,0,0,0,0,0c1.3,0.4,2.7,0.8,4.2,1c7.3,1,13.8-1.8,14.5-6.1
					C100.4,40,96,36.1,89.6,34.7z M39.2,44.1c-0.4-2.7,0.4-5.3,2-7.6c-2.9,2.5-4.5,6-4,9.6c0.9,6,7.5,9.9,14.7,8.8
					c2.4-0.4,4.5-1.3,6.3-2.5c-1,0.3-2,0.6-3.1,0.8C47.3,54.4,40.2,50.3,39.2,44.1z"/>
			</g>
			<g>
				<path class="st33" d="M82.6,58.7c-4,0-7.7-1.6-9.9-4.3c-1.3,1.3-3,2.1-4.8,2.1c-0.4,0-0.8,0-1.2-0.1c-2-0.4-3.7-1.6-4.7-3.3
					c-1.6,0.9-3.5,1.4-5.4,1.4c-6,0-10.8-4.6-10.8-10.2c0-5.1,4-9.3,9.3-10.1c0.2-3.5,3.2-6.2,6.7-6.2c0.6,0,1.2,0.1,1.7,0.2
					c-0.4-5.6,4.8-10.9,12.1-12.1c0.9-0.1,1.9-0.2,2.8-0.2c3.4,0,6.6,1,8.9,2.8c0.7-0.1,1.3-0.2,2.1-0.2c2.4,0,5,0.8,7.4,2.3
					c3.8,2.3,6.3,5.9,6.4,9.1c0.1,0,0.2,0,0.3,0c2.9,0.4,5.5,1.6,7.4,3.2c1.9,1.7,2.8,3.7,2.5,5.7c0,0.3-0.1,0.6-0.2,1
					c5.1,1.4,8.4,4.9,7.9,8.5c-0.5,3.5-4.5,5.9-9.7,5.9c-0.8,0-1.6-0.1-2.4-0.2c-1.7-0.3-3.4-0.8-4.9-1.5c-1.2,1.2-2.9,1.8-4.6,1.8
					c-0.4,0-0.8,0-1.2-0.1c-1.4-0.3-2.7-1-3.7-2c-1.9,3.3-5.5,5.7-9.7,6.4C84.1,58.7,83.3,58.7,82.6,58.7L82.6,58.7z"/>
				<radialGradient id="SVGID_36_" cx="84.8322" cy="3.2785" r="81.2238" gradientUnits="userSpaceOnUse">
					<stop  offset="0" style="stop-color:#F4F5F9"/>
					<stop  offset="9.296446e-02" style="stop-color:#EFF1F6"/>
					<stop  offset="0.1971" style="stop-color:#E2E7EE"/>
					<stop  offset="0.3066" style="stop-color:#CCD5E0"/>
					<stop  offset="0.4191" style="stop-color:#ACBDCD"/>
					<stop  offset="0.4634" style="stop-color:#9EB2C4"/>
					<stop  offset="0.5471" style="stop-color:#91A4B4"/>
					<stop  offset="0.7112" style="stop-color:#6E7E8A"/>
					<stop  offset="0.9378" style="stop-color:#364246"/>
					<stop  offset="1" style="stop-color:#263032"/>
				</radialGradient>
				<path class="st36" d="M112.6,40.2c0.2-0.4,0.4-0.9,0.4-1.4c0.5-3.8-3.7-7.5-9.5-8.3c-0.2,0-0.5-0.1-0.7-0.1
					c0.1-3-2.2-6.7-6.1-9.1c-3.2-2-6.7-2.6-9.4-1.9c-2.8-2.2-7-3.3-11.5-2.6c-7.3,1.1-12.5,6.6-11.6,12.1c0,0.1,0,0.1,0,0.2
					c-0.7-0.3-1.5-0.4-2.3-0.4c-3.5,0-6.3,2.7-6.3,6.1c0,0,0,0,0,0c-5.2,0.5-9.3,4.6-9.3,9.6c0,5.3,4.6,9.7,10.3,9.7
					c2.1,0,4-0.6,5.6-1.5c0.8,1.8,2.5,3.1,4.5,3.5c2.3,0.4,4.6-0.5,5.9-2.3c2.4,3.3,7.1,5.2,12.1,4.4c4.5-0.7,8.1-3.4,9.7-6.8
					c0.9,1.2,2.3,2.2,3.9,2.4c2.1,0.4,4.2-0.4,5.6-1.9c1.5,0.8,3.2,1.4,5.1,1.6c5.8,0.8,10.9-1.5,11.5-5.3
					C121.1,44.8,117.6,41.4,112.6,40.2z"/>
				<radialGradient id="SVGID_37_" cx="95.6443" cy="-11.4753" r="90.6913" gradientUnits="userSpaceOnUse">
					<stop  offset="0" style="stop-color:#F4F5F9"/>
					<stop  offset="9.296446e-02" style="stop-color:#EFF1F6"/>
					<stop  offset="0.1971" style="stop-color:#E2E7EE"/>
					<stop  offset="0.3066" style="stop-color:#CCD5E0"/>
					<stop  offset="0.4191" style="stop-color:#ACBDCD"/>
					<stop  offset="0.4634" style="stop-color:#9EB2C4"/>
					<stop  offset="0.5471" style="stop-color:#91A4B4"/>
					<stop  offset="0.7112" style="stop-color:#6E7E8A"/>
					<stop  offset="0.9378" style="stop-color:#364246"/>
					<stop  offset="1" style="stop-color:#263032"/>
				</radialGradient>
				<path class="st37" d="M66.7,29.8c0.1,0.4,0.2,0.8,0.3,1.1c-0.6-0.8-0.9-1.8-1.1-2.8c-0.8-4.8,3.8-9.6,10.1-10.6
					c5.8-0.9,8.3,0.6,10.7,3.9c-3.1-1.9-4.9-3-9.9-2.2C70.5,20.3,65.9,25,66.7,29.8z M96.2,22.1c-4.4-2.7-9.4-2.6-11.1,0.3
					c-0.4,0.7-0.6,1.4-0.6,2.2c0.1-0.5,0.2-0.9,0.5-1.4c1.7-2.7,6.3-2.8,10.5-0.3c4.1,2.5,6.2,6.8,4.5,9.5c-0.6,0.9-1.5,1.5-2.6,1.8
					c1.6-0.2,2.9-0.9,3.6-2.1C102.8,29.3,100.6,24.8,96.2,22.1z M104.1,31.7c-1.1-0.2-2.1-0.2-3.1-0.1c0.3,0,0.7,0.1,1,0.1
					c5.6,0.8,9.7,4.4,9.2,8c0,0.3-0.1,0.6-0.2,0.9c0.5-0.6,0.9-1.3,1-2.1C112.4,35.4,108.8,32.4,104.1,31.7z M57.5,51.8
					c0.7,0,1.3-0.1,1.9-0.2c-1,0.4-2.1,0.6-3.3,0.6c-4.7,0-8.4-3.5-8.4-7.9c0-4.4,3.8-7.9,8.4-7.9c0.5,0,1,0,1.4,0.1
					c-4.4,0-8,3.4-8,7.7C49.5,48.3,53,51.8,57.5,51.8z M67.3,54.2c-2.6-0.5-4.4-3.5-4.4-6c-0.1,0.3-0.2,0.7-0.3,1.1
					c-0.5,2.9,1.4,5.6,4.3,6.1c2.9,0.5,5.6-1.4,6.1-4.3c0-0.3,0.1-0.5,0.1-0.8C72.2,52.5,69.8,54.6,67.3,54.2z M93.9,46.7
					c-0.1-0.6-0.3-1.2-0.5-1.8c0,0.1,0.1,0.2,0.1,0.4c0.8,4.8-3.2,9.4-8.9,10.3c-5.7,0.9-10.9-2.3-11.6-7.1c0-0.1,0-0.3,0-0.4
					c-0.1,0.6-0.1,1.3,0,1.9c0.8,4.8,6.1,8,11.9,7.1C90.6,56.1,94.7,51.5,93.9,46.7z M98.7,52.5c-1.6-0.3-3-1.2-3.9-2.4
					c0.8,1.5,2.2,2.7,4,3c2.5,0.4,4.9-0.8,6-3C103.5,51.9,101.2,52.9,98.7,52.5z M63,29.8c0.6,0,1.2,0.1,1.8,0.3
					c-0.9-0.6-1.9-1-3.1-1c-2.9,0-5.3,2.3-5.3,5.2c0,0.3,0,0.5,0.1,0.8C57,32.1,59.7,29.8,63,29.8z M111.9,41c4.1,1.5,6.7,4,6.3,6.5
					c-0.5,3.3-6.2,5.3-12.6,4.4c0,0,0,0,0,0c1,0.3,2,0.6,3.1,0.7c5.5,0.7,10.4-1.3,10.9-4.6C120.2,45,116.8,42.1,111.9,41z
					 M73.9,48.1c-0.3-2,0.3-4,1.5-5.7c-2.2,1.9-3.4,4.5-3,7.2c0.7,4.5,5.7,7.5,11.1,6.6c1.8-0.3,3.4-0.9,4.7-1.9
					c-0.7,0.3-1.5,0.5-2.3,0.6C80.1,55.9,74.7,52.8,73.9,48.1z"/>
			</g>
			<g>
				<path class="st38" d="M43.5,71c-3.7,0-7.1-1.5-9.2-4c-1.2,1.2-2.8,1.9-4.5,1.9c-0.4,0-0.7,0-1.1-0.1c-1.8-0.3-3.4-1.5-4.3-3.1
					c-1.5,0.8-3.2,1.3-5,1.3c-5.5,0-10-4.2-10-9.4c0-4.7,3.7-8.7,8.6-9.3c0.2-3.2,2.9-5.7,6.2-5.7c0.5,0,1.1,0.1,1.6,0.2
					c-0.4-5.2,4.5-10.1,11.2-11.2c0.9-0.1,1.7-0.2,2.6-0.2c3.2,0,6.1,0.9,8.3,2.6c0.6-0.1,1.3-0.2,1.9-0.2c2.2,0,4.7,0.7,6.9,2.1
					c3.5,2.1,5.8,5.5,5.9,8.4c0.1,0,0.2,0,0.3,0c2.7,0.4,5.1,1.4,6.9,3c1.8,1.6,2.6,3.4,2.4,5.3c0,0.3-0.1,0.6-0.2,0.9
					c4.7,1.3,7.8,4.5,7.3,7.9c-0.5,3.2-4.1,5.5-9,5.5c-0.7,0-1.5-0.1-2.2-0.2c-1.6-0.2-3.2-0.7-4.5-1.4c-1.1,1.1-2.7,1.7-4.3,1.7
					c-0.4,0-0.7,0-1.1-0.1c-1.3-0.2-2.5-0.9-3.5-1.9c-1.7,3.1-5.1,5.3-9,5.9C45,70.9,44.3,71,43.5,71L43.5,71z"/>
				<radialGradient id="SVGID_38_" cx="45.6557" cy="19.5787" r="75.3054" gradientUnits="userSpaceOnUse">
					<stop  offset="0" style="stop-color:#9EB2C4"/>
					<stop  offset="0.156" style="stop-color:#91A4B4"/>
					<stop  offset="0.4618" style="stop-color:#6E7E8A"/>
					<stop  offset="0.8841" style="stop-color:#364246"/>
					<stop  offset="1" style="stop-color:#263032"/>
				</radialGradient>
				<path class="st39" d="M71.4,53.8c0.2-0.4,0.3-0.8,0.4-1.3c0.5-3.5-3.4-7-8.8-7.7c-0.2,0-0.4-0.1-0.7-0.1c0.1-2.8-2-6.2-5.7-8.4
					c-3-1.8-6.3-2.4-8.7-1.8c-2.6-2.1-6.5-3.1-10.7-2.4c-6.7,1.1-11.5,6.1-10.7,11.2c0,0,0,0.1,0,0.1c-0.7-0.3-1.4-0.4-2.2-0.4
					c-3.2,0-5.8,2.5-5.8,5.7c0,0,0,0,0,0C13.8,49.2,10,53,10,57.6c0,4.9,4.3,9,9.5,9c1.9,0,3.7-0.5,5.2-1.4c0.8,1.6,2.3,2.9,4.2,3.3
					c2.2,0.4,4.2-0.5,5.5-2.1c2.2,3.1,6.6,4.8,11.3,4.1c4.2-0.7,7.5-3.1,9-6.3c0.8,1.1,2.1,2,3.6,2.3c2,0.4,3.9-0.4,5.2-1.7
					c1.3,0.7,2.9,1.3,4.7,1.5c5.4,0.8,10.2-1.4,10.7-4.9C79.3,58.1,76,54.9,71.4,53.8z"/>
				<radialGradient id="SVGID_39_" cx="55.6801" cy="5.8979" r="84.0877" gradientUnits="userSpaceOnUse">
					<stop  offset="0" style="stop-color:#9EB2C4"/>
					<stop  offset="0.156" style="stop-color:#91A4B4"/>
					<stop  offset="0.4618" style="stop-color:#6E7E8A"/>
					<stop  offset="0.8841" style="stop-color:#364246"/>
					<stop  offset="1" style="stop-color:#263032"/>
				</radialGradient>
				<path class="st40" d="M28.8,44.2c0.1,0.4,0.2,0.7,0.3,1c-0.5-0.8-0.9-1.6-1-2.6c-0.7-4.5,3.5-8.9,9.4-9.8
					c5.4-0.9,7.7,0.5,9.9,3.6c-2.9-1.8-4.5-2.8-9.2-2C32.3,35.3,28.1,39.7,28.8,44.2z M56.2,37c-4.1-2.5-8.7-2.4-10.3,0.3
					c-0.4,0.6-0.6,1.3-0.6,2.1c0.1-0.4,0.2-0.9,0.4-1.3c1.5-2.5,5.9-2.6,9.7-0.2c3.8,2.4,5.7,6.3,4.2,8.8c-0.5,0.8-1.4,1.4-2.4,1.7
					c1.5-0.2,2.7-0.9,3.4-2C62.3,43.7,60.3,39.5,56.2,37z M63.5,45.9c-1-0.1-1.9-0.2-2.8-0.1c0.3,0,0.6,0.1,0.9,0.1
					c5.2,0.8,9,4.1,8.5,7.4c0,0.3-0.1,0.5-0.2,0.8c0.5-0.6,0.8-1.2,0.9-1.9C71.2,49.4,67.9,46.6,63.5,45.9z M20.3,64.5
					c0.6,0,1.2-0.1,1.7-0.2c-0.9,0.4-2,0.6-3.1,0.6c-4.3,0-7.8-3.3-7.8-7.3c0-4.1,3.5-7.3,7.8-7.3c0.4,0,0.9,0,1.3,0.1
					c-4.1,0-7.4,3.2-7.4,7.1C12.9,61.3,16.2,64.5,20.3,64.5z M29.4,66.7c-2.4-0.4-4.1-3.2-4-5.6c-0.1,0.3-0.2,0.6-0.3,1
					c-0.5,2.7,1.3,5.2,4,5.7c2.7,0.5,5.2-1.3,5.7-3.9c0-0.3,0.1-0.5,0.1-0.8C34,65.2,31.7,67.2,29.4,66.7z M54.1,59.8
					c-0.1-0.6-0.3-1.2-0.5-1.7c0,0.1,0.1,0.2,0.1,0.3c0.7,4.5-3,8.8-8.3,9.6c-5.3,0.8-10.1-2.1-10.8-6.6c0-0.1,0-0.3,0-0.4
					c-0.1,0.6-0.1,1.2,0,1.8c0.7,4.5,5.6,7.4,11,6.6C51,68.6,54.8,64.3,54.1,59.8z M58.5,65.2C57,65,55.8,64.1,54.9,63
					c0.7,1.4,2.1,2.5,3.8,2.8c2.3,0.4,4.6-0.8,5.6-2.8C63,64.7,60.8,65.6,58.5,65.2z M25.4,44.2c0.6,0,1.1,0.1,1.7,0.3
					c-0.8-0.6-1.8-0.9-2.9-0.9c-2.7,0-4.9,2.1-4.9,4.8c0,0.3,0,0.5,0.1,0.7C19.9,46.3,22.4,44.2,25.4,44.2z M70.8,54.6
					c3.8,1.4,6.2,3.7,5.8,6c-0.5,3.1-5.7,4.9-11.7,4.1c0,0,0,0,0,0c0.9,0.3,1.9,0.5,2.9,0.7c5.1,0.7,9.7-1.2,10.1-4.3
					C78.4,58.3,75.3,55.5,70.8,54.6z M35.5,61.1c-0.3-1.9,0.3-3.7,1.4-5.3c-2.1,1.7-3.2,4.2-2.8,6.7c0.7,4.2,5.3,6.9,10.3,6.1
					c1.7-0.3,3.2-0.9,4.4-1.7c-0.7,0.2-1.4,0.4-2.2,0.6C41.2,68.3,36.2,65.5,35.5,61.1z"/>
			</g>
		</g>
	</g>
</g>
</svg>
