<?xml version="1.0" encoding="utf-8"?>
<!-- Generator: Adobe Illustrator 19.1.0, SVG Export Plug-In . SVG Version: 6.00 Build 0)  -->
<svg version="1.1" xmlns="http://www.w3.org/2000/svg" xmlns:xlink="http://www.w3.org/1999/xlink" x="0px" y="0px"
	 viewBox="0 0 171.8 211.6" style="enable-background:new 0 0 171.8 211.6;" xml:space="preserve">
<style type="text/css">
	.st0{clip-path:url(#XMLID_6_);}
	.st1{fill:#007599;}
	.st2{fill:#85BDCE;}
	.st3{clip-path:url(#XMLID_7_);}
	.st4{clip-path:url(#XMLID_8_);}
	.st5{fill:#211D1C;}
</style>
<g id="background">
</g>
<g id="objects">
	<g>
		<g>
			<defs>
				<path id="XMLID_3_" d="M65.4,61.6c0,0,6.7-9.1,15.4-10.2c8.8-1.1,11.9,0,15.4,3.5c3.5,3.5,7,7,7,7s11.9-17.9,13.7-26.3
					c1.8-8.4-0.4-21-0.4-21S91.3,3,79.8,4.4C68.2,5.9,61.5,9,59.4,10.1c-2.1,1.1-5.3,14.7-5.3,14.7S54.9,51.1,65.4,61.6z"/>
			</defs>
			<use xlink:href="#XMLID_3_"  style="overflow:visible;fill:#8BFAFF;"/>
			<clipPath id="XMLID_6_">
				<use xlink:href="#XMLID_3_"  style="overflow:visible;"/>
			</clipPath>
			<g class="st0">
				<g>
					<path class="st1" d="M70.6-3.1c-7.2,9-9.2,20.8-10,32c-0.7,9.8-1.5,25.1,5.9,32.8c0.8,0.9,2.3,1.3,3.5,0.9
						c4.3-1.5,1.8-5.9,0.7-8.9c-2.2-5.8-2.5-12.4-2.6-18.5c-0.3-12.8,3.4-24.9,4.4-37.5C72.5-3.2,71.2-3.8,70.6-3.1L70.6-3.1z"/>
				</g>
			</g>
			<g class="st0">
				<g>
					<path class="st1" d="M81.1-0.8c-0.9,10.3-0.4,20.6-0.3,30.9c0,5.2-0.1,10.3-0.2,15.5c-0.1,4.7-1.1,9.9,0.5,14.3
						c0.8,2.4,4.2,3.1,5.6,0.7c2.4-4.2,2.2-9.4,2.6-14.1c0.4-5.5,0.4-11,0.3-16.5C89.1,19.5,88,8.8,84.5-1.3
						C83.8-3.1,81.2-2.8,81.1-0.8L81.1-0.8z"/>
				</g>
			</g>
			<g class="st0">
				<g>
					<path class="st1" d="M100.4-1.1c2,10.8,2.2,22.2,1.3,33.1c-0.5,5.8-1.2,11.5-2.2,17.2c-0.8,4.8-2.7,10.5-1.1,15.1
						c0.6,1.6,2.6,2.4,3.9,1c3.9-3.9,4.6-10.6,5.8-15.8c1.3-6.1,2.5-12.3,3-18.5c1-12.1-0.5-23.3-6-34.1
						C103.8-5.9,99.9-3.9,100.4-1.1L100.4-1.1z"/>
				</g>
			</g>
		</g>
		<path id="XMLID_5_" class="st2" d="M65.4,61.6c0,0,6.7-9.1,15.4-10.2c8.8-1.1,11.9,0,15.4,3.5c3.5,3.5,7,7,7,7
			s11.9-17.9,13.7-26.3c1.8-8.4-0.4-21-0.4-21S91.3,3,79.8,4.4C68.2,5.9,61.5,9,59.4,10.1c-2.1,1.1-5.3,14.7-5.3,14.7
			S54.9,51.1,65.4,61.6z"/>
		<g>
			<defs>
				<path id="XMLID_4_" d="M109.2,11.8c0,0,3.9,6.7,2.8,13s-4.6,18.2-10.5,26.6C95.5,59.8,84,75.6,84,75.6l-51.2,65.2
					c0,0-10.9,14.4-11.6,16.8c-0.7,2.5,0.4,5.6,4.2,9.5c3.9,3.9,18.6,12.3,22.4,14.4c3.9,2.1,5.3,1.4,7.7-1.4
					c2.5-2.8,31.2-42.8,31.2-42.8s32.6-41.7,34-44.2c1.4-2.5,16.5-27,16.5-38.2c0-11.2-2.1-23.1-8.4-30.1c-6.3-7-12.6-9.5-14.4-10.2
					C112.7,13.9,109.2,11.8,109.2,11.8z"/>
			</defs>
			<use xlink:href="#XMLID_4_"  style="overflow:visible;fill:#8BFAFF;"/>
			<clipPath id="XMLID_7_">
				<use xlink:href="#XMLID_4_"  style="overflow:visible;"/>
			</clipPath>
			<g class="st3">
				<g>
					<path class="st1" d="M18.4,160.3c6.8,5.5,13.3,11.3,20.2,16.5c6.5,4.9,13.8,10.4,22,11.3c4.3,0.5,5.1-5.6,2-7.5
						c-6.6-4.3-14-7.1-20.6-11.5c-6.7-4.5-13.4-9-20-13.6C19.2,153.6,15.7,158.1,18.4,160.3L18.4,160.3z"/>
				</g>
			</g>
			<g class="st3">
				<g>
					<path class="st1" d="M26.3,136.1c6.4,8.6,14.4,15.6,22.8,22.3c4,3.2,8.1,6.2,12.3,9.1c3.8,2.5,7.6,6.1,12.3,5.3
						c1.2-0.2,1.9-1.7,1.6-2.8c-1.2-4-5.4-5.7-8.7-7.9c-4.5-3-8.9-6.1-13.2-9.3c-8.3-6.2-16.1-13.1-24.6-19.2
						C27.3,132.5,25.1,134.6,26.3,136.1L26.3,136.1z"/>
				</g>
			</g>
			<g class="st3">
				<g>
					<path class="st1" d="M38,115.4c6.4,8.6,14.4,15.7,22.9,22.2c4.2,3.2,8.6,6.4,12.9,9.4c4.3,3,9,6.6,14.3,7.5
						c2.2,0.4,4.8-2,3.2-4.2c-2.8-4-6.9-6.5-10.9-9.3c-4.6-3.3-9.2-6.6-13.7-10.1c-8.4-6.4-16.6-13.1-25.6-18.7
						C39.4,111,36.6,113.5,38,115.4L38,115.4z"/>
				</g>
			</g>
			<g class="st3">
				<g>
					<path class="st1" d="M60.1,95.6c6.2,6.8,12.8,13,20.1,18.6c7.1,5.4,14.6,11.6,23,14.8c1.3,0.5,2.8-0.1,3.7-1
						c0.5-0.5,0.8-1,1-1.7c0.4-1.3,0-2.8-1-3.7c-6.3-6-14.5-10.3-21.6-15.4C78,101.9,70.5,96.9,63,91.9
						C60.7,90.3,58.3,93.7,60.1,95.6L60.1,95.6z"/>
				</g>
			</g>
			<g class="st3">
				<g>
					<path class="st1" d="M105.2,20.9c8.2,5.6,16.1,11.3,22.9,18.7c3.3,3.6,6.1,7.5,8.8,11.6c2.3,3.5,4.5,7.6,8,10
						c0.8,0.5,2,0,2.3-0.9c2.3-9.4-7.1-20.4-13-26.7c-7.3-7.8-16.9-14.2-27.4-16.4C104.5,16.5,103.2,19.5,105.2,20.9L105.2,20.9z"/>
				</g>
			</g>
			<g class="st3">
				<g>
					<path class="st1" d="M99.6,41.6c7.2,6.9,14.5,14,20.8,21.8c3.1,3.8,5.9,7.9,8.4,12.1c2.4,4.1,4.4,8.7,7.8,12.1
						c1,1,2.4,0.2,2.6-1.1c1.2-9.7-6.7-20.2-12.3-27.4c-6.8-8.6-15-15.5-24.3-21.3C100.2,36.4,97.7,39.7,99.6,41.6L99.6,41.6z"/>
				</g>
			</g>
			<g class="st3">
				<g>
					<path class="st1" d="M85.3,67c6.9,6.5,13.9,12.9,20.5,19.8c6.1,6.3,11.6,14.4,19.2,19.1c0.9,0.6,1.9-0.4,1.7-1.3
						c-2-8.9-9.5-16.7-15.8-22.9c-7-7-14.5-13-23.3-17.7C85.7,62.9,83.6,65.4,85.3,67L85.3,67z"/>
				</g>
			</g>
		</g>
		<path class="st2" d="M85.5,72.6C76.3,86.1,66.4,99,55.6,111.3c-0.4,0.5-0.9,1-0.9,1.6c-0.1,0.8,0.5,1.5,1,2.1
			c8.7,10.4,16.6,21.3,23.8,32.7c9.6-14.8,21-28.9,32-42.7c-9.3-10.3-18.6-21.8-25.7-33.7"/>
		<g>
			<defs>
				<path id="XMLID_2_" d="M116.3,184.6c-3.9,0-6.6-0.8-11.3-10.8c-4.7-10-22.1-30.2-24.4-34.4c-2.4-4.2-34.4-52.6-40.2-62.3
					c-5.8-9.7-13.7-28.9-9.5-40c4.2-11,10.3-17.3,15-21c4.7-3.7,14.7-7.9,15.8-8.4c1.1-0.5,2.9-0.5,2.9-0.5s-6.3,6.8-5,21.6
					C60.8,43.4,70,63.1,81.9,75.5c11.8,12.4,43.9,55.7,43.9,55.7s17.3,19.2,18.9,21.3s1.6,7.4,1.1,8.9
					C145.2,163,120.2,184.6,116.3,184.6z"/>
			</defs>
			<use xlink:href="#XMLID_2_"  style="overflow:visible;fill:#8BFAFF;"/>
			<clipPath id="XMLID_8_">
				<use xlink:href="#XMLID_2_"  style="overflow:visible;"/>
			</clipPath>
			<g class="st4">
				<g>
					<path class="st1" d="M73.8,7.8c-12.1-1.3-24.3,7.4-33.2,14.7c-4.9,4-9.3,8.5-13.3,13.3c-2.8,3.4-10.4,11.2-7,16
						c3.3,4.7,9.6-2.3,11.7-4.7c4.2-4.9,8.4-9.7,13.1-14.1c4.4-4.1,9.2-7.6,14.4-10.6c5.4-3.2,11.4-5.8,16-10.1
						C77.4,10.6,75.9,8,73.8,7.8L73.8,7.8z"/>
				</g>
			</g>
			<g class="st4">
				<g>
					<path class="st1" d="M30,78.5C37.2,71.1,45,64.2,53.2,58c3.9-2.9,7.8-5.9,11.8-8.6c3.5-2.3,8-4.3,9.1-8.6
						c0.4-1.4-0.5-3-1.9-3.3c-4.7-1.1-8.7,2.3-12.3,4.9c-4.3,3-8.5,6.2-12.3,9.8C39.8,59.4,33.1,67.4,27,76.2
						C25.8,78,28.5,80,30,78.5L30,78.5z"/>
				</g>
			</g>
			<g class="st4">
				<g>
					<path class="st1" d="M44.6,98.4c6.3-5.7,11.5-12.4,17.8-18c6.3-5.6,14.1-9.8,20-15.8c2.4-2.4,0-7.5-3.5-6.1
						C71,61.6,64,68.8,58.2,74.8C52,81.1,45.5,88.2,42,96.3C41.3,98,43.1,99.7,44.6,98.4L44.6,98.4z"/>
				</g>
			</g>
			<g class="st4">
				<g>
					<path class="st1" d="M58,117c6.4-5,12.1-11,18.3-16.2c3.3-2.8,6.6-5.4,10.1-8c2.9-2.2,6-3.9,8.2-6.9c2.1-2.8-1.3-6.3-4.3-5.6
						c-4,1.1-7.3,4.2-10.6,6.7c-3.2,2.5-6.3,5.1-9.3,7.9c-6.1,5.6-12.2,11.9-16.3,19.1C52.7,116.6,55.9,118.6,58,117L58,117z"/>
				</g>
			</g>
			<g class="st4">
				<g>
					<path class="st1" d="M70.3,136.9c3.7-0.6,6.3-4.6,9-7c3.7-3.3,7.7-6.4,11.5-9.5c3.8-3.1,7.7-6.1,11.6-9.1
						c3.7-2.8,8.2-5.2,11.2-8.8c2.2-2.6,0.2-8-3.8-6.5c-4.7,1.8-8.5,5.3-12.5,8.4c-4,3.1-8,6.2-11.8,9.5c-3.8,3.2-7.2,6.8-10.5,10.5
						c-2.6,3-7.1,6.6-7,10.8C68.2,136.5,69.2,137.1,70.3,136.9L70.3,136.9z"/>
				</g>
			</g>
			<g class="st4">
				<g>
					<path class="st1" d="M84.5,156.7c5.1-6.3,13.3-10.3,19.6-15.3c6.9-5.4,15.9-10.8,21-18c2.8-3.9-2.4-7.6-6-6
						c-4.4,2-8.2,6-11.8,9.1c-3.5,3-6.9,6-10.3,9.1c-6,5.5-12,11.1-16,18.3C79.8,156.1,82.8,158.7,84.5,156.7L84.5,156.7z"/>
				</g>
			</g>
			<g class="st4">
				<g>
					<path class="st1" d="M96.6,174.6c7.7-5.2,15-10.8,22.4-16.5c3.7-2.9,7.5-5.6,11.3-8.4c3.7-2.7,7.9-5.1,11.1-8.5
						c3.4-3.6-0.9-8.2-5-6.5c-8.1,3.4-15.6,10.8-22.4,16.3c-7.4,6.1-14.1,12.6-20.1,20C92.4,172.8,94.3,176.1,96.6,174.6L96.6,174.6
						z"/>
				</g>
			</g>
			<g class="st4">
				<g>
					<path class="st1" d="M110.8,190.7c6.6-7.1,16.7-10.8,24.6-16.3c3.9-2.7,7.8-5.5,11.6-8.4c3.9-3,8.2-5.8,11-9.9
						c2.6-3.8-2.3-7.6-5.9-5.9c-4.3,2.1-7.8,6-11.4,9c-4.3,3.6-8.7,7-13.3,10.3c-7.3,5.3-15.4,10.5-21,17.7
						C104.5,189.9,108.7,193,110.8,190.7L110.8,190.7z"/>
				</g>
			</g>
		</g>
		<g>
			<g>
				<g>
					<path class="st5" d="M107.7,109.9c19-20,39.1-49.9,26.5-78.5c-5.4-12.3-19.1-18.5-31.1-22.8C90.1,3.8,75.3,1.7,62,6.7
						c-10.4,3.9-20.9,10-27.2,19.4c-7.7,11.5-6.4,25.5-2.1,38c5.2,15.3,15.7,28.4,24.5,41.7c9.6,14.3,18.9,28.9,29,42.8
						c5.6,7.8,12,15.3,16.9,23.5c2.4,4,4.3,11.6,9.2,13.5c4.3,1.7,9.1-2.2,12.3-4.7c7.2-5.7,14.1-11.8,20.8-18c0.7-0.6-0.3-1.7-1-1
						c-4.8,4.5-9.8,8.9-14.9,13c-4.4,3.6-13.5,13.1-18.9,6.5c-3.1-3.7-4.5-8.8-7.2-12.8c-3.9-5.9-8.2-11.5-12.4-17.2
						c-16.8-23-32.6-47.1-47.7-71.2c-7.4-11.9-13.7-27.3-11-41.5c2.2-11.5,10.6-19.8,20.4-25.3c12-6.7,24.6-8.9,38.1-6.2
						c12,2.4,25.5,7.4,34.9,15.5c12.8,11,12.2,31.1,7.4,45.8c-5.1,15.6-15.7,28.3-26.1,40.7C106.5,109.6,107.2,110.4,107.7,109.9
						L107.7,109.9z"/>
				</g>
			</g>
			<g>
				<g>
					<path class="st5" d="M64,6.2c-18.4,25,7.1,56.1,21.5,75.8c9.4,12.8,19.3,25.4,29.4,37.7c5.2,6.4,10.5,12.7,15.9,18.8
						c2.7,3.1,5.5,6.1,8.2,9.2c3.6,4,8.5,8.7,5.7,14.6c-0.4,0.9,0.8,1.6,1.3,0.8c2.5-4.4,0.8-8.8-2.1-12.7
						c-4.5-6-9.7-11.5-14.5-17.2c-11.1-13.2-22.1-26.6-32.5-40.4c-9.6-12.7-19.8-25.5-28-39.3c-8.5-14.4-12.7-31.4-3.9-46.7
						C65.5,6.1,64.4,5.6,64,6.2L64,6.2z"/>
				</g>
			</g>
			<g>
				<g>
					<path class="st5" d="M108.7,12.7c1.6,6,2.7,11.3,1.4,17.4c-1.2,5.7-3.8,10.9-6.9,15.8c-6.3,9.9-13.8,19-20.5,28.6
						c-0.6,0.9,0.8,2.1,1.5,1.2c8.1-10.5,17.1-21.4,23.4-33.1c4.5-8.6,8.3-21.6,1.9-30.2C109.3,11.9,108.6,12.2,108.7,12.7
						L108.7,12.7z"/>
				</g>
			</g>
			<g>
				<g>
					<path class="st5" d="M69.6,56.8c9.2-5.5,18.4-6,27.1,0.6c1.1,0.8,2.5-1,1.4-1.9c-8.2-7.3-21.2-7.3-29,0.7
						C68.8,56.5,69.2,57,69.6,56.8L69.6,56.8z"/>
				</g>
			</g>
			<g>
				<g>
					<path class="st5" d="M59.3,107c-7.3,6.4-13.2,15.4-19.2,23.1c-6.1,7.9-12.1,16-17.8,24.2c-1.3,1.9-3.3,4.2-2.5,6.7
						c1,3.4,5.9,6.3,8.5,8.4c7.2,5.9,15.3,10.8,23.8,14.6c1.3,0.6,2.4-1.3,1.1-1.9c-7.3-3.5-14.3-7.5-20.9-12.3
						c-2.8-2-7.4-4.4-9.2-7.4c-2.9-4.9,3.4-11.2,6.1-14.9c5-7.1,10.2-14,15.5-20.9c4.9-6.3,10.9-12.4,15.1-19.2
						C60.1,107,59.6,106.7,59.3,107L59.3,107z"/>
				</g>
			</g>
			<g>
				<g>
					<path class="st5" d="M82.5,141.7c-5.4,6.2-9.7,13.3-14.5,20c-2.6,3.6-5.2,7.1-7.8,10.7c-2.6,3.5-5.7,6.8-7.6,10.8
						c-0.1,0.3,0.2,0.6,0.5,0.4c6-5.1,10.5-13.1,15.1-19.5c5.1-7,10.8-14.2,14.7-21.9C83.1,141.8,82.7,141.4,82.5,141.7L82.5,141.7z
						"/>
				</g>
			</g>
			<g>
				<g>
					<path class="st5" d="M20.8,161.7c-3.6,4.3-5.9,9.5-8.5,14.4c-1.4,2.6-2.8,5.3-4.5,7.7c-1.7,2.4-4,4.3-5.5,6.8
						c-0.2,0.3,0.1,0.7,0.5,0.6c4.6-1.9,7.5-7.4,9.7-11.5c3.1-5.8,5.8-11.7,9.1-17.4C22,161.8,21.2,161.2,20.8,161.7L20.8,161.7z"/>
				</g>
			</g>
			<g>
				<g>
					<path class="st5" d="M23.3,165.4c-2.5,5.2-4.4,10.7-6.5,16c-1,2.6-2,5.3-3.3,7.7c-1.5,2.9-3.7,4.7-5.8,7.1
						c-0.3,0.4,0,1,0.5,0.8c4.3-1.2,6.6-6.1,8.3-9.9c2.9-6.9,5.6-14.2,7.7-21.4C24.3,165.3,23.5,164.9,23.3,165.4L23.3,165.4z"/>
				</g>
			</g>
			<g>
				<g>
					<path class="st5" d="M29.6,168.3c-3.3,4.1-5.4,8.6-7.4,13.5c-1.3,3.2-2.6,6.4-4.1,9.4c-1.4,2.6-3.3,5-4.5,7.7
						c-0.2,0.4,0.2,1,0.7,0.7c4.1-2.7,6.2-8.6,8-12.9c2.5-6,4.7-12.1,8.1-17.6C30.7,168.5,30,167.9,29.6,168.3L29.6,168.3z"/>
				</g>
			</g>
			<g>
				<g>
					<path class="st5" d="M34.4,173.1c-3.6,3.9-5.5,9.3-7.4,14.1c-1.3,3.1-2.5,6.3-4,9.3c-1.4,2.8-3.5,5.3-4.8,8.2
						c-0.1,0.3,0.2,0.7,0.5,0.5c4.3-2.6,6.4-8.2,8.3-12.6c2.7-6.4,5.3-12.7,8.2-18.9C35.4,173.2,34.8,172.7,34.4,173.1L34.4,173.1z"
						/>
				</g>
			</g>
			<g>
				<g>
					<path class="st5" d="M39.5,175.6c-3.5,2.6-4.9,6.7-6.2,10.8c-0.8,2.6-1.5,5.3-2.5,7.9c-1.1,2.9-2.8,5.2-4.1,8
						c-0.1,0.3,0.2,0.6,0.5,0.5c3.8-1.9,5.2-6.7,6.4-10.5c1.8-5.7,3.4-10.8,6.6-15.8C40.4,175.9,39.9,175.3,39.5,175.6L39.5,175.6z"
						/>
				</g>
			</g>
			<g>
				<g>
					<path class="st5" d="M44.2,178.3c-3.2,3.3-4.8,7.8-6.5,12c-2.2,5.6-4.8,10.8-7.3,16.2c-0.2,0.4,0.2,0.7,0.6,0.4
						c3.5-2.9,5.2-7.6,6.9-11.7c2.2-5.6,4.7-10.9,7.2-16.3C45.3,178.5,44.7,177.9,44.2,178.3L44.2,178.3z"/>
				</g>
			</g>
			<g>
				<g>
					<path class="st5" d="M50.1,180.9c-3.6,3.1-6.2,6.6-7.9,11c-1,2.6-1.5,5.3-2.2,7.9c-1,3.7-2.8,5.9-5.1,8.8
						c-0.3,0.4,0,0.9,0.5,0.8c4.1-0.9,5.8-5.3,6.8-9c1.9-7.1,3.9-13,9-18.5C51.7,181.2,50.8,180.3,50.1,180.9L50.1,180.9z"/>
				</g>
			</g>
			<g>
				<g>
					<path class="st5" d="M114,184.8c3,5,4.9,10.1,7.3,15.3c1.7,3.6,4.9,6.6,7.6,9.4c0.3,0.3,0.8,0,0.7-0.4
						c-0.4-1.7-1.1-2.7-2.2-4.1c-2.4-2.9-4.1-5.1-5.5-8.7c-1.8-4.5-4-8.5-7.2-12.1C114.4,183.7,113.7,184.3,114,184.8L114,184.8z"/>
				</g>
			</g>
			<g>
				<g>
					<path class="st5" d="M119,183c1.5,5.5,5.1,10.7,8.4,15.3c2.2,3,4.8,6.7,8.7,6.9c0.3,0,0.5-0.4,0.2-0.6
						c-3.6-2.9-6.4-5.8-8.9-9.8c-2.6-4-4.5-8.4-7.3-12.3C119.8,182,118.8,182.3,119,183L119,183z"/>
				</g>
			</g>
			<g>
				<g>
					<path class="st5" d="M123,181c2.9,5.3,7,10.3,10.8,15.1c2.6,3.3,5.4,7.6,9.5,9.1c0.3,0.1,0.6-0.3,0.4-0.6
						c-2.6-4.2-6.7-7.6-9.7-11.6c-3.2-4.3-6.2-9-10-12.8C123.6,179.7,122.7,180.4,123,181L123,181z"/>
				</g>
			</g>
			<g>
				<g>
					<path class="st5" d="M127.5,178.3c3.5,4.9,6.8,10.1,10.5,14.8c2.5,3.1,6.3,7.5,10.6,7.4c0.4,0,0.6-0.5,0.3-0.8
						c-1.8-1.7-4.1-2.7-6-4.4c-2.2-2-4-4.5-5.7-6.9c-2.7-3.8-5-8.1-8.9-10.9C127.8,177.1,127.1,177.8,127.5,178.3L127.5,178.3z"/>
				</g>
			</g>
			<g>
				<g>
					<path class="st5" d="M131.8,174.8c3.6,5.2,8.1,9.8,11.6,15c2.2,3.3,4.9,7.7,9.1,8.4c0.4,0.1,0.7-0.3,0.4-0.6
						c-1.9-2.1-4-3.7-5.7-6c-1.6-2.2-3-4.4-4.6-6.6c-2.9-4-6.1-8-10.3-10.8C132,174,131.6,174.4,131.8,174.8L131.8,174.8z"/>
				</g>
			</g>
			<g>
				<g>
					<path class="st5" d="M136.6,170c0.9,2.5,2.6,4.4,4.4,6.3c3,3.1,5.8,6.3,8.2,10c2.2,3.4,4.4,8.8,9.4,7.8
						c0.3-0.1,0.4-0.6,0.1-0.7c-5.4-2.4-7-8.1-10.4-12.5c-3.2-4.2-7.3-7.4-10.5-11.5C137.3,168.8,136.4,169.4,136.6,170L136.6,170z"
						/>
				</g>
			</g>
			<g>
				<g>
					<path class="st5" d="M141,166.4c2.4,6,8.8,9.3,12.4,14.5c2.6,3.8,5.8,10.3,11.2,10.2c0.4,0,0.7-0.5,0.3-0.8
						c-2.4-1.9-4.8-3.3-6.7-5.9c-1.6-2.2-2.8-4.6-4.4-6.8c-3.3-4.5-8.1-7.6-11.8-11.8C141.6,165.4,140.8,165.9,141,166.4L141,166.4z
						"/>
				</g>
			</g>
			<g>
				<g>
					<path class="st5" d="M144.8,163.6c4.2,4.2,8.2,8.4,12,13c2.9,3.5,6.7,9,11.4,10c0.4,0.1,0.7-0.3,0.5-0.7
						c-1.3-2.1-3.5-3.6-5.3-5.4c-2.1-2.1-4-4.4-5.8-6.7c-3.4-4.2-6.9-9-11.8-11.5C145,161.9,144.2,162.9,144.8,163.6L144.8,163.6z"
						/>
				</g>
			</g>
		</g>
	</g>
</g>
</svg>
