<?xml version="1.0" encoding="utf-8"?>
<!-- Generator: Adobe Illustrator 19.1.0, SVG Export Plug-In . SVG Version: 6.00 Build 0)  -->
<svg version="1.1" id="Layer_1" xmlns="http://www.w3.org/2000/svg" xmlns:xlink="http://www.w3.org/1999/xlink" x="0px" y="0px"
	 viewBox="-232 332.8 146.6 128.2" style="enable-background:new -232 332.8 146.6 128.2;" xml:space="preserve">
<style type="text/css">
	.st0{fill:#FBB040;}
	.st1{fill:url(#SVGID_1_);}
	.st2{fill:url(#SVGID_2_);}
	.st3{fill:url(#SVGID_3_);}
	.st4{fill:url(#SVGID_4_);}
	.st5{fill:url(#SVGID_5_);}
	.st6{fill:url(#SVGID_6_);}
	.st7{fill:url(#SVGID_7_);}
	.st8{fill:url(#SVGID_8_);}
	.st9{fill:url(#SVGID_9_);}
	.st10{fill:url(#SVGID_10_);}
	.st11{fill:url(#SVGID_11_);}
	.st12{fill:url(#SVGID_12_);}
	.st13{fill:url(#SVGID_13_);}
	.st14{fill:url(#SVGID_14_);}
	.st15{fill:#94A7AF;}
	.st16{fill:url(#SVGID_15_);}
	.st17{fill:url(#SVGID_16_);}
	.st18{fill:url(#SVGID_17_);}
	.st19{fill:url(#SVGID_18_);}
	.st20{fill:#263032;}
	.st21{fill:url(#SVGID_19_);}
	.st22{fill:url(#SVGID_20_);}
	.st23{fill:#F6921E;}
	.st24{fill:url(#SVGID_21_);}
</style>
<g id="Layer_1_1_">
</g>
<g id="Layer_2">
	<g>
		<g>
			<g>
				<path class="st0" d="M-144.7,376.3c0,0.4-22,0.4-22,0.8c0,0.4,21.9,2.1,21.9,2.5c0,0.4-22-1.3-22-0.9s21.7,3.8,21.7,4.2
					c-0.1,0.4-21.8-3.1-21.9-2.7c-0.1,0.4,21.4,5.5,21.3,5.9c-0.1,0.4-21.5-4.8-21.6-4.4c-0.1,0.4,20.8,7.2,20.7,7.5
					c-0.3,0.5-21.2-6.4-21.4-6c-0.1,0.4,20.2,8.8,20.1,9.2c-0.2,0.4-20.5-8.1-20.7-7.7c-0.2,0.4,19.5,10.4,19.3,10.7
					c-0.2,0.4-19.8-9.7-20-9.3c-0.2,0.4,18.6,11.9,18.4,12.2c-0.2,0.3-19-11.2-19.2-10.9c-0.2,0.3,17.6,13.3,17.4,13.6
					c-0.3,0.3-18.1-12.7-18.3-12.4c-0.3,0.3,16.5,14.6,16.2,14.9c-0.2,0.3-17-14-17.2-13.7c-0.3,0.3,15.3,15.9,15,16.1
					c-0.3,0.3-15.8-15.3-16.1-15c-0.3,0.3,14,17,13.7,17.3c-0.3,0.2-14.6-16.5-14.9-16.3c-0.3,0.2,12.7,18,12.3,18.3
					c-0.3,0.2-13.3-17.6-13.6-17.4c-0.3,0.2,11.2,19,10.9,19.2c-0.3,0.2-11.8-18.6-12.2-18.4c-0.3,0.2,9.7,19.8,9.3,20
					c-0.3,0.2-10.3-19.4-10.7-19.2c-0.4,0.2,8.1,20.5,7.7,20.7c-0.4,0.1-8.8-20.3-9.1-20.1c-0.4,0.1,6.5,21.1,6.1,21.2
					c-0.4,0.1-7.2-20.8-7.5-20.7c-0.4,0.1,4.8,21.5,4.4,21.6c-0.4,0.1-5.5-21.3-5.9-21.3c-0.4,0.1,3,21.8,2.6,21.9
					c-0.4,0.1-3.8-21.7-4.2-21.7c-0.4,0,1.3,22,0.9,22c-0.4,0-2.1-21.9-2.5-21.9s-0.4,22-0.8,22s-0.4-22-0.8-22
					c-0.4,0-2.1,21.9-2.5,21.9c-0.4,0,1.3-22,0.9-22s-3.8,21.7-4.2,21.7c-0.4-0.1,3-21.8,2.7-21.9c-0.4-0.1-5.5,21.3-5.9,21.3
					c-0.4-0.1,4.8-21.5,4.4-21.6s-7.2,20.8-7.5,20.7c-0.4-0.1,6.4-21.1,6.1-21.2c-0.4-0.1-8.8,20.2-9.2,20.1
					c-0.4-0.2,8.1-20.5,7.7-20.7c-0.4-0.2-10.4,19.4-10.7,19.2c-0.4-0.2,9.7-19.8,9.3-20c-0.3-0.2-11.9,18.6-12.2,18.4
					c-0.3-0.2,11.2-18.9,10.9-19.2c-0.4-0.2-13.3,17.6-13.6,17.4c-0.3-0.2,12.7-18,12.3-18.3c-0.3-0.2-14.6,16.5-14.9,16.2
					c-0.3-0.3,14-17,13.7-17.3c-0.3-0.3-15.9,15.3-16.1,15c-0.3-0.3,15.3-15.8,15-16.1c-0.3-0.3-17,14-17.3,13.7
					c-0.3-0.3,16.5-14.6,16.2-14.9c-0.3-0.3-18,12.7-18.3,12.3c-0.2-0.3,17.6-13.3,17.4-13.6c-0.2-0.3-19,11.2-19.2,10.9
					c-0.2-0.3,18.6-11.8,18.4-12.2s-19.8,9.7-20,9.3s19.4-10.3,19.3-10.7c-0.2-0.4-20.5,8.1-20.7,7.7c-0.2-0.4,20.2-8.8,20.1-9.2
					c-0.1-0.2-21,6.7-21.1,6.3c-0.1-0.4,20.8-7.2,20.7-7.5c-0.1-0.4-21.5,4.8-21.6,4.4c-0.1-0.4,21.3-5.5,21.3-5.9
					c-0.1-0.5-21.9,3-22,2.6s21.7-3.8,21.7-4.2s-22,1.3-22,0.9c0-0.4,21.9-2.1,21.9-2.5c0-0.4-22-0.4-22-0.8s22-0.4,22-0.8
					c0-0.4-21.9-2.1-21.9-2.5c0-0.4,22,1.3,22,0.9c0-0.3-21.7-3.7-21.7-4.1c0.1-0.4,21.8,3.1,21.9,2.7c0.1-0.4-21.4-5.5-21.3-5.9
					c0.1-0.4,21.5,4.8,21.6,4.4c0.1-0.4-20.8-7.2-20.7-7.5c0.1-0.4,21.1,6.4,21.2,6.1c0.1-0.4-20.2-8.8-20.1-9.2
					c0.2-0.4,20.5,8.1,20.7,7.7c0.2-0.4-19.5-10.4-19.3-10.7c0.2-0.4,19.8,9.7,20,9.3c0.3-0.4-18.5-11.9-18.3-12.2
					c0.2-0.3,19,11.2,19.2,10.9c0.2-0.3-17.6-13.3-17.4-13.6s18,12.7,18.3,12.3c0.2-0.3-16.5-14.6-16.2-14.9
					c0.3-0.3,17,14,17.3,13.7c0.3-0.3-15.3-15.9-15-16.1c0.3-0.3,15.8,15.3,16.1,15s-14-17-13.7-17.3c0.3-0.3,14.6,16.5,14.9,16.2
					c0.3-0.3-12.7-18-12.3-18.3c0.2-0.2,13.2,17.7,13.5,17.4c0.3-0.2-11.2-19-10.9-19.2c0.3-0.2,11.8,18.6,12.2,18.4
					c0.4-0.2-9.7-19.8-9.3-20c0.4-0.2,10.3,19.4,10.7,19.3c0.4-0.1-8.1-20.5-7.7-20.6c0.4-0.2,8.8,20.2,9.2,20.1
					c0.4-0.1-6.5-21.1-6.1-21.2c0.4-0.1,7.2,20.8,7.5,20.7c0.4-0.1-4.8-21.5-4.4-21.6c0.4-0.1,5.5,21.3,5.9,21.3
					c0.4-0.1-3.1-21.8-2.7-21.9c0.4-0.1,3.8,21.7,4.2,21.7s-1.3-22-0.9-22c0.4,0,2.1,21.9,2.5,21.9c0.4,0,0.4-22,0.8-22
					c0.4,0,0.4,22,0.8,22c0.4,0,2.1-21.9,2.5-21.9s-1.3,22-0.9,22c0.4,0,3.8-21.7,4.2-21.7c0.4,0.1-3,21.8-2.7,21.9
					c0.4,0.1,5.5-21.4,5.9-21.3s-4.8,21.5-4.4,21.6c0.4,0.1,7.2-20.8,7.5-20.7c0.4,0.1-6.4,21.1-6.1,21.2c0.4,0.1,8.8-20.2,9.2-20.1
					c0.4,0.2-8.1,20.5-7.7,20.7c0.4,0.2,10.4-19.5,10.7-19.3c0.4,0.2-9.7,19.8-9.3,20c0.4,0.2,11.9-18.6,12.2-18.4
					c0.3,0.2-11.2,19-10.9,19.2c0.3,0.2,13.3-17.6,13.6-17.4c0.3,0.2-12.7,18-12.3,18.3c0.3,0.2,14.6-16.5,14.9-16.2
					c0.3,0.3-14,17-13.7,17.3c0.3,0.3,15.9-15.3,16.1-15c0.3,0.3-15.3,15.8-15,16.1c0.3,0.3,17-14,17.3-13.7
					c0.2,0.2-16.6,14.5-16.3,14.8c0.3,0.3,18-12.7,18.3-12.3c0.2,0.3-17.6,13.3-17.4,13.6c0.2,0.3,19-11.2,19.2-10.9
					c0.2,0.3-18.6,11.8-18.4,12.2c0.2,0.4,19.8-9.7,20-9.3c0.2,0.4-19.4,10.3-19.3,10.7c0.2,0.4,20.5-8.1,20.7-7.7
					s-20.2,8.8-20.1,9.2c0.1,0.4,21.1-6.5,21.2-6.1c0.1,0.4-20.8,7.2-20.7,7.5c0.1,0.4,21.5-4.8,21.6-4.4c0.1,0.4-21.3,5.5-21.3,5.9
					c0.1,0.4,21.8-3.1,21.9-2.7c0.1,0.4-21.7,3.8-21.7,4.2c0,0.4,22-1.3,22-0.9c0,0.4-21.9,2.1-21.9,2.5
					C-166.8,376-144.7,375.9-144.7,376.3z"/>
			</g>
			
				<linearGradient id="SVGID_1_" gradientUnits="userSpaceOnUse" x1="-186.6" y1="390.8" x2="-186.6" y2="447.8" gradientTransform="matrix(1 0 0 -1 0 795.6)">
				<stop  offset="0" style="stop-color:#FBB840"/>
				<stop  offset="0.3655" style="stop-color:#FDD223"/>
				<stop  offset="0.7614" style="stop-color:#FEE909"/>
				<stop  offset="1" style="stop-color:#FFF200"/>
			</linearGradient>
			<path class="st1" d="M-158.1,376.3c0,15.8-12.8,28.5-28.5,28.5s-28.5-12.8-28.5-28.5s12.8-28.5,28.5-28.5
				S-158.1,360.6-158.1,376.3z"/>
			
				<radialGradient id="SVGID_2_" cx="-184.7556" cy="418.5143" r="37.0808" gradientTransform="matrix(1 0 0 -1 0 795.6)" gradientUnits="userSpaceOnUse">
				<stop  offset="0" style="stop-color:#FFF200"/>
				<stop  offset="0.4436" style="stop-color:#FFF002"/>
				<stop  offset="0.6034" style="stop-color:#FEEA09"/>
				<stop  offset="0.7173" style="stop-color:#FEDF14"/>
				<stop  offset="0.8094" style="stop-color:#FDD025"/>
				<stop  offset="0.8874" style="stop-color:#FBBC3B"/>
				<stop  offset="0.9018" style="stop-color:#FBB840"/>
			</radialGradient>
			<path class="st2" d="M-158.1,376.3c0,15.8-12.8,28.5-28.5,28.5s-28.5-12.8-28.5-28.5s12.8-28.5,28.5-28.5
				S-158.1,360.6-158.1,376.3z"/>
		</g>
		<g>
			
				<radialGradient id="SVGID_3_" cx="-181.554" cy="362.9638" r="10.1498" fx="-181.6317" fy="363.6632" gradientTransform="matrix(1 0 0 -1 0 795.6)" gradientUnits="userSpaceOnUse">
				<stop  offset="0" style="stop-color:#ECF6F9"/>
				<stop  offset="0.1488" style="stop-color:#AEE4F5"/>
				<stop  offset="0.2976" style="stop-color:#77D4F1"/>
				<stop  offset="0.4085" style="stop-color:#54CAEF"/>
				<stop  offset="0.4683" style="stop-color:#47C6EE"/>
				<stop  offset="0.5126" style="stop-color:#47BFEA"/>
				<stop  offset="1" style="stop-color:#4379BC"/>
			</radialGradient>
			<path class="st3" d="M-175.3,435.7c0-2.2-0.4-4.2-0.4-5.6c0-1.4,0.1-4.7,0.1-4.7s-2.2,2.3-3.2,3.3s-3,2.2-4.6,3.9
				c-1.2,1.2-1.8,3.4-1.2,5.1c0.5,1.5,1.3,2.6,2.9,3.3c0.7,0.3,1.4,0.4,2,0.4c0.9,0,1.8-0.2,2.5-0.7
				C-176.1,439.7-175.3,438.6-175.3,435.7z"/>
			
				<radialGradient id="SVGID_4_" cx="-198.2799" cy="367.0276" r="8.1263" fx="-198.3421" fy="367.5876" gradientTransform="matrix(1 0 0 -1 0 795.6)" gradientUnits="userSpaceOnUse">
				<stop  offset="0" style="stop-color:#ECF6F9"/>
				<stop  offset="0.1488" style="stop-color:#AEE4F5"/>
				<stop  offset="0.2976" style="stop-color:#77D4F1"/>
				<stop  offset="0.4085" style="stop-color:#54CAEF"/>
				<stop  offset="0.4683" style="stop-color:#47C6EE"/>
				<stop  offset="0.5126" style="stop-color:#47BFEA"/>
				<stop  offset="1" style="stop-color:#4379BC"/>
			</radialGradient>
			<path class="st4" d="M-193.3,431c0-1.8-0.3-3.4-0.3-4.5c0-1.1,0.1-3.8,0.1-3.8s-1.7,1.9-2.6,2.6c-0.8,0.8-2.4,1.8-3.7,3.1
				c-1,1-1.4,2.7-1,4c0.4,1.2,1,2.1,2.3,2.6c0.5,0.2,1.1,0.3,1.6,0.3c0.7,0,1.4-0.2,2-0.6C-193.9,434.2-193.3,433.4-193.3,431z"/>
			
				<radialGradient id="SVGID_5_" cx="-148.647" cy="353.1491" r="10.1494" fx="-148.7248" fy="353.8485" gradientTransform="matrix(0.8821 -1.220000e-02 -1.380000e-02 -0.9999 -28.8707 790.6413)" gradientUnits="userSpaceOnUse">
				<stop  offset="0" style="stop-color:#ECF6F9"/>
				<stop  offset="0.1488" style="stop-color:#AEE4F5"/>
				<stop  offset="0.2976" style="stop-color:#77D4F1"/>
				<stop  offset="0.4085" style="stop-color:#54CAEF"/>
				<stop  offset="0.4683" style="stop-color:#47C6EE"/>
				<stop  offset="0.5126" style="stop-color:#47BFEA"/>
				<stop  offset="1" style="stop-color:#4379BC"/>
			</radialGradient>
			<path class="st5" d="M-159.3,442.3c0-2.2-0.4-4.2-0.4-5.6s0-4.7,0-4.7s-1.9,2.3-2.8,3.3c-0.9,1-2.6,2.3-4,4
				c-1.1,1.2-1.5,3.4-1,5.1c0.4,1.4,1.2,2.6,2.6,3.2c0.6,0.3,1.2,0.4,1.8,0.4c0.8,0,1.6-0.3,2.2-0.8
				C-159.9,446.3-159.3,445.2-159.3,442.3z"/>
			
				<radialGradient id="SVGID_6_" cx="-107.1648" cy="368.0667" r="8.1253" fx="-107.227" fy="368.6266" gradientTransform="matrix(0.8822 0 0 -1 -43.0789 795.6)" gradientUnits="userSpaceOnUse">
				<stop  offset="0" style="stop-color:#ECF6F9"/>
				<stop  offset="0.1488" style="stop-color:#AEE4F5"/>
				<stop  offset="0.2976" style="stop-color:#77D4F1"/>
				<stop  offset="0.4085" style="stop-color:#54CAEF"/>
				<stop  offset="0.4683" style="stop-color:#47C6EE"/>
				<stop  offset="0.5126" style="stop-color:#47BFEA"/>
				<stop  offset="1" style="stop-color:#4379BC"/>
			</radialGradient>
			<path class="st6" d="M-133.2,430c0-1.8-0.3-3.4-0.3-4.5c0-1.1,0.1-3.8,0.1-3.8s-1.5,1.9-2.3,2.6c-0.7,0.8-2.1,1.8-3.3,3.1
				c-0.9,1-1.2,2.7-0.9,4.1c0.3,1.2,0.9,2.1,2,2.6c0.5,0.2,1,0.3,1.4,0.3c0.6,0,1.3-0.2,1.7-0.6C-133.8,433.2-133.2,432.3-133.2,430
				z"/>
			
				<radialGradient id="SVGID_7_" cx="-78.0314" cy="376.2724" r="8.1264" fx="-78.0936" fy="376.8324" gradientTransform="matrix(0.8822 0 0 -1 -43.0789 795.6)" gradientUnits="userSpaceOnUse">
				<stop  offset="0" style="stop-color:#ECF6F9"/>
				<stop  offset="0.1488" style="stop-color:#AEE4F5"/>
				<stop  offset="0.2976" style="stop-color:#77D4F1"/>
				<stop  offset="0.4085" style="stop-color:#54CAEF"/>
				<stop  offset="0.4683" style="stop-color:#47C6EE"/>
				<stop  offset="0.5126" style="stop-color:#47BFEA"/>
				<stop  offset="1" style="stop-color:#4379BC"/>
			</radialGradient>
			<path class="st7" d="M-107.5,421.7c0-1.8-0.3-3.4-0.3-4.5s0.1-3.8,0.1-3.8s-1.5,1.9-2.3,2.7c-0.7,0.8-2.1,1.8-3.3,3.1
				c-0.9,1-1.2,2.7-0.9,4.1c0.3,1.2,0.9,2.1,2,2.6c0.5,0.2,1,0.3,1.4,0.3c0.6,0,1.3-0.2,1.7-0.6C-108.1,425-107.5,424.1-107.5,421.7
				z"/>
			
				<radialGradient id="SVGID_8_" cx="-96.3669" cy="356.6312" r="8.1262" fx="-96.4291" fy="357.1912" gradientTransform="matrix(0.8822 0 0 -1 -43.0789 795.6)" gradientUnits="userSpaceOnUse">
				<stop  offset="0" style="stop-color:#ECF6F9"/>
				<stop  offset="0.1488" style="stop-color:#AEE4F5"/>
				<stop  offset="0.2976" style="stop-color:#77D4F1"/>
				<stop  offset="0.4085" style="stop-color:#54CAEF"/>
				<stop  offset="0.4683" style="stop-color:#47C6EE"/>
				<stop  offset="0.5126" style="stop-color:#47BFEA"/>
				<stop  offset="1" style="stop-color:#4379BC"/>
			</radialGradient>
			<path class="st8" d="M-123.7,441.4c0-1.8-0.3-3.4-0.3-4.5s0.1-3.8,0.1-3.8s-1.5,1.9-2.3,2.7c-0.7,0.8-2.1,1.8-3.3,3.1
				c-0.9,1-1.2,2.7-0.9,4.1c0.3,1.2,0.9,2.1,2,2.6c0.5,0.2,1,0.3,1.4,0.3c0.6,0,1.3-0.2,1.7-0.6
				C-124.2,444.6-123.7,443.7-123.7,441.4z"/>
			
				<radialGradient id="SVGID_9_" cx="-124.5471" cy="368.1785" r="5.5858" fx="-124.5898" fy="368.5634" gradientTransform="matrix(0.8822 0 0 -1 -43.0789 795.6)" gradientUnits="userSpaceOnUse">
				<stop  offset="0" style="stop-color:#ECF6F9"/>
				<stop  offset="0.1488" style="stop-color:#AEE4F5"/>
				<stop  offset="0.2976" style="stop-color:#77D4F1"/>
				<stop  offset="0.4085" style="stop-color:#54CAEF"/>
				<stop  offset="0.4683" style="stop-color:#47C6EE"/>
				<stop  offset="0.5126" style="stop-color:#47BFEA"/>
				<stop  offset="1" style="stop-color:#4379BC"/>
			</radialGradient>
			<path class="st9" d="M-149.9,429.1c0-1.2-0.2-2.3-0.2-3.1c0-0.8,0-2.6,0-2.6s-1.1,1.3-1.6,1.8s-1.4,1.2-2.2,2.1
				c-0.6,0.7-0.8,1.9-0.6,2.8c0.2,0.8,0.6,1.4,1.4,1.8c0.3,0.2,0.7,0.2,1,0.2c0.4,0,0.9-0.1,1.2-0.4
				C-150.3,431.3-149.9,430.7-149.9,429.1z"/>
			
				<radialGradient id="SVGID_10_" cx="-119.9161" cy="351.6296" r="5.5859" fx="-119.9589" fy="352.0145" gradientTransform="matrix(0.8822 0 0 -1 -43.0789 795.6)" gradientUnits="userSpaceOnUse">
				<stop  offset="0" style="stop-color:#ECF6F9"/>
				<stop  offset="0.1488" style="stop-color:#AEE4F5"/>
				<stop  offset="0.2976" style="stop-color:#77D4F1"/>
				<stop  offset="0.4085" style="stop-color:#54CAEF"/>
				<stop  offset="0.4683" style="stop-color:#47C6EE"/>
				<stop  offset="0.5126" style="stop-color:#47BFEA"/>
				<stop  offset="1" style="stop-color:#4379BC"/>
			</radialGradient>
			<path class="st10" d="M-145.8,445.6c0-1.2-0.2-2.3-0.2-3.1c0-0.8,0-2.6,0-2.6s-1.1,1.3-1.5,1.8c-0.5,0.5-1.4,1.2-2.3,2.1
				c-0.6,0.7-0.9,1.9-0.6,2.8c0.2,0.8,0.6,1.4,1.4,1.8c0.3,0.2,0.7,0.2,1,0.2c0.4,0,0.9-0.1,1.2-0.4
				C-146.2,447.9-145.8,447.3-145.8,445.6z"/>
			
				<radialGradient id="SVGID_11_" cx="-170.9931" cy="348.1639" r="5.5867" fx="-171.0359" fy="348.5489" gradientTransform="matrix(0.8822 0 0 -1 -43.0789 795.6)" gradientUnits="userSpaceOnUse">
				<stop  offset="0" style="stop-color:#ECF6F9"/>
				<stop  offset="0.1488" style="stop-color:#AEE4F5"/>
				<stop  offset="0.2976" style="stop-color:#77D4F1"/>
				<stop  offset="0.4085" style="stop-color:#54CAEF"/>
				<stop  offset="0.4683" style="stop-color:#47C6EE"/>
				<stop  offset="0.5126" style="stop-color:#47BFEA"/>
				<stop  offset="1" style="stop-color:#4379BC"/>
			</radialGradient>
			<path class="st11" d="M-190.9,449.1c0-1.2-0.2-2.3-0.2-3.1c0-0.8,0-2.6,0-2.6s-1.1,1.3-1.6,1.8s-1.4,1.2-2.2,2.1
				c-0.6,0.7-0.9,1.9-0.6,2.8c0.2,0.8,0.6,1.4,1.4,1.8c0.3,0.2,0.7,0.2,1,0.2c0.4,0,0.9-0.1,1.2-0.4
				C-191.3,451.3-190.9,450.7-190.9,449.1z"/>
			
				<radialGradient id="SVGID_12_" cx="-140.8708" cy="341.2312" r="5.5859" fx="-140.9136" fy="341.6162" gradientTransform="matrix(0.8822 0 0 -1 -43.0789 795.6)" gradientUnits="userSpaceOnUse">
				<stop  offset="0" style="stop-color:#ECF6F9"/>
				<stop  offset="0.1488" style="stop-color:#AEE4F5"/>
				<stop  offset="0.2976" style="stop-color:#77D4F1"/>
				<stop  offset="0.4085" style="stop-color:#54CAEF"/>
				<stop  offset="0.4683" style="stop-color:#47C6EE"/>
				<stop  offset="0.5126" style="stop-color:#47BFEA"/>
				<stop  offset="1" style="stop-color:#4379BC"/>
			</radialGradient>
			<path class="st12" d="M-164.3,456c0-1.2-0.2-2.3-0.2-3.1c0-0.8,0-2.6,0-2.6s-1.1,1.3-1.6,1.8s-1.4,1.2-2.2,2.1
				c-0.6,0.7-0.9,1.9-0.6,2.8c0.2,0.8,0.6,1.4,1.4,1.8c0.3,0.2,0.7,0.2,1,0.2c0.4,0,0.9-0.1,1.2-0.4
				C-164.7,458.3-164.3,457.7-164.3,456z"/>
			
				<radialGradient id="SVGID_13_" cx="-78.1477" cy="352.9616" r="5.5859" fx="-78.1904" fy="353.3465" gradientTransform="matrix(0.8822 0 0 -1 -43.0789 795.6)" gradientUnits="userSpaceOnUse">
				<stop  offset="0" style="stop-color:#ECF6F9"/>
				<stop  offset="0.1488" style="stop-color:#AEE4F5"/>
				<stop  offset="0.2976" style="stop-color:#77D4F1"/>
				<stop  offset="0.4085" style="stop-color:#54CAEF"/>
				<stop  offset="0.4683" style="stop-color:#47C6EE"/>
				<stop  offset="0.5126" style="stop-color:#47BFEA"/>
				<stop  offset="1" style="stop-color:#4379BC"/>
			</radialGradient>
			<path class="st13" d="M-109,444.3c0-1.2-0.2-2.3-0.2-3.1c0-0.8,0-2.6,0-2.6s-1.1,1.3-1.6,1.8s-1.4,1.2-2.3,2.1
				c-0.6,0.7-0.9,1.9-0.6,2.8c0.2,0.8,0.6,1.4,1.4,1.8c0.3,0.2,0.7,0.2,1,0.2c0.4,0,0.9-0.1,1.2-0.4
				C-109.4,446.5-109,445.9-109,444.3z"/>
			
				<radialGradient id="SVGID_14_" cx="-69.3609" cy="360.451" r="6.4914" fx="-69.4106" fy="360.8983" gradientTransform="matrix(0.8822 0 0 -1 -43.0789 795.6)" gradientUnits="userSpaceOnUse">
				<stop  offset="0" style="stop-color:#ECF6F9"/>
				<stop  offset="0.1488" style="stop-color:#AEE4F5"/>
				<stop  offset="0.2976" style="stop-color:#77D4F1"/>
				<stop  offset="0.4085" style="stop-color:#54CAEF"/>
				<stop  offset="0.4683" style="stop-color:#47C6EE"/>
				<stop  offset="0.5126" style="stop-color:#47BFEA"/>
				<stop  offset="1" style="stop-color:#4379BC"/>
			</radialGradient>
			<path class="st14" d="M-100.7,437.1c0-1.4-0.2-2.7-0.2-3.6c0-0.9,0.1-3,0.1-3s-1.2,1.5-1.8,2.1c-0.6,0.6-1.7,1.4-2.6,2.5
				c-0.7,0.8-1,2.2-0.7,3.2c0.3,0.9,0.7,1.6,1.6,2.1c0.4,0.2,0.8,0.3,1.1,0.3c0.5,0,1-0.2,1.4-0.5
				C-101.2,439.7-100.7,439-100.7,437.1z"/>
		</g>
		<g>
			<g>
				<path class="st15" d="M-158,419.3c-5.3,0-10.1-2.1-13.1-5.7c-1.7,1.8-4,2.8-6.4,2.8c-0.5,0-1,0-1.5-0.1
					c-2.6-0.5-4.9-2.1-6.2-4.4c-2.2,1.2-4.6,1.8-7.1,1.8c-7.9,0-14.3-6-14.3-13.5c0-6.8,5.2-12.4,12.3-13.3c0.3-4.6,4.2-8.2,8.9-8.2
					c0.8,0,1.5,0.1,2.3,0.3c-0.6-7.4,6.4-14.4,16-16c1.2-0.2,2.5-0.3,3.7-0.3c4.5,0,8.7,1.3,11.8,3.7c0.9-0.2,1.8-0.3,2.8-0.3
					c3.2,0,6.7,1.1,9.8,3c5,3.1,8.3,7.8,8.4,12c0.1,0,0.3,0,0.4,0.1c3.8,0.6,7.3,2.1,9.8,4.2c2.6,2.2,3.8,4.9,3.4,7.6
					c-0.1,0.4-0.2,0.9-0.3,1.3c6.8,1.9,11.1,6.5,10.4,11.2c-0.7,4.6-5.9,7.8-12.8,7.8c-1,0-2.1-0.1-3.2-0.2c-2.3-0.3-4.5-1-6.5-2
					c-1.6,1.6-3.8,2.4-6.1,2.4c-0.5,0-1,0-1.6-0.1c-1.9-0.3-3.6-1.3-4.9-2.7c-2.5,4.4-7.3,7.6-12.9,8.4
					C-155.9,419.2-156.9,419.3-158,419.3L-158,419.3z"/>
				
					<radialGradient id="SVGID_15_" cx="-154.9707" cy="449.7584" r="107.5688" gradientTransform="matrix(1 0 0 -1 0 795.6)" gradientUnits="userSpaceOnUse">
					<stop  offset="0" style="stop-color:#F4F5F9"/>
					<stop  offset="9.296446e-02" style="stop-color:#EFF1F6"/>
					<stop  offset="0.1971" style="stop-color:#E2E7EE"/>
					<stop  offset="0.3066" style="stop-color:#CCD5E0"/>
					<stop  offset="0.4191" style="stop-color:#ACBDCD"/>
					<stop  offset="0.4634" style="stop-color:#9EB2C4"/>
					<stop  offset="0.5471" style="stop-color:#91A4B4"/>
					<stop  offset="0.7112" style="stop-color:#6E7E8A"/>
					<stop  offset="0.9378" style="stop-color:#364246"/>
					<stop  offset="1" style="stop-color:#263032"/>
				</radialGradient>
				<path class="st16" d="M-118.3,394.7c0.3-0.6,0.5-1.2,0.6-1.8c0.7-5-4.9-9.9-12.6-11c-0.3,0-0.6-0.1-1-0.1
					c0.2-4-2.9-8.9-8.1-12.1c-4.3-2.6-8.9-3.5-12.4-2.6c-3.7-3-9.3-4.4-15.2-3.5c-9.6,1.5-16.5,8.7-15.3,16.1c0,0.1,0,0.1,0,0.2
					c-1-0.4-2-0.6-3.1-0.6c-4.6,0-8.3,3.6-8.3,8.1l0,0c-6.9,0.6-12.3,6.1-12.3,12.7c0,7.1,6.1,12.8,13.6,12.8c2.7,0,5.3-0.8,7.4-2
					c1.1,2.4,3.3,4.2,6,4.7c3.1,0.5,6-0.7,7.8-3c3.2,4.4,9.4,6.9,16.1,5.9c6-0.9,10.8-4.5,12.9-9c1.2,1.6,3,2.8,5.2,3.2
					c2.8,0.5,5.6-0.5,7.4-2.5c1.9,1,4.2,1.8,6.7,2.2c7.7,1.1,14.5-2,15.2-7C-106.9,400.8-111.6,396.3-118.3,394.7z"/>
				
					<radialGradient id="SVGID_16_" cx="-140.6519" cy="469.3016" r="120.1129" gradientTransform="matrix(1 0 0 -1 0 795.6)" gradientUnits="userSpaceOnUse">
					<stop  offset="0" style="stop-color:#F4F5F9"/>
					<stop  offset="9.296446e-02" style="stop-color:#EFF1F6"/>
					<stop  offset="0.1971" style="stop-color:#E2E7EE"/>
					<stop  offset="0.3066" style="stop-color:#CCD5E0"/>
					<stop  offset="0.4191" style="stop-color:#ACBDCD"/>
					<stop  offset="0.4634" style="stop-color:#9EB2C4"/>
					<stop  offset="0.5471" style="stop-color:#91A4B4"/>
					<stop  offset="0.7112" style="stop-color:#6E7E8A"/>
					<stop  offset="0.9378" style="stop-color:#364246"/>
					<stop  offset="1" style="stop-color:#263032"/>
				</radialGradient>
				<path class="st17" d="M-179,381c0.1,0.5,0.2,1,0.4,1.5c-0.7-1.1-1.3-2.3-1.5-3.7c-1-6.4,5-12.7,13.4-14c7.7-1.2,11,0.8,14.2,5.1
					c-4.1-2.6-6.5-3.9-13.1-2.9C-174,368.3-180,374.6-179,381z M-139.9,370.8c-5.8-3.6-12.4-3.4-14.7,0.4c-0.5,0.9-0.8,1.9-0.8,2.9
					c0.1-0.6,0.3-1.2,0.6-1.8c2.2-3.6,8.4-3.7,13.9-0.3c5.5,3.4,8.2,9,6,12.5c-0.7,1.2-2,2-3.4,2.4c2.1-0.3,3.8-1.2,4.8-2.8
					C-131.2,380.3-134.1,374.3-139.9,370.8z M-129.5,383.4c-1.4-0.2-2.8-0.2-4.1-0.1c0.4,0,0.9,0.1,1.3,0.2
					c7.4,1.1,12.8,5.8,12.1,10.6c-0.1,0.4-0.2,0.8-0.3,1.2c0.7-0.8,1.1-1.7,1.3-2.7C-118.5,388.4-123.2,384.4-129.5,383.4z
					 M-191.2,410c0.9,0,1.7-0.1,2.5-0.3c-1.3,0.5-2.8,0.8-4.4,0.8c-6.2,0-11.2-4.7-11.2-10.5c0-5.8,5-10.5,11.2-10.5
					c0.6,0,1.3,0.1,1.9,0.2c-5.8,0-10.6,4.5-10.6,10.1C-201.8,405.5-197.1,410-191.2,410z M-178.2,413.2c-3.4-0.6-5.8-4.6-5.8-7.9
					c-0.2,0.4-0.3,0.9-0.4,1.4c-0.7,3.8,1.9,7.4,5.7,8.1s7.5-1.8,8.1-5.6c0.1-0.4,0.1-0.7,0.1-1.1
					C-171.7,411-174.9,413.8-178.2,413.2z M-142.9,403.3c-0.1-0.8-0.4-1.6-0.7-2.4c0,0.2,0.1,0.3,0.1,0.5c1,6.4-4.3,12.5-11.8,13.7
					c-7.5,1.2-14.4-3-15.4-9.4c0-0.2,0-0.4-0.1-0.5c-0.1,0.8-0.1,1.7,0.1,2.6c1,6.4,8,10.6,15.7,9.4
					C-147.3,415.8-141.9,409.7-142.9,403.3z M-136.6,411c-2.2-0.4-4-1.6-5.2-3.2c1,2,3,3.5,5.4,4c3.3,0.6,6.5-1.1,8-4
					C-130.3,410.3-133.3,411.6-136.6,411z M-183.9,381c0.8,0,1.6,0.2,2.4,0.4c-1.2-0.8-2.6-1.3-4.1-1.3c-3.9,0-7,3.1-7,6.9
					c0,0.4,0.1,0.7,0.1,1.1C-191.8,384-188.2,381-183.9,381z M-119.1,395.8c5.4,1.9,8.9,5.3,8.4,8.6c-0.7,4.4-8.2,7-16.7,5.9l0,0
					c1.3,0.4,2.7,0.8,4.2,1c7.3,1,13.8-1.8,14.5-6.1C-108.2,401.1-112.7,397.2-119.1,395.8z M-169.4,405.2c-0.4-2.7,0.4-5.3,2-7.6
					c-2.9,2.5-4.5,6-4,9.6c0.9,6,7.5,9.9,14.7,8.8c2.4-0.4,4.5-1.3,6.3-2.5c-1,0.3-2,0.6-3.1,0.8
					C-161.3,415.5-168.4,411.4-169.4,405.2z"/>
			</g>
			<g>
				<path class="st15" d="M-126.1,419.8c-4,0-7.7-1.6-9.9-4.3c-1.3,1.3-3,2.1-4.8,2.1c-0.4,0-0.8,0-1.2-0.1c-2-0.3-3.7-1.6-4.7-3.3
					c-1.6,0.9-3.5,1.4-5.4,1.4c-6,0-10.8-4.6-10.8-10.2c0-5.1,4-9.3,9.3-10.1c0.2-3.5,3.2-6.2,6.7-6.2c0.6,0,1.2,0.1,1.7,0.2
					c-0.3-5.5,5-10.8,12.2-12c0.9-0.1,1.9-0.2,2.8-0.2c3.4,0,6.6,1,8.9,2.8c0.7-0.1,1.3-0.2,2.1-0.2c2.4,0,5,0.8,7.4,2.3
					c3.8,2.3,6.3,5.9,6.4,9.1c0.1,0,0.2,0,0.3,0c2.9,0.4,5.5,1.6,7.4,3.2c1.9,1.7,2.8,3.7,2.5,5.7c0,0.3-0.1,0.6-0.2,1
					c5.1,1.4,8.4,4.9,7.9,8.5c-0.5,3.5-4.5,5.9-9.7,5.9c-0.8,0-1.6-0.1-2.4-0.2c-1.7-0.3-3.4-0.8-4.9-1.5c-1.2,1.2-2.9,1.8-4.6,1.8
					c-0.4,0-0.8,0-1.2-0.1c-1.4-0.3-2.7-1-3.7-2c-1.9,3.3-5.5,5.7-9.7,6.4C-124.5,419.8-125.3,419.8-126.1,419.8L-126.1,419.8z"/>
				
					<radialGradient id="SVGID_17_" cx="-123.7945" cy="431.2175" r="81.2234" gradientTransform="matrix(1 0 0 -1 0 795.6)" gradientUnits="userSpaceOnUse">
					<stop  offset="0" style="stop-color:#F4F5F9"/>
					<stop  offset="9.296446e-02" style="stop-color:#EFF1F6"/>
					<stop  offset="0.1971" style="stop-color:#E2E7EE"/>
					<stop  offset="0.3066" style="stop-color:#CCD5E0"/>
					<stop  offset="0.4191" style="stop-color:#ACBDCD"/>
					<stop  offset="0.4634" style="stop-color:#9EB2C4"/>
					<stop  offset="0.5471" style="stop-color:#91A4B4"/>
					<stop  offset="0.7112" style="stop-color:#6E7E8A"/>
					<stop  offset="0.9378" style="stop-color:#364246"/>
					<stop  offset="1" style="stop-color:#263032"/>
				</radialGradient>
				<path class="st18" d="M-96.1,401.3c0.2-0.4,0.4-0.9,0.4-1.4c0.5-3.8-3.7-7.5-9.5-8.3c-0.2,0-0.5-0.1-0.7-0.1
					c0.1-3-2.2-6.7-6.1-9.1c-3.2-2-6.7-2.6-9.4-1.9c-2.8-2.2-7-3.3-11.5-2.6c-7.3,1.1-12.5,6.6-11.6,12.1c0,0.1,0,0.1,0,0.2
					c-0.7-0.3-1.5-0.4-2.3-0.4c-3.5,0-6.3,2.7-6.3,6.1l0,0c-5.2,0.5-9.3,4.6-9.3,9.6c0,5.3,4.6,9.7,10.3,9.7c2.1,0,4-0.6,5.6-1.5
					c0.8,1.8,2.5,3.1,4.5,3.5c2.3,0.4,4.6-0.5,5.9-2.3c2.4,3.3,7.1,5.2,12.1,4.4c4.5-0.7,8.1-3.4,9.7-6.8c0.9,1.2,2.3,2.1,3.9,2.4
					c2.1,0.4,4.2-0.4,5.6-1.9c1.5,0.8,3.2,1.4,5.1,1.6c5.8,0.8,10.9-1.5,11.5-5.3C-87.5,405.9-91,402.5-96.1,401.3z"/>
				
					<radialGradient id="SVGID_18_" cx="-112.9827" cy="445.9718" r="90.693" gradientTransform="matrix(1 0 0 -1 0 795.6)" gradientUnits="userSpaceOnUse">
					<stop  offset="0" style="stop-color:#F4F5F9"/>
					<stop  offset="9.296446e-02" style="stop-color:#EFF1F6"/>
					<stop  offset="0.1971" style="stop-color:#E2E7EE"/>
					<stop  offset="0.3066" style="stop-color:#CCD5E0"/>
					<stop  offset="0.4191" style="stop-color:#ACBDCD"/>
					<stop  offset="0.4634" style="stop-color:#9EB2C4"/>
					<stop  offset="0.5471" style="stop-color:#91A4B4"/>
					<stop  offset="0.7112" style="stop-color:#6E7E8A"/>
					<stop  offset="0.9378" style="stop-color:#364246"/>
					<stop  offset="1" style="stop-color:#263032"/>
				</radialGradient>
				<path class="st19" d="M-141.9,391c0.1,0.4,0.2,0.8,0.3,1.1c-0.6-0.8-0.9-1.8-1.1-2.8c-0.8-4.8,3.8-9.6,10.1-10.6
					c5.8-0.9,8.3,0.6,10.7,3.9c-3.1-1.9-4.9-3-9.9-2.2C-138.2,381.4-142.7,386.1-141.9,391z M-112.4,383.2
					c-4.4-2.7-9.4-2.6-11.1,0.3c-0.4,0.7-0.6,1.4-0.6,2.2c0.1-0.5,0.2-0.9,0.5-1.4c1.7-2.7,6.3-2.8,10.5-0.3
					c4.1,2.5,6.2,6.8,4.5,9.5c-0.6,0.9-1.5,1.5-2.6,1.8c1.6-0.2,2.9-0.9,3.6-2.1C-105.9,390.4-108,385.9-112.4,383.2z M-104.6,392.8
					c-1.1-0.2-2.1-0.2-3.1-0.1c0.3,0,0.7,0.1,1,0.1c5.6,0.8,9.7,4.4,9.2,8c0,0.3-0.1,0.6-0.2,0.9c0.5-0.6,0.9-1.3,1-2.1
					C-96.3,396.6-99.8,393.5-104.6,392.8z M-151.2,412.9c0.7,0,1.3-0.1,1.9-0.2c-1,0.4-2.1,0.6-3.3,0.6c-4.7,0-8.4-3.5-8.4-7.9
					s3.8-7.9,8.4-7.9c0.5,0,1,0,1.4,0.1c-4.4,0-8,3.4-8,7.7C-159.2,409.4-155.6,412.9-151.2,412.9z M-141.3,415.3
					c-2.6-0.5-4.4-3.5-4.4-6c-0.1,0.3-0.2,0.7-0.3,1.1c-0.5,2.9,1.4,5.6,4.3,6.1c2.9,0.5,5.6-1.4,6.1-4.3c0-0.3,0.1-0.5,0.1-0.8
					C-136.4,413.6-138.8,415.7-141.3,415.3z M-114.7,407.8c-0.1-0.6-0.3-1.2-0.5-1.8c0,0.1,0.1,0.2,0.1,0.4
					c0.8,4.8-3.2,9.5-8.9,10.3c-5.7,0.9-10.9-2.3-11.6-7.1c0-0.1,0-0.3,0-0.4c-0.1,0.6-0.1,1.3,0,1.9c0.8,4.8,6.1,8,11.9,7.1
					C-118,417.2-113.9,412.6-114.7,407.8z M-109.9,413.6c-1.6-0.3-3-1.2-3.9-2.4c0.8,1.5,2.2,2.7,4,3c2.5,0.5,4.9-0.8,6-3
					C-105.1,413-107.5,414-109.9,413.6z M-145.7,390.9c0.6,0,1.2,0.1,1.8,0.3c-0.9-0.6-1.9-1-3.1-1c-2.9,0-5.3,2.3-5.3,5.2
					c0,0.3,0,0.5,0.1,0.8C-151.6,393.2-148.9,390.9-145.7,390.9z M-96.7,402.1c4.1,1.5,6.7,4,6.3,6.5c-0.5,3.3-6.2,5.3-12.6,4.4l0,0
					c1,0.3,2,0.6,3.1,0.7c5.5,0.7,10.4-1.3,10.9-4.6C-88.5,406.1-91.9,403.2-96.7,402.1z M-134.7,409.2c-0.3-2,0.3-4,1.5-5.7
					c-2.2,1.9-3.4,4.5-3,7.2c0.7,4.5,5.7,7.5,11.1,6.6c1.8-0.3,3.4-0.9,4.7-1.9c-0.7,0.3-1.5,0.5-2.3,0.6
					C-128.6,417-134,413.9-134.7,409.2z"/>
			</g>
			<g>
				<path class="st20" d="M-196.1,428.9c-3.7,0-7.1-1.5-9.2-4c-1.1,1.2-2.7,1.9-4.4,1.9c-0.4,0-0.7,0-1.1-0.1
					c-1.8-0.3-3.4-1.5-4.3-3.1c-1.5,0.8-3.2,1.3-5,1.3c-5.5,0-10-4.2-10-9.4c0-4.7,3.7-8.7,8.6-9.3c0.2-3.2,2.9-5.7,6.2-5.7
					c0.5,0,1.1,0.1,1.6,0.2c-0.4-5.2,4.5-10.1,11.2-11.2c0.9-0.1,1.7-0.2,2.6-0.2c3.2,0,6.1,0.9,8.3,2.6c0.6-0.1,1.3-0.2,1.9-0.2
					c2.2,0,4.7,0.7,6.9,2.1c3.5,2.1,5.8,5.5,5.9,8.4c0.1,0,0.2,0,0.3,0c2.7,0.4,5.1,1.4,6.9,3s2.6,3.4,2.4,5.3
					c0,0.3-0.1,0.6-0.2,0.9c4.7,1.3,7.8,4.5,7.3,7.9c-0.5,3.2-4.1,5.5-9,5.5c-0.7,0-1.5-0.1-2.2-0.2c-1.6-0.2-3.2-0.7-4.5-1.4
					c-1.1,1.1-2.7,1.7-4.3,1.7c-0.4,0-0.7,0-1.1-0.1c-1.3-0.2-2.5-0.9-3.5-1.9c-1.7,3.1-5.1,5.3-9,5.9
					C-194.6,428.9-195.4,428.9-196.1,428.9L-196.1,428.9z"/>
				
					<radialGradient id="SVGID_19_" cx="-193.984" cy="418.1106" r="75.3049" gradientTransform="matrix(1 0 0 -1 0 795.6)" gradientUnits="userSpaceOnUse">
					<stop  offset="0" style="stop-color:#9EB2C4"/>
					<stop  offset="0.156" style="stop-color:#91A4B4"/>
					<stop  offset="0.4618" style="stop-color:#6E7E8A"/>
					<stop  offset="0.8841" style="stop-color:#364246"/>
					<stop  offset="1" style="stop-color:#263032"/>
				</radialGradient>
				<path class="st21" d="M-168.3,411.7c0.2-0.4,0.3-0.8,0.4-1.3c0.5-3.5-3.4-7-8.8-7.7c-0.2,0-0.4-0.1-0.7-0.1
					c0.1-2.8-2-6.2-5.7-8.4c-3-1.8-6.3-2.4-8.7-1.8c-2.6-2.1-6.5-3.1-10.7-2.4c-6.7,1.1-11.5,6.1-10.7,11.2v0.1
					c-0.7-0.3-1.4-0.4-2.2-0.4c-3.2,0-5.8,2.5-5.8,5.7l0,0c-4.8,0.5-8.6,4.3-8.6,8.9c0,4.9,4.3,9,9.5,9c1.9,0,3.7-0.5,5.2-1.4
					c0.8,1.7,2.3,2.9,4.2,3.3c2.2,0.4,4.2-0.5,5.5-2.1c2.2,3.1,6.6,4.8,11.3,4.1c4.2-0.7,7.5-3.1,9-6.3c0.8,1.2,2.1,2,3.6,2.3
					c2,0.4,3.9-0.4,5.2-1.7c1.3,0.7,2.9,1.3,4.7,1.5c5.4,0.8,10.2-1.4,10.7-4.9C-160.3,416-163.6,412.8-168.3,411.7z"/>
				
					<radialGradient id="SVGID_20_" cx="-183.959" cy="431.7905" r="84.0858" gradientTransform="matrix(1 0 0 -1 0 795.6)" gradientUnits="userSpaceOnUse">
					<stop  offset="0" style="stop-color:#9EB2C4"/>
					<stop  offset="0.156" style="stop-color:#91A4B4"/>
					<stop  offset="0.4618" style="stop-color:#6E7E8A"/>
					<stop  offset="0.8841" style="stop-color:#364246"/>
					<stop  offset="1" style="stop-color:#263032"/>
				</radialGradient>
				<path class="st22" d="M-210.8,402.1c0.1,0.4,0.2,0.7,0.3,1c-0.5-0.8-0.9-1.6-1-2.6c-0.7-4.5,3.5-8.9,9.4-9.8
					c5.4-0.9,7.7,0.5,9.9,3.6c-2.9-1.8-4.5-2.8-9.2-2C-207.3,393.2-211.5,397.6-210.8,402.1z M-183.4,394.9
					c-4.1-2.5-8.7-2.4-10.3,0.3c-0.4,0.6-0.6,1.3-0.6,2.1c0.1-0.4,0.2-0.9,0.4-1.3c1.5-2.5,5.9-2.6,9.7-0.2s5.7,6.3,4.2,8.8
					c-0.5,0.8-1.4,1.4-2.4,1.7c1.5-0.2,2.7-0.9,3.4-2C-177.4,401.6-179.4,397.4-183.4,394.9z M-176.2,403.8c-1-0.1-1.9-0.2-2.8-0.1
					c0.3,0,0.6,0.1,0.9,0.1c5.2,0.8,9,4.1,8.5,7.4c0,0.3-0.1,0.5-0.2,0.8c0.5-0.6,0.8-1.2,0.9-1.9
					C-168.5,407.3-171.7,404.5-176.2,403.8z M-219.4,422.4c0.6,0,1.2-0.1,1.7-0.2c-0.9,0.4-2,0.6-3.1,0.6c-4.3,0-7.8-3.3-7.8-7.3
					c0-4.1,3.5-7.3,7.8-7.3c0.4,0,0.9,0,1.3,0.1c-4.1,0-7.4,3.2-7.4,7.1C-226.8,419.3-223.5,422.4-219.4,422.4z M-210.2,424.7
					c-2.4-0.4-4.1-3.2-4-5.6c-0.1,0.3-0.2,0.6-0.3,1c-0.5,2.7,1.3,5.2,4,5.7s5.2-1.3,5.7-3.9c0-0.3,0.1-0.5,0.1-0.8
					C-205.7,423.1-207.9,425.1-210.2,424.7z M-185.6,417.7c-0.1-0.6-0.3-1.2-0.5-1.7c0,0.1,0.1,0.2,0.1,0.3c0.7,4.5-3,8.8-8.3,9.6
					c-5.2,0.9-10-2.1-10.7-6.5c0-0.1,0-0.3,0-0.4c-0.1,0.6-0.1,1.2,0,1.8c0.7,4.5,5.6,7.4,11,6.6
					C-188.6,426.5-184.9,422.2-185.6,417.7z M-181.1,423.1c-1.5-0.3-2.8-1.1-3.6-2.2c0.7,1.4,2.1,2.5,3.8,2.8
					c2.3,0.4,4.6-0.8,5.6-2.8C-176.7,422.6-178.8,423.5-181.1,423.1z M-214.3,402.1c0.6,0,1.1,0.1,1.7,0.3c-0.8-0.6-1.8-0.9-2.9-0.9
					c-2.7,0-4.9,2.1-4.9,4.8c0,0.3,0,0.5,0.1,0.7C-219.7,404.2-217.3,402.1-214.3,402.1z M-168.8,412.5c3.8,1.4,6.2,3.7,5.8,6
					c-0.5,3.1-5.7,4.9-11.7,4.1l0,0c0.9,0.3,1.9,0.5,2.9,0.7c5.1,0.7,9.7-1.2,10.1-4.3C-161.2,416.2-164.4,413.4-168.8,412.5z
					 M-204.1,419c-0.3-1.9,0.3-3.7,1.4-5.3c-2.1,1.7-3.2,4.2-2.8,6.7c0.7,4.2,5.3,6.9,10.3,6.1c1.7-0.3,3.2-0.9,4.4-1.7
					c-0.7,0.2-1.4,0.4-2.2,0.6C-198.4,426.2-203.4,423.4-204.1,419z"/>
			</g>
			<g>
				<polygon class="st23" points="-165.6,439.1 -151.6,421.1 -151.3,421.4 -158.7,435.2 -154.9,434.8 -154.6,435.1 -169.7,455.1 
					-170,454.8 -160.7,438.9 -165.3,439.4 				"/>
				
					<linearGradient id="SVGID_21_" gradientUnits="userSpaceOnUse" x1="-174.9569" y1="350.1226" x2="-146.7045" y2="365.1447" gradientTransform="matrix(1 0 0 -1 0 795.6)">
					<stop  offset="0" style="stop-color:#FADB00"/>
					<stop  offset="4.319258e-02" style="stop-color:#FADE1A"/>
					<stop  offset="0.1615" style="stop-color:#F9E75C"/>
					<stop  offset="0.269" style="stop-color:#F8EE90"/>
					<stop  offset="0.3617" style="stop-color:#F7F3B6"/>
					<stop  offset="0.4361" style="stop-color:#F7F6CD"/>
					<stop  offset="0.4829" style="stop-color:#F7F7D5"/>
					<stop  offset="1" style="stop-color:#F9D605"/>
				</linearGradient>
				<polygon class="st24" points="-151.6,421.1 -159,434.9 -154.9,434.8 -170,454.8 -161,438.6 -165.6,439.1 				"/>
			</g>
		</g>
	</g>
</g>
</svg>
