<?xml version="1.0" encoding="utf-8"?>
<!-- Generator: Adobe Illustrator 19.1.0, SVG Export Plug-In . SVG Version: 6.00 Build 0)  -->
<svg version="1.1" xmlns="http://www.w3.org/2000/svg" xmlns:xlink="http://www.w3.org/1999/xlink" x="0px" y="0px"
	 viewBox="0 0 43.1 40.7" style="enable-background:new 0 0 43.1 40.7;" xml:space="preserve">
<style type="text/css">
	.st0{stroke:#FFFFFF;stroke-width:0.2;}
	.st1{fill:#171717;}
	.st2{stroke:#FFFFFF;}
</style>
<g id="Layer_1">
</g>
<g id="Layer_13">
</g>
<g id="Layer_14">
</g>
<g id="Layer_15">
</g>
<g id="Layer_12">
</g>
<g id="Layer_2">
</g>
<g id="Layer_5">
</g>
<g id="Layer_6">
</g>
<g id="Layer_3">
</g>
<g id="Layer_10">
</g>
<g id="Layer_11">
</g>
<g id="Layer_4">
</g>
<g id="Layer_7">
</g>
<g id="Layer_8">
</g>
<g id="Layer_9">
</g>
<g id="Layer_20">
</g>
<g id="Layer_18">
</g>
<g id="Layer_16">
</g>
<g id="Layer_17">
</g>
<g id="Layer_23">
	<path class="st0" d="M3.6,1.2L2.6,7c0,0,15.2,2.5,18.5,2.5c3.8,0,12.8-1.3,15.1-2C38.4,6.8,39,7,39,7l-1.4-6.2
		c0,0-10.3,2.8-15.6,2.9C19.6,3.8,3.6,1.2,3.6,1.2z"/>
	<path class="st0" d="M22,9.2l0.5,14.5l0.6,16.4l19-0.9c0,0-0.5-19.4-1.2-23.7c-0.7-4.4-2-8.9-2-8.9s-4.2,1.2-5.5,1.5
		C32.1,8.5,22,9.2,22,9.2z"/>
	<path class="st0" d="M2.6,6.7c0,0-1.8,11.1-1.8,20.4c0,9.3,0.1,12.2,0.1,12.2l22.3,0.9L22.5,24L21.7,9.2c0,0-13-1.4-15.8-2.1
		C3,6.4,2.6,6.7,2.6,6.7z"/>
	<path class="st1" d="M3.6,23.7l4.5,0.2c0,0-0.1,0.9-1.8,0.9c-1.7,0-2.9-0.2-2.9-0.2L3.6,23.7z"/>
	<path class="st0" d="M21.7,9.3L26.2,9c0,0,0,11.7-0.1,12.6c-0.1,0.9-1.4,1.6-2.6,2.6c-1,0.9-1,1.2-1,1.2L21.7,9.3z"/>
	<polygon class="st0" points="30,2.6 32,2.3 31.7,11 30.2,11.1 	"/>
	<polygon class="st0" points="12.2,2.6 13.8,3 13.2,11.4 11.1,11.3 	"/>
	<path class="st0" d="M8.9,7.7L10.6,8c0,0-0.3,4.5-2.5,6.2c-2.1,1.7-2.6,1.9-4,2.4c-1.4,0.5-2.8,0.9-2.8,0.9l0.2-2.2
		c0,0,1.4,0.8,3.3-0.2c1.9-1.1,3.3-2.7,3.8-3.8C9,10.3,8.9,7.7,8.9,7.7z"/>
	<path class="st1" d="M40.7,18.8l-6.6-1.7c0,0,4.2,4.1,4.7,4.7c0.5,0.6-2-0.1-2,0.7c0,0.8,0.7,1.9-0.7,0.7c-1.4-1.2-3.2,0-3.1,0.8
		c0.1,0.8,1.9,3.2,2.4,3.5c0.5,0.4-1.9,0.1-2.6,1.2c-0.7,1.1-1.1,1.7,0.6,2.2c1.7,0.6,1.5-0.6,2.1,1.7c0.6,2.2,3.5,2,3.5,2l2.5,0.3
		c0,0-0.3-6.6-0.3-8C41.3,25.2,41.3,25,40.7,18.8z"/>
	<path class="st1" d="M14.1,26.8c0,0,5.4,1.1,6.9,1.8c1.4,0.7,0.7,1.9-1.8,0.8c-2.5-1.1-5.7-1.7-5.7-1.7l-0.5-1.2L14.1,26.8z"/>
	<path class="st1" d="M10.5,30.6c0,0,5.7,2,7.1,2.1c1.4,0.1,4.7,0.1,4.7,0.1s-1.1-0.7-5-1.2C13.4,30.9,10.5,30.6,10.5,30.6z"/>
	<path class="st1" d="M14.6,12l2.2,5.7L17,15l1.7-0.2c0,0-2.5-2-3.2-2.8C14.7,11.1,14.6,12,14.6,12z"/>
	<path class="st1" d="M3.5,19.1c0.5,0,7,0.5,7,0.5s-1.9,1.4-3.8,1.7c-1.9,0.2-3.5-0.7-3.5-0.7L3.5,19.1z"/>
	<circle class="st2" cx="23.5" cy="6.6" r="1"/>
	<path class="st0" d="M33.7,8.2L32,8.5c0,0,0.3,4.5,2.5,6.2c2.1,1.7,2.6,1.9,4,2.4c1.4,0.5,2.5,1,2.5,1l-0.3-2.4c0,0-1,1-2.9,0
		c-1.9-1.1-3.3-2.7-3.7-3.8C33.6,10.8,33.7,8.2,33.7,8.2z"/>
</g>
<g id="Layer_24">
</g>
<g id="Layer_25">
</g>
<g id="Layer_26">
</g>
<g id="Layer_21">
</g>
<g id="Layer_28">
</g>
<g id="Layer_22">
</g>
<g id="Layer_19">
</g>
</svg>
