<?xml version="1.0" encoding="utf-8"?>
<!-- Generator: Adobe Illustrator 19.1.0, SVG Export Plug-In . SVG Version: 6.00 Build 0)  -->
<svg version="1.1" id="Layer_1" xmlns="http://www.w3.org/2000/svg" xmlns:xlink="http://www.w3.org/1999/xlink" x="0px" y="0px"
	 viewBox="-247 339.5 115.5 115.5" style="enable-background:new -247 339.5 115.5 115.5;" xml:space="preserve">
<style type="text/css">
	.st0{fill:#FBB040;}
	.st1{fill:url(#SVGID_1_);}
	.st2{fill:url(#SVGID_2_);}
</style>
<g id="Layer_1_1_">
</g>
<g id="Layer_2">
	<g>
		<g>
			<path class="st0" d="M-144.2,397.3c0,0.5-25.7,0.4-25.7,0.9s25.6,2.4,25.5,2.9c0,0.5-25.6-1.5-25.7-1.1
				c-0.1,0.5,25.3,4.4,25.2,4.9s-25.4-3.6-25.5-3.1s24.9,6.4,24.8,6.9s-25.1-5.6-25.2-5.1s24.3,8.3,24.2,8.8
				c-0.1,0.4-24.5-7.5-24.7-7.1s23.6,10.2,23.4,10.6c-0.2,0.4-23.9-9.4-24.1-9s22.7,12.1,22.5,12.5s-23.1-11.3-23.3-10.9
				s21.7,13.8,21.4,14.2c-0.2,0.5-22.1-13-22.4-12.6c-0.2,0.4,20.5,15.5,20.3,15.8c-0.3,0.4-21-14.8-21.3-14.4s19.2,17,18.9,17.4
				s-19.8-16.4-20.1-16s17.8,18.5,17.5,18.9c-0.3,0.3-18.5-17.8-18.8-17.5s16.4,19.8,16,20.1c-0.4,0.3-17-19.2-17.4-18.9
				c-0.4,0.3,14.8,21,14.4,21.3c-0.4,0.2-15.5-20.6-15.9-20.3c-0.4,0.3,13.1,22.1,12.7,22.4c-0.4,0.2-13.8-21.7-14.2-21.4
				c-0.4,0.2,11.3,23,10.9,23.2c-0.4,0.2-12.1-22.7-12.5-22.5s9.4,23.9,9,24.1s-10.2-23.6-10.7-23.4c-0.4,0.2,7.5,24.6,7.1,24.7
				s-8.3-24.3-8.8-24.2c-0.5,0.1,5.6,25.1,5.1,25.2s-6.4-24.9-6.9-24.8s3.6,25.4,3.1,25.5s-4.4-25.3-4.9-25.2
				c-0.5,0.1,1.6,25.6,1.1,25.7c-0.5,0-2.4-25.6-2.9-25.5c-0.5,0-0.4,25.7-0.9,25.7s-0.4-25.7-0.9-25.7s-2.4,25.6-2.9,25.5
				c-0.5,0,1.5-25.6,1.1-25.7c-0.5-0.1-4.4,25.3-4.9,25.2s3.6-25.4,3.1-25.5s-6.4,24.9-6.9,24.8s5.6-25.1,5.1-25.2
				s-8.3,24.3-8.8,24.2c-0.4-0.1,7.5-24.6,7.1-24.7c-0.4-0.2-10.2,23.6-10.7,23.4c-0.4-0.2,9.4-23.9,9-24.1s-12.1,22.7-12.5,22.5
				s11.3-23,10.9-23.3c-0.4-0.2-13.8,21.7-14.2,21.5c-0.4-0.3,13.1-22.2,12.7-22.4c-0.4-0.3-15.5,20.5-15.9,20.2s14.8-21,14.4-21.3
				c-0.4-0.3-17,19.2-17.4,18.9c-0.4-0.3,16.3-19.8,16-20.1c-0.3-0.3-18.5,17.9-18.8,17.6s17.8-18.5,17.5-18.8s-19.8,16.4-20.1,16
				s19.2-17,18.9-17.4s-21,14.7-21.3,14.3c-0.2-0.3,20.5-15.4,20.3-15.8c-0.3-0.4-22.2,13.1-22.4,12.7s21.6-13.8,21.4-14.3
				c-0.2-0.4-23.1,11.3-23.3,10.9s22.7-12.1,22.5-12.5s-23.9,9.4-24.1,9c-0.2-0.4,23.6-10.2,23.4-10.6c-0.2-0.4-24.6,7.5-24.7,7.1
				c-0.1-0.4,24.3-8.3,24.2-8.8s-25.1,5.6-25.2,5.1c-0.1-0.5,24.9-6.4,24.8-6.9c-0.1-0.5-25.4,3.6-25.5,3.1s25.3-4.4,25.2-4.9
				s-25.7,1.5-25.7,1.1c0-0.5,25.6-2.4,25.5-2.9c0-0.5-25.7-0.4-25.7-0.9s25.7-0.5,25.7-0.9c0-0.5-25.6-2.4-25.5-2.9
				c0-0.5,25.6,1.5,25.7,1.1c0.1-0.5-25.3-4.4-25.2-4.9s25.4,3.6,25.5,3.1s-24.9-6.4-24.8-6.9c0.1-0.5,25.1,5.5,25.2,5.1
				c0.1-0.5-24.3-8.4-24.2-8.8s24.6,7.5,24.7,7.1c0.2-0.4-23.6-10.2-23.4-10.7c0.2-0.4,23.9,9.4,24.1,9c0.2-0.4-22.7-12.1-22.5-12.5
				s23.1,11.3,23.3,10.9s-21.7-13.8-21.4-14.2c0.2-0.4,22.1,13.1,22.4,12.7s-20.5-15.5-20.2-15.9s21,14.8,21.3,14.4
				s-19.2-17-18.9-17.4s19.8,16.3,20.1,16s-17.9-18.5-17.6-18.8c0.3-0.3,18.5,17.8,18.8,17.5s-16.4-19.8-16-20.1
				c0.4-0.3,17,19.2,17.4,18.9c0.4-0.3-14.8-21-14.4-21.3c0.4-0.3,15.5,20.5,15.9,20.2s-13.1-22.1-12.7-22.4
				c0.4-0.2,13.8,21.6,14.2,21.4s-11.3-23.1-10.9-23.3c0.4-0.2,12.1,22.7,12.5,22.5s-9.4-23.9-9-24.1s10.2,23.5,10.7,23.4
				c0.4-0.2-7.5-24.6-7.1-24.7s8.3,24.3,8.8,24.2s-5.6-25.1-5.1-25.2s6.4,24.9,6.9,24.8s-3.6-25.4-3.1-25.5s4.4,25.3,4.9,25.2
				c0.5-0.1-1.6-25.6-1.1-25.7c0.5,0,2.4,25.6,2.9,25.5c0.5,0,0.4-25.6,0.9-25.6s0.5,25.6,0.9,25.7c0.5,0,2.4-25.6,2.9-25.5
				c0.5,0-1.5,25.6-1.1,25.7c0.5,0.1,4.4-25.3,4.9-25.2c0.5-0.1-3.5,25.3-3.1,25.4c0.5,0.1,6.4-24.9,6.9-24.8s-5.5,25.1-5.1,25.2
				c0.5,0.1,8.4-24.3,8.8-24.2c0.4,0.1-7.5,24.6-7.1,24.7c0.4,0.2,10.2-23.6,10.7-23.4c0.4,0.2-9.4,23.9-9,24.1s12.1-22.7,12.5-22.5
				s-11.3,23.1-10.9,23.3s13.8-21.7,14.2-21.4c0.4,0.2-13.1,22.1-12.7,22.4s15.5-20.5,15.9-20.2s-14.8,21-14.4,21.3
				c0.4,0.3,17-19.2,17.4-18.9c0.4,0.3-16.3,19.8-16,20.1c0.3,0.3,18.5-17.9,18.8-17.5c0.3,0.3-17.8,18.5-17.5,18.8
				s19.8-16.4,20.1-16s-19.2,17-18.9,17.4s21-14.8,21.3-14.4s-20.5,15.5-20.2,15.9s22.1-13.1,22.4-12.7c0.2,0.4-21.7,13.8-21.4,14.2
				c0.2,0.4,23.1-11.3,23.3-10.9s-22.7,12.1-22.5,12.5s23.9-9.4,24.1-9c0.2,0.4-23.5,10.2-23.4,10.7c0.2,0.4,24.6-7.5,24.7-7.1
				c0.1,0.4-24.3,8.3-24.2,8.8s25.1-5.6,25.2-5.1s-24.9,6.4-24.8,6.9s25.4-3.6,25.5-3.1s-25.3,4.4-25.2,4.9s25.6-1.6,25.7-1.1
				c0,0.5-25.6,2.4-25.5,2.9C-169.9,396.8-144.2,396.8-144.2,397.3z"/>
		</g>
		
			<linearGradient id="SVGID_1_" gradientUnits="userSpaceOnUse" x1="-193" y1="371.5001" x2="-193" y2="437.9006" gradientTransform="matrix(1 0 0 -1 0 802)">
			<stop  offset="0" style="stop-color:#FBB840"/>
			<stop  offset="0.3655" style="stop-color:#FDD223"/>
			<stop  offset="0.7614" style="stop-color:#FEE909"/>
			<stop  offset="1" style="stop-color:#FFF200"/>
		</linearGradient>
		<path class="st1" d="M-159.8,397.3c0,18.3-14.9,33.2-33.2,33.2s-33.2-14.9-33.2-33.2c0-18.3,14.9-33.2,33.2-33.2
			C-174.7,364-159.8,378.9-159.8,397.3z"/>
		
			<radialGradient id="SVGID_2_" cx="-190.7969" cy="403.8488" r="43.2233" gradientTransform="matrix(1 0 0 -1 0 802)" gradientUnits="userSpaceOnUse">
			<stop  offset="0" style="stop-color:#FFF200"/>
			<stop  offset="0.4436" style="stop-color:#FFF002"/>
			<stop  offset="0.6034" style="stop-color:#FEEA09"/>
			<stop  offset="0.7173" style="stop-color:#FEDF14"/>
			<stop  offset="0.8094" style="stop-color:#FDD025"/>
			<stop  offset="0.8874" style="stop-color:#FBBC3B"/>
			<stop  offset="0.9018" style="stop-color:#FBB840"/>
		</radialGradient>
		<path class="st2" d="M-159.8,397.3c0,18.3-14.9,33.2-33.2,33.2s-33.2-14.9-33.2-33.2c0-18.3,14.9-33.2,33.2-33.2
			C-174.7,364-159.8,378.9-159.8,397.3z"/>
	</g>
</g>
</svg>
