<?xml version="1.0" encoding="utf-8"?>
<!-- Generator: Adobe Illustrator 19.1.0, SVG Export Plug-In . SVG Version: 6.00 Build 0)  -->
<svg version="1.1" xmlns="http://www.w3.org/2000/svg" xmlns:xlink="http://www.w3.org/1999/xlink" x="0px" y="0px"
	 viewBox="0 0 121.7 106.6" style="enable-background:new 0 0 121.7 106.6;" xml:space="preserve">
<style type="text/css">
	.st0{fill:url(#SVGID_1_);}
	.st1{fill:url(#SVGID_2_);}
	.st2{fill:url(#SVGID_3_);}
	.st3{fill:url(#SVGID_4_);}
	.st4{fill:url(#SVGID_5_);}
	.st5{fill:url(#SVGID_6_);}
	.st6{fill:url(#SVGID_7_);}
	.st7{fill:url(#SVGID_8_);}
	.st8{fill:url(#SVGID_9_);}
	.st9{fill:url(#SVGID_10_);}
	.st10{fill:url(#SVGID_11_);}
	.st11{fill:url(#SVGID_12_);}
	.st12{fill:#94A7AF;}
	.st13{fill:url(#SVGID_13_);}
	.st14{fill:url(#SVGID_14_);}
	.st15{fill:url(#SVGID_15_);}
	.st16{fill:url(#SVGID_16_);}
	.st17{fill:#263032;}
	.st18{fill:url(#SVGID_17_);}
	.st19{fill:url(#SVGID_18_);}
	.st20{fill:#F6921E;}
	.st21{fill:url(#SVGID_19_);}
</style>
<g id="Layer_1">
</g>
<g id="Layer_2">
	<g>
		<g>
			<radialGradient id="SVGID_1_" cx="31.8947" cy="79.0744" r="10.1503" fx="31.817" fy="79.7739" gradientUnits="userSpaceOnUse">
				<stop  offset="0" style="stop-color:#ECF6F9"/>
				<stop  offset="0.1488" style="stop-color:#AEE4F5"/>
				<stop  offset="0.2976" style="stop-color:#77D4F1"/>
				<stop  offset="0.4085" style="stop-color:#54CAEF"/>
				<stop  offset="0.4683" style="stop-color:#47C6EE"/>
				<stop  offset="0.5126" style="stop-color:#47BFEA"/>
				<stop  offset="1" style="stop-color:#4379BC"/>
			</radialGradient>
			<path class="st0" d="M38.1,82.1c0-2.2-0.4-4.2-0.4-5.6c0-1.4,0.1-4.7,0.1-4.7s-2.2,2.3-3.2,3.3c-1,1-3,2.2-4.6,3.9
				c-1.2,1.2-1.8,3.4-1.2,5.1c0.5,1.5,1.3,2.6,2.9,3.3c0.7,0.3,1.4,0.4,2,0.4c0.9,0,1.8-0.2,2.5-0.7C37.4,86.1,38.2,85,38.1,82.1z"
				/>
			<radialGradient id="SVGID_2_" cx="15.168" cy="75.0107" r="8.1264" fx="15.1058" fy="75.5707" gradientUnits="userSpaceOnUse">
				<stop  offset="0" style="stop-color:#ECF6F9"/>
				<stop  offset="0.1488" style="stop-color:#AEE4F5"/>
				<stop  offset="0.2976" style="stop-color:#77D4F1"/>
				<stop  offset="0.4085" style="stop-color:#54CAEF"/>
				<stop  offset="0.4683" style="stop-color:#47C6EE"/>
				<stop  offset="0.5126" style="stop-color:#47BFEA"/>
				<stop  offset="1" style="stop-color:#4379BC"/>
			</radialGradient>
			<path class="st1" d="M20.2,77.4c0-1.8-0.3-3.4-0.3-4.5c0-1.1,0.1-3.8,0.1-3.8s-1.7,1.9-2.6,2.6c-0.8,0.8-2.4,1.8-3.7,3.1
				c-1,1-1.4,2.7-1,4c0.4,1.2,1,2.1,2.3,2.6c0.5,0.2,1.1,0.3,1.6,0.3c0.7,0,1.4-0.2,2-0.6C19.5,80.7,20.2,79.8,20.2,77.4z"/>
			
				<radialGradient id="SVGID_3_" cx="23.3207" cy="83.6506" r="10.1498" fx="23.243" fy="84.3501" gradientTransform="matrix(0.8821 -1.220000e-02 1.380000e-02 0.9999 26.8576 2.4214)" gradientUnits="userSpaceOnUse">
				<stop  offset="0" style="stop-color:#ECF6F9"/>
				<stop  offset="0.1488" style="stop-color:#AEE4F5"/>
				<stop  offset="0.2976" style="stop-color:#77D4F1"/>
				<stop  offset="0.4085" style="stop-color:#54CAEF"/>
				<stop  offset="0.4683" style="stop-color:#47C6EE"/>
				<stop  offset="0.5126" style="stop-color:#47BFEA"/>
				<stop  offset="1" style="stop-color:#4379BC"/>
			</radialGradient>
			<path class="st2" d="M54.1,88.7c0-2.2-0.4-4.2-0.4-5.6c0-1.4,0-4.7,0-4.7s-1.9,2.3-2.8,3.3c-0.9,1-2.6,2.3-4,4
				c-1.1,1.2-1.5,3.5-1,5.1c0.4,1.4,1.2,2.6,2.6,3.2c0.6,0.3,1.2,0.4,1.8,0.4c0.8,0,1.6-0.3,2.2-0.8C53.5,92.8,54.2,91.7,54.1,88.7z
				"/>
			
				<radialGradient id="SVGID_4_" cx="55.1655" cy="73.9711" r="8.125" fx="55.1033" fy="74.531" gradientTransform="matrix(0.8822 0 0 1 27.1621 0)" gradientUnits="userSpaceOnUse">
				<stop  offset="0" style="stop-color:#ECF6F9"/>
				<stop  offset="0.1488" style="stop-color:#AEE4F5"/>
				<stop  offset="0.2976" style="stop-color:#77D4F1"/>
				<stop  offset="0.4085" style="stop-color:#54CAEF"/>
				<stop  offset="0.4683" style="stop-color:#47C6EE"/>
				<stop  offset="0.5126" style="stop-color:#47BFEA"/>
				<stop  offset="1" style="stop-color:#4379BC"/>
			</radialGradient>
			<path class="st3" d="M80.2,76.4c0-1.8-0.3-3.4-0.3-4.5c0-1.1,0.1-3.8,0.1-3.8s-1.5,1.9-2.3,2.6c-0.7,0.8-2.1,1.8-3.3,3.1
				c-0.9,1-1.2,2.7-0.9,4.1c0.3,1.2,0.9,2.1,2,2.6c0.5,0.2,1,0.3,1.4,0.3c0.6,0,1.3-0.2,1.7-0.6C79.7,79.6,80.2,78.7,80.2,76.4z"/>
			
				<radialGradient id="SVGID_5_" cx="84.2987" cy="65.766" r="8.1252" fx="84.2365" fy="66.3259" gradientTransform="matrix(0.8822 0 0 1 27.1621 0)" gradientUnits="userSpaceOnUse">
				<stop  offset="0" style="stop-color:#ECF6F9"/>
				<stop  offset="0.1488" style="stop-color:#AEE4F5"/>
				<stop  offset="0.2976" style="stop-color:#77D4F1"/>
				<stop  offset="0.4085" style="stop-color:#54CAEF"/>
				<stop  offset="0.4683" style="stop-color:#47C6EE"/>
				<stop  offset="0.5126" style="stop-color:#47BFEA"/>
				<stop  offset="1" style="stop-color:#4379BC"/>
			</radialGradient>
			<path class="st4" d="M105.9,68.2c0-1.8-0.3-3.4-0.3-4.5c0-1.1,0.1-3.8,0.1-3.8s-1.5,1.9-2.3,2.6c-0.7,0.8-2.1,1.8-3.3,3.1
				c-0.9,1-1.2,2.7-0.9,4.1c0.3,1.2,0.9,2.1,2,2.6c0.5,0.2,1,0.3,1.4,0.3c0.6,0,1.3-0.2,1.7-0.6C105.4,71.4,105.9,70.5,105.9,68.2z"
				/>
			
				<radialGradient id="SVGID_6_" cx="65.9631" cy="85.4074" r="8.1252" fx="65.9009" fy="85.9673" gradientTransform="matrix(0.8822 0 0 1 27.1621 0)" gradientUnits="userSpaceOnUse">
				<stop  offset="0" style="stop-color:#ECF6F9"/>
				<stop  offset="0.1488" style="stop-color:#AEE4F5"/>
				<stop  offset="0.2976" style="stop-color:#77D4F1"/>
				<stop  offset="0.4085" style="stop-color:#54CAEF"/>
				<stop  offset="0.4683" style="stop-color:#47C6EE"/>
				<stop  offset="0.5126" style="stop-color:#47BFEA"/>
				<stop  offset="1" style="stop-color:#4379BC"/>
			</radialGradient>
			<path class="st5" d="M89.8,87.8c0-1.8-0.3-3.4-0.3-4.5c0-1.1,0.1-3.8,0.1-3.8s-1.5,1.9-2.3,2.6C86.6,83,85.2,84,84,85.3
				c-0.9,1-1.2,2.7-0.9,4.1c0.3,1.2,0.9,2.1,2,2.6c0.5,0.2,1,0.3,1.4,0.3c0.6,0,1.3-0.2,1.7-0.6C89.2,91.1,89.8,90.2,89.8,87.8z"/>
			
				<radialGradient id="SVGID_7_" cx="37.7826" cy="73.8615" r="5.586" fx="37.7398" fy="74.2464" gradientTransform="matrix(0.8822 0 0 1 27.1621 0)" gradientUnits="userSpaceOnUse">
				<stop  offset="0" style="stop-color:#ECF6F9"/>
				<stop  offset="0.1488" style="stop-color:#AEE4F5"/>
				<stop  offset="0.2976" style="stop-color:#77D4F1"/>
				<stop  offset="0.4085" style="stop-color:#54CAEF"/>
				<stop  offset="0.4683" style="stop-color:#47C6EE"/>
				<stop  offset="0.5126" style="stop-color:#47BFEA"/>
				<stop  offset="1" style="stop-color:#4379BC"/>
			</radialGradient>
			<path class="st6" d="M63.5,75.5c0-1.2-0.2-2.3-0.2-3.1c0-0.8,0-2.6,0-2.6s-1.1,1.3-1.6,1.8c-0.5,0.5-1.4,1.2-2.2,2.1
				c-0.6,0.7-0.8,1.9-0.6,2.8c0.2,0.8,0.6,1.4,1.4,1.8c0.3,0.2,0.7,0.2,1,0.2c0.4,0,0.9-0.1,1.2-0.4C63.1,77.7,63.5,77.1,63.5,75.5z
				"/>
			
				<radialGradient id="SVGID_8_" cx="42.4138" cy="90.4076" r="5.5856" fx="42.371" fy="90.7926" gradientTransform="matrix(0.8822 0 0 1 27.1621 0)" gradientUnits="userSpaceOnUse">
				<stop  offset="0" style="stop-color:#ECF6F9"/>
				<stop  offset="0.1488" style="stop-color:#AEE4F5"/>
				<stop  offset="0.2976" style="stop-color:#77D4F1"/>
				<stop  offset="0.4085" style="stop-color:#54CAEF"/>
				<stop  offset="0.4683" style="stop-color:#47C6EE"/>
				<stop  offset="0.5126" style="stop-color:#47BFEA"/>
				<stop  offset="1" style="stop-color:#4379BC"/>
			</radialGradient>
			<path class="st7" d="M67.6,92.1c0-1.2-0.2-2.3-0.2-3.1c0-0.8,0-2.6,0-2.6s-1.1,1.3-1.6,1.8c-0.5,0.5-1.4,1.2-2.2,2.1
				c-0.6,0.7-0.8,1.9-0.6,2.8c0.2,0.8,0.6,1.4,1.4,1.8c0.3,0.2,0.7,0.2,1,0.2c0.4,0,0.9-0.1,1.2-0.4C67.2,94.3,67.6,93.7,67.6,92.1z
				"/>
			
				<radialGradient id="SVGID_9_" cx="-8.6633" cy="93.8739" r="5.5858" fx="-8.7061" fy="94.2588" gradientTransform="matrix(0.8822 0 0 1 27.1621 0)" gradientUnits="userSpaceOnUse">
				<stop  offset="0" style="stop-color:#ECF6F9"/>
				<stop  offset="0.1488" style="stop-color:#AEE4F5"/>
				<stop  offset="0.2976" style="stop-color:#77D4F1"/>
				<stop  offset="0.4085" style="stop-color:#54CAEF"/>
				<stop  offset="0.4683" style="stop-color:#47C6EE"/>
				<stop  offset="0.5126" style="stop-color:#47BFEA"/>
				<stop  offset="1" style="stop-color:#4379BC"/>
			</radialGradient>
			<path class="st8" d="M22.6,95.5c0-1.2-0.2-2.3-0.2-3.1c0-0.8,0-2.6,0-2.6s-1.1,1.3-1.6,1.8c-0.5,0.5-1.4,1.2-2.2,2.1
				c-0.6,0.7-0.8,1.9-0.6,2.8c0.2,0.8,0.6,1.4,1.4,1.8c0.3,0.2,0.7,0.2,1,0.2c0.4,0,0.9-0.1,1.2-0.4C22.2,97.8,22.6,97.2,22.6,95.5z
				"/>
			
				<radialGradient id="SVGID_10_" cx="21.459" cy="100.8061" r="5.5858" fx="21.4162" fy="101.191" gradientTransform="matrix(0.8822 0 0 1 27.1621 0)" gradientUnits="userSpaceOnUse">
				<stop  offset="0" style="stop-color:#ECF6F9"/>
				<stop  offset="0.1488" style="stop-color:#AEE4F5"/>
				<stop  offset="0.2976" style="stop-color:#77D4F1"/>
				<stop  offset="0.4085" style="stop-color:#54CAEF"/>
				<stop  offset="0.4683" style="stop-color:#47C6EE"/>
				<stop  offset="0.5126" style="stop-color:#47BFEA"/>
				<stop  offset="1" style="stop-color:#4379BC"/>
			</radialGradient>
			<path class="st9" d="M49.1,102.5c0-1.2-0.2-2.3-0.2-3.1c0-0.8,0-2.6,0-2.6s-1.1,1.3-1.6,1.8c-0.5,0.5-1.4,1.2-2.2,2.1
				c-0.6,0.7-0.8,1.9-0.6,2.8c0.2,0.8,0.6,1.4,1.4,1.8c0.3,0.2,0.7,0.2,1,0.2c0.4,0,0.9-0.1,1.2-0.4
				C48.7,104.7,49.1,104.1,49.1,102.5z"/>
			
				<radialGradient id="SVGID_11_" cx="84.1823" cy="89.078" r="5.5864" fx="84.1395" fy="89.463" gradientTransform="matrix(0.8822 0 0 1 27.1621 0)" gradientUnits="userSpaceOnUse">
				<stop  offset="0" style="stop-color:#ECF6F9"/>
				<stop  offset="0.1488" style="stop-color:#AEE4F5"/>
				<stop  offset="0.2976" style="stop-color:#77D4F1"/>
				<stop  offset="0.4085" style="stop-color:#54CAEF"/>
				<stop  offset="0.4683" style="stop-color:#47C6EE"/>
				<stop  offset="0.5126" style="stop-color:#47BFEA"/>
				<stop  offset="1" style="stop-color:#4379BC"/>
			</radialGradient>
			<path class="st10" d="M104.5,90.7c0-1.2-0.2-2.3-0.2-3.1c0-0.8,0.1-2.6,0.1-2.6s-1.1,1.3-1.6,1.8c-0.5,0.5-1.4,1.2-2.2,2.1
				c-0.6,0.7-0.9,1.9-0.6,2.8c0.2,0.8,0.6,1.4,1.4,1.8c0.3,0.2,0.7,0.2,1,0.2c0.4,0,0.9-0.1,1.2-0.4C104.1,93,104.5,92.4,104.5,90.7
				z"/>
			
				<radialGradient id="SVGID_12_" cx="92.969" cy="81.5873" r="6.4911" fx="92.9193" fy="82.0346" gradientTransform="matrix(0.8822 0 0 1 27.1621 0)" gradientUnits="userSpaceOnUse">
				<stop  offset="0" style="stop-color:#ECF6F9"/>
				<stop  offset="0.1488" style="stop-color:#AEE4F5"/>
				<stop  offset="0.2976" style="stop-color:#77D4F1"/>
				<stop  offset="0.4085" style="stop-color:#54CAEF"/>
				<stop  offset="0.4683" style="stop-color:#47C6EE"/>
				<stop  offset="0.5126" style="stop-color:#47BFEA"/>
				<stop  offset="1" style="stop-color:#4379BC"/>
			</radialGradient>
			<path class="st11" d="M112.7,83.5c0-1.4-0.2-2.7-0.2-3.6c0-0.9,0.1-3,0.1-3s-1.2,1.5-1.8,2.1c-0.6,0.6-1.7,1.4-2.6,2.5
				c-0.7,0.8-1,2.2-0.7,3.2c0.3,0.9,0.7,1.6,1.6,2.1c0.4,0.2,0.8,0.3,1.1,0.3c0.5,0,1-0.2,1.4-0.5C112.3,86.1,112.7,85.4,112.7,83.5
				z"/>
		</g>
		<g>
			<g>
				<path class="st12" d="M49.9,58.6c-5.3,0-10.1-2.1-13.1-5.7c-1.7,1.8-4,2.8-6.4,2.8c-0.5,0-1,0-1.5-0.1c-2.6-0.5-4.9-2.1-6.2-4.4
					c-2.2,1.2-4.6,1.8-7.1,1.8c-7.9,0-14.3-6-14.3-13.5c0-6.8,5.2-12.4,12.3-13.3c0.3-4.6,4.2-8.2,8.9-8.2c0.8,0,1.5,0.1,2.3,0.3
					c-0.6-7.4,6.4-14.4,16-16C42,2.1,43.3,2,44.5,2c4.5,0,8.7,1.3,11.8,3.7c0.9-0.2,1.8-0.3,2.8-0.3c3.2,0,6.7,1.1,9.8,3
					c5,3.1,8.3,7.8,8.4,12c0.1,0,0.3,0,0.4,0.1c3.8,0.6,7.3,2.1,9.8,4.2c2.6,2.2,3.8,4.9,3.4,7.6c-0.1,0.4-0.2,0.9-0.3,1.3
					c6.8,1.9,11.1,6.5,10.4,11.2c-0.7,4.6-5.9,7.8-12.8,7.8c-1,0-2.1-0.1-3.2-0.2c-2.3-0.3-4.5-1-6.5-2c-1.6,1.6-3.8,2.4-6.1,2.4
					c-0.5,0-1,0-1.6-0.1c-1.9-0.3-3.6-1.3-4.9-2.7c-2.5,4.4-7.3,7.6-12.9,8.4C52,58.5,51,58.6,49.9,58.6L49.9,58.6z"/>
				<radialGradient id="SVGID_13_" cx="52.9405" cy="-14.8564" r="107.569" gradientUnits="userSpaceOnUse">
					<stop  offset="0" style="stop-color:#F4F5F9"/>
					<stop  offset="9.296446e-02" style="stop-color:#EFF1F6"/>
					<stop  offset="0.1971" style="stop-color:#E2E7EE"/>
					<stop  offset="0.3066" style="stop-color:#CCD5E0"/>
					<stop  offset="0.4191" style="stop-color:#ACBDCD"/>
					<stop  offset="0.4634" style="stop-color:#9EB2C4"/>
					<stop  offset="0.5471" style="stop-color:#91A4B4"/>
					<stop  offset="0.7112" style="stop-color:#6E7E8A"/>
					<stop  offset="0.9378" style="stop-color:#364246"/>
					<stop  offset="1" style="stop-color:#263032"/>
				</radialGradient>
				<path class="st13" d="M89.6,34c0.3-0.6,0.5-1.2,0.6-1.8c0.7-5-4.9-9.9-12.6-11c-0.3,0-0.6-0.1-1-0.1c0.2-4-2.9-8.9-8.1-12.1
					c-4.3-2.6-8.9-3.5-12.4-2.6c-3.7-3-9.3-4.4-15.2-3.5C31.3,4.4,24.4,11.6,25.6,19c0,0.1,0,0.1,0,0.2c-1-0.4-2-0.6-3.1-0.6
					c-4.6,0-8.3,3.6-8.3,8.1c0,0,0,0,0,0C7.4,27.4,2,32.8,2,39.5c0,7.1,6.1,12.8,13.6,12.8c2.7,0,5.3-0.8,7.4-2
					c1.1,2.4,3.3,4.2,6,4.7c3.1,0.5,6-0.7,7.8-3c3.2,4.4,9.4,6.9,16.1,5.9c6-0.9,10.8-4.5,12.9-9c1.2,1.6,3,2.9,5.2,3.2
					c2.8,0.5,5.6-0.5,7.4-2.5c1.9,1,4.2,1.8,6.7,2.2c7.7,1.1,14.5-2,15.2-7C101,40.1,96.3,35.6,89.6,34z"/>
				<radialGradient id="SVGID_14_" cx="67.2591" cy="-34.396" r="120.1081" gradientUnits="userSpaceOnUse">
					<stop  offset="0" style="stop-color:#F4F5F9"/>
					<stop  offset="9.296446e-02" style="stop-color:#EFF1F6"/>
					<stop  offset="0.1971" style="stop-color:#E2E7EE"/>
					<stop  offset="0.3066" style="stop-color:#CCD5E0"/>
					<stop  offset="0.4191" style="stop-color:#ACBDCD"/>
					<stop  offset="0.4634" style="stop-color:#9EB2C4"/>
					<stop  offset="0.5471" style="stop-color:#91A4B4"/>
					<stop  offset="0.7112" style="stop-color:#6E7E8A"/>
					<stop  offset="0.9378" style="stop-color:#364246"/>
					<stop  offset="1" style="stop-color:#263032"/>
				</radialGradient>
				<path class="st14" d="M28.9,20.3c0.1,0.5,0.2,1,0.4,1.5c-0.7-1.1-1.3-2.4-1.5-3.7c-1-6.4,5-12.7,13.4-14
					c7.7-1.2,11,0.8,14.2,5.1C51.3,6.6,49,5.3,42.3,6.3C33.9,7.6,27.9,13.9,28.9,20.3z M68,10.1c-5.8-3.6-12.4-3.4-14.7,0.4
					c-0.5,0.9-0.8,1.9-0.8,2.9c0.1-0.6,0.3-1.2,0.6-1.8C55.3,8,61.5,7.8,67,11.2c5.5,3.4,8.2,9,6,12.5c-0.7,1.2-2,2-3.4,2.4
					c2.1-0.3,3.8-1.2,4.8-2.8C76.7,19.6,73.8,13.6,68,10.1z M78.4,22.8c-1.4-0.2-2.8-0.2-4.1-0.1c0.4,0,0.9,0.1,1.3,0.2
					c7.4,1.1,12.8,5.8,12.1,10.6c-0.1,0.4-0.2,0.8-0.3,1.2c0.7-0.8,1.1-1.7,1.3-2.7C89.4,27.7,84.7,23.7,78.4,22.8z M16.7,49.3
					c0.9,0,1.7-0.1,2.5-0.3c-1.3,0.5-2.8,0.8-4.4,0.8c-6.2,0-11.2-4.7-11.2-10.5c0-5.8,5-10.5,11.2-10.5c0.6,0,1.3,0.1,1.9,0.2
					c-5.8,0-10.6,4.5-10.6,10.1C6.1,44.8,10.8,49.3,16.7,49.3z M29.7,52.5c-3.4-0.6-5.8-4.6-5.8-7.9c-0.2,0.4-0.3,0.9-0.4,1.4
					c-0.7,3.8,1.9,7.4,5.7,8.1c3.8,0.7,7.5-1.8,8.1-5.6c0.1-0.4,0.1-0.7,0.1-1.1C36.2,50.3,33,53.1,29.7,52.5z M65,42.6
					c-0.1-0.8-0.4-1.6-0.7-2.4c0,0.2,0.1,0.3,0.1,0.5c1,6.4-4.3,12.5-11.8,13.7c-7.5,1.2-14.4-3-15.4-9.4c0-0.2,0-0.4-0.1-0.5
					C37,45.3,37,46.1,37.2,47c1,6.4,8,10.6,15.7,9.4C60.6,55.1,66,49,65,42.6z M71.4,50.3c-2.2-0.4-4-1.6-5.2-3.2c1,2,3,3.5,5.4,4
					c3.3,0.6,6.5-1.1,8-4C77.7,49.6,74.6,50.9,71.4,50.3z M24,20.3c0.8,0,1.6,0.2,2.4,0.4c-1.2-0.8-2.6-1.3-4.1-1.3
					c-3.9,0-7,3.1-7,6.9c0,0.4,0.1,0.7,0.1,1.1C16.1,23.3,19.7,20.3,24,20.3z M88.8,35.1c5.4,1.9,8.9,5.3,8.4,8.6
					c-0.7,4.4-8.2,7-16.7,5.9c0,0,0,0,0,0c1.3,0.4,2.7,0.8,4.2,1c7.3,1,13.8-1.8,14.5-6.1C99.7,40.4,95.2,36.5,88.8,35.1z
					 M38.5,44.5c-0.4-2.7,0.4-5.3,2-7.6c-2.9,2.5-4.5,6-4,9.6c0.9,6,7.5,9.9,14.7,8.8c2.4-0.4,4.5-1.3,6.3-2.5c-1,0.3-2,0.6-3.1,0.8
					C46.6,54.8,39.5,50.7,38.5,44.5z"/>
			</g>
			<g>
				<path class="st12" d="M81.8,59.2c-4,0-7.7-1.6-9.9-4.3c-1.3,1.3-3,2.1-4.8,2.1c-0.4,0-0.8,0-1.2-0.1c-2-0.4-3.7-1.6-4.7-3.3
					c-1.6,0.9-3.5,1.4-5.4,1.4c-6,0-10.8-4.6-10.8-10.2c0-5.1,4-9.3,9.3-10c0.2-3.5,3.2-6.2,6.7-6.2c0.6,0,1.2,0.1,1.7,0.2
					c-0.4-5.6,4.8-10.9,12.1-12.1c0.9-0.1,1.9-0.2,2.8-0.2c3.4,0,6.6,1,8.9,2.8c0.7-0.1,1.3-0.2,2.1-0.2c2.4,0,5,0.8,7.4,2.3
					c3.8,2.3,6.3,5.9,6.4,9.1c0.1,0,0.2,0,0.3,0c2.9,0.4,5.5,1.6,7.4,3.2c1.9,1.7,2.8,3.7,2.5,5.7c0,0.3-0.1,0.6-0.2,1
					c5.1,1.4,8.4,4.9,7.9,8.5c-0.5,3.5-4.5,5.9-9.7,5.9c-0.8,0-1.6-0.1-2.4-0.2c-1.7-0.3-3.4-0.8-4.9-1.5c-1.2,1.2-2.9,1.8-4.6,1.8
					c-0.4,0-0.8,0-1.2-0.1c-1.4-0.3-2.7-1-3.7-2c-1.9,3.3-5.5,5.7-9.7,6.4C83.4,59.1,82.6,59.2,81.8,59.2L81.8,59.2z"/>
				<radialGradient id="SVGID_15_" cx="84.1172" cy="3.6854" r="81.2232" gradientUnits="userSpaceOnUse">
					<stop  offset="0" style="stop-color:#F4F5F9"/>
					<stop  offset="9.296446e-02" style="stop-color:#EFF1F6"/>
					<stop  offset="0.1971" style="stop-color:#E2E7EE"/>
					<stop  offset="0.3066" style="stop-color:#CCD5E0"/>
					<stop  offset="0.4191" style="stop-color:#ACBDCD"/>
					<stop  offset="0.4634" style="stop-color:#9EB2C4"/>
					<stop  offset="0.5471" style="stop-color:#91A4B4"/>
					<stop  offset="0.7112" style="stop-color:#6E7E8A"/>
					<stop  offset="0.9378" style="stop-color:#364246"/>
					<stop  offset="1" style="stop-color:#263032"/>
				</radialGradient>
				<path class="st15" d="M111.8,40.6c0.2-0.4,0.4-0.9,0.4-1.4c0.5-3.8-3.7-7.5-9.5-8.3c-0.2,0-0.5-0.1-0.7-0.1
					c0.1-3-2.2-6.7-6.1-9.1c-3.2-2-6.7-2.6-9.4-1.9c-2.8-2.2-7-3.3-11.5-2.6c-7.3,1.1-12.5,6.6-11.6,12.1c0,0.1,0,0.1,0,0.2
					C62.8,29.1,62,29,61.2,29c-3.5,0-6.3,2.7-6.3,6.1c0,0,0,0,0,0c-5.2,0.5-9.3,4.6-9.3,9.6c0,5.3,4.6,9.7,10.3,9.7
					c2.1,0,4-0.6,5.6-1.5c0.8,1.8,2.5,3.1,4.5,3.5c2.3,0.4,4.6-0.5,5.9-2.3c2.4,3.3,7.1,5.2,12.1,4.4c4.5-0.7,8.1-3.4,9.7-6.8
					c0.9,1.2,2.3,2.2,3.9,2.4c2.1,0.4,4.2-0.4,5.6-1.9c1.4,0.8,3.2,1.4,5.1,1.6c5.8,0.8,10.9-1.5,11.5-5.3
					C120.4,45.2,116.9,41.8,111.8,40.6z"/>
				<radialGradient id="SVGID_16_" cx="94.9292" cy="-11.0684" r="90.6911" gradientUnits="userSpaceOnUse">
					<stop  offset="0" style="stop-color:#F4F5F9"/>
					<stop  offset="9.296446e-02" style="stop-color:#EFF1F6"/>
					<stop  offset="0.1971" style="stop-color:#E2E7EE"/>
					<stop  offset="0.3066" style="stop-color:#CCD5E0"/>
					<stop  offset="0.4191" style="stop-color:#ACBDCD"/>
					<stop  offset="0.4634" style="stop-color:#9EB2C4"/>
					<stop  offset="0.5471" style="stop-color:#91A4B4"/>
					<stop  offset="0.7112" style="stop-color:#6E7E8A"/>
					<stop  offset="0.9378" style="stop-color:#364246"/>
					<stop  offset="1" style="stop-color:#263032"/>
				</radialGradient>
				<path class="st16" d="M66,30.3c0.1,0.4,0.2,0.8,0.3,1.1c-0.6-0.8-0.9-1.8-1.1-2.8C64.4,23.7,68.9,19,75.3,18
					c5.8-0.9,8.3,0.6,10.7,3.9c-3.1-1.9-4.9-3-9.9-2.2C69.7,20.7,65.2,25.4,66,30.3z M95.5,22.5c-4.4-2.7-9.4-2.6-11.1,0.3
					c-0.4,0.7-0.6,1.4-0.6,2.2c0.1-0.5,0.2-0.9,0.5-1.4c1.7-2.7,6.3-2.8,10.5-0.3c4.1,2.5,6.2,6.8,4.5,9.5c-0.6,0.9-1.5,1.5-2.6,1.8
					c1.6-0.2,2.9-0.9,3.6-2.1C102,29.7,99.9,25.2,95.5,22.5z M103.3,32.1c-1.1-0.2-2.1-0.2-3.1-0.1c0.3,0,0.7,0.1,1,0.1
					c5.6,0.8,9.7,4.4,9.2,8c0,0.3-0.1,0.6-0.2,0.9c0.5-0.6,0.9-1.3,1-2.1C111.6,35.9,108.1,32.8,103.3,32.1z M56.8,52.2
					c0.7,0,1.3-0.1,1.9-0.2c-1,0.4-2.1,0.6-3.3,0.6c-4.7,0-8.4-3.5-8.4-7.9c0-4.4,3.8-7.9,8.4-7.9c0.5,0,1,0,1.4,0.1
					c-4.4,0-8,3.4-8,7.7C48.7,48.7,52.3,52.2,56.8,52.2z M66.6,54.6c-2.6-0.5-4.4-3.5-4.4-6c-0.1,0.3-0.2,0.7-0.3,1.1
					c-0.5,2.9,1.4,5.6,4.3,6.1c2.9,0.5,5.6-1.4,6.1-4.3c0-0.3,0.1-0.5,0.1-0.8C71.5,52.9,69.1,55,66.6,54.6z M93.2,47.1
					c-0.1-0.6-0.3-1.2-0.5-1.8c0,0.1,0.1,0.2,0.1,0.4c0.8,4.8-3.2,9.4-8.9,10.3c-5.7,0.9-10.9-2.3-11.6-7.1c0-0.1,0-0.3,0-0.4
					c-0.1,0.6-0.1,1.3,0,1.9c0.8,4.8,6.1,8,11.9,7.1C89.9,56.5,94,51.9,93.2,47.1z M98,52.9c-1.6-0.3-3-1.2-3.9-2.4
					c0.8,1.5,2.2,2.7,4,3c2.5,0.4,4.9-0.8,6-3C102.8,52.3,100.4,53.3,98,52.9z M62.3,30.2c0.6,0,1.2,0.1,1.8,0.3
					c-0.9-0.6-1.9-1-3.1-1c-2.9,0-5.3,2.3-5.3,5.2c0,0.3,0,0.5,0.1,0.8C56.3,32.5,59,30.2,62.3,30.2z M111.2,41.4
					c4.1,1.5,6.7,4,6.3,6.5c-0.5,3.3-6.2,5.3-12.6,4.4c0,0,0,0,0,0c1,0.3,2,0.6,3.1,0.7c5.5,0.7,10.4-1.3,10.9-4.6
					C119.4,45.4,116.1,42.5,111.2,41.4z M73.2,48.5c-0.3-2,0.3-4,1.5-5.7c-2.2,1.9-3.4,4.5-3,7.2c0.7,4.5,5.7,7.5,11.1,6.6
					c1.8-0.3,3.4-0.9,4.7-1.9c-0.7,0.3-1.5,0.5-2.4,0.6C79.3,56.3,73.9,53.2,73.2,48.5z"/>
			</g>
			<g>
				<path class="st17" d="M42.8,71.4c-3.7,0-7.1-1.5-9.2-4c-1.2,1.2-2.8,1.9-4.5,1.9c-0.4,0-0.7,0-1.1-0.1c-1.8-0.3-3.4-1.5-4.3-3.1
					c-1.5,0.8-3.2,1.3-5,1.3c-5.5,0-10-4.2-10-9.4c0-4.7,3.7-8.7,8.6-9.3c0.2-3.2,2.9-5.7,6.2-5.7c0.5,0,1.1,0.1,1.6,0.2
					C24.8,38,29.7,33,36.5,32c0.9-0.1,1.7-0.2,2.6-0.2c3.2,0,6.1,0.9,8.3,2.6c0.6-0.1,1.3-0.2,1.9-0.2c2.2,0,4.7,0.7,6.9,2.1
					c3.5,2.1,5.8,5.5,5.9,8.4c0.1,0,0.2,0,0.3,0c2.7,0.4,5.1,1.4,6.9,3c1.8,1.6,2.6,3.4,2.4,5.3c0,0.3-0.1,0.6-0.2,0.9
					c4.7,1.3,7.8,4.5,7.3,7.9c-0.5,3.2-4.1,5.5-9,5.5c-0.7,0-1.5-0.1-2.2-0.2c-1.6-0.2-3.2-0.7-4.5-1.4c-1.1,1.1-2.7,1.7-4.3,1.7
					c-0.4,0-0.7,0-1.1-0.1c-1.3-0.2-2.5-0.9-3.5-1.9c-1.7,3.1-5.1,5.3-9,5.9C44.3,71.4,43.6,71.4,42.8,71.4L42.8,71.4z"/>
				<radialGradient id="SVGID_17_" cx="44.9409" cy="19.9856" r="75.3059" gradientUnits="userSpaceOnUse">
					<stop  offset="0" style="stop-color:#9EB2C4"/>
					<stop  offset="0.156" style="stop-color:#91A4B4"/>
					<stop  offset="0.4618" style="stop-color:#6E7E8A"/>
					<stop  offset="0.8841" style="stop-color:#364246"/>
					<stop  offset="1" style="stop-color:#263032"/>
				</radialGradient>
				<path class="st18" d="M70.6,54.2c0.2-0.4,0.3-0.8,0.4-1.3c0.5-3.5-3.4-7-8.8-7.7c-0.2,0-0.4-0.1-0.7-0.1c0.1-2.8-2-6.2-5.7-8.4
					c-3-1.8-6.3-2.4-8.7-1.8c-2.6-2.1-6.5-3.1-10.7-2.4c-6.7,1.1-11.5,6.1-10.7,11.2c0,0,0,0.1,0,0.1c-0.7-0.3-1.4-0.4-2.2-0.4
					c-3.2,0-5.8,2.5-5.8,5.7c0,0,0,0,0,0C13,49.6,9.3,53.4,9.3,58c0,4.9,4.3,9,9.5,9c1.9,0,3.7-0.5,5.2-1.4c0.8,1.6,2.3,2.9,4.2,3.3
					c2.2,0.4,4.2-0.5,5.5-2.1c2.2,3.1,6.6,4.8,11.3,4.1c4.2-0.7,7.5-3.1,9-6.3c0.8,1.2,2.1,2,3.6,2.3c2,0.4,3.9-0.4,5.2-1.7
					c1.3,0.7,2.9,1.3,4.7,1.5c5.4,0.8,10.2-1.4,10.7-4.9C78.6,58.5,75.3,55.3,70.6,54.2z"/>
				<radialGradient id="SVGID_18_" cx="54.9657" cy="6.3047" r="84.0874" gradientUnits="userSpaceOnUse">
					<stop  offset="0" style="stop-color:#9EB2C4"/>
					<stop  offset="0.156" style="stop-color:#91A4B4"/>
					<stop  offset="0.4618" style="stop-color:#6E7E8A"/>
					<stop  offset="0.8841" style="stop-color:#364246"/>
					<stop  offset="1" style="stop-color:#263032"/>
				</radialGradient>
				<path class="st19" d="M28.1,44.6c0.1,0.4,0.2,0.7,0.3,1c-0.5-0.8-0.9-1.6-1-2.6c-0.7-4.5,3.5-8.9,9.4-9.8
					c5.4-0.9,7.7,0.5,9.9,3.6c-2.9-1.8-4.5-2.8-9.2-2C31.6,35.7,27.4,40.1,28.1,44.6z M55.5,37.4c-4.1-2.5-8.7-2.4-10.3,0.3
					c-0.4,0.6-0.6,1.3-0.6,2.1c0.1-0.4,0.2-0.9,0.4-1.3c1.5-2.5,5.9-2.6,9.7-0.2c3.8,2.4,5.7,6.3,4.2,8.8c-0.5,0.8-1.4,1.4-2.4,1.7
					c1.5-0.2,2.7-0.9,3.4-2C61.6,44.1,59.6,39.9,55.5,37.4z M62.8,46.3c-1-0.1-1.9-0.2-2.8-0.1c0.3,0,0.6,0.1,0.9,0.1
					c5.2,0.8,9,4.1,8.5,7.4c0,0.3-0.1,0.5-0.2,0.8c0.5-0.6,0.8-1.2,0.9-1.9C70.5,49.8,67.2,47,62.8,46.3z M19.6,64.9
					c0.6,0,1.2-0.1,1.7-0.2c-0.9,0.4-2,0.6-3.1,0.6c-4.3,0-7.8-3.3-7.8-7.3c0-4.1,3.5-7.3,7.8-7.3c0.5,0,0.9,0,1.3,0.1
					c-4.1,0-7.4,3.2-7.4,7.1C12.1,61.8,15.5,64.9,19.6,64.9z M28.7,67.2c-2.4-0.4-4.1-3.2-4-5.6c-0.1,0.3-0.2,0.6-0.3,1
					c-0.5,2.7,1.3,5.2,4,5.7c2.7,0.5,5.2-1.3,5.7-3.9c0-0.3,0.1-0.5,0.1-0.8C33.2,65.6,31,67.6,28.7,67.2z M53.4,60.2
					c-0.1-0.6-0.3-1.2-0.5-1.7c0,0.1,0.1,0.2,0.1,0.3c0.7,4.5-3,8.8-8.3,9.6c-5.3,0.8-10.1-2.1-10.8-6.6c0-0.1,0-0.3,0-0.4
					c-0.1,0.6-0.1,1.2,0,1.8c0.7,4.5,5.6,7.4,11,6.6C50.3,69,54.1,64.7,53.4,60.2z M57.8,65.6c-1.5-0.3-2.8-1.1-3.6-2.2
					c0.7,1.4,2.1,2.5,3.8,2.8c2.3,0.4,4.6-0.8,5.6-2.8C62.2,65.1,60.1,66,57.8,65.6z M24.7,44.6c0.6,0,1.1,0.1,1.7,0.3
					c-0.8-0.6-1.8-0.9-2.9-0.9c-2.7,0-4.9,2.1-4.9,4.8c0,0.3,0,0.5,0.1,0.7C19.2,46.7,21.7,44.6,24.7,44.6z M70.1,55
					c3.8,1.4,6.2,3.7,5.8,6c-0.5,3.1-5.7,4.9-11.7,4.1c0,0,0,0,0,0c0.9,0.3,1.9,0.5,2.9,0.7c5.1,0.7,9.7-1.2,10.1-4.3
					C77.7,58.7,74.6,55.9,70.1,55z M34.8,61.5c-0.3-1.9,0.3-3.7,1.4-5.3c-2.1,1.7-3.2,4.2-2.8,6.7c0.7,4.2,5.3,6.9,10.3,6.1
					c1.7-0.3,3.2-0.9,4.4-1.7c-0.7,0.2-1.4,0.4-2.2,0.6C40.5,68.7,35.5,65.9,34.8,61.5z"/>
			</g>
			<g>
				<polygon class="st20" points="42.3,78.4 56.3,60.4 56.6,60.7 49.2,74.5 53,74.1 53.3,74.4 38.2,94.4 37.9,94.1 47.2,78.2 
					42.6,78.7 				"/>
				<linearGradient id="SVGID_19_" gradientUnits="userSpaceOnUse" x1="32.9682" y1="84.773" x2="61.2205" y2="69.751">
					<stop  offset="0" style="stop-color:#FADB00"/>
					<stop  offset="4.319258e-02" style="stop-color:#FADE1A"/>
					<stop  offset="0.1615" style="stop-color:#F9E75C"/>
					<stop  offset="0.269" style="stop-color:#F8EE90"/>
					<stop  offset="0.3617" style="stop-color:#F7F3B6"/>
					<stop  offset="0.4361" style="stop-color:#F7F6CD"/>
					<stop  offset="0.4829" style="stop-color:#F7F7D5"/>
					<stop  offset="1" style="stop-color:#F9D605"/>
				</linearGradient>
				<polygon class="st21" points="56.3,60.4 48.9,74.2 53,74.1 37.9,94.1 47,77.9 42.3,78.4 				"/>
			</g>
		</g>
	</g>
</g>
</svg>
