<?xml version="1.0" encoding="utf-8"?>
<!-- Generator: Adobe Illustrator 19.1.0, SVG Export Plug-In . SVG Version: 6.00 Build 0)  -->
<svg version="1.1" xmlns="http://www.w3.org/2000/svg" xmlns:xlink="http://www.w3.org/1999/xlink" x="0px" y="0px"
	 viewBox="0 0 127.1 108.2" style="enable-background:new 0 0 127.1 108.2;" xml:space="preserve">
<style type="text/css">
	.st0{fill:url(#SVGID_1_);}
	.st1{fill:url(#SVGID_2_);}
	.st2{fill:url(#SVGID_3_);}
	.st3{opacity:0.1;fill:#FFFFFF;}
	.st4{fill:#EDA700;}
	.st5{fill:#FBB314;}
	.st6{fill:#FBB33E;}
</style>
<g id="Layer_1">
</g>
<g id="Layer_2">
	<g>
		<linearGradient id="SVGID_1_" gradientUnits="userSpaceOnUse" x1="0" y1="58.8617" x2="117.0338" y2="58.8617">
			<stop  offset="0" style="stop-color:#F4F5F9"/>
			<stop  offset="0.1526" style="stop-color:#EFF3F8"/>
			<stop  offset="0.3235" style="stop-color:#E2EDF6"/>
			<stop  offset="0.5026" style="stop-color:#CCE3F2"/>
			<stop  offset="0.5463" style="stop-color:#C5E0F1"/>
			<stop  offset="0.6293" style="stop-color:#B5D3E6"/>
			<stop  offset="0.7917" style="stop-color:#8BB2C8"/>
			<stop  offset="1" style="stop-color:#4C809C"/>
		</linearGradient>
		<path class="st0" d="M0,28c11.8-5.8,25.3,3.6,34,16.6c7.7,11.4,9.4,27.2,17.7,38.1C59.6,93,75.6,97.1,88.3,95.4
			c6.9-0.9,14.4-4.6,18.5-10.8c3.2-4.8,5.3-16.2-4.7-14.9c14.6,10.2,20.3-17.4,7-14.8c11.4-0.8,10.6-20.8-3.6-17.7
			c3.3-0.5,3.2-4.9-1.2-7.9c-3.3-2.2-12.4-4.1-15.6-3.3c-10.4,2.8-19.5,12-14.9,24.3c0.8-5.6-3.3-8.1-8.7-6.4
			c-7.4,2.3-3.7,9.4-6.7,13.3c-9.3,12.5-13.3-3-17.8-11.9C35.5,35.5,11.2,10.5,0,28"/>
		<linearGradient id="SVGID_2_" gradientUnits="userSpaceOnUse" x1="6.7295" y1="57.3658" x2="89.1888" y2="57.3658">
			<stop  offset="0" style="stop-color:#F4F5F9"/>
			<stop  offset="0.1526" style="stop-color:#EFF3F8"/>
			<stop  offset="0.3235" style="stop-color:#E2EDF6"/>
			<stop  offset="0.5026" style="stop-color:#CCE3F2"/>
			<stop  offset="0.5463" style="stop-color:#C5E0F1"/>
			<stop  offset="0.6293" style="stop-color:#B5D3E6"/>
			<stop  offset="0.7917" style="stop-color:#8BB2C8"/>
			<stop  offset="1" style="stop-color:#4C809C"/>
		</linearGradient>
		<path class="st1" d="M6.7,31.4C29.3,27.9,33.3,62.1,44,74.8c5.8,7,11.3,10.4,19.7,12.9c5.9,1.8,25.6-2.5,16.9-9.2
			c11.3,2.2,12.2-14-1.9-12.5c0.4-1.8-0.7-4.6-0.3-6.4c-4.3-1.2-8.1-0.6-9.9,2.8c-8.7-8.3-10.5,8.8-17.2,7.1
			C47.9,68.7,40.5,56,38.4,52.7c-4.8-7.8-18.8-36-31.7-22.4"/>
		<linearGradient id="SVGID_3_" gradientUnits="userSpaceOnUse" x1="8.9746" y1="39.1757" x2="62.3931" y2="39.1757">
			<stop  offset="0" style="stop-color:#F4F5F9"/>
			<stop  offset="0.1526" style="stop-color:#EFF3F8"/>
			<stop  offset="0.3235" style="stop-color:#E2EDF6"/>
			<stop  offset="0.5026" style="stop-color:#CCE3F2"/>
			<stop  offset="0.5463" style="stop-color:#C5E0F1"/>
			<stop  offset="0.6293" style="stop-color:#B5D3E6"/>
			<stop  offset="0.7917" style="stop-color:#8BB2C8"/>
			<stop  offset="1" style="stop-color:#4C809C"/>
		</linearGradient>
		<path class="st2" d="M9,23.5c15.4-6.6,23.3,7.1,31.1,18.3c3,4.3,8.1,13.9,14.9,12.1c8.2-2.3,3.8-14.9-1.2-10
			c2.6-8.6,13.8,2.4,5.6,9.9c-6.1,5.6-16.1,1.5-20.5-3.1C29.1,40.3,28.6,22.4,9,23.5"/>
		<path class="st3" d="M84.1,36.9c0.5-3.7,5.7-6.2,9.2-4.9c4,1.4,4.2,6,3.1,9.5c7-5.1,13.8,3.2,8.6,9.7c4-0.2,4.2,7.5,1.8,9.5
			c3.7-0.6,4.3,2.9,2.9,5.4c-1.2,2.2-4.3,3.5-6.3,4.3c5.6,3.6-2.3,8.5-4.4,10.3c5,0.2,9.6-4.8,6.2-9.1c3.3-1.6,9.5-6.5,7.6-10.5
			c-0.5-1-2.4-1.6-2.6-2.2c-0.6-1.4,0.2-2.4,0-4c-0.3-2.4-1.4-3.8-3.4-4.9c2.9-1.7,3.2-7.4,1.6-10.1c-1.8-3.1-6.9-3.8-10-2.7
			c0.5-8.2-12.2-9.4-13.6-1.5"/>
		<path class="st4" d="M37.5,29.2c0.3-3,7.3-1.7,9.6-0.7c4,1.7,6.2,2.6,10.8,2.6c-3.2,1.8-6.5,4.1-11.2,3.5
			c-3.5-0.4-7.3-2.9-9.6-5.4"/>
		<path class="st5" d="M27.7,61.8c1.3-1.7,5,1.8,6,3.3c1.7,2.5,2.7,3.9,5.4,5.6c-2.6-0.2-5.4-0.1-8-2.2c-1.9-1.6-3.3-4.5-3.7-6.9"/>
		<path class="st5" d="M12.8,28.7c1-1.3,3.9,1.4,4.7,2.6c1.4,2,2.1,3.1,4.3,4.4c-2-0.1-4.3,0-6.3-1.7c-1.5-1.3-2.6-3.5-2.9-5.4"/>
		<path class="st6" d="M65,73.7c1.3-1.7,5,1.8,6,3.3c1.7,2.5,2.7,3.9,5.4,5.6c-2.6-0.2-5.4-0.1-8-2.2c-1.9-1.6-3.3-4.5-3.7-6.9"/>
	</g>
</g>
</svg>
