<?xml version="1.0" encoding="utf-8"?>
<!-- Generator: Adobe Illustrator 19.1.0, SVG Export Plug-In . SVG Version: 6.00 Build 0)  -->
<svg version="1.1" xmlns="http://www.w3.org/2000/svg" xmlns:xlink="http://www.w3.org/1999/xlink" x="0px" y="0px"
	 viewBox="0 0 137 163.9" style="enable-background:new 0 0 137 163.9;" xml:space="preserve">
<style type="text/css">
	.st0{fill:#8BFAFF;}
	.st1{fill:#E9E8E8;}
	.st2{fill:#007599;}
	.st3{opacity:0.5;fill:#007599;}
	.st4{fill:#1983A3;}
	.st5{fill:#FFFCFC;}
	.st6{fill:#211D1C;}
</style>
<g id="background">
</g>
<g id="objects">
	<g>
		<path class="st0" d="M15.6,109.8c0,0-11.1-15.1-6.3-33.9c4.8-18.8,21.8-38,38-42.4c16.2-4.4,37.3-2.2,52,7.4s19.6,19.6,22.1,28.8
			c2.6,9.2,3.3,21.8,2.2,26.9c-1.1,5.2-2.6,10.3-2.6,10.3s-31-11.8-49.4-8.5C53.2,101.7,15.6,109.8,15.6,109.8z"/>
		<path class="st1" d="M11.3,101.8c2,5,4.2,8.1,4.2,8.1s37.6-8.1,56.1-11.4c18.4-3.3,49.4,8.5,49.4,8.5s1.5-5.2,2.6-10.3
			c0.2-0.8,0.3-1.8,0.4-2.9C92.1,70.3,43.2,78.4,11.3,101.8z"/>
		<path class="st2" d="M67.2,109.8c0,0,35.8,4.1,46.1,12.9c10.3,8.9,11.4,18.8,7,22.5c-4.4,3.7-13.7,10.3-32.5,11.4
			c-18.8,1.1-42.1,2.2-53.5-1.5c-11.4-3.7-14.8-7-15.5-15.5C18.2,131.2,27,106.5,67.2,109.8z"/>
		<path class="st3" d="M67.2,109.8c0,0,35.8,4.1,46.1,12.9c10.3,8.9,11.4,18.8,7,22.5c-4.4,3.7-13.7,10.3-32.5,11.4
			c-18.8,1.1-42.1,2.2-53.5-1.5c-11.4-3.7-14.8-7-15.5-15.5C18.2,131.2,27,106.5,67.2,109.8z"/>
		<path class="st3" d="M113.4,122.7c-1.2-1-2.7-1.9-4.4-2.8c-1.3,2.8-3.3,5.3-5.9,7.2c-22.1,17.7-60.9,22.1-77.5-4.4c0,0,0,0,0-0.1
			c-5.4,6.3-6.9,13.3-6.6,17c0.7,8.5,4.1,11.8,15.5,15.5c11.4,3.7,34.7,2.6,53.5,1.5c18.8-1.1,28-7.7,32.5-11.4
			C124.8,141.6,123.7,131.6,113.4,122.7z"/>
		<path class="st4" d="M21.1,147.9c0,0-10.8-8.3-14.7-17.4c-3.9-9.1-2.2-16.9-1.1-18c1.1-1.1,14.1-11.6,32.9-16.9
			c18.8-5.3,43.2-7.5,54.5-5.3c0,0,17.2,1.4,26,5.8c8.9,4.4,13,10.2,13,10.2s2.8,9.1-1.9,19.9c-4.7,10.8-9.1,17.7-9.1,17.7
			s1.9-10-15.2-17.7c-17.2-7.7-42.3-4.7-52.9-3c-10.5,1.7-22.1,8.9-24.6,11.3c-2.5,2.5-6.9,7.2-6.9,8.9S21.1,147.9,21.1,147.9z"/>
		<path class="st5" d="M47.7,33.3c-2.7-1.6-2.9-6.1-0.4-8c-2.7-2-3.4-6.3-1.5-9.1c1-1.4,2.4-2.4,3.5-3.7c1.6-1.8,2.5-4.2,4-6
			c2.4-2.8,6.4-4.1,10-3.3c3.6,0.8,6.6,3.7,7.6,7.3c3.2-1,6.8-1.1,9.8,0.5s5,5.2,4,8.4c-0.3,1-0.9,2-0.6,3c0.2,0.7,0.8,1.2,1.2,1.8
			c2.1,2.7,1.3,7.2-1.6,9c-11.3-3.6-23.8-3.6-35.1,0"/>
		<g>
			<g>
				<g>
					<path class="st6" d="M13.4,106c-2.9-10.2-5.6-19.1-2.9-29.8c1.9-7.5,5.6-14.7,10.1-20.9c9.5-13.1,24.3-22.7,40.8-23
						c17.8-0.3,38.5,6.4,50.2,20.4c10.9,13.2,10.6,29.6,10,45.7c0,1.2,1.8,1.4,2.1,0.3c3-12.6,1.5-27.4-3.9-39
						c-6-12.8-18.4-21.4-31.4-26c-14-4.9-30.2-6.4-44.1-0.5c-12.4,5.2-22.5,15-29.2,26.5c-8.1,13.9-11.7,32.3-2.8,46.8
						C12.6,107,13.6,106.6,13.4,106L13.4,106z"/>
				</g>
			</g>
			<g>
				<g>
					<path class="st6" d="M22,141.1c10.3-11.8,26.6-16.7,41.7-18.3c15.1-1.6,33-0.5,46.2,7.7c2.8,1.8,6.5,4.2,8.3,7.2
						c2.8,4.8-1.4,8.5-5.2,10.6c-6,3.3-13.2,4.6-19.8,5.8c-14.5,2.7-29.2,2.9-43.9,1.6c-6.8-0.6-34.2-1.5-26.2-14.7
						c0.6-1-0.8-2.2-1.7-1.3c-8.7,9.2,4.9,15.6,12.7,17.1c17.2,3.3,36.2,3.5,53.6,1c8.2-1.2,39.7-5.1,33.8-20.1
						c-2.5-6.4-11.4-10.9-17.4-13.3c-8.7-3.5-18.4-4.6-27.7-4.7c-11.3-0.1-22.3,1.8-33,5.7c-8.5,3.1-17,7.5-21.9,15.4
						C21.4,141,21.8,141.3,22,141.1L22,141.1z"/>
				</g>
			</g>
			<g>
				<g>
					<path class="st6" d="M21.2,148.6c-2.4-5.2-7.8-9.4-10.9-14.3c-4.1-6.5-4.7-12.6-5.3-20c-0.1-0.8-1.1-1-1.4-0.2
						c-2,6.3,0.6,13.9,3.8,19.4c3,5.2,8,12.8,13.3,15.5C21.1,149.2,21.3,148.9,21.2,148.6L21.2,148.6z"/>
				</g>
			</g>
			<g>
				<g>
					<path class="st6" d="M119.6,147c5.5-4.6,8.5-12.1,10.7-18.8c2.4-7.4,5.2-17.3,0.6-24.4c-0.5-0.7-1.5-0.2-1.4,0.6
						c0.8,4.6,1.7,8.6,1.1,13.3c-0.5,4-1.6,7.9-2.8,11.7c-2,6.3-5.3,11.7-8.9,17.2C118.6,146.9,119.2,147.3,119.6,147L119.6,147z"/>
				</g>
			</g>
			<g>
				<g>
					<path class="st6" d="M5.3,116.3c-0.5-2.2,2.5-5,4-6.1c1-0.8,2.1-1.6,3.2-2.3c2-1.3,4.2-2.5,6.4-3.6c5.1-2.5,10.6-4.3,16-6
						c10.8-3.4,22-5.8,33.3-6.7c10.9-0.9,21.9-0.6,32.6,1.5c10.1,2,23.6,5,29.8,14c1,1.5,3.3,0.2,2.4-1.4
						c-5.3-9.7-19.8-13.1-29.7-15.2c-13-2.7-26.4-2.9-39.5-1.2c-13.1,1.7-26.1,5-38.3,9.8c-5.6,2.2-11.1,4.9-16,8.5
						c-2.9,2.2-7.2,5.1-5.7,9.2C4.1,117.7,5.5,117.3,5.3,116.3L5.3,116.3z"/>
				</g>
			</g>
			<g>
				<g>
					<path class="st6" d="M47.6,32.5c-2.2-1.9-2.1-4.1,0.2-6.5c0.5-0.4,0.6-1.1,0-1.5c-0.8-1.5-1.6-2.9-2.4-4.4
						c0.2-1.8,0.9-3.4,2.1-4.6c0.8-1,1.6-1.7,2.5-2.5c1.3-1.3,1.7-2.3,2.5-3.9c4.2-8,15.1-7,17.5,1.8c0.1,0.5,0.8,1,1.3,0.7
						c6.8-2.8,15.4,2.9,10.8,10.4c-0.3,0.5-0.1,1.4,0.4,1.6c3.1,1.1,3.6,3.7,1.6,7.6c-0.8,0.6-1.5,1.2-2.2,1.9
						c-0.8,0.7,0.2,1.8,1.1,1.4c5.6-2.7,7.1-9.9,0.8-12.9c0.1,0.5,0.3,1.1,0.4,1.6C90.1,14,79.3,6,70.5,9.8c0.5,0.2,1.1,0.4,1.6,0.6
						C69.7,2,59.3-1.3,53,5.5c-1.8,1.9-2.4,4.5-4.1,6.5c-1.6,1.8-3.4,3-4.4,5.3C43.1,20.6,43.9,24,47,26c0-0.5,0-1,0-1.5
						c-3,2.1-3.6,7,0,8.8C47.5,33.6,48,33,47.6,32.5L47.6,32.5z"/>
				</g>
			</g>
			<g>
				<g>
					<path class="st6" d="M23,140.7c-3.9-4.8-7.4-9.8-10.1-15.4c-2.5-5.1-3.8-10.5-6.1-15.6c-0.1-0.2-0.4-0.1-0.4,0.1
						c1.1,11.2,8.8,23.1,16.2,31.3C22.9,141.5,23.3,141,23,140.7L23,140.7z"/>
				</g>
			</g>
			<g>
				<g>
					<path class="st6" d="M120.1,136.4c5-9.6,9.3-22.6,9.1-33.5c0-0.4-0.6-0.5-0.7-0.1c-1.4,5.6-1.9,11.4-3.3,17
						c-1.4,5.6-3.6,11-5.4,16.4C119.6,136.4,119.9,136.6,120.1,136.4L120.1,136.4z"/>
				</g>
			</g>
			<g>
				<g>
					<path class="st6" d="M26,135.8c-3-4.5-6.1-8.9-8.6-13.7c-2.5-4.8-4.1-9.9-6.2-14.9c-0.2-0.4-0.7-0.1-0.6,0.3
						c2,10.2,8.2,21,15,28.7C25.8,136.3,26.2,136,26,135.8L26,135.8z"/>
				</g>
			</g>
			<g>
				<g>
					<path class="st6" d="M30.9,132.6c-6.2-9.2-10.4-18.2-13.9-28.7c-0.2-0.5-0.9-0.3-0.8,0.2c1.9,10.3,7.5,20.9,14.4,28.7
						C30.7,132.9,31,132.8,30.9,132.6L30.9,132.6z"/>
				</g>
			</g>
			<g>
				<g>
					<path class="st6" d="M115.6,132.2c6-9.2,8.3-21.7,9.9-32.4c0.1-0.5-0.6-0.7-0.7-0.2c-1.2,5.2-2,10.5-3.4,15.7
						c-1.5,5.8-3.9,11.1-6.2,16.6C115,132.3,115.4,132.5,115.6,132.2L115.6,132.2z"/>
				</g>
			</g>
			<g>
				<g>
					<path class="st6" d="M109.7,127.9c4.8-9.6,7.9-20.6,9.5-31.1c0.1-0.7-1-1.1-1.1-0.3c-2.2,10.7-5.4,20.9-8.7,31.3
						C109.3,127.9,109.6,128,109.7,127.9L109.7,127.9z"/>
				</g>
			</g>
			<g>
				<g>
					<path class="st6" d="M103.4,125.8c2.5-4.8,3.4-9.9,4.5-15.1c1.2-5.6,2.7-11.3,3.3-17.1c0-0.4-0.6-0.5-0.7-0.1
						c-3.3,10.5-3.5,21.8-7.4,32.2C103,125.8,103.3,125.9,103.4,125.8L103.4,125.8z"/>
				</g>
			</g>
			<g>
				<g>
					<path class="st6" d="M97.7,123.2c3.6-9.6,5.6-21.4,5.4-31.7c0-0.6-0.9-0.6-1,0c-0.7,5.6-0.9,11.2-1.8,16.7
						c-0.8,5-2.1,9.8-3.1,14.8C97.2,123.4,97.6,123.5,97.7,123.2L97.7,123.2z"/>
				</g>
			</g>
			<g>
				<g>
					<path class="st6" d="M91.1,121.7c2.5-9.6,3.9-20.9,3.3-30.9c0-0.6-0.9-0.6-1,0c-1.1,10.2-1.8,20.6-2.6,30.8
						C90.8,121.9,91.1,121.9,91.1,121.7L91.1,121.7z"/>
				</g>
			</g>
			<g>
				<g>
					<path class="st6" d="M84.3,121.4c2.3-9.6,3.2-21.1,1.2-30.8c-0.1-0.5-0.9-0.4-0.9,0.1c0,5.1,0.6,10.2,0.4,15.3
						c-0.1,5.1-0.9,10.2-1.4,15.3C83.6,121.7,84.2,121.7,84.3,121.4L84.3,121.4z"/>
				</g>
			</g>
			<g>
				<g>
					<path class="st6" d="M78.3,120.9c0.5-5.2-0.1-10.5-0.4-15.7c-0.2-4.6-0.1-9.4-1-13.9c-0.1-0.4-0.6-0.3-0.7,0.1
						c-0.3,4.9,0.4,9.9,0.7,14.7c0.3,4.9,0.4,9.9,1,14.8C78,121.1,78.3,121.1,78.3,120.9L78.3,120.9z"/>
				</g>
			</g>
			<g>
				<g>
					<path class="st6" d="M72.6,121.5c-0.1-5.4-0.6-10.8-0.9-16.2c-0.2-4.8-0.1-9.6-0.8-14.4c-0.1-0.4-0.6-0.3-0.6,0.1
						c-0.8,9.8,0.4,20.8,1.7,30.5C72,121.9,72.6,121.8,72.6,121.5L72.6,121.5z"/>
				</g>
			</g>
			<g>
				<g>
					<path class="st6" d="M67.1,120.8c-0.7-4.6-1.9-9.1-2.6-13.7c-0.8-5.2-0.9-10.4-1.5-15.6C62.9,91,62,91,62,91.6
						c-0.4,9.4,1.2,20.6,4.6,29.4C66.7,121.2,67.1,121.1,67.1,120.8L67.1,120.8z"/>
				</g>
			</g>
			<g>
				<g>
					<path class="st6" d="M60.5,122.1c-0.9-4.7-2.3-9.3-3.5-14c-1.1-4.6-1.8-9.5-3.5-14c-0.1-0.3-0.6-0.3-0.6,0.1
						c0.3,4.5,1.6,8.9,2.7,13.3c1.2,5,2.4,10,4.2,14.8C60.1,122.6,60.6,122.5,60.5,122.1L60.5,122.1z"/>
				</g>
			</g>
			<g>
				<g>
					<path class="st6" d="M54.6,123.7c-0.9-4.7-2.6-9.3-3.7-14c-1.2-4.7-1.9-9.5-3.1-14.1c-0.1-0.4-0.8-0.3-0.7,0.1
						c0.7,9.1,3.1,20,7.2,28.2C54.3,124,54.6,123.8,54.6,123.7L54.6,123.7z"/>
				</g>
			</g>
			<g>
				<g>
					<path class="st6" d="M49.1,124.3c-3.5-9.1-7-18-9.9-27.3c-0.1-0.3-0.6-0.3-0.6,0.1c0.5,9.3,5.9,19.1,9.7,27.5
						C48.5,125.1,49.3,124.8,49.1,124.3L49.1,124.3z"/>
				</g>
			</g>
			<g>
				<g>
					<path class="st6" d="M42.7,126.4c-1.9-4.8-4.1-9.5-5.9-14.3c-1.6-4.3-2.7-8.9-4.6-13c-0.1-0.2-0.4-0.1-0.4,0.1
						c1,9,5.9,19.7,10.6,27.4C42.5,126.7,42.8,126.6,42.7,126.4L42.7,126.4z"/>
				</g>
			</g>
			<g>
				<g>
					<path class="st6" d="M36.7,129.1c-2.6-4.7-5.2-9.3-7.3-14.2c-1.9-4.3-2.9-9.1-5-13.3c-0.1-0.2-0.4-0.1-0.4,0.1
						c0.6,9.3,6.8,20.4,12.2,27.7C36.4,129.7,36.9,129.5,36.7,129.1L36.7,129.1z"/>
				</g>
			</g>
		</g>
	</g>
</g>
</svg>
