<?xml version="1.0" encoding="utf-8"?>
<!-- Generator: Adobe Illustrator 19.1.0, SVG Export Plug-In . SVG Version: 6.00 Build 0)  -->
<svg version="1.1" xmlns="http://www.w3.org/2000/svg" xmlns:xlink="http://www.w3.org/1999/xlink" x="0px" y="0px"
	 viewBox="0 0 145.8 87.1" style="enable-background:new 0 0 145.8 87.1;" xml:space="preserve">
<style type="text/css">
	.st0{fill:#C5E0F1;}
	.st1{fill:url(#SVGID_1_);}
	.st2{fill:#94A7AF;}
	.st3{fill:url(#SVGID_2_);}
	.st4{fill:url(#SVGID_3_);}
	.st5{fill:url(#SVGID_4_);}
	.st6{fill:url(#SVGID_5_);}
	.st7{fill:url(#SVGID_6_);}
</style>
<g id="Layer_1">
</g>
<g id="Layer_2">
	<g>
		<g>
			<path class="st0" d="M20.7,23.9c-2.2,0-4.2-0.9-5.4-2.3c-0.7,0.7-1.6,1.1-2.6,1.1c-0.2,0-0.4,0-0.6-0.1c-1.1-0.2-2-0.9-2.5-1.8
				c-0.9,0.5-1.9,0.7-2.9,0.7c-3.2,0-5.9-2.5-5.9-5.5c0-2.8,2.2-5.1,5-5.5c0.1-1.9,1.7-3.4,3.7-3.4c0.3,0,0.6,0,0.9,0.1
				c-0.2-3,2.6-5.9,6.6-6.6c0.5-0.1,1-0.1,1.5-0.1c1.9,0,3.6,0.5,4.9,1.5C23.7,2.1,24.1,2,24.5,2c1.3,0,2.7,0.4,4,1.2
				c2,1.3,3.4,3.2,3.5,4.9c0.1,0,0.1,0,0.2,0c1.6,0.2,3,0.8,4,1.7c1.1,0.9,1.5,2,1.4,3.1c0,0.2-0.1,0.4-0.1,0.5
				c2.8,0.8,4.6,2.7,4.3,4.6c-0.3,1.9-2.4,3.2-5.3,3.2c-0.4,0-0.9,0-1.3-0.1c-0.9-0.1-1.9-0.4-2.7-0.8c-0.7,0.6-1.6,1-2.5,1
				c-0.2,0-0.4,0-0.6-0.1c-0.8-0.1-1.5-0.5-2-1.1c-1,1.8-3,3.1-5.3,3.5C21.6,23.9,21.1,23.9,20.7,23.9L20.7,23.9z"/>
			<radialGradient id="SVGID_1_" cx="21.9417" cy="-6.3036" r="44.2355" gradientUnits="userSpaceOnUse">
				<stop  offset="0" style="stop-color:#F4F5F9"/>
				<stop  offset="0.1526" style="stop-color:#EFF3F8"/>
				<stop  offset="0.3235" style="stop-color:#E2EDF6"/>
				<stop  offset="0.5026" style="stop-color:#CCE3F2"/>
				<stop  offset="0.5463" style="stop-color:#C5E0F1"/>
				<stop  offset="0.6293" style="stop-color:#B5D3E6"/>
				<stop  offset="0.7917" style="stop-color:#8BB2C8"/>
				<stop  offset="1" style="stop-color:#4C809C"/>
			</radialGradient>
			<path class="st1" d="M37,13.8c0.1-0.2,0.2-0.5,0.2-0.7c0.3-2.1-2-4.1-5.2-4.5c-0.1,0-0.3,0-0.4,0c0.1-1.7-1.2-3.6-3.3-5
				c-1.8-1.1-3.7-1.4-5.1-1C21.7,1.2,19.4,0.6,17,1c-4,0.6-6.8,3.6-6.3,6.6c0,0,0,0.1,0,0.1c-0.4-0.2-0.8-0.2-1.3-0.2
				C7.6,7.5,6,8.9,6,10.8c0,0,0,0,0,0c-2.8,0.3-5,2.5-5,5.2c0,2.9,2.5,5.3,5.6,5.3c1.1,0,2.2-0.3,3-0.8c0.4,1,1.3,1.7,2.5,1.9
				c1.3,0.2,2.5-0.3,3.2-1.2c1.3,1.8,3.9,2.8,6.6,2.4c2.5-0.4,4.4-1.8,5.3-3.7c0.5,0.7,1.2,1.2,2.1,1.3c1.2,0.2,2.3-0.2,3-1
				c0.8,0.4,1.7,0.7,2.8,0.9c3.2,0.5,6-0.8,6.3-2.9C41.7,16.3,39.8,14.4,37,13.8z"/>
			<path class="st0" d="M12.1,8.2c0,0.2,0.1,0.4,0.2,0.6c-0.3-0.5-0.5-1-0.6-1.5c-0.4-2.6,2-5.2,5.5-5.8C20.3,1,21.6,1.8,23,3.6
				c-1.7-1.1-2.7-1.6-5.4-1.2C14.1,2.9,11.6,5.5,12.1,8.2z M28.1,3.9c-2.4-1.5-5.1-1.4-6.1,0.1c-0.2,0.4-0.3,0.8-0.3,1.2
				c0-0.3,0.1-0.5,0.3-0.7c0.9-1.5,3.5-1.5,5.7-0.1c2.3,1.4,3.4,3.7,2.5,5.2c-0.3,0.5-0.8,0.8-1.4,1c0.9-0.1,1.6-0.5,2-1.1
				C31.7,7.9,30.5,5.4,28.1,3.9z M32.4,9.2c-0.6-0.1-1.1-0.1-1.7,0c0.2,0,0.4,0,0.6,0.1c3,0.4,5.3,2.4,5,4.4c0,0.2-0.1,0.3-0.1,0.5
				c0.3-0.3,0.5-0.7,0.5-1.1C36.9,11.2,35,9.5,32.4,9.2z M7,20.1c0.4,0,0.7,0,1-0.1c-0.6,0.2-1.2,0.3-1.8,0.3
				c-2.5,0-4.6-1.9-4.6-4.3c0-2.4,2.1-4.3,4.6-4.3c0.3,0,0.5,0,0.8,0.1c-2.4,0-4.4,1.9-4.4,4.2C2.7,18.2,4.6,20.1,7,20.1z
				 M12.4,21.4C11,21.2,10,19.5,10,18.1c-0.1,0.2-0.1,0.4-0.2,0.6c-0.3,1.6,0.8,3,2.3,3.3c1.6,0.3,3.1-0.8,3.3-2.3
				c0-0.1,0-0.3,0-0.4C15.1,20.5,13.8,21.6,12.4,21.4z M26.9,17.3c-0.1-0.3-0.2-0.7-0.3-1c0,0.1,0,0.1,0,0.2
				c0.4,2.6-1.8,5.1-4.8,5.6c-3.1,0.5-5.9-1.2-6.3-3.9c0-0.1,0-0.1,0-0.2c0,0.3,0,0.7,0,1.1c0.4,2.6,3.3,4.3,6.5,3.9
				C25.1,22.5,27.3,19.9,26.9,17.3z M29.5,20.5c-0.9-0.2-1.6-0.7-2.1-1.3c0.4,0.8,1.2,1.5,2.2,1.6c1.4,0.2,2.7-0.5,3.3-1.6
				C32.1,20.2,30.8,20.7,29.5,20.5z M10,8.1c0.3,0,0.7,0.1,1,0.1C10.5,7.9,10,7.7,9.3,7.7c-1.6,0-2.9,1.3-2.9,2.8c0,0.1,0,0.3,0,0.4
				C6.8,9.4,8.3,8.1,10,8.1z M36.7,14.3c2.2,0.8,3.7,2.2,3.4,3.5c-0.3,1.8-3.4,2.9-6.9,2.4c0,0,0,0,0,0c0.5,0.2,1.1,0.3,1.7,0.4
				c3,0.4,5.7-0.7,6-2.5C41.2,16.4,39.3,14.8,36.7,14.3z M16,18.1c-0.2-1.1,0.2-2.2,0.8-3.1c-1.2,1-1.9,2.5-1.6,3.9
				c0.4,2.5,3.1,4.1,6.1,3.6c1-0.2,1.9-0.5,2.6-1c-0.4,0.1-0.8,0.3-1.3,0.3C19.3,22.3,16.4,20.7,16,18.1z"/>
		</g>
		<g>
			<path class="st2" d="M110.1,55.5c-3.6,0-6.9-1.4-8.9-3.9c-1.1,1.2-2.7,1.9-4.4,1.9c-0.3,0-0.7,0-1.1-0.1c-1.8-0.3-3.3-1.4-4.2-3
				c-1.5,0.8-3.1,1.2-4.9,1.2c-5.4,0-9.8-4.1-9.8-9.2c0-4.6,3.6-8.4,8.4-9.1c0.2-3.1,2.9-5.6,6.1-5.6c0.5,0,1,0.1,1.6,0.2
				c-0.4-5,4.4-9.9,10.9-10.9c0.8-0.1,1.7-0.2,2.5-0.2c3.1,0,5.9,0.9,8.1,2.5c0.6-0.1,1.2-0.2,1.9-0.2c2.2,0,4.6,0.7,6.7,2
				c3.4,2.1,5.6,5.3,5.7,8.2c0.1,0,0.2,0,0.3,0c2.6,0.4,5,1.4,6.7,2.9c1.7,1.5,2.6,3.4,2.3,5.2c0,0.3-0.1,0.6-0.2,0.9
				c4.6,1.3,7.6,4.4,7.1,7.6c-0.5,3.1-4,5.3-8.7,5.3c-0.7,0-1.4-0.1-2.2-0.2c-1.6-0.2-3.1-0.7-4.4-1.4c-1.1,1.1-2.6,1.7-4.1,1.7
				c-0.3,0-0.7,0-1.1-0.1c-1.3-0.2-2.5-0.9-3.4-1.8c-1.7,3-5,5.2-8.8,5.8C111.5,55.4,110.8,55.5,110.1,55.5L110.1,55.5z"/>
			<radialGradient id="SVGID_2_" cx="112.1346" cy="5.3621" r="73.3554" gradientUnits="userSpaceOnUse">
				<stop  offset="0" style="stop-color:#F4F5F9"/>
				<stop  offset="0.1335" style="stop-color:#EFF2F7"/>
				<stop  offset="0.283" style="stop-color:#E2EBF2"/>
				<stop  offset="0.4397" style="stop-color:#CCDEEA"/>
				<stop  offset="0.5463" style="stop-color:#B8D3E2"/>
				<stop  offset="0.6471" style="stop-color:#ADC5D2"/>
				<stop  offset="0.8435" style="stop-color:#8FA1A8"/>
				<stop  offset="1" style="stop-color:#748082"/>
			</radialGradient>
			<path class="st3" d="M137.2,38.7c0.2-0.4,0.3-0.8,0.4-1.2c0.5-3.4-3.4-6.8-8.6-7.5c-0.2,0-0.4-0.1-0.7-0.1c0.1-2.7-2-6.1-5.5-8.2
				c-2.9-1.8-6.1-2.4-8.5-1.7c-2.5-2-6.3-3-10.4-2.4c-6.6,1-11.3,5.9-10.5,11c0,0,0,0.1,0,0.1c-0.6-0.3-1.4-0.4-2.1-0.4
				c-3.1,0-5.7,2.5-5.7,5.5c0,0,0,0,0,0c-4.7,0.4-8.4,4.2-8.4,8.7c0,4.8,4.2,8.7,9.3,8.7c1.9,0,3.6-0.5,5-1.4
				c0.7,1.6,2.2,2.8,4.1,3.2c2.1,0.4,4.1-0.5,5.4-2.1c2.2,3,6.4,4.7,11,4c4.1-0.6,7.3-3.1,8.8-6.1c0.8,1.1,2,1.9,3.5,2.2
				c1.9,0.3,3.8-0.4,5.1-1.7c1.3,0.7,2.9,1.2,4.6,1.5c5.2,0.8,9.9-1.4,10.4-4.8C144.9,42.8,141.7,39.8,137.2,38.7z"/>
			<radialGradient id="SVGID_3_" cx="121.8993" cy="-7.9654" r="81.9105" gradientUnits="userSpaceOnUse">
				<stop  offset="0" style="stop-color:#F4F5F9"/>
				<stop  offset="0.1013" style="stop-color:#EFF2F7"/>
				<stop  offset="0.2148" style="stop-color:#E2EBF2"/>
				<stop  offset="0.3337" style="stop-color:#CCDEEA"/>
				<stop  offset="0.4146" style="stop-color:#B8D3E2"/>
				<stop  offset="0.5447" style="stop-color:#ADC5D2"/>
				<stop  offset="0.7981" style="stop-color:#8FA1A8"/>
				<stop  offset="1" style="stop-color:#748082"/>
			</radialGradient>
			<path class="st4" d="M95.8,29.4c0.1,0.3,0.2,0.7,0.3,1c-0.5-0.8-0.9-1.6-1-2.5c-0.7-4.4,3.4-8.7,9.1-9.6c5.3-0.8,7.5,0.5,9.7,3.5
				c-2.8-1.8-4.4-2.7-8.9-2C99.2,20.7,95.1,25,95.8,29.4z M122.4,22.4c-4-2.4-8.5-2.3-10,0.2c-0.4,0.6-0.5,1.3-0.5,2
				c0.1-0.4,0.2-0.9,0.4-1.2c1.5-2.4,5.7-2.5,9.5-0.2c3.7,2.3,5.6,6.1,4.1,8.5c-0.5,0.8-1.3,1.3-2.3,1.6c1.4-0.2,2.6-0.8,3.3-1.9
				C128.3,28.8,126.4,24.8,122.4,22.4z M129.5,31c-1-0.1-1.9-0.2-2.8-0.1c0.3,0,0.6,0.1,0.9,0.1c5,0.7,8.8,4,8.3,7.3
				c0,0.3-0.1,0.5-0.2,0.8c0.5-0.5,0.8-1.2,0.9-1.9C137,34.4,133.8,31.6,129.5,31z M87.4,49.1c0.6,0,1.2-0.1,1.7-0.2
				c-0.9,0.4-1.9,0.6-3,0.6c-4.2,0-7.6-3.2-7.6-7.2c0-4,3.4-7.2,7.6-7.2c0.4,0,0.9,0,1.3,0.1c-4,0-7.2,3.1-7.2,6.9
				C80.2,46,83.4,49.1,87.4,49.1z M96.3,51.3c-2.4-0.4-4-3.1-3.9-5.4c-0.1,0.3-0.2,0.6-0.3,1c-0.5,2.6,1.3,5.1,3.9,5.5
				c2.6,0.5,5.1-1.3,5.5-3.8c0-0.2,0.1-0.5,0.1-0.7C100.7,49.8,98.6,51.7,96.3,51.3z M120.3,44.5c-0.1-0.6-0.3-1.1-0.5-1.6
				c0,0.1,0.1,0.2,0.1,0.3c0.7,4.4-2.9,8.5-8,9.3c-5.1,0.8-9.8-2.1-10.5-6.4c0-0.1,0-0.2,0-0.4c-0.1,0.6-0.1,1.2,0,1.7
				c0.7,4.3,5.5,7.2,10.7,6.4C117.3,53.1,121,48.9,120.3,44.5z M124.7,49.8c-1.5-0.3-2.7-1.1-3.6-2.2c0.7,1.4,2,2.4,3.7,2.7
				c2.3,0.4,4.5-0.8,5.5-2.7C129,49.3,126.9,50.2,124.7,49.8z M92.4,29.3c0.6,0,1.1,0.1,1.6,0.2c-0.8-0.6-1.8-0.9-2.8-0.9
				c-2.6,0-4.8,2.1-4.8,4.7c0,0.2,0,0.5,0.1,0.7C87,31.4,89.5,29.3,92.4,29.3z M136.6,39.5c3.7,1.3,6.1,3.6,5.7,5.8
				c-0.5,3-5.6,4.8-11.4,4c0,0,0,0,0,0c0.9,0.3,1.8,0.5,2.8,0.7c5,0.7,9.4-1.2,9.9-4.2C144,43.1,141,40.4,136.6,39.5z M102.3,45.8
				c-0.3-1.8,0.3-3.6,1.4-5.2c-2,1.7-3.1,4.1-2.7,6.5c0.6,4.1,5.1,6.7,10,6c1.6-0.3,3.1-0.9,4.3-1.7c-0.7,0.2-1.4,0.4-2.1,0.5
				C107.8,52.9,102.9,50.1,102.3,45.8z"/>
		</g>
		<g>
			<path class="st0" d="M61.6,61.8c-4.3,0-8.2-1.7-10.5-4.6c-1.3,1.4-3.2,2.2-5.1,2.2c-0.4,0-0.8,0-1.2-0.1c-2.1-0.4-3.9-1.7-5-3.5
				C38,56.8,36,57.3,34,57.3c-6.3,0-11.5-4.9-11.5-10.8c0-5.4,4.2-9.9,9.9-10.7c0.2-3.7,3.4-6.6,7.2-6.6c0.6,0,1.2,0.1,1.8,0.2
				c-0.5-5.9,5.1-11.6,12.8-12.8c1-0.2,2-0.2,3-0.2c3.6,0,7,1.1,9.5,3c0.7-0.2,1.4-0.2,2.2-0.2c2.6,0,5.4,0.9,7.9,2.4
				c4,2.5,6.7,6.3,6.8,9.7c0.1,0,0.2,0,0.3,0c3.1,0.4,5.9,1.7,7.9,3.4c2.1,1.8,3,4,2.7,6.1c-0.1,0.3-0.1,0.7-0.3,1
				c5.4,1.5,8.9,5.2,8.4,9c-0.5,3.7-4.8,6.3-10.3,6.3c-0.8,0-1.7-0.1-2.5-0.2c-1.8-0.3-3.6-0.8-5.2-1.6c-1.3,1.2-3.1,2-4.9,2
				c-0.4,0-0.8,0-1.3-0.1c-1.5-0.3-2.9-1-4-2.2c-2,3.5-5.9,6.1-10.4,6.8C63.3,61.8,62.4,61.8,61.6,61.8L61.6,61.8z"/>
			<radialGradient id="SVGID_4_" cx="63.996" cy="2.7789" r="86.4593" gradientUnits="userSpaceOnUse">
				<stop  offset="0" style="stop-color:#F4F5F9"/>
				<stop  offset="0.1526" style="stop-color:#EFF3F8"/>
				<stop  offset="0.3235" style="stop-color:#E2EDF6"/>
				<stop  offset="0.5026" style="stop-color:#CCE3F2"/>
				<stop  offset="0.5463" style="stop-color:#C5E0F1"/>
				<stop  offset="0.6293" style="stop-color:#B5D3E6"/>
				<stop  offset="0.7917" style="stop-color:#8BB2C8"/>
				<stop  offset="1" style="stop-color:#4C809C"/>
			</radialGradient>
			<path class="st5" d="M93.5,42c0.2-0.5,0.4-0.9,0.5-1.5c0.6-4-4-8-10.1-8.9c-0.3,0-0.5-0.1-0.8-0.1c0.1-3.2-2.3-7.1-6.5-9.7
				c-3.4-2.1-7.2-2.8-10-2.1c-3-2.4-7.5-3.6-12.2-2.8c-7.7,1.2-13.3,7-12.3,12.9c0,0.1,0,0.1,0,0.2c-0.8-0.3-1.6-0.5-2.5-0.5
				c-3.7,0-6.7,2.9-6.7,6.5c0,0,0,0,0,0c-5.5,0.5-9.9,4.9-9.9,10.2c0,5.7,4.9,10.3,11,10.3c2.2,0,4.2-0.6,5.9-1.6
				c0.9,1.9,2.6,3.3,4.8,3.7c2.5,0.4,4.9-0.6,6.3-2.4c2.6,3.6,7.6,5.5,12.9,4.7c4.8-0.8,8.7-3.6,10.4-7.2c1,1.3,2.4,2.3,4.2,2.6
				c2.3,0.4,4.5-0.4,6-2c1.5,0.8,3.4,1.5,5.4,1.8c6.2,0.9,11.7-1.6,12.2-5.6C102.6,47,98.9,43.3,93.5,42z"/>
			<path class="st0" d="M44.7,31.1c0.1,0.4,0.2,0.8,0.3,1.2c-0.6-0.9-1-1.9-1.2-3c-0.8-5.2,4-10.2,10.8-11.3c6.2-1,8.8,0.6,11.4,4.1
				c-3.3-2.1-5.2-3.2-10.5-2.3C48.7,20.9,43.9,25.9,44.7,31.1z M76.1,22.8c-4.7-2.9-10-2.7-11.8,0.3c-0.4,0.7-0.6,1.5-0.6,2.4
				c0.1-0.5,0.2-1,0.5-1.5c1.8-2.9,6.8-3,11.2-0.3c4.4,2.7,6.6,7.2,4.8,10.1c-0.6,1-1.6,1.6-2.8,1.9c1.7-0.2,3.1-1,3.9-2.2
				C83.1,30.5,80.8,25.7,76.1,22.8z M84.5,33c-1.1-0.2-2.2-0.2-3.3-0.1c0.4,0,0.7,0.1,1.1,0.1c5.9,0.9,10.3,4.7,9.7,8.5
				c0,0.3-0.1,0.6-0.2,0.9c0.6-0.6,0.9-1.4,1-2.2C93.3,37,89.6,33.7,84.5,33z M34.9,54.4c0.7,0,1.4-0.1,2-0.2
				c-1.1,0.4-2.3,0.7-3.5,0.7c-5,0-9-3.8-9-8.4c0-4.7,4-8.4,9-8.4c0.5,0,1,0,1.5,0.1c-4.7,0-8.5,3.7-8.5,8.1
				C26.3,50.7,30.2,54.4,34.9,54.4z M45.3,56.9c-2.8-0.5-4.7-3.7-4.6-6.4c-0.1,0.4-0.3,0.7-0.3,1.1c-0.5,3.1,1.5,6,4.6,6.5
				c3.1,0.5,6-1.5,6.5-4.5c0-0.3,0.1-0.6,0.1-0.9C50.6,55.2,48,57.4,45.3,56.9z M73.7,49c-0.1-0.7-0.3-1.3-0.6-1.9
				c0,0.1,0.1,0.3,0.1,0.4c0.8,5.1-3.4,10.1-9.5,11c-6,1-11.6-2.4-12.4-7.6c0-0.1,0-0.3,0-0.4c-0.1,0.7-0.1,1.4,0,2.1
				C52.1,57.6,57.8,61,64,60C70.1,59,74.5,54.1,73.7,49z M78.8,55.2c-1.7-0.3-3.2-1.3-4.2-2.6c0.8,1.6,2.4,2.8,4.3,3.2
				c2.7,0.5,5.2-0.9,6.4-3.2C83.9,54.6,81.4,55.6,78.8,55.2z M40.7,31c0.7,0,1.3,0.1,1.9,0.3c-0.9-0.7-2.1-1.1-3.3-1.1
				c-3.1,0-5.6,2.5-5.6,5.5c0,0.3,0,0.6,0.1,0.8C34.4,33.4,37.3,31,40.7,31z M92.9,43c4.3,1.6,7.1,4.2,6.7,6.9
				c-0.6,3.5-6.6,5.6-13.5,4.7c0,0,0,0,0,0c1,0.4,2.2,0.6,3.4,0.8c5.9,0.8,11.1-1.4,11.6-4.9C101.6,47.2,98,44.1,92.9,43z
				 M52.4,50.5c-0.3-2.2,0.3-4.3,1.6-6.1c-2.4,2-3.7,4.8-3.2,7.7c0.8,4.8,6,8,11.8,7c1.9-0.3,3.6-1,5.1-2c-0.8,0.3-1.6,0.5-2.5,0.6
				C58.9,58.8,53.2,55.5,52.4,50.5z"/>
		</g>
		<g>
			<path class="st2" d="M85.9,86.3c-4.3,0-8.2-1.7-10.6-4.6c-1.3,1.4-3.2,2.2-5.2,2.2c-0.4,0-0.8,0-1.3-0.1c-2.1-0.4-3.9-1.7-5-3.6
				c-1.8,1-3.7,1.5-5.8,1.5c-6.4,0-11.6-4.9-11.6-10.9c0-5.5,4.2-10,9.9-10.8c0.2-3.7,3.4-6.6,7.2-6.6c0.6,0,1.2,0.1,1.8,0.2
				c-0.5-6,5.2-11.7,12.9-12.9c1-0.2,2-0.2,3-0.2c3.7,0,7,1.1,9.6,3c0.7-0.2,1.4-0.2,2.2-0.2c2.6,0,5.4,0.9,8,2.4
				c4,2.5,6.7,6.3,6.8,9.7c0.1,0,0.2,0,0.3,0c3.1,0.4,5.9,1.7,7.9,3.4c2.1,1.8,3,4,2.7,6.1c-0.1,0.3-0.1,0.7-0.3,1
				c5.5,1.5,9,5.3,8.5,9.1c-0.5,3.7-4.8,6.3-10.4,6.3c-0.9,0-1.7-0.1-2.6-0.2c-1.9-0.3-3.7-0.8-5.2-1.6c-1.3,1.3-3.1,2-4.9,2
				c-0.4,0-0.8,0-1.3-0.1c-1.5-0.3-2.9-1-4-2.2c-2,3.5-5.9,6.1-10.5,6.8C87.6,86.2,86.8,86.3,85.9,86.3L85.9,86.3z"/>
			<radialGradient id="SVGID_5_" cx="88.3725" cy="26.7943" r="87.07" gradientUnits="userSpaceOnUse">
				<stop  offset="0" style="stop-color:#F4F5F9"/>
				<stop  offset="0.1335" style="stop-color:#EFF2F7"/>
				<stop  offset="0.283" style="stop-color:#E2EBF2"/>
				<stop  offset="0.4397" style="stop-color:#CCDEEA"/>
				<stop  offset="0.5463" style="stop-color:#B8D3E2"/>
				<stop  offset="0.6471" style="stop-color:#ADC5D2"/>
				<stop  offset="0.8435" style="stop-color:#8FA1A8"/>
				<stop  offset="1" style="stop-color:#748082"/>
			</radialGradient>
			<path class="st6" d="M118.1,66.3c0.2-0.5,0.4-1,0.5-1.5c0.6-4-4-8-10.2-8.9c-0.3,0-0.5-0.1-0.8-0.1c0.1-3.3-2.4-7.2-6.6-9.8
				c-3.5-2.1-7.2-2.8-10-2.1c-3-2.4-7.5-3.6-12.3-2.8c-7.8,1.2-13.4,7-12.4,13c0,0.1,0,0.1,0,0.2c-0.8-0.3-1.6-0.5-2.5-0.5
				c-3.7,0-6.7,2.9-6.7,6.5c0,0,0,0,0,0c-5.6,0.5-9.9,4.9-9.9,10.3c0,5.7,4.9,10.4,11,10.4c2.2,0,4.3-0.6,6-1.7
				c0.9,1.9,2.6,3.4,4.9,3.8c2.5,0.4,4.9-0.6,6.4-2.4c2.6,3.6,7.6,5.6,13,4.7c4.9-0.8,8.7-3.6,10.4-7.3c1,1.3,2.4,2.3,4.2,2.6
				c2.3,0.4,4.5-0.4,6-2c1.5,0.8,3.4,1.5,5.4,1.8c6.2,0.9,11.7-1.6,12.3-5.7C127.3,71.3,123.5,67.6,118.1,66.3z"/>
			<radialGradient id="SVGID_6_" cx="99.9628" cy="10.9787" r="97.2184" gradientUnits="userSpaceOnUse">
				<stop  offset="0" style="stop-color:#F4F5F9"/>
				<stop  offset="0.1013" style="stop-color:#EFF2F7"/>
				<stop  offset="0.2148" style="stop-color:#E2EBF2"/>
				<stop  offset="0.3337" style="stop-color:#CCDEEA"/>
				<stop  offset="0.4146" style="stop-color:#B8D3E2"/>
				<stop  offset="0.5447" style="stop-color:#ADC5D2"/>
				<stop  offset="0.7981" style="stop-color:#8FA1A8"/>
				<stop  offset="1" style="stop-color:#748082"/>
			</radialGradient>
			<path class="st7" d="M68.9,55.3c0.1,0.4,0.2,0.8,0.3,1.2c-0.6-0.9-1-1.9-1.2-3c-0.8-5.2,4-10.3,10.8-11.4c6.3-1,8.9,0.6,11.5,4.1
				c-3.4-2.1-5.2-3.2-10.6-2.3C73,45,68.1,50.1,68.9,55.3z M100.6,47c-4.7-2.9-10-2.8-11.9,0.3C88.2,48,88,48.8,88,49.6
				c0.1-0.5,0.2-1,0.5-1.5c1.8-2.9,6.8-3,11.2-0.3c4.4,2.7,6.6,7.3,4.8,10.1c-0.6,1-1.6,1.6-2.8,1.9c1.7-0.2,3.1-1,3.9-2.3
				C107.6,54.7,105.3,49.8,100.6,47z M109,57.2c-1.1-0.2-2.2-0.2-3.3-0.1c0.4,0,0.7,0.1,1.1,0.1c6,0.9,10.4,4.7,9.8,8.6
				c0,0.3-0.1,0.6-0.2,0.9c0.6-0.6,0.9-1.4,1-2.2C117.9,61.3,114.1,58,109,57.2z M59,78.8c0.7,0,1.4-0.1,2-0.2
				c-1.1,0.4-2.3,0.7-3.6,0.7c-5,0-9.1-3.8-9.1-8.5c0-4.7,4.1-8.5,9.1-8.5c0.5,0,1,0.1,1.5,0.1c-4.7,0-8.6,3.7-8.6,8.2
				C50.5,75.1,54.3,78.8,59,78.8z M69.6,81.3c-2.8-0.5-4.7-3.7-4.7-6.4c-0.1,0.4-0.3,0.7-0.3,1.1c-0.5,3.1,1.5,6,4.6,6.6
				c3.1,0.5,6-1.5,6.6-4.6c0.1-0.3,0.1-0.6,0.1-0.9C74.8,79.6,72.3,81.8,69.6,81.3z M98.1,73.3c-0.1-0.7-0.3-1.3-0.6-2
				c0,0.1,0.1,0.3,0.1,0.4c0.8,5.2-3.5,10.1-9.5,11.1c-6.1,1-11.7-2.5-12.5-7.6c0-0.1,0-0.3,0-0.4c-0.1,0.7-0.1,1.4,0,2.1
				c0.8,5.2,6.5,8.6,12.7,7.6C94.5,83.4,98.9,78.5,98.1,73.3z M103.3,79.6c-1.8-0.3-3.2-1.3-4.2-2.6c0.8,1.6,2.4,2.9,4.3,3.2
				c2.7,0.5,5.3-0.9,6.5-3.2C108.4,78.9,105.9,80,103.3,79.6z M64.9,55.2c0.7,0,1.3,0.1,1.9,0.3c-0.9-0.7-2.1-1.1-3.3-1.1
				c-3.1,0-5.7,2.5-5.7,5.5c0,0.3,0,0.6,0.1,0.9C58.6,57.6,61.5,55.2,64.9,55.2z M117.4,67.3c4.4,1.6,7.2,4.3,6.8,6.9
				c-0.6,3.5-6.6,5.7-13.6,4.7c0,0,0,0,0,0c1,0.4,2.2,0.6,3.4,0.8c5.9,0.8,11.2-1.4,11.7-4.9C126.2,71.6,122.6,68.4,117.4,67.3z
				 M76.7,74.8c-0.3-2.2,0.3-4.3,1.7-6.2c-2.4,2-3.7,4.9-3.2,7.8c0.8,4.8,6.1,8,11.9,7.1c1.9-0.3,3.7-1,5.1-2
				c-0.8,0.3-1.6,0.5-2.5,0.6C83.2,83.2,77.5,79.9,76.7,74.8z"/>
		</g>
	</g>
</g>
</svg>
