<?xml version="1.0" encoding="utf-8"?>
<!-- Generator: Adobe Illustrator 19.1.0, SVG Export Plug-In . SVG Version: 6.00 Build 0)  -->
<svg version="1.1" xmlns="http://www.w3.org/2000/svg" xmlns:xlink="http://www.w3.org/1999/xlink" x="0px" y="0px"
	 viewBox="0 0 121 110" style="enable-background:new 0 0 121 110;" xml:space="preserve">
<style type="text/css">
	.st0{fill:#94A7AF;}
	.st1{fill:url(#SVGID_1_);}
	.st2{fill:url(#SVGID_2_);}
	.st3{fill:url(#SVGID_3_);}
	.st4{fill:url(#SVGID_4_);}
	.st5{fill:#263032;}
	.st6{fill:url(#SVGID_5_);}
	.st7{fill:url(#SVGID_6_);}
	.st8{fill:url(#SVGID_7_);}
	.st9{fill:url(#SVGID_8_);}
	.st10{fill:url(#SVGID_9_);}
	.st11{fill:url(#SVGID_10_);}
	.st12{fill:url(#SVGID_11_);}
	.st13{fill:url(#SVGID_12_);}
	.st14{fill:url(#SVGID_13_);}
	.st15{fill:url(#SVGID_14_);}
	.st16{fill:url(#SVGID_15_);}
	.st17{fill:url(#SVGID_16_);}
	.st18{fill:url(#SVGID_17_);}
	.st19{fill:url(#SVGID_18_);}
	.st20{fill:url(#SVGID_19_);}
	.st21{fill:url(#SVGID_20_);}
	.st22{fill:url(#SVGID_21_);}
	.st23{fill:url(#SVGID_22_);}
	.st24{fill:url(#SVGID_23_);}
	.st25{fill:url(#SVGID_24_);}
	.st26{fill:url(#SVGID_25_);}
	.st27{fill:url(#SVGID_26_);}
</style>
<g id="Layer_1">
</g>
<g id="Layer_2">
	<g>
		<g>
			<g>
				<path class="st0" d="M49.4,58.2c-5.3,0-10.1-2.1-13.1-5.7c-1.7,1.8-4,2.8-6.4,2.8c-0.5,0-1,0-1.5-0.1c-2.6-0.5-4.9-2.1-6.2-4.4
					c-2.2,1.2-4.6,1.8-7.1,1.8c-7.9,0-14.3-6-14.3-13.5C0.8,32.3,6,26.7,13,25.7c0.3-4.6,4.2-8.2,8.9-8.2c0.8,0,1.5,0.1,2.3,0.3
					c-0.6-7.4,6.4-14.4,16-16c1.2-0.2,2.5-0.3,3.7-0.3c4.5,0,8.7,1.3,11.8,3.7C56.6,5.1,57.5,5,58.5,5c3.2,0,6.7,1.1,9.8,3
					c5,3.1,8.3,7.8,8.4,12c0.1,0,0.3,0,0.4,0.1c3.8,0.6,7.3,2.1,9.8,4.2c2.6,2.2,3.8,4.9,3.4,7.6c-0.1,0.4-0.2,0.9-0.3,1.3
					c6.8,1.9,11.1,6.5,10.4,11.2c-0.7,4.6-5.9,7.8-12.8,7.8c-1,0-2.1-0.1-3.2-0.2c-2.3-0.3-4.5-1-6.5-2c-1.6,1.6-3.8,2.4-6.1,2.4
					c-0.5,0-1,0-1.6-0.1c-1.9-0.3-3.6-1.3-4.9-2.7c-2.5,4.4-7.3,7.6-12.9,8.4C51.4,58.1,50.4,58.2,49.4,58.2L49.4,58.2z"/>
				<radialGradient id="SVGID_1_" cx="52.3691" cy="-15.2706" r="107.5698" gradientUnits="userSpaceOnUse">
					<stop  offset="0" style="stop-color:#F4F5F9"/>
					<stop  offset="9.296446e-02" style="stop-color:#EFF1F6"/>
					<stop  offset="0.1971" style="stop-color:#E2E7EE"/>
					<stop  offset="0.3066" style="stop-color:#CCD5E0"/>
					<stop  offset="0.4191" style="stop-color:#ACBDCD"/>
					<stop  offset="0.4634" style="stop-color:#9EB2C4"/>
					<stop  offset="0.5471" style="stop-color:#91A4B4"/>
					<stop  offset="0.7112" style="stop-color:#6E7E8A"/>
					<stop  offset="0.9378" style="stop-color:#364246"/>
					<stop  offset="1" style="stop-color:#263032"/>
				</radialGradient>
				<path class="st1" d="M89.1,33.6c0.3-0.6,0.5-1.2,0.6-1.8c0.7-5-4.9-9.9-12.6-11c-0.3-0.1-0.6-0.1-1-0.1c0.2-4-2.9-8.9-8.1-12.1
					C63.7,5.9,59,5.1,55.6,6c-3.7-3-9.3-4.4-15.2-3.5C30.7,4,23.8,11.2,25,18.6c0,0.1,0,0.1,0,0.2c-1-0.4-2-0.6-3.1-0.6
					c-4.6,0-8.3,3.6-8.3,8.1c0,0,0,0,0,0.1C6.8,27,1.4,32.4,1.4,39c0,7.1,6.1,12.8,13.6,12.8c2.7,0,5.3-0.8,7.4-2
					c1.1,2.4,3.3,4.2,6,4.7c3.1,0.5,6-0.7,7.8-3c3.2,4.4,9.4,6.9,16.1,5.9c6-0.9,10.8-4.5,12.9-9c1.2,1.6,3,2.9,5.2,3.2
					c2.8,0.5,5.6-0.5,7.4-2.5c1.9,1,4.2,1.8,6.7,2.2c7.7,1.1,14.5-2,15.2-7C100.4,39.7,95.8,35.2,89.1,33.6z"/>
				<radialGradient id="SVGID_2_" cx="66.6879" cy="-34.8116" r="120.1097" gradientUnits="userSpaceOnUse">
					<stop  offset="0" style="stop-color:#F4F5F9"/>
					<stop  offset="9.296446e-02" style="stop-color:#EFF1F6"/>
					<stop  offset="0.1971" style="stop-color:#E2E7EE"/>
					<stop  offset="0.3066" style="stop-color:#CCD5E0"/>
					<stop  offset="0.4191" style="stop-color:#ACBDCD"/>
					<stop  offset="0.4634" style="stop-color:#9EB2C4"/>
					<stop  offset="0.5471" style="stop-color:#91A4B4"/>
					<stop  offset="0.7112" style="stop-color:#6E7E8A"/>
					<stop  offset="0.9378" style="stop-color:#364246"/>
					<stop  offset="1" style="stop-color:#263032"/>
				</radialGradient>
				<path class="st2" d="M28.4,19.9c0.1,0.5,0.2,1,0.4,1.5c-0.7-1.1-1.3-2.3-1.5-3.7c-1-6.4,5-12.7,13.4-14c7.7-1.2,11,0.8,14.2,5.1
					c-4.1-2.6-6.5-3.9-13.1-2.9C33.3,7.2,27.3,13.5,28.4,19.9z M67.4,9.6C61.6,6.1,55,6.2,52.7,10c-0.5,0.9-0.8,1.9-0.8,2.9
					c0.1-0.6,0.3-1.3,0.6-1.8c2.2-3.6,8.4-3.7,13.9-0.3c5.5,3.4,8.2,9,6,12.5c-0.7,1.2-2,2-3.4,2.4c2.1-0.3,3.8-1.2,4.8-2.8
					C76.1,19.2,73.3,13.2,67.4,9.6z M77.8,22.3c-1.4-0.2-2.8-0.2-4.1-0.1c0.4,0,0.9,0.1,1.3,0.2c7.4,1.1,12.8,5.8,12.1,10.6
					c-0.1,0.4-0.2,0.8-0.3,1.2c0.7-0.8,1.1-1.7,1.3-2.7C88.8,27.3,84.2,23.3,77.8,22.3z M16.1,48.9c0.9,0,1.7-0.1,2.5-0.3
					c-1.3,0.5-2.8,0.8-4.4,0.8C8,49.5,3,44.8,3,39c0-5.8,5-10.5,11.2-10.5c0.6,0,1.3,0.1,1.9,0.2c-5.8,0-10.6,4.5-10.6,10.1
					C5.5,44.4,10.3,48.9,16.1,48.9z M29.1,52.1c-3.4-0.6-5.8-4.6-5.8-7.9c-0.2,0.4-0.3,0.9-0.4,1.4c-0.7,3.8,1.9,7.4,5.7,8.1
					c3.8,0.7,7.5-1.8,8.1-5.6c0.1-0.4,0.1-0.7,0.1-1.1C35.6,49.9,32.5,52.7,29.1,52.1z M64.4,42.2c-0.1-0.8-0.4-1.7-0.7-2.4
					c0,0.2,0.1,0.3,0.1,0.5c1,6.4-4.3,12.5-11.8,13.7c-7.5,1.2-14.4-3-15.4-9.4c0-0.2,0-0.4-0.1-0.5c-0.1,0.8-0.1,1.7,0.1,2.6
					c1,6.4,8,10.6,15.7,9.4C60,54.7,65.4,48.6,64.4,42.2z M70.8,49.9c-2.2-0.4-4-1.6-5.2-3.2c1,2,3,3.5,5.4,4c3.3,0.6,6.5-1.1,8-4
					C77.1,49.2,74,50.5,70.8,49.9z M23.4,19.9c0.8,0,1.6,0.2,2.4,0.4c-1.2-0.8-2.6-1.3-4.1-1.3c-3.9,0-7,3.1-7,6.9
					c0,0.4,0.1,0.7,0.1,1.1C15.6,22.8,19.1,19.9,23.4,19.9z M88.3,34.7c5.4,1.9,8.9,5.3,8.4,8.6c-0.7,4.4-8.2,7-16.7,5.9
					c0,0,0,0,0,0c1.3,0.4,2.7,0.8,4.2,1c7.3,1,13.8-1.8,14.5-6.1C99.1,40,94.7,36.1,88.3,34.7z M37.9,44.1c-0.4-2.7,0.4-5.3,2-7.6
					c-2.9,2.5-4.5,6-4,9.6c0.9,6,7.5,9.9,14.7,8.8c2.4-0.4,4.5-1.3,6.3-2.5c-1,0.3-2,0.6-3.1,0.8C46,54.4,38.9,50.3,37.9,44.1z"/>
			</g>
			<g>
				<path class="st0" d="M81.3,58.7c-4,0-7.7-1.6-9.9-4.3c-1.3,1.3-3,2.1-4.8,2.1c-0.4,0-0.8,0-1.2-0.1c-2-0.4-3.7-1.6-4.7-3.3
					c-1.6,0.9-3.5,1.4-5.4,1.4c-6,0-10.8-4.6-10.8-10.2c0-5.1,4-9.3,9.3-10c0.2-3.5,3.2-6.2,6.7-6.2c0.6,0,1.2,0.1,1.7,0.2
					c-0.4-5.6,4.8-10.9,12.1-12.1c0.9-0.1,1.9-0.2,2.8-0.2c3.4,0,6.6,1,8.9,2.8c0.7-0.1,1.3-0.2,2.1-0.2c2.4,0,5,0.8,7.4,2.3
					c3.8,2.3,6.3,5.9,6.4,9.1c0.1,0,0.2,0,0.3,0c2.9,0.4,5.5,1.6,7.4,3.2c1.9,1.7,2.8,3.7,2.5,5.7c0,0.3-0.1,0.6-0.2,1
					c5.1,1.4,8.4,4.9,7.9,8.5c-0.5,3.5-4.5,5.9-9.7,5.9c-0.8,0-1.6-0.1-2.4-0.2c-1.7-0.3-3.4-0.8-4.9-1.5c-1.2,1.2-2.9,1.8-4.6,1.8
					c-0.4,0-0.8,0-1.2-0.1c-1.4-0.3-2.7-1-3.7-2c-1.9,3.3-5.5,5.7-9.7,6.4C82.9,58.7,82.1,58.7,81.3,58.7L81.3,58.7z"/>
				<radialGradient id="SVGID_3_" cx="83.5454" cy="3.27" r="81.2235" gradientUnits="userSpaceOnUse">
					<stop  offset="0" style="stop-color:#F4F5F9"/>
					<stop  offset="9.296446e-02" style="stop-color:#EFF1F6"/>
					<stop  offset="0.1971" style="stop-color:#E2E7EE"/>
					<stop  offset="0.3066" style="stop-color:#CCD5E0"/>
					<stop  offset="0.4191" style="stop-color:#ACBDCD"/>
					<stop  offset="0.4634" style="stop-color:#9EB2C4"/>
					<stop  offset="0.5471" style="stop-color:#91A4B4"/>
					<stop  offset="0.7112" style="stop-color:#6E7E8A"/>
					<stop  offset="0.9378" style="stop-color:#364246"/>
					<stop  offset="1" style="stop-color:#263032"/>
				</radialGradient>
				<path class="st3" d="M111.3,40.2c0.2-0.4,0.4-0.9,0.4-1.4c0.5-3.8-3.7-7.5-9.5-8.3c-0.2,0-0.5-0.1-0.7-0.1
					c0.1-3-2.2-6.7-6.1-9.1c-3.2-2-6.7-2.6-9.4-1.9c-2.8-2.2-7-3.3-11.5-2.6c-7.3,1.1-12.5,6.6-11.6,12.1c0,0.1,0,0.1,0,0.2
					c-0.7-0.3-1.5-0.4-2.3-0.4c-3.5,0-6.3,2.7-6.3,6.1c0,0,0,0,0,0c-5.2,0.5-9.3,4.6-9.3,9.6c0,5.3,4.6,9.7,10.3,9.7
					c2.1,0,4-0.6,5.6-1.5c0.8,1.8,2.5,3.1,4.5,3.5c2.3,0.4,4.6-0.5,5.9-2.3c2.4,3.3,7.1,5.2,12.1,4.4c4.5-0.7,8.1-3.4,9.7-6.8
					c0.9,1.2,2.3,2.2,3.9,2.4c2.1,0.4,4.2-0.4,5.6-1.9c1.4,0.8,3.2,1.4,5.1,1.6c5.8,0.8,10.9-1.5,11.5-5.3
					C119.8,44.8,116.3,41.4,111.3,40.2z"/>
				<radialGradient id="SVGID_4_" cx="94.3569" cy="-11.4824" r="90.6905" gradientUnits="userSpaceOnUse">
					<stop  offset="0" style="stop-color:#F4F5F9"/>
					<stop  offset="9.296446e-02" style="stop-color:#EFF1F6"/>
					<stop  offset="0.1971" style="stop-color:#E2E7EE"/>
					<stop  offset="0.3066" style="stop-color:#CCD5E0"/>
					<stop  offset="0.4191" style="stop-color:#ACBDCD"/>
					<stop  offset="0.4634" style="stop-color:#9EB2C4"/>
					<stop  offset="0.5471" style="stop-color:#91A4B4"/>
					<stop  offset="0.7112" style="stop-color:#6E7E8A"/>
					<stop  offset="0.9378" style="stop-color:#364246"/>
					<stop  offset="1" style="stop-color:#263032"/>
				</radialGradient>
				<path class="st4" d="M65.4,29.8c0.1,0.4,0.2,0.8,0.3,1.1c-0.6-0.8-0.9-1.8-1.1-2.8c-0.8-4.8,3.8-9.6,10.1-10.6
					c5.8-0.9,8.3,0.6,10.7,3.9c-3.1-1.9-4.9-3-9.9-2.2C69.2,20.3,64.6,25,65.4,29.8z M94.9,22.1c-4.4-2.7-9.4-2.6-11.1,0.3
					c-0.4,0.7-0.6,1.4-0.6,2.2c0.1-0.5,0.2-0.9,0.5-1.4c1.7-2.7,6.3-2.8,10.5-0.3c4.1,2.5,6.2,6.8,4.5,9.5c-0.6,0.9-1.5,1.5-2.6,1.8
					c1.6-0.2,2.9-0.9,3.6-2.1C101.5,29.3,99.3,24.8,94.9,22.1z M102.8,31.7c-1.1-0.1-2.1-0.2-3.1-0.1c0.3,0,0.7,0.1,1,0.1
					c5.6,0.8,9.7,4.4,9.2,8c0,0.3-0.1,0.6-0.2,0.9c0.5-0.6,0.9-1.3,1-2.1C111.1,35.4,107.6,32.4,102.8,31.7z M56.2,51.8
					c0.7,0,1.3-0.1,1.9-0.2c-1,0.4-2.1,0.6-3.3,0.6c-4.7,0-8.4-3.5-8.4-7.9c0-4.4,3.8-7.9,8.4-7.9c0.5,0,1,0,1.4,0.1
					c-4.4,0-8,3.4-8,7.7C48.2,48.3,51.8,51.8,56.2,51.8z M66,54.1c-2.6-0.5-4.4-3.5-4.4-6c-0.1,0.3-0.2,0.7-0.3,1.1
					c-0.5,2.9,1.4,5.6,4.3,6.1c2.9,0.5,5.6-1.4,6.1-4.3c0-0.3,0.1-0.5,0.1-0.8C70.9,52.5,68.5,54.6,66,54.1z M92.6,46.7
					c-0.1-0.6-0.3-1.2-0.5-1.8c0,0.1,0.1,0.2,0.1,0.4c0.8,4.8-3.2,9.5-8.9,10.3c-5.7,0.9-10.9-2.3-11.6-7.1c0-0.1,0-0.3,0-0.4
					c-0.1,0.6-0.1,1.3,0,1.9c0.8,4.8,6.1,8,11.9,7.1C89.3,56.1,93.4,51.5,92.6,46.7z M97.4,52.5c-1.6-0.3-3-1.2-3.9-2.4
					c0.8,1.5,2.2,2.7,4,3c2.5,0.4,4.9-0.8,6-3C102.2,51.9,99.9,52.9,97.4,52.5z M61.7,29.8c0.6,0,1.2,0.1,1.8,0.3
					c-0.9-0.6-1.9-1-3.1-1c-2.9,0-5.3,2.3-5.3,5.2c0,0.3,0,0.5,0.1,0.8C55.8,32,58.4,29.8,61.7,29.8z M110.7,41
					c4.1,1.5,6.7,4,6.3,6.5c-0.5,3.3-6.2,5.3-12.6,4.4c0,0,0,0,0,0c1,0.3,2,0.6,3.1,0.7c5.5,0.7,10.4-1.3,10.9-4.6
					C118.9,45,115.5,42.1,110.7,41z M72.6,48.1c-0.3-2,0.3-4,1.5-5.7c-2.2,1.9-3.4,4.5-3,7.2c0.7,4.5,5.7,7.5,11.1,6.6
					c1.8-0.3,3.4-0.9,4.7-1.9c-0.7,0.3-1.5,0.5-2.4,0.6C78.8,55.9,73.4,52.8,72.6,48.1z"/>
			</g>
			<g>
				<path class="st5" d="M42.3,71c-3.7,0-7.1-1.5-9.2-4c-1.2,1.2-2.8,1.9-4.5,1.9c-0.4,0-0.7,0-1.1-0.1c-1.8-0.3-3.4-1.5-4.3-3.1
					c-1.5,0.8-3.2,1.3-5,1.3c-5.5,0-10-4.2-10-9.4c0-4.7,3.7-8.7,8.6-9.3c0.2-3.2,2.9-5.7,6.2-5.7c0.5,0,1.1,0.1,1.6,0.2
					c-0.4-5.2,4.5-10.1,11.2-11.2c0.9-0.1,1.7-0.2,2.6-0.2c3.2,0,6.1,0.9,8.3,2.6c0.6-0.1,1.3-0.2,1.9-0.2c2.2,0,4.7,0.7,6.9,2.1
					c3.5,2.1,5.8,5.5,5.9,8.4c0.1,0,0.2,0,0.3,0c2.7,0.4,5.1,1.4,6.9,3c1.8,1.6,2.6,3.5,2.4,5.3c0,0.3-0.1,0.6-0.2,0.9
					c4.7,1.3,7.8,4.5,7.3,7.9c-0.5,3.2-4.1,5.5-9,5.5c-0.7,0-1.5-0.1-2.2-0.2c-1.6-0.2-3.2-0.7-4.5-1.4c-1.1,1.1-2.7,1.7-4.3,1.7
					c-0.4,0-0.7,0-1.1-0.1c-1.3-0.2-2.5-0.9-3.5-1.9c-1.7,3.1-5.1,5.3-9,5.9C43.7,70.9,43,71,42.3,71L42.3,71z"/>
				<radialGradient id="SVGID_5_" cx="44.3696" cy="19.5725" r="75.3044" gradientUnits="userSpaceOnUse">
					<stop  offset="0" style="stop-color:#9EB2C4"/>
					<stop  offset="0.156" style="stop-color:#91A4B4"/>
					<stop  offset="0.4618" style="stop-color:#6E7E8A"/>
					<stop  offset="0.8841" style="stop-color:#364246"/>
					<stop  offset="1" style="stop-color:#263032"/>
				</radialGradient>
				<path class="st6" d="M70.1,53.8c0.2-0.4,0.3-0.8,0.4-1.3c0.5-3.5-3.4-7-8.8-7.7c-0.2,0-0.4-0.1-0.7-0.1c0.1-2.8-2-6.2-5.7-8.4
					c-3-1.8-6.3-2.4-8.7-1.8c-2.6-2.1-6.5-3.1-10.7-2.4c-6.7,1.1-11.5,6.1-10.7,11.2c0,0,0,0.1,0,0.1c-0.7-0.3-1.4-0.4-2.2-0.4
					c-3.2,0-5.8,2.5-5.8,5.7c0,0,0,0,0,0c-4.8,0.5-8.6,4.3-8.6,8.9c0,4.9,4.3,9,9.5,9c1.9,0,3.7-0.5,5.2-1.4
					c0.8,1.6,2.3,2.9,4.2,3.3c2.2,0.4,4.2-0.5,5.5-2.1c2.2,3.1,6.6,4.8,11.3,4.1c4.2-0.7,7.5-3.1,9-6.3c0.8,1.1,2.1,2,3.6,2.3
					c2,0.4,3.9-0.4,5.2-1.7c1.3,0.7,2.9,1.3,4.7,1.5c5.4,0.8,10.2-1.4,10.7-4.9C78,58,74.7,54.9,70.1,53.8z"/>
				<radialGradient id="SVGID_6_" cx="54.3942" cy="5.8904" r="84.088" gradientUnits="userSpaceOnUse">
					<stop  offset="0" style="stop-color:#9EB2C4"/>
					<stop  offset="0.156" style="stop-color:#91A4B4"/>
					<stop  offset="0.4618" style="stop-color:#6E7E8A"/>
					<stop  offset="0.8841" style="stop-color:#364246"/>
					<stop  offset="1" style="stop-color:#263032"/>
				</radialGradient>
				<path class="st7" d="M27.6,44.2c0.1,0.4,0.2,0.7,0.3,1c-0.5-0.8-0.9-1.6-1-2.6c-0.7-4.5,3.5-8.9,9.4-9.8
					c5.4-0.9,7.7,0.5,9.9,3.6c-2.9-1.8-4.5-2.8-9.2-2C31,35.3,26.8,39.7,27.6,44.2z M54.9,37c-4.1-2.5-8.7-2.4-10.3,0.3
					c-0.4,0.6-0.6,1.3-0.6,2.1c0.1-0.4,0.2-0.9,0.4-1.3c1.5-2.5,5.9-2.6,9.7-0.2c3.8,2.4,5.7,6.3,4.2,8.8C57.9,47.4,57,48,56,48.3
					c1.5-0.2,2.7-0.9,3.4-2C61,43.7,59,39.5,54.9,37z M62.2,45.9c-1-0.1-1.9-0.2-2.8-0.1c0.3,0,0.6,0.1,0.9,0.1
					c5.2,0.8,9,4.1,8.5,7.4c0,0.3-0.1,0.5-0.2,0.8c0.5-0.6,0.8-1.2,0.9-1.9C69.9,49.4,66.6,46.5,62.2,45.9z M19,64.5
					c0.6,0,1.2-0.1,1.7-0.2c-0.9,0.4-2,0.6-3.1,0.6c-4.3,0-7.8-3.3-7.8-7.3c0-4.1,3.5-7.3,7.8-7.3c0.5,0,0.9,0,1.3,0.1
					c-4.1,0-7.4,3.2-7.4,7.1C11.6,61.3,14.9,64.5,19,64.5z M28.1,66.7c-2.4-0.4-4.1-3.2-4-5.6c-0.1,0.3-0.2,0.6-0.3,1
					c-0.5,2.7,1.3,5.2,4,5.7c2.7,0.5,5.2-1.3,5.7-3.9c0-0.3,0.1-0.5,0.1-0.8C32.7,65.2,30.4,67.2,28.1,66.7z M52.8,59.8
					c-0.1-0.6-0.3-1.2-0.5-1.7c0,0.1,0.1,0.2,0.1,0.3c0.7,4.5-3,8.8-8.3,9.6c-5.3,0.8-10.1-2.1-10.8-6.6c0-0.1,0-0.3,0-0.4
					c-0.1,0.6-0.1,1.2,0,1.8c0.7,4.5,5.6,7.4,11,6.6C49.7,68.6,53.5,64.3,52.8,59.8z M57.3,65.2c-1.5-0.3-2.8-1.1-3.6-2.2
					c0.7,1.4,2.1,2.5,3.8,2.8c2.3,0.4,4.6-0.8,5.6-2.8C61.7,64.7,59.5,65.6,57.3,65.2z M24.1,44.2c0.6,0,1.1,0.1,1.7,0.3
					c-0.8-0.6-1.8-0.9-2.9-0.9c-2.7,0-4.9,2.1-4.9,4.8c0,0.3,0,0.5,0.1,0.7C18.6,46.3,21.1,44.2,24.1,44.2z M69.5,54.6
					c3.8,1.4,6.2,3.7,5.8,6c-0.5,3.1-5.7,4.9-11.7,4.1c0,0,0,0,0,0c0.9,0.3,1.9,0.5,2.9,0.7c5.1,0.7,9.7-1.2,10.1-4.3
					C77.1,58.3,74,55.5,69.5,54.6z M34.3,61.1c-0.3-1.9,0.3-3.7,1.4-5.3c-2.1,1.7-3.2,4.2-2.8,6.7c0.7,4.2,5.3,6.9,10.3,6.1
					c1.7-0.3,3.2-0.9,4.4-1.7c-0.7,0.2-1.4,0.4-2.2,0.6C39.9,68.3,34.9,65.5,34.3,61.1z"/>
			</g>
		</g>
		<g>
			<g>
				<g>
					<g>
						<linearGradient id="SVGID_7_" gradientUnits="userSpaceOnUse" x1="82.0585" y1="77.0485" x2="90.9057" y2="77.0485">
							<stop  offset="3.095980e-03" style="stop-color:#859CA8"/>
							<stop  offset="1.450024e-02" style="stop-color:#879EAA"/>
							<stop  offset="0.2354" style="stop-color:#B2C1C8"/>
							<stop  offset="0.4498" style="stop-color:#D4DCE0"/>
							<stop  offset="0.6534" style="stop-color:#ECEFF1"/>
							<stop  offset="0.8418" style="stop-color:#FAFBFB"/>
							<stop  offset="1" style="stop-color:#FFFFFF"/>
						</linearGradient>
						<path class="st8" d="M88.7,80.9c-2.1,1.2-4.8,0.5-6.1-1.5c-1.2-2.1-0.6-4.8,1.5-6.1c2.1-1.3,4.8-0.6,6.1,1.5
							C91.5,76.9,90.8,79.6,88.7,80.9z"/>
						<linearGradient id="SVGID_8_" gradientUnits="userSpaceOnUse" x1="50.3819" y1="78.7724" x2="56.2733" y2="78.7724">
							<stop  offset="3.095980e-03" style="stop-color:#859CA8"/>
							<stop  offset="1.450024e-02" style="stop-color:#879EAA"/>
							<stop  offset="0.2354" style="stop-color:#B2C1C8"/>
							<stop  offset="0.4498" style="stop-color:#D4DCE0"/>
							<stop  offset="0.6534" style="stop-color:#ECEFF1"/>
							<stop  offset="0.8418" style="stop-color:#FAFBFB"/>
							<stop  offset="1" style="stop-color:#FFFFFF"/>
						</linearGradient>
						<path class="st9" d="M54.8,81.3c-1.4,0.8-3.2,0.4-4-1c-0.8-1.4-0.4-3.2,1-4c1.4-0.8,3.2-0.4,4,1
							C56.7,78.7,56.2,80.5,54.8,81.3z"/>
						<linearGradient id="SVGID_9_" gradientUnits="userSpaceOnUse" x1="75.9473" y1="90.6832" x2="77.9085" y2="90.6832">
							<stop  offset="3.095980e-03" style="stop-color:#859CA8"/>
							<stop  offset="1.450024e-02" style="stop-color:#879EAA"/>
							<stop  offset="0.2354" style="stop-color:#B2C1C8"/>
							<stop  offset="0.4498" style="stop-color:#D4DCE0"/>
							<stop  offset="0.6534" style="stop-color:#ECEFF1"/>
							<stop  offset="0.8418" style="stop-color:#FAFBFB"/>
							<stop  offset="1" style="stop-color:#FFFFFF"/>
						</linearGradient>
						<path class="st10" d="M77.4,91.5c-0.4,0.3-1,0.1-1.3-0.4c-0.3-0.5-0.1-1.1,0.3-1.4c0.5-0.3,1.1-0.1,1.4,0.3
							C78,90.7,77.9,91.2,77.4,91.5z"/>
						<linearGradient id="SVGID_10_" gradientUnits="userSpaceOnUse" x1="92.0275" y1="91.7324" x2="100.8667" y2="91.7324">
							<stop  offset="3.095980e-03" style="stop-color:#859CA8"/>
							<stop  offset="1.450024e-02" style="stop-color:#879EAA"/>
							<stop  offset="0.2354" style="stop-color:#B2C1C8"/>
							<stop  offset="0.4498" style="stop-color:#D4DCE0"/>
							<stop  offset="0.6534" style="stop-color:#ECEFF1"/>
							<stop  offset="0.8418" style="stop-color:#FAFBFB"/>
							<stop  offset="1" style="stop-color:#FFFFFF"/>
						</linearGradient>
						<path class="st11" d="M98.7,95.5c-2.1,1.2-4.8,0.6-6.1-1.6c-1.2-2.1-0.5-4.8,1.5-6.1c2.1-1.3,4.8-0.5,6.1,1.6
							C101.5,91.6,100.8,94.3,98.7,95.5z"/>
						<linearGradient id="SVGID_11_" gradientUnits="userSpaceOnUse" x1="83.7686" y1="102.7257" x2="88.6703" y2="102.7257">
							<stop  offset="3.095980e-03" style="stop-color:#859CA8"/>
							<stop  offset="1.450024e-02" style="stop-color:#879EAA"/>
							<stop  offset="0.2354" style="stop-color:#B2C1C8"/>
							<stop  offset="0.4498" style="stop-color:#D4DCE0"/>
							<stop  offset="0.6534" style="stop-color:#ECEFF1"/>
							<stop  offset="0.8418" style="stop-color:#FAFBFB"/>
							<stop  offset="1" style="stop-color:#FFFFFF"/>
						</linearGradient>
						<path class="st12" d="M87.5,104.9c-1.2,0.7-2.7,0.3-3.4-0.9c-0.7-1.2-0.3-2.7,0.8-3.4c1.2-0.7,2.7-0.3,3.4,0.8
							C89,102.7,88.6,104.1,87.5,104.9z"/>
						<linearGradient id="SVGID_12_" gradientUnits="userSpaceOnUse" x1="45.9119" y1="86.8969" x2="50.8134" y2="86.8969">
							<stop  offset="3.095980e-03" style="stop-color:#859CA8"/>
							<stop  offset="1.450024e-02" style="stop-color:#879EAA"/>
							<stop  offset="0.2354" style="stop-color:#B2C1C8"/>
							<stop  offset="0.4498" style="stop-color:#D4DCE0"/>
							<stop  offset="0.6534" style="stop-color:#ECEFF1"/>
							<stop  offset="0.8418" style="stop-color:#FAFBFB"/>
							<stop  offset="1" style="stop-color:#FFFFFF"/>
						</linearGradient>
						<path class="st13" d="M49.6,89c-1.2,0.7-2.7,0.3-3.4-0.9c-0.7-1.2-0.3-2.7,0.8-3.4c1.2-0.7,2.7-0.3,3.4,0.8
							C51.2,86.8,50.8,88.3,49.6,89z"/>
						<linearGradient id="SVGID_13_" gradientUnits="userSpaceOnUse" x1="75.853" y1="75.6914" x2="80.7732" y2="75.6914">
							<stop  offset="3.095980e-03" style="stop-color:#859CA8"/>
							<stop  offset="1.450024e-02" style="stop-color:#879EAA"/>
							<stop  offset="0.2354" style="stop-color:#B2C1C8"/>
							<stop  offset="0.4498" style="stop-color:#D4DCE0"/>
							<stop  offset="0.6534" style="stop-color:#ECEFF1"/>
							<stop  offset="0.8418" style="stop-color:#FAFBFB"/>
							<stop  offset="1" style="stop-color:#FFFFFF"/>
						</linearGradient>
						<path class="st14" d="M79.6,77.8c-1.1,0.7-2.7,0.3-3.4-0.8c-0.7-1.2-0.3-2.7,0.9-3.4c1.2-0.7,2.7-0.3,3.4,0.9
							C81.1,75.6,80.7,77.1,79.6,77.8z"/>
						<linearGradient id="SVGID_14_" gradientUnits="userSpaceOnUse" x1="61.8028" y1="92.0465" x2="71.6288" y2="92.0465">
							<stop  offset="3.095980e-03" style="stop-color:#859CA8"/>
							<stop  offset="1.450024e-02" style="stop-color:#879EAA"/>
							<stop  offset="0.2354" style="stop-color:#B2C1C8"/>
							<stop  offset="0.4498" style="stop-color:#D4DCE0"/>
							<stop  offset="0.6534" style="stop-color:#ECEFF1"/>
							<stop  offset="0.8418" style="stop-color:#FAFBFB"/>
							<stop  offset="1" style="stop-color:#FFFFFF"/>
						</linearGradient>
						<path class="st15" d="M69.2,96.3c-2.3,1.4-5.4,0.6-6.7-1.7c-1.4-2.4-0.6-5.4,1.7-6.7c2.3-1.4,5.3-0.6,6.7,1.7
							C72.3,91.9,71.6,94.9,69.2,96.3z"/>
						<linearGradient id="SVGID_15_" gradientUnits="userSpaceOnUse" x1="59.0716" y1="102.2077" x2="63.9981" y2="102.2077">
							<stop  offset="3.095980e-03" style="stop-color:#859CA8"/>
							<stop  offset="1.450024e-02" style="stop-color:#879EAA"/>
							<stop  offset="0.2354" style="stop-color:#B2C1C8"/>
							<stop  offset="0.4498" style="stop-color:#D4DCE0"/>
							<stop  offset="0.6534" style="stop-color:#ECEFF1"/>
							<stop  offset="0.8418" style="stop-color:#FAFBFB"/>
							<stop  offset="1" style="stop-color:#FFFFFF"/>
						</linearGradient>
						<path class="st16" d="M62.8,104.3c-1.2,0.7-2.7,0.3-3.4-0.9c-0.7-1.2-0.3-2.7,0.9-3.4c1.2-0.7,2.7-0.3,3.4,0.9
							C64.3,102.1,64,103.6,62.8,104.3z"/>
						<linearGradient id="SVGID_16_" gradientUnits="userSpaceOnUse" x1="24.9608" y1="79.439" x2="27.9057" y2="79.439">
							<stop  offset="3.095980e-03" style="stop-color:#859CA8"/>
							<stop  offset="1.450024e-02" style="stop-color:#879EAA"/>
							<stop  offset="0.2354" style="stop-color:#B2C1C8"/>
							<stop  offset="0.4498" style="stop-color:#D4DCE0"/>
							<stop  offset="0.6534" style="stop-color:#ECEFF1"/>
							<stop  offset="0.8418" style="stop-color:#FAFBFB"/>
							<stop  offset="1" style="stop-color:#FFFFFF"/>
						</linearGradient>
						<path class="st17" d="M27.2,80.7c-0.7,0.4-1.6,0.2-2-0.5c-0.4-0.7-0.2-1.6,0.5-2c0.7-0.4,1.6-0.2,2,0.5
							C28.1,79.4,27.9,80.3,27.2,80.7z"/>
						<linearGradient id="SVGID_17_" gradientUnits="userSpaceOnUse" x1="97.7888" y1="81.3707" x2="102.5553" y2="81.3707">
							<stop  offset="3.095980e-03" style="stop-color:#859CA8"/>
							<stop  offset="1.450024e-02" style="stop-color:#879EAA"/>
							<stop  offset="0.2354" style="stop-color:#B2C1C8"/>
							<stop  offset="0.4498" style="stop-color:#D4DCE0"/>
							<stop  offset="0.6534" style="stop-color:#ECEFF1"/>
							<stop  offset="0.8418" style="stop-color:#FAFBFB"/>
							<stop  offset="1" style="stop-color:#FFFFFF"/>
						</linearGradient>
						<path class="st18" d="M101.4,83.4c-1.1,0.7-2.6,0.3-3.3-0.8c-0.7-1.1-0.3-2.6,0.8-3.3c1.1-0.7,2.6-0.3,3.2,0.8
							C102.9,81.3,102.5,82.8,101.4,83.4z"/>
						<linearGradient id="SVGID_18_" gradientUnits="userSpaceOnUse" x1="36.5821" y1="93.4577" x2="45.4197" y2="93.4577">
							<stop  offset="3.095980e-03" style="stop-color:#859CA8"/>
							<stop  offset="1.450024e-02" style="stop-color:#879EAA"/>
							<stop  offset="0.2354" style="stop-color:#B2C1C8"/>
							<stop  offset="0.4498" style="stop-color:#D4DCE0"/>
							<stop  offset="0.6534" style="stop-color:#ECEFF1"/>
							<stop  offset="0.8418" style="stop-color:#FAFBFB"/>
							<stop  offset="1" style="stop-color:#FFFFFF"/>
						</linearGradient>
						<path class="st19" d="M43.3,97.3c-2.1,1.2-4.8,0.6-6.1-1.6c-1.2-2.1-0.5-4.8,1.5-6.1c2.1-1.3,4.8-0.5,6.1,1.6
							C46,93.3,45.3,96,43.3,97.3z"/>
						<linearGradient id="SVGID_19_" gradientUnits="userSpaceOnUse" x1="30.5489" y1="85.2965" x2="35.451" y2="85.2965">
							<stop  offset="3.095980e-03" style="stop-color:#859CA8"/>
							<stop  offset="1.450024e-02" style="stop-color:#879EAA"/>
							<stop  offset="0.2354" style="stop-color:#B2C1C8"/>
							<stop  offset="0.4498" style="stop-color:#D4DCE0"/>
							<stop  offset="0.6534" style="stop-color:#ECEFF1"/>
							<stop  offset="0.8418" style="stop-color:#FAFBFB"/>
							<stop  offset="1" style="stop-color:#FFFFFF"/>
						</linearGradient>
						<path class="st20" d="M34.2,87.4c-1.2,0.7-2.7,0.3-3.4-0.9c-0.7-1.2-0.3-2.7,0.8-3.4c1.2-0.7,2.7-0.3,3.4,0.8
							C35.8,85.2,35.4,86.7,34.2,87.4z"/>
						<linearGradient id="SVGID_20_" gradientUnits="userSpaceOnUse" x1="72.8276" y1="99.8596" x2="74.7876" y2="99.8596">
							<stop  offset="3.095980e-03" style="stop-color:#859CA8"/>
							<stop  offset="1.450024e-02" style="stop-color:#879EAA"/>
							<stop  offset="0.2354" style="stop-color:#B2C1C8"/>
							<stop  offset="0.4498" style="stop-color:#D4DCE0"/>
							<stop  offset="0.6534" style="stop-color:#ECEFF1"/>
							<stop  offset="0.8418" style="stop-color:#FAFBFB"/>
							<stop  offset="1" style="stop-color:#FFFFFF"/>
						</linearGradient>
						<path class="st21" d="M74.3,100.7c-0.4,0.3-1,0.1-1.3-0.4c-0.3-0.5-0.1-1.1,0.3-1.4c0.5-0.3,1.1-0.1,1.4,0.3
							C74.9,99.8,74.8,100.4,74.3,100.7z"/>
						<linearGradient id="SVGID_21_" gradientUnits="userSpaceOnUse" x1="64.6658" y1="108.0207" x2="66.6268" y2="108.0207">
							<stop  offset="3.095980e-03" style="stop-color:#859CA8"/>
							<stop  offset="1.450024e-02" style="stop-color:#879EAA"/>
							<stop  offset="0.2354" style="stop-color:#B2C1C8"/>
							<stop  offset="0.4498" style="stop-color:#D4DCE0"/>
							<stop  offset="0.6534" style="stop-color:#ECEFF1"/>
							<stop  offset="0.8418" style="stop-color:#FAFBFB"/>
							<stop  offset="1" style="stop-color:#FFFFFF"/>
						</linearGradient>
						<path class="st22" d="M66.1,108.9c-0.4,0.3-1,0.1-1.3-0.4c-0.3-0.5-0.1-1.1,0.3-1.4c0.5-0.3,1.1-0.1,1.4,0.3
							C66.8,108,66.6,108.6,66.1,108.9z"/>
						<linearGradient id="SVGID_22_" gradientUnits="userSpaceOnUse" x1="41.9274" y1="101.412" x2="43.8886" y2="101.412">
							<stop  offset="3.095980e-03" style="stop-color:#859CA8"/>
							<stop  offset="1.450024e-02" style="stop-color:#879EAA"/>
							<stop  offset="0.2354" style="stop-color:#B2C1C8"/>
							<stop  offset="0.4498" style="stop-color:#D4DCE0"/>
							<stop  offset="0.6534" style="stop-color:#ECEFF1"/>
							<stop  offset="0.8418" style="stop-color:#FAFBFB"/>
							<stop  offset="1" style="stop-color:#FFFFFF"/>
						</linearGradient>
						<path class="st23" d="M43.4,102.3c-0.4,0.3-1,0.1-1.3-0.4c-0.3-0.5-0.1-1.1,0.3-1.4c0.5-0.3,1.1-0.1,1.4,0.3
							C44,101.4,43.9,102,43.4,102.3z"/>
						<linearGradient id="SVGID_23_" gradientUnits="userSpaceOnUse" x1="57.1301" y1="86.208" x2="59.0906" y2="86.208">
							<stop  offset="3.095980e-03" style="stop-color:#859CA8"/>
							<stop  offset="1.450024e-02" style="stop-color:#879EAA"/>
							<stop  offset="0.2354" style="stop-color:#B2C1C8"/>
							<stop  offset="0.4498" style="stop-color:#D4DCE0"/>
							<stop  offset="0.6534" style="stop-color:#ECEFF1"/>
							<stop  offset="0.8418" style="stop-color:#FAFBFB"/>
							<stop  offset="1" style="stop-color:#FFFFFF"/>
						</linearGradient>
						<path class="st24" d="M58.6,87.1c-0.4,0.3-1,0.1-1.3-0.4c-0.3-0.5-0.1-1.1,0.3-1.4c0.5-0.3,1.1-0.1,1.4,0.3
							C59.2,86.2,59.1,86.8,58.6,87.1z"/>
						<linearGradient id="SVGID_24_" gradientUnits="userSpaceOnUse" x1="85.936" y1="86.208" x2="87.8974" y2="86.208">
							<stop  offset="3.095980e-03" style="stop-color:#859CA8"/>
							<stop  offset="1.450024e-02" style="stop-color:#879EAA"/>
							<stop  offset="0.2354" style="stop-color:#B2C1C8"/>
							<stop  offset="0.4498" style="stop-color:#D4DCE0"/>
							<stop  offset="0.6534" style="stop-color:#ECEFF1"/>
							<stop  offset="0.8418" style="stop-color:#FAFBFB"/>
							<stop  offset="1" style="stop-color:#FFFFFF"/>
						</linearGradient>
						<path class="st25" d="M87.4,87.1c-0.4,0.3-1,0.1-1.3-0.4c-0.3-0.5-0.1-1.1,0.3-1.4c0.5-0.3,1.1-0.1,1.4,0.3
							C88,86.2,87.9,86.8,87.4,87.1z"/>
						<linearGradient id="SVGID_25_" gradientUnits="userSpaceOnUse" x1="100.9936" y1="84.8156" x2="102.9534" y2="84.8156">
							<stop  offset="3.095980e-03" style="stop-color:#859CA8"/>
							<stop  offset="1.450024e-02" style="stop-color:#879EAA"/>
							<stop  offset="0.2354" style="stop-color:#B2C1C8"/>
							<stop  offset="0.4498" style="stop-color:#D4DCE0"/>
							<stop  offset="0.6534" style="stop-color:#ECEFF1"/>
							<stop  offset="0.8418" style="stop-color:#FAFBFB"/>
							<stop  offset="1" style="stop-color:#FFFFFF"/>
						</linearGradient>
						<path class="st26" d="M102.5,85.7c-0.4,0.3-1,0.1-1.3-0.4c-0.3-0.5-0.1-1.1,0.3-1.4c0.5-0.3,1.1-0.1,1.4,0.3
							C103.1,84.8,102.9,85.4,102.5,85.7z"/>
						<linearGradient id="SVGID_26_" gradientUnits="userSpaceOnUse" x1="37.1398" y1="86.4166" x2="39.1007" y2="86.4166">
							<stop  offset="3.095980e-03" style="stop-color:#859CA8"/>
							<stop  offset="1.450024e-02" style="stop-color:#879EAA"/>
							<stop  offset="0.2354" style="stop-color:#B2C1C8"/>
							<stop  offset="0.4498" style="stop-color:#D4DCE0"/>
							<stop  offset="0.6534" style="stop-color:#ECEFF1"/>
							<stop  offset="0.8418" style="stop-color:#FAFBFB"/>
							<stop  offset="1" style="stop-color:#FFFFFF"/>
						</linearGradient>
						<path class="st27" d="M38.6,87.3c-0.4,0.3-1,0.1-1.3-0.4c-0.3-0.5-0.1-1.1,0.3-1.4c0.5-0.3,1.1-0.1,1.4,0.3
							C39.2,86.4,39.1,87,38.6,87.3z"/>
					</g>
				</g>
			</g>
		</g>
	</g>
</g>
</svg>
