<?xml version="1.0" encoding="utf-8"?>
<!-- Generator: Adobe Illustrator 19.1.0, SVG Export Plug-In . SVG Version: 6.00 Build 0)  -->
<svg version="1.1" xmlns="http://www.w3.org/2000/svg" xmlns:xlink="http://www.w3.org/1999/xlink" x="0px" y="0px"
	 viewBox="0 0 249.8 257.4" style="enable-background:new 0 0 249.8 257.4;" xml:space="preserve">
<style type="text/css">
	.st0{fill:#B03120;}
	.st1{fill:#C86F63;}
	.st2{fill:#FF3918;}
	.st3{fill:#211D1C;}
	.st4{opacity:0.4;fill:#B03120;}
	.st5{fill:#DEDDDD;}
</style>
<g id="background">
</g>
<g id="objects">
	<g>
		<g>
			<path class="st0" d="M103.7,8.3c-0.5,0-12.6-3-18.5,0s-11,8.2-11.4,14c-0.4,5.9,1.4,11.2,2.8,12.4c1.4,1.2,3,3.4,3,3.4
				s0.2,4.1-2,6.6c-2.1,2.5-5.3,5.2-14,8.2c-8.7,3-11.9,4.1-13.9,6c-2,2-2.5,4.3-2.5,4.3s9.2,11,11.9,27.9
				c2.7,16.9,2.7,31.5,1.6,46.4c-1.1,14.9-3.4,38.6-3,50.9c0.4,12.3,1.4,31.3,2.1,36.3c0.7,5,8.5,7.8,11.4,10.1
				c2.8,2.3,42.9,14.4,71.7,8.2c28.8-6.2,47.7-17.8,47.7-17.8s-2.3-38.1-4.8-52.1c-2.5-14-0.7-33.6-2-44.8
				c-1.2-11.2-1.8-38.8,1.2-47.3s6.4-23.5,6.4-23.5s-2-3.6-9.4-4.6c-7.5-1.1-18.7-4.3-21.2-7.6c-2.5-3.4-4.4-9.1-4.4-9.1
				s7.8-5.9,6.8-15.1c-1.1-9.2-7.6-16.2-14.8-15.8c-7.1,0.4-19,3.6-25.2,4.4C117.1,10.6,103.7,8.3,103.7,8.3z"/>
			<path class="st1" d="M119.6,54.1c0,0-5.3-12.1-10.5-13.9c-5.2-1.8-17.8-3.9-19.2-7.6c-1.4-3.7-0.9-9.6,13-12.4s28.3-2.7,33.1-1.2
				c4.8,1.4,7.1,1.1,7.6,4.6c0.5,3.6-2.1,9.1-6.6,11c-4.4,2-8.4,3-11.2,6.4C122.9,44.4,119.6,54.1,119.6,54.1z"/>
			<path class="st2" d="M94.7,162.2c0,0-0.5,8-3.6,16.5c-3,8.5-8.9,17.1-11,20.1c-2.1,3-5.9,8.2-5.9,8.2s14.6,2,24.7,2.5
				c10.1,0.5,41.1-1.6,49.8-1.6s25.8-0.2,25.8-0.2s0.9-1.2-1.2-2.8c-2.1-1.6-16-18-19.4-25.1s-5.3-18.8-5.3-18.8s-15.5-3.7-27.6-2.3
				C108.9,160.1,94.7,162.2,94.7,162.2z"/>
			<path class="st0" d="M60,220.9c0,0,1.2,13.3,2.8,15.1c1.6,1.8,19.9,13.3,36.8,16.5c16.9,3.2,48.5,0.4,61-5.2
				c12.4-5.5,28.4-13.5,28.4-13.5l0.2-13.3c0,0-14,6.2-21.5,8.4c-7.5,2.1-42.3,9.6-61.2,6.6c-18.8-3-37.3-10.8-39.3-11.7
				C65.3,222.9,60,220.9,60,220.9z"/>
			<path class="st0" d="M50.6,225.7c-0.2,0-1.8,0.4-2,0.2c0,0-0.1,0-0.1,0c0,0.1-0.1,0.3-0.1,0.5c0-0.2,0-0.4,0.1-0.5
				c-7.9,3.6-16.1,4.5-23.4,8.9c0.3,0.1,0.6,0.1,0.9,0.1c-0.3,0-0.6,0-0.9-0.1c-0.1,0-0.1,0.1-0.2,0.1c0.1,0,0.1-0.1,0.2-0.1
				c-0.4-0.1-0.9-0.2-1.3-0.4c-1.8,0.4-4.6,1.4-4.6,4c0,3.9,1.8,10.7,4.3,10.3c2.5-0.4,17.8-6.8,21.3-8.5c3.6-1.8,10-3.2,9.6-6
				C54.1,231.4,52.3,226.1,50.6,225.7z"/>
			<path class="st2" d="M59.3,90.6c-3.9-11.4-6.2-19.9-7.6-21.7c-1.4-1.8-4.3-5.7-4.3-5.7s-23.1,25.6-31.7,49.4
				c-8.5,23.8-12.8,45.2-9.6,66.5s8,36.3,12.4,44.5c3.7,6.8,6.8,10.7,6.8,10.7s-0.6,0-1.5,0.2c0.5,0.2,0.9,0.3,1.3,0.4
				c7.3-4.5,15.8-6,23.7-9.6c-2.4-2.6-7-15.4-8.6-24.8c-1.8-10.3-3.2-32.4,4.3-49.4s17.4-31.3,17.4-31.3S63.2,102,59.3,90.6z"/>
			<path class="st0" d="M204.3,214.7c-0.5,1.5-0.9,2.4-0.9,2.4s-1.3-3.7-3.5-0.8c-2.1,2.9-4.3,8.8,0.3,12c4.5,3.2,18.1,8,24.8,8.8
				c6.7,0.8,8.8-0.5,9.1-4c0.3-3.5,2.1-6.7,0.3-8.3c-1.9-1.6-4-2.1-4-2.1s0.1-0.2,0.2-0.4C220.8,220.5,208.3,221.6,204.3,214.7z"/>
			<path class="st2" d="M232.5,114.4c-10.7-19.7-26.7-38.9-30.7-44.5c-4-5.6-11.2-12-11.2-12s-4.8,12-5.6,24.3
				c-0.8,12.3-1.9,32.5-1.9,32.5s15.7,15.5,21.6,38.7s6.7,36.8,5.6,42.4c-0.8,4.3-4.4,14.4-6.1,19c4,6.9,16.5,5.8,26.3,7.5
				c1.7-3,11.9-22.4,12.8-42.5C244.5,157.9,243.1,134.2,232.5,114.4z"/>
			<g>
				<g>
					<g>
						<path class="st3" d="M100.7,42.4c-1.1-3.2-5.4-3.6-7.1-0.7c-0.8,1.4-0.7,3.1,0.2,4.4c0.8,1.1,2.6,2.2,3.9,1.3
							c0.2-0.1,0.3-0.5,0-0.6c-0.8-0.4-1.7-0.4-2.4-1c-0.9-0.8-1.2-2-0.6-3.1c1.1-2.2,3.9-1.9,5.1,0.1
							C100.1,43.2,100.8,42.9,100.7,42.4L100.7,42.4z"/>
					</g>
				</g>
				<g>
					<g>
						<path class="st3" d="M96.8,47.5c-10.5-5.2-25.2-12.3-21.4-26.7c4.7-17.7,24.7-11.4,37.7-10.5c6.6,0.5,13.3,0,19.8-1.3
							c7.8-1.5,16.6-5.3,23.5,0.6c5.1,4.4,7,11.9,4.6,18.2c-2.5,6.7-8.1,10.1-14.4,12.8c-0.6,0.2-0.3,1.3,0.3,1.2
							c9.8-1.3,18.1-11.1,17.4-20.9C163.7,9.9,154,3,143.5,4.6c-8.7,1.3-16.7,3.9-25.6,3.9c-7.9,0-15.7-2.1-23.6-2.2
							c-11-0.1-20.9,6.6-21.3,18.3c-0.4,12.8,12.7,20.7,23.6,23.5C96.9,48.2,97.1,47.7,96.8,47.5L96.8,47.5z"/>
					</g>
				</g>
				<g>
					<g>
						<path class="st3" d="M143.5,42.9c0,0.1,0,0.1,0,0.2c0,0.2,0.2,0.4,0.4,0.4c1.7,0.3,2.9-1.4,3.1-2.9c0.2-1.6-0.3-3.4-1.6-4.3
							c-1.4-1-3.2-0.9-4.5,0.2c-1.2,1-1.9,2.8-0.5,3.9c0.2,0.2,0.5,0,0.6-0.2c0.2-0.9,0.5-2,1.4-2.5c1.1-0.7,2.3-0.1,2.8,0.9
							c0.5,0.9,0.6,2.3-0.2,3.2C144.8,42,143.4,42.3,143.5,42.9L143.5,42.9z"/>
					</g>
				</g>
				<g>
					<g>
						<path class="st3" d="M141.9,22c6.1,8.3-11.8,13.1-16.3,17.4c-4.4,4.1-7.7,10.2-7.7,16.3c0,1.1,1.6,1.3,1.9,0.3
							c1.2-5,2.5-9.4,6-13.3c3.6-4.1,8.1-5.5,12.7-7.9c5-2.6,9.5-8.5,5.6-13.9C143.1,19.5,141,20.7,141.9,22L141.9,22z"/>
					</g>
				</g>
				<g>
					<g>
						<path class="st3" d="M90.3,30.9c-1-10.7,18-10.8,24.9-11.4c8.1-0.7,20.4-2.2,27.2,2.9c1.1,0.8,2.4-1,1.4-1.8
							c-3.6-3.2-8.8-3.5-13.4-3.7c-7-0.4-14.1,0.2-21,1.1c-7.6,1-22.2,1.9-21.2,12.9C88.3,32.2,90.4,32.2,90.3,30.9L90.3,30.9z"/>
					</g>
				</g>
				<g>
					<g>
						<path class="st3" d="M119.3,56.5c0.2-6-2.3-11.5-7-15.3c-2.4-1.9-5.1-3.1-8.1-3.8c-5.1-1.1-12-0.7-14-6.8
							c-0.4-1.3-2.5-0.7-2,0.6c2,5.9,7.6,7,13.1,7.8c9.5,1.4,16.2,7.8,17.2,17.5C118.6,57,119.3,57,119.3,56.5L119.3,56.5z"/>
					</g>
				</g>
				<g>
					<g>
						<path class="st3" d="M95.9,43.6c4.4,5.5,7.6,11.9,5.2,19c-2,5.7-6,10.3-7.7,16.2c-2.5,8.7-2.5,21.9,4,29.1
							c0.3,0.4,0.9,0,0.8-0.5c-1.9-6.8-4.6-12.4-4.3-19.7c0.3-7.6,3.4-13.6,7-20.2c4.6-8.4,3.7-18.6-4.4-24.6
							C96.1,42.6,95.6,43.3,95.9,43.6L95.9,43.6z"/>
					</g>
				</g>
				<g>
					<g>
						<path class="st3" d="M143.8,39.7c-7,4.6-4.4,14.2-1.5,20.5c2.7,5.9,5.2,11.6,6.6,18c0.9,4,1.7,8,0.1,11.9
							c-1,2.4-2.7,4.4-3.6,6.9c-0.1,0.3,0.3,0.7,0.6,0.5c7.9-5.6,6.4-15.3,4.2-23.4c-2.8-10.2-14.1-23.5-5.4-33.2
							C145.1,40.3,144.5,39.3,143.8,39.7L143.8,39.7z"/>
					</g>
				</g>
				<g>
					<g>
						<path class="st3" d="M118.8,55.1c-0.7,1.8-1.3,3.5-1.7,5.3c-0.3,1.1-0.9,2.6-0.7,3.8c0.5,2.4,4.2,2.5,6.1,2.3
							c0.5,0,0.9-0.4,0.9-0.9c0-3.1-0.9-7.8-3.7-9.7c-0.5-0.3-1.2,0.2-1,0.8c0.4,1.4,1.4,2.5,1.9,3.8c0.7,1.7,1,3.4,1,5.1
							c0.3-0.3,0.6-0.6,0.9-0.9c-0.9,0.1-2.3,0.3-3.2-0.2c-1.7-1-0.9-2.3-0.6-3.7c0.4-1.9,0.7-3.7,0.9-5.7
							C119.6,54.7,118.9,54.7,118.8,55.1L118.8,55.1z"/>
					</g>
				</g>
				<g>
					<g>
						<path class="st3" d="M119.8,65.6c-1.6,6.7-1.2,16.7,1.2,23.2c0.2,0.5,0.9,0.4,0.9-0.1c0.2-4.1-0.7-8.2-0.9-12.3
							c-0.1-3.6,0.1-7.2-0.4-10.7C120.6,65.1,119.9,65.2,119.8,65.6L119.8,65.6z"/>
					</g>
				</g>
				<g>
					<g>
						<path class="st3" d="M78.8,37.7C78.3,48.8,67.6,50.2,59,53.4c-4.6,1.7-11,4.2-13,9.1c-0.2,0.5,0.4,0.9,0.8,0.6
							c4.1-2.7,7.2-5.7,12-7.7c3.8-1.6,7.8-2.7,11.6-4.3c5-2.2,12.2-7.4,9.2-13.8C79.4,37,78.8,37.3,78.8,37.7L78.8,37.7z"/>
					</g>
				</g>
				<g>
					<g>
						<path class="st3" d="M156.6,37.6c-0.2,6,4.4,10.1,9.7,11.9c4.2,1.5,8.6,2.6,12.9,3.8c4.7,1.4,7.6,3.1,11.4,6.1
							c0.4,0.3,1,0.1,1-0.4c-0.2-4.8-6.1-6.4-9.9-7.5c-4.3-1.3-8.8-2.3-13.1-3.6c-6.1-1.8-9.1-4.5-10.9-10.6
							C157.5,36.8,156.6,36.9,156.6,37.6L156.6,37.6z"/>
					</g>
				</g>
				<g>
					<g>
						<g>
							<path class="st3" d="M94.3,161.8c-1.2,8.7-3.3,16.6-7.4,24.4c-3.8,7.2-8.7,13.4-13.3,20.1c-0.5,0.7,0.7,1.6,1.2,1
								C85,195,96,178.5,95.1,161.9C95.1,161.4,94.4,161.3,94.3,161.8L94.3,161.8z"/>
						</g>
					</g>
					<g>
						<g>
							<path class="st3" d="M148.3,161.3c0,8.9,4.1,18.3,8.5,25.9c3.8,6.6,10.2,16.5,17.6,19.1c0.6,0.2,1.3-0.6,0.9-1.2
								c-2-3-5.3-5.1-7.8-7.8c-3.3-3.5-6.2-7.3-8.8-11.4c-4.9-7.9-6.8-16.2-9.5-24.9C149.1,160.7,148.3,160.7,148.3,161.3
								L148.3,161.3z"/>
						</g>
					</g>
					<g>
						<g>
							<path class="st3" d="M73.8,207.5c15.3,4.6,32.4,3.2,48.1,2.8c17.3-0.4,34.7-0.6,51.9-1.7c1.1-0.1,1.1-1.6,0-1.7
								c-17-0.2-34,0.4-51,1c-8.3,0.3-16.6,0.7-24.9,0.5c-8.1-0.1-16-1.5-24-2.1C73.3,206.3,73.2,207.3,73.8,207.5L73.8,207.5z"/>
						</g>
					</g>
					<g>
						<g>
							<path class="st3" d="M95.1,162.4c8.6,0.3,17.5-1.9,26.2-2.3c9.3-0.4,18.3,0.3,27.5,2.3c1.4,0.3,2-1.8,0.6-2.2
								c-8.8-2.4-18.1-2.8-27.1-2.4c-8.8,0.4-18.9,0.9-27.2,3.7C94.5,161.6,94.5,162.4,95.1,162.4L95.1,162.4z"/>
						</g>
					</g>
					<g>
						<g>
							<path class="st3" d="M98.5,165.8c0,1.3-0.2,2.7,0.1,4c0,0.2,0.3,0.2,0.4,0c0.3-1.3,0.1-2.7,0.1-4
								C98.9,165.5,98.5,165.5,98.5,165.8L98.5,165.8z"/>
						</g>
					</g>
					<g>
						<g>
							<path class="st3" d="M98.1,173.1c0,0.8,0,1.6-0.1,2.4c-0.1,0.6-0.3,1.2-0.3,1.9c0,0.2,0.3,0.2,0.3,0.1c0.8-1.2,0.8-3,0.7-4.3
								C98.6,172.7,98.1,172.7,98.1,173.1L98.1,173.1z"/>
						</g>
					</g>
					<g>
						<g>
							<path class="st3" d="M96.3,180.5c-0.4,1.5-1,2.8-1.4,4.3c0,0.1,0.2,0.3,0.3,0.2c1-1.2,1.4-2.8,1.7-4.3
								C96.9,180.3,96.4,180.2,96.3,180.5L96.3,180.5z"/>
						</g>
					</g>
					<g>
						<g>
							<path class="st3" d="M93,187.4c-0.7,1.7-1.8,3.3-2.5,5c-0.1,0.1,0.1,0.2,0.2,0.1c1.3-1.3,2.1-3.2,2.7-4.9
								C93.6,187.3,93.1,187.1,93,187.4L93,187.4z"/>
						</g>
					</g>
					<g>
						<g>
							<path class="st3" d="M88.6,195c-0.7,0.8-1.4,2-1.6,3.1c0,0.2,0.2,0.3,0.3,0.2c0.8-0.8,1.4-2,1.6-3.1
								C89,195,88.8,194.8,88.6,195L88.6,195z"/>
						</g>
					</g>
					<g>
						<g>
							<path class="st3" d="M84.1,201.3c-1,1.1-2.2,2-3.2,3.1c-0.1,0.1,0,0.3,0.1,0.2c1.3-0.7,2.4-1.9,3.3-3
								C84.5,201.4,84.2,201.1,84.1,201.3L84.1,201.3z"/>
						</g>
					</g>
					<g>
						<g>
							<path class="st3" d="M144.4,163.7c-0.3,1.7-0.2,4,0.9,5.4c0.1,0.1,0.3,0.1,0.3-0.1c-0.1-0.8-0.4-1.5-0.5-2.3
								c-0.2-1-0.2-1.9-0.2-2.9C144.8,163.5,144.4,163.4,144.4,163.7L144.4,163.7z"/>
						</g>
					</g>
					<g>
						<g>
							<path class="st3" d="M145.9,172c0.4,1.4,0.7,3,1.6,4.2c0.1,0.1,0.2,0,0.2-0.1c-0.2-1.5-0.9-2.8-1.4-4.2
								C146.3,171.6,145.8,171.7,145.9,172L145.9,172z"/>
						</g>
					</g>
					<g>
						<g>
							<path class="st3" d="M148.5,179.3c0.5,1.1,1,2.2,1.8,3.2c0.1,0.1,0.2,0,0.2-0.1c-0.3-1.2-1-2.2-1.6-3.3
								C148.8,178.9,148.4,179.1,148.5,179.3L148.5,179.3z"/>
						</g>
					</g>
					<g>
						<g>
							<path class="st3" d="M151.5,185.6c0.6,1.2,1.2,2.9,2.2,3.8c0.1,0.1,0.3,0,0.3-0.2c-0.2-1.4-1.3-2.7-2-3.9
								C151.8,185,151.4,185.3,151.5,185.6L151.5,185.6z"/>
						</g>
					</g>
					<g>
						<g>
							<path class="st3" d="M155.4,192.6c0.8,1.1,1.5,2.3,2.6,3.2c0.1,0.1,0.3,0,0.2-0.1c-0.5-1.3-1.5-2.3-2.4-3.4
								C155.6,192,155.2,192.4,155.4,192.6L155.4,192.6z"/>
						</g>
					</g>
					<g>
						<g>
							<path class="st3" d="M159.8,198.1c0.4,0.6,0.9,1.2,1.4,1.7c0.4,0.5,1,1,1.6,1.2c0.1,0,0.3-0.1,0.2-0.2
								c-0.2-0.6-0.8-1-1.2-1.4c-0.5-0.5-1-1-1.5-1.6C160,197.5,159.6,197.8,159.8,198.1L159.8,198.1z"/>
						</g>
					</g>
					<g>
						<g>
							<path class="st3" d="M165,203.6c0.5,0.4,0.9,0.8,1.4,1.2c0.4,0.3,0.8,0.7,1.2,0.7c0.1,0,0.2-0.1,0.2-0.2
								c-0.1-0.5-0.6-0.8-1-1.1c-0.5-0.4-1-0.8-1.5-1.1C165.1,202.9,164.8,203.4,165,203.6L165,203.6z"/>
						</g>
					</g>
				</g>
				<g>
					<g>
						<path class="st3" d="M191.2,58.2C191.3,58.2,191.3,58.1,191.2,58.2C191.2,58.1,191.2,58.2,191.2,58.2L191.2,58.2z"/>
					</g>
				</g>
				<g>
					<g>
						<path class="st3" d="M61.5,233.3c2.7,8.5,15.5,13,23,15.7c11.2,4.1,23.1,6.1,35,6.1c24,0.1,49.1-7.3,69.7-19.5
							c1.3-0.8,0.2-2.7-1.2-2c-20.7,10.2-41.6,18.4-65,19c-10.8,0.3-21.7-0.9-32.1-3.8c-5.7-1.6-11.3-3.8-16.6-6.4
							c-4.9-2.5-8.3-5.5-12-9.4C61.9,232.6,61.4,232.9,61.5,233.3L61.5,233.3z"/>
					</g>
				</g>
				<g>
					<g>
						<path class="st3" d="M59.7,221c18.4,11.6,40.9,16.9,62.6,16.7c22.2-0.2,46.1-6,66.1-15.9c1-0.5,0.3-2.2-0.8-1.8
							c-10.2,3.4-20,7.5-30.4,10.2c-11.1,2.9-22.5,4.7-34,5c-22.2,0.5-43.1-5.6-62.8-15.3C59.6,219.5,59,220.5,59.7,221L59.7,221z"
							/>
					</g>
				</g>
				<g>
					<g>
						<path class="st3" d="M46.4,62.5c-21.6,23.1-38.3,53-40.7,85c-1.2,16.1-1.2,32.5,1.8,48.3c1.5,7.6,3.7,15.1,6.8,22.2
							c1.6,3.6,3.4,7,5.4,10.4c1.5,2.4,2.7,5.4,5.6,5.9c0.8,0.2,1.4-1,0.6-1.4c-3.3-1.7-6.1-8.2-7.7-11.4c-1.7-3.4-3.2-6.8-4.5-10.4
							c-2.4-6.7-4.1-13.7-5.1-20.8c-2.3-15.3-2.2-31.3-0.6-46.7c3.3-31.3,21.1-56,39.5-80.4C47.9,62.7,46.9,62,46.4,62.5L46.4,62.5z
							"/>
					</g>
				</g>
				<g>
					<g>
						<path class="st3" d="M61.9,118.4c-11.4,14.8-20.6,33.4-23.3,52c-2.7,18.2,1.7,38.7,9.5,55.3c0.4,0.8,1.5,0.2,1.3-0.6
							c-2.1-8.9-5.7-17.4-7.6-26.5c-2.2-10-2.7-20.2-0.9-30.3c3.2-18.4,12.6-33.7,22.1-49.4C63.4,118.3,62.4,117.8,61.9,118.4
							L61.9,118.4z"/>
					</g>
				</g>
				<g>
					<g>
						<path class="st3" d="M48.1,225.5c-4.8,0.9-9.4,3.5-14,5.1c-4.6,1.6-10.3,2.2-14.5,4.4c-5,2.6-1,9.9,2,12.9
							c0.5,0.6,1.4-0.2,1.1-0.8c-0.9-1.6-2.5-3.8-2.8-5.6c-0.5-3,1.2-4.5,3.8-5.8c2.8-1.3,6.4-1.7,9.4-2.7
							c5.1-1.7,11.3-3.6,15.4-7.2C48.4,225.7,48.3,225.5,48.1,225.5L48.1,225.5z"/>
					</g>
				</g>
				<g>
					<g>
						<path class="st3" d="M47.9,227c1.9-2.7,3.9,1.9,4.4,3.2c0.6,1.5,0.6,3.8,1.8,4.9c0.3,0.2,0.7,0.2,0.8-0.1
							c0.9-1.4-0.1-3.5-0.7-5c-0.5-1.4-1.1-3.1-2.3-4.2c-1.4-1.4-4.6-1.7-5.1,0.7C46.8,227.2,47.6,227.5,47.9,227L47.9,227z"/>
					</g>
				</g>
				<g>
					<g>
						<path class="st3" d="M21.8,248.6c5.1,1.3,9.4-1.2,13.9-3.2c6.3-2.9,13.1-5.3,19-8.9c0.7-0.5,0.3-1.7-0.6-1.5
							c-4.9,1.6-9.5,4.2-14.2,6.4c-5.6,2.6-11.8,6.8-18.1,6.5C21.5,247.9,21.4,248.5,21.8,248.6L21.8,248.6z"/>
					</g>
				</g>
				<g>
					<g>
						<path class="st3" d="M183.1,115.6c8.9,16,18.7,30.8,23.3,48.8c2.2,8.8,3.2,17.8,2.6,26.9c-0.3,4.4-1,8.8-2.1,13.1
							c-1.1,4.3-3.5,8.4-4.3,12.8c-0.1,0.4,0.4,0.7,0.7,0.4c5.2-5.5,6.6-15.7,7.5-22.9c1.1-9.4,0.5-19.1-1.6-28.4
							c-4-18.2-13.4-37-25.5-51.2C183.5,114.8,182.9,115.2,183.1,115.6L183.1,115.6z"/>
					</g>
				</g>
				<g>
					<g>
						<path class="st3" d="M191.6,59.4c19.4,23.5,38.9,46.7,47.2,76.7c4,14.4,5.2,29.4,3.8,44.3c-0.7,7.7-2.2,15.3-4.6,22.6
							c-2.3,7.2-6,13.8-8.6,20.8c-0.3,0.8,0.9,1.1,1.3,0.5c4.2-6,6.8-13.9,8.9-20.9c2.2-7.3,3.8-14.7,4.8-22.2
							c2-15,1.1-30.5-2.6-45.1c-7.6-29.8-27.6-56.5-49.3-77.6C191.9,57.8,191.1,58.7,191.6,59.4L191.6,59.4z"/>
					</g>
				</g>
				<g>
					<g>
						<path class="st3" d="M200,216.2c5.9,3.3,13.1,3.8,19.5,5.5c3.3,0.9,7.5,1.5,10.6,3c2.5,1.2,4.1,2.4,3.5,6.1
							c-0.3,2.2-2,4.1-3.2,5.9c-0.2,0.3,0.2,0.9,0.6,0.6c4.1-3.1,7.9-11.7,1.8-14.4c-9.9-4.5-21.8-5.3-32.3-7.9
							C199.8,214.8,199.4,215.8,200,216.2L200,216.2z"/>
					</g>
				</g>
				<g>
					<g>
						<path class="st3" d="M200,215.1c-2.9,1.4-3.3,4.6-3.3,7.6c0,4.2,1.7,5.9,5.3,8c4.6,2.6,9.5,4.5,14.6,5.8
							c4.8,1.2,10.3,2.8,15.2,1.4c1.1-0.3,0.9-2-0.3-2c-6.5-0.1-13-1.3-19.2-3.3c-3.2-1-6.3-2.1-9.2-3.8c-4.6-2.6-5.9-8.7-2.3-12.8
							C201.2,215.5,200.6,214.8,200,215.1L200,215.1z"/>
					</g>
				</g>
			</g>
		</g>
		<path class="st4" d="M59.3,90.6c-3.9-11.4-6.2-19.9-7.6-21.7c-0.9-1.1-2.3-3-3.2-4.3c4.7,22.7,5.7,46.2,4.6,69.6
			c4.9-8.7,9-14.5,9-14.5S63.2,102,59.3,90.6z"/>
		<path class="st4" d="M193.1,60.2c-1.5-1.4-2.5-2.3-2.5-2.3s-4.8,12-5.6,24.3c-0.8,12.3-1.9,32.5-1.9,32.5s5.4,5.3,11,14.3
			C191.9,106.2,192.1,83.1,193.1,60.2z"/>
		<g>
			<g>
				<path class="st3" d="M46.7,62.8c2.5,6.3,6.5,11.7,8.8,18.2c2.4,6.9,3.9,14.1,4.6,21.4c1.6,15.3-0.1,30.7-1.4,45.9
					c-1.3,15-2.5,30-2.3,45.1c0.1,7.2,0.4,14.3,1.2,21.5c0.8,7,1.3,14.8,4.1,21.4c0.3,0.7,1.5,0.7,1.5-0.2c-0.5-7.7-2.6-15.3-3.4-23
					c-0.7-7.8-1-15.6-0.9-23.4c0.1-15.4,1.4-30.8,2.7-46.1c1.3-14.8,2.2-30,0.1-44.8c-0.9-6.8-2.5-13.5-4.9-19.9
					c-2.1-5.6-4.8-12.4-9.5-16.3C47,62.4,46.6,62.5,46.7,62.8L46.7,62.8z"/>
			</g>
		</g>
		<g>
			<g>
				<path class="st3" d="M190.7,57.2c-11.7,26.6-8.4,57.9-7.7,86.2c0.4,14.6,1.6,29,3.7,43.4c2.4,16.5,2,32.3,1.3,48.9
					c-0.1,1.2,1.9,1.5,2,0.3c2.4-14.6,1.6-30.3-0.3-44.9c-1.9-14.7-3.7-29.1-4.2-43.9c-0.5-14.6-1.3-29.3-1.1-43.9
					c0.3-15.8,3.7-30.4,7.3-45.6C192,57,191,56.5,190.7,57.2L190.7,57.2z"/>
			</g>
		</g>
		<path class="st5" d="M79.7,38.7c0,1.2-0.3,4.1-2,6c-0.3,0.4-0.7,0.8-1.2,1.2c8.8,7.8,23.1,6.3,33.7,9.8
			C103.9,46.6,89.7,46.1,79.7,38.7z"/>
		<path class="st5" d="M128.4,55.7c8.5-9.3,20.4-9.2,31.9-11.5c-1.6-2.6-3-5.9-3.5-7.3C147.1,42.7,133.9,43,128.4,55.7z"/>
		<path class="st5" d="M189.3,220.6c0,0-14,6.2-21.5,8.4c-7.5,2.1-42.3,9.6-61.2,6.6c-18.8-3-37.3-10.8-39.3-11.7
			c-2-0.9-7.3-2.8-7.3-2.8s1.2,12.3,2.8,14c0.1,0.1,2.3,2.6,2.6,2.8c0-3.2-1.7-7,1-8.7c2.6-1.6,11.4,4,17.9,6.2
			c30.5,10.1,62.7,10.1,91.5-4.8c3.2-1.1,7.8-3.6,8.9-0.4c1.1,2.2,1.2,2.9,1.8,5.2c1.7-0.8,2.7-1.3,2.7-1.3L189.3,220.6z"/>
	</g>
</g>
</svg>
