<?xml version="1.0" encoding="utf-8"?>
<!-- Generator: Adobe Illustrator 19.1.0, SVG Export Plug-In . SVG Version: 6.00 Build 0)  -->
<svg version="1.1" id="Layer_1" xmlns="http://www.w3.org/2000/svg" xmlns:xlink="http://www.w3.org/1999/xlink" x="0px" y="0px"
	 viewBox="-247 339.5 115.5 115.5" style="enable-background:new -247 339.5 115.5 115.5;" xml:space="preserve">
<style type="text/css">
	.st0{fill:#FBB040;}
	.st1{fill:url(#SVGID_1_);}
	.st2{fill:url(#SVGID_2_);}
	.st3{fill:#231F20;}
	.st4{fill:#F59A9E;}
	.st5{fill:url(#SVGID_3_);}
	.st6{fill:#29B473;}
	.st7{fill:url(#SVGID_4_);}
	.st8{fill:url(#SVGID_5_);}
	.st9{fill:url(#SVGID_6_);}
	.st10{fill:url(#SVGID_7_);}
	.st11{fill:url(#SVGID_8_);}
	.st12{fill:url(#SVGID_9_);}
</style>
<g id="Layer_1_1_">
</g>
<g>
	<g>
		<path class="st0" d="M-140.5,397.3c0,0.5-25.7,0.4-25.7,0.9s25.6,2.4,25.5,2.9c0,0.5-25.6-1.5-25.7-1.1
			c-0.1,0.5,25.3,4.4,25.2,4.9s-25.4-3.6-25.5-3.1s24.9,6.4,24.8,6.9s-25.1-5.6-25.2-5.1s24.3,8.3,24.2,8.8
			c-0.1,0.4-24.5-7.5-24.7-7.1s23.6,10.2,23.4,10.6c-0.2,0.4-23.9-9.4-24.1-9s22.7,12.1,22.5,12.5s-23.1-11.3-23.3-10.9
			s21.7,13.8,21.4,14.2c-0.2,0.5-22.1-13-22.4-12.6c-0.2,0.4,20.5,15.5,20.3,15.8c-0.3,0.4-21-14.8-21.3-14.4s19.2,17,18.9,17.4
			s-19.8-16.4-20.1-16s17.8,18.5,17.5,18.9c-0.3,0.3-18.5-17.8-18.8-17.5s16.4,19.8,16,20.1c-0.4,0.3-17-19.2-17.4-18.9
			c-0.4,0.3,14.8,21,14.4,21.3c-0.4,0.2-15.5-20.6-15.9-20.3c-0.4,0.3,13.1,22.1,12.7,22.4c-0.4,0.2-13.8-21.7-14.2-21.4
			c-0.4,0.2,11.3,23,10.9,23.2c-0.4,0.2-12.1-22.7-12.5-22.5s9.4,23.9,9,24.1s-10.2-23.6-10.7-23.4c-0.4,0.2,7.5,24.6,7.1,24.7
			s-8.3-24.3-8.8-24.2c-0.5,0.1,5.6,25.1,5.1,25.2s-6.4-24.9-6.9-24.8s3.6,25.4,3.1,25.5s-4.4-25.3-4.9-25.2
			c-0.5,0.1,1.6,25.6,1.1,25.7c-0.5,0-2.4-25.6-2.9-25.5c-0.5,0-0.4,25.7-0.9,25.7s-0.4-25.7-0.9-25.7s-2.4,25.6-2.9,25.5
			c-0.5,0,1.5-25.6,1.1-25.7c-0.5-0.1-4.4,25.3-4.9,25.2s3.6-25.4,3.1-25.5s-6.4,24.9-6.9,24.8s5.6-25.1,5.1-25.2
			s-8.3,24.3-8.8,24.2c-0.4-0.1,7.5-24.6,7.1-24.7c-0.4-0.2-10.2,23.6-10.7,23.4c-0.4-0.2,9.4-23.9,9-24.1s-12.1,22.7-12.5,22.5
			s11.3-23,10.9-23.3c-0.4-0.2-13.8,21.7-14.2,21.5c-0.4-0.3,13.1-22.2,12.7-22.4c-0.4-0.3-15.5,20.5-15.9,20.2s14.8-21,14.4-21.3
			c-0.4-0.3-17,19.2-17.4,18.9c-0.4-0.3,16.3-19.8,16-20.1c-0.3-0.3-18.5,17.9-18.8,17.6s17.8-18.5,17.5-18.8s-19.8,16.4-20.1,16
			s19.2-17,18.9-17.4s-21,14.7-21.3,14.3c-0.2-0.3,20.5-15.4,20.3-15.8c-0.3-0.4-22.2,13.1-22.4,12.7s21.6-13.8,21.4-14.3
			c-0.2-0.4-23.1,11.3-23.3,10.9s22.7-12.1,22.5-12.5s-23.9,9.4-24.1,9c-0.2-0.4,23.6-10.2,23.4-10.6c-0.2-0.4-24.6,7.5-24.7,7.1
			c-0.1-0.4,24.3-8.3,24.2-8.8s-25.1,5.6-25.2,5.1c-0.1-0.5,24.9-6.4,24.8-6.9c-0.1-0.5-25.4,3.6-25.5,3.1s25.3-4.4,25.2-4.9
			s-25.7,1.5-25.7,1.1c0-0.5,25.6-2.4,25.5-2.9c0-0.5-25.7-0.4-25.7-0.9s25.7-0.5,25.7-0.9c0-0.5-25.6-2.4-25.5-2.9
			c0-0.5,25.6,1.5,25.7,1.1c0.1-0.5-25.3-4.4-25.2-4.9s25.4,3.6,25.5,3.1s-24.9-6.4-24.8-6.9c0.1-0.5,25.1,5.5,25.2,5.1
			c0.1-0.5-24.3-8.4-24.2-8.8s24.6,7.5,24.7,7.1c0.2-0.4-23.6-10.2-23.4-10.7c0.2-0.4,23.9,9.4,24.1,9c0.2-0.4-22.7-12.1-22.5-12.5
			s23.1,11.3,23.3,10.9s-21.7-13.8-21.4-14.2c0.2-0.4,22.1,13.1,22.4,12.7s-20.5-15.5-20.2-15.9s21,14.8,21.3,14.4
			s-19.2-17-18.9-17.4s19.8,16.3,20.1,16s-17.9-18.5-17.6-18.8c0.3-0.3,18.5,17.8,18.8,17.5s-16.4-19.8-16-20.1
			c0.4-0.3,17,19.2,17.4,18.9c0.4-0.3-14.8-21-14.4-21.3c0.4-0.3,15.5,20.5,15.9,20.2s-13.1-22.1-12.7-22.4
			c0.4-0.2,13.8,21.6,14.2,21.4s-11.3-23.1-10.9-23.3c0.4-0.2,12.1,22.7,12.5,22.5s-9.4-23.9-9-24.1s10.2,23.5,10.7,23.4
			c0.4-0.2-7.5-24.6-7.1-24.7s8.3,24.3,8.8,24.2s-5.6-25.1-5.1-25.2s6.4,24.9,6.9,24.8s-3.6-25.4-3.1-25.5s4.4,25.3,4.9,25.2
			c0.5-0.1-1.6-25.6-1.1-25.7c0.5,0,2.4,25.6,2.9,25.5c0.5,0,0.4-25.6,0.9-25.6s0.5,25.6,0.9,25.7c0.5,0,2.4-25.6,2.9-25.5
			c0.5,0-1.5,25.6-1.1,25.7c0.5,0.1,4.4-25.3,4.9-25.2c0.5-0.1-3.5,25.3-3.1,25.4c0.5,0.1,6.4-24.9,6.9-24.8s-5.5,25.1-5.1,25.2
			c0.5,0.1,8.4-24.3,8.8-24.2c0.4,0.1-7.5,24.6-7.1,24.7c0.4,0.2,10.2-23.6,10.7-23.4c0.4,0.2-9.4,23.9-9,24.1s12.1-22.7,12.5-22.5
			s-11.3,23.1-10.9,23.3s13.8-21.7,14.2-21.4c0.4,0.2-13.1,22.1-12.7,22.4s15.5-20.5,15.9-20.2s-14.8,21-14.4,21.3
			c0.4,0.3,17-19.2,17.4-18.9c0.4,0.3-16.3,19.8-16,20.1c0.3,0.3,18.5-17.9,18.8-17.5c0.3,0.3-17.8,18.5-17.5,18.8
			s19.8-16.4,20.1-16s-19.2,17-18.9,17.4s21-14.8,21.3-14.4s-20.5,15.5-20.2,15.9s22.1-13.1,22.4-12.7c0.2,0.4-21.7,13.8-21.4,14.2
			c0.2,0.4,23.1-11.3,23.3-10.9s-22.7,12.1-22.5,12.5s23.9-9.4,24.1-9c0.2,0.4-23.5,10.2-23.4,10.7c0.2,0.4,24.6-7.5,24.7-7.1
			c0.1,0.4-24.3,8.3-24.2,8.8s25.1-5.6,25.2-5.1s-24.9,6.4-24.8,6.9s25.4-3.6,25.5-3.1s-25.3,4.4-25.2,4.9s25.6-1.6,25.7-1.1
			c0,0.5-25.6,2.4-25.5,2.9C-166.2,396.8-140.5,396.8-140.5,397.3z"/>
	</g>
	
		<linearGradient id="SVGID_1_" gradientUnits="userSpaceOnUse" x1="-189.25" y1="371.5001" x2="-189.25" y2="437.9006" gradientTransform="matrix(1 0 0 -1 0 802)">
		<stop  offset="0" style="stop-color:#FBB840"/>
		<stop  offset="0.3655" style="stop-color:#FDD223"/>
		<stop  offset="0.7614" style="stop-color:#FEE909"/>
		<stop  offset="1" style="stop-color:#FFF200"/>
	</linearGradient>
	<path class="st1" d="M-156.1,397.3c0,18.3-14.9,33.2-33.2,33.2s-33.2-14.9-33.2-33.2c0-18.3,14.9-33.2,33.2-33.2
		C-171,364-156.1,378.9-156.1,397.3z"/>
	
		<radialGradient id="SVGID_2_" cx="-189.3832" cy="404.9799" r="32.8335" fx="-157.6564" fy="413.4325" gradientTransform="matrix(1 0 0 -1 0 802)" gradientUnits="userSpaceOnUse">
		<stop  offset="0" style="stop-color:#FFF200"/>
		<stop  offset="0.4436" style="stop-color:#FFF002"/>
		<stop  offset="0.6034" style="stop-color:#FEEA09"/>
		<stop  offset="0.7173" style="stop-color:#FEDF14"/>
		<stop  offset="0.8094" style="stop-color:#FABF2A"/>
		<stop  offset="0.9283" style="stop-color:#F69B3D"/>
		<stop  offset="0.9457" style="stop-color:#F48F3E"/>
		<stop  offset="0.9773" style="stop-color:#F06E42"/>
		<stop  offset="1" style="stop-color:#ED5345"/>
	</radialGradient>
	<path class="st2" d="M-156.1,397.3c0,18.3-14.9,33.2-33.2,33.2s-33.2-14.9-33.2-33.2c0-18.3,14.9-33.2,33.2-33.2
		C-171,364-156.1,378.9-156.1,397.3z"/>
</g>
<g>
	<path class="st3" d="M-179.8,412.6c0.7,0,1.1,0.6,1.1,1.2c0,0.8-0.5,1.2-1.1,1.2s-1-0.4-1-1.2
		C-180.9,413.1-180.4,412.6-179.8,412.6L-179.8,412.6z M-179.8,413c-0.3,0-0.6,0.3-0.6,0.8s0.2,0.8,0.6,0.8c0.4,0,0.6-0.3,0.6-0.8
		C-179.3,413.3-179.4,413-179.8,413L-179.8,413z"/>
	<path class="st3" d="M-175.1,412.6c0.1,0,0.3,0,0.3,0.1c0,0-0.4,1-0.5,1s-0.3-0.3-0.9-0.3c-0.4,0-0.9,0.3-0.9,0.9
		c0,0.4,0,0.5,0.2,0.5c0.4,0,0.5-0.3,1.3-0.3c0.1,0,0.2,0,0.2,0.1c0,0-0.3,1-0.4,1c-0.1,0-0.2-0.1-0.5-0.1c-0.6,0-0.9,0.3-0.9,0.9
		s0.3,1.5,0.3,1.5c0,0.1-0.2,0.1-0.2,0.1h-0.8c-0.2,0-0.4,0.1-0.4-2.3c0-3.2,0.3-3.1,0.4-3.1L-175.1,412.6L-175.1,412.6z"/>
</g>
<g>
	<path class="st4" d="M-189.3,419.3c0,0.1-0.2,0.3-0.5,0.3s-0.5-0.1-0.5-0.3c0-0.1,0.2-0.3,0.5-0.3
		C-189.5,419.1-189.3,419.2-189.3,419.3z"/>
</g>
<g>
	
		<linearGradient id="SVGID_3_" gradientUnits="userSpaceOnUse" x1="-193.3143" y1="400.9001" x2="-185.8631" y2="400.9001" gradientTransform="matrix(1 0 0 -1 0 797)">
		<stop  offset="0" style="stop-color:#E3EFF5"/>
		<stop  offset="0.1758" style="stop-color:#F4FAFD"/>
		<stop  offset="0.4088" style="stop-color:#E5F0F6"/>
		<stop  offset="0.6898" style="stop-color:#DAE9F2"/>
		<stop  offset="1" style="stop-color:#D6E7F0"/>
	</linearGradient>
	<path class="st5" d="M-186,402.6v-26.5c0-2-1.6-3.6-3.6-3.6s-3.6,1.6-3.6,3.6l0.1,26.5c0,3.8-4.4,5.4-4.4,9.1c0,4.4,3.6,8,8,8
		s8-3.6,8-8C-181.7,407.9-186,406.7-186,402.6z"/>
	<g>
		<path class="st6" d="M-184.5,415.2c0.8-0.1,1.7-0.8,1.7-0.9s0.5-1,0.4-2.2l-0.5,0.3C-182.9,413.3-183.4,414.3-184.5,415.2z"/>
		<path class="st6" d="M-183.1,409.7c0,0,0.5,1,0.4,2.3l0.4-0.3C-182.4,411.1-182.6,410.4-183.1,409.7z"/>
	</g>
	
		<radialGradient id="SVGID_4_" cx="-189.2616" cy="411.3066" r="41.1946" gradientTransform="matrix(1 0 0 -0.7146 0 684.7845)" gradientUnits="userSpaceOnUse">
		<stop  offset="0" style="stop-color:#ECE924"/>
		<stop  offset="0.401" style="stop-color:#EA9524"/>
		<stop  offset="0.5454" style="stop-color:#E37323"/>
		<stop  offset="0.6484" style="stop-color:#D81E22"/>
		<stop  offset="0.7317" style="stop-color:#C71D21"/>
		<stop  offset="0.803" style="stop-color:#B11C1F"/>
		<stop  offset="0.8662" style="stop-color:#951A1D"/>
		<stop  offset="0.9233" style="stop-color:#75171A"/>
		<stop  offset="0.974" style="stop-color:#511517"/>
		<stop  offset="1" style="stop-color:#3B1315"/>
	</radialGradient>
	<path class="st7" d="M-186,391.3c-1.1,0.4-2.3,0.6-3.6,0.6s-2.5-0.2-3.6-0.6l0.1,16.1c0,2.7-4.4,3.9-4.4,6.5c0,3.1,3.6,5.7,8,5.7
		s8-2.6,8-5.7c0-2.8-4.3-3.6-4.3-6.5v-16.1H-186z"/>
	<g>
		
			<linearGradient id="SVGID_5_" gradientUnits="userSpaceOnUse" x1="-196.6644" y1="386.0001" x2="-195.6312" y2="386.0001" gradientTransform="matrix(1 0 0 -1 0 797)">
			<stop  offset="0" style="stop-color:#E3EFF5"/>
			<stop  offset="0.1758" style="stop-color:#F4FAFD"/>
			<stop  offset="0.4088" style="stop-color:#E5F0F6"/>
			<stop  offset="0.6898" style="stop-color:#DAE9F2"/>
			<stop  offset="1" style="stop-color:#D6E7F0"/>
		</linearGradient>
		<path class="st8" d="M-195.7,412.9c-0.6-0.5-1-1.5-1-1.7c0-0.1,0.1-1.1,0.8-2.1l0.3,0.5C-196,410.5-196.2,411.6-195.7,412.9z"/>
		
			<linearGradient id="SVGID_6_" gradientUnits="userSpaceOnUse" x1="-195.6942" y1="388.5001" x2="-193.9188" y2="388.5001" gradientTransform="matrix(1 0 0 -1 0 797)">
			<stop  offset="0" style="stop-color:#E3EFF5"/>
			<stop  offset="0.1758" style="stop-color:#F4FAFD"/>
			<stop  offset="0.4088" style="stop-color:#E5F0F6"/>
			<stop  offset="0.6898" style="stop-color:#DAE9F2"/>
			<stop  offset="1" style="stop-color:#D6E7F0"/>
		</linearGradient>
		<path class="st9" d="M-194,407.6c0,0-1,0.6-1.6,1.8l-0.2-0.5C-195.3,408.4-194.8,407.9-194,407.6z"/>
	</g>
	<g>
		
			<linearGradient id="SVGID_7_" gradientUnits="userSpaceOnUse" x1="-145.5438" y1="256.4154" x2="-143.3817" y2="256.4154" gradientTransform="matrix(0.9879 0.1548 0.1548 -0.9879 -80.3995 689.6223)">
			<stop  offset="0" style="stop-color:#E3EFF5"/>
			<stop  offset="0.1758" style="stop-color:#F4FAFD"/>
			<stop  offset="0.4088" style="stop-color:#E5F0F6"/>
			<stop  offset="0.6898" style="stop-color:#DAE9F2"/>
			<stop  offset="1" style="stop-color:#D6E7F0"/>
		</linearGradient>
		<path class="st10" d="M-184.8,415.3c0.8,0,1.8-0.5,1.9-0.6c0.1-0.1,0.6-0.9,0.8-2.1l-0.5,0.2C-183,413.7-183.6,414.6-184.8,415.3z
			"/>
		
			<linearGradient id="SVGID_8_" gradientUnits="userSpaceOnUse" x1="-144.2198" y1="259.1652" x2="-143.403" y2="259.1652" gradientTransform="matrix(0.9879 0.1548 0.1548 -0.9879 -80.3995 689.6223)">
			<stop  offset="0" style="stop-color:#E3EFF5"/>
			<stop  offset="0.1758" style="stop-color:#F4FAFD"/>
			<stop  offset="0.4088" style="stop-color:#E5F0F6"/>
			<stop  offset="0.6898" style="stop-color:#DAE9F2"/>
			<stop  offset="1" style="stop-color:#D6E7F0"/>
		</linearGradient>
		<path class="st11" d="M-182.6,410.1c0,0,0.3,1.1,0,2.4l0.5-0.2C-182.1,411.6-182.2,410.9-182.6,410.1z"/>
	</g>
</g>
<linearGradient id="SVGID_9_" gradientUnits="userSpaceOnUse" x1="-193.1747" y1="405.05" x2="-185.9647" y2="405.05" gradientTransform="matrix(1 0 0 -1 0 797)">
	<stop  offset="0" style="stop-color:#D1D1D6"/>
	<stop  offset="5.565168e-02" style="stop-color:#D4D4D9"/>
	<stop  offset="0.1038" style="stop-color:#DFDFE2"/>
	<stop  offset="0.149" style="stop-color:#F1F1F2"/>
	<stop  offset="0.1756" style="stop-color:#FFFFFF"/>
	<stop  offset="1" style="stop-color:#231F20"/>
</linearGradient>
<path class="st12" d="M-192.3,391.7c-0.3-0.1-0.6-0.2-0.8-0.3c-0.1,0-0.1-0.1-0.2-0.1v0.6c0.6,0.2,1.9,0.7,3.6,0.7l0,0
	c1.1,0,2.3-0.2,3.6-0.7v-0.6c-1.3,0.6-2.5,0.8-3.6,0.8C-190.7,392-191.6,391.9-192.3,391.7z"/>
</svg>
