<?xml version="1.0" encoding="utf-8"?>
<!-- Generator: Adobe Illustrator 19.1.0, SVG Export Plug-In . SVG Version: 6.00 Build 0)  -->
<svg version="1.1" id="Layer_1" xmlns="http://www.w3.org/2000/svg" xmlns:xlink="http://www.w3.org/1999/xlink" x="0px" y="0px"
	 viewBox="-233 338.8 144.2 117.2" style="enable-background:new -233 338.8 144.2 117.2;" xml:space="preserve">
<style type="text/css">
	.st0{fill:#FBB040;}
	.st1{fill:url(#SVGID_1_);}
	.st2{fill:url(#SVGID_2_);}
	.st3{fill:#C5E0F1;}
	.st4{fill:url(#SVGID_3_);}
	.st5{fill:#94A7AF;}
	.st6{fill:url(#SVGID_4_);}
	.st7{fill:url(#SVGID_5_);}
	.st8{fill:url(#SVGID_6_);}
	.st9{fill:url(#SVGID_7_);}
	.st10{fill:url(#SVGID_8_);}
</style>
<g id="Layer_1_1_">
</g>
<g id="Layer_2">
	<g>
		<g>
			<g>
				<path class="st0" d="M-114,380.7c0,0.4-22,0.4-22,0.8c0,0.4,21.9,2.1,21.9,2.5c0,0.4-22-1.3-22-0.9c0,0.4,21.7,3.8,21.7,4.2
					c-0.1,0.4-21.8-3-21.9-2.7c-0.1,0.4,21.3,5.5,21.3,5.9c-0.1,0.4-21.5-4.8-21.6-4.4c-0.1,0.4,20.8,7.2,20.7,7.5
					c-0.1,0.4-21.1-6.4-21.2-6.1c-0.1,0.4,20.2,8.8,20.1,9.2c-0.2,0.4-20.5-8.1-20.7-7.7c-0.2,0.4,19.5,10.4,19.3,10.7
					c-0.2,0.4-19.8-9.7-20-9.3s18.6,11.9,18.4,12.2c-0.2,0.3-19-11.2-19.2-10.9c-0.2,0.3,17.6,13.3,17.4,13.6s-18-12.7-18.3-12.3
					c-0.3,0.3,16.5,14.6,16.2,14.9c-0.3,0.3-17-14-17.3-13.7c-0.3,0.3,15.3,15.9,15,16.1c-0.3,0.3-15.8-15.3-16.1-15
					c-0.3,0.3,14,17,13.7,17.3c-0.3,0.3-14.6-16.5-14.9-16.2c-0.3,0.2,12.7,18,12.3,18.3c-0.3,0.2-13.3-17.6-13.6-17.4
					c-0.3,0.2,11.2,19,10.9,19.2c-0.4,0.1-11.9-18.7-12.2-18.5c-0.4,0.2,9.7,19.8,9.3,20c-0.4,0.2-10.3-19.4-10.7-19.3
					c-0.4,0.2,8.1,20.5,7.7,20.7c-0.4,0.2-8.8-20.2-9.2-20.1s6.5,21.1,6.1,21.2c-0.4,0.1-7.1-20.9-7.5-20.7
					c-0.4,0.1,4.8,21.5,4.4,21.6s-5.5-21.3-5.9-21.3c-0.4,0.1,3,21.8,2.6,21.9c-0.4,0.1-3.8-21.7-4.2-21.7s1.3,22,0.9,22
					c-0.4,0-2.1-21.9-2.5-21.9c-0.4,0-0.4,22-0.8,22c-0.4,0-0.4-22-0.8-22c-0.4,0-2.1,21.9-2.5,21.9c-0.4,0,1.3-22,0.9-22
					s-3.8,21.7-4.2,21.7c-0.4-0.1,3-21.8,2.7-21.9c-0.4-0.1-5.5,21.3-5.9,21.3c-0.3-0.1,4.9-21.5,4.5-21.6
					c-0.4-0.1-7.2,20.8-7.5,20.7c-0.4-0.1,6.4-21.1,6.1-21.2c-0.4-0.1-8.8,20.2-9.2,20.1c-0.4-0.2,8.1-20.5,7.7-20.7
					c-0.4-0.2-10.4,19.5-10.7,19.3c-0.4-0.2,9.7-19.8,9.3-20c-0.3-0.2-11.8,18.6-12.2,18.3c-0.3-0.2,11.2-19,10.9-19.2
					c-0.4-0.2-13.3,17.7-13.6,17.4c-0.3-0.2,12.7-18,12.3-18.3c-0.3-0.2-14.6,16.5-14.9,16.3c-0.3-0.3,14-17,13.7-17.3
					c-0.3-0.3-15.9,15.3-16.1,15c-0.3-0.3,15.3-15.8,15-16.1c-0.3-0.3-17,14-17.3,13.7c-0.3-0.3,16.5-14.6,16.2-14.9
					c-0.3-0.3-18,12.7-18.3,12.3c-0.2-0.3,17.6-13.3,17.4-13.6c-0.2-0.3-19,11.2-19.2,10.9c-0.2-0.3,18.6-11.8,18.4-12.2
					c-0.2-0.4-19.8,9.7-20,9.3c-0.2-0.4,19.4-10.3,19.3-10.7c-0.2-0.4-20.5,8.1-20.7,7.7c-0.2-0.4,20.2-8.8,20.1-9.2
					c-0.1-0.4-21.1,6.5-21.2,6.1c-0.1-0.4,20.8-7.2,20.7-7.5c0-0.3-21.4,4.8-21.5,4.4s21.3-5.5,21.3-5.9c-0.1-0.4-21.8,3.1-21.9,2.7
					c-0.1-0.4,21.7-3.8,21.7-4.2c0-0.4-22,1.3-22,0.9s21.9-2.1,21.9-2.5s-22-0.4-22-0.8c0-0.4,22-0.4,22-0.8s-21.9-2.1-21.9-2.5
					s22,1.3,22,0.9s-21.7-3.8-21.7-4.2c0.1-0.4,21.8,3,21.9,2.7c0.1-0.4-21.4-5.5-21.3-5.9c0.1-0.4,21.5,4.8,21.6,4.4
					c0.1-0.4-20.8-7.2-20.7-7.5c0.1-0.4,21.1,6.4,21.2,6.1c0.1-0.4-20.2-8.8-20.1-9.2c0.2-0.4,20.5,8.1,20.7,7.7
					s-19.5-10.4-19.3-10.7c0.2-0.4,19.8,9.7,20,9.3c0.2-0.4-18.6-11.9-18.4-12.2c0.2-0.3,19,11.2,19.2,10.9
					c0.2-0.3-17.6-13.3-17.4-13.6c0.2-0.3,18,12.7,18.3,12.3c0.3-0.3-16.5-14.6-16.2-14.9c0.3-0.3,17,14,17.3,13.7
					c0.3-0.3-15.3-15.9-15-16.1c0.3-0.3,15.8,15.3,16.1,15c0.2-0.2-14.1-16.9-13.8-17.2s14.6,16.5,14.9,16.2
					c0.3-0.2-12.6-18-12.3-18.2c0.3-0.2,13.3,17.6,13.6,17.4c0.3-0.2-11.2-19-10.9-19.2c0.4-0.2,11.9,18.5,12.2,18.3
					c0.4-0.2-9.7-19.8-9.3-20c0.3-0.1,10.3,19.5,10.7,19.3c0.4-0.2-8.1-20.5-7.7-20.7c0.4-0.2,8.8,20.2,9.2,20.1
					c0.4-0.1-6.5-21.1-6.1-21.2s7.2,20.8,7.5,20.7c0.4-0.1-4.8-21.5-4.4-21.6c0.4-0.1,5.5,21.3,5.9,21.3c0.4-0.1-3.1-21.8-2.7-21.9
					s3.8,21.7,4.2,21.7c0.4,0-1.3-22-0.9-22c0.4,0,2.1,21.9,2.5,21.9c0.4,0,0.4-22,0.8-22c0.4,0,0.4,22,0.8,22
					c0.4,0,2.1-21.9,2.5-21.9c0.4,0-1.3,22-0.9,22s3.8-21.7,4.2-21.7c0.4,0.1-3,21.8-2.7,21.9c0.4,0.1,5.5-21.3,5.9-21.3
					c0.4,0.1-4.8,21.5-4.4,21.6c0.4,0.2,7.1-20.8,7.5-20.7c0.4,0.1-6.5,21.1-6.1,21.2c0.4,0.1,8.8-20.2,9.2-20.1
					c0.4,0.2-8.1,20.5-7.7,20.7c0.4,0.2,10.3-19.4,10.7-19.2c0.4,0.2-9.7,19.8-9.3,20c0.3,0.1,11.8-18.6,12.2-18.4
					c0.3,0.2-11.2,19-10.9,19.2c0.3,0.2,13.3-17.6,13.6-17.4c0.3,0.2-12.7,18-12.3,18.3c0.3,0.3,14.6-16.5,14.9-16.2
					c0.3,0.3-14,17-13.7,17.3c0.3,0.3,15.9-15.3,16.1-15c0.3,0.3-15.3,15.8-15,16.1c0.3,0.3,17-14,17.3-13.7
					c0.3,0.3-16.5,14.6-16.2,14.9c0.3,0.3,18-12.7,18.3-12.3c0.2,0.3-17.6,13.3-17.4,13.6c0.2,0.3,19-11.2,19.2-10.9
					c0.2,0.3-18.6,11.8-18.4,12.2c0.2,0.4,19.8-9.7,20-9.3c0.2,0.4-19.4,10.3-19.3,10.7c0.2,0.4,20.5-8.1,20.7-7.7
					s-20.2,8.8-20.1,9.2c0.1,0.4,21.1-6.5,21.2-6.1c0.1,0.4-20.8,7.2-20.7,7.5c0.1,0.4,21.5-4.8,21.6-4.4s-21.3,5.5-21.3,5.9
					c0.1,0.4,21.8-3.1,21.9-2.7c0.1,0.4-21.7,3.8-21.7,4.2s22-1.3,22-0.9c0.1,0.3-21.9,2-21.9,2.4S-114,380.3-114,380.7z"/>
			</g>
			
				<linearGradient id="SVGID_1_" gradientUnits="userSpaceOnUse" x1="-155.8" y1="388.4" x2="-155.8" y2="445.4" gradientTransform="matrix(1 0 0 -1 0 797.6)">
				<stop  offset="0" style="stop-color:#FBB840"/>
				<stop  offset="0.3655" style="stop-color:#FDD223"/>
				<stop  offset="0.7614" style="stop-color:#FEE909"/>
				<stop  offset="1" style="stop-color:#FFF200"/>
			</linearGradient>
			<circle class="st1" cx="-155.8" cy="380.7" r="28.5"/>
			
				<radialGradient id="SVGID_2_" cx="-153.9631" cy="416.2033" r="37.0815" gradientTransform="matrix(1 0 0 -1 0 797.6)" gradientUnits="userSpaceOnUse">
				<stop  offset="0" style="stop-color:#FFF200"/>
				<stop  offset="0.4436" style="stop-color:#FFF002"/>
				<stop  offset="0.6034" style="stop-color:#FEEA09"/>
				<stop  offset="0.7173" style="stop-color:#FEDF14"/>
				<stop  offset="0.8094" style="stop-color:#FDD025"/>
				<stop  offset="0.8874" style="stop-color:#FBBC3B"/>
				<stop  offset="0.9018" style="stop-color:#FBB840"/>
			</radialGradient>
			<circle class="st2" cx="-155.8" cy="380.7" r="28.5"/>
		</g>
		<g>
			<g>
				<path class="st3" d="M-213,382.7c-2.2,0-4.2-0.9-5.4-2.3c-0.7,0.7-1.6,1.1-2.6,1.1c-0.2,0-0.4,0-0.6-0.1c-1.1-0.2-2-0.9-2.5-1.8
					c-0.9,0.5-1.9,0.7-2.9,0.7c-3.2,0-5.9-2.5-5.9-5.5c0-2.8,2.2-5.1,5-5.5c0.1-1.9,1.7-3.4,3.7-3.4c0.3,0,0.6,0,0.9,0.1
					c-0.2-3,2.6-5.9,6.6-6.6c0.5-0.1,1-0.1,1.5-0.1c1.9,0,3.6,0.5,4.9,1.5c0.4-0.1,0.7-0.1,1.1-0.1c1.3,0,2.7,0.4,4,1.2
					c2,1.3,3.4,3.2,3.5,4.9c0.1,0,0.1,0,0.2,0c1.6,0.2,3,0.8,4,1.7c1.1,0.9,1.5,2,1.4,3.1c0,0.2-0.1,0.4-0.1,0.5
					c2.8,0.8,4.6,2.7,4.3,4.6c-0.3,1.9-2.4,3.2-5.3,3.2c-0.4,0-0.9,0-1.3-0.1c-0.9-0.1-1.9-0.4-2.7-0.8c-0.7,0.6-1.6,1-2.5,1
					c-0.2,0-0.4,0-0.6-0.1c-0.8-0.1-1.5-0.5-2-1.1c-1,1.8-3,3.1-5.3,3.5C-212.2,382.7-212.6,382.7-213,382.7L-213,382.7z"/>
				
					<radialGradient id="SVGID_3_" cx="-211.7814" cy="445.0817" r="44.2363" gradientTransform="matrix(1 0 0 -1 0 797.6)" gradientUnits="userSpaceOnUse">
					<stop  offset="0" style="stop-color:#F4F5F9"/>
					<stop  offset="0.1526" style="stop-color:#EFF3F8"/>
					<stop  offset="0.3235" style="stop-color:#E2EDF6"/>
					<stop  offset="0.5026" style="stop-color:#CCE3F2"/>
					<stop  offset="0.5463" style="stop-color:#C5E0F1"/>
					<stop  offset="0.6293" style="stop-color:#B5D3E6"/>
					<stop  offset="0.7917" style="stop-color:#8BB2C8"/>
					<stop  offset="1" style="stop-color:#4C809C"/>
				</radialGradient>
				<path class="st4" d="M-196.7,372.6c0.1-0.2,0.2-0.5,0.2-0.7c0.3-2.1-2-4.1-5.2-4.5c-0.1,0-0.3,0-0.4,0c0.1-1.7-1.2-3.7-3.3-5
					c-1.8-1.1-3.7-1.4-5.1-1.1c-1.5-1.2-3.8-1.8-6.3-1.4c-4,0.6-6.8,3.6-6.3,6.6v0.1c-0.4-0.2-0.8-0.2-1.3-0.2
					c-1.9,0-3.4,1.5-3.4,3.3l0,0c-2.8,0.3-5,2.5-5,5.2c0,2.9,2.5,5.3,5.6,5.3c1.1,0,2.2-0.3,3-0.8c0.4,1,1.3,1.7,2.5,1.9
					c1.3,0.2,2.5-0.3,3.2-1.2c1.3,1.8,3.9,2.8,6.6,2.4c2.5-0.4,4.4-1.9,5.3-3.7c0.5,0.7,1.2,1.2,2.1,1.3c1.2,0.2,2.3-0.2,3-1
					c0.8,0.4,1.7,0.7,2.8,0.9c3.2,0.5,6-0.8,6.3-2.9C-192,375.1-193.9,373.3-196.7,372.6z"/>
				<path class="st3" d="M-221.7,367c0,0.2,0.1,0.4,0.2,0.6c-0.3-0.5-0.5-1-0.6-1.5c-0.4-2.6,2-5.2,5.5-5.8c3.2-0.5,4.5,0.3,5.8,2.1
					c-1.7-1.1-2.7-1.6-5.4-1.2C-219.6,361.8-222.1,364.3-221.7,367z M-205.6,362.8c-2.4-1.5-5.1-1.4-6.1,0.1
					c-0.2,0.4-0.3,0.8-0.3,1.2c0-0.3,0.1-0.5,0.3-0.7c0.9-1.5,3.5-1.5,5.7-0.1c2.3,1.4,3.4,3.7,2.5,5.2c-0.3,0.5-0.8,0.8-1.4,1
					c0.9-0.1,1.6-0.5,2-1.1C-202,366.7-203.2,364.2-205.6,362.8z M-201.3,368c-0.6-0.1-1.1-0.1-1.7,0c0.2,0,0.4,0,0.6,0.1
					c3,0.4,5.3,2.4,5,4.4c0,0.2-0.1,0.3-0.1,0.5c0.3-0.3,0.5-0.7,0.5-1.1C-196.8,370-198.7,368.4-201.3,368z M-226.7,378.9
					c0.4,0,0.7,0,1-0.1c-0.6,0.2-1.2,0.3-1.8,0.3c-2.5,0-4.6-1.9-4.6-4.3s2.1-4.3,4.6-4.3c0.3,0,0.5,0,0.8,0.1
					c-2.4,0-4.3,1.9-4.3,4.2S-229.1,378.9-226.7,378.9z M-221.3,380.2c-1.4-0.3-2.4-1.9-2.4-3.3c-0.1,0.2-0.1,0.4-0.2,0.6
					c-0.3,1.6,0.8,3,2.3,3.3c1.6,0.3,3.1-0.8,3.3-2.3c0-0.2,0-0.3,0-0.4C-218.7,379.3-220,380.5-221.3,380.2z M-206.8,376.1
					c-0.1-0.3-0.2-0.7-0.3-1c0,0.1,0,0.1,0,0.2c0.4,2.6-1.8,5.1-4.8,5.6c-3.1,0.5-5.9-1.2-6.3-3.9c0-0.1,0-0.1,0-0.2
					c0,0.3,0,0.7,0,1.1c0.4,2.6,3.3,4.3,6.5,3.9C-208.6,381.3-206.4,378.8-206.8,376.1z M-204.2,379.3c-0.9-0.2-1.6-0.7-2.1-1.3
					c0.4,0.8,1.2,1.5,2.2,1.6c1.4,0.2,2.7-0.5,3.3-1.6C-201.6,379-202.9,379.6-204.2,379.3z M-223.7,367c0.3,0,0.7,0.1,1,0.1
					c-0.5-0.3-1.1-0.5-1.7-0.5c-1.6,0-2.9,1.3-2.9,2.8c0,0.1,0,0.3,0,0.4C-226.9,368.2-225.5,367-223.7,367z M-197,373.1
					c2.2,0.8,3.7,2.2,3.4,3.5c-0.3,1.8-3.4,2.9-6.9,2.4l0,0c0.5,0.2,1.1,0.3,1.7,0.4c3,0.4,5.7-0.7,6-2.5
					C-192.5,375.3-194.4,373.6-197,373.1z M-217.7,376.9c-0.2-1.1,0.2-2.2,0.8-3.1c-1.2,1-1.9,2.5-1.6,3.9c0.4,2.5,3.1,4.1,6.1,3.6
					c1-0.2,1.9-0.5,2.6-1c-0.4,0.1-0.8,0.3-1.3,0.3C-214.4,381.2-217.3,379.5-217.7,376.9z"/>
			</g>
			<g>
				<path class="st5" d="M-123.6,414.3c-3.6,0-6.9-1.4-8.9-3.9c-1.1,1.2-2.7,1.9-4.4,1.9c-0.3,0-0.7,0-1.1-0.1
					c-1.8-0.3-3.3-1.4-4.2-3c-1.5,0.8-3.1,1.2-4.9,1.2c-5.4,0-9.8-4.1-9.8-9.2c0-4.6,3.6-8.4,8.4-9.1c0.2-3.1,2.9-5.6,6.1-5.6
					c0.5,0,1,0.1,1.6,0.2c-0.4-5,4.4-9.9,10.9-10.9c0.8-0.1,1.7-0.2,2.5-0.2c3.1,0,5.9,0.9,8.1,2.5c0.6-0.1,1.2-0.2,1.9-0.2
					c2.2,0,4.6,0.7,6.7,2c3.4,2.1,5.7,5.3,5.7,8.2c0.1,0,0.2,0,0.3,0c2.6,0.4,5,1.4,6.7,2.9s2.6,3.4,2.3,5.2c0,0.3-0.1,0.6-0.2,0.9
					c4.6,1.3,7.6,4.4,7.1,7.6c-0.5,3.1-4,5.3-8.7,5.3c-0.7,0-1.4-0.1-2.2-0.2c-1.6-0.2-3.1-0.7-4.4-1.4c-1.1,1.1-2.6,1.7-4.1,1.7
					c-0.3,0-0.7,0-1.1-0.1c-1.3-0.2-2.5-0.9-3.4-1.8c-1.7,3-5,5.2-8.8,5.8C-122.2,414.2-122.9,414.3-123.6,414.3L-123.6,414.3z"/>
				
					<radialGradient id="SVGID_4_" cx="-121.5883" cy="433.4161" r="73.3558" gradientTransform="matrix(1 0 0 -1 0 797.6)" gradientUnits="userSpaceOnUse">
					<stop  offset="0" style="stop-color:#F4F5F9"/>
					<stop  offset="0.1335" style="stop-color:#EFF2F7"/>
					<stop  offset="0.283" style="stop-color:#E2EBF2"/>
					<stop  offset="0.4397" style="stop-color:#CCDEEA"/>
					<stop  offset="0.5463" style="stop-color:#B8D3E2"/>
					<stop  offset="0.6471" style="stop-color:#ADC5D2"/>
					<stop  offset="0.8435" style="stop-color:#8FA1A8"/>
					<stop  offset="1" style="stop-color:#748082"/>
				</radialGradient>
				<path class="st6" d="M-96.6,397.5c0.2-0.4,0.3-0.8,0.4-1.2c0.5-3.4-3.4-6.8-8.6-7.5c-0.2,0-0.4-0.1-0.7-0.1
					c0.1-2.7-2-6.1-5.5-8.2c-2.9-1.8-6.1-2.4-8.5-1.7c-2.5-2-6.3-3-10.4-2.4c-6.6,1-11.3,5.9-10.5,11v0.1c-0.6-0.3-1.4-0.4-2.1-0.4
					c-3.1,0-5.7,2.5-5.7,5.5l0,0c-4.7,0.4-8.4,4.2-8.4,8.7c0,4.8,4.2,8.7,9.3,8.7c1.9,0,3.6-0.5,5-1.4c0.7,1.6,2.2,2.8,4.1,3.2
					c2.1,0.4,4.1-0.5,5.4-2.1c2.2,3,6.4,4.7,11,4c4.1-0.6,7.3-3.1,8.8-6.1c0.8,1.1,2,1.9,3.5,2.2c1.9,0.3,3.8-0.4,5.1-1.7
					c1.3,0.7,2.9,1.2,4.6,1.5c5.2,0.8,9.9-1.4,10.4-4.8C-88.8,401.7-92,398.6-96.6,397.5z"/>
				
					<radialGradient id="SVGID_5_" cx="-111.8237" cy="446.7428" r="81.9103" gradientTransform="matrix(1 0 0 -1 0 797.6)" gradientUnits="userSpaceOnUse">
					<stop  offset="0" style="stop-color:#F4F5F9"/>
					<stop  offset="0.1013" style="stop-color:#EFF2F7"/>
					<stop  offset="0.2148" style="stop-color:#E2EBF2"/>
					<stop  offset="0.3337" style="stop-color:#CCDEEA"/>
					<stop  offset="0.4146" style="stop-color:#B8D3E2"/>
					<stop  offset="0.5447" style="stop-color:#ADC5D2"/>
					<stop  offset="0.7981" style="stop-color:#8FA1A8"/>
					<stop  offset="1" style="stop-color:#748082"/>
				</radialGradient>
				<path class="st7" d="M-138,388.2c0.1,0.3,0.2,0.7,0.3,1c-0.5-0.8-0.8-1.6-1-2.5c-0.7-4.4,3.4-8.7,9.1-9.6
					c5.3-0.8,7.5,0.5,9.7,3.5c-2.8-1.8-4.4-2.7-8.9-2C-134.6,379.5-138.7,383.8-138,388.2z M-111.3,381.2c-4-2.4-8.5-2.3-10,0.2
					c-0.4,0.6-0.5,1.3-0.5,2c0.1-0.4,0.2-0.9,0.4-1.2c1.5-2.4,5.7-2.5,9.5-0.2c3.7,2.3,5.6,6.1,4.1,8.6c-0.5,0.8-1.3,1.3-2.3,1.6
					c1.4-0.2,2.6-0.8,3.3-1.9C-105.4,387.7-107.3,383.6-111.3,381.2z M-104.2,389.8c-1-0.1-1.9-0.2-2.8-0.1c0.3,0,0.6,0.1,0.9,0.1
					c5,0.7,8.8,4,8.3,7.3c0,0.3-0.1,0.5-0.2,0.8c0.5-0.5,0.8-1.2,0.9-1.9C-96.7,393.2-99.9,390.5-104.2,389.8z M-146.3,408
					c0.6,0,1.2-0.1,1.7-0.2c-0.9,0.4-1.9,0.6-3,0.6c-4.2,0-7.6-3.2-7.6-7.2s3.4-7.2,7.6-7.2c0.4,0,0.9,0,1.3,0.1
					c-4,0-7.2,3.1-7.2,6.9C-153.5,404.9-150.3,408-146.3,408z M-137.4,410.1c-2.4-0.4-4-3.1-3.9-5.4c-0.1,0.3-0.2,0.6-0.3,1
					c-0.5,2.6,1.3,5.1,3.9,5.5c2.6,0.5,5.1-1.3,5.5-3.8c0-0.2,0.1-0.5,0.1-0.7C-133,408.6-135.2,410.5-137.4,410.1z M-113.4,403.4
					c-0.1-0.6-0.3-1.1-0.5-1.6c0,0.1,0.1,0.2,0.1,0.3c0.7,4.4-2.9,8.5-8,9.3c-5.1,0.8-9.8-2.1-10.5-6.4c0-0.1,0-0.2,0-0.4
					c-0.1,0.6-0.1,1.2,0,1.7c0.7,4.3,5.5,7.2,10.7,6.4C-116.4,411.9-112.7,407.7-113.4,403.4z M-109,408.6c-1.5-0.3-2.7-1.1-3.6-2.2
					c0.7,1.4,2,2.4,3.7,2.7c2.3,0.4,4.4-0.8,5.5-2.7C-104.7,408.1-106.8,409-109,408.6z M-141.3,388.1c0.6,0,1.1,0.1,1.6,0.2
					c-0.8-0.6-1.8-0.9-2.8-0.9c-2.6,0-4.8,2.1-4.8,4.7c0,0.2,0,0.5,0.1,0.7C-146.7,390.2-144.3,388.1-141.3,388.1z M-97.1,398.3
					c3.7,1.3,6.1,3.6,5.7,5.8c-0.5,3-5.6,4.8-11.4,4l0,0c0.9,0.3,1.8,0.5,2.8,0.7c5,0.7,9.4-1.2,9.9-4.2
					C-89.7,401.9-92.7,399.2-97.1,398.3z M-131.4,404.7c-0.3-1.8,0.3-3.6,1.4-5.2c-2,1.7-3.1,4.1-2.7,6.5c0.6,4.1,5.1,6.7,10,6
					c1.6-0.3,3.1-0.9,4.3-1.7c-0.7,0.2-1.4,0.4-2.1,0.5C-125.9,411.7-130.8,408.9-131.4,404.7z"/>
			</g>
			<g>
				<path class="st3" d="M-172.1,420.6c-4.3,0-8.2-1.7-10.5-4.6c-1.3,1.4-3.2,2.2-5.1,2.2c-0.4,0-0.8,0-1.2-0.1
					c-2.1-0.4-3.9-1.7-5-3.5c-1.7,0.9-3.7,1.4-5.7,1.4c-6.3,0-11.5-4.9-11.5-10.8c0-5.4,4.2-9.9,9.9-10.7c0.2-3.7,3.4-6.6,7.2-6.6
					c0.6,0,1.2,0.1,1.8,0.2c-0.5-5.9,5.1-11.6,12.8-12.8c1-0.2,2-0.2,3-0.2c3.6,0,7,1.1,9.5,3c0.7-0.2,1.4-0.2,2.2-0.2
					c2.6,0,5.4,0.9,7.9,2.4c4,2.5,6.7,6.3,6.8,9.7c0.1,0,0.2,0,0.3,0c3.1,0.4,5.9,1.7,7.9,3.4c2.1,1.8,3,4,2.7,6.1
					c-0.1,0.3-0.1,0.7-0.3,1c5.4,1.5,8.9,5.2,8.4,9c-0.5,3.7-4.8,6.3-10.3,6.3c-0.8,0-1.7-0.1-2.5-0.2c-1.8-0.3-3.6-0.8-5.2-1.6
					c-1.3,1.2-3.1,2-4.9,2c-0.4,0-0.8,0-1.3-0.1c-1.5-0.3-2.9-1-4-2.2c-2,3.5-5.9,6.1-10.4,6.8
					C-170.5,420.6-171.3,420.6-172.1,420.6L-172.1,420.6z"/>
				
					<radialGradient id="SVGID_6_" cx="-169.7271" cy="435.9991" r="86.4602" gradientTransform="matrix(1 0 0 -1 0 797.6)" gradientUnits="userSpaceOnUse">
					<stop  offset="0" style="stop-color:#F4F5F9"/>
					<stop  offset="0.1526" style="stop-color:#EFF3F8"/>
					<stop  offset="0.3235" style="stop-color:#E2EDF6"/>
					<stop  offset="0.5026" style="stop-color:#CCE3F2"/>
					<stop  offset="0.5463" style="stop-color:#C5E0F1"/>
					<stop  offset="0.6293" style="stop-color:#B5D3E6"/>
					<stop  offset="0.7917" style="stop-color:#8BB2C8"/>
					<stop  offset="1" style="stop-color:#4C809C"/>
				</radialGradient>
				<path class="st8" d="M-140.2,400.9c0.2-0.5,0.4-0.9,0.5-1.5c0.6-4-4-8-10.1-8.9c-0.3,0-0.5-0.1-0.8-0.1c0.1-3.2-2.3-7.1-6.5-9.7
					c-3.4-2.1-7.2-2.8-10-2.1c-3-2.4-7.5-3.6-12.2-2.8c-7.7,1.2-13.3,7-12.3,12.9c0,0.1,0,0.1,0,0.2c-0.8-0.3-1.6-0.5-2.5-0.5
					c-3.7,0-6.7,2.9-6.7,6.5l0,0c-5.5,0.5-9.9,4.9-9.9,10.2c0,5.7,4.9,10.3,11,10.3c2.2,0,4.2-0.6,5.9-1.6c0.9,1.9,2.6,3.3,4.8,3.7
					c2.5,0.4,4.9-0.6,6.3-2.4c2.6,3.6,7.6,5.5,12.9,4.7c4.8-0.8,8.7-3.6,10.4-7.2c1,1.3,2.4,2.3,4.2,2.6c2.3,0.4,4.5-0.4,6-2
					c1.5,0.8,3.4,1.5,5.4,1.8c6.2,0.9,11.7-1.6,12.2-5.6C-131.1,405.8-134.9,402.1-140.2,400.9z"/>
				<path class="st3" d="M-189,389.9c0.1,0.4,0.2,0.8,0.3,1.2c-0.6-0.9-1-1.9-1.2-3c-0.8-5.2,4-10.2,10.8-11.3
					c6.2-1,8.8,0.6,11.4,4.1c-3.3-2.1-5.2-3.2-10.5-2.3C-185,379.7-189.8,384.7-189,389.9z M-157.6,381.6c-4.7-2.9-10-2.7-11.8,0.3
					c-0.4,0.7-0.6,1.5-0.6,2.4c0.1-0.5,0.2-1,0.5-1.5c1.8-2.9,6.7-3,11.2-0.3c4.4,2.7,6.6,7.2,4.8,10.1c-0.6,1-1.6,1.6-2.8,1.9
					c1.7-0.2,3.1-1,3.9-2.2C-150.7,389.3-152.9,384.5-157.6,381.6z M-149.3,391.8c-1.1-0.2-2.2-0.2-3.3-0.1c0.4,0,0.7,0.1,1.1,0.1
					c5.9,0.9,10.3,4.7,9.7,8.5c0,0.3-0.1,0.6-0.2,0.9c0.6-0.6,0.9-1.4,1-2.2C-140.4,395.8-144.2,392.6-149.3,391.8z M-198.9,413.2
					c0.7,0,1.4-0.1,2-0.2c-1.1,0.4-2.3,0.7-3.5,0.7c-5,0-9-3.8-9-8.4c0-4.7,4-8.4,9-8.4c0.5,0,1,0.1,1.5,0.1c-4.7,0-8.5,3.7-8.5,8.1
					C-207.4,409.6-203.6,413.2-198.9,413.2z M-188.4,415.8c-2.8-0.5-4.7-3.7-4.6-6.4c-0.1,0.4-0.3,0.7-0.3,1.1
					c-0.5,3.1,1.5,6,4.6,6.5c3.1,0.5,6-1.5,6.5-4.5c0-0.3,0.1-0.6,0.1-0.9C-183.2,414-185.7,416.2-188.4,415.8z M-160.1,407.8
					c-0.1-0.7-0.3-1.3-0.6-1.9c0,0.1,0.1,0.3,0.1,0.4c0.8,5.1-3.4,10.1-9.5,11c-6,1-11.6-2.4-12.4-7.6c0-0.1,0-0.3,0-0.4
					c-0.1,0.7-0.1,1.4,0,2.1c0.8,5.1,6.5,8.5,12.6,7.5C-163.6,417.9-159.2,412.9-160.1,407.8z M-154.9,414c-1.7-0.3-3.2-1.3-4.2-2.6
					c0.8,1.6,2.4,2.8,4.3,3.2c2.7,0.5,5.2-0.9,6.4-3.2C-149.9,413.4-152.3,414.5-154.9,414z M-193,389.8c0.7,0,1.3,0.1,1.9,0.3
					c-0.9-0.7-2.1-1.1-3.3-1.1c-3.1,0-5.6,2.5-5.6,5.5c0,0.3,0,0.6,0.1,0.8C-199.3,392.2-196.4,389.8-193,389.8z M-140.9,401.8
					c4.3,1.6,7.1,4.2,6.7,6.9c-0.6,3.5-6.6,5.6-13.5,4.7l0,0c1,0.4,2.2,0.6,3.4,0.8c5.9,0.8,11.1-1.4,11.6-4.9
					C-132.1,406.1-135.7,402.9-140.9,401.8z M-181.3,409.3c-0.3-2.2,0.3-4.3,1.6-6.1c-2.4,2-3.7,4.8-3.2,7.7c0.8,4.8,6,8,11.8,7
					c1.9-0.3,3.6-1,5.1-2c-0.8,0.3-1.6,0.5-2.5,0.6C-174.8,417.6-180.6,414.3-181.3,409.3z"/>
			</g>
			<g>
				<path class="st5" d="M-147.8,445.1c-4.3,0-8.2-1.7-10.6-4.6c-1.3,1.4-3.2,2.2-5.2,2.2c-0.4,0-0.8,0-1.3-0.1
					c-2.1-0.4-3.9-1.7-5-3.6c-1.8,1-3.7,1.5-5.8,1.5c-6.4,0-11.6-4.9-11.6-10.9c0-5.5,4.2-10,9.9-10.8c0.2-3.7,3.4-6.6,7.2-6.6
					c0.6,0,1.2,0.1,1.8,0.2c-0.5-6,5.2-11.7,12.9-12.9c1-0.2,2-0.2,3-0.2c3.7,0,7,1.1,9.6,3c0.7-0.2,1.4-0.2,2.2-0.2
					c2.6,0,5.4,0.9,8,2.4c4,2.5,6.7,6.3,6.8,9.7c0.1,0,0.2,0,0.3,0c3.1,0.4,5.9,1.7,7.9,3.4c2.1,1.8,3,4,2.7,6.1
					c-0.1,0.3-0.1,0.7-0.3,1c5.5,1.5,9,5.3,8.5,9.1c-0.5,3.7-4.8,6.3-10.4,6.3c-0.9,0-1.7-0.1-2.6-0.2c-1.9-0.3-3.7-0.8-5.2-1.6
					c-1.3,1.3-3.1,2-4.9,2c-0.4,0-0.8,0-1.3-0.1c-1.5-0.3-2.9-1-4-2.2c-2,3.5-5.9,6.1-10.5,6.8C-146.1,445-146.9,445.1-147.8,445.1
					L-147.8,445.1z"/>
				
					<radialGradient id="SVGID_7_" cx="-145.3503" cy="411.9838" r="87.0704" gradientTransform="matrix(1 0 0 -1 0 797.6)" gradientUnits="userSpaceOnUse">
					<stop  offset="0" style="stop-color:#F4F5F9"/>
					<stop  offset="0.1335" style="stop-color:#EFF2F7"/>
					<stop  offset="0.283" style="stop-color:#E2EBF2"/>
					<stop  offset="0.4397" style="stop-color:#CCDEEA"/>
					<stop  offset="0.5463" style="stop-color:#B8D3E2"/>
					<stop  offset="0.6471" style="stop-color:#ADC5D2"/>
					<stop  offset="0.8435" style="stop-color:#8FA1A8"/>
					<stop  offset="1" style="stop-color:#748082"/>
				</radialGradient>
				<path class="st9" d="M-115.6,425.2c0.2-0.5,0.4-1,0.5-1.5c0.6-4-4-8-10.2-8.9c-0.3,0-0.5-0.1-0.8-0.1c0.1-3.3-2.4-7.2-6.6-9.8
					c-3.5-2.1-7.2-2.8-10-2.1c-3-2.4-7.5-3.6-12.3-2.8c-7.8,1.2-13.4,7-12.4,13c0,0.1,0,0.1,0,0.2c-0.8-0.3-1.6-0.5-2.5-0.5
					c-3.7,0-6.7,2.9-6.7,6.5l0,0c-5.6,0.5-9.9,4.9-9.9,10.3c0,5.7,4.9,10.4,11,10.4c2.2,0,4.3-0.6,6-1.7c0.9,1.9,2.6,3.4,4.9,3.8
					c2.5,0.4,4.9-0.6,6.3-2.4c2.6,3.6,7.6,5.6,13,4.7c4.9-0.8,8.7-3.6,10.4-7.3c1,1.3,2.4,2.3,4.2,2.6c2.3,0.4,4.5-0.4,6-2
					c1.6,0.8,3.4,1.5,5.4,1.8c6.2,0.9,11.7-1.6,12.3-5.7C-106.5,430.1-110.2,426.5-115.6,425.2z"/>
				
					<radialGradient id="SVGID_8_" cx="-133.7606" cy="427.7989" r="97.218" gradientTransform="matrix(1 0 0 -1 0 797.6)" gradientUnits="userSpaceOnUse">
					<stop  offset="0" style="stop-color:#F4F5F9"/>
					<stop  offset="0.1013" style="stop-color:#EFF2F7"/>
					<stop  offset="0.2148" style="stop-color:#E2EBF2"/>
					<stop  offset="0.3337" style="stop-color:#CCDEEA"/>
					<stop  offset="0.4146" style="stop-color:#B8D3E2"/>
					<stop  offset="0.5447" style="stop-color:#ADC5D2"/>
					<stop  offset="0.7981" style="stop-color:#8FA1A8"/>
					<stop  offset="1" style="stop-color:#748082"/>
				</radialGradient>
				<path class="st10" d="M-164.8,414.1c0.1,0.4,0.2,0.8,0.3,1.2c-0.6-0.9-1-1.9-1.2-3c-0.8-5.2,4-10.3,10.8-11.4
					c6.3-1,8.9,0.6,11.5,4.1c-3.4-2.1-5.2-3.2-10.6-2.3C-160.8,403.8-165.6,408.9-164.8,414.1z M-133.1,405.8
					c-4.7-2.9-10-2.8-11.9,0.3c-0.4,0.7-0.6,1.5-0.6,2.4c0.1-0.5,0.2-1,0.5-1.5c1.8-2.9,6.8-3,11.2-0.3c4.4,2.7,6.6,7.3,4.8,10.1
					c-0.6,1-1.6,1.6-2.8,1.9c1.7-0.2,3.1-1,3.9-2.3C-126.1,413.5-128.4,408.7-133.1,405.8z M-124.7,416.1c-1.1-0.2-2.2-0.2-3.3-0.1
					c0.4,0,0.7,0.1,1.1,0.1c6,0.9,10.4,4.7,9.8,8.6c0,0.3-0.1,0.6-0.2,0.9c0.6-0.6,0.9-1.4,1-2.2
					C-115.8,420.1-119.6,416.8-124.7,416.1z M-174.7,437.6c0.7,0,1.4-0.1,2-0.2c-1.1,0.4-2.3,0.7-3.6,0.7c-5,0-9.1-3.8-9.1-8.5
					c0-4.7,4.1-8.5,9.1-8.5c0.5,0,1,0.1,1.5,0.1c-4.7,0-8.6,3.7-8.6,8.2C-183.3,433.9-179.4,437.6-174.7,437.6z M-164.2,440.2
					c-2.8-0.5-4.7-3.7-4.7-6.4c-0.1,0.4-0.3,0.7-0.3,1.1c-0.5,3.1,1.5,6,4.6,6.6c3.1,0.5,6-1.5,6.6-4.6c0.1-0.3,0.1-0.6,0.1-0.9
					C-158.9,438.4-161.5,440.6-164.2,440.2z M-135.6,432.1c-0.1-0.7-0.3-1.3-0.6-2c0,0.1,0.1,0.3,0.1,0.4c0.8,5.2-3.5,10.1-9.5,11.1
					c-6.1,1-11.7-2.5-12.5-7.6c0-0.1,0-0.3,0-0.4c-0.1,0.7-0.1,1.4,0,2.1c0.8,5.2,6.5,8.6,12.7,7.6
					C-139.2,442.3-134.8,437.3-135.6,432.1z M-130.4,438.4c-1.8-0.3-3.2-1.3-4.2-2.6c0.8,1.6,2.4,2.9,4.3,3.2
					c2.7,0.5,5.3-0.9,6.5-3.2C-125.3,437.8-127.8,438.9-130.4,438.4z M-168.8,414c0.7,0,1.3,0.1,1.9,0.3c-0.9-0.7-2.1-1.1-3.3-1.1
					c-3.1,0-5.7,2.5-5.7,5.5c0,0.3,0,0.6,0.1,0.9C-175.1,416.5-172.3,414-168.8,414z M-116.3,426.1c4.4,1.6,7.2,4.3,6.8,6.9
					c-0.6,3.5-6.6,5.7-13.6,4.7l0,0c1,0.4,2.2,0.6,3.4,0.8c5.9,0.8,11.2-1.4,11.7-4.9C-107.5,430.4-111.1,427.2-116.3,426.1z
					 M-157,433.7c-0.3-2.2,0.3-4.3,1.7-6.2c-2.4,2-3.7,4.9-3.2,7.8c0.8,4.8,6.1,8,11.9,7.1c1.9-0.3,3.7-1,5.1-2
					c-0.8,0.3-1.6,0.5-2.5,0.6C-150.5,442-156.3,438.7-157,433.7z"/>
			</g>
		</g>
	</g>
</g>
</svg>
