<?xml version="1.0" encoding="utf-8"?>
<!-- Generator: Adobe Illustrator 19.1.0, SVG Export Plug-In . SVG Version: 6.00 Build 0)  -->
<svg version="1.1" id="Layer_1" xmlns="http://www.w3.org/2000/svg" xmlns:xlink="http://www.w3.org/1999/xlink" x="0px" y="0px"
	 viewBox="-242 346.3 126.7 100.7" style="enable-background:new -242 346.3 126.7 100.7;" xml:space="preserve">
<style type="text/css">
	.st0{fill:#FBB040;}
	.st1{fill:url(#SVGID_1_);}
	.st2{fill:url(#SVGID_2_);}
	.st3{fill:#C5E0F1;}
	.st4{fill:url(#SVGID_3_);}
	.st5{fill:#F59A9E;}
	.st6{fill:url(#SVGID_4_);}
</style>
<g id="Layer_1_1_">
</g>
<g>
	<g>
		<path class="st0" d="M-131,396.7c0,0.5-26,0.5-26,0.9c0,0.5,25.9,2.5,25.8,2.9c0,0.5-25.9-1.6-26-1.1s25.6,4.5,25.5,4.9
			c-0.1,0.5-25.7-3.6-25.8-3.1s25.2,6.5,25.1,6.9c-0.1,0.5-25.4-5.6-25.5-5.2c-0.1,0.5,24.6,8.4,24.4,8.9c-0.1,0.5-24.8-7.6-25-7.2
			s23.8,10.4,23.7,10.8c-0.2,0.4-24.2-9.5-24.4-9.1c-0.2,0.4,23,12.2,22.7,12.6c-0.2,0.4-23.3-11.4-23.6-11
			c-0.2,0.4,21.9,14,21.7,14.4c-0.2,0.6-22.3-13-22.6-12.6s20.8,15.7,20.5,16c-0.3,0.4-21.3-14.9-21.6-14.6
			c-0.3,0.4,19.5,17.2,19.2,17.6c-0.3,0.4-20-16.5-20.4-16.2c-0.3,0.4,18.1,18.7,17.7,19c-0.3,0.3-18.7-18.1-19-17.7
			s16.6,20.1,16.3,20.4c-0.4,0.3-17.2-19.5-17.6-19.2c-0.4,0.4,14.9,21.4,14.5,21.6c-0.4,0.3-15.6-20.7-16-20.5
			c-0.4,0.3,13.2,22.4,12.8,22.6c-0.4,0.3-14-21.8-14.4-21.6c-0.4,0.2,11.4,23.4,11,23.6c-0.4,0.2-12.2-22.9-12.6-22.7
			c-0.4,0.2,9.5,24.2,9.1,24.4c-0.5,0.1-10.4-23.9-10.8-23.8c-0.4,0.2,7.6,24.9,7.2,25c-0.5,0.1-8.4-24.6-8.9-24.4
			c-0.5,0.1,5.6,25.4,5.2,25.5c-0.5,0.1-6.5-25.2-6.9-25.1c-0.5,0.1,3.6,25.8,3.1,25.8c-0.5,0.1-4.5-25.6-4.9-25.5
			c-0.5,0.1,1.6,26,1.1,26s-2.5-25.9-2.9-25.8c-0.5,0-0.4,26-0.9,26s-0.5-26-0.9-26c-0.5,0-2.5,25.9-2.9,25.8
			c-0.5,0,1.6-25.9,1.1-26s-4.5,25.6-4.9,25.5c-0.5-0.1,3.6-25.7,3.1-25.8c-0.5-0.1-6.5,25.2-6.9,25.1c-0.5-0.1,5.6-25.4,5.2-25.5
			c-0.5-0.1-8.4,24.6-8.9,24.4c-0.5-0.1,7.6-24.8,7.2-25c-0.9-0.1-10.8,23.9-11.2,23.7c-0.4-0.2,9.5-24.2,9.1-24.4
			c-0.4-0.2-12.2,23-12.6,22.7c-0.4-0.2,11.4-23.3,11-23.6c-0.4-0.2-14,21.9-14.4,21.7c-0.4-0.2,13.2-22.3,12.8-22.5
			c-0.4-0.3-15.7,20.8-16,20.5c-0.4-0.3,14.9-21.3,14.6-21.6c-0.4-0.3-17.2,19.5-17.6,19.2c-0.4-0.3,16.5-20,16.2-20.4
			c-0.4-0.3-18.7,18.1-19,17.7c-0.3-0.3,18.1-18.7,17.7-19c-0.3-0.4-20,16.6-20.4,16.2c-0.3-0.4,19.5-17.2,19.2-17.6
			c-0.3-0.4-21.3,14.9-21.6,14.6c-0.3-0.4,20.7-15.6,20.5-16c-0.3-0.5-22.5,13.1-22.7,12.7c-0.2-0.4,21.9-14,21.7-14.4
			c-0.2-0.4-23.4,11.4-23.6,11c-0.2-0.4,22.9-12.2,22.7-12.6c-0.2-0.4-24.2,9.6-24.4,9.1c-0.2-0.4,23.8-10.4,23.7-10.8
			c-0.2-0.4-24.9,7.6-25,7.2c-0.1-0.5,24.6-8.4,24.4-8.9c-0.1-0.5-25.4,5.6-25.5,5.2c-0.1-0.5,25.2-6.5,25.1-6.9
			c-0.1-0.5-25.8,3.6-25.8,3.1c-0.1-0.5,25.6-4.5,25.5-4.9c-0.1-0.5-26,1.6-26,1.1s25.9-2.5,25.8-2.9c0-0.5-26-0.5-26-0.9
			c0-0.5,26-0.5,26-0.9c0-0.5-25.9-2.5-25.8-2.9c0-0.5,25.9,1.6,26,1.1c0.1-0.5-25.6-4.5-25.5-4.9c0.1-0.5,25.7,3.6,25.8,3.1
			s-25.2-6.5-25.1-6.9c0.1-0.5,25.4,5.6,25.5,5.2c0.1-0.5-24.6-8.4-24.4-8.9c0.1-0.5,24.8,7.6,25,7.2s-23.8-10.4-23.7-10.8
			c0.2-0.4,24.2,9.5,24.4,9.1s-23-12.2-22.7-12.6c0.2-0.4,23.3,11.4,23.6,11c0.2-0.4-21.9-14-21.7-14.4c0.2-0.4,22.4,13.2,22.6,12.8
			c0.3-0.4-20.8-15.7-20.5-16c0.3-0.4,21.3,14.9,21.6,14.6c0.3-0.4-19.5-17.2-19.2-17.6c0.3-0.4,20,16.5,20.4,16.2
			c0.3-0.3-18.1-18.7-17.7-19c0.3-0.3,18.7,18.1,19,17.7c0.4-0.3-16.6-20.1-16.2-20.4c0.4-0.3,17.2,19.5,17.6,19.2
			c0.4-0.3-14.9-21.3-14.6-21.6c0.4-0.3,15.6,20.7,16,20.5c0.5-0.7-13.1-22.8-12.7-23.1c0.4-0.2,14,21.9,14.4,21.7
			c0.4-0.2-11.4-23.4-11-23.6c0.4-0.2,12.2,22.9,12.6,22.7c0.4-0.2-9.6-24.2-9.1-24.4c0.4-0.1,10.3,23.9,10.8,23.7
			c0.4-0.2-7.6-24.9-7.2-25c0.5-0.1,8.4,24.6,8.9,24.4c0.5-0.1-5.6-25.4-5.2-25.5c0.5-0.1,6.5,25.2,6.9,25.1
			c0.5-0.1-3.6-25.7-3.1-25.8s4.5,25.6,4.9,25.5c0.5-0.1-1.6-26-1.1-26s2.5,25.9,2.9,25.8c0.5,0,0.4-26,0.9-26s0.5,26,0.9,26
			c0.7,0.1,2.7-25.8,3.1-25.7c0.5,0-1.6,25.9-1.1,26c0.5,0.1,4.5-25.6,4.9-25.5c0.5,0.1-3.6,25.7-3.1,25.8s6.5-25.2,6.9-25.1
			c0.5,0.1-5.6,25.4-5.2,25.5c0.5,0.1,8.5-24.6,8.9-24.4c0.5,0.1-7.6,24.8-7.2,25s10.4-23.8,10.8-23.7c0.4,0.2-9.5,24.2-9.1,24.4
			c0.4,0.2,12.2-23,12.6-22.7c0.6,0.1-11.2,23.2-10.8,23.5c0.4,0.2,14-21.9,14.4-21.7c0.4,0.2-13.2,22.4-12.8,22.6
			c0.4,0.3,15.7-20.8,16-20.5c0.4,0.3-14.9,21.3-14.5,21.6c0.4,0.3,17.2-19.5,17.6-19.2c0.4,0.3-16.5,20-16.2,20.4
			c0.3,0.3,18.7-18.1,19-17.7c0.3,0.3-18.1,18.7-17.7,19c0.3,0.3,20-16.6,20.4-16.2c0.3,0.4-19.5,17.2-19.2,17.6
			c0.3,0.4,21.3-14.9,21.6-14.5c0.3,0.4-20.7,15.6-20.5,16c0.3,0.4,22.4-13.2,22.6-12.8c0.2,0.4-21.9,14-21.7,14.4
			s23.4-11.4,23.6-11c0.2,0.4-22.9,12.2-22.7,12.6s24.2-9.6,24.4-9.1c0.2,0.4-23.8,10.4-23.7,10.8c0.2,0.4,24.9-7.6,25-7.2
			c0.1,0.5-24.6,8.4-24.4,8.9c0.1,0.5,25.4-5.6,25.5-5.2c0.1,0.5-25.2,6.5-25.1,6.9c0.1,0.5,25.8-3.6,25.8-3.1
			c0.1,0.5-25.6,4.5-25.5,4.9c0.1,0.5,26-1.6,26-1.1s-25.9,2.5-25.8,2.9C-157,396.2-131,396.2-131,396.7z"/>
	</g>
	
		<linearGradient id="SVGID_1_" gradientUnits="userSpaceOnUse" x1="-180.4" y1="364.3" x2="-180.4" y2="431.5" gradientTransform="matrix(1 0 0 -1 0 794.6)">
		<stop  offset="0" style="stop-color:#FBB840"/>
		<stop  offset="0.3655" style="stop-color:#FDD223"/>
		<stop  offset="0.7614" style="stop-color:#FEE909"/>
		<stop  offset="1" style="stop-color:#FFF200"/>
	</linearGradient>
	<path class="st1" d="M-146.8,396.7c0,18.6-15,33.6-33.6,33.6s-33.6-15-33.6-33.6s15-33.6,33.6-33.6S-146.8,378.1-146.8,396.7z"/>
	
		<radialGradient id="SVGID_2_" cx="-178.2318" cy="397.0318" r="43.7352" gradientTransform="matrix(1 0 0 -1 0 794.6)" gradientUnits="userSpaceOnUse">
		<stop  offset="0" style="stop-color:#FFF200"/>
		<stop  offset="0.4436" style="stop-color:#FFF002"/>
		<stop  offset="0.6034" style="stop-color:#FEEA09"/>
		<stop  offset="0.7173" style="stop-color:#FEDF14"/>
		<stop  offset="0.8094" style="stop-color:#FDD025"/>
		<stop  offset="0.8874" style="stop-color:#FBBC3B"/>
		<stop  offset="0.9018" style="stop-color:#FBB840"/>
	</radialGradient>
	<path class="st2" d="M-146.8,396.7c0,18.6-15,33.6-33.6,33.6s-33.6-15-33.6-33.6s15-33.6,33.6-33.6S-146.8,378.1-146.8,396.7z"/>
</g>
<g>
	<path class="st3" d="M-156.8,438.3c-4,0-7.6-1.6-9.8-4.3c-1.3,1.3-3,2.1-4.8,2.1c-0.4,0-0.8,0-1.2-0.1c-2-0.4-3.7-1.6-4.6-3.3
		c-1.6,0.9-3.5,1.3-5.3,1.3c-5.9,0-10.7-4.5-10.7-10.1c0-5.1,3.9-9.3,9.2-10c0.2-3.4,3.1-6.2,6.7-6.2c0.6,0,1.2,0.1,1.7,0.2
		c-0.4-5.6,4.8-10.8,12-12c0.9-0.1,1.8-0.2,2.8-0.2c3.4,0,6.5,1,8.9,2.8c0.6-0.1,1.3-0.2,2.1-0.2c2.4,0,5,0.8,7.4,2.3
		c3.7,2.3,6.2,5.9,6.3,9c0.1,0,0.2,0,0.3,0c2.9,0.4,5.5,1.5,7.4,3.2c1.9,1.7,2.8,3.7,2.5,5.7c0,0.3-0.1,0.6-0.2,0.9
		c5.1,1.4,8.3,4.9,7.8,8.4c-0.5,3.4-4.4,5.8-9.6,5.8c-0.8,0-1.6-0.1-2.4-0.2c-1.7-0.3-3.4-0.8-4.9-1.5c-1.2,1.2-2.9,1.8-4.6,1.8
		c-0.4,0-0.8,0-1.2-0.1c-1.4-0.3-2.7-1-3.7-2c-1.8,3.3-5.5,5.7-9.7,6.3C-155.3,438.2-156.1,438.3-156.8,438.3L-156.8,438.3z"/>
	
		<radialGradient id="SVGID_3_" cx="-154.6259" cy="411.3705" r="80.7133" gradientTransform="matrix(1 0 0 -1 0 794.6)" gradientUnits="userSpaceOnUse">
		<stop  offset="0" style="stop-color:#F4F5F9"/>
		<stop  offset="0.1526" style="stop-color:#EFF3F8"/>
		<stop  offset="0.3235" style="stop-color:#E2EDF6"/>
		<stop  offset="0.5026" style="stop-color:#CCE3F2"/>
		<stop  offset="0.5463" style="stop-color:#C5E0F1"/>
		<stop  offset="0.6293" style="stop-color:#B5D3E6"/>
		<stop  offset="0.7917" style="stop-color:#8BB2C8"/>
		<stop  offset="1" style="stop-color:#4C809C"/>
	</radialGradient>
	<path class="st4" d="M-127,419.8c0.2-0.4,0.4-0.9,0.4-1.4c0.5-3.7-3.7-7.5-9.5-8.3c-0.2,0-0.5-0.1-0.7-0.1c0.1-3-2.2-6.7-6.1-9.1
		c-3.2-2-6.7-2.6-9.3-1.9c-2.8-2.2-7-3.3-11.4-2.6c-7.2,1.1-12.4,6.5-11.5,12c0,0.1,0,0.1,0,0.2c-0.7-0.3-1.5-0.4-2.3-0.4
		c-3.4,0-6.2,2.7-6.2,6.1l0,0c-5.2,0.5-9.2,4.6-9.2,9.5c0,5.3,4.6,9.6,10.2,9.6c2,0,3.9-0.6,5.5-1.5c0.8,1.8,2.4,3.1,4.5,3.5
		c2.3,0.4,4.5-0.5,5.9-2.3c2.4,3.3,7.1,5.2,12.1,4.4c4.5-0.7,8.1-3.4,9.7-6.7c0.9,1.2,2.3,2.1,3.9,2.4c2.1,0.4,4.2-0.4,5.6-1.8
		c1.4,0.8,3.2,1.4,5,1.6c5.8,0.8,10.9-1.5,11.4-5.3C-118.5,424.4-122,421-127,419.8z"/>
	<path class="st3" d="M-172.6,409.6c0.1,0.4,0.2,0.8,0.3,1.1c-0.6-0.8-1-1.8-1.1-2.8c-0.8-4.8,3.7-9.5,10-10.5
		c5.8-0.9,8.2,0.6,10.6,3.8c-3.1-1.9-4.8-3-9.8-2.2C-168.9,400.1-173.4,404.8-172.6,409.6z M-143.3,401.9c-4.4-2.7-9.3-2.6-11.1,0.3
		c-0.4,0.7-0.6,1.4-0.6,2.2c0.1-0.5,0.2-0.9,0.5-1.4c1.6-2.7,6.3-2.8,10.4-0.3c4.1,2.5,6.1,6.7,4.5,9.4c-0.6,0.9-1.5,1.5-2.6,1.8
		c1.6-0.2,2.9-0.9,3.6-2.1C-136.8,409-138.9,404.6-143.3,401.9z M-135.5,411.4c-1.1-0.2-2.1-0.2-3-0.1c0.3,0,0.7,0.1,1,0.1
		c5.5,0.8,9.6,4.4,9.1,8c0,0.3-0.1,0.6-0.2,0.9c0.5-0.6,0.8-1.3,1-2C-127.2,415.2-130.7,412.1-135.5,411.4z M-181.8,431.4
		c0.6,0,1.3-0.1,1.9-0.2c-1,0.4-2.1,0.6-3.3,0.6c-4.6,0-8.4-3.5-8.4-7.9c0-4.3,3.8-7.9,8.4-7.9c0.5,0,1,0,1.4,0.1
		c-4.4,0-7.9,3.4-7.9,7.6C-189.7,428-186.2,431.4-181.8,431.4z M-172,433.7c-2.6-0.5-4.4-3.4-4.3-6c-0.1,0.3-0.2,0.7-0.3,1.1
		c-0.5,2.8,1.4,5.6,4.3,6.1c2.9,0.5,5.6-1.4,6.1-4.2c0-0.3,0.1-0.5,0.1-0.8C-167.1,432.1-169.5,434.2-172,433.7z M-145.5,426.3
		c-0.1-0.6-0.3-1.2-0.5-1.8c0,0.1,0.1,0.2,0.1,0.4c0.7,4.8-3.2,9.4-8.8,10.3c-5.6,0.9-10.8-2.3-11.6-7.1c0-0.1,0-0.3,0-0.4
		c-0.1,0.6-0.1,1.3,0,1.9c0.8,4.8,6,7.9,11.8,7C-148.9,435.7-144.8,431.1-145.5,426.3z M-140.8,432.1c-1.6-0.3-3-1.2-3.9-2.4
		c0.8,1.5,2.2,2.7,4,3c2.5,0.4,4.9-0.8,6-3C-136,431.5-138.4,432.5-140.8,432.1z M-176.3,409.5c0.6,0,1.2,0.1,1.8,0.3
		c-0.9-0.6-1.9-1-3.1-1c-2.9,0-5.3,2.3-5.3,5.1c0,0.3,0,0.5,0.1,0.8C-182.2,411.8-179.5,409.5-176.3,409.5z M-127.6,420.7
		c4.1,1.5,6.7,4,6.3,6.4c-0.5,3.3-6.1,5.2-12.6,4.4l0,0c1,0.3,2,0.6,3.1,0.7c5.5,0.7,10.3-1.3,10.9-4.6
		C-119.5,424.7-122.8,421.7-127.6,420.7z M-165.4,427.7c-0.3-2,0.3-4,1.5-5.7c-2.2,1.9-3.4,4.5-3,7.2c0.7,4.5,5.6,7.4,11,6.6
		c1.8-0.3,3.4-0.9,4.7-1.9c-0.7,0.3-1.5,0.5-2.3,0.6C-159.3,435.4-164.7,432.4-165.4,427.7z"/>
</g>
<g>
	<path class="st5" d="M-181.3,420.1c0,0.1-0.2,0.3-0.5,0.3s-0.5-0.1-0.5-0.3c0-0.1,0.2-0.3,0.5-0.3
		C-181.5,419.9-181.3,420-181.3,420.1z"/>
</g>
<g>
	<path class="st3" d="M-216,407c-2.6,0-4.9-1-6.3-2.8c-0.8,0.9-1.9,1.3-3.1,1.3c-0.2,0-0.5,0-0.8-0.1c-1.3-0.2-2.4-1-3-2.1
		c-1.1,0.6-2.2,0.9-3.4,0.9c-3.8,0-6.9-2.9-6.9-6.5c0-3.3,2.5-6,6-6.5c0.1-2.2,2-4,4.3-4c0.4,0,0.7,0,1.1,0.1
		c-0.3-3.6,3.1-7,7.8-7.7c0.6-0.1,1.2-0.1,1.8-0.1c2.2,0,4.2,0.6,5.7,1.8c0.4-0.1,0.9-0.1,1.3-0.1c1.5,0,3.2,0.5,4.8,1.5
		c2.4,1.5,4,3.8,4.1,5.8c0.1,0,0.1,0,0.2,0c1.9,0.3,3.5,1,4.8,2c1.2,1.1,1.8,2.4,1.6,3.7c0,0.2-0.1,0.4-0.2,0.6
		c3.3,0.9,5.4,3.1,5.1,5.4c-0.3,2.2-2.9,3.8-6.2,3.8c-0.5,0-1,0-1.5-0.1c-1.1-0.2-2.2-0.5-3.1-1c-0.8,0.8-1.9,1.2-2.9,1.2
		c-0.2,0-0.5,0-0.8-0.1c-0.9-0.2-1.8-0.6-2.4-1.3c-1.2,2.1-3.5,3.7-6.3,4.1C-215,407-215.5,407-216,407L-216,407z"/>
	
		<radialGradient id="SVGID_4_" cx="-214.5543" cy="423.2467" r="52.1724" gradientTransform="matrix(1 0 0 -1 0 794.6)" gradientUnits="userSpaceOnUse">
		<stop  offset="0" style="stop-color:#F4F5F9"/>
		<stop  offset="0.1526" style="stop-color:#EFF3F8"/>
		<stop  offset="0.3235" style="stop-color:#E2EDF6"/>
		<stop  offset="0.5026" style="stop-color:#CCE3F2"/>
		<stop  offset="0.5463" style="stop-color:#C5E0F1"/>
		<stop  offset="0.6293" style="stop-color:#B5D3E6"/>
		<stop  offset="0.7917" style="stop-color:#8BB2C8"/>
		<stop  offset="1" style="stop-color:#4C809C"/>
	</radialGradient>
	<path class="st6" d="M-196.8,395.1c0.1-0.3,0.2-0.6,0.3-0.9c0.4-2.4-2.4-4.8-6.1-5.4c-0.2,0-0.3,0-0.5-0.1c0.1-2-1.4-4.3-3.9-5.9
		c-2.1-1.3-4.3-1.7-6-1.2c-1.8-1.4-4.5-2.1-7.4-1.7c-4.7,0.7-8,4.2-7.4,7.8v0.1c-0.5-0.2-1-0.3-1.5-0.3c-2.2,0-4,1.8-4,3.9l0,0
		c-3.3,0.3-5.9,3-5.9,6.2c0,3.4,3,6.2,6.6,6.2c1.3,0,2.5-0.4,3.6-1c0.5,1.1,1.6,2,2.9,2.3c1.5,0.3,2.9-0.4,3.8-1.5
		c1.5,2.1,4.6,3.3,7.8,2.8c2.9-0.5,5.2-2.2,6.3-4.4c0.6,0.8,1.5,1.4,2.5,1.6c1.4,0.2,2.7-0.2,3.6-1.2c0.9,0.5,2,0.9,3.2,1.1
		c3.7,0.5,7-1,7.4-3.4C-191.3,398-193.5,395.9-196.8,395.1z"/>
	<path class="st3" d="M-226.2,388.5c0,0.2,0.1,0.5,0.2,0.7c-0.4-0.5-0.6-1.1-0.7-1.8c-0.5-3.1,2.4-6.2,6.5-6.8
		c3.8-0.6,5.3,0.4,6.9,2.5c-2-1.2-3.1-1.9-6.4-1.4C-223.8,382.3-226.7,385.3-226.2,388.5z M-207.3,383.5c-2.8-1.7-6-1.7-7.1,0.2
		c-0.3,0.4-0.4,0.9-0.4,1.4c0.1-0.3,0.1-0.6,0.3-0.9c1.1-1.7,4.1-1.8,6.7-0.2c2.7,1.6,4,4.4,2.9,6.1c-0.4,0.6-0.9,1-1.7,1.2
		c1-0.1,1.9-0.6,2.3-1.4C-203.1,388.1-204.4,385.2-207.3,383.5z M-202.2,389.6c-0.7-0.1-1.3-0.1-2-0.1c0.2,0,0.4,0,0.7,0.1
		c3.6,0.5,6.2,2.8,5.9,5.2c0,0.2-0.1,0.4-0.1,0.6c0.3-0.4,0.5-0.8,0.6-1.3C-196.9,392.1-199.2,390.1-202.2,389.6z M-232.1,402.5
		c0.4,0,0.8-0.1,1.2-0.1c-0.7,0.3-1.4,0.4-2.1,0.4c-3,0-5.4-2.3-5.4-5.1c0-2.8,2.4-5.1,5.4-5.1c0.3,0,0.6,0,0.9,0.1
		c-2.8,0-5.1,2.2-5.1,4.9C-237.3,400.3-235,402.5-232.1,402.5z M-225.8,404.1c-1.7-0.3-2.8-2.2-2.8-3.9c-0.1,0.2-0.2,0.4-0.2,0.7
		c-0.3,1.8,0.9,3.6,2.8,3.9c1.9,0.3,3.6-0.9,3.9-2.7c0-0.2,0-0.3,0-0.5C-222.7,403-224.2,404.4-225.8,404.1z M-208.7,399.3
		c-0.1-0.4-0.2-0.8-0.3-1.2c0,0.1,0,0.2,0.1,0.2c0.5,3.1-2.1,6.1-5.7,6.6c-3.6,0.6-7-1.5-7.5-4.6c0-0.1,0-0.2,0-0.3
		c0,0.4,0,0.8,0,1.2c0.5,3.1,3.9,5.1,7.6,4.5C-210.9,405.3-208.2,402.4-208.7,399.3z M-205.6,403c-1-0.2-1.9-0.8-2.5-1.6
		c0.5,1,1.4,1.7,2.6,1.9c1.6,0.3,3.2-0.5,3.9-1.9C-202.6,402.6-204.1,403.3-205.6,403z M-228.6,388.4c0.4,0,0.8,0.1,1.2,0.2
		c-0.6-0.4-1.3-0.6-2-0.6c-1.9,0-3.4,1.5-3.4,3.3c0,0.2,0,0.3,0.1,0.5C-232.4,389.9-230.7,388.4-228.6,388.4z M-197.2,395.6
		c2.6,0.9,4.3,2.6,4.1,4.2c-0.3,2.1-4,3.4-8.1,2.8l0,0c0.6,0.2,1.3,0.4,2,0.5c3.5,0.5,6.7-0.9,7-3
		C-191.9,398.2-194.1,396.3-197.2,395.6z M-221.6,400.2c-0.2-1.3,0.2-2.6,1-3.7c-1.4,1.2-2.2,2.9-1.9,4.6c0.5,2.9,3.6,4.8,7.1,4.3
		c1.2-0.2,2.2-0.6,3-1.2c-0.5,0.2-1,0.3-1.5,0.4C-217.6,405.2-221.1,403.2-221.6,400.2z"/>
</g>
</svg>
