<?xml version="1.0" encoding="utf-8"?>
<!-- Generator: Adobe Illustrator 19.1.0, SVG Export Plug-In . SVG Version: 6.00 Build 0)  -->
<svg version="1.1" id="Layer_1" xmlns="http://www.w3.org/2000/svg" xmlns:xlink="http://www.w3.org/1999/xlink" x="0px" y="0px"
	 viewBox="0 0 80.1 102.1" style="enable-background:new 0 0 80.1 102.1;" xml:space="preserve">
<style type="text/css">
	.st0{fill-rule:evenodd;clip-rule:evenodd;fill:url(#SVGID_1_);}
	.st1{fill:#010101;}
	.st2{fill-rule:evenodd;clip-rule:evenodd;fill:#E8E3E4;}
</style>
<g>
	<g>
		
			<linearGradient id="SVGID_1_" gradientUnits="userSpaceOnUse" x1="-10489.5254" y1="51.5255" x2="-10412.7588" y2="51.5255" gradientTransform="matrix(-1 0 0 1 -10411.1543 0)">
			<stop  offset="0" style="stop-color:#9E0B0F"/>
			<stop  offset="7.606477e-02" style="stop-color:#AB0F14"/>
			<stop  offset="0.2326" style="stop-color:#C2151C"/>
			<stop  offset="0.3974" style="stop-color:#D41920"/>
			<stop  offset="0.5719" style="stop-color:#E01B22"/>
			<stop  offset="0.7625" style="stop-color:#E91C24"/>
			<stop  offset="1" style="stop-color:#ED1C24"/>
		</linearGradient>
		<path class="st0" d="M41.6,53.2c-0.4-10.9,1.4-25.1,3.5-40.3c0.4,0.1,0.4-1.6,0.5-2.5c0-0.4,0-0.6,0-0.6C43.6,6.3,36.8,6,30.4,5.4
			c-0.6,0-1-0.2-1.5-0.3C28.4,5.1,28,5,27.5,5c-0.4,0-0.7-0.1-1.1-0.2c-0.5-0.1-1.1,0-1.7,0c0.2,0.3,0,0.3-0.2,0.4
			c-0.7,0.1-1.6,0.1-1.9,0.8c-0.9-0.6-1.9-1.1-3-1.2l0-0.8c-0.1-0.2-0.5-0.4-1.2-0.4l0.1-0.8c-1.5,0-1.6-0.2-2.4-0.3
			c-0.7-0.4-1.5-0.4-2.3,0C13,2.6,11.6,3,8.8,3.4C7.4,3.6,6,3.8,4.6,4.1C3.5,4.4,2.5,4.7,2,5.3C2,6.6,1.9,9.1,2.4,9.1l0.2,8.5
			l-1,2.5l1.1,2.4C2.5,38.1,6.5,55,9.1,70c1,5.8-1.4,12-0.7,16.7c-0.5,0.3,0,1.8,0.8,3.8c-0.3,0.6-0.2,1.3-0.1,2.1L9.7,97
			c0.3,0.9,1.2,1.5,2.6,2c0.1,0,0-1.2,0.2-1.2c0.4,0.1,1,0.3,1.4,0.4c0.2,0,0.3,1.3,0.5,1.4c0.8,0.2,1.6,0.3,2.5,0.4
			c0.1,0,0.1-1.4,0.2-1.3c0.4,0,0.9,0.1,1.3,0.1c0.1,0,0.1,1.4,0.2,1.4c0.7,0.1,1.4,0.1,2.1,0.2c0.1,0,0.3-1.3,0.4-1.3
			c0.3,0,0.6,0,0.9,0c0.1,0,0.1,1.3,0.2,1.3c0.8,0,1.7,0.1,2.5,0.1c0.1,0,0.4-1.3,0.5-1.3c0.2,0,0.2,0,0.4,0c0.1,0,0.1,1.3,0.1,1.3
			c0.7,0,1.4,0,2.2,0l4.1-4.4L48,98.4l0,1.5c1.1,0.2,2.2,0.4,3.3,0.6c0.2,0,0.4-1.3,0.6-1.3c0.2,0,0.7,0.1,0.9,0.1
			c0.1,0-0.1,1.3,0,1.3c1.1,0.1,2.2,0.2,3.3,0.3c0.1,0,0.4-1.3,0.5-1.3c0.1,0,0.3,0,0.4,0c0.1,0,0,1.3,0,1.3c1,0,2,0,3,0
			c0.2,0,0.4-0.9,0.5-1.3c0.1,0.4,0.4,1.3,0.6,1.3c0.9-0.1,1.7-0.2,2.5-0.3c0.2,0,0.4-0.4,0.5-0.9c0.2,0.2,0.6,0.7,0.8,0.6
			c0.8-0.2,1.6-0.3,2.4-0.6c0.3-0.1,0.4-0.6,0.5-1.1c0.2,0.2,0.8,0.7,1,0.6c0.5-0.2,1-0.4,1.5-0.6c0.1,0,0.2-0.5,0.3-0.6
			c0.3,0.1,0.4,0.3,0.5,0.2c0.6-0.3,1.3-0.6,1.9-1c0.2-0.1,0.2-0.6,0.4-0.7c0.2-0.1,0.6,0.1,0.9,0c0.5-0.3,1-0.7,1.4-1
			c0.1-0.1,0.2-0.5,0.3-1c0.6,0,0.8,0.1,1.1-0.3c0.6-0.8,0.6-1.8,0.8-2.7c0.2-0.2,0.4-0.8,0.4-1.3c0-0.7-0.1-1.5-0.2-2.3
			c0-0.7-0.1-1.1-0.4-1.1c-0.2-1.8-0.1-5.6-8.4-5.1c-10.9,0.7-17.9-4.4-21.9-9.4C42.8,66.7,41.9,60.3,41.6,53.2z"/>
		<path class="st1" d="M57.1,101c0,0-0.1,0-0.1,0c-0.1-0.1-0.1-0.1-0.1-0.8c0-0.2,0-0.4,0-0.5l-0.2,0c0,0.1-0.1,0.4-0.2,0.5
			c-0.2,0.6-0.2,0.8-0.4,0.8c-1.1,0-2.2-0.1-3.3-0.3c0,0-0.1,0-0.1-0.1c-0.1-0.1-0.1-0.2,0-0.8c0-0.2,0-0.4,0-0.5
			c-0.1,0-0.3,0-0.4-0.1c-0.1,0-0.3,0-0.4-0.1c-0.1,0.1-0.1,0.4-0.2,0.5c-0.2,0.5-0.3,0.7-0.5,0.7c0,0,0,0,0,0
			c-1.1-0.2-2.2-0.3-3.3-0.6c-0.1,0-0.1-0.1-0.1-0.1l0-1.3l-15.7-2.3l-4.1,4.4c0,0-0.1,0-0.1,0h0c-0.7,0-1.5,0-2.2,0
			c-0.2,0-0.2-0.1-0.2-0.8c0-0.2,0-0.4,0-0.5c-0.1,0-0.1,0-0.2,0l0,0c0,0.1-0.1,0.3-0.2,0.5c-0.2,0.7-0.2,0.7-0.4,0.7h0
			c-0.9,0-1.7,0-2.5-0.1c-0.2,0-0.2-0.2-0.2-0.8c0-0.2,0-0.4,0-0.5c-0.2,0-0.5,0-0.7,0c0,0.1-0.1,0.4-0.1,0.5
			c-0.2,0.6-0.2,0.8-0.4,0.8h0c-0.8,0-1.5-0.1-2.1-0.2c-0.2,0-0.2-0.2-0.3-0.8c0-0.2,0-0.5-0.1-0.6c-0.1,0-0.3,0-0.4,0
			c-0.2,0-0.5,0-0.7-0.1c0,0.1,0,0.4,0,0.5c0,0.6-0.1,0.8-0.3,0.8c-0.9-0.1-1.8-0.2-2.5-0.4c-0.2,0-0.2-0.2-0.4-0.8
			c-0.1-0.2-0.1-0.5-0.2-0.6c-0.4-0.1-0.9-0.2-1.2-0.3c0,0.1,0,0.3,0,0.4c0,0.5,0,0.7-0.2,0.7h0c0,0,0,0-0.1,0
			c-1.6-0.5-2.4-1.2-2.7-2.2l-0.5-4.4c-0.1-0.8-0.2-1.5,0.1-2.1c-1-2.4-1.2-3.5-0.8-3.9c-0.3-2.2,0-4.7,0.4-7.3
			C9.1,76.3,9.5,73.1,9,70c-0.5-3-1.1-6.1-1.7-9.3C4.9,48,2.4,34.9,2.6,22.5l-1.1-2.4c0,0,0-0.1,0-0.1l1-2.5L2.2,9.2
			C1.9,9,1.9,8.1,1.8,6.3c0-0.4,0-0.8,0-1.1c0,0,0-0.1,0-0.1C2.3,4.7,3.2,4.3,4.6,4c1.3-0.3,2.7-0.5,4-0.7l0.2,0
			c2.3-0.3,3.6-0.6,4.4-0.8c0.1,0,0.3-0.1,0.4-0.1c0.8-0.4,1.6-0.4,2.4,0c0.3,0,0.5,0.1,0.6,0.1c0.4,0.1,0.7,0.2,1.7,0.2
			c0,0,0.1,0,0.1,0c0,0,0,0.1,0,0.1l0,0.7c0.7,0.1,1.1,0.2,1.2,0.5c0,0,0,0,0,0.1l0,0.7c1,0.1,1.8,0.5,2.8,1.1
			c0.4-0.6,1.1-0.6,1.7-0.7l0.2,0c0.1,0,0.2,0,0.2,0c0,0,0,0-0.1-0.1c0,0,0-0.1,0-0.2c0,0,0.1-0.1,0.1-0.1c0.7-0.1,1.3-0.1,1.7,0
			c0.2,0,0.3,0,0.4,0.1c0.2,0,0.4,0.1,0.7,0.1c0.5,0,0.9,0,1.3,0.1c0.2,0,0.4,0.1,0.6,0.1c0.3,0.1,0.6,0.1,0.9,0.2
			c0.5,0,1,0.1,1.4,0.1c5.9,0.5,12,1,13.8,4.3c0,0,0,0,0,0c0.1,0.1,0.1,0.2,0,0.6l0,0.3c-0.1,1.5-0.2,2.3-0.5,2.4
			c-2.1,14.9-3.9,29.2-3.4,40.2c0.3,7.6,1.4,13.7,5.7,19.1c3.5,4.3,9.7,9.4,19.8,9.4c0.6,0,1.3,0,1.9-0.1c0.5,0,1,0,1.5,0
			c6.5,0,6.9,3.1,7.1,4.9c0,0.1,0,0.2,0,0.2c0.4,0.2,0.5,0.7,0.5,1.2c0.2,0.8,0.2,1.6,0.2,2.4c0,0.5-0.1,1.1-0.4,1.3
			c0,0.2-0.1,0.4-0.1,0.6c-0.1,0.8-0.2,1.5-0.7,2.2c-0.2,0.3-0.4,0.4-0.7,0.4c-0.1,0-0.2,0-0.3,0c0,0-0.1,0-0.1,0
			c0,0.1-0.1,0.3-0.1,0.4c-0.1,0.3-0.1,0.5-0.2,0.6c-0.5,0.3-1,0.7-1.5,1c-0.1,0.1-0.3,0.1-0.5,0c-0.1,0-0.3,0-0.3,0
			c0,0-0.1,0.2-0.1,0.3c-0.1,0.2-0.1,0.4-0.3,0.5c-0.6,0.3-1.2,0.7-1.9,1c-0.1,0.1-0.3,0-0.4-0.1c0,0-0.1,0-0.1-0.1c0,0,0,0.1,0,0.1
			c-0.1,0.2-0.1,0.4-0.3,0.4c-0.5,0.2-1,0.4-1.5,0.6c-0.2,0.1-0.5-0.2-0.9-0.5c0,0,0,0,0,0c-0.1,0.5-0.2,0.9-0.6,1
			c-0.8,0.2-1.6,0.4-2.4,0.6c0,0,0,0-0.1,0c-0.2,0-0.5-0.2-0.7-0.5c-0.1,0.3-0.3,0.7-0.6,0.7c-0.8,0.1-1.7,0.2-2.5,0.3
			c-0.1,0-0.3-0.1-0.6-0.9c-0.2,0.7-0.3,0.9-0.5,1c-0.6,0-1.3,0-1.9,0C57.8,101,57.4,101,57.1,101z M60.4,99.6L60.4,99.6
			c0-0.2,0.1-0.2,0.2-0.2c0.1,0,0.1,0,0.1,0.1c0.3,0.9,0.4,1.1,0.5,1.2c0.8-0.1,1.7-0.2,2.5-0.3c0.1,0,0.3-0.3,0.4-0.7
			c0-0.1,0.1-0.1,0.1-0.1c0.1,0,0.1,0,0.1,0l0.1,0.1c0.1,0.1,0.5,0.5,0.6,0.5c0.8-0.2,1.6-0.4,2.4-0.6c0.2-0.1,0.4-0.7,0.4-1
			c0,0,0-0.1,0.1-0.1c0,0,0.1,0,0.1,0c0.1,0,0.1,0.1,0.2,0.2c0.2,0.1,0.5,0.4,0.6,0.4c0.5-0.2,1-0.4,1.5-0.6c0,0,0.1-0.2,0.1-0.3
			c0-0.1,0.1-0.2,0.1-0.3c0-0.1,0.1-0.1,0.2-0.1C70.9,98,71,98,71,98.1c0.1,0,0.1,0.1,0.1,0.1c0.6-0.3,1.3-0.6,1.9-0.9
			c0,0,0.1-0.2,0.1-0.3c0.1-0.2,0.1-0.4,0.2-0.4c0.1-0.1,0.3-0.1,0.5,0c0.1,0,0.3,0,0.3,0c0.5-0.3,1-0.7,1.4-1c0,0,0.1-0.2,0.1-0.4
			c0-0.1,0.1-0.3,0.1-0.5c0-0.1,0.1-0.1,0.1-0.1c0.1,0,0.2,0,0.3,0c0.1,0,0.2,0,0.2,0c0.2,0,0.3,0,0.5-0.2c0.4-0.6,0.5-1.3,0.6-2.1
			c0-0.2,0.1-0.4,0.1-0.6c0,0,0-0.1,0-0.1c0.2-0.2,0.3-0.7,0.3-1.2c0-0.7-0.1-1.5-0.2-2.3c0-0.8-0.1-0.9-0.3-1
			c-0.1,0-0.1-0.1-0.1-0.1c0-0.1,0-0.2,0-0.3c-0.2-1.7-0.5-4.6-6.8-4.6c-0.5,0-1,0-1.5,0c-0.7,0-1.3,0.1-2,0.1c0,0,0,0,0,0
			c-10.2,0-16.6-5.2-20-9.5c-4.4-5.5-5.5-11.7-5.8-19.3c-0.4-11,1.4-25.4,3.5-40.3c0,0,0-0.1,0.1-0.1c0,0,0.1,0,0.1,0
			c0.2-0.1,0.3-1.6,0.3-2.1l0-0.3c0-0.2,0-0.3,0-0.4c0,0,0,0,0,0c-1.7-3.1-7.8-3.7-13.6-4.2c-0.5,0-1-0.1-1.4-0.1
			c-0.4,0-0.7-0.1-1-0.2c-0.2,0-0.4-0.1-0.6-0.1c-0.4-0.1-0.8-0.1-1.3-0.1c-0.3,0-0.5,0-0.7-0.1c-0.1,0-0.3,0-0.4-0.1
			c-0.4,0-0.9,0-1.5,0c0,0.1,0,0.1,0,0.2c-0.1,0.2-0.2,0.2-0.4,0.2l-0.2,0c-0.6,0.1-1.3,0.1-1.6,0.7c0,0-0.1,0.1-0.1,0.1
			s-0.1,0-0.1,0c-1-0.7-1.9-1-2.9-1.1c-0.1,0-0.1-0.1-0.1-0.2l0-0.8c0-0.1-0.2-0.3-1.1-0.3c-0.1,0-0.1-0.1-0.1-0.2l0-0.7
			c-0.9,0-1.3-0.1-1.6-0.2c-0.2-0.1-0.4-0.1-0.6-0.1c0,0,0,0,0,0c-0.7-0.4-1.4-0.3-2.2,0c0,0,0,0,0,0c-0.1,0-0.2,0.1-0.4,0.1
			c-0.8,0.2-2.1,0.5-4.5,0.8l-0.2,0C7.3,3.7,6,3.9,4.7,4.3C3.4,4.6,2.6,4.9,2.1,5.3c0,0.3,0,0.6,0,1c0,0.9,0,2.5,0.2,2.6
			c0.1,0,0.1,0.1,0.2,0.1l0.2,8.5c0,0,0,0,0,0.1l-1,2.4l1.1,2.4c0,0,0,0,0,0.1C2.7,34.9,5.2,48,7.6,60.6c0.6,3.2,1.2,6.3,1.7,9.3
			c0.6,3.1,0.1,6.3-0.3,9.4c-0.4,2.7-0.7,5.2-0.4,7.3c0,0.1,0,0.1-0.1,0.2c-0.2,0.1-0.2,0.8,0.9,3.6c0,0,0,0.1,0,0.1
			c-0.2,0.6-0.2,1.3-0.1,2l0.5,4.3c0.2,0.8,1,1.4,2.4,1.9c0-0.1,0-0.3,0-0.4c0-0.5,0-0.8,0.2-0.8c0,0,0,0,0.1,0
			c0.4,0.1,1,0.3,1.4,0.4c0.2,0,0.2,0.2,0.4,0.8c0.1,0.2,0.1,0.5,0.2,0.6c0.7,0.1,1.5,0.3,2.3,0.4c0-0.1,0-0.4,0-0.5
			c0-0.6,0.1-0.8,0.3-0.8c0,0,0,0,0,0c0.2,0,0.5,0,0.8,0.1c0.2,0,0.4,0,0.5,0c0.2,0,0.2,0.2,0.3,0.8c0,0.2,0,0.5,0.1,0.6
			c0.6,0.1,1.3,0.1,2,0.1c0-0.1,0.1-0.4,0.1-0.5c0.1-0.6,0.2-0.8,0.4-0.8c0.3,0,0.6,0,0.9,0c0.2,0,0.2,0.2,0.2,0.8
			c0,0.2,0,0.4,0,0.5c0.8,0,1.5,0.1,2.4,0.1c0-0.1,0.1-0.3,0.2-0.5c0.2-0.7,0.2-0.7,0.4-0.7l0.1,0c0.1,0,0.1,0,0.3,0
			c0.2,0,0.2,0.1,0.2,0.8c0,0.2,0,0.4,0,0.5c0.7,0,1.3,0,2,0l4.1-4.4c0,0,0.1-0.1,0.1,0L48,98.2c0.1,0,0.1,0.1,0.1,0.1l0,1.3
			c1.1,0.2,2.1,0.4,3.1,0.5c0.1-0.1,0.1-0.4,0.2-0.5c0.2-0.5,0.3-0.7,0.5-0.7c0,0,0,0,0,0c0.1,0,0.3,0,0.4,0.1
			c0.2,0,0.4,0.1,0.5,0.1c0.2,0,0.2,0.2,0.1,0.8c0,0.2,0,0.4,0,0.5c1.1,0.1,2.1,0.2,3.1,0.2c0-0.1,0.1-0.4,0.2-0.5
			c0.2-0.6,0.2-0.8,0.4-0.8l0.4,0c0.2,0,0.2,0.1,0.2,0.8c0,0.2,0,0.4,0,0.5c0.9,0,1.9,0,2.8,0C60.1,100.6,60.3,99.8,60.4,99.6z"/>
	</g>
	<g>
		<path class="st2" d="M8.5,86.7c-0.5,0.3,0,1.8,0.8,3.8c-0.3,0.6-0.2,1.3-0.1,2.1L9.7,97c0.3,0.9,1.2,1.5,2.6,2
			c0.1,0,0-1.2,0.2-1.2c0.4,0.1,1,0.3,1.4,0.4c0.2,0,0.3,1.3,0.5,1.4c0.8,0.2,1.6,0.3,2.5,0.4c0.1,0,0.1-1.4,0.2-1.3
			c0.4,0,0.9,0.1,1.3,0.1c0.1,0,0.1,1.4,0.2,1.4c0.7,0.1,1.4,0.1,2.1,0.2c0.1,0,0.3-1.3,0.4-1.3c0.3,0,0.6,0,0.9,0
			c0.1,0,0.1,1.3,0.2,1.3c0.8,0,1.7,0.1,2.5,0.1c0.1,0,0.4-1.3,0.5-1.3c0.2,0,0.2,0,0.4,0c0.1,0,0.1,1.3,0.1,1.3c0.7,0,1.4,0,2.2,0
			l4.1-4.4L48,98.4l0,1.5c1.1,0.2,2.2,0.4,3.3,0.6c0.2,0,0.4-1.3,0.6-1.3c0.2,0,0.7,0.1,0.9,0.1c0.1,0-0.1,1.3,0,1.3
			c1.1,0.1,2.2,0.2,3.3,0.3c0.1,0,0.4-1.3,0.5-1.3c0.1,0,0.3,0,0.4,0c0.1,0,0,1.3,0,1.3c1,0,2,0,3,0c0.2,0,0.4-0.9,0.5-1.3
			c0.1,0.4,0.4,1.3,0.6,1.3c0.9-0.1,1.7-0.2,2.5-0.3c0.2,0,0.4-0.4,0.5-0.9c0.2,0.2,0.6,0.7,0.8,0.6c0.8-0.2,1.6-0.3,2.4-0.6
			c0.3-0.1,0.4-0.6,0.5-1.1c0.2,0.2,0.8,0.7,1,0.6c0.5-0.2,1-0.4,1.5-0.6c0.1,0,0.2-0.5,0.3-0.6c0.3,0.1,0.4,0.3,0.5,0.2
			c0.6-0.3,1.3-0.6,1.9-1c0.2-0.1,0.2-0.6,0.4-0.7c0.2-0.1,0.6,0.1,0.9,0c0.5-0.3,1-0.7,1.4-1c0.1-0.1,0.2-0.5,0.3-1
			c0.6,0,0.8,0.1,1.1-0.3c0.6-0.8,0.6-1.8,0.8-2.7c0.2-0.2,0.4-0.8,0.4-1.3c0-0.7-0.1-1.5-0.2-2.3c0-0.7-0.1-1.1-0.4-1.1
			c0,0-1.7,3.3-10,5.4C59.3,94.5,52.5,92.5,47,92c-5.5-0.5-18-2.6-27.2-2.8C10.5,89.1,8.5,86.8,8.5,86.7z"/>
		<path class="st1" d="M57.1,101c0,0-0.1,0-0.1,0c-0.1-0.1-0.1-0.1-0.1-0.8c0-0.2,0-0.4,0-0.5l-0.2,0c0,0.1-0.1,0.4-0.2,0.5
			c-0.2,0.6-0.2,0.8-0.4,0.8h0c-1.1,0-2.2-0.1-3.3-0.3c0,0-0.1,0-0.1-0.1c-0.1-0.1-0.1-0.2,0-0.8c0-0.2,0-0.4,0-0.5
			c-0.1,0-0.3,0-0.4-0.1c-0.1,0-0.3,0-0.4-0.1c-0.1,0.1-0.1,0.4-0.2,0.5c-0.2,0.5-0.3,0.7-0.5,0.7c0,0,0,0,0,0
			c-1.1-0.2-2.2-0.3-3.3-0.6c-0.1,0-0.1-0.1-0.1-0.1l0-1.3l-15.7-2.3l-4.1,4.4c0,0-0.1,0-0.1,0c-0.7,0-1.5,0-2.2,0
			c-0.2,0-0.2-0.1-0.2-0.8c0-0.2,0-0.4,0-0.5c-0.1,0-0.1,0-0.2,0l0,0c0,0.1-0.1,0.3-0.2,0.5c-0.2,0.7-0.2,0.7-0.4,0.7h0
			c-0.9,0-1.7,0-2.5-0.1c-0.2,0-0.2-0.2-0.2-0.8c0-0.2,0-0.4,0-0.5c-0.2,0-0.5,0-0.7,0c0,0.1-0.1,0.4-0.1,0.5
			c-0.2,0.6-0.2,0.8-0.4,0.8h0c-0.8,0-1.5-0.1-2.1-0.2c-0.2,0-0.2-0.2-0.3-0.8c0-0.2,0-0.5-0.1-0.6c-0.1,0-0.3,0-0.4,0
			c-0.2,0-0.5,0-0.7-0.1c0,0.1,0,0.4,0,0.5c0,0.6-0.1,0.8-0.3,0.8c0,0,0,0,0,0c-0.9-0.1-1.8-0.2-2.5-0.4c-0.2,0-0.2-0.2-0.4-0.8
			c-0.1-0.2-0.1-0.5-0.2-0.6c-0.4-0.1-0.9-0.2-1.2-0.3c0,0.1,0,0.3,0,0.4c0,0.5,0,0.7-0.2,0.7h0c0,0,0,0-0.1,0
			c-1.6-0.5-2.4-1.2-2.7-2.2l-0.5-4.4c-0.1-0.8-0.2-1.5,0.1-2.1c-1.1-2.5-1.3-3.6-0.7-3.9c0,0,0.1,0,0.1,0c0,0,0.1,0,0.1,0.1
			c0.1,0.1,2,2.3,11.1,2.4c6.5,0.1,14.8,1.2,20.8,2c2.6,0.3,4.8,0.6,6.5,0.8c1.2,0.1,2.5,0.3,3.8,0.5c2.6,0.4,5.6,0.8,8.8,0.8h0
			c2.8,0,5.4-0.3,8-1c8.2-2.1,9.9-5.3,10-5.4c0-0.1,0.1-0.1,0.2-0.1c0.5,0.1,0.6,0.7,0.6,1.3c0.2,0.8,0.2,1.6,0.2,2.4
			c0,0.5-0.1,1.1-0.4,1.3c0,0.2-0.1,0.4-0.1,0.6c-0.1,0.8-0.2,1.5-0.7,2.2c-0.2,0.3-0.4,0.4-0.7,0.4c-0.1,0-0.2,0-0.3,0
			c0,0-0.1,0-0.1,0c0,0.1-0.1,0.3-0.1,0.4c-0.1,0.3-0.1,0.5-0.2,0.6c-0.5,0.3-1,0.7-1.5,1c-0.1,0.1-0.3,0.1-0.5,0
			c-0.1,0-0.3,0-0.3,0c0,0-0.1,0.2-0.1,0.3c-0.1,0.2-0.1,0.4-0.3,0.5c-0.6,0.3-1.2,0.7-1.9,1c-0.1,0.1-0.3,0-0.4-0.1
			c0,0-0.1,0-0.1-0.1c0,0,0,0.1,0,0.1c-0.1,0.2-0.1,0.4-0.3,0.4c-0.5,0.2-1,0.4-1.5,0.6c-0.2,0.1-0.5-0.2-0.9-0.5c0,0,0,0,0,0
			c-0.1,0.5-0.2,0.9-0.6,1c-0.8,0.2-1.6,0.4-2.4,0.6c0,0,0,0-0.1,0c-0.2,0-0.5-0.2-0.7-0.5c-0.1,0.3-0.3,0.7-0.6,0.7
			c-0.8,0.1-1.7,0.2-2.5,0.3c-0.1,0-0.3-0.1-0.6-0.9c-0.2,0.7-0.3,0.9-0.5,1c-0.6,0-1.3,0-1.9,0C57.8,101,57.4,101,57.1,101z
			 M60.4,99.6L60.4,99.6c0-0.2,0.1-0.2,0.2-0.2c0.1,0,0.1,0,0.1,0.1c0.3,0.9,0.4,1.1,0.5,1.2c0.8-0.1,1.7-0.2,2.5-0.3
			c0.1,0,0.3-0.3,0.4-0.7c0-0.1,0.1-0.1,0.1-0.1c0.1,0,0.1,0,0.1,0l0.1,0.1c0.1,0.1,0.5,0.5,0.6,0.5c0.8-0.2,1.6-0.4,2.4-0.6
			c0.2-0.1,0.4-0.7,0.4-1c0-0.1,0-0.1,0.1-0.1c0,0,0.1,0,0.1,0c0.1,0,0.1,0.1,0.2,0.2c0.2,0.1,0.5,0.4,0.6,0.4
			c0.5-0.2,1-0.4,1.5-0.6c0,0,0.1-0.2,0.1-0.3c0-0.1,0.1-0.2,0.1-0.3c0-0.1,0.1-0.1,0.2-0.1C70.9,98,71,98,71,98.1
			c0.1,0,0.1,0.1,0.1,0.1c0.6-0.3,1.3-0.6,1.9-0.9c0,0,0.1-0.2,0.1-0.3c0.1-0.2,0.1-0.4,0.2-0.4c0.1-0.1,0.3-0.1,0.5,0
			c0.1,0,0.3,0,0.3,0c0.5-0.3,1-0.7,1.4-1c0,0,0.1-0.2,0.1-0.4c0-0.1,0.1-0.3,0.1-0.5c0-0.1,0.1-0.1,0.1-0.1c0.1,0,0.2,0,0.3,0
			c0.1,0,0.2,0,0.2,0c0.2,0,0.3,0,0.5-0.2c0.4-0.6,0.5-1.3,0.6-2.1c0-0.2,0.1-0.4,0.1-0.6c0,0,0-0.1,0-0.1c0.2-0.2,0.3-0.7,0.3-1.2
			c0-0.7-0.1-1.5-0.2-2.3c0-0.6-0.1-0.9-0.2-1c-0.4,0.6-2.5,3.5-10.1,5.4c-2.6,0.7-5.3,1-8.1,1c0,0,0,0,0,0c-3.2,0-6.2-0.4-8.9-0.8
			c-1.3-0.2-2.6-0.4-3.8-0.5c-1.6-0.2-3.9-0.5-6.5-0.8c-6-0.8-14.3-1.9-20.8-2c-8.2-0.1-10.7-1.9-11.2-2.5c-0.1,0.2,0,1.1,1,3.5
			c0,0,0,0.1,0,0.1c-0.2,0.6-0.2,1.3-0.1,2l0.5,4.3c0.2,0.8,1,1.4,2.4,1.9c0-0.1,0-0.3,0-0.4c0-0.5,0-0.8,0.2-0.8c0,0,0,0,0.1,0
			c0.4,0.1,1,0.3,1.4,0.4c0.2,0,0.2,0.2,0.4,0.8c0.1,0.2,0.1,0.5,0.2,0.6c0.7,0.1,1.5,0.3,2.3,0.4c0-0.1,0-0.4,0-0.5
			c0-0.6,0.1-0.8,0.3-0.8c0,0,0,0,0,0c0.2,0,0.5,0,0.8,0.1c0.2,0,0.4,0,0.5,0c0.2,0,0.2,0.2,0.3,0.8c0,0.2,0,0.5,0.1,0.6
			c0.6,0.1,1.3,0.1,2,0.1c0-0.1,0.1-0.4,0.1-0.5c0.1-0.6,0.2-0.8,0.4-0.8c0.3,0,0.6,0,0.9,0c0.2,0,0.2,0.2,0.2,0.8
			c0,0.2,0,0.4,0,0.5c0.8,0,1.5,0.1,2.4,0.1c0-0.1,0.1-0.3,0.2-0.5c0.2-0.7,0.2-0.7,0.4-0.7l0.1,0c0.1,0,0.1,0,0.3,0
			c0.2,0,0.2,0.1,0.2,0.8c0,0.2,0,0.4,0,0.5c0.7,0,1.3,0,2,0l4.1-4.4c0,0,0.1-0.1,0.1,0L48,98.2c0.1,0,0.1,0.1,0.1,0.1l0,1.3
			c1.1,0.2,2.1,0.4,3.1,0.5c0.1-0.1,0.1-0.4,0.2-0.5c0.2-0.5,0.3-0.7,0.5-0.7c0.1,0,0.3,0,0.4,0.1c0.2,0,0.4,0.1,0.5,0.1
			c0.2,0,0.2,0.2,0.1,0.8c0,0.2,0,0.4,0,0.5c1.1,0.1,2.1,0.2,3.1,0.2c0-0.1,0.1-0.4,0.2-0.5c0.2-0.6,0.2-0.8,0.4-0.8l0,0l0.4,0
			c0.2,0,0.2,0.1,0.2,0.8c0,0.2,0,0.4,0,0.5c0.9,0,1.9,0,2.8,0C60.1,100.6,60.3,99.8,60.4,99.6z"/>
	</g>
	<g>
		<path class="st1" d="M58.2,97.6c13.1,0,18.8-5.9,18.8-6c0.1-0.1,0.1-0.2,0-0.2c-0.1-0.1-0.2-0.1-0.2,0c-0.1,0.1-7.8,8.2-26.4,5.2
			c-15.6-2.5-19.4-2.6-24.2-2.7c-1,0-2.1-0.1-3.3-0.1c-7.3-0.3-11.5-1.4-12.5-2.4c-0.1-0.1-0.2-0.1-0.2,0c-0.1,0.1-0.1,0.2,0,0.2
			c1,1,5.3,2.2,12.7,2.5c1.2,0.1,2.3,0.1,3.3,0.1c4.8,0.1,8.6,0.3,24.1,2.7C53.2,97.4,55.9,97.6,58.2,97.6z"/>
	</g>
	<path class="st2" d="M45.1,12.9c0.4,0.1,0.4-1.6,0.5-2.5c0-0.4,0-0.6,0-0.6C43.6,6.3,36.8,6,30.4,5.4c-0.6,0-1-0.2-1.5-0.3
		C28.4,5.1,28,5,27.5,5c-0.4,0-0.7-0.1-1.1-0.2c-0.5-0.1-1.1,0-1.7,0c0.2,0.3,0,0.3-0.2,0.4c-0.7,0.1-1.6,0.1-1.9,0.8
		c-0.9-0.6-1.9-1.1-3-1.2l0-0.8c-0.1-0.2-0.5-0.4-1.2-0.4l0.1-0.8c-1.5,0-1.6-0.2-2.4-0.3c-0.7-0.4-1.5-0.4-2.3,0
		C13,2.6,11.6,3,8.8,3.4C7.4,3.6,6,3.8,4.6,4.1C3.5,4.4,2.5,4.7,2,5.3c0,1,0,2.8,0.2,3.5l0.2,0c0-0.3-0.5-1.1,1.7-1.5
		c2.2-0.4,6.1-1,9.1-1.5c0.6,0,0.6-0.4,1.5-0.6l-0.6,3.4c0,6.8-0.6,18.9,4.4,23.2c1.1,0.9,2.3,1.6,3.6,1.8c5,0.5,7.1-5.5,7.5-9.6
		c0.5-6.8-1.6-13.7-1.9-16l0-0.7c0.9,0.5,1.8,0.4,2.5,0.4c0.7,0,13,0.5,14.6,4C45.2,12.3,45.2,12.6,45.1,12.9z"/>
	<g>
		<path class="st1" d="M44.9,11.9C44.9,11.9,44.9,11.9,44.9,11.9c0.1-0.1,0.2-0.1,0.1-0.2C43.3,8,30.4,7.6,30.3,7.6
			c-0.1,0-0.2,0-0.3,0c-0.6,0-1.3,0-2.1-0.4c-1-0.6-1.7-0.6-2.7-0.5c-0.1,0-0.1,0-0.2,0C25.1,6.1,25,5.3,25,5.3
			c0-0.1-0.1-0.1-0.2-0.1c-0.1,0-0.1,0.1-0.1,0.2c0,0,0.1,0.9-0.1,1.4c0,0,0,0.1,0,0.2c0,0,0.1,0.1,0.1,0.1c0.1,0,0.3,0,0.4,0
			c1,0,1.6-0.1,2.6,0.5c0.8,0.5,1.6,0.5,2.3,0.4c0.1,0,0.2,0,0.3,0c2,0,13,0.7,14.5,3.9C44.8,11.8,44.8,11.9,44.9,11.9z"/>
	</g>
	<g>
		<path class="st1" d="M2.4,9C2.4,9,2.4,9,2.4,9c0.1,0,0.2-0.1,0.2-0.2c0,0,0-0.1,0-0.2c0-0.2-0.1-0.3,0.1-0.5
			c0.2-0.3,0.7-0.5,1.6-0.6c1.5-0.3,3.7-0.6,5.9-1c1.1-0.2,2.2-0.3,3.2-0.5c0.3,0,0.5-0.1,0.7-0.2c0.2-0.1,0.4-0.2,0.8-0.4l1.1-0.2
			C15.9,5.2,16,5.1,16,5c0-0.1-0.1-0.1-0.2-0.1l-1.1,0.2c-0.5,0.1-0.7,0.3-0.9,0.4c-0.2,0.1-0.3,0.2-0.5,0.2c-1,0.2-2.1,0.3-3.2,0.5
			C7.8,6.6,5.6,7,4.1,7.2C3.1,7.4,2.6,7.6,2.3,8C2.1,8.3,2.2,8.5,2.2,8.7c0,0,0,0.1,0,0.1C2.2,8.9,2.3,9,2.4,9z"/>
	</g>
	<g>
		<path class="st1" d="M18.4,28.8c-0.9-1.4-1.5-3.3-1.8-5.7c0-0.1,0-0.2,0.1-0.2c0.1,0,0.2,0,0.2,0.1c0.3,2.4,0.9,4.3,1.8,5.6
			c1.2,1.8,2.7,2.8,4.2,2.6c1.6-0.2,3-1.5,3.9-3.6c0.6-1.6,1-3.4,1-5.7c0-0.1,0.1-0.1,0.2-0.1l0,0c0.1,0,0.2,0.1,0.2,0.2
			c0,2.3-0.3,4.2-1,5.8c-0.9,2.2-2.4,3.6-4.1,3.8c-0.1,0-0.2,0-0.3,0C21.1,31.6,19.6,30.6,18.4,28.8z M27.2,16
			c-0.4-2.5-1-5.3-1.9-8.5c0-0.1,0-0.2,0.1-0.2c0.1,0,0.2,0,0.2,0.1c0.8,3.1,1.5,6,1.9,8.5c0,0.1,0,0.2-0.1,0.2c0,0,0,0,0,0
			C27.3,16.2,27.2,16.1,27.2,16z M16.2,14.8l0-0.6c0-3,0-5.8-0.3-8.2c0-0.1,0-0.2,0.1-0.2c0.1,0,0.2,0,0.2,0.1
			c0.4,2.4,0.3,5.3,0.3,8.3l0,0.6c0,0.1-0.1,0.2-0.2,0.2C16.3,15,16.2,14.9,16.2,14.8z"/>
	</g>
	<g>
		<path class="st1" d="M22.8,33.9c1.3,0,2.4-0.4,3.4-1.2c2.3-1.9,3.4-5.7,3.6-8.5c0.4-5-0.7-10-1.4-13.3C28.1,9.6,28,8.6,27.9,8
			c0-0.1-0.1-0.1-0.2-0.1c-0.1,0-0.1,0.1-0.1,0.2c0.1,0.6,0.3,1.6,0.5,2.8c0.7,3.3,1.7,8.3,1.4,13.2c-0.2,2.8-1.2,6.5-3.5,8.3
			c-1.1,0.9-2.4,1.3-3.8,1.1c-1.1-0.1-2.4-0.7-3.6-1.7c-4.4-3.8-4.4-14.1-4.3-20.9c0-0.8,0-1.5,0-2.2c0-0.1-0.1-0.1-0.2-0.1h0
			C14,8.5,14,8.6,14,8.7c0,0.7,0,1.4,0,2.2c0,6.9-0.1,17.2,4.5,21.1c1.2,1.1,2.5,1.7,3.7,1.8C22.3,33.9,22.6,33.9,22.8,33.9z"/>
	</g>
	<g>
		<path class="st2" d="M2.9,22.9l-1.3-2.8l0.7-1.8l0.2-0.4l0.6-1.1c2.4-0.6,5-0.8,7.9-0.6c-0.1-0.7,0.3-1.1,1.4-1.2l4.9-0.2
			c1.4,0,1.9,0.3,2,0.9c6.5,0.1,10.3,0.4,11.5,1.1L30.5,15c5.2-1,8.1,0.4,8.3,4.7c0.4,4.8-2.7,6.1-7.8,5.3l0.1-2.5
			c-2.6-0.5-6.5-0.6-11.7-0.3c-0.1,0.6-0.8,1-2,1l-4.8,0c-0.7,0-1.2-0.3-1.4-0.8C8.3,22.2,5.5,22.4,2.9,22.9z"/>
		<path class="st1" d="M31,25.1c-0.1,0-0.1-0.1-0.1-0.2l0.1-2.4c-1.7-0.3-3.8-0.5-6.5-0.5c-1.5,0-3.2,0.1-5,0.2c-0.2,0.6-1,1-2,1
			l-4.8,0c-0.7,0-1.3-0.3-1.5-0.8C7.9,22.4,5.3,22.6,3,23c-0.1,0-0.1,0-0.2-0.1l-1.3-2.8c0,0,0-0.1,0-0.1l0.9-2.2L3,16.7
			c0,0,0.1-0.1,0.1-0.1c2.3-0.6,4.9-0.8,7.8-0.7c0-0.3,0.1-0.5,0.2-0.7c0.2-0.3,0.7-0.4,1.4-0.5l4.9-0.2c0.1,0,0.2,0,0.2,0
			c1.1,0,1.7,0.3,1.9,0.9c6.1,0.1,9.7,0.4,11.2,1L30.3,15c0,0,0-0.1,0-0.1c0,0,0.1-0.1,0.1-0.1c5.5-1,8.3,0.6,8.5,4.8
			c0.1,1.9-0.2,3.3-1.1,4.2c-0.9,1-2.3,1.5-4.3,1.5C32.8,25.3,31.9,25.2,31,25.1z M30.7,15.1l0.4,1.7c0,0.1,0,0.1-0.1,0.2
			c0,0-0.1,0-0.2,0c-1.1-0.7-5-1-11.4-1.1c-0.1,0-0.1,0-0.1-0.1c-0.1-0.3-0.3-0.8-1.6-0.8c-0.1,0-0.2,0-0.2,0l-4.9,0.2
			c-0.6,0-1,0.1-1.2,0.4c-0.1,0.1-0.2,0.3-0.1,0.6c0,0,0,0.1,0,0.1c0,0-0.1,0-0.1,0c-2.9-0.1-5.6,0.1-7.8,0.6l-0.6,1L1.8,20L3,22.7
			c2.3-0.4,5-0.6,8.2-0.7c0.1,0,0.1,0,0.1,0.1c0.2,0.4,0.6,0.7,1.3,0.7l4.8,0h0c1,0,1.6-0.3,1.8-0.8c0-0.1,0.1-0.1,0.1-0.1
			c1.9-0.1,3.6-0.2,5.1-0.2c2.7,0,5,0.2,6.6,0.5c0.1,0,0.1,0.1,0.1,0.2l-0.1,2.4c3.2,0.5,5.3,0.1,6.5-1.2c0.8-0.9,1.2-2.2,1-4
			c-0.2-3.2-1.9-4.8-5.3-4.8C32.5,14.8,31.6,14.9,30.7,15.1z"/>
	</g>
	<g>
		<path class="st1" d="M11.8,16.4c0.1,0,0.1,0,0.1-0.1c0.1-0.2,0.6-0.8,5.3-0.5c0.1,0,0.2-0.1,0.2-0.1c0-0.1-0.1-0.2-0.1-0.2
			c-5.3-0.4-5.5,0.4-5.6,0.7C11.6,16.2,11.7,16.3,11.8,16.4C11.8,16.4,11.8,16.4,11.8,16.4z"/>
	</g>
	<g>
		<path class="st1" d="M12.2,22.2C12.2,22.2,12.3,22.2,12.2,22.2c1.8-0.4,3.5-0.4,5.2-0.1c0.1,0,0.2,0,0.2-0.1c0-0.1,0-0.2-0.1-0.2
			c-1.7-0.3-3.5-0.3-5.3,0.1c-0.1,0-0.1,0.1-0.1,0.2C12.1,22.1,12.2,22.2,12.2,22.2z"/>
	</g>
	<g>
		<path class="st1" d="M12.5,22.3C12.5,22.3,12.5,22.3,12.5,22.3l5-0.1c0,0,0.1,0,0.1,0c0,0,0-0.1,0-0.1l-0.3-6.6c0,0,0-0.1,0-0.1
			c0,0-0.1,0-0.1,0l-1.3,0.1c-0.1,0-0.1,0.1-0.1,0.2c0,0.1,0.1,0.1,0.2,0.1l1.2-0.1l0.3,6.3L12.5,22c0,0,0,0,0,0
			c-0.3,0-0.4-0.5-0.4-0.8l-0.2-5c0-0.1-0.1-0.1-0.2-0.1c-0.1,0-0.1,0.1-0.1,0.2l0.2,5C11.8,21.9,12.1,22.3,12.5,22.3z"/>
	</g>
	<g>
		<path class="st1" d="M19.1,22.2c0.2,0,0.3-0.1,0.5-0.2c0.1-0.1,0.2-0.2,0.3-0.3c1-0.7,1.6-1.8,1.5-2.9c0-1.1-0.7-2.2-1.7-2.8
			c-0.2-0.1-0.3-0.3-0.4-0.4c-0.1-0.2-0.2-0.4-0.6-0.3c-0.1,0-0.1,0.1-0.1,0.2c0,0.1,0.1,0.1,0.2,0.1c0.2,0,0.2,0,0.3,0.2
			c0.1,0.2,0.2,0.4,0.5,0.6c0.9,0.5,1.5,1.5,1.5,2.5c0,1-0.5,2-1.4,2.6c-0.1,0.1-0.3,0.2-0.3,0.3c-0.2,0.2-0.2,0.2-0.4,0.1
			c-0.1,0-0.2,0-0.2,0.1c0,0.1,0,0.2,0.1,0.2C18.9,22.2,19,22.2,19.1,22.2z"/>
	</g>
	<g>
		<path class="st1" d="M18.9,21.8C18.9,21.8,18.9,21.8,18.9,21.8c0.1,0,0.2-0.1,0.2-0.2L19,15.9c0-0.1-0.1-0.1-0.2-0.1
			c-0.1,0-0.1,0.1-0.1,0.2l0.1,5.8C18.8,21.7,18.8,21.8,18.9,21.8z"/>
	</g>
	<g>
		<path class="st1" d="M19.5,21C19.5,21,19.6,21,19.5,21c0.8-0.5,1.2-1.3,1.2-2.2c0-1-0.5-1.8-1.2-2.2c-0.1,0-0.2,0-0.2,0.1
			c0,0.1,0,0.2,0.1,0.2c0.6,0.3,1,1.1,1,2c0,0.8-0.3,1.5-1,1.9c-0.1,0-0.1,0.1,0,0.2C19.4,21,19.4,21,19.5,21z"/>
	</g>
	<g>
		<path class="st1" d="M31.3,22.3c0,0,0.1,0,0.1,0c0.4-0.4,0.1-5-0.2-5.3c-0.1-0.1-0.1-0.1-0.2,0c-0.1,0.1-0.1,0.1,0,0.2
			c0.2,0.4,0.5,4.5,0.2,4.9c-0.1,0.1-0.1,0.2,0,0.2C31.2,22.3,31.2,22.3,31.3,22.3z"/>
	</g>
	<g>
		<path class="st1" d="M18.9,15.6c0.1,0,0.1-0.1,0.2-0.1c0-3.7,0.2-6.7,0.5-9.5c0-0.1-0.1-0.2-0.1-0.2c-0.1,0-0.2,0-0.2,0.1
			c-0.3,2.8-0.5,5.8-0.5,9.5C18.8,15.5,18.8,15.6,18.9,15.6C18.9,15.6,18.9,15.6,18.9,15.6z"/>
	</g>
	<g>
		<path class="st1" d="M24.9,16C24.9,16,24.9,16,24.9,16c0.1,0,0.2-0.1,0.1-0.2c-0.5-3.5-1.1-6.1-1.9-8.5c0-0.1-0.1-0.1-0.2-0.1
			c-0.1,0-0.1,0.1-0.1,0.2c0.8,2.4,1.4,5,1.9,8.5C24.7,15.9,24.8,16,24.9,16z"/>
	</g>
	<g>
		<path class="st1" d="M23.2,28.3C23.2,28.3,23.2,28.3,23.2,28.3c0.3-0.1,0.3-0.6,0.2-1.5c0-0.4-0.1-0.7-0.1-0.9
			c0-0.6,1.1-3,1.4-3.9c0-0.1,0-0.2-0.1-0.2c-0.1,0-0.2,0-0.2,0.1c-0.1,0.1-1.4,3.2-1.5,4c0,0.2,0,0.6,0.1,1c0,0.4,0.1,0.9,0.1,1.1
			c0,0-0.1-0.1-0.1-0.1c-0.7-0.9-1.3-1.5-1.8-2.3c0-0.1-0.1-0.1-0.2,0c-0.1,0-0.1,0.1,0,0.2c0.5,0.8,1.1,1.4,1.8,2.3
			C22.9,28.1,23,28.3,23.2,28.3z"/>
	</g>
	<g>
		<path class="st1" d="M24.8,28c0.1,0,0.1,0,0.1-0.1c0.5-2.3,1.7-5.8,1.7-5.9c0-0.1,0-0.2-0.1-0.2c-0.1,0-0.2,0-0.2,0.1
			c0,0-1.3,3.6-1.7,5.9C24.7,27.9,24.7,28,24.8,28C24.8,28,24.8,28,24.8,28z"/>
	</g>
	<g>
		<path class="st1" d="M18.1,25.6C18.2,25.6,18.2,25.6,18.1,25.6c0.1-0.1,0.2-0.2,0.1-0.2c-0.5-0.8-0.7-2.3-0.7-2.3
			c0-0.1-0.1-0.1-0.2-0.1c-0.1,0-0.1,0.1-0.1,0.2c0,0.1,0.2,1.6,0.7,2.4C18,25.5,18.1,25.6,18.1,25.6z"/>
	</g>
	<g>
		<path class="st1" d="M11.2,22.3C11.2,22.3,11.2,22.3,11.2,22.3c0.1,0,0.2-0.1,0.2-0.2l-0.2-6.1c0-0.1-0.1-0.1-0.2-0.1
			c-0.1,0-0.1,0.1-0.1,0.2l0.2,6.1C11.1,22.3,11.2,22.3,11.2,22.3z"/>
	</g>
	<g>
		<path class="st1" d="M19.4,18.9C19.4,18.9,19.4,18.9,19.4,18.9c0.1,0,0.2-0.1,0.2-0.2l0-2c0-0.1-0.1-0.2-0.2-0.1
			c-0.1,0-0.1,0.1-0.1,0.2l0,2C19.3,18.8,19.4,18.9,19.4,18.9z"/>
	</g>
	<g>
		<path class="st1" d="M34.9,23.3c0.2,0,0.3,0,0.4-0.1c0.3-0.2,0.3-0.8,0.2-1.7c-0.1-0.6-0.1-1.3-0.1-2.2c0-0.1-0.1-0.1-0.2-0.1l0,0
			c-0.1,0-0.2,0.1-0.2,0.2c0,0.9,0.1,1.7,0.1,2.2c0.1,0.7,0.1,1.3-0.1,1.4c-0.1,0.1-0.4,0.1-1-0.1c-0.1,0-0.2,0-0.2,0.1
			c0,0.1,0,0.2,0.1,0.2C34.4,23.3,34.7,23.3,34.9,23.3z"/>
	</g>
</g>
</svg>
