<?xml version="1.0" encoding="utf-8"?>
<!-- Generator: Adobe Illustrator 19.1.0, SVG Export Plug-In . SVG Version: 6.00 Build 0)  -->
<svg version="1.1" xmlns="http://www.w3.org/2000/svg" xmlns:xlink="http://www.w3.org/1999/xlink" x="0px" y="0px"
	 viewBox="0 0 121.4 109.8" style="enable-background:new 0 0 121.4 109.8;" xml:space="preserve">
<style type="text/css">
	.st0{fill:url(#SVGID_1_);}
	.st1{fill:url(#SVGID_2_);}
	.st2{fill:url(#SVGID_3_);}
	.st3{fill:url(#SVGID_4_);}
	.st4{fill:url(#SVGID_5_);}
	.st5{fill:url(#SVGID_6_);}
	.st6{fill:url(#SVGID_7_);}
	.st7{fill:url(#SVGID_8_);}
	.st8{fill:url(#SVGID_9_);}
	.st9{fill:url(#SVGID_10_);}
	.st10{fill:url(#SVGID_11_);}
	.st11{fill:url(#SVGID_12_);}
	.st12{fill:url(#SVGID_13_);}
	.st13{fill:#94A7AF;}
	.st14{fill:url(#SVGID_14_);}
	.st15{fill:url(#SVGID_15_);}
	.st16{fill:url(#SVGID_16_);}
	.st17{fill:url(#SVGID_17_);}
	.st18{fill:#263032;}
	.st19{fill:url(#SVGID_18_);}
	.st20{fill:url(#SVGID_19_);}
	.st21{fill:url(#SVGID_20_);}
	.st22{fill:#FFFFFF;}
	.st23{fill:url(#SVGID_21_);}
	.st24{fill:url(#SVGID_22_);}
	.st25{fill:url(#SVGID_23_);}
	.st26{fill:url(#SVGID_24_);}
	.st27{fill:url(#SVGID_25_);}
	.st28{fill:url(#SVGID_26_);}
	.st29{fill:url(#SVGID_27_);}
	.st30{fill:url(#SVGID_28_);}
	.st31{fill:url(#SVGID_29_);}
	.st32{fill:url(#SVGID_30_);}
	.st33{fill:url(#SVGID_31_);}
	.st34{fill:url(#SVGID_32_);}
	.st35{fill:url(#SVGID_33_);}
	.st36{fill:url(#SVGID_34_);}
	.st37{fill:url(#SVGID_35_);}
	.st38{fill:url(#SVGID_36_);}
	.st39{fill:url(#SVGID_37_);}
</style>
<g id="Layer_1">
</g>
<g id="Layer_2">
	<g>
		<g>
			<radialGradient id="SVGID_1_" cx="32.9388" cy="74.4429" r="10.1503" fx="32.8611" fy="75.1424" gradientUnits="userSpaceOnUse">
				<stop  offset="0" style="stop-color:#ECF6F9"/>
				<stop  offset="0.1488" style="stop-color:#AEE4F5"/>
				<stop  offset="0.2976" style="stop-color:#77D4F1"/>
				<stop  offset="0.4085" style="stop-color:#54CAEF"/>
				<stop  offset="0.4683" style="stop-color:#47C6EE"/>
				<stop  offset="0.5126" style="stop-color:#47BFEA"/>
				<stop  offset="1" style="stop-color:#4379BC"/>
			</radialGradient>
			<path class="st0" d="M39.2,77.5c0-2.2-0.4-4.2-0.4-5.6c0-1.4,0.1-4.7,0.1-4.7s-2.2,2.3-3.2,3.3c-1,1-3,2.2-4.6,3.9
				c-1.2,1.2-1.8,3.4-1.2,5.1c0.5,1.5,1.3,2.6,2.9,3.3c0.7,0.3,1.4,0.4,2,0.4c0.9,0,1.8-0.2,2.5-0.7C38.4,81.5,39.2,80.4,39.2,77.5z
				"/>
			<radialGradient id="SVGID_2_" cx="16.2133" cy="70.3789" r="8.1269" fx="16.1511" fy="70.9389" gradientUnits="userSpaceOnUse">
				<stop  offset="0" style="stop-color:#ECF6F9"/>
				<stop  offset="0.1488" style="stop-color:#AEE4F5"/>
				<stop  offset="0.2976" style="stop-color:#77D4F1"/>
				<stop  offset="0.4085" style="stop-color:#54CAEF"/>
				<stop  offset="0.4683" style="stop-color:#47C6EE"/>
				<stop  offset="0.5126" style="stop-color:#47BFEA"/>
				<stop  offset="1" style="stop-color:#4379BC"/>
			</radialGradient>
			<path class="st1" d="M21.2,72.8c0-1.8-0.3-3.4-0.3-4.5c0-1.1,0.1-3.8,0.1-3.8s-1.7,1.9-2.6,2.6c-0.8,0.8-2.4,1.8-3.7,3.1
				c-1,1-1.4,2.7-1,4c0.4,1.2,1,2.1,2.3,2.6c0.5,0.2,1.1,0.3,1.6,0.3c0.7,0,1.4-0.2,2-0.6C20.6,76,21.2,75.2,21.2,72.8z"/>
			
				<radialGradient id="SVGID_3_" cx="45.2689" cy="81.1762" r="10.1498" fx="45.1912" fy="81.8757" gradientTransform="matrix(0.8821 -1.220000e-02 1.380000e-02 0.9999 8.5755 0.5312)" gradientUnits="userSpaceOnUse">
				<stop  offset="0" style="stop-color:#ECF6F9"/>
				<stop  offset="0.1488" style="stop-color:#AEE4F5"/>
				<stop  offset="0.2976" style="stop-color:#77D4F1"/>
				<stop  offset="0.4085" style="stop-color:#54CAEF"/>
				<stop  offset="0.4683" style="stop-color:#47C6EE"/>
				<stop  offset="0.5126" style="stop-color:#47BFEA"/>
				<stop  offset="1" style="stop-color:#4379BC"/>
			</radialGradient>
			<path class="st2" d="M55.2,84.1c0-2.2-0.4-4.2-0.4-5.6c0-1.4,0-4.7,0-4.7s-1.9,2.3-2.8,3.3c-0.9,1-2.6,2.3-4,4
				c-1.1,1.2-1.5,3.4-1,5.1c0.4,1.4,1.2,2.6,2.6,3.2c0.6,0.3,1.2,0.4,1.8,0.4c0.8,0,1.6-0.3,2.2-0.8C54.6,88.1,55.2,87,55.2,84.1z"
				/>
			
				<radialGradient id="SVGID_4_" cx="77.0395" cy="69.3395" r="8.1254" fx="76.9773" fy="69.8995" gradientTransform="matrix(0.8822 0 0 1 8.9093 0)" gradientUnits="userSpaceOnUse">
				<stop  offset="0" style="stop-color:#ECF6F9"/>
				<stop  offset="0.1488" style="stop-color:#AEE4F5"/>
				<stop  offset="0.2976" style="stop-color:#77D4F1"/>
				<stop  offset="0.4085" style="stop-color:#54CAEF"/>
				<stop  offset="0.4683" style="stop-color:#47C6EE"/>
				<stop  offset="0.5126" style="stop-color:#47BFEA"/>
				<stop  offset="1" style="stop-color:#4379BC"/>
			</radialGradient>
			<path class="st3" d="M81.3,71.8c0-1.8-0.3-3.4-0.3-4.5c0-1.1,0.1-3.8,0.1-3.8s-1.5,1.9-2.3,2.6c-0.7,0.8-2.1,1.8-3.3,3.1
				c-0.9,1-1.2,2.7-0.9,4.1c0.3,1.2,0.9,2.1,2,2.6c0.5,0.2,1,0.3,1.4,0.3c0.6,0,1.3-0.2,1.7-0.6C80.7,75,81.3,74.1,81.3,71.8z"/>
			
				<radialGradient id="SVGID_5_" cx="106.1725" cy="61.1342" r="8.1261" fx="106.1103" fy="61.6942" gradientTransform="matrix(0.8822 0 0 1 8.9093 0)" gradientUnits="userSpaceOnUse">
				<stop  offset="0" style="stop-color:#ECF6F9"/>
				<stop  offset="0.1488" style="stop-color:#AEE4F5"/>
				<stop  offset="0.2976" style="stop-color:#77D4F1"/>
				<stop  offset="0.4085" style="stop-color:#54CAEF"/>
				<stop  offset="0.4683" style="stop-color:#47C6EE"/>
				<stop  offset="0.5126" style="stop-color:#47BFEA"/>
				<stop  offset="1" style="stop-color:#4379BC"/>
			</radialGradient>
			<path class="st4" d="M107,63.6c0-1.8-0.3-3.4-0.3-4.5c0-1.1,0.1-3.8,0.1-3.8s-1.5,1.9-2.3,2.6c-0.7,0.8-2.1,1.8-3.3,3.1
				c-0.9,1-1.2,2.7-0.9,4.1c0.3,1.2,0.9,2.1,2,2.6c0.5,0.2,1,0.3,1.4,0.3c0.6,0,1.3-0.2,1.7-0.6C106.4,66.8,107,65.9,107,63.6z"/>
			
				<radialGradient id="SVGID_6_" cx="79.2958" cy="101.7586" r="8.1249" fx="79.2336" fy="102.3185" gradientTransform="matrix(0.8822 0 0 1 8.9093 0)" gradientUnits="userSpaceOnUse">
				<stop  offset="0" style="stop-color:#ECF6F9"/>
				<stop  offset="0.1488" style="stop-color:#AEE4F5"/>
				<stop  offset="0.2976" style="stop-color:#77D4F1"/>
				<stop  offset="0.4085" style="stop-color:#54CAEF"/>
				<stop  offset="0.4683" style="stop-color:#47C6EE"/>
				<stop  offset="0.5126" style="stop-color:#47BFEA"/>
				<stop  offset="1" style="stop-color:#4379BC"/>
			</radialGradient>
			<path class="st5" d="M83.3,104.2c0-1.8-0.3-3.4-0.3-4.5c0-1.1,0.1-3.8,0.1-3.8s-1.5,1.9-2.3,2.6c-0.7,0.8-2.1,1.8-3.3,3.1
				c-0.9,1-1.2,2.7-0.9,4.1c0.3,1.2,0.9,2.1,2,2.6c0.5,0.2,1,0.3,1.4,0.3c0.6,0,1.3-0.2,1.7-0.6C82.7,107.4,83.3,106.5,83.3,104.2z"
				/>
			
				<radialGradient id="SVGID_7_" cx="10.1221" cy="90.3735" r="8.1261" fx="10.0599" fy="90.9335" gradientTransform="matrix(0.8822 0 0 1 8.9093 0)" gradientUnits="userSpaceOnUse">
				<stop  offset="0" style="stop-color:#ECF6F9"/>
				<stop  offset="0.1488" style="stop-color:#AEE4F5"/>
				<stop  offset="0.2976" style="stop-color:#77D4F1"/>
				<stop  offset="0.4085" style="stop-color:#54CAEF"/>
				<stop  offset="0.4683" style="stop-color:#47C6EE"/>
				<stop  offset="0.5126" style="stop-color:#47BFEA"/>
				<stop  offset="1" style="stop-color:#4379BC"/>
			</radialGradient>
			<path class="st6" d="M22.3,92.8c0-1.8-0.3-3.4-0.3-4.5c0-1.1,0.1-3.8,0.1-3.8s-1.5,1.9-2.3,2.6c-0.7,0.8-2.1,1.8-3.3,3.1
				c-0.9,1-1.2,2.7-0.9,4.1c0.3,1.2,0.9,2.1,2,2.6c0.5,0.2,1,0.3,1.4,0.3c0.6,0,1.3-0.2,1.7-0.6C21.7,96,22.3,95.2,22.3,92.8z"/>
			
				<radialGradient id="SVGID_8_" cx="87.8376" cy="80.7761" r="8.1257" fx="87.7754" fy="81.3361" gradientTransform="matrix(0.8822 0 0 1 8.9093 0)" gradientUnits="userSpaceOnUse">
				<stop  offset="0" style="stop-color:#ECF6F9"/>
				<stop  offset="0.1488" style="stop-color:#AEE4F5"/>
				<stop  offset="0.2976" style="stop-color:#77D4F1"/>
				<stop  offset="0.4085" style="stop-color:#54CAEF"/>
				<stop  offset="0.4683" style="stop-color:#47C6EE"/>
				<stop  offset="0.5126" style="stop-color:#47BFEA"/>
				<stop  offset="1" style="stop-color:#4379BC"/>
			</radialGradient>
			<path class="st7" d="M90.8,83.2c0-1.8-0.3-3.4-0.3-4.5c0-1.1,0.1-3.8,0.1-3.8s-1.5,1.9-2.3,2.6c-0.7,0.8-2.1,1.8-3.3,3.1
				c-0.9,1-1.2,2.7-0.9,4.1c0.3,1.2,0.9,2.1,2,2.6c0.5,0.2,1,0.3,1.4,0.3c0.6,0,1.3-0.2,1.7-0.6C90.3,86.4,90.8,85.6,90.8,83.2z"/>
			
				<radialGradient id="SVGID_9_" cx="59.6569" cy="69.2288" r="5.5857" fx="59.6142" fy="69.6137" gradientTransform="matrix(0.8822 0 0 1 8.9093 0)" gradientUnits="userSpaceOnUse">
				<stop  offset="0" style="stop-color:#ECF6F9"/>
				<stop  offset="0.1488" style="stop-color:#AEE4F5"/>
				<stop  offset="0.2976" style="stop-color:#77D4F1"/>
				<stop  offset="0.4085" style="stop-color:#54CAEF"/>
				<stop  offset="0.4683" style="stop-color:#47C6EE"/>
				<stop  offset="0.5126" style="stop-color:#47BFEA"/>
				<stop  offset="1" style="stop-color:#4379BC"/>
			</radialGradient>
			<path class="st8" d="M64.6,70.9c0-1.2-0.2-2.3-0.2-3.1c0-0.8,0-2.6,0-2.6s-1.1,1.3-1.6,1.8c-0.5,0.5-1.4,1.2-2.2,2.1
				C60,69.8,59.8,71.1,60,72c0.2,0.8,0.6,1.4,1.4,1.8c0.3,0.2,0.7,0.2,1,0.2c0.4,0,0.9-0.1,1.2-0.4C64.2,73.1,64.6,72.5,64.6,70.9z"
				/>
			
				<radialGradient id="SVGID_10_" cx="67.8167" cy="87.1079" r="5.5857" fx="67.7739" fy="87.4928" gradientTransform="matrix(0.8822 0 0 1 8.9093 0)" gradientUnits="userSpaceOnUse">
				<stop  offset="0" style="stop-color:#ECF6F9"/>
				<stop  offset="0.1488" style="stop-color:#AEE4F5"/>
				<stop  offset="0.2976" style="stop-color:#77D4F1"/>
				<stop  offset="0.4085" style="stop-color:#54CAEF"/>
				<stop  offset="0.4683" style="stop-color:#47C6EE"/>
				<stop  offset="0.5126" style="stop-color:#47BFEA"/>
				<stop  offset="1" style="stop-color:#4379BC"/>
			</radialGradient>
			<path class="st9" d="M71.8,88.8c0-1.2-0.2-2.3-0.2-3.1c0-0.8,0-2.6,0-2.6s-1.1,1.3-1.6,1.8c-0.5,0.5-1.4,1.2-2.2,2.1
				c-0.6,0.7-0.8,1.9-0.6,2.8c0.2,0.8,0.6,1.4,1.4,1.8c0.3,0.2,0.7,0.2,1,0.2c0.4,0,0.9-0.1,1.2-0.4C71.4,91,71.8,90.4,71.8,88.8z"
				/>
			
				<radialGradient id="SVGID_11_" cx="28.5756" cy="93.6341" r="5.5857" fx="28.5328" fy="94.019" gradientTransform="matrix(0.8822 0 0 1 8.9093 0)" gradientUnits="userSpaceOnUse">
				<stop  offset="0" style="stop-color:#ECF6F9"/>
				<stop  offset="0.1488" style="stop-color:#AEE4F5"/>
				<stop  offset="0.2976" style="stop-color:#77D4F1"/>
				<stop  offset="0.4085" style="stop-color:#54CAEF"/>
				<stop  offset="0.4683" style="stop-color:#47C6EE"/>
				<stop  offset="0.5126" style="stop-color:#47BFEA"/>
				<stop  offset="1" style="stop-color:#4379BC"/>
			</radialGradient>
			<path class="st10" d="M37.2,95.3c0-1.2-0.2-2.3-0.2-3.1c0-0.8,0-2.6,0-2.6s-1.1,1.3-1.6,1.8C35,92,34,92.7,33.2,93.6
				c-0.6,0.7-0.8,1.9-0.6,2.8c0.2,0.8,0.6,1.4,1.4,1.8c0.3,0.2,0.7,0.2,1,0.2c0.4,0,0.9-0.1,1.2-0.4C36.8,97.5,37.2,96.9,37.2,95.3z
				"/>
			
				<radialGradient id="SVGID_12_" cx="105.8457" cy="94.7894" r="5.5856" fx="105.8029" fy="95.1743" gradientTransform="matrix(0.8822 0 0 1 8.9093 0)" gradientUnits="userSpaceOnUse">
				<stop  offset="0" style="stop-color:#ECF6F9"/>
				<stop  offset="0.1488" style="stop-color:#AEE4F5"/>
				<stop  offset="0.2976" style="stop-color:#77D4F1"/>
				<stop  offset="0.4085" style="stop-color:#54CAEF"/>
				<stop  offset="0.4683" style="stop-color:#47C6EE"/>
				<stop  offset="0.5126" style="stop-color:#47BFEA"/>
				<stop  offset="1" style="stop-color:#4379BC"/>
			</radialGradient>
			<path class="st11" d="M105.3,96.5c0-1.2-0.2-2.3-0.2-3.1c0-0.8,0.1-2.6,0.1-2.6s-1.1,1.3-1.6,1.8c-0.5,0.5-1.4,1.2-2.2,2.1
				c-0.6,0.7-0.8,1.9-0.6,2.8c0.2,0.8,0.6,1.4,1.4,1.8c0.3,0.2,0.7,0.2,1,0.2c0.4,0,0.9-0.1,1.2-0.4
				C104.9,98.7,105.3,98.1,105.3,96.5z"/>
			
				<radialGradient id="SVGID_13_" cx="114.843" cy="76.9558" r="6.4918" fx="114.7933" fy="77.4031" gradientTransform="matrix(0.8822 0 0 1 8.9093 0)" gradientUnits="userSpaceOnUse">
				<stop  offset="0" style="stop-color:#ECF6F9"/>
				<stop  offset="0.1488" style="stop-color:#AEE4F5"/>
				<stop  offset="0.2976" style="stop-color:#77D4F1"/>
				<stop  offset="0.4085" style="stop-color:#54CAEF"/>
				<stop  offset="0.4683" style="stop-color:#47C6EE"/>
				<stop  offset="0.5126" style="stop-color:#47BFEA"/>
				<stop  offset="1" style="stop-color:#4379BC"/>
			</radialGradient>
			<path class="st12" d="M113.8,78.9c0-1.4-0.2-2.7-0.2-3.6c0-0.9,0.1-3,0.1-3s-1.2,1.5-1.8,2.1c-0.6,0.6-1.7,1.4-2.6,2.5
				c-0.7,0.8-1,2.2-0.7,3.2c0.3,0.9,0.7,1.6,1.6,2.1c0.4,0.2,0.8,0.3,1.1,0.3c0.5,0,1-0.2,1.4-0.5C113.3,81.5,113.8,80.8,113.8,78.9
				z"/>
		</g>
		<g>
			<g>
				<path class="st13" d="M49.8,57.5c-5.3,0-10.1-2.1-13.1-5.7c-1.7,1.8-4,2.8-6.4,2.8c-0.5,0-1,0-1.5-0.1c-2.6-0.5-4.9-2.1-6.2-4.4
					c-2.2,1.2-4.6,1.8-7.1,1.8c-7.9,0-14.3-6-14.3-13.5C1.2,31.6,6.5,26,13.5,25c0.3-4.6,4.2-8.2,8.9-8.2c0.8,0,1.5,0.1,2.3,0.3
					c-0.6-7.4,6.4-14.4,16-16c1.2-0.2,2.5-0.3,3.7-0.3c4.5,0,8.7,1.3,11.8,3.7C57,4.4,58,4.3,58.9,4.3c3.2,0,6.7,1.1,9.8,3
					c5,3.1,8.3,7.8,8.4,12c0.1,0,0.3,0,0.4,0.1c3.8,0.6,7.3,2.1,9.8,4.2c2.6,2.2,3.8,4.9,3.4,7.6c-0.1,0.4-0.2,0.9-0.3,1.3
					c6.8,1.9,11.1,6.5,10.4,11.2c-0.7,4.6-5.9,7.8-12.8,7.8c-1,0-2.1-0.1-3.2-0.2c-2.3-0.3-4.5-1-6.5-2c-1.6,1.6-3.8,2.4-6.1,2.4
					c-0.5,0-1,0-1.6-0.1c-1.9-0.3-3.6-1.3-4.9-2.7c-2.5,4.4-7.3,7.6-12.9,8.4C51.9,57.4,50.8,57.5,49.8,57.5L49.8,57.5z"/>
				<radialGradient id="SVGID_14_" cx="52.8156" cy="-15.9649" r="107.5691" gradientUnits="userSpaceOnUse">
					<stop  offset="0" style="stop-color:#F4F5F9"/>
					<stop  offset="9.296446e-02" style="stop-color:#EFF1F6"/>
					<stop  offset="0.1971" style="stop-color:#E2E7EE"/>
					<stop  offset="0.3066" style="stop-color:#CCD5E0"/>
					<stop  offset="0.4191" style="stop-color:#ACBDCD"/>
					<stop  offset="0.4634" style="stop-color:#9EB2C4"/>
					<stop  offset="0.5471" style="stop-color:#91A4B4"/>
					<stop  offset="0.7112" style="stop-color:#6E7E8A"/>
					<stop  offset="0.9378" style="stop-color:#364246"/>
					<stop  offset="1" style="stop-color:#263032"/>
				</radialGradient>
				<path class="st14" d="M89.5,32.9c0.3-0.6,0.5-1.2,0.6-1.8c0.7-5-4.9-9.9-12.6-11c-0.3,0-0.6-0.1-1-0.1c0.2-4-2.9-8.9-8.1-12.1
					C64.1,5.2,59.5,4.4,56,5.3c-3.7-3-9.3-4.4-15.2-3.5c-9.6,1.5-16.5,8.7-15.3,16.1c0,0.1,0,0.1,0,0.2c-1-0.4-2-0.6-3.1-0.6
					c-4.6,0-8.3,3.6-8.3,8.1c0,0,0,0,0,0C7.3,26.3,1.9,31.7,1.9,38.4c0,7.1,6.1,12.8,13.6,12.8c2.7,0,5.3-0.8,7.4-2
					c1.1,2.4,3.3,4.2,6,4.7c3.1,0.5,6-0.7,7.8-3c3.2,4.4,9.4,6.9,16.1,5.9c6-0.9,10.8-4.5,12.9-9c1.2,1.6,3,2.8,5.2,3.2
					c2.8,0.5,5.6-0.5,7.4-2.5c1.9,1,4.2,1.8,6.7,2.2c7.7,1.1,14.5-2,15.2-7C100.9,39,96.2,34.5,89.5,32.9z"/>
				<radialGradient id="SVGID_15_" cx="67.1345" cy="-35.505" r="120.1089" gradientUnits="userSpaceOnUse">
					<stop  offset="0" style="stop-color:#F4F5F9"/>
					<stop  offset="9.296446e-02" style="stop-color:#EFF1F6"/>
					<stop  offset="0.1971" style="stop-color:#E2E7EE"/>
					<stop  offset="0.3066" style="stop-color:#CCD5E0"/>
					<stop  offset="0.4191" style="stop-color:#ACBDCD"/>
					<stop  offset="0.4634" style="stop-color:#9EB2C4"/>
					<stop  offset="0.5471" style="stop-color:#91A4B4"/>
					<stop  offset="0.7112" style="stop-color:#6E7E8A"/>
					<stop  offset="0.9378" style="stop-color:#364246"/>
					<stop  offset="1" style="stop-color:#263032"/>
				</radialGradient>
				<path class="st15" d="M28.8,19.2c0.1,0.5,0.2,1,0.4,1.5c-0.7-1.1-1.3-2.4-1.5-3.7c-1-6.4,5-12.7,13.4-14
					c7.7-1.2,11,0.8,14.2,5.1c-4.1-2.6-6.5-3.9-13.1-2.9C33.8,6.5,27.8,12.8,28.8,19.2z M67.9,8.9c-5.8-3.6-12.4-3.4-14.7,0.4
					c-0.5,0.9-0.8,1.9-0.8,2.9c0.1-0.6,0.3-1.3,0.6-1.8c2.2-3.6,8.4-3.7,13.9-0.3c5.5,3.4,8.2,9,6,12.5c-0.7,1.2-2,2-3.4,2.4
					c2.1-0.3,3.8-1.2,4.8-2.8C76.5,18.5,73.7,12.5,67.9,8.9z M78.3,21.6c-1.4-0.2-2.8-0.2-4.1-0.1c0.4,0,0.9,0.1,1.3,0.2
					c7.4,1.1,12.8,5.8,12.1,10.6c-0.1,0.4-0.2,0.8-0.3,1.2c0.7-0.8,1.1-1.7,1.3-2.7C89.3,26.6,84.6,22.6,78.3,21.6z M16.6,48.2
					c0.9,0,1.7-0.1,2.5-0.3c-1.3,0.5-2.8,0.8-4.4,0.8c-6.2,0-11.2-4.7-11.2-10.5c0-5.8,5-10.5,11.2-10.5c0.6,0,1.3,0.1,1.9,0.2
					C10.7,28,6,32.5,6,38.1C6,43.7,10.7,48.2,16.6,48.2z M29.6,51.4c-3.4-0.6-5.8-4.6-5.8-7.9c-0.2,0.4-0.3,0.9-0.4,1.4
					c-0.7,3.8,1.9,7.4,5.7,8.1c3.8,0.7,7.5-1.8,8.1-5.6c0.1-0.4,0.1-0.7,0.1-1.1C36.1,49.2,32.9,52,29.6,51.4z M64.9,41.5
					c-0.1-0.8-0.4-1.6-0.7-2.4c0,0.2,0.1,0.3,0.1,0.5c1,6.4-4.3,12.5-11.8,13.7c-7.5,1.2-14.4-3-15.4-9.4c0-0.2,0-0.4-0.1-0.5
					c-0.1,0.8-0.1,1.7,0.1,2.6c1,6.4,8,10.6,15.7,9.4C60.4,54,65.9,47.9,64.9,41.5z M71.2,49.2c-2.2-0.4-4-1.6-5.2-3.2
					c1,2,3,3.5,5.4,4c3.3,0.6,6.5-1.1,8-4C77.5,48.5,74.4,49.8,71.2,49.2z M23.9,19.2c0.8,0,1.6,0.2,2.4,0.4
					c-1.2-0.8-2.6-1.3-4.1-1.3c-3.9,0-7,3.1-7,6.9c0,0.4,0.1,0.7,0.1,1.1C16,22.1,19.6,19.2,23.9,19.2z M88.7,34
					c5.4,1.9,8.9,5.3,8.4,8.6c-0.7,4.4-8.2,7-16.7,5.9c0,0,0,0,0,0c1.3,0.4,2.7,0.8,4.2,1c7.3,1,13.8-1.8,14.5-6.1
					C99.6,39.3,95.1,35.4,88.7,34z M38.4,43.4c-0.4-2.7,0.4-5.3,2-7.6c-2.9,2.5-4.5,6-4,9.6c0.9,6,7.5,9.9,14.7,8.8
					c2.4-0.4,4.5-1.3,6.3-2.5c-1,0.3-2,0.6-3.1,0.8C46.5,53.7,39.3,49.6,38.4,43.4z"/>
			</g>
			<g>
				<path class="st13" d="M81.7,58c-4,0-7.7-1.6-9.9-4.3c-1.3,1.3-3,2.1-4.8,2.1c-0.4,0-0.8,0-1.2-0.1c-2-0.4-3.7-1.6-4.7-3.3
					c-1.6,0.9-3.5,1.4-5.4,1.4c-6,0-10.8-4.6-10.8-10.2c0-5.1,4-9.3,9.3-10.1c0.2-3.5,3.2-6.2,6.7-6.2c0.6,0,1.2,0.1,1.7,0.2
					c-0.4-5.6,4.8-10.9,12.1-12.1c0.9-0.1,1.9-0.2,2.8-0.2c3.4,0,6.6,1,8.9,2.8c0.7-0.1,1.3-0.2,2.1-0.2c2.4,0,5,0.8,7.4,2.3
					c3.8,2.3,6.3,5.9,6.4,9.1c0.1,0,0.2,0,0.3,0c2.9,0.4,5.5,1.6,7.4,3.2c1.9,1.7,2.8,3.7,2.5,5.7c0,0.3-0.1,0.6-0.2,1
					c5.1,1.4,8.4,4.9,7.9,8.5c-0.5,3.5-4.5,5.9-9.7,5.9c-0.8,0-1.6-0.1-2.4-0.2c-1.7-0.3-3.4-0.8-4.9-1.5c-1.2,1.2-2.9,1.8-4.6,1.8
					c-0.4,0-0.8,0-1.2-0.1c-1.4-0.3-2.7-1-3.7-2c-1.9,3.3-5.5,5.7-9.7,6.4C83.3,58,82.5,58,81.7,58L81.7,58z"/>
				<radialGradient id="SVGID_16_" cx="83.992" cy="2.5769" r="81.2238" gradientUnits="userSpaceOnUse">
					<stop  offset="0" style="stop-color:#F4F5F9"/>
					<stop  offset="9.296446e-02" style="stop-color:#EFF1F6"/>
					<stop  offset="0.1971" style="stop-color:#E2E7EE"/>
					<stop  offset="0.3066" style="stop-color:#CCD5E0"/>
					<stop  offset="0.4191" style="stop-color:#ACBDCD"/>
					<stop  offset="0.4634" style="stop-color:#9EB2C4"/>
					<stop  offset="0.5471" style="stop-color:#91A4B4"/>
					<stop  offset="0.7112" style="stop-color:#6E7E8A"/>
					<stop  offset="0.9378" style="stop-color:#364246"/>
					<stop  offset="1" style="stop-color:#263032"/>
				</radialGradient>
				<path class="st16" d="M111.7,39.5c0.2-0.4,0.4-0.9,0.4-1.4c0.5-3.8-3.7-7.5-9.5-8.3c-0.2,0-0.5-0.1-0.7-0.1
					c0.1-3-2.2-6.7-6.1-9.1c-3.2-2-6.7-2.6-9.4-1.9c-2.8-2.2-7-3.3-11.5-2.6c-7.3,1.1-12.5,6.6-11.6,12.1c0,0.1,0,0.1,0,0.2
					c-0.7-0.3-1.5-0.4-2.3-0.4c-3.5,0-6.3,2.7-6.3,6.1c0,0,0,0,0,0c-5.2,0.5-9.3,4.6-9.3,9.6c0,5.3,4.6,9.7,10.3,9.7
					c2.1,0,4-0.6,5.6-1.5c0.8,1.8,2.5,3.1,4.5,3.5c2.3,0.4,4.6-0.5,5.9-2.3c2.4,3.3,7.1,5.2,12.1,4.4c4.5-0.7,8.1-3.4,9.7-6.8
					c0.9,1.2,2.3,2.2,3.9,2.4c2.1,0.4,4.2-0.4,5.6-1.9c1.5,0.8,3.2,1.4,5.1,1.6c5.8,0.8,10.9-1.5,11.5-5.3
					C120.3,44.1,116.7,40.7,111.7,39.5z"/>
				<radialGradient id="SVGID_17_" cx="94.8041" cy="-12.1769" r="90.6913" gradientUnits="userSpaceOnUse">
					<stop  offset="0" style="stop-color:#F4F5F9"/>
					<stop  offset="9.296446e-02" style="stop-color:#EFF1F6"/>
					<stop  offset="0.1971" style="stop-color:#E2E7EE"/>
					<stop  offset="0.3066" style="stop-color:#CCD5E0"/>
					<stop  offset="0.4191" style="stop-color:#ACBDCD"/>
					<stop  offset="0.4634" style="stop-color:#9EB2C4"/>
					<stop  offset="0.5471" style="stop-color:#91A4B4"/>
					<stop  offset="0.7112" style="stop-color:#6E7E8A"/>
					<stop  offset="0.9378" style="stop-color:#364246"/>
					<stop  offset="1" style="stop-color:#263032"/>
				</radialGradient>
				<path class="st17" d="M65.9,29.1c0.1,0.4,0.2,0.8,0.3,1.1c-0.6-0.8-0.9-1.8-1.1-2.8c-0.8-4.8,3.8-9.6,10.1-10.6
					c5.8-0.9,8.3,0.6,10.7,3.9c-3.1-1.9-4.9-3-9.9-2.2C69.6,19.6,65.1,24.3,65.9,29.1z M95.4,21.4c-4.4-2.7-9.4-2.6-11.1,0.3
					c-0.4,0.7-0.6,1.4-0.6,2.2c0.1-0.5,0.2-0.9,0.5-1.4c1.7-2.7,6.3-2.8,10.5-0.3c4.1,2.5,6.2,6.8,4.5,9.5c-0.6,0.9-1.5,1.5-2.6,1.8
					c1.6-0.2,2.9-0.9,3.6-2.1C101.9,28.6,99.8,24.1,95.4,21.4z M103.2,31c-1.1-0.2-2.1-0.2-3.1-0.1c0.3,0,0.7,0.1,1,0.1
					c5.6,0.8,9.7,4.4,9.2,8c0,0.3-0.1,0.6-0.2,0.9c0.5-0.6,0.9-1.3,1-2.1C111.5,34.7,108,31.7,103.2,31z M56.6,51.1
					c0.7,0,1.3-0.1,1.9-0.2c-1,0.4-2.1,0.6-3.3,0.6c-4.7,0-8.4-3.5-8.4-7.9c0-4.4,3.8-7.9,8.4-7.9c0.5,0,1,0,1.4,0.1
					c-4.4,0-8,3.4-8,7.7C48.6,47.6,52.2,51.1,56.6,51.1z M66.5,53.4c-2.6-0.5-4.4-3.5-4.4-6c-0.1,0.3-0.2,0.7-0.3,1.1
					c-0.5,2.9,1.4,5.6,4.3,6.1c2.9,0.5,5.6-1.4,6.1-4.3c0-0.3,0.1-0.5,0.1-0.8C71.4,51.8,69,53.9,66.5,53.4z M93.1,46
					c-0.1-0.6-0.3-1.2-0.5-1.8c0,0.1,0.1,0.2,0.1,0.4c0.8,4.8-3.2,9.4-8.9,10.3c-5.7,0.9-10.9-2.3-11.6-7.1c0-0.1,0-0.3,0-0.4
					c-0.1,0.6-0.1,1.3,0,1.9c0.8,4.8,6.1,8,11.9,7.1C89.8,55.4,93.8,50.8,93.1,46z M97.9,51.8c-1.6-0.3-3-1.2-3.9-2.4
					c0.8,1.5,2.2,2.7,4,3c2.5,0.4,4.9-0.8,6-3C102.7,51.2,100.3,52.2,97.9,51.8z M62.1,29.1c0.6,0,1.2,0.1,1.8,0.3
					c-0.9-0.6-1.9-1-3.1-1c-2.9,0-5.3,2.3-5.3,5.2c0,0.3,0,0.5,0.1,0.8C56.2,31.4,58.9,29.1,62.1,29.1z M111.1,40.3
					c4.1,1.5,6.7,4,6.3,6.5c-0.5,3.3-6.2,5.3-12.6,4.4c0,0,0,0,0,0c1,0.3,2,0.6,3.1,0.7c5.5,0.7,10.4-1.3,10.9-4.6
					C119.3,44.3,115.9,41.4,111.1,40.3z M73.1,47.4c-0.3-2,0.3-4,1.5-5.7c-2.2,1.9-3.4,4.5-3,7.2c0.7,4.5,5.7,7.5,11.1,6.6
					c1.8-0.3,3.4-0.9,4.7-1.9c-0.7,0.3-1.5,0.5-2.3,0.6C79.2,55.2,73.8,52.1,73.1,47.4z"/>
			</g>
			<g>
				<path class="st18" d="M42.7,70.3c-3.7,0-7.1-1.5-9.2-4c-1.2,1.2-2.8,1.9-4.5,1.9c-0.4,0-0.7,0-1.1-0.1c-1.8-0.3-3.4-1.5-4.3-3.1
					c-1.5,0.8-3.2,1.3-5,1.3c-5.5,0-10-4.2-10-9.4c0-4.7,3.7-8.7,8.6-9.3c0.2-3.2,2.9-5.7,6.2-5.7c0.5,0,1.1,0.1,1.6,0.2
					c-0.4-5.2,4.5-10.1,11.2-11.2c0.9-0.1,1.7-0.2,2.6-0.2c3.2,0,6.1,0.9,8.3,2.6c0.6-0.1,1.3-0.2,1.9-0.2c2.2,0,4.7,0.7,6.9,2.1
					c3.5,2.1,5.8,5.5,5.9,8.4c0.1,0,0.2,0,0.3,0c2.7,0.4,5.1,1.4,6.9,3c1.8,1.6,2.6,3.4,2.4,5.3c0,0.3-0.1,0.6-0.2,0.9
					c4.7,1.3,7.8,4.5,7.3,7.9c-0.5,3.2-4.1,5.5-9,5.5c-0.7,0-1.5-0.1-2.2-0.2c-1.6-0.2-3.2-0.7-4.5-1.4c-1.1,1.1-2.7,1.7-4.3,1.7
					c-0.4,0-0.7,0-1.1-0.1c-1.3-0.2-2.5-0.9-3.5-1.9c-1.7,3.1-5.1,5.3-9,5.9C44.2,70.2,43.4,70.3,42.7,70.3L42.7,70.3z"/>
				<radialGradient id="SVGID_18_" cx="44.8155" cy="18.8771" r="75.3054" gradientUnits="userSpaceOnUse">
					<stop  offset="0" style="stop-color:#9EB2C4"/>
					<stop  offset="0.156" style="stop-color:#91A4B4"/>
					<stop  offset="0.4618" style="stop-color:#6E7E8A"/>
					<stop  offset="0.8841" style="stop-color:#364246"/>
					<stop  offset="1" style="stop-color:#263032"/>
				</radialGradient>
				<path class="st19" d="M70.5,53.1c0.2-0.4,0.3-0.8,0.4-1.3c0.5-3.5-3.4-7-8.8-7.7c-0.2,0-0.4-0.1-0.7-0.1c0.1-2.8-2-6.2-5.7-8.4
					c-3-1.8-6.3-2.4-8.7-1.8c-2.6-2.1-6.5-3.1-10.7-2.4c-6.7,1.1-11.5,6.1-10.7,11.2c0,0,0,0.1,0,0.1c-0.7-0.3-1.4-0.4-2.2-0.4
					c-3.2,0-5.8,2.5-5.8,5.7c0,0,0,0,0,0c-4.8,0.5-8.6,4.3-8.6,8.9c0,4.9,4.3,9,9.5,9c1.9,0,3.7-0.5,5.2-1.4
					c0.8,1.6,2.3,2.9,4.2,3.3c2.2,0.4,4.2-0.5,5.5-2.1c2.2,3.1,6.6,4.8,11.3,4.1c4.2-0.7,7.5-3.1,9-6.3c0.8,1.1,2.1,2,3.6,2.3
					c2,0.4,3.9-0.4,5.2-1.7c1.3,0.7,2.9,1.3,4.7,1.5c5.4,0.8,10.2-1.4,10.7-4.9C78.5,57.4,75.2,54.2,70.5,53.1z"/>
				<radialGradient id="SVGID_19_" cx="54.8399" cy="5.1963" r="84.0877" gradientUnits="userSpaceOnUse">
					<stop  offset="0" style="stop-color:#9EB2C4"/>
					<stop  offset="0.156" style="stop-color:#91A4B4"/>
					<stop  offset="0.4618" style="stop-color:#6E7E8A"/>
					<stop  offset="0.8841" style="stop-color:#364246"/>
					<stop  offset="1" style="stop-color:#263032"/>
				</radialGradient>
				<path class="st20" d="M28,43.5c0.1,0.4,0.2,0.7,0.3,1c-0.5-0.8-0.9-1.6-1-2.6c-0.7-4.5,3.5-8.9,9.4-9.8c5.4-0.9,7.7,0.5,9.9,3.6
					c-2.9-1.8-4.5-2.8-9.2-2C31.5,34.6,27.3,39,28,43.5z M55.4,36.3c-4.1-2.5-8.7-2.4-10.3,0.3c-0.4,0.6-0.6,1.3-0.6,2.1
					c0.1-0.4,0.2-0.9,0.4-1.3c1.5-2.5,5.9-2.6,9.7-0.2c3.8,2.4,5.7,6.3,4.2,8.8c-0.5,0.8-1.4,1.4-2.4,1.7c1.5-0.2,2.7-0.9,3.4-2
					C61.4,43,59.4,38.8,55.4,36.3z M62.6,45.2c-1-0.1-1.9-0.2-2.8-0.1c0.3,0,0.6,0.1,0.9,0.1c5.2,0.8,9,4.1,8.5,7.4
					c0,0.3-0.1,0.5-0.2,0.8c0.5-0.6,0.8-1.2,0.9-1.9C70.3,48.7,67.1,45.8,62.6,45.2z M19.4,63.8c0.6,0,1.2-0.1,1.7-0.2
					c-0.9,0.4-2,0.6-3.1,0.6c-4.3,0-7.8-3.3-7.8-7.3c0-4.1,3.5-7.3,7.8-7.3c0.4,0,0.9,0,1.3,0.1c-4.1,0-7.4,3.2-7.4,7.1
					C12,60.6,15.3,63.8,19.4,63.8z M28.6,66c-2.4-0.4-4.1-3.2-4-5.6c-0.1,0.3-0.2,0.6-0.3,1c-0.5,2.7,1.3,5.2,4,5.7
					c2.7,0.5,5.2-1.3,5.7-3.9c0-0.3,0.1-0.5,0.1-0.8C33.1,64.5,30.9,66.5,28.6,66z M53.2,59.1c-0.1-0.6-0.3-1.2-0.5-1.7
					c0,0.1,0.1,0.2,0.1,0.3c0.7,4.5-3,8.8-8.3,9.6c-5.3,0.8-10.1-2.1-10.8-6.6c0-0.1,0-0.3,0-0.4c-0.1,0.6-0.1,1.2,0,1.8
					c0.7,4.5,5.6,7.4,11,6.6C50.2,67.9,53.9,63.6,53.2,59.1z M57.7,64.5c-1.5-0.3-2.8-1.1-3.6-2.2c0.7,1.4,2.1,2.5,3.8,2.8
					c2.3,0.4,4.6-0.8,5.6-2.8C62.1,64,60,64.9,57.7,64.5z M24.5,43.5c0.6,0,1.1,0.1,1.7,0.3c-0.8-0.6-1.8-0.9-2.9-0.9
					c-2.7,0-4.9,2.1-4.9,4.8c0,0.3,0,0.5,0.1,0.7C19.1,45.6,21.5,43.5,24.5,43.5z M70,53.9c3.8,1.4,6.2,3.7,5.8,6
					c-0.5,3.1-5.7,4.9-11.7,4.1c0,0,0,0,0,0c0.9,0.3,1.9,0.5,2.9,0.7c5.1,0.7,9.7-1.2,10.1-4.3C77.6,57.6,74.4,54.8,70,53.9z
					 M34.7,60.4c-0.3-1.9,0.3-3.7,1.4-5.3c-2.1,1.7-3.2,4.2-2.8,6.7C34,66,38.6,68.7,43.6,68c1.7-0.3,3.2-0.9,4.4-1.7
					c-0.7,0.2-1.4,0.4-2.2,0.6C40.4,67.6,35.4,64.8,34.7,60.4z"/>
			</g>
		</g>
	</g>
	<g>
		<g>
			
				<radialGradient id="SVGID_20_" cx="-69792.7109" cy="130526.4141" r="97.2254" gradientTransform="matrix(6.200000e-03 -4.300000e-02 3.380000e-02 4.900000e-03 -3888.7063 -3542.3074)" gradientUnits="userSpaceOnUse">
				<stop  offset="0" style="stop-color:#FFFFFF"/>
				<stop  offset="1" style="stop-color:#008ABE"/>
			</radialGradient>
			<path class="st21" d="M92.3,98c-0.1-1.1-0.6-2.1-1.5-3c-0.9,0.8-1.4,1.8-1.5,3c-0.1,1.1,0.4,1.7,1.5,1.7
				C92,99.6,92.5,99.1,92.3,98z"/>
			<g>
				<path class="st22" d="M90.8,95c-0.9,0.8-1.4,1.8-1.5,3c-0.1,0.6,0,1,0.3,1.3c0.3,0.3,0.7,0.4,1.3,0.4c0.6,0,1-0.1,1.3-0.4
					c0.2-0.3,0.3-0.7,0.3-1.2C92.2,96.9,91.7,95.9,90.8,95L90.8,95C90.8,95,90.8,95,90.8,95C90.8,95,90.8,95,90.8,95L90.8,95
					c0.8,0.9,1.3,1.9,1.5,3c0.1,0.5,0,0.9-0.2,1.2c-0.2,0.3-0.7,0.4-1.2,0.4c-0.6,0-1-0.1-1.2-0.4c-0.2-0.3-0.3-0.7-0.3-1.3
					C89.4,96.8,89.9,95.8,90.8,95L90.8,95C90.8,95,90.8,95,90.8,95C90.8,95,90.8,95,90.8,95L90.8,95z"/>
			</g>
		</g>
		<g>
			
				<radialGradient id="SVGID_21_" cx="-69792.7266" cy="130526.4297" r="97.2446" gradientTransform="matrix(6.200000e-03 -4.300000e-02 3.380000e-02 4.900000e-03 -3888.7063 -3542.3074)" gradientUnits="userSpaceOnUse">
				<stop  offset="0" style="stop-color:#FFFFFF"/>
				<stop  offset="1" style="stop-color:#59B3E3"/>
			</radialGradient>
			<path class="st23" d="M89.6,97.4c-0.2,0.8-0.1,1.4,0.4,1.8c0.5,0.4,1.1,0.4,1.7,0c-0.6-0.3-1-0.9-1.2-1.6
				c-0.2-0.8-0.2-1.6,0.3-2.5C90.2,95.8,89.8,96.6,89.6,97.4z"/>
		</g>
	</g>
	<g>
		<g>
			
				<radialGradient id="SVGID_22_" cx="-69903.0469" cy="129558.8906" r="97.2198" gradientTransform="matrix(6.200000e-03 -4.300000e-02 3.380000e-02 4.900000e-03 -3888.7063 -3542.3074)" gradientUnits="userSpaceOnUse">
				<stop  offset="0" style="stop-color:#FFFFFF"/>
				<stop  offset="1" style="stop-color:#008ABE"/>
			</radialGradient>
			<path class="st24" d="M58.9,98c-0.1-1.1-0.6-2.1-1.5-3c-0.9,0.8-1.4,1.8-1.5,2.9c-0.1,1.1,0.4,1.7,1.5,1.7
				C58.6,99.6,59.1,99.1,58.9,98z"/>
			<g>
				<path class="st22" d="M57.4,95c-0.9,0.8-1.4,1.8-1.5,3c-0.1,0.6,0,1,0.3,1.3c0.3,0.3,0.7,0.4,1.3,0.4c0.6,0,1-0.1,1.3-0.4
					c0.2-0.3,0.3-0.7,0.3-1.2C58.8,96.9,58.3,95.9,57.4,95L57.4,95C57.4,94.9,57.4,94.9,57.4,95C57.4,95,57.4,95,57.4,95L57.4,95
					c0.8,0.9,1.3,1.9,1.5,3c0.1,0.5,0,0.9-0.2,1.2c-0.2,0.3-0.7,0.4-1.2,0.4c-0.6,0-1-0.1-1.2-0.4c-0.2-0.3-0.3-0.7-0.3-1.3
					C56,96.8,56.6,95.8,57.4,95L57.4,95C57.5,95,57.5,95,57.4,95C57.4,94.9,57.4,94.9,57.4,95L57.4,95z"/>
			</g>
		</g>
		<g>
			
				<radialGradient id="SVGID_23_" cx="-69903.0312" cy="129558.8906" r="97.2689" gradientTransform="matrix(6.200000e-03 -4.300000e-02 3.380000e-02 4.900000e-03 -3888.7063 -3542.3074)" gradientUnits="userSpaceOnUse">
				<stop  offset="0" style="stop-color:#FFFFFF"/>
				<stop  offset="1" style="stop-color:#59B3E3"/>
			</radialGradient>
			<path class="st25" d="M56.2,97.4c-0.2,0.8-0.1,1.4,0.4,1.8c0.5,0.4,1.1,0.4,1.7,0c-0.6-0.3-1-0.9-1.2-1.6
				c-0.2-0.8-0.2-1.6,0.3-2.5C56.8,95.8,56.4,96.6,56.2,97.4z"/>
		</g>
	</g>
	<g>
		<g>
			
				<radialGradient id="SVGID_24_" cx="-69495.8438" cy="130950.5078" r="97.2371" gradientTransform="matrix(6.200000e-03 -4.300000e-02 3.380000e-02 4.900000e-03 -3888.7063 -3542.3074)" gradientUnits="userSpaceOnUse">
				<stop  offset="0" style="stop-color:#FFFFFF"/>
				<stop  offset="1" style="stop-color:#008ABE"/>
			</radialGradient>
			<path class="st26" d="M108.5,87.3c-0.1-1.1-0.6-2.1-1.5-3c-0.9,0.8-1.4,1.8-1.5,3c-0.1,1.1,0.4,1.7,1.5,1.7
				C108.2,88.9,108.6,88.4,108.5,87.3z"/>
			<g>
				<path class="st22" d="M107,84.3c-0.9,0.8-1.4,1.8-1.5,3c-0.1,0.6,0,1,0.3,1.3c0.3,0.3,0.7,0.4,1.3,0.4c0.6,0,1-0.1,1.3-0.4
					c0.2-0.3,0.3-0.7,0.3-1.2C108.4,86.2,107.9,85.2,107,84.3L107,84.3C107,84.3,107,84.3,107,84.3C107,84.3,107,84.3,107,84.3
					L107,84.3c0.8,0.9,1.3,1.9,1.5,3c0.1,0.5,0,0.9-0.2,1.2c-0.2,0.3-0.7,0.4-1.2,0.4c-0.6,0-1-0.1-1.2-0.4
					c-0.2-0.3-0.3-0.7-0.3-1.3C105.6,86.1,106.1,85.1,107,84.3L107,84.3C107,84.3,107,84.3,107,84.3C107,84.3,107,84.3,107,84.3
					L107,84.3z"/>
			</g>
		</g>
		<g>
			
				<radialGradient id="SVGID_25_" cx="-69495.8281" cy="130950.5156" r="97.2518" gradientTransform="matrix(6.200000e-03 -4.300000e-02 3.380000e-02 4.900000e-03 -3888.7063 -3542.3074)" gradientUnits="userSpaceOnUse">
				<stop  offset="0" style="stop-color:#FFFFFF"/>
				<stop  offset="1" style="stop-color:#59B3E3"/>
			</radialGradient>
			<path class="st27" d="M105.8,86.7c-0.2,0.8-0.1,1.4,0.4,1.8c0.5,0.4,1.1,0.4,1.7,0c-0.6-0.3-1-0.9-1.2-1.6
				c-0.2-0.8-0.2-1.6,0.3-2.5C106.4,85.2,106,85.9,105.8,86.7z"/>
		</g>
	</g>
	<g>
		<g>
			<g>
				
					<radialGradient id="SVGID_26_" cx="-69719.125" cy="128512.6953" r="97.2549" gradientTransform="matrix(6.200000e-03 -4.300000e-02 3.380000e-02 4.900000e-03 -3888.7063 -3542.3074)" gradientUnits="userSpaceOnUse">
					<stop  offset="0" style="stop-color:#FFFFFF"/>
					<stop  offset="1" style="stop-color:#008ABE"/>
				</radialGradient>
				<path class="st28" d="M24.7,84.9c-0.1-1.1-0.6-2.1-1.5-3c-0.9,0.8-1.4,1.8-1.5,3c-0.1,1.1,0.4,1.7,1.5,1.7
					C24.4,86.6,24.9,86,24.7,84.9z"/>
				<g>
					<path class="st22" d="M23.2,81.9c-0.9,0.8-1.4,1.8-1.5,3c-0.1,0.6,0,1,0.3,1.3c0.3,0.3,0.7,0.4,1.3,0.4c0.6,0,1-0.1,1.3-0.4
						c0.2-0.3,0.3-0.7,0.3-1.2C24.6,83.8,24.1,82.8,23.2,81.9L23.2,81.9C23.2,81.9,23.2,81.9,23.2,81.9
						C23.2,81.9,23.2,81.9,23.2,81.9L23.2,81.9c0.8,0.9,1.3,1.9,1.5,3c0.1,0.5,0,0.9-0.2,1.2c-0.2,0.3-0.7,0.4-1.2,0.4
						c-0.6,0-1-0.1-1.2-0.4c-0.2-0.3-0.3-0.7-0.3-1.3C21.8,83.8,22.3,82.8,23.2,81.9L23.2,81.9C23.2,81.9,23.2,81.9,23.2,81.9
						C23.2,81.9,23.2,81.9,23.2,81.9L23.2,81.9z"/>
				</g>
			</g>
			<g>
				
					<radialGradient id="SVGID_27_" cx="-69719.1016" cy="128512.6953" r="97.2588" gradientTransform="matrix(6.200000e-03 -4.300000e-02 3.380000e-02 4.900000e-03 -3888.7063 -3542.3074)" gradientUnits="userSpaceOnUse">
					<stop  offset="0" style="stop-color:#FFFFFF"/>
					<stop  offset="1" style="stop-color:#59B3E3"/>
				</radialGradient>
				<path class="st29" d="M22,84.4c-0.3,0.8-0.1,1.4,0.4,1.8c0.5,0.4,1.1,0.4,1.7,0c-0.6-0.3-1-0.9-1.2-1.6
					c-0.2-0.8-0.2-1.6,0.3-2.5C22.6,82.8,22.2,83.5,22,84.4z"/>
			</g>
		</g>
		<g>
			<g>
				
					<radialGradient id="SVGID_28_" cx="-69376.2656" cy="129782.9766" r="97.2254" gradientTransform="matrix(6.200000e-03 -4.300000e-02 3.380000e-02 4.900000e-03 -3888.7063 -3542.3074)" gradientUnits="userSpaceOnUse">
					<stop  offset="0" style="stop-color:#FFFFFF"/>
					<stop  offset="1" style="stop-color:#008ABE"/>
				</radialGradient>
				<path class="st30" d="M69.8,76.4c-0.1-1.1-0.6-2.1-1.5-3c-0.9,0.8-1.4,1.8-1.5,3c-0.1,1.1,0.4,1.7,1.5,1.7
					C69.4,78.1,69.9,77.5,69.8,76.4z"/>
				<g>
					<path class="st22" d="M68.3,73.4c-0.9,0.8-1.4,1.8-1.5,3c-0.1,0.6,0,1,0.3,1.3c0.3,0.3,0.7,0.4,1.3,0.4c0.6,0,1-0.1,1.3-0.4
						c0.2-0.3,0.3-0.7,0.3-1.2C69.7,75.3,69.1,74.3,68.3,73.4L68.3,73.4C68.3,73.4,68.3,73.4,68.3,73.4
						C68.3,73.4,68.3,73.4,68.3,73.4L68.3,73.4c0.8,0.9,1.3,1.9,1.5,3c0.1,0.5,0,0.9-0.2,1.2c-0.2,0.3-0.7,0.4-1.2,0.4
						c-0.6,0-1-0.1-1.2-0.4c-0.2-0.3-0.3-0.7-0.3-1.3C66.9,75.2,67.4,74.3,68.3,73.4L68.3,73.4C68.3,73.4,68.3,73.4,68.3,73.4
						C68.3,73.4,68.3,73.4,68.3,73.4L68.3,73.4z"/>
				</g>
			</g>
			<g>
				
					<radialGradient id="SVGID_29_" cx="-69376.2812" cy="129782.9922" r="97.2446" gradientTransform="matrix(6.200000e-03 -4.300000e-02 3.380000e-02 4.900000e-03 -3888.7063 -3542.3074)" gradientUnits="userSpaceOnUse">
					<stop  offset="0" style="stop-color:#FFFFFF"/>
					<stop  offset="1" style="stop-color:#59B3E3"/>
				</radialGradient>
				<path class="st31" d="M67,75.8c-0.2,0.8-0.1,1.4,0.4,1.8c0.5,0.4,1.1,0.4,1.7,0c-0.6-0.3-1-0.9-1.2-1.6
					c-0.2-0.8-0.2-1.6,0.3-2.5C67.7,74.3,67.3,75,67,75.8z"/>
			</g>
		</g>
		<g>
			<g>
				
					<radialGradient id="SVGID_30_" cx="-69526.0078" cy="130207.375" r="97.2363" gradientTransform="matrix(6.200000e-03 -4.300000e-02 3.380000e-02 4.900000e-03 -3888.7063 -3542.3074)" gradientUnits="userSpaceOnUse">
					<stop  offset="0" style="stop-color:#FFFFFF"/>
					<stop  offset="1" style="stop-color:#008ABE"/>
				</radialGradient>
				<path class="st32" d="M83.2,84.9c-0.1-1.1-0.6-2.1-1.5-3c-0.9,0.8-1.4,1.8-1.5,3c-0.1,1.1,0.4,1.7,1.5,1.7
					C82.8,86.6,83.3,86,83.2,84.9z"/>
				<g>
					<path class="st22" d="M81.7,81.9c-0.9,0.8-1.4,1.8-1.5,3c-0.1,0.6,0,1,0.3,1.3c0.3,0.3,0.7,0.4,1.3,0.4c0.6,0,1-0.1,1.3-0.4
						c0.2-0.3,0.3-0.7,0.3-1.2C83.1,83.8,82.6,82.8,81.7,81.9L81.7,81.9C81.7,81.9,81.7,81.9,81.7,81.9
						C81.7,81.9,81.7,81.9,81.7,81.9L81.7,81.9c0.8,0.9,1.3,1.9,1.5,3c0.1,0.5,0,0.9-0.2,1.2c-0.2,0.3-0.7,0.4-1.2,0.4
						c-0.6,0-1-0.1-1.2-0.4c-0.3-0.3-0.3-0.7-0.3-1.3C80.3,83.8,80.8,82.8,81.7,81.9L81.7,81.9C81.7,81.9,81.7,81.9,81.7,81.9
						C81.7,81.9,81.7,81.9,81.7,81.9L81.7,81.9z"/>
				</g>
			</g>
			<g>
				
					<radialGradient id="SVGID_31_" cx="-69525.9922" cy="130207.375" r="97.2671" gradientTransform="matrix(6.200000e-03 -4.300000e-02 3.380000e-02 4.900000e-03 -3888.7063 -3542.3074)" gradientUnits="userSpaceOnUse">
					<stop  offset="0" style="stop-color:#FFFFFF"/>
					<stop  offset="1" style="stop-color:#59B3E3"/>
				</radialGradient>
				<path class="st33" d="M80.4,84.4c-0.2,0.8-0.1,1.4,0.4,1.8c0.5,0.4,1.1,0.4,1.7,0c-0.6-0.3-1-0.9-1.2-1.6
					c-0.2-0.8-0.2-1.6,0.3-2.5C81.1,82.8,80.7,83.5,80.4,84.4z"/>
			</g>
		</g>
		<g>
			<g>
				
					<radialGradient id="SVGID_32_" cx="-69796.2812" cy="129171.2422" r="97.2198" gradientTransform="matrix(6.200000e-03 -4.300000e-02 3.380000e-02 4.900000e-03 -3888.7063 -3542.3074)" gradientUnits="userSpaceOnUse">
					<stop  offset="0" style="stop-color:#FFFFFF"/>
					<stop  offset="1" style="stop-color:#008ABE"/>
				</radialGradient>
				<path class="st34" d="M46.5,91.5c-0.1-1.1-0.6-2.1-1.5-3c-0.9,0.8-1.4,1.8-1.5,2.9c-0.1,1.1,0.4,1.7,1.5,1.7
					C46.1,93.1,46.6,92.6,46.5,91.5z"/>
				<g>
					<path class="st22" d="M45,88.5c-0.9,0.8-1.4,1.8-1.5,3c-0.1,0.6,0,1,0.3,1.3c0.3,0.3,0.7,0.4,1.3,0.4c0.6,0,1-0.1,1.3-0.4
						c0.2-0.3,0.3-0.7,0.3-1.2C46.4,90.4,45.9,89.4,45,88.5L45,88.5C45,88.5,45,88.5,45,88.5C45,88.5,45,88.5,45,88.5L45,88.5
						c0.8,0.9,1.3,1.9,1.5,3c0.1,0.5,0,0.9-0.2,1.2C46,93,45.6,93.1,45,93.1c-0.6,0-1-0.1-1.2-0.4c-0.2-0.3-0.3-0.7-0.3-1.3
						C43.6,90.3,44.1,89.3,45,88.5L45,88.5C45,88.5,45,88.5,45,88.5C45,88.5,45,88.5,45,88.5L45,88.5z"/>
				</g>
			</g>
			<g>
				
					<radialGradient id="SVGID_33_" cx="-69796.2734" cy="129171.2422" r="97.2689" gradientTransform="matrix(6.200000e-03 -4.300000e-02 3.380000e-02 4.900000e-03 -3888.7063 -3542.3074)" gradientUnits="userSpaceOnUse">
					<stop  offset="0" style="stop-color:#FFFFFF"/>
					<stop  offset="1" style="stop-color:#59B3E3"/>
				</radialGradient>
				<path class="st35" d="M43.7,90.9c-0.2,0.8-0.1,1.4,0.4,1.8c0.5,0.4,1.1,0.4,1.7,0c-0.6-0.3-1-0.9-1.2-1.6
					c-0.2-0.8-0.2-1.6,0.3-2.5C44.4,89.3,44,90.1,43.7,90.9z"/>
			</g>
		</g>
		<g>
			<g>
				
					<radialGradient id="SVGID_34_" cx="-69247.8594" cy="130587.7969" r="97.2371" gradientTransform="matrix(6.200000e-03 -4.300000e-02 3.380000e-02 4.900000e-03 -3888.7063 -3542.3074)" gradientUnits="userSpaceOnUse">
					<stop  offset="0" style="stop-color:#FFFFFF"/>
					<stop  offset="1" style="stop-color:#008ABE"/>
				</radialGradient>
				<path class="st36" d="M97.8,74.8c-0.1-1.1-0.6-2.1-1.5-3c-0.9,0.8-1.4,1.8-1.5,3c-0.1,1.1,0.4,1.7,1.5,1.7
					C97.4,76.5,97.9,75.9,97.8,74.8z"/>
				<g>
					<path class="st22" d="M96.3,71.8c-0.9,0.8-1.4,1.8-1.5,3c-0.1,0.6,0,1,0.3,1.3c0.3,0.3,0.7,0.4,1.3,0.4c0.6,0,1-0.1,1.3-0.4
						c0.2-0.3,0.3-0.7,0.3-1.2C97.7,73.7,97.1,72.7,96.3,71.8L96.3,71.8C96.3,71.8,96.3,71.8,96.3,71.8
						C96.3,71.8,96.3,71.9,96.3,71.8L96.3,71.8c0.8,0.9,1.3,1.9,1.5,3c0.1,0.5,0,0.9-0.2,1.2c-0.2,0.3-0.7,0.4-1.2,0.4
						c-0.6,0-1-0.1-1.2-0.4c-0.2-0.3-0.3-0.7-0.3-1.3C94.9,73.7,95.4,72.7,96.3,71.8L96.3,71.8C96.3,71.9,96.3,71.8,96.3,71.8
						C96.3,71.8,96.3,71.8,96.3,71.8L96.3,71.8z"/>
				</g>
			</g>
			<g>
				
					<radialGradient id="SVGID_35_" cx="-69247.8438" cy="130587.8047" r="97.2518" gradientTransform="matrix(6.200000e-03 -4.300000e-02 3.380000e-02 4.900000e-03 -3888.7063 -3542.3074)" gradientUnits="userSpaceOnUse">
					<stop  offset="0" style="stop-color:#FFFFFF"/>
					<stop  offset="1" style="stop-color:#59B3E3"/>
				</radialGradient>
				<path class="st37" d="M95,74.3c-0.2,0.8-0.1,1.4,0.4,1.8c0.5,0.4,1.1,0.4,1.7,0c-0.6-0.3-1-0.9-1.2-1.6
					c-0.2-0.8-0.2-1.6,0.3-2.5C95.7,72.7,95.3,73.4,95,74.3z"/>
			</g>
		</g>
		<g>
			<g>
				
					<radialGradient id="SVGID_36_" cx="-69843.7188" cy="128755" r="97.2361" gradientTransform="matrix(6.200000e-03 -4.300000e-02 3.380000e-02 4.900000e-03 -3888.7063 -3542.3074)" gradientUnits="userSpaceOnUse">
					<stop  offset="0" style="stop-color:#FFFFFF"/>
					<stop  offset="1" style="stop-color:#008ABE"/>
				</radialGradient>
				<path class="st38" d="M32.1,91.5c-0.1-1.1-0.6-2.1-1.5-3c-0.9,0.8-1.4,1.8-1.5,2.9c-0.1,1.1,0.4,1.7,1.5,1.7
					C31.8,93.1,32.3,92.6,32.1,91.5z"/>
				<g>
					<path class="st22" d="M30.6,88.5c-0.9,0.8-1.4,1.8-1.5,3c-0.1,0.6,0,1,0.3,1.3c0.3,0.3,0.7,0.4,1.3,0.4c0.6,0,1-0.1,1.3-0.4
						c0.2-0.3,0.3-0.7,0.3-1.2C32,90.4,31.5,89.4,30.6,88.5L30.6,88.5C30.6,88.5,30.6,88.5,30.6,88.5C30.6,88.5,30.6,88.5,30.6,88.5
						L30.6,88.5c0.8,0.9,1.3,1.9,1.5,3c0.1,0.5,0,0.9-0.2,1.2c-0.2,0.3-0.7,0.4-1.2,0.4c-0.6,0-1-0.1-1.2-0.4
						c-0.2-0.3-0.3-0.7-0.3-1.3C29.2,90.3,29.8,89.3,30.6,88.5L30.6,88.5C30.7,88.5,30.7,88.5,30.6,88.5
						C30.6,88.5,30.6,88.5,30.6,88.5L30.6,88.5z"/>
				</g>
			</g>
			<g>
				
					<radialGradient id="SVGID_37_" cx="-69843.7031" cy="128755.0234" r="97.2774" gradientTransform="matrix(6.200000e-03 -4.300000e-02 3.380000e-02 4.900000e-03 -3888.7063 -3542.3074)" gradientUnits="userSpaceOnUse">
					<stop  offset="0" style="stop-color:#FFFFFF"/>
					<stop  offset="1" style="stop-color:#59B3E3"/>
				</radialGradient>
				<path class="st39" d="M29.4,90.9c-0.2,0.8-0.1,1.4,0.4,1.8c0.5,0.4,1.1,0.4,1.7,0c-0.6-0.3-1-0.9-1.2-1.6
					c-0.2-0.8-0.2-1.6,0.3-2.5C30,89.3,29.6,90.1,29.4,90.9z"/>
			</g>
		</g>
	</g>
</g>
</svg>
