<?xml version="1.0" encoding="utf-8"?>
<!-- Generator: Adobe Illustrator 19.1.0, SVG Export Plug-In . SVG Version: 6.00 Build 0)  -->
<svg version="1.1"
	 id="svg2" xmlns:dc="http://purl.org/dc/elements/1.1/" xmlns:cc="http://web.resource.org/cc/" xmlns:rdf="http://www.w3.org/1999/02/22-rdf-syntax-ns#" xmlns:svg="http://www.w3.org/2000/svg" xmlns:sodipodi="http://inkscape.sourceforge.net/DTD/sodipodi-0.dtd" xmlns:inkscape="http://www.inkscape.org/namespaces/inkscape" inkscape:export-ydpi="90.000000" inkscape:export-xdpi="90.000000" sodipodi:version="0.32" inkscape:export-filename="/datas/wiki/red_cross.png" sodipodi:docname="red_cross.svg" sodipodi:docbase="G:\Projs\Cliparts Stocker\released" inkscape:version="0.42"
	 xmlns="http://www.w3.org/2000/svg" xmlns:xlink="http://www.w3.org/1999/xlink" x="0px" y="0px" viewBox="-273 365 64 64"
	 style="enable-background:new -273 365 64 64;" xml:space="preserve">
<style type="text/css">
	.st0{fill:url(#path1373_1_);}
	.st1{fill:url(#path1339_1_);}
	.st2{fill:url(#path2840_1_);}
	.st3{fill:url(#path1362_1_);}
</style>
<sodipodi:namedview  showguides="false" showgrid="false" inkscape:cy="32.000000" inkscape:cx="32.000000" inkscape:zoom="8.2031250" borderopacity="1.0" bordercolor="#666666" pagecolor="#ffffff" id="base" inkscape:window-y="25" inkscape:window-x="0" inkscape:window-height="693" inkscape:window-width="1156" inkscape:grid-points="true" inkscape:grid-bbox="true" inkscape:current-layer="layer1" inkscape:pageshadow="2" inkscape:pageopacity="0.0" inkscape:document-units="px">
	</sodipodi:namedview>
<g id="layer1" inkscape:label="Calque 1" inkscape:groupmode="layer">
	
		<linearGradient id="path1373_1_" gradientUnits="userSpaceOnUse" x1="-263.3546" y1="422.007" x2="-209.8853" y2="366.9774" gradientTransform="matrix(1 0 0 -1 0 796)">
		<stop  offset="0" style="stop-color:#6B140D"/>
		<stop  offset="1" style="stop-color:#220505"/>
	</linearGradient>
	<path id="path1373" class="st0" d="M-241,373.6c-12.9,0-23.4,10.5-23.4,23.4s10.5,23.4,23.4,23.4s23.4-10.5,23.4-23.4
		S-228.1,373.6-241,373.6z"/>
	
		<radialGradient id="path1339_1_" cx="-190.6138" cy="1026.7137" r="27.5" gradientTransform="matrix(9.909149e-17 1.0887 1.1024 -1.658760e-05 -1379.8387 591.7155)" gradientUnits="userSpaceOnUse">
		<stop  offset="0" style="stop-color:#E25C4A"/>
		<stop  offset="1" style="stop-color:#7A1212"/>
	</radialGradient>
	<path id="path1339" class="st1" d="M-218.5,397c0,12.4-10.1,22.5-22.5,22.5s-22.5-10.1-22.5-22.5s10.1-22.5,22.5-22.5
		S-218.5,384.6-218.5,397z"/>
	
		<linearGradient id="path2840_1_" gradientUnits="userSpaceOnUse" x1="-245.2253" y1="417.4226" x2="-235.0879" y2="377.8999" gradientTransform="matrix(1 0 0 -1 0 796)">
		<stop  offset="0" style="stop-color:#D3CECE"/>
		<stop  offset="1" style="stop-color:#474240"/>
	</linearGradient>
	<path id="path2840" sodipodi:nodetypes="cccscccscccccccscccscccccc" class="st2" d="M-246.1,379.2c-0.1,0-0.2,0-0.3,0.1l-10,5
		c-0.2,0.1-0.4,0.3-0.4,0.5c0,0.2,0,0.5,0.2,0.6L-243,397l-13.5,11.5c-0.2,0.2-0.2,0.4-0.2,0.6c0,0.2,0.2,0.4,0.4,0.5l10,5
		c0.4,0.2,0.8,0,1-0.3l4.8-13.3l4.9,13.3c0.2,0.4,0.6,0.5,1,0.3l10-5c0.2-0.1,0.4-0.3,0.4-0.5c0-0.2,0-0.5-0.2-0.6L-238,397
		l13.5-11.5c0.2-0.2,0.2-0.4,0.2-0.6c0-0.2-0.2-0.4-0.4-0.5l-10-5c-0.4-0.2-0.8,0-1,0.3l-4.9,13.3l-4.8-13.3
		C-245.5,379.4-245.8,379.2-246.1,379.2z"/>
	
		<linearGradient id="path1362_1_" gradientUnits="userSpaceOnUse" x1="-245.5949" y1="413.4634" x2="-232.1713" y2="375.3565" gradientTransform="matrix(1 0 0 -1 0 796)">
		<stop  offset="0" style="stop-color:#FFFFFF"/>
		<stop  offset="1" style="stop-color:#A3A5EE;stop-opacity:0"/>
	</linearGradient>
	
		<path id="path1362" sodipodi:type="inkscape:offset" inkscape:radius="-0.73152483" inkscape:original="M 27.000000 15.000000 L 17.000000 20.000000 L 31.000000 32.000000 L 17.000000 44.000000 L 27.000000 49.000000 L 32.468750 34.000000 L 38.000000 49.000000 L 48.000000 44.000000 L 34.000000 32.000000 L 48.000000 20.000000 L 38.000000 15.000000 L 32.468750 30.000000 L 27.000000 15.000000 z " class="st3" d="
		M-234.6,381l-5.2,14.2c-0.1,0.3-0.4,0.5-0.7,0.5s-0.6-0.2-0.7-0.5l-5.2-14.2l-8.3,4.1l13.2,11.3c0.2,0.1,0.3,0.3,0.3,0.6
		s-0.1,0.4-0.3,0.6l-13.2,11.3l8.3,4.1l5.2-14.2c0.1-0.3,0.4-0.5,0.7-0.5s0.6,0.2,0.7,0.5l5.2,14.2l8.3-4.2l-13.2-11.3
		c-0.2-0.1-0.3-0.3-0.3-0.6s0.1-0.4,0.3-0.6l13.2-11.3L-234.6,381z"/>
</g>
</svg>
