<?xml version="1.0" encoding="utf-8"?>
<!-- Generator: Adobe Illustrator 19.1.0, SVG Export Plug-In . SVG Version: 6.00 Build 0)  -->
<svg version="1.1" id="Layer_1" xmlns="http://www.w3.org/2000/svg" xmlns:xlink="http://www.w3.org/1999/xlink" x="0px" y="0px"
	 viewBox="-241 341.1 127.7 111.9" style="enable-background:new -241 341.1 127.7 111.9;" xml:space="preserve">
<style type="text/css">
	.st0{fill:#FBB040;}
	.st1{fill:url(#SVGID_1_);}
	.st2{fill:url(#SVGID_2_);}
	.st3{fill:#C5E0F1;}
	.st4{fill:url(#SVGID_3_);}
	.st5{fill:url(#SVGID_4_);}
	.st6{fill:url(#SVGID_5_);}
	.st7{fill:url(#SVGID_6_);}
	.st8{fill:url(#SVGID_7_);}
	.st9{fill:url(#SVGID_8_);}
	.st10{fill:url(#SVGID_9_);}
	.st11{fill:url(#SVGID_10_);}
	.st12{fill:url(#SVGID_11_);}
	.st13{fill:url(#SVGID_12_);}
	.st14{fill:url(#SVGID_13_);}
</style>
<g id="Layer_1_1_">
</g>
<g id="Layer_2">
	<g>
		<g>
			<g>
				<path class="st0" d="M-147.2,384.6c0,0.4-22,0.4-22,0.8c0,0.4,21.9,2.1,21.9,2.5c0,0.4-22-1.3-22-0.9s21.7,3.8,21.7,4.2
					c-0.1,0.4-21.8-3.1-21.9-2.7c-0.1,0.4,21.3,5.5,21.3,5.9c-0.1,0.4-21.5-4.8-21.6-4.4c-0.1,0.4,20.8,7.2,20.7,7.5
					c-0.1,0.4-21.1-6.4-21.2-6.1c-0.1,0.4,20.2,8.8,20.1,9.2c-0.2,0.4-20.5-8.1-20.7-7.7c-0.2,0.4,19.5,10.4,19.3,10.7
					c-0.2,0.4-19.8-9.7-20-9.3c-0.4,0.3,18.4,11.8,18.2,12.2c-0.2,0.3-19-11.2-19.2-10.9c-0.2,0.3,17.6,13.3,17.4,13.6
					s-18-12.7-18.3-12.3c-0.3,0.3,16.5,14.6,16.2,14.9c-0.3,0.3-17-14-17.3-13.7c-0.3,0.3,15.3,15.9,15,16.1
					c-0.3,0.3-15.8-15.3-16.1-15c-0.3,0.3,14,17,13.7,17.3c-0.3,0.3-14.6-16.5-14.9-16.2c-0.3,0.2,12.7,18,12.3,18.3
					c-0.2,0.1-13.2-17.8-13.5-17.5c-0.3,0.2,11.2,19,10.9,19.2c-0.3,0.2-11.8-18.6-12.2-18.4c-0.3,0.2,9.7,19.8,9.3,20
					c-0.3,0.2-10.3-19.5-10.7-19.3c-0.4,0.2,8.1,20.5,7.7,20.7c-0.4,0.2-8.8-20.2-9.2-20.1c-0.4,0.1,6.5,21.1,6.1,21.2
					c-0.4,0.1-7.2-20.8-7.5-20.7c-0.4,0.1,4.8,21.5,4.4,21.6c-0.4,0.1-5.5-21.3-5.9-21.3c-0.4,0.1,3,21.8,2.6,21.9
					c-0.4,0.1-3.8-21.7-4.2-21.7c-0.4,0,1.3,22,0.9,22c-0.4,0-2.1-21.9-2.5-21.9c-0.4,0-0.4,22-0.8,22c-0.4,0-0.4-22-0.8-22
					s-2.1,21.9-2.5,21.9c-0.4,0,1.3-22,0.9-22c-0.4,0-3.8,21.7-4.2,21.7c-0.2,0,3.2-21.8,2.8-21.9c-0.4-0.1-5.5,21.3-5.9,21.3
					c-0.4-0.1,4.8-21.5,4.4-21.6c-0.4-0.1-7.2,20.9-7.5,20.7c-0.4-0.1,6.4-21.1,6.1-21.2c-0.4-0.1-8.8,20.2-9.2,20.1
					c-0.4-0.2,8.1-20.5,7.7-20.7c-0.4-0.2-10.4,19.5-10.7,19.3c-0.4-0.2,9.7-19.8,9.3-20c-0.3-0.2-11.8,18.6-12.2,18.4
					c-0.3-0.2,11.2-19,10.9-19.2c-0.3-0.2-13.3,17.6-13.6,17.4c-0.3-0.2,12.7-18,12.3-18.3c-0.3-0.3-14.6,16.5-14.9,16.2
					c-0.3-0.3,14-17,13.7-17.3c-0.3-0.3-15.9,15.3-16.1,15c-0.3-0.3,15.3-15.8,15-16.1c-0.3-0.3-17,14-17.3,13.7
					c-0.3-0.3,16.5-14.6,16.2-14.9c-0.3-0.3-18,12.7-18.3,12.3c-0.2-0.3,17.6-13.3,17.4-13.6c-0.2-0.3-19,11.2-19.2,10.9
					c-0.1-0.3,18.7-11.8,18.5-12.1c-0.2-0.4-19.8,9.7-20,9.3c-0.2-0.4,19.4-10.3,19.3-10.7c-0.2-0.4-20.5,8.1-20.7,7.7
					s20.2-8.8,20.1-9.2c-0.1-0.4-21.1,6.5-21.2,6.1c-0.1-0.4,20.8-7.1,20.7-7.5c-0.1-0.4-21.5,4.8-21.6,4.4
					c-0.1-0.4,21.3-5.5,21.3-5.9c-0.1-0.4-21.9,3-21.9,2.6c-0.1-0.4,21.7-3.8,21.7-4.2c0-0.4-22,1.3-22,0.9c0-0.4,21.9-2.1,21.9-2.5
					c0-0.4-22-0.4-22-0.8s22-0.4,22-0.8s-21.9-2.1-21.9-2.5s22,1.3,22,0.9s-21.7-3.8-21.7-4.2c0.1-0.4,21.8,3.1,21.9,2.7
					s-21.3-5.5-21.3-5.9c0.1-0.4,21.5,4.8,21.6,4.4c0.1-0.4-20.8-7.2-20.7-7.5c0.1-0.4,21.1,6.4,21.2,6.1c0.1-0.4-20.2-8.8-20.1-9.2
					c0.2-0.4,20.5,8.1,20.7,7.7c0.2-0.4-19.5-10.4-19.3-10.7c0.2-0.4,19.8,9.7,20,9.3c0.2-0.4-18.6-11.9-18.4-12.2
					c0.2-0.3,19,11.2,19.2,10.9c0.2-0.3-17.6-13.3-17.4-13.6c0.2-0.3,18,12.7,18.3,12.3c0.2-0.3-16.5-14.6-16.2-14.9
					c0.3-0.3,17,14,17.3,13.7c0.3-0.3-15.3-15.9-15-16.1c0.3-0.3,15.8,15.3,16.1,15c0.3-0.3-14-17-13.7-17.3s14.6,16.5,14.9,16.2
					c0.3-0.3-12.7-18-12.3-18.3c0.2,0,13.2,17.8,13.5,17.6c0.3-0.2-11.2-19-10.9-19.2c0.3-0.2,11.8,18.6,12.2,18.4
					c0.4-0.2-9.7-19.8-9.3-20c0.3-0.2,10.3,19.4,10.7,19.3c0.4-0.2-8.1-20.5-7.7-20.7c0.4-0.2,8.8,20.2,9.1,20.1
					c0.4-0.1-6.5-21.1-6.1-21.2c0.4-0.1,7.2,20.8,7.5,20.7c0.4-0.1-4.8-21.5-4.4-21.6c0.5-0.1,5.6,21.3,6,21.2s-3.1-21.8-2.7-21.9
					c0.4-0.1,3.8,21.7,4.2,21.7s-1.3-22-0.9-22c0.4,0,2.1,21.9,2.5,21.9c0.4,0,0.4-22,0.8-22c0.4,0,0.4,22,0.8,22
					c0.4,0,2.1-21.9,2.5-21.9s-1.3,22-0.9,22c0.4,0,3.8-21.7,4.2-21.7c0.4,0.1-3,21.8-2.7,21.9c0.4,0.1,5.5-21.4,5.9-21.3
					c0.4,0.1-4.8,21.5-4.4,21.6c0.4,0.1,7.2-20.8,7.5-20.7c0.4,0.1-6.5,21.1-6.1,21.2c0.4,0.1,8.8-20.2,9.2-20.1
					c0.4,0.2-8.1,20.5-7.7,20.7c0.4,0.2,10.4-19.4,10.7-19.2c0.4,0.2-9.7,19.8-9.3,20c0.4,0.2,11.9-18.6,12.2-18.4
					c0.3,0.2-11.2,19-10.9,19.2c0.3,0.2,13.3-17.6,13.6-17.4c0.3,0.2-12.7,18-12.3,18.3c0.3,0.3,14.6-16.5,14.9-16.2
					c0.3,0.3-14,17-13.7,17.3c0.3,0.3,15.9-15.3,16.1-15c0.3,0.3-15.3,15.8-15,16.1c0.3,0.3,17-14,17.3-13.7s-16.5,14.6-16.2,14.9
					c0.3,0.3,18-12.7,18.3-12.3c0.2,0.3-17.6,13.3-17.4,13.6c0.2,0.3,19-11.2,19.2-10.9c0.2,0.3-18.6,11.8-18.4,12.2
					c0.2,0.4,19.8-9.7,20-9.3c0.2,0.4-19.4,10.3-19.3,10.7c0.2,0.4,20.5-8.1,20.7-7.7s-20.2,8.8-20.1,9.2c0.1,0.4,21.1-6.5,21.2-6.1
					c0.1,0.4-20.8,7.2-20.7,7.5c0.1,0.4,21.5-4.8,21.6-4.4c0.1,0.4-21.3,5.5-21.3,5.9c0.1,0.4,21.8-3.1,21.9-2.7
					c0.1,0.4-21.7,3.8-21.7,4.2c0,0.4,22-1.3,22-0.9s-21.9,2.1-21.9,2.5C-169.3,384.2-147.2,384.2-147.2,384.6z"/>
			</g>
			
				<linearGradient id="SVGID_1_" gradientUnits="userSpaceOnUse" x1="-189.1" y1="383.1" x2="-189.1" y2="440.1" gradientTransform="matrix(1 0 0 -1 0 796.2)">
				<stop  offset="0" style="stop-color:#FBB840"/>
				<stop  offset="0.3655" style="stop-color:#FDD223"/>
				<stop  offset="0.7614" style="stop-color:#FEE909"/>
				<stop  offset="1" style="stop-color:#FFF200"/>
			</linearGradient>
			<path class="st1" d="M-160.6,384.6c0,15.7-12.8,28.5-28.5,28.5s-28.5-12.8-28.5-28.5c0-15.8,12.8-28.5,28.5-28.5
				S-160.6,368.8-160.6,384.6z"/>
			
				<radialGradient id="SVGID_2_" cx="-187.2498" cy="410.886" r="37.081" gradientTransform="matrix(1 0 0 -1 0 796.2)" gradientUnits="userSpaceOnUse">
				<stop  offset="0" style="stop-color:#FFF200"/>
				<stop  offset="0.4436" style="stop-color:#FFF002"/>
				<stop  offset="0.6034" style="stop-color:#FEEA09"/>
				<stop  offset="0.7173" style="stop-color:#FEDF14"/>
				<stop  offset="0.8094" style="stop-color:#FDD025"/>
				<stop  offset="0.8874" style="stop-color:#FBBC3B"/>
				<stop  offset="0.9018" style="stop-color:#FBB840"/>
			</radialGradient>
			<path class="st2" d="M-160.6,384.6c0,15.7-12.8,28.5-28.5,28.5s-28.5-12.8-28.5-28.5c0-15.8,12.8-28.5,28.5-28.5
				S-160.6,368.8-160.6,384.6z"/>
		</g>
		<g>
			<g>
				<path class="st3" d="M-216.3,405c-2.6,0-4.9-1-6.3-2.8c-0.8,0.9-1.9,1.3-3.1,1.3c-0.2,0-0.5,0-0.8-0.1c-1.3-0.2-2.4-1-3-2.1
					c-1.1,0.6-2.2,0.9-3.4,0.9c-3.8,0-6.9-2.9-6.9-6.5c0-3.3,2.5-6,6-6.5c0.1-2.2,2-4,4.3-4c0.4,0,0.7,0,1.1,0.1
					c-0.3-3.6,3.1-7,7.8-7.7c0.6-0.1,1.2-0.1,1.8-0.1c2.2,0,4.2,0.6,5.7,1.8c0.4-0.1,0.9-0.1,1.3-0.1c1.5,0,3.2,0.5,4.8,1.5
					c2.4,1.5,4,3.8,4.1,5.8c0.1,0,0.1,0,0.2,0c1.9,0.3,3.5,1,4.8,2c1.2,1.1,1.8,2.4,1.6,3.7c0,0.2-0.1,0.4-0.2,0.6
					c3.3,0.9,5.4,3.1,5.1,5.4c-0.3,2.2-2.9,3.8-6.2,3.8c-0.5,0-1,0-1.5-0.1c-1.1-0.2-2.2-0.5-3.1-1c-0.8,0.8-1.9,1.2-2.9,1.2
					c-0.2,0-0.5,0-0.8-0.1c-0.9-0.2-1.8-0.6-2.4-1.3c-1.2,2.1-3.5,3.7-6.3,4.1C-215.3,405-215.8,405-216.3,405L-216.3,405z"/>
				
					<radialGradient id="SVGID_3_" cx="-214.8729" cy="426.8092" r="52.1724" gradientTransform="matrix(1 0 0 -1 0 796.2)" gradientUnits="userSpaceOnUse">
					<stop  offset="0" style="stop-color:#F4F5F9"/>
					<stop  offset="0.1526" style="stop-color:#EFF3F8"/>
					<stop  offset="0.3235" style="stop-color:#E2EDF6"/>
					<stop  offset="0.5026" style="stop-color:#CCE3F2"/>
					<stop  offset="0.5463" style="stop-color:#C5E0F1"/>
					<stop  offset="0.6293" style="stop-color:#B5D3E6"/>
					<stop  offset="0.7917" style="stop-color:#8BB2C8"/>
					<stop  offset="1" style="stop-color:#4C809C"/>
				</radialGradient>
				<path class="st4" d="M-197.1,393.1c0.1-0.3,0.2-0.6,0.3-0.9c0.4-2.4-2.4-4.8-6.1-5.4c-0.2,0-0.3,0-0.5-0.1
					c0.1-2-1.4-4.3-3.9-5.9c-2.1-1.3-4.3-1.7-6-1.2c-1.8-1.4-4.5-2.1-7.4-1.7c-4.7,0.7-8,4.2-7.4,7.8v0.1c-0.5-0.2-1-0.3-1.5-0.3
					c-2.2,0-4,1.8-4,3.9l0,0c-3.3,0.3-5.9,3-5.9,6.2c0,3.4,3,6.2,6.6,6.2c1.3,0,2.5-0.4,3.6-1c0.5,1.1,1.6,2,2.9,2.3
					c1.5,0.3,2.9-0.4,3.8-1.5c1.5,2.1,4.6,3.3,7.8,2.8c2.9-0.5,5.2-2.2,6.3-4.4c0.6,0.8,1.5,1.4,2.5,1.6c1.4,0.2,2.7-0.2,3.6-1.2
					c0.9,0.5,2,0.9,3.2,1.1c3.7,0.5,7-1,7.4-3.4C-191.6,396-193.8,393.9-197.1,393.1z"/>
				<path class="st3" d="M-226.5,386.5c0,0.2,0.1,0.5,0.2,0.7c-0.4-0.5-0.6-1.1-0.7-1.8c-0.5-3.1,2.4-6.2,6.5-6.8
					c3.8-0.6,5.3,0.4,6.9,2.5c-2-1.2-3.1-1.9-6.4-1.4C-224.1,380.3-227,383.3-226.5,386.5z M-207.6,381.5c-2.8-1.7-6-1.7-7.1,0.2
					c-0.3,0.4-0.4,0.9-0.4,1.4c0.1-0.3,0.1-0.6,0.3-0.9c1.1-1.7,4.1-1.8,6.7-0.2c2.7,1.6,4,4.4,2.9,6.1c-0.4,0.6-0.9,1-1.7,1.2
					c1-0.1,1.9-0.6,2.3-1.4C-203.4,386.1-204.7,383.2-207.6,381.5z M-202.5,387.6c-0.7-0.1-1.3-0.1-2-0.1c0.2,0,0.4,0,0.7,0.1
					c3.6,0.5,6.2,2.8,5.9,5.2c0,0.2-0.1,0.4-0.1,0.6c0.3-0.4,0.5-0.8,0.6-1.3C-197.2,390.1-199.5,388.1-202.5,387.6z M-232.4,400.5
					c0.4,0,0.8-0.1,1.2-0.1c-0.7,0.3-1.4,0.4-2.1,0.4c-3,0-5.4-2.3-5.4-5.1s2.4-5.1,5.4-5.1c0.3,0,0.6,0,0.9,0.1
					c-2.8,0-5.1,2.2-5.1,4.9C-237.6,398.3-235.3,400.5-232.4,400.5z M-226.1,402.1c-1.7-0.3-2.8-2.2-2.8-3.9
					c-0.1,0.2-0.2,0.4-0.2,0.7c-0.3,1.8,0.9,3.6,2.8,3.9c1.9,0.3,3.6-0.9,3.9-2.7c0-0.2,0-0.3,0-0.5
					C-223,401-224.5,402.4-226.1,402.1z M-209,397.3c-0.1-0.4-0.2-0.8-0.3-1.2c0,0.1,0,0.2,0.1,0.2c0.5,3.1-2.1,6.1-5.7,6.6
					c-3.6,0.6-7-1.5-7.5-4.6c0-0.1,0-0.2,0-0.3c0,0.4,0,0.8,0,1.2c0.5,3.1,3.9,5.1,7.6,4.5C-211.2,403.3-208.5,400.4-209,397.3z
					 M-205.9,401c-1-0.2-1.9-0.8-2.5-1.6c0.5,1,1.4,1.7,2.6,1.9c1.6,0.3,3.2-0.5,3.9-1.9C-202.9,400.6-204.4,401.3-205.9,401z
					 M-228.9,386.4c0.4,0,0.8,0.1,1.2,0.2c-0.6-0.4-1.3-0.6-2-0.6c-1.9,0-3.4,1.5-3.4,3.3c0,0.2,0,0.3,0.1,0.5
					C-232.7,387.9-231,386.4-228.9,386.4z M-197.5,393.6c2.6,0.9,4.3,2.6,4.1,4.2c-0.3,2.1-4,3.4-8.1,2.8l0,0c0.6,0.2,1.3,0.4,2,0.5
					c3.5,0.5,6.7-0.9,7-3C-192.2,396.2-194.4,394.3-197.5,393.6z M-221.9,398.2c-0.2-1.3,0.2-2.6,1-3.7c-1.4,1.2-2.2,2.9-1.9,4.6
					c0.5,2.9,3.6,4.8,7.1,4.3c1.2-0.2,2.2-0.6,3-1.2c-0.5,0.2-1,0.3-1.5,0.4C-217.9,403.2-221.4,401.2-221.9,398.2z"/>
			</g>
			<g>
				<path class="st3" d="M-152.7,415.5c-4,0-7.6-1.6-9.8-4.3c-1.3,1.3-3,2.1-4.8,2.1c-0.4,0-0.8,0-1.2-0.1c-2-0.4-3.7-1.6-4.6-3.3
					c-1.6,0.9-3.5,1.3-5.3,1.3c-5.9,0-10.7-4.5-10.7-10.1c0-5.1,3.9-9.3,9.2-10c0.2-3.4,3.1-6.2,6.7-6.2c0.6,0,1.2,0.1,1.7,0.2
					c-0.4-5.6,4.8-10.8,12-12c0.9-0.1,1.8-0.2,2.8-0.2c3.4,0,6.5,1,8.9,2.8c0.6-0.1,1.3-0.2,2.1-0.2c2.4,0,5,0.8,7.4,2.3
					c3.7,2.3,6.2,5.9,6.3,9c0.1,0,0.2,0,0.3,0c2.9,0.4,5.5,1.5,7.4,3.2s2.8,3.7,2.5,5.7c0,0.3-0.1,0.6-0.2,0.9
					c5.1,1.4,8.3,4.9,7.8,8.4c-0.5,3.4-4.4,5.8-9.6,5.8c-0.8,0-1.6-0.1-2.4-0.2c-1.7-0.3-3.4-0.8-4.9-1.5c-1.2,1.2-2.9,1.8-4.6,1.8
					c-0.4,0-0.8,0-1.2-0.1c-1.4-0.3-2.7-1-3.7-2c-1.8,3.3-5.5,5.7-9.7,6.3C-151.2,415.4-152,415.5-152.7,415.5L-152.7,415.5z"/>
				
					<radialGradient id="SVGID_4_" cx="-150.4807" cy="435.8094" r="80.7133" gradientTransform="matrix(1 0 0 -1 0 796.2)" gradientUnits="userSpaceOnUse">
					<stop  offset="0" style="stop-color:#F4F5F9"/>
					<stop  offset="0.1526" style="stop-color:#EFF3F8"/>
					<stop  offset="0.3235" style="stop-color:#E2EDF6"/>
					<stop  offset="0.5026" style="stop-color:#CCE3F2"/>
					<stop  offset="0.5463" style="stop-color:#C5E0F1"/>
					<stop  offset="0.6293" style="stop-color:#B5D3E6"/>
					<stop  offset="0.7917" style="stop-color:#8BB2C8"/>
					<stop  offset="1" style="stop-color:#4C809C"/>
				</radialGradient>
				<path class="st5" d="M-122.9,397c0.2-0.4,0.4-0.9,0.4-1.4c0.5-3.7-3.7-7.5-9.5-8.3c-0.2,0-0.5-0.1-0.7-0.1
					c0.1-3-2.2-6.7-6.1-9.1c-3.2-2-6.7-2.6-9.3-1.9c-2.8-2.2-7-3.3-11.4-2.6c-7.2,1.1-12.4,6.5-11.5,12c0,0.1,0,0.1,0,0.2
					c-0.7-0.3-1.5-0.4-2.3-0.4c-3.4,0-6.2,2.7-6.2,6.1l0,0c-5.2,0.5-9.2,4.6-9.2,9.5c0,5.3,4.6,9.6,10.2,9.6c2,0,3.9-0.6,5.5-1.5
					c0.8,1.8,2.4,3.1,4.5,3.5c2.3,0.4,4.5-0.5,5.9-2.3c2.4,3.3,7.1,5.2,12.1,4.4c4.5-0.7,8.1-3.4,9.7-6.7c0.9,1.2,2.3,2.1,3.9,2.4
					c2.1,0.4,4.2-0.4,5.6-1.8c1.4,0.8,3.2,1.4,5,1.6c5.8,0.8,10.9-1.5,11.4-5.3C-114.4,401.6-117.9,398.2-122.9,397z"/>
				<path class="st3" d="M-168.5,386.8c0.1,0.4,0.2,0.8,0.3,1.1c-0.6-0.8-1-1.8-1.1-2.8c-0.8-4.8,3.7-9.5,10-10.5
					c5.8-0.9,8.2,0.6,10.6,3.8c-3.1-1.9-4.8-3-9.8-2.2C-164.8,377.3-169.3,382-168.5,386.8z M-139.2,379.1
					c-4.4-2.7-9.3-2.6-11.1,0.3c-0.4,0.7-0.6,1.4-0.6,2.2c0.1-0.5,0.2-0.9,0.5-1.4c1.6-2.7,6.3-2.8,10.4-0.3
					c4.1,2.5,6.1,6.7,4.5,9.4c-0.6,0.9-1.5,1.5-2.6,1.8c1.6-0.2,2.9-0.9,3.6-2.1C-132.7,386.2-134.8,381.8-139.2,379.1z
					 M-131.4,388.6c-1.1-0.2-2.1-0.2-3-0.1c0.3,0,0.7,0.1,1,0.1c5.5,0.8,9.6,4.4,9.1,8c0,0.3-0.1,0.6-0.2,0.9c0.5-0.6,0.8-1.3,1-2
					C-123.1,392.4-126.6,389.3-131.4,388.6z M-177.7,408.6c0.6,0,1.3-0.1,1.9-0.2c-1,0.4-2.1,0.6-3.3,0.6c-4.6,0-8.4-3.5-8.4-7.9
					c0-4.3,3.8-7.9,8.4-7.9c0.5,0,1,0,1.4,0.1c-4.4,0-7.9,3.4-7.9,7.6C-185.6,405.2-182.1,408.6-177.7,408.6z M-167.9,410.9
					c-2.6-0.5-4.4-3.4-4.3-6c-0.1,0.3-0.2,0.7-0.3,1.1c-0.5,2.8,1.4,5.6,4.3,6.1c2.9,0.5,5.6-1.4,6.1-4.2c0-0.3,0.1-0.5,0.1-0.8
					C-163,409.3-165.4,411.4-167.9,410.9z M-141.4,403.5c-0.1-0.6-0.3-1.2-0.5-1.8c0,0.1,0.1,0.2,0.1,0.4c0.7,4.8-3.2,9.4-8.8,10.3
					c-5.6,0.9-10.8-2.3-11.6-7.1c0-0.1,0-0.3,0-0.4c-0.1,0.6-0.1,1.3,0,1.9c0.8,4.8,6,7.9,11.8,7
					C-144.8,412.9-140.7,408.3-141.4,403.5z M-136.7,409.3c-1.6-0.3-3-1.2-3.9-2.4c0.8,1.5,2.2,2.7,4,3c2.5,0.4,4.9-0.8,6-3
					C-131.9,408.7-134.3,409.7-136.7,409.3z M-172.2,386.7c0.6,0,1.2,0.1,1.8,0.3c-0.9-0.6-1.9-1-3.1-1c-2.9,0-5.3,2.3-5.3,5.1
					c0,0.3,0,0.5,0.1,0.8C-178.1,389-175.4,386.7-172.2,386.7z M-123.5,397.9c4.1,1.5,6.7,4,6.3,6.4c-0.5,3.3-6.1,5.2-12.6,4.4l0,0
					c1,0.3,2,0.6,3.1,0.7c5.5,0.7,10.3-1.3,10.9-4.6C-115.4,401.9-118.7,398.9-123.5,397.9z M-161.3,404.9c-0.3-2,0.3-4,1.5-5.7
					c-2.2,1.9-3.4,4.5-3,7.2c0.7,4.5,5.6,7.4,11,6.6c1.8-0.3,3.4-0.9,4.7-1.9c-0.7,0.3-1.5,0.5-2.3,0.6
					C-155.2,412.6-160.6,409.6-161.3,404.9z"/>
			</g>
			<g>
				<path class="st3" d="M-187.1,425c-4,0-7.5-1.6-9.7-4.2c-1.2,1.3-2.9,2-4.7,2c-0.4,0-0.8,0-1.1-0.1c-1.9-0.3-3.6-1.6-4.6-3.3
					c-1.6,0.9-3.4,1.3-5.3,1.3c-5.9,0-10.6-4.5-10.6-10c0-5,3.9-9.2,9.1-9.9c0.2-3.4,3.1-6.1,6.6-6.1c0.6,0,1.1,0.1,1.7,0.2
					c-0.5-5.4,4.7-10.6,11.8-11.8c0.9-0.1,1.8-0.2,2.7-0.2c3.4,0,6.5,1,8.8,2.8c0.6-0.1,1.3-0.2,2.1-0.2c2.4,0,5,0.8,7.3,2.2
					c3.7,2.3,6.2,5.8,6.3,8.9c0.1,0,0.2,0,0.3,0c2.9,0.4,5.4,1.5,7.3,3.1c1.9,1.7,2.8,3.7,2.5,5.6c0,0.3-0.1,0.6-0.2,0.9
					c5,1.4,8.3,4.8,7.8,8.3c-0.5,3.4-4.4,5.8-9.5,5.8c-0.8,0-1.6-0.1-2.4-0.2c-1.7-0.2-3.4-0.8-4.8-1.5c-1.2,1.2-2.8,1.8-4.5,1.8
					c-0.4,0-0.8,0-1.2-0.1c-1.4-0.3-2.7-1-3.7-2c-1.8,3.2-5.4,5.6-9.6,6.3C-185.5,424.9-186.3,425-187.1,425L-187.1,425z"/>
				
					<radialGradient id="SVGID_5_" cx="-184.8636" cy="425.7996" r="79.9206" gradientTransform="matrix(1 0 0 -1 0 796.2)" gradientUnits="userSpaceOnUse">
					<stop  offset="0" style="stop-color:#F4F5F9"/>
					<stop  offset="0.1526" style="stop-color:#EFF3F8"/>
					<stop  offset="0.3235" style="stop-color:#E2EDF6"/>
					<stop  offset="0.5026" style="stop-color:#CCE3F2"/>
					<stop  offset="0.5463" style="stop-color:#C5E0F1"/>
					<stop  offset="0.6293" style="stop-color:#B5D3E6"/>
					<stop  offset="0.7917" style="stop-color:#8BB2C8"/>
					<stop  offset="1" style="stop-color:#4C809C"/>
				</radialGradient>
				<path class="st6" d="M-157.6,406.7c0.2-0.4,0.3-0.9,0.4-1.3c0.5-3.7-3.7-7.4-9.4-8.2c-0.2-0.1-0.4-0.1-0.7-0.1
					c0.1-3-2.2-6.6-6-9c-3.2-2-6.6-2.6-9.2-1.9c-2.7-2.2-6.9-3.3-11.3-2.6c-7.2,1.1-12.3,6.5-11.4,11.9c0,0.1,0,0.1,0,0.2
					c-0.7-0.3-1.5-0.4-2.3-0.4c-3.4,0-6.2,2.7-6.2,6l0,0c-5.1,0.5-9.1,4.5-9.1,9.5c0,5.3,4.5,9.5,10.1,9.5c2,0,3.9-0.6,5.5-1.5
					c0.8,1.7,2.4,3.1,4.5,3.5c2.3,0.4,4.5-0.5,5.8-2.2c2.4,3.3,7,5.1,11.9,4.3c4.5-0.7,8-3.3,9.6-6.7c0.9,1.2,2.2,2.1,3.8,2.4
					c2.1,0.4,4.1-0.4,5.5-1.8c1.4,0.8,3.1,1.4,5,1.6c5.7,0.8,10.8-1.5,11.3-5.2C-149.2,411.2-152.6,407.9-157.6,406.7z"/>
				<path class="st3" d="M-202.7,396.5c0.1,0.4,0.2,0.7,0.3,1.1c-0.6-0.8-0.9-1.7-1.1-2.7c-0.8-4.8,3.7-9.4,9.9-10.4
					c5.8-0.9,8.1,0.6,10.5,3.8c-3.1-1.9-4.8-2.9-9.7-2.2C-199,387.1-203.5,391.8-202.7,396.5z M-173.7,388.9
					c-4.3-2.7-9.2-2.5-10.9,0.3c-0.4,0.7-0.6,1.4-0.6,2.2c0.1-0.5,0.2-0.9,0.5-1.3c1.6-2.6,6.2-2.8,10.3-0.3s6.1,6.7,4.4,9.3
					c-0.5,0.9-1.5,1.5-2.5,1.8c1.6-0.2,2.9-0.9,3.6-2.1C-167.2,396-169.3,391.6-173.7,388.9z M-165.9,398.3c-1-0.1-2.1-0.2-3-0.1
					c0.3,0,0.7,0.1,1,0.1c5.5,0.8,9.5,4.3,9,7.9c0,0.3-0.1,0.6-0.2,0.9c0.5-0.6,0.8-1.3,1-2C-157.8,402.1-161.2,399-165.9,398.3z
					 M-211.8,418.1c0.6,0,1.3-0.1,1.9-0.2c-1,0.4-2.1,0.6-3.3,0.6c-4.6,0-8.3-3.5-8.3-7.8c0-4.3,3.7-7.8,8.3-7.8
					c0.5,0,0.9,0,1.4,0.1c-4.3,0-7.9,3.4-7.9,7.5C-219.7,414.7-216.1,418.1-211.8,418.1z M-202.1,420.5c-2.6-0.5-4.3-3.4-4.3-5.9
					c-0.1,0.3-0.2,0.7-0.3,1c-0.5,2.8,1.4,5.5,4.2,6c2.8,0.5,5.5-1.4,6-4.2c0-0.3,0.1-0.5,0.1-0.8
					C-197.3,418.8-199.7,420.9-202.1,420.5z M-175.9,413.1c-0.1-0.6-0.3-1.2-0.5-1.8c0,0.1,0.1,0.2,0.1,0.4
					c0.7,4.7-3.2,9.3-8.8,10.2c-5.6,0.9-10.7-2.3-11.5-7c0-0.1,0-0.3,0-0.4c-0.1,0.6-0.1,1.3,0,1.9c0.7,4.7,6,7.9,11.7,7
					C-179.2,422.4-175.2,417.8-175.9,413.1z M-171.2,418.8c-1.6-0.3-3-1.2-3.9-2.4c0.8,1.5,2.2,2.6,4,2.9c2.5,0.4,4.8-0.8,5.9-2.9
					C-166.5,418.3-168.8,419.3-171.2,418.8z M-206.4,396.5c0.6,0,1.2,0.1,1.8,0.3c-0.9-0.6-1.9-1-3.1-1c-2.9,0-5.2,2.3-5.2,5.1
					c0,0.3,0,0.5,0.1,0.8C-212.2,398.7-209.6,396.5-206.4,396.5z M-158.2,407.5c4,1.4,6.6,3.9,6.2,6.4c-0.5,3.2-6.1,5.2-12.4,4.4
					l0,0c1,0.3,2,0.6,3.1,0.7c5.4,0.7,10.2-1.3,10.8-4.5C-150.1,411.5-153.4,408.6-158.2,407.5z M-195.6,414.5c-0.3-2,0.3-4,1.5-5.6
					c-2.2,1.8-3.4,4.4-3,7.1c0.7,4.4,5.6,7.4,10.9,6.5c1.8-0.3,3.4-0.9,4.7-1.8c-0.7,0.3-1.5,0.5-2.3,0.6
					C-189.6,422.1-194.9,419.1-195.6,414.5z"/>
			</g>
		</g>
		<g>
			
				<radialGradient id="SVGID_6_" cx="-208.5735" cy="360.2895" r="10.1504" fx="-208.6512" fy="360.989" gradientTransform="matrix(1 0 0 -1 0 796.2)" gradientUnits="userSpaceOnUse">
				<stop  offset="0" style="stop-color:#ECF6F9"/>
				<stop  offset="0.1488" style="stop-color:#AEE4F5"/>
				<stop  offset="0.2976" style="stop-color:#77D4F1"/>
				<stop  offset="0.4085" style="stop-color:#54CAEF"/>
				<stop  offset="0.4683" style="stop-color:#47C6EE"/>
				<stop  offset="0.5126" style="stop-color:#47BFEA"/>
				<stop  offset="1" style="stop-color:#4379BC"/>
			</radialGradient>
			<path class="st7" d="M-202.3,438.9c0-2.2-0.4-4.2-0.4-5.6s0.1-4.7,0.1-4.7s-2.2,2.3-3.2,3.3s-3,2.2-4.6,3.9
				c-1.2,1.2-1.8,3.4-1.2,5.1c0.5,1.5,1.3,2.6,2.9,3.3c0.7,0.3,1.4,0.4,2,0.4c0.9,0,1.8-0.2,2.5-0.7
				C-203.1,443-202.3,441.9-202.3,438.9z"/>
			
				<radialGradient id="SVGID_7_" cx="-225.2994" cy="364.3535" r="8.1272" fx="-225.3616" fy="364.9136" gradientTransform="matrix(1 0 0 -1 0 796.2)" gradientUnits="userSpaceOnUse">
				<stop  offset="0" style="stop-color:#ECF6F9"/>
				<stop  offset="0.1488" style="stop-color:#AEE4F5"/>
				<stop  offset="0.2976" style="stop-color:#77D4F1"/>
				<stop  offset="0.4085" style="stop-color:#54CAEF"/>
				<stop  offset="0.4683" style="stop-color:#47C6EE"/>
				<stop  offset="0.5126" style="stop-color:#47BFEA"/>
				<stop  offset="1" style="stop-color:#4379BC"/>
			</radialGradient>
			<path class="st8" d="M-220.3,434.3c0-1.8-0.3-3.4-0.3-4.5c0-1.1,0.1-3.8,0.1-3.8s-1.7,1.9-2.6,2.6c-0.8,0.8-2.4,1.8-3.7,3.1
				c-1,1-1.4,2.7-1,4c0.4,1.2,1,2.1,2.3,2.6c0.5,0.2,1.1,0.3,1.6,0.3c0.7,0,1.4-0.2,2-0.6C-220.9,437.5-220.3,436.6-220.3,434.3z"/>
			
				<radialGradient id="SVGID_8_" cx="-125.1732" cy="345.6307" r="10.1488" fx="-125.251" fy="346.3301" gradientTransform="matrix(0.8821 -1.220000e-02 -1.380000e-02 -0.9999 -76.7 786.6843)" gradientUnits="userSpaceOnUse">
				<stop  offset="0" style="stop-color:#ECF6F9"/>
				<stop  offset="0.1488" style="stop-color:#AEE4F5"/>
				<stop  offset="0.2976" style="stop-color:#77D4F1"/>
				<stop  offset="0.4085" style="stop-color:#54CAEF"/>
				<stop  offset="0.4683" style="stop-color:#47C6EE"/>
				<stop  offset="0.5126" style="stop-color:#47BFEA"/>
				<stop  offset="1" style="stop-color:#4379BC"/>
			</radialGradient>
			<path class="st9" d="M-186.3,445.6c0-2.2-0.4-4.2-0.4-5.6c0-1.4,0-4.7,0-4.7s-1.9,2.3-2.8,3.3s-2.6,2.3-4,4
				c-1.1,1.2-1.5,3.4-1,5.1c0.4,1.4,1.2,2.6,2.6,3.2c0.6,0.3,1.2,0.4,1.8,0.4c0.8,0,1.6-0.3,2.2-0.8
				C-187,449.6-186.3,448.5-186.3,445.6z"/>
			
				<radialGradient id="SVGID_9_" cx="-87.6344" cy="365.3925" r="8.1248" fx="-87.6966" fy="365.9524" gradientTransform="matrix(0.8822 0 0 -1 -87.3282 796.2)" gradientUnits="userSpaceOnUse">
				<stop  offset="0" style="stop-color:#ECF6F9"/>
				<stop  offset="0.1488" style="stop-color:#AEE4F5"/>
				<stop  offset="0.2976" style="stop-color:#77D4F1"/>
				<stop  offset="0.4085" style="stop-color:#54CAEF"/>
				<stop  offset="0.4683" style="stop-color:#47C6EE"/>
				<stop  offset="0.5126" style="stop-color:#47BFEA"/>
				<stop  offset="1" style="stop-color:#4379BC"/>
			</radialGradient>
			<path class="st10" d="M-160.2,433.2c0-1.8-0.3-3.4-0.3-4.5c0-1.1,0.1-3.8,0.1-3.8s-1.5,1.9-2.3,2.6c-0.7,0.8-2.1,1.8-3.3,3.1
				c-0.9,1-1.2,2.7-0.9,4.1c0.3,1.2,0.9,2.1,2,2.6c0.5,0.2,1,0.3,1.4,0.3c0.6,0,1.3-0.2,1.7-0.6
				C-160.8,436.5-160.2,435.6-160.2,433.2z"/>
			
				<radialGradient id="SVGID_10_" cx="-58.5007" cy="373.5976" r="8.1257" fx="-58.563" fy="374.1576" gradientTransform="matrix(0.8822 0 0 -1 -87.3282 796.2)" gradientUnits="userSpaceOnUse">
				<stop  offset="0" style="stop-color:#ECF6F9"/>
				<stop  offset="0.1488" style="stop-color:#AEE4F5"/>
				<stop  offset="0.2976" style="stop-color:#77D4F1"/>
				<stop  offset="0.4085" style="stop-color:#54CAEF"/>
				<stop  offset="0.4683" style="stop-color:#47C6EE"/>
				<stop  offset="0.5126" style="stop-color:#47BFEA"/>
				<stop  offset="1" style="stop-color:#4379BC"/>
			</radialGradient>
			<path class="st11" d="M-134.5,425c0-1.8-0.3-3.4-0.3-4.5c0-1.1,0.1-3.8,0.1-3.8s-1.5,1.9-2.3,2.6c-0.7,0.8-2.1,1.8-3.3,3.1
				c-0.9,1-1.2,2.7-0.9,4.1c0.3,1.2,0.9,2.1,2,2.6c0.5,0.2,1,0.3,1.4,0.3c0.6,0,1.3-0.2,1.7-0.6C-135.1,428.3-134.5,427.4-134.5,425
				z"/>
			
				<radialGradient id="SVGID_11_" cx="-76.8363" cy="353.9558" r="8.1258" fx="-76.8985" fy="354.5158" gradientTransform="matrix(0.8822 0 0 -1 -87.3282 796.2)" gradientUnits="userSpaceOnUse">
				<stop  offset="0" style="stop-color:#ECF6F9"/>
				<stop  offset="0.1488" style="stop-color:#AEE4F5"/>
				<stop  offset="0.2976" style="stop-color:#77D4F1"/>
				<stop  offset="0.4085" style="stop-color:#54CAEF"/>
				<stop  offset="0.4683" style="stop-color:#47C6EE"/>
				<stop  offset="0.5126" style="stop-color:#47BFEA"/>
				<stop  offset="1" style="stop-color:#4379BC"/>
			</radialGradient>
			<path class="st12" d="M-150.7,444.7c0-1.8-0.3-3.4-0.3-4.5c0-1.1,0.1-3.8,0.1-3.8s-1.5,1.9-2.3,2.6c-0.7,0.8-2.1,1.8-3.3,3.1
				c-0.9,1-1.2,2.7-0.9,4.1c0.3,1.2,0.9,2.1,2,2.6c0.5,0.2,1,0.3,1.4,0.3c0.6,0,1.3-0.2,1.7-0.6C-151.3,447.9-150.7,447-150.7,444.7
				z"/>
			
				<radialGradient id="SVGID_12_" cx="-105.0165" cy="365.5025" r="5.585" fx="-105.0592" fy="365.8873" gradientTransform="matrix(0.8822 0 0 -1 -87.3282 796.2)" gradientUnits="userSpaceOnUse">
				<stop  offset="0" style="stop-color:#ECF6F9"/>
				<stop  offset="0.1488" style="stop-color:#AEE4F5"/>
				<stop  offset="0.2976" style="stop-color:#77D4F1"/>
				<stop  offset="0.4085" style="stop-color:#54CAEF"/>
				<stop  offset="0.4683" style="stop-color:#47C6EE"/>
				<stop  offset="0.5126" style="stop-color:#47BFEA"/>
				<stop  offset="1" style="stop-color:#4379BC"/>
			</radialGradient>
			<path class="st13" d="M-176.9,432.4c0-1.2-0.2-2.3-0.2-3.1c0-0.8,0.1-2.6,0.1-2.6s-1.1,1.3-1.6,1.8s-1.4,1.2-2.2,2.1
				c-0.6,0.7-0.8,1.9-0.6,2.8c0.2,0.8,0.6,1.4,1.4,1.8c0.3,0.2,0.7,0.2,1,0.2c0.4,0,0.9-0.1,1.2-0.4
				C-177.3,434.6-176.9,434-176.9,432.4z"/>
			
				<radialGradient id="SVGID_13_" cx="-49.8303" cy="357.7768" r="6.4916" fx="-49.88" fy="358.2241" gradientTransform="matrix(0.8822 0 0 -1 -87.3282 796.2)" gradientUnits="userSpaceOnUse">
				<stop  offset="0" style="stop-color:#ECF6F9"/>
				<stop  offset="0.1488" style="stop-color:#AEE4F5"/>
				<stop  offset="0.2976" style="stop-color:#77D4F1"/>
				<stop  offset="0.4085" style="stop-color:#54CAEF"/>
				<stop  offset="0.4683" style="stop-color:#47C6EE"/>
				<stop  offset="0.5126" style="stop-color:#47BFEA"/>
				<stop  offset="1" style="stop-color:#4379BC"/>
			</radialGradient>
			<path class="st14" d="M-127.8,440.4c0-1.4-0.2-2.7-0.2-3.6s0.1-3,0.1-3s-1.2,1.5-1.8,2.1c-0.6,0.6-1.7,1.4-2.6,2.5
				c-0.7,0.8-1,2.2-0.7,3.2c0.3,0.9,0.7,1.6,1.6,2.1c0.4,0.2,0.8,0.3,1.1,0.3c0.5,0,1-0.2,1.4-0.5
				C-128.2,442.9-127.8,442.2-127.8,440.4z"/>
		</g>
	</g>
</g>
</svg>
