<?xml version="1.0" encoding="utf-8"?>
<!-- Generator: Adobe Illustrator 19.1.0, SVG Export Plug-In . SVG Version: 6.00 Build 0)  -->
<svg version="1.1" id="Layer_1" xmlns="http://www.w3.org/2000/svg" xmlns:xlink="http://www.w3.org/1999/xlink" x="0px" y="0px"
	 viewBox="-244 342.2 121.4 100.7" style="enable-background:new -244 342.2 121.4 100.7;" xml:space="preserve">
<style type="text/css">
	.st0{fill:url(#SVGID_1_);}
	.st1{fill:#FFFFFF;}
	.st2{fill:url(#SVGID_2_);}
	.st3{fill:url(#SVGID_3_);}
	.st4{fill:url(#SVGID_4_);}
	.st5{fill:url(#SVGID_5_);}
	.st6{fill:url(#SVGID_6_);}
	.st7{fill:url(#SVGID_7_);}
	.st8{fill:url(#SVGID_8_);}
	.st9{fill:url(#SVGID_9_);}
	.st10{fill:url(#SVGID_10_);}
	.st11{fill:url(#SVGID_11_);}
	.st12{fill:url(#SVGID_12_);}
	.st13{fill:url(#SVGID_13_);}
	.st14{fill:url(#SVGID_14_);}
	.st15{fill:url(#SVGID_15_);}
	.st16{fill:url(#SVGID_16_);}
	.st17{fill:url(#SVGID_17_);}
	.st18{fill:url(#SVGID_18_);}
	.st19{fill:url(#SVGID_19_);}
	.st20{fill:url(#SVGID_20_);}
	.st21{fill:url(#SVGID_21_);}
	.st22{fill:url(#SVGID_22_);}
	.st23{fill:url(#SVGID_23_);}
	.st24{fill:url(#SVGID_24_);}
	.st25{fill:url(#SVGID_25_);}
	.st26{fill:url(#SVGID_26_);}
	.st27{fill:url(#SVGID_27_);}
	.st28{fill:url(#SVGID_28_);}
	.st29{fill:url(#SVGID_29_);}
	.st30{fill:url(#SVGID_30_);}
	.st31{fill:#94A7AF;}
	.st32{fill:url(#SVGID_31_);}
	.st33{fill:url(#SVGID_32_);}
	.st34{fill:url(#SVGID_33_);}
	.st35{fill:url(#SVGID_34_);}
	.st36{fill:#263032;}
	.st37{fill:url(#SVGID_35_);}
	.st38{fill:url(#SVGID_36_);}
</style>
<g id="Layer_1_1_">
</g>
<g>
	<g>
		<g>
			
				<radialGradient id="SVGID_1_" cx="-76862.3359" cy="-138342.4219" r="97.2254" gradientTransform="matrix(6.200000e-03 -4.300000e-02 -3.380000e-02 -4.900000e-03 -4346.8369 -3557.1997)" gradientUnits="userSpaceOnUse">
				<stop  offset="0" style="stop-color:#FFFFFF"/>
				<stop  offset="1" style="stop-color:#008ABE"/>
			</radialGradient>
			<path class="st0" d="M-145.5,425.4c-0.1-1.1-0.6-2.1-1.5-3c-0.9,0.8-1.4,1.8-1.5,3c-0.1,1.1,0.4,1.7,1.5,1.7
				C-145.8,427-145.3,426.5-145.5,425.4z"/>
			<g>
				<path class="st1" d="M-147,422.4c-0.9,0.8-1.4,1.8-1.5,3c-0.1,0.6,0,1,0.3,1.3c0.3,0.3,0.7,0.4,1.3,0.4s1-0.1,1.3-0.4
					c0.2-0.3,0.3-0.7,0.3-1.2C-145.6,424.3-146.1,423.3-147,422.4L-147,422.4L-147,422.4L-147,422.4L-147,422.4
					c0.8,0.9,1.3,1.9,1.5,3c0.1,0.5,0,0.9-0.2,1.2c-0.2,0.3-0.7,0.4-1.2,0.4c-0.6,0-1-0.1-1.2-0.4c-0.2-0.3-0.3-0.7-0.3-1.3
					C-148.4,424.2-147.9,423.2-147,422.4L-147,422.4L-147,422.4L-147,422.4L-147,422.4z"/>
			</g>
		</g>
		<g>
			
				<radialGradient id="SVGID_2_" cx="-76862.3516" cy="-138342.4375" r="97.2446" gradientTransform="matrix(6.200000e-03 -4.300000e-02 -3.380000e-02 -4.900000e-03 -4346.8369 -3557.1997)" gradientUnits="userSpaceOnUse">
				<stop  offset="0" style="stop-color:#FFFFFF"/>
				<stop  offset="1" style="stop-color:#59B3E3"/>
			</radialGradient>
			<path class="st2" d="M-148.2,424.8c-0.2,0.8-0.1,1.4,0.4,1.8c0.5,0.4,1.1,0.4,1.7,0c-0.6-0.3-1-0.9-1.2-1.6
				c-0.2-0.8-0.2-1.6,0.3-2.5C-147.6,423.2-148,424-148.2,424.8z"/>
		</g>
	</g>
	<g>
		<g>
			
				<radialGradient id="SVGID_3_" cx="-77330.3516" cy="-137256.5156" r="97.2198" gradientTransform="matrix(6.200000e-03 -4.300000e-02 -3.380000e-02 -4.900000e-03 -4346.8369 -3557.1997)" gradientUnits="userSpaceOnUse">
				<stop  offset="0" style="stop-color:#FFFFFF"/>
				<stop  offset="1" style="stop-color:#008ABE"/>
			</radialGradient>
			<path class="st3" d="M-185.1,440.2c-0.1-1.1-0.6-2.1-1.5-3c-0.9,0.8-1.4,1.8-1.5,2.9c-0.1,1.1,0.4,1.7,1.5,1.7
				C-185.4,441.8-184.9,441.3-185.1,440.2z"/>
			<g>
				<path class="st1" d="M-186.6,437.2c-0.9,0.8-1.4,1.8-1.5,3c-0.1,0.6,0,1,0.3,1.3c0.3,0.3,0.7,0.4,1.3,0.4s1-0.1,1.3-0.4
					c0.2-0.3,0.3-0.7,0.3-1.2C-185.2,439.1-185.7,438.1-186.6,437.2L-186.6,437.2C-186.6,437.1-186.6,437.1-186.6,437.2
					L-186.6,437.2L-186.6,437.2c0.8,0.9,1.3,1.9,1.5,3c0.1,0.5,0,0.9-0.2,1.2c-0.2,0.3-0.7,0.4-1.2,0.4c-0.6,0-1-0.1-1.2-0.4
					c-0.2-0.3-0.3-0.7-0.3-1.3C-188,439-187.4,438-186.6,437.2L-186.6,437.2C-186.5,437.2-186.5,437.2-186.6,437.2
					C-186.6,437.1-186.6,437.1-186.6,437.2L-186.6,437.2z"/>
			</g>
		</g>
		<g>
			
				<radialGradient id="SVGID_4_" cx="-77330.3359" cy="-137256.5156" r="97.2689" gradientTransform="matrix(6.200000e-03 -4.300000e-02 -3.380000e-02 -4.900000e-03 -4346.8369 -3557.1997)" gradientUnits="userSpaceOnUse">
				<stop  offset="0" style="stop-color:#FFFFFF"/>
				<stop  offset="1" style="stop-color:#59B3E3"/>
			</radialGradient>
			<path class="st4" d="M-187.8,439.6c-0.2,0.8-0.1,1.4,0.4,1.8c0.5,0.4,1.1,0.4,1.7,0c-0.6-0.3-1-0.9-1.2-1.6
				c-0.2-0.8-0.2-1.6,0.3-2.5C-187.2,438-187.6,438.8-187.8,439.6z"/>
		</g>
	</g>
	<g>
		<g>
			
				<radialGradient id="SVGID_5_" cx="-76792.6328" cy="-137997.5312" r="97.2371" gradientTransform="matrix(6.200000e-03 -4.300000e-02 -3.380000e-02 -4.900000e-03 -4346.8369 -3557.1997)" gradientUnits="userSpaceOnUse">
				<stop  offset="0" style="stop-color:#FFFFFF"/>
				<stop  offset="1" style="stop-color:#008ABE"/>
			</radialGradient>
			<path class="st5" d="M-156.7,420.7c-0.1-1.1-0.6-2.1-1.5-3c-0.9,0.8-1.4,1.8-1.5,3c-0.1,1.1,0.4,1.7,1.5,1.7
				C-157,422.3-156.6,421.8-156.7,420.7z"/>
			<g>
				<path class="st1" d="M-158.2,417.7c-0.9,0.8-1.4,1.8-1.5,3c-0.1,0.6,0,1,0.3,1.3c0.3,0.3,0.7,0.4,1.3,0.4s1-0.1,1.3-0.4
					c0.2-0.3,0.3-0.7,0.3-1.2C-156.8,419.6-157.3,418.6-158.2,417.7L-158.2,417.7L-158.2,417.7L-158.2,417.7L-158.2,417.7
					c0.8,0.9,1.3,1.9,1.5,3c0.1,0.5,0,0.9-0.2,1.2c-0.2,0.3-0.7,0.4-1.2,0.4c-0.6,0-1-0.1-1.2-0.4c-0.2-0.3-0.3-0.7-0.3-1.3
					C-159.6,419.5-159.1,418.5-158.2,417.7L-158.2,417.7L-158.2,417.7L-158.2,417.7L-158.2,417.7z"/>
			</g>
		</g>
		<g>
			
				<radialGradient id="SVGID_6_" cx="-76792.6172" cy="-137997.5312" r="97.2518" gradientTransform="matrix(6.200000e-03 -4.300000e-02 -3.380000e-02 -4.900000e-03 -4346.8369 -3557.1997)" gradientUnits="userSpaceOnUse">
				<stop  offset="0" style="stop-color:#FFFFFF"/>
				<stop  offset="1" style="stop-color:#59B3E3"/>
			</radialGradient>
			<path class="st6" d="M-159.4,420.1c-0.2,0.8-0.1,1.4,0.4,1.8c0.5,0.4,1.1,0.4,1.7,0c-0.6-0.3-1-0.9-1.2-1.6
				c-0.2-0.8-0.2-1.6,0.3-2.5C-158.8,418.6-159.2,419.3-159.4,420.1z"/>
		</g>
	</g>
	<g>
		<g>
			
				<radialGradient id="SVGID_7_" cx="-77024.6953" cy="-136064.2812" r="97.2549" gradientTransform="matrix(6.200000e-03 -4.300000e-02 -3.380000e-02 -4.900000e-03 -4346.8369 -3557.1997)" gradientUnits="userSpaceOnUse">
				<stop  offset="0" style="stop-color:#FFFFFF"/>
				<stop  offset="1" style="stop-color:#008ABE"/>
			</radialGradient>
			<path class="st7" d="M-223.5,421.2c-0.1-1.1-0.6-2.1-1.5-3c-0.9,0.8-1.4,1.8-1.5,3c-0.1,1.1,0.4,1.7,1.5,1.7
				C-223.8,422.9-223.3,422.3-223.5,421.2z"/>
			<g>
				<path class="st1" d="M-225,418.2c-0.9,0.8-1.4,1.8-1.5,3c-0.1,0.6,0,1,0.3,1.3c0.3,0.3,0.7,0.4,1.3,0.4c0.6,0,1-0.1,1.3-0.4
					c0.2-0.3,0.3-0.7,0.3-1.2C-223.6,420.1-224.1,419.1-225,418.2L-225,418.2L-225,418.2L-225,418.2L-225,418.2
					c0.8,0.9,1.3,1.9,1.5,3c0.1,0.5,0,0.9-0.2,1.2c-0.2,0.3-0.7,0.4-1.2,0.4c-0.6,0-1-0.1-1.2-0.4c-0.2-0.3-0.3-0.7-0.3-1.3
					C-226.4,420.1-225.9,419.1-225,418.2L-225,418.2L-225,418.2L-225,418.2L-225,418.2z"/>
			</g>
		</g>
		<g>
			
				<radialGradient id="SVGID_8_" cx="-77024.6719" cy="-136064.2812" r="97.2588" gradientTransform="matrix(6.200000e-03 -4.300000e-02 -3.380000e-02 -4.900000e-03 -4346.8369 -3557.1997)" gradientUnits="userSpaceOnUse">
				<stop  offset="0" style="stop-color:#FFFFFF"/>
				<stop  offset="1" style="stop-color:#59B3E3"/>
			</radialGradient>
			<path class="st8" d="M-226.2,420.7c-0.3,0.8-0.1,1.4,0.4,1.8c0.5,0.4,1.1,0.4,1.7,0c-0.6-0.3-1-0.9-1.2-1.6
				c-0.2-0.8-0.2-1.6,0.3-2.5C-225.6,419.1-226,419.8-226.2,420.7z"/>
		</g>
	</g>
	<g>
		<g>
			
				<radialGradient id="SVGID_9_" cx="-76803.5703" cy="-137480.6094" r="97.2254" gradientTransform="matrix(6.200000e-03 -4.300000e-02 -3.380000e-02 -4.900000e-03 -4346.8369 -3557.1997)" gradientUnits="userSpaceOnUse">
				<stop  offset="0" style="stop-color:#FFFFFF"/>
				<stop  offset="1" style="stop-color:#008ABE"/>
			</radialGradient>
			<path class="st9" d="M-174.2,418.6c-0.1-1.1-0.6-2.1-1.5-3c-0.9,0.8-1.4,1.8-1.5,3c-0.1,1.1,0.4,1.7,1.5,1.7
				S-174.1,419.7-174.2,418.6z"/>
			<g>
				<path class="st1" d="M-175.7,415.6c-0.9,0.8-1.4,1.8-1.5,3c-0.1,0.6,0,1,0.3,1.3c0.3,0.3,0.7,0.4,1.3,0.4c0.6,0,1-0.1,1.3-0.4
					c0.2-0.3,0.3-0.7,0.3-1.2C-174.3,417.5-174.9,416.5-175.7,415.6L-175.7,415.6L-175.7,415.6L-175.7,415.6L-175.7,415.6
					c0.8,0.9,1.3,1.9,1.5,3c0.1,0.5,0,0.9-0.2,1.2c-0.2,0.3-0.7,0.4-1.2,0.4c-0.6,0-1-0.1-1.2-0.4c-0.2-0.3-0.3-0.7-0.3-1.3
					C-177.1,417.4-176.6,416.5-175.7,415.6L-175.7,415.6L-175.7,415.6L-175.7,415.6L-175.7,415.6z"/>
			</g>
		</g>
		<g>
			
				<radialGradient id="SVGID_10_" cx="-76803.5859" cy="-137480.625" r="97.2446" gradientTransform="matrix(6.200000e-03 -4.300000e-02 -3.380000e-02 -4.900000e-03 -4346.8369 -3557.1997)" gradientUnits="userSpaceOnUse">
				<stop  offset="0" style="stop-color:#FFFFFF"/>
				<stop  offset="1" style="stop-color:#59B3E3"/>
			</radialGradient>
			<path class="st10" d="M-177,418c-0.2,0.8-0.1,1.4,0.4,1.8s1.1,0.4,1.7,0c-0.6-0.3-1-0.9-1.2-1.6c-0.2-0.8-0.2-1.6,0.3-2.5
				C-176.3,416.5-176.7,417.2-177,418z"/>
		</g>
	</g>
	<g>
		<g>
			
				<radialGradient id="SVGID_11_" cx="-76953.3125" cy="-137905" r="97.2363" gradientTransform="matrix(6.200000e-03 -4.300000e-02 -3.380000e-02 -4.900000e-03 -4346.8369 -3557.1997)" gradientUnits="userSpaceOnUse">
				<stop  offset="0" style="stop-color:#FFFFFF"/>
				<stop  offset="1" style="stop-color:#008ABE"/>
			</radialGradient>
			<path class="st11" d="M-160.8,427.1c-0.1-1.1-0.6-2.1-1.5-3c-0.9,0.8-1.4,1.8-1.5,3c-0.1,1.1,0.4,1.7,1.5,1.7
				C-161.2,428.8-160.7,428.2-160.8,427.1z"/>
			<g>
				<path class="st1" d="M-162.3,424.1c-0.9,0.8-1.4,1.8-1.5,3c-0.1,0.6,0,1,0.3,1.3c0.3,0.3,0.7,0.4,1.3,0.4c0.6,0,1-0.1,1.3-0.4
					c0.2-0.3,0.3-0.7,0.3-1.2C-160.9,426-161.4,425-162.3,424.1L-162.3,424.1L-162.3,424.1L-162.3,424.1L-162.3,424.1
					c0.8,0.9,1.3,1.9,1.5,3c0.1,0.5,0,0.9-0.2,1.2c-0.2,0.3-0.7,0.4-1.2,0.4c-0.6,0-1-0.1-1.2-0.4c-0.3-0.3-0.3-0.7-0.3-1.3
					C-163.7,426-163.2,425-162.3,424.1L-162.3,424.1L-162.3,424.1L-162.3,424.1L-162.3,424.1z"/>
			</g>
		</g>
		<g>
			
				<radialGradient id="SVGID_12_" cx="-76953.2969" cy="-137905" r="97.2671" gradientTransform="matrix(6.200000e-03 -4.300000e-02 -3.380000e-02 -4.900000e-03 -4346.8369 -3557.1997)" gradientUnits="userSpaceOnUse">
				<stop  offset="0" style="stop-color:#FFFFFF"/>
				<stop  offset="1" style="stop-color:#59B3E3"/>
			</radialGradient>
			<path class="st12" d="M-163.6,426.6c-0.2,0.8-0.1,1.4,0.4,1.8c0.5,0.4,1.1,0.4,1.7,0c-0.6-0.3-1-0.9-1.2-1.6
				c-0.2-0.8-0.2-1.6,0.3-2.5C-162.9,425-163.3,425.7-163.6,426.6z"/>
		</g>
	</g>
	<g>
		<g>
			
				<radialGradient id="SVGID_13_" cx="-77223.5859" cy="-136868.875" r="97.2198" gradientTransform="matrix(6.200000e-03 -4.300000e-02 -3.380000e-02 -4.900000e-03 -4346.8369 -3557.1997)" gradientUnits="userSpaceOnUse">
				<stop  offset="0" style="stop-color:#FFFFFF"/>
				<stop  offset="1" style="stop-color:#008ABE"/>
			</radialGradient>
			<path class="st13" d="M-197.5,433.7c-0.1-1.1-0.6-2.1-1.5-3c-0.9,0.8-1.4,1.8-1.5,2.9s0.4,1.7,1.5,1.7S-197.4,434.8-197.5,433.7z
				"/>
			<g>
				<path class="st1" d="M-199,430.7c-0.9,0.8-1.4,1.8-1.5,3c-0.1,0.6,0,1,0.3,1.3c0.3,0.3,0.7,0.4,1.3,0.4c0.6,0,1-0.1,1.3-0.4
					c0.2-0.3,0.3-0.7,0.3-1.2C-197.6,432.6-198.1,431.6-199,430.7L-199,430.7L-199,430.7L-199,430.7L-199,430.7
					c0.8,0.9,1.3,1.9,1.5,3c0.1,0.5,0,0.9-0.2,1.2c-0.3,0.3-0.7,0.4-1.3,0.4s-1-0.1-1.2-0.4c-0.2-0.3-0.3-0.7-0.3-1.3
					C-200.4,432.5-199.9,431.5-199,430.7L-199,430.7L-199,430.7L-199,430.7L-199,430.7z"/>
			</g>
		</g>
		<g>
			
				<radialGradient id="SVGID_14_" cx="-77223.5781" cy="-136868.875" r="97.2689" gradientTransform="matrix(6.200000e-03 -4.300000e-02 -3.380000e-02 -4.900000e-03 -4346.8369 -3557.1997)" gradientUnits="userSpaceOnUse">
				<stop  offset="0" style="stop-color:#FFFFFF"/>
				<stop  offset="1" style="stop-color:#59B3E3"/>
			</radialGradient>
			<path class="st14" d="M-200.3,433.1c-0.2,0.8-0.1,1.4,0.4,1.8c0.5,0.4,1.1,0.4,1.7,0c-0.6-0.3-1-0.9-1.2-1.6
				c-0.2-0.8-0.2-1.6,0.3-2.5C-199.6,431.5-200,432.3-200.3,433.1z"/>
		</g>
	</g>
	<g>
		<g>
			
				<radialGradient id="SVGID_15_" cx="-76675.1641" cy="-138285.4219" r="97.2371" gradientTransform="matrix(6.200000e-03 -4.300000e-02 -3.380000e-02 -4.900000e-03 -4346.8369 -3557.1997)" gradientUnits="userSpaceOnUse">
				<stop  offset="0" style="stop-color:#FFFFFF"/>
				<stop  offset="1" style="stop-color:#008ABE"/>
			</radialGradient>
			<path class="st15" d="M-146.2,417c-0.1-1.1-0.6-2.1-1.5-3c-0.9,0.8-1.4,1.8-1.5,3c-0.1,1.1,0.4,1.7,1.5,1.7
				S-146.1,418.1-146.2,417z"/>
			<g>
				<path class="st1" d="M-147.7,414c-0.9,0.8-1.4,1.8-1.5,3c-0.1,0.6,0,1,0.3,1.3s0.7,0.4,1.3,0.4c0.6,0,1-0.1,1.3-0.4
					c0.2-0.3,0.3-0.7,0.3-1.2C-146.3,415.9-146.9,414.9-147.7,414L-147.7,414L-147.7,414C-147.7,414-147.7,414.1-147.7,414
					L-147.7,414c0.8,0.9,1.3,1.9,1.5,3c0.1,0.5,0,0.9-0.2,1.2s-0.7,0.4-1.2,0.4c-0.6,0-1-0.1-1.2-0.4s-0.3-0.7-0.3-1.3
					C-149.1,415.9-148.6,414.9-147.7,414L-147.7,414C-147.7,414.1-147.7,414-147.7,414L-147.7,414L-147.7,414z"/>
			</g>
		</g>
		<g>
			
				<radialGradient id="SVGID_16_" cx="-76675.1484" cy="-138285.4375" r="97.2518" gradientTransform="matrix(6.200000e-03 -4.300000e-02 -3.380000e-02 -4.900000e-03 -4346.8369 -3557.1997)" gradientUnits="userSpaceOnUse">
				<stop  offset="0" style="stop-color:#FFFFFF"/>
				<stop  offset="1" style="stop-color:#59B3E3"/>
			</radialGradient>
			<path class="st16" d="M-149,416.5c-0.2,0.8-0.1,1.4,0.4,1.8s1.1,0.4,1.7,0c-0.6-0.3-1-0.9-1.2-1.6c-0.2-0.8-0.2-1.6,0.3-2.5
				C-148.3,414.9-148.7,415.6-149,416.5z"/>
		</g>
	</g>
	<g>
		<g>
			
				<radialGradient id="SVGID_17_" cx="-77271.0234" cy="-136452.625" r="97.2361" gradientTransform="matrix(6.200000e-03 -4.300000e-02 -3.380000e-02 -4.900000e-03 -4346.8369 -3557.1997)" gradientUnits="userSpaceOnUse">
				<stop  offset="0" style="stop-color:#FFFFFF"/>
				<stop  offset="1" style="stop-color:#008ABE"/>
			</radialGradient>
			<path class="st17" d="M-211.9,433.7c-0.1-1.1-0.6-2.1-1.5-3c-0.9,0.8-1.4,1.8-1.5,2.9c-0.1,1.1,0.4,1.7,1.5,1.7
				C-212.2,435.3-211.7,434.8-211.9,433.7z"/>
			<g>
				<path class="st1" d="M-213.4,430.7c-0.9,0.8-1.4,1.8-1.5,3c-0.1,0.6,0,1,0.3,1.3c0.3,0.3,0.7,0.4,1.3,0.4c0.6,0,1-0.1,1.3-0.4
					c0.2-0.3,0.3-0.7,0.3-1.2C-212,432.6-212.5,431.6-213.4,430.7L-213.4,430.7L-213.4,430.7L-213.4,430.7L-213.4,430.7
					c0.8,0.9,1.3,1.9,1.5,3c0.1,0.5,0,0.9-0.2,1.2c-0.2,0.3-0.7,0.4-1.2,0.4c-0.6,0-1-0.1-1.2-0.4c-0.2-0.3-0.3-0.7-0.3-1.3
					C-214.8,432.5-214.2,431.5-213.4,430.7L-213.4,430.7C-213.3,430.7-213.3,430.7-213.4,430.7L-213.4,430.7L-213.4,430.7z"/>
			</g>
		</g>
		<g>
			
				<radialGradient id="SVGID_18_" cx="-77271.0078" cy="-136452.6562" r="97.2774" gradientTransform="matrix(6.200000e-03 -4.300000e-02 -3.380000e-02 -4.900000e-03 -4346.8369 -3557.1997)" gradientUnits="userSpaceOnUse">
				<stop  offset="0" style="stop-color:#FFFFFF"/>
				<stop  offset="1" style="stop-color:#59B3E3"/>
			</radialGradient>
			<path class="st18" d="M-214.6,433.1c-0.2,0.8-0.1,1.4,0.4,1.8c0.5,0.4,1.1,0.4,1.7,0c-0.6-0.3-1-0.9-1.2-1.6
				c-0.2-0.8-0.2-1.6,0.3-2.5C-214,431.5-214.4,432.3-214.6,433.1z"/>
		</g>
	</g>
	<g>
		<g>
			
				<radialGradient id="SVGID_19_" cx="-76951.1172" cy="-136230.375" r="97.2549" gradientTransform="matrix(6.200000e-03 -4.300000e-02 -3.380000e-02 -4.900000e-03 -4346.8369 -3557.1997)" gradientUnits="userSpaceOnUse">
				<stop  offset="0" style="stop-color:#FFFFFF"/>
				<stop  offset="1" style="stop-color:#008ABE"/>
			</radialGradient>
			<path class="st19" d="M-217.4,418.8c-0.1-1.1-0.6-2.1-1.5-3c-0.9,0.8-1.4,1.8-1.5,3c-0.1,1.1,0.4,1.7,1.5,1.7
				C-217.7,420.5-217.2,419.9-217.4,418.8z"/>
			<g>
				<path class="st1" d="M-218.9,415.8c-0.9,0.8-1.4,1.8-1.5,3c-0.1,0.6,0,1,0.3,1.3c0.3,0.3,0.7,0.4,1.3,0.4c0.6,0,1-0.1,1.3-0.4
					c0.2-0.3,0.3-0.7,0.3-1.2C-217.5,417.7-218,416.7-218.9,415.8L-218.9,415.8L-218.9,415.8L-218.9,415.8L-218.9,415.8
					c0.8,0.9,1.3,1.9,1.5,3c0.1,0.5,0,0.9-0.2,1.2c-0.2,0.3-0.7,0.4-1.2,0.4c-0.6,0-1-0.1-1.2-0.4c-0.2-0.3-0.3-0.7-0.3-1.3
					C-220.3,417.7-219.8,416.7-218.9,415.8L-218.9,415.8L-218.9,415.8L-218.9,415.8L-218.9,415.8z"/>
			</g>
		</g>
		<g>
			
				<radialGradient id="SVGID_20_" cx="-76951.0938" cy="-136230.375" r="97.2588" gradientTransform="matrix(6.200000e-03 -4.300000e-02 -3.380000e-02 -4.900000e-03 -4346.8369 -3557.1997)" gradientUnits="userSpaceOnUse">
				<stop  offset="0" style="stop-color:#FFFFFF"/>
				<stop  offset="1" style="stop-color:#59B3E3"/>
			</radialGradient>
			<path class="st20" d="M-220.1,418.3c-0.3,0.8-0.1,1.4,0.4,1.8c0.5,0.4,1.1,0.4,1.7,0c-0.6-0.3-1-0.9-1.2-1.6
				c-0.2-0.8-0.2-1.6,0.3-2.5C-219.5,416.7-219.9,417.4-220.1,418.3z"/>
		</g>
	</g>
	<g>
		<g>
			
				<radialGradient id="SVGID_21_" cx="-76608.2578" cy="-137500.6562" r="97.2254" gradientTransform="matrix(6.200000e-03 -4.300000e-02 -3.380000e-02 -4.900000e-03 -4346.8369 -3557.1997)" gradientUnits="userSpaceOnUse">
				<stop  offset="0" style="stop-color:#FFFFFF"/>
				<stop  offset="1" style="stop-color:#008ABE"/>
			</radialGradient>
			<path class="st21" d="M-172.3,410.3c-0.1-1.1-0.6-2.1-1.5-3c-0.9,0.8-1.4,1.8-1.5,3c-0.1,1.1,0.4,1.7,1.5,1.7
				C-172.7,412-172.2,411.4-172.3,410.3z"/>
			<g>
				<path class="st1" d="M-173.8,407.3c-0.9,0.8-1.4,1.8-1.5,3c-0.1,0.6,0,1,0.3,1.3c0.3,0.3,0.7,0.4,1.3,0.4c0.6,0,1-0.1,1.3-0.4
					c0.2-0.3,0.3-0.7,0.3-1.2C-172.4,409.2-173,408.2-173.8,407.3L-173.8,407.3L-173.8,407.3L-173.8,407.3L-173.8,407.3
					c0.8,0.9,1.3,1.9,1.5,3c0.1,0.5,0,0.9-0.2,1.2c-0.2,0.3-0.7,0.4-1.2,0.4c-0.6,0-1-0.1-1.2-0.4c-0.2-0.3-0.3-0.7-0.3-1.3
					C-175.2,409.1-174.7,408.2-173.8,407.3L-173.8,407.3L-173.8,407.3L-173.8,407.3L-173.8,407.3z"/>
			</g>
		</g>
		<g>
			
				<radialGradient id="SVGID_22_" cx="-76608.2734" cy="-137500.6719" r="97.2446" gradientTransform="matrix(6.200000e-03 -4.300000e-02 -3.380000e-02 -4.900000e-03 -4346.8369 -3557.1997)" gradientUnits="userSpaceOnUse">
				<stop  offset="0" style="stop-color:#FFFFFF"/>
				<stop  offset="1" style="stop-color:#59B3E3"/>
			</radialGradient>
			<path class="st22" d="M-175.1,409.7c-0.2,0.8-0.1,1.4,0.4,1.8s1.1,0.4,1.7,0c-0.6-0.3-1-0.9-1.2-1.6c-0.2-0.8-0.2-1.6,0.3-2.5
				C-174.4,408.2-174.8,408.9-175.1,409.7z"/>
		</g>
	</g>
	<g>
		<g>
			
				<radialGradient id="SVGID_23_" cx="-77092" cy="-137555.25" r="97.2363" gradientTransform="matrix(6.200000e-03 -4.300000e-02 -3.380000e-02 -4.900000e-03 -4346.8369 -3557.1997)" gradientUnits="userSpaceOnUse">
				<stop  offset="0" style="stop-color:#FFFFFF"/>
				<stop  offset="1" style="stop-color:#008ABE"/>
			</radialGradient>
			<path class="st23" d="M-173.5,431.4c-0.1-1.1-0.6-2.1-1.5-3c-0.9,0.8-1.4,1.8-1.5,3c-0.1,1.1,0.4,1.7,1.5,1.7
				C-173.9,433.1-173.4,432.5-173.5,431.4z"/>
			<g>
				<path class="st1" d="M-175,428.4c-0.9,0.8-1.4,1.8-1.5,3c-0.1,0.6,0,1,0.3,1.3c0.3,0.3,0.7,0.4,1.3,0.4s1-0.1,1.3-0.4
					c0.2-0.3,0.3-0.7,0.3-1.2C-173.6,430.2-174.1,429.2-175,428.4L-175,428.4L-175,428.4L-175,428.4L-175,428.4
					c0.8,0.9,1.3,1.9,1.5,3c0.1,0.5,0,0.9-0.2,1.2c-0.2,0.3-0.7,0.4-1.2,0.4c-0.6,0-1-0.1-1.2-0.4c-0.3-0.3-0.3-0.7-0.3-1.3
					C-176.4,430.2-175.9,429.2-175,428.4L-175,428.4L-175,428.4L-175,428.4L-175,428.4z"/>
			</g>
		</g>
		<g>
			
				<radialGradient id="SVGID_24_" cx="-77091.9844" cy="-137555.25" r="97.2671" gradientTransform="matrix(6.200000e-03 -4.300000e-02 -3.380000e-02 -4.900000e-03 -4346.8369 -3557.1997)" gradientUnits="userSpaceOnUse">
				<stop  offset="0" style="stop-color:#FFFFFF"/>
				<stop  offset="1" style="stop-color:#59B3E3"/>
			</radialGradient>
			<path class="st24" d="M-176.3,430.9c-0.2,0.8-0.1,1.4,0.4,1.8c0.5,0.4,1.1,0.4,1.7,0c-0.6-0.3-1-0.9-1.2-1.6
				c-0.2-0.8-0.2-1.6,0.3-2.5C-175.6,429.2-176,430-176.3,430.9z"/>
		</g>
	</g>
	<g>
		<g>
			
				<radialGradient id="SVGID_25_" cx="-76898.8047" cy="-137076.125" r="97.2198" gradientTransform="matrix(6.200000e-03 -4.300000e-02 -3.380000e-02 -4.900000e-03 -4346.8369 -3557.1997)" gradientUnits="userSpaceOnUse">
				<stop  offset="0" style="stop-color:#FFFFFF"/>
				<stop  offset="1" style="stop-color:#008ABE"/>
			</radialGradient>
			<path class="st25" d="M-188.5,420.8c-0.1-1.1-0.6-2.1-1.5-3c-0.9,0.8-1.4,1.8-1.5,2.9c-0.1,1.1,0.4,1.7,1.5,1.7
				C-188.9,422.4-188.4,421.9-188.5,420.8z"/>
			<g>
				<path class="st1" d="M-190,417.8c-0.9,0.8-1.4,1.8-1.5,3c-0.1,0.6,0,1,0.3,1.3c0.3,0.3,0.7,0.4,1.3,0.4c0.6,0,1-0.1,1.3-0.4
					c0.2-0.3,0.3-0.7,0.3-1.2C-188.6,419.7-189.1,418.7-190,417.8L-190,417.8L-190,417.8L-190,417.8L-190,417.8
					c0.8,0.9,1.3,1.9,1.5,3c0.1,0.5,0,0.9-0.2,1.2c-0.3,0.3-0.7,0.4-1.3,0.4c-0.6,0-1-0.1-1.2-0.4c-0.2-0.3-0.3-0.7-0.3-1.3
					C-191.4,419.6-190.9,418.6-190,417.8L-190,417.8L-190,417.8L-190,417.8L-190,417.8z"/>
			</g>
		</g>
		<g>
			
				<radialGradient id="SVGID_26_" cx="-76898.7969" cy="-137076.125" r="97.2689" gradientTransform="matrix(6.200000e-03 -4.300000e-02 -3.380000e-02 -4.900000e-03 -4346.8369 -3557.1997)" gradientUnits="userSpaceOnUse">
				<stop  offset="0" style="stop-color:#FFFFFF"/>
				<stop  offset="1" style="stop-color:#59B3E3"/>
			</radialGradient>
			<path class="st26" d="M-191.3,420.2c-0.2,0.8-0.1,1.4,0.4,1.8c0.5,0.4,1.1,0.4,1.7,0c-0.6-0.3-1-0.9-1.2-1.6
				c-0.2-0.8-0.2-1.6,0.3-2.5C-190.6,418.6-191,419.4-191.3,420.2z"/>
		</g>
	</g>
	<g>
		<g>
			
				<radialGradient id="SVGID_27_" cx="-76458.0312" cy="-138017.4219" r="97.2371" gradientTransform="matrix(6.200000e-03 -4.300000e-02 -3.380000e-02 -4.900000e-03 -4346.8369 -3557.1997)" gradientUnits="userSpaceOnUse">
				<stop  offset="0" style="stop-color:#FFFFFF"/>
				<stop  offset="1" style="stop-color:#008ABE"/>
			</radialGradient>
			<path class="st27" d="M-153.9,406.4c-0.1-1.1-0.6-2.1-1.5-3c-0.9,0.8-1.4,1.8-1.5,3c-0.1,1.1,0.4,1.7,1.5,1.7
				C-154.3,408.1-153.8,407.5-153.9,406.4z"/>
			<g>
				<path class="st1" d="M-155.4,403.4c-0.9,0.8-1.4,1.8-1.5,3c-0.1,0.6,0,1,0.3,1.3c0.3,0.3,0.7,0.4,1.3,0.4s1-0.1,1.3-0.4
					c0.2-0.3,0.3-0.7,0.3-1.2C-154,405.2-154.6,404.2-155.4,403.4L-155.4,403.4L-155.4,403.4C-155.4,403.4-155.4,403.5-155.4,403.4
					L-155.4,403.4c0.8,0.9,1.3,1.9,1.5,3c0.1,0.5,0,0.9-0.2,1.2s-0.7,0.4-1.2,0.4c-0.6,0-1-0.1-1.2-0.4c-0.2-0.3-0.3-0.7-0.3-1.3
					C-156.8,405.2-156.3,404.2-155.4,403.4L-155.4,403.4C-155.4,403.5-155.4,403.4-155.4,403.4L-155.4,403.4L-155.4,403.4z"/>
			</g>
		</g>
		<g>
			
				<radialGradient id="SVGID_28_" cx="-76458.0156" cy="-138017.4375" r="97.2518" gradientTransform="matrix(6.200000e-03 -4.300000e-02 -3.380000e-02 -4.900000e-03 -4346.8369 -3557.1997)" gradientUnits="userSpaceOnUse">
				<stop  offset="0" style="stop-color:#FFFFFF"/>
				<stop  offset="1" style="stop-color:#59B3E3"/>
			</radialGradient>
			<path class="st28" d="M-156.7,405.9c-0.2,0.8-0.1,1.4,0.4,1.8s1.1,0.4,1.7,0c-0.6-0.3-1-0.9-1.2-1.6c-0.2-0.8-0.2-1.6,0.3-2.5
				C-156,404.2-156.4,405-156.7,405.9z"/>
		</g>
	</g>
	<g>
		<g>
			
				<radialGradient id="SVGID_29_" cx="-76966.5547" cy="-136563.2812" r="97.2361" gradientTransform="matrix(6.200000e-03 -4.300000e-02 -3.380000e-02 -4.900000e-03 -4346.8369 -3557.1997)" gradientUnits="userSpaceOnUse">
				<stop  offset="0" style="stop-color:#FFFFFF"/>
				<stop  offset="1" style="stop-color:#008ABE"/>
			</radialGradient>
			<path class="st29" d="M-206.3,421.2c-0.1-1.1-0.6-2.1-1.5-3c-0.9,0.8-1.4,1.8-1.5,2.9c-0.1,1.1,0.4,1.7,1.5,1.7
				C-206.6,422.8-206.1,422.3-206.3,421.2z"/>
			<g>
				<path class="st1" d="M-207.8,418.2c-0.9,0.8-1.4,1.8-1.5,3c-0.1,0.6,0,1,0.3,1.3c0.3,0.3,0.7,0.4,1.3,0.4c0.6,0,1-0.1,1.3-0.4
					c0.2-0.3,0.3-0.7,0.3-1.2C-206.4,420.1-206.9,419.1-207.8,418.2L-207.8,418.2L-207.8,418.2L-207.8,418.2L-207.8,418.2
					c0.8,0.9,1.3,1.9,1.5,3c0.1,0.5,0,0.9-0.2,1.2c-0.2,0.3-0.7,0.4-1.2,0.4c-0.6,0-1-0.1-1.2-0.4c-0.2-0.3-0.3-0.7-0.3-1.3
					C-209.2,420-208.6,419-207.8,418.2L-207.8,418.2C-207.7,418.2-207.7,418.2-207.8,418.2L-207.8,418.2L-207.8,418.2z"/>
			</g>
		</g>
		<g>
			
				<radialGradient id="SVGID_30_" cx="-76966.5391" cy="-136563.3125" r="97.2774" gradientTransform="matrix(6.200000e-03 -4.300000e-02 -3.380000e-02 -4.900000e-03 -4346.8369 -3557.1997)" gradientUnits="userSpaceOnUse">
				<stop  offset="0" style="stop-color:#FFFFFF"/>
				<stop  offset="1" style="stop-color:#59B3E3"/>
			</radialGradient>
			<path class="st30" d="M-209,420.6c-0.2,0.8-0.1,1.4,0.4,1.8c0.5,0.4,1.1,0.4,1.7,0c-0.6-0.3-1-0.9-1.2-1.6
				c-0.2-0.8-0.2-1.6,0.3-2.5C-208.4,419-208.8,419.8-209,420.6z"/>
		</g>
	</g>
	<g>
		<g>
			<path class="st31" d="M-194.2,399.7c-5.3,0-10.1-2.1-13.1-5.7c-1.7,1.8-4,2.8-6.4,2.8c-0.5,0-1,0-1.5-0.1
				c-2.6-0.5-4.9-2.1-6.2-4.4c-2.2,1.2-4.6,1.8-7.1,1.8c-7.9,0-14.3-6-14.3-13.5c0-6.8,5.3-12.4,12.3-13.4c0.3-4.6,4.2-8.2,8.9-8.2
				c0.8,0,1.5,0.1,2.3,0.3c-0.6-7.4,6.4-14.4,16-16c1.2-0.2,2.5-0.3,3.7-0.3c4.5,0,8.7,1.3,11.8,3.7c0.8-0.1,1.8-0.2,2.7-0.2
				c3.2,0,6.7,1.1,9.8,3c5,3.1,8.3,7.8,8.4,12c0.1,0,0.3,0,0.4,0.1c3.8,0.6,7.3,2.1,9.8,4.2c2.6,2.2,3.8,4.9,3.4,7.6
				c-0.1,0.4-0.2,0.9-0.3,1.3c6.8,1.9,11.1,6.5,10.4,11.2c-0.7,4.6-5.9,7.8-12.8,7.8c-1,0-2.1-0.1-3.2-0.2c-2.3-0.3-4.5-1-6.5-2
				c-1.6,1.6-3.8,2.4-6.1,2.4c-0.5,0-1,0-1.6-0.1c-1.9-0.3-3.6-1.3-4.9-2.7c-2.5,4.4-7.3,7.6-12.9,8.4
				C-192.1,399.6-193.2,399.7-194.2,399.7L-194.2,399.7z"/>
			
				<radialGradient id="SVGID_31_" cx="-191.1844" cy="470.1649" r="107.5691" gradientTransform="matrix(1 0 0 -1 0 796.4)" gradientUnits="userSpaceOnUse">
				<stop  offset="0" style="stop-color:#F4F5F9"/>
				<stop  offset="9.296446e-02" style="stop-color:#EFF1F6"/>
				<stop  offset="0.1971" style="stop-color:#E2E7EE"/>
				<stop  offset="0.3066" style="stop-color:#CCD5E0"/>
				<stop  offset="0.4191" style="stop-color:#ACBDCD"/>
				<stop  offset="0.4634" style="stop-color:#9EB2C4"/>
				<stop  offset="0.5471" style="stop-color:#91A4B4"/>
				<stop  offset="0.7112" style="stop-color:#6E7E8A"/>
				<stop  offset="0.9378" style="stop-color:#364246"/>
				<stop  offset="1" style="stop-color:#263032"/>
			</radialGradient>
			<path class="st32" d="M-154.5,375.1c0.3-0.6,0.5-1.2,0.6-1.8c0.7-5-4.9-9.9-12.6-11c-0.3,0-0.6-0.1-1-0.1c0.2-4-2.9-8.9-8.1-12.1
				c-4.3-2.7-8.9-3.5-12.4-2.6c-3.7-3-9.3-4.4-15.2-3.5c-9.6,1.5-16.5,8.7-15.3,16.1c0,0.1,0,0.1,0,0.2c-1-0.4-2-0.6-3.1-0.6
				c-4.6,0-8.3,3.6-8.3,8.1l0,0c-6.8,0.7-12.2,6.1-12.2,12.8c0,7.1,6.1,12.8,13.6,12.8c2.7,0,5.3-0.8,7.4-2c1.1,2.4,3.3,4.2,6,4.7
				c3.1,0.5,6-0.7,7.8-3c3.2,4.4,9.4,6.9,16.1,5.9c6-0.9,10.8-4.5,12.9-9c1.2,1.6,3,2.8,5.2,3.2c2.8,0.5,5.6-0.5,7.4-2.5
				c1.9,1,4.2,1.8,6.7,2.2c7.7,1.1,14.5-2,15.2-7C-143.1,381.2-147.8,376.7-154.5,375.1z"/>
			
				<radialGradient id="SVGID_32_" cx="-176.8655" cy="489.705" r="120.1089" gradientTransform="matrix(1 0 0 -1 0 796.4)" gradientUnits="userSpaceOnUse">
				<stop  offset="0" style="stop-color:#F4F5F9"/>
				<stop  offset="9.296446e-02" style="stop-color:#EFF1F6"/>
				<stop  offset="0.1971" style="stop-color:#E2E7EE"/>
				<stop  offset="0.3066" style="stop-color:#CCD5E0"/>
				<stop  offset="0.4191" style="stop-color:#ACBDCD"/>
				<stop  offset="0.4634" style="stop-color:#9EB2C4"/>
				<stop  offset="0.5471" style="stop-color:#91A4B4"/>
				<stop  offset="0.7112" style="stop-color:#6E7E8A"/>
				<stop  offset="0.9378" style="stop-color:#364246"/>
				<stop  offset="1" style="stop-color:#263032"/>
			</radialGradient>
			<path class="st33" d="M-215.2,361.4c0.1,0.5,0.2,1,0.4,1.5c-0.7-1.1-1.3-2.4-1.5-3.7c-1-6.4,5-12.7,13.4-14
				c7.7-1.2,11,0.8,14.2,5.1c-4.1-2.6-6.5-3.9-13.1-2.9C-210.2,348.7-216.2,355-215.2,361.4z M-176.1,351.1
				c-5.8-3.6-12.4-3.4-14.7,0.4c-0.5,0.9-0.8,1.9-0.8,2.9c0.1-0.6,0.3-1.3,0.6-1.8c2.2-3.6,8.4-3.7,13.9-0.3s8.2,9,6,12.5
				c-0.7,1.2-2,2-3.4,2.4c2.1-0.3,3.8-1.2,4.8-2.8C-167.5,360.7-170.3,354.7-176.1,351.1z M-165.7,363.8c-1.4-0.2-2.8-0.2-4.1-0.1
				c0.4,0,0.9,0.1,1.3,0.2c7.4,1.1,12.8,5.8,12.1,10.6c-0.1,0.4-0.2,0.8-0.3,1.2c0.7-0.8,1.1-1.7,1.3-2.7
				C-154.7,368.8-159.4,364.8-165.7,363.8z M-227.4,390.4c0.9,0,1.7-0.1,2.5-0.3c-1.3,0.5-2.8,0.8-4.4,0.8
				c-6.2,0-11.2-4.7-11.2-10.5c0-5.8,5-10.5,11.2-10.5c0.6,0,1.3,0.1,1.9,0.2c-5.9,0.1-10.6,4.6-10.6,10.2S-233.3,390.4-227.4,390.4
				z M-214.4,393.6c-3.4-0.6-5.8-4.6-5.8-7.9c-0.2,0.4-0.3,0.9-0.4,1.4c-0.7,3.8,1.9,7.4,5.7,8.1c3.8,0.7,7.5-1.8,8.1-5.6
				c0.1-0.4,0.1-0.7,0.1-1.1C-207.9,391.4-211.1,394.2-214.4,393.6z M-179.1,383.7c-0.1-0.8-0.4-1.6-0.7-2.4c0,0.2,0.1,0.3,0.1,0.5
				c1,6.4-4.3,12.5-11.8,13.7c-7.5,1.2-14.4-3-15.4-9.4c0-0.2,0-0.4-0.1-0.5c-0.1,0.8-0.1,1.7,0.1,2.6c1,6.4,8,10.6,15.7,9.4
				C-183.6,396.2-178.1,390.1-179.1,383.7z M-172.8,391.4c-2.2-0.4-4-1.6-5.2-3.2c1,2,3,3.5,5.4,4c3.3,0.6,6.5-1.1,8-4
				C-166.5,390.7-169.6,392-172.8,391.4z M-220.1,361.4c0.8,0,1.6,0.2,2.4,0.4c-1.2-0.8-2.6-1.3-4.1-1.3c-3.9,0-7,3.1-7,6.9
				c0,0.4,0.1,0.7,0.1,1.1C-228,364.3-224.4,361.4-220.1,361.4z M-155.3,376.2c5.4,1.9,8.9,5.3,8.4,8.6c-0.7,4.4-8.2,7-16.7,5.9l0,0
				c1.3,0.4,2.7,0.8,4.2,1c7.3,1,13.8-1.8,14.5-6.1C-144.4,381.5-148.9,377.6-155.3,376.2z M-205.6,385.6c-0.4-2.7,0.4-5.3,2-7.6
				c-2.9,2.5-4.5,6-4,9.6c0.9,6,7.5,9.9,14.7,8.8c2.4-0.4,4.5-1.3,6.3-2.5c-1,0.3-2,0.6-3.1,0.8
				C-197.5,395.9-204.7,391.8-205.6,385.6z"/>
		</g>
		<g>
			<path class="st31" d="M-162.3,400.2c-4,0-7.7-1.6-9.9-4.3c-1.3,1.3-3,2.1-4.8,2.1c-0.4,0-0.8,0-1.2-0.1c-2-0.4-3.7-1.6-4.7-3.3
				c-1.6,0.9-3.5,1.4-5.4,1.4c-6,0-10.8-4.6-10.8-10.2c0-5.1,4-9.3,9.3-10.1c0.2-3.5,3.2-6.2,6.7-6.2c0.6,0,1.2,0.1,1.7,0.2
				c-0.4-5.6,4.8-10.9,12.1-12.1c0.9-0.1,1.9-0.2,2.8-0.2c3.4,0,6.6,1,8.9,2.8c0.7-0.1,1.3-0.2,2.1-0.2c2.4,0,5,0.8,7.4,2.3
				c3.8,2.3,6.3,5.9,6.4,9.1c0.1,0,0.2,0,0.3,0c2.9,0.4,5.5,1.6,7.4,3.2c1.9,1.7,2.8,3.7,2.5,5.7c0,0.3-0.1,0.6-0.2,1
				c5.1,1.4,8.4,4.9,7.9,8.5c-0.5,3.5-4.5,5.9-9.7,5.9c-0.8,0-1.6-0.1-2.4-0.2c-1.7-0.3-3.4-0.8-4.9-1.5c-1.2,1.2-2.9,1.8-4.6,1.8
				c-0.4,0-0.8,0-1.2-0.1c-1.4-0.3-2.7-1-3.7-2c-1.9,3.3-5.5,5.7-9.7,6.4C-160.7,400.2-161.5,400.2-162.3,400.2L-162.3,400.2z"/>
			
				<radialGradient id="SVGID_33_" cx="-160.008" cy="451.6231" r="81.2238" gradientTransform="matrix(1 0 0 -1 0 796.4)" gradientUnits="userSpaceOnUse">
				<stop  offset="0" style="stop-color:#F4F5F9"/>
				<stop  offset="9.296446e-02" style="stop-color:#EFF1F6"/>
				<stop  offset="0.1971" style="stop-color:#E2E7EE"/>
				<stop  offset="0.3066" style="stop-color:#CCD5E0"/>
				<stop  offset="0.4191" style="stop-color:#ACBDCD"/>
				<stop  offset="0.4634" style="stop-color:#9EB2C4"/>
				<stop  offset="0.5471" style="stop-color:#91A4B4"/>
				<stop  offset="0.7112" style="stop-color:#6E7E8A"/>
				<stop  offset="0.9378" style="stop-color:#364246"/>
				<stop  offset="1" style="stop-color:#263032"/>
			</radialGradient>
			<path class="st34" d="M-132.3,381.7c0.2-0.4,0.4-0.9,0.4-1.4c0.5-3.8-3.7-7.5-9.5-8.3c-0.2,0-0.5-0.1-0.7-0.1
				c0.1-3-2.2-6.7-6.1-9.1c-3.2-2-6.7-2.6-9.4-1.9c-2.8-2.2-7-3.3-11.5-2.6c-7.3,1.1-12.5,6.6-11.6,12.1c0,0.1,0,0.1,0,0.2
				c-0.7-0.3-1.5-0.4-2.3-0.4c-3.5,0-6.3,2.7-6.3,6.1l0,0c-5.2,0.5-9.3,4.6-9.3,9.6c0,5.3,4.6,9.7,10.3,9.7c2.1,0,4-0.6,5.6-1.5
				c0.8,1.8,2.5,3.1,4.5,3.5c2.3,0.4,4.6-0.5,5.9-2.3c2.4,3.3,7.1,5.2,12.1,4.4c4.5-0.7,8.1-3.4,9.7-6.8c0.9,1.2,2.3,2.2,3.9,2.4
				c2.1,0.4,4.2-0.4,5.6-1.9c1.5,0.8,3.2,1.4,5.1,1.6c5.8,0.8,10.9-1.5,11.5-5.3C-123.7,386.3-127.3,382.9-132.3,381.7z"/>
			
				<radialGradient id="SVGID_34_" cx="-149.1959" cy="466.3769" r="90.6913" gradientTransform="matrix(1 0 0 -1 0 796.4)" gradientUnits="userSpaceOnUse">
				<stop  offset="0" style="stop-color:#F4F5F9"/>
				<stop  offset="9.296446e-02" style="stop-color:#EFF1F6"/>
				<stop  offset="0.1971" style="stop-color:#E2E7EE"/>
				<stop  offset="0.3066" style="stop-color:#CCD5E0"/>
				<stop  offset="0.4191" style="stop-color:#ACBDCD"/>
				<stop  offset="0.4634" style="stop-color:#9EB2C4"/>
				<stop  offset="0.5471" style="stop-color:#91A4B4"/>
				<stop  offset="0.7112" style="stop-color:#6E7E8A"/>
				<stop  offset="0.9378" style="stop-color:#364246"/>
				<stop  offset="1" style="stop-color:#263032"/>
			</radialGradient>
			<path class="st35" d="M-178.1,371.3c0.1,0.4,0.2,0.8,0.3,1.1c-0.6-0.8-0.9-1.8-1.1-2.8c-0.8-4.8,3.8-9.6,10.1-10.6
				c5.8-0.9,8.3,0.6,10.7,3.9c-3.1-1.9-4.9-3-9.9-2.2C-174.4,361.8-178.9,366.5-178.1,371.3z M-148.6,363.6
				c-4.4-2.7-9.4-2.6-11.1,0.3c-0.4,0.7-0.6,1.4-0.6,2.2c0.1-0.5,0.2-0.9,0.5-1.4c1.7-2.7,6.3-2.8,10.5-0.3c4.1,2.5,6.2,6.8,4.5,9.5
				c-0.6,0.9-1.5,1.5-2.6,1.8c1.6-0.2,2.9-0.9,3.6-2.1C-142.1,370.8-144.2,366.3-148.6,363.6z M-140.8,373.2
				c-1.1-0.2-2.1-0.2-3.1-0.1c0.3,0,0.7,0.1,1,0.1c5.6,0.8,9.7,4.4,9.2,8c0,0.3-0.1,0.6-0.2,0.9c0.5-0.6,0.9-1.3,1-2.1
				C-132.5,376.9-136,373.9-140.8,373.2z M-187.4,393.3c0.7,0,1.3-0.1,1.9-0.2c-1,0.4-2.1,0.6-3.3,0.6c-4.7,0-8.4-3.5-8.4-7.9
				c0-4.4,3.8-7.9,8.4-7.9c0.5,0,1,0,1.4,0.1c-4.4,0-8,3.4-8,7.7C-195.4,389.8-191.8,393.3-187.4,393.3z M-177.5,395.6
				c-2.6-0.5-4.4-3.5-4.4-6c-0.1,0.3-0.2,0.7-0.3,1.1c-0.5,2.9,1.4,5.6,4.3,6.1c2.9,0.5,5.6-1.4,6.1-4.3c0-0.3,0.1-0.5,0.1-0.8
				C-172.6,394-175,396.1-177.5,395.6z M-150.9,388.2c-0.1-0.6-0.3-1.2-0.5-1.8c0,0.1,0.1,0.2,0.1,0.4c0.8,4.8-3.2,9.4-8.9,10.3
				c-5.7,0.9-10.9-2.3-11.6-7.1c0-0.1,0-0.3,0-0.4c-0.1,0.6-0.1,1.3,0,1.9c0.8,4.8,6.1,8,11.9,7.1
				C-154.2,397.6-150.2,393-150.9,388.2z M-146.1,394c-1.6-0.3-3-1.2-3.9-2.4c0.8,1.5,2.2,2.7,4,3c2.5,0.4,4.9-0.8,6-3
				C-141.3,393.4-143.7,394.4-146.1,394z M-181.9,371.3c0.6,0,1.2,0.1,1.8,0.3c-0.9-0.6-1.9-1-3.1-1c-2.9,0-5.3,2.3-5.3,5.2
				c0,0.3,0,0.5,0.1,0.8C-187.8,373.6-185.1,371.3-181.9,371.3z M-132.9,382.5c4.1,1.5,6.7,4,6.3,6.5c-0.5,3.3-6.2,5.3-12.6,4.4l0,0
				c1,0.3,2,0.6,3.1,0.7c5.5,0.7,10.4-1.3,10.9-4.6C-124.7,386.5-128.1,383.6-132.9,382.5z M-170.9,389.6c-0.3-2,0.3-4,1.5-5.7
				c-2.2,1.9-3.4,4.5-3,7.2c0.7,4.5,5.7,7.5,11.1,6.6c1.8-0.3,3.4-0.9,4.7-1.9c-0.7,0.3-1.5,0.5-2.3,0.6
				C-164.8,397.4-170.2,394.3-170.9,389.6z"/>
		</g>
		<g>
			<path class="st36" d="M-201.3,412.5c-3.7,0-7.1-1.5-9.2-4c-1.2,1.2-2.8,1.9-4.5,1.9c-0.4,0-0.7,0-1.1-0.1
				c-1.8-0.3-3.4-1.5-4.3-3.1c-1.5,0.8-3.2,1.3-5,1.3c-5.5,0-10-4.2-10-9.4c0-4.7,3.7-8.7,8.6-9.3c0.2-3.2,2.9-5.7,6.2-5.7
				c0.5,0,1.1,0.1,1.6,0.2c-0.4-5.2,4.5-10.1,11.2-11.2c0.9-0.1,1.7-0.2,2.6-0.2c3.2,0,6.1,0.9,8.3,2.6c0.6-0.1,1.3-0.2,1.9-0.2
				c2.2,0,4.7,0.7,6.9,2.1c3.5,2.1,5.8,5.5,5.9,8.4c0.1,0,0.2,0,0.3,0c2.7,0.4,5.1,1.4,6.9,3s2.6,3.4,2.4,5.3c0,0.3-0.1,0.6-0.2,0.9
				c4.7,1.3,7.8,4.5,7.3,7.9c-0.5,3.2-4.1,5.5-9,5.5c-0.7,0-1.5-0.1-2.2-0.2c-1.6-0.2-3.2-0.7-4.5-1.4c-1.1,1.1-2.7,1.7-4.3,1.7
				c-0.4,0-0.7,0-1.1-0.1c-1.3-0.2-2.5-0.9-3.5-1.9c-1.7,3.1-5.1,5.3-9,5.9C-199.8,412.4-200.6,412.5-201.3,412.5L-201.3,412.5z"/>
			
				<radialGradient id="SVGID_35_" cx="-199.1845" cy="435.3229" r="75.3054" gradientTransform="matrix(1 0 0 -1 0 796.4)" gradientUnits="userSpaceOnUse">
				<stop  offset="0" style="stop-color:#9EB2C4"/>
				<stop  offset="0.156" style="stop-color:#91A4B4"/>
				<stop  offset="0.4618" style="stop-color:#6E7E8A"/>
				<stop  offset="0.8841" style="stop-color:#364246"/>
				<stop  offset="1" style="stop-color:#263032"/>
			</radialGradient>
			<path class="st37" d="M-173.5,395.3c0.2-0.4,0.3-0.8,0.4-1.3c0.5-3.5-3.4-7-8.8-7.7c-0.2,0-0.4-0.1-0.7-0.1
				c0.1-2.8-2-6.2-5.7-8.4c-3-1.8-6.3-2.4-8.7-1.8c-2.6-2.1-6.5-3.1-10.7-2.4c-6.7,1.1-11.5,6.1-10.7,11.2v0.1
				c-0.7-0.3-1.4-0.4-2.2-0.4c-3.2,0-5.8,2.5-5.8,5.7l0,0c-4.8,0.5-8.6,4.3-8.6,8.9c0,4.9,4.3,9,9.5,9c1.9,0,3.7-0.5,5.2-1.4
				c0.8,1.6,2.3,2.9,4.2,3.3c2.2,0.4,4.2-0.5,5.5-2.1c2.2,3.1,6.6,4.8,11.3,4.1c4.2-0.7,7.5-3.1,9-6.3c0.8,1.1,2.1,2,3.6,2.3
				c2,0.4,3.9-0.4,5.2-1.7c1.3,0.7,2.9,1.3,4.7,1.5c5.4,0.8,10.2-1.4,10.7-4.9C-165.5,399.6-168.8,396.4-173.5,395.3z"/>
			
				<radialGradient id="SVGID_36_" cx="-189.1601" cy="449.0037" r="84.0877" gradientTransform="matrix(1 0 0 -1 0 796.4)" gradientUnits="userSpaceOnUse">
				<stop  offset="0" style="stop-color:#9EB2C4"/>
				<stop  offset="0.156" style="stop-color:#91A4B4"/>
				<stop  offset="0.4618" style="stop-color:#6E7E8A"/>
				<stop  offset="0.8841" style="stop-color:#364246"/>
				<stop  offset="1" style="stop-color:#263032"/>
			</radialGradient>
			<path class="st38" d="M-216,385.7c0.1,0.4,0.2,0.7,0.3,1c-0.5-0.8-0.9-1.6-1-2.6c-0.7-4.5,3.5-8.9,9.4-9.8
				c5.4-0.9,7.7,0.5,9.9,3.6c-2.9-1.8-4.5-2.8-9.2-2C-212.5,376.8-216.7,381.2-216,385.7z M-188.6,378.5c-4.1-2.5-8.7-2.4-10.3,0.3
				c-0.4,0.6-0.6,1.3-0.6,2.1c0.1-0.4,0.2-0.9,0.4-1.3c1.5-2.5,5.9-2.6,9.7-0.2c3.8,2.4,5.7,6.3,4.2,8.8c-0.5,0.8-1.4,1.4-2.4,1.7
				c1.5-0.2,2.7-0.9,3.4-2C-182.6,385.2-184.6,381-188.6,378.5z M-181.4,387.4c-1-0.1-1.9-0.2-2.8-0.1c0.3,0,0.6,0.1,0.9,0.1
				c5.2,0.8,9,4.1,8.5,7.4c0,0.3-0.1,0.5-0.2,0.8c0.5-0.6,0.8-1.2,0.9-1.9C-173.7,390.9-176.9,388-181.4,387.4z M-224.6,406
				c0.6,0,1.2-0.1,1.7-0.2c-0.9,0.4-2,0.6-3.1,0.6c-4.3,0-7.8-3.3-7.8-7.3c0-4.1,3.5-7.3,7.8-7.3c0.4,0,0.9,0,1.3,0.1
				c-4.1,0-7.4,3.2-7.4,7.1C-232,402.8-228.7,406-224.6,406z M-215.4,408.2c-2.4-0.4-4.1-3.2-4-5.6c-0.1,0.3-0.2,0.6-0.3,1
				c-0.5,2.7,1.3,5.2,4,5.7s5.2-1.3,5.7-3.9c0-0.3,0.1-0.5,0.1-0.8C-210.9,406.7-213.1,408.7-215.4,408.2z M-190.8,401.3
				c-0.1-0.6-0.3-1.2-0.5-1.7c0,0.1,0.1,0.2,0.1,0.3c0.7,4.5-3,8.8-8.3,9.6c-5.3,0.8-10.1-2.1-10.8-6.6c0-0.1,0-0.3,0-0.4
				c-0.1,0.6-0.1,1.2,0,1.8c0.7,4.5,5.6,7.4,11,6.6C-193.8,410.1-190.1,405.8-190.8,401.3z M-186.3,406.7c-1.5-0.3-2.8-1.1-3.6-2.2
				c0.7,1.4,2.1,2.5,3.8,2.8c2.3,0.4,4.6-0.8,5.6-2.8C-181.9,406.2-184,407.1-186.3,406.7z M-219.5,385.7c0.6,0,1.1,0.1,1.7,0.3
				c-0.8-0.6-1.8-0.9-2.9-0.9c-2.7,0-4.9,2.1-4.9,4.8c0,0.3,0,0.5,0.1,0.7C-224.9,387.8-222.5,385.7-219.5,385.7z M-174,396.1
				c3.8,1.4,6.2,3.7,5.8,6c-0.5,3.1-5.7,4.9-11.7,4.1l0,0c0.9,0.3,1.9,0.5,2.9,0.7c5.1,0.7,9.7-1.2,10.1-4.3
				C-166.4,399.8-169.6,397-174,396.1z M-209.3,402.6c-0.3-1.9,0.3-3.7,1.4-5.3c-2.1,1.7-3.2,4.2-2.8,6.7c0.7,4.2,5.3,6.9,10.3,6.2
				c1.7-0.3,3.2-0.9,4.4-1.7c-0.7,0.2-1.4,0.4-2.2,0.6C-203.6,409.8-208.6,407-209.3,402.6z"/>
		</g>
	</g>
</g>
</svg>
