<?xml version="1.0" encoding="utf-8"?>
<!-- Generator: Adobe Illustrator 19.1.0, SVG Export Plug-In . SVG Version: 6.00 Build 0)  -->
<svg version="1.1" id="Ã•_xBA__x2264__x201E__x5F_1"
	 xmlns="http://www.w3.org/2000/svg" xmlns:xlink="http://www.w3.org/1999/xlink" x="0px" y="0px" viewBox="0 0 155.1 82.9"
	 style="enable-background:new 0 0 155.1 82.9;" xml:space="preserve">
<style type="text/css">
	
		.Ï_x0080_â_x0088__x009E_â_x0080__x0093_Å_x0092_Â_x00AC_Ã_x0083_â_x0080__x00A6_Â_x00B4_{fill:url(#SVGID_1_);stroke:#FFFFFF;stroke-width:0.25;stroke-miterlimit:1;}
	.st0{fill-rule:evenodd;clip-rule:evenodd;fill:#191615;}
	.st1{fill:none;stroke:#191615;stroke-width:1.0001;stroke-miterlimit:10;}
	.st2{fill-rule:evenodd;clip-rule:evenodd;fill:#3C3939;}
	.st3{fill-rule:evenodd;clip-rule:evenodd;fill:#2A2626;}
	.st4{fill:none;stroke:#191615;stroke-width:0.5;stroke-miterlimit:10;}
	.st5{fill-rule:evenodd;clip-rule:evenodd;fill:#0D0D0F;}
	.st6{fill:none;stroke:#191615;stroke-width:0.216;stroke-miterlimit:10;}
	.st7{clip-path:url(#SVGID_3_);fill:url(#SVGID_4_);}
	.st8{clip-path:url(#SVGID_6_);fill:url(#SVGID_7_);}
	.st9{fill-rule:evenodd;clip-rule:evenodd;fill:#5F5D5D;}
	.st10{clip-path:url(#SVGID_9_);fill:url(#SVGID_10_);}
	.st11{clip-path:url(#SVGID_12_);fill:url(#SVGID_13_);}
</style>
<linearGradient id="SVGID_1_" gradientUnits="userSpaceOnUse" x1="-206.7131" y1="726.7672" x2="-206.006" y2="726.0601">
	<stop  offset="0" style="stop-color:#20AC4B"/>
	<stop  offset="0.9831" style="stop-color:#19361A"/>
</linearGradient>
<g>
	<path class="st0" d="M149.3,22.7c-4-8.4-9.6-15.7-18.5-20.8c-1.4-0.4-2.6-0.2-3.9,0.1c-4.2,1.8-8.5,3.5-11.6,6.5
		c-1.4,1.1-1.4,2.7-0.7,3.7c1.9,3.8,7.1-2.3,11.1-4.6c1.2-0.5,2.4-0.5,3.6,0c4.3,4.2,8,9.5,11.2,15.7
		C143.4,23.1,146.3,22.9,149.3,22.7z"/>
	<path class="st1" d="M149.3,22.7c-4-8.4-9.6-15.7-18.5-20.8c-1.4-0.4-2.6-0.2-3.9,0.1c-4.2,1.8-8.5,3.5-11.6,6.5
		c-1.4,1.1-1.4,2.7-0.7,3.7c1.9,3.8,7.1-2.3,11.1-4.6c1.2-0.5,2.4-0.5,3.6,0c4.3,4.2,8,9.5,11.2,15.7
		C143.4,23.1,146.3,22.9,149.3,22.7z"/>
	<path class="st2" d="M114.7,9.5c-0.4,1.1-0.6,2-0.2,2.7c1.9,3.8,7.1-2.3,11.1-4.6c1.2-0.5,2.4-0.5,3.6,0c4.3,4.2,8,9.5,11.2,15.7
		c2.4-0.2,4.7-0.4,7.1-0.5c-4-7.8-9.4-14.6-17.8-19.4c-1.3-0.2-2.6-0.2-3.9,0.1C121.9,5.1,117.8,6.7,114.7,9.5"/>
	<path class="st0" d="M4.2,25.3c4-8.4,9.6-15.7,18.5-20.8c1.4-0.4,2.6-0.2,3.9,0.1c4.2,1.8,8.5,3.5,11.6,6.5
		c1.4,1.1,1.4,2.7,0.7,3.7c-1.9,3.8-7.1-2.3-11.1-4.6c-1.2-0.5-2.4-0.5-3.6,0c-4.3,4.2-8,9.5-11.2,15.7C10.1,25.8,7.2,25.5,4.2,25.3
		z"/>
	<path class="st1" d="M4.2,25.3c4-8.4,9.6-15.7,18.5-20.8c1.4-0.4,2.6-0.2,3.9,0.1c4.2,1.8,8.5,3.5,11.6,6.5
		c1.4,1.1,1.4,2.7,0.7,3.7c-1.9,3.8-7.1-2.3-11.1-4.6c-1.2-0.5-2.4-0.5-3.6,0c-4.3,4.2-8,9.5-11.2,15.7C10.1,25.8,7.2,25.5,4.2,25.3
		z"/>
	<path class="st2" d="M38.8,12.2c0.4,1.1,0.6,2,0.2,2.7c-1.9,3.8-7.1-2.3-11.1-4.6c-1.2-0.5-2.4-0.5-3.6,0c-4.3,4.2-8,9.5-11.2,15.7
		c-2.4-0.2-4.7-0.4-7.1-0.5c4-7.8,9.4-14.6,17.8-19.4c1.3-0.2,2.6-0.2,3.9,0.1C31.6,7.8,35.7,9.4,38.8,12.2"/>
	<path class="st3" d="M7.5,21c-10.6,3.5,1.2,34.4,3.4,42.8c2.8,5.8,13.7,13.6,23.4,16c7.5,1.9,15.9,1.7,24.4-1.3
		c9.4-4.4,11.9-23.3,18.4-23c0.3,0,0.7-0.1,1-0.1c0.3,0,0.7,0,1,0.1c6.5-0.4,9.1,18.6,18.5,23c8.5,2.9,16.9,3.1,24.4,1.3
		c9.7-2.4,20.6-10.2,23.4-16c2.2-8.4,14-39.3,3.4-42.8c-8.1,2.6-20,6.7-33.1,10.1c-12.1,3.2-24.3,7.8-37.6,8.2
		c-13.3-0.4-25.4-5-37.6-8.2C27.5,27.7,15.6,23.6,7.5,21z"/>
	<path class="st4" d="M7.5,21c-10.6,3.5,1.2,34.4,3.4,42.8c2.8,5.8,13.7,13.6,23.4,16c7.5,1.9,15.9,1.7,24.4-1.3
		c9.4-4.4,11.9-23.3,18.4-23c0.3,0,0.7-0.1,1-0.1c0.3,0,0.7,0,1,0.1c6.5-0.4,9.1,18.6,18.5,23c8.5,2.9,16.9,3.1,24.4,1.3
		c9.7-2.4,20.6-10.2,23.4-16c2.2-8.4,14-39.3,3.4-42.8c-8.1,2.6-20,6.7-33.1,10.1c-12.1,3.2-24.3,7.8-37.6,8.2
		c-13.3-0.4-25.4-5-37.6-8.2C27.5,27.7,15.6,23.6,7.5,21z"/>
	<path class="st5" d="M9.4,28.9c-0.1-0.8-2.4-0.9-3,1.2c-0.6,2.1,2.7,26.9,4.1,30.5c1.4,3.6,7.8,4.9,7.8,4.9L9.4,28.9z"/>
	<path class="st6" d="M9.4,28.9c-0.1-0.8-2.4-0.9-3,1.2c-0.6,2.1,2.7,26.9,4.1,30.5c1.4,3.6,7.8,4.9,7.8,4.9L9.4,28.9z"/>
	<g>
		<defs>
			<path id="SVGID_2_" d="M9.4,28.9c19.3,8.5,41,10.5,58,16.8c4.2,6.7-2.4,19.4-7.6,28.2c-18.3,8.7-35.5,0.2-45.3-11.2
				c-4.2-10.1-5-20.1-5.7-32.5C8.7,29.7,9.3,29.2,9.4,28.9"/>
		</defs>
		<clipPath id="SVGID_3_">
			<use xlink:href="#SVGID_2_"  style="overflow:visible;"/>
		</clipPath>
		
			<linearGradient id="SVGID_4_" gradientUnits="userSpaceOnUse" x1="-51.1691" y1="448.5685" x2="-50.9873" y2="448.5685" gradientTransform="matrix(-161.2617 102.3673 -88.5147 -139.4395 31494.8555 67841.0391)">
			<stop  offset="0" style="stop-color:#191615"/>
			<stop  offset="0.69" style="stop-color:#71706F"/>
			<stop  offset="1" style="stop-color:#FFFFFF"/>
		</linearGradient>
		<polygon class="st7" points="53.5,0.4 -15.6,44.3 26.8,111 95.9,67.2 		"/>
	</g>
	<path class="st6" d="M9.4,28.9c19.3,8.5,41,10.5,58,16.8c4.2,6.7-2.4,19.4-7.6,28.2c-18.3,8.7-35.5,0.2-45.3-11.2
		c-4.2-10.1-5-20.1-5.7-32.5C8.7,29.7,9.3,29.2,9.4,28.9z"/>
	<g>
		<defs>
			<path id="SVGID_5_" d="M29.7,29.6c1.6-0.9-12-4.4-20.6-7c4.6,3,6.6,5.4,6.6,7.4c3.2,1.3,6.5,2.4,10.7,2.9
				C29,31.9,29.6,30.8,29.7,29.6"/>
		</defs>
		<clipPath id="SVGID_6_">
			<use xlink:href="#SVGID_5_"  style="overflow:visible;"/>
		</clipPath>
		
			<linearGradient id="SVGID_7_" gradientUnits="userSpaceOnUse" x1="-49.6881" y1="455.6051" x2="-49.1422" y2="455.6051" gradientTransform="matrix(-44.5383 -12.0583 7.7451 -28.6072 -5710.0581 12465.3076)">
			<stop  offset="0" style="stop-color:#3B3836"/>
			<stop  offset="1" style="stop-color:#A09F9F"/>
		</linearGradient>
		<polygon class="st8" points="33.8,23.3 10.6,17 6.5,32.2 29.7,38.5 		"/>
	</g>
	<path class="st5" d="M50,34.5c0,0,17.2,5.6,19.4,5.9c2.1,0.1-22.3-3-22.1-2.5C51.2,37.1,54.1,36.2,50,34.5z"/>
	<path class="st6" d="M50,34.5c0,0,17.2,5.6,19.4,5.9c2.1,0.1-22.3-3-22.1-2.5C51.2,37.1,54.1,36.2,50,34.5z"/>
	<path class="st9" d="M13.1,63.9C16.7,71.5,24.3,76,35,78.3C25.6,75,17.9,70.5,13.1,63.9"/>
	<path class="st5" d="M147,28.9c0.1-0.8,2.4-0.9,3,1.2c0.6,2.1-2.7,26.9-4.1,30.5c-1.4,3.6-7.8,4.9-7.8,4.9L147,28.9z"/>
	<path class="st6" d="M147,28.9c0.1-0.8,2.4-0.9,3,1.2c0.6,2.1-2.7,26.9-4.1,30.5c-1.4,3.6-7.8,4.9-7.8,4.9L147,28.9z"/>
	<g>
		<defs>
			<path id="SVGID_8_" d="M147,28.9c-19.3,8.5-41,10.5-58,16.8c-4.2,6.7,2.4,19.4,7.6,28.2c18.3,8.7,35.5,0.2,45.3-11.2
				c4.2-10.1,5-20.1,5.7-32.5C147.7,29.7,147,29.2,147,28.9"/>
		</defs>
		<clipPath id="SVGID_9_">
			<use xlink:href="#SVGID_8_"  style="overflow:visible;"/>
		</clipPath>
		
			<linearGradient id="SVGID_10_" gradientUnits="userSpaceOnUse" x1="-51.2989" y1="445.9291" x2="-51.0373" y2="445.9291" gradientTransform="matrix(155.9595 75.004 -61.8155 128.5361 35672.3438 -53419.3203)">
			<stop  offset="0" style="stop-color:#191615"/>
			<stop  offset="0.76" style="stop-color:#71706F"/>
			<stop  offset="1" style="stop-color:#FFFFFF"/>
		</linearGradient>
		<polygon class="st10" points="63.8,72.5 135.9,107.1 168.6,39 96.6,4.3 		"/>
	</g>
	<path class="st6" d="M147,28.9c-19.3,8.5-41,10.5-58,16.8c-4.2,6.7,2.4,19.4,7.6,28.2c18.3,8.7,35.5,0.2,45.3-11.2
		c4.2-10.1,5-20.1,5.7-32.5C147.7,29.7,147,29.2,147,28.9z"/>
	<g>
		<defs>
			<path id="SVGID_11_" d="M126.7,29.6c-1.6-0.9,12-4.4,20.6-7c-2.6,1-3.9,2.7-6.6,7.4c-3.2,1.3-6.5,2.4-10.7,2.9
				C127.4,31.9,126.7,30.8,126.7,29.6"/>
		</defs>
		<clipPath id="SVGID_12_">
			<use xlink:href="#SVGID_11_"  style="overflow:visible;"/>
		</clipPath>
		
			<linearGradient id="SVGID_13_" gradientUnits="userSpaceOnUse" x1="-50.1643" y1="449.3994" x2="-50.0958" y2="449.3994" gradientTransform="matrix(-423.4814 -114.6531 35.5215 -131.202 -37165.332 53212.7734)">
			<stop  offset="0" style="stop-color:#545251"/>
			<stop  offset="1" style="stop-color:#AFAFAE"/>
		</linearGradient>
		<polygon class="st11" points="149.9,23.3 126.6,17 122.5,32.2 145.8,38.5 		"/>
	</g>
	<path class="st5" d="M106.3,34.5c0,0-17.2,5.6-19.4,5.9c-2.1,0.1,22.3-3,22.1-2.5C105.2,37.1,102.3,36.2,106.3,34.5z"/>
	<path class="st6" d="M106.3,34.5c0,0-17.2,5.6-19.4,5.9c-2.1,0.1,22.3-3,22.1-2.5C105.2,37.1,102.3,36.2,106.3,34.5z"/>
	<path class="st9" d="M143.3,63.9c-3.6,7.5-11.2,12.1-21.9,14.4C130.8,75,138.5,70.5,143.3,63.9"/>
</g>
</svg>
